<svg width="801" height="205" viewBox="0 0 801 205" fill="none" xmlns="http://www.w3.org/2000/svg">
<rect x="625" y="141" width="115" height="22.5" fill="#3A3A3A"/>
<path d="M655.105 156V149.091H657.568C658.105 149.091 658.55 149.189 658.904 149.384C659.257 149.58 659.521 149.848 659.696 150.187C659.872 150.525 659.959 150.905 659.959 151.328C659.959 151.753 659.871 152.135 659.693 152.475C659.518 152.812 659.252 153.08 658.897 153.278C658.544 153.473 658.1 153.571 657.564 153.571H655.871V152.687H657.47C657.809 152.687 658.085 152.629 658.296 152.512C658.508 152.393 658.663 152.231 658.762 152.026C658.861 151.821 658.91 151.588 658.91 151.328C658.91 151.067 658.861 150.835 658.762 150.633C658.663 150.43 658.507 150.272 658.293 150.157C658.082 150.042 657.803 149.985 657.456 149.985H656.147V156H655.105ZM660.849 156V149.091H663.312C663.847 149.091 664.291 149.183 664.644 149.368C665 149.552 665.265 149.807 665.441 150.133C665.616 150.457 665.704 150.832 665.704 151.257C665.704 151.68 665.615 152.052 665.437 152.373C665.262 152.693 664.996 152.941 664.641 153.119C664.288 153.297 663.844 153.385 663.308 153.385H661.443V152.488H663.214C663.551 152.488 663.826 152.44 664.037 152.343C664.251 152.246 664.407 152.106 664.506 151.921C664.605 151.737 664.654 151.515 664.654 151.257C664.654 150.996 664.604 150.77 664.503 150.579C664.404 150.387 664.247 150.241 664.034 150.14C663.822 150.037 663.545 149.985 663.2 149.985H661.892V156H660.849ZM664.26 152.883L665.967 156H664.779L663.106 152.883H664.26ZM668.821 156V149.091H669.864V155.103H672.994V156H668.821ZM674.787 156H673.681L676.167 149.091H677.371L679.858 156H678.751L676.798 150.346H676.744L674.787 156ZM674.973 153.294H678.562V154.172H674.973V153.294ZM680.523 156V149.091H683.053C683.543 149.091 683.949 149.172 684.271 149.334C684.593 149.493 684.833 149.711 684.993 149.985C685.153 150.257 685.232 150.564 685.232 150.906C685.232 151.194 685.18 151.437 685.074 151.635C684.968 151.83 684.827 151.988 684.649 152.107C684.473 152.224 684.28 152.309 684.069 152.363V152.431C684.298 152.442 684.522 152.516 684.74 152.653C684.96 152.788 685.143 152.981 685.286 153.23C685.43 153.48 685.502 153.784 685.502 154.141C685.502 154.494 685.419 154.811 685.253 155.093C685.089 155.371 684.834 155.593 684.49 155.757C684.146 155.919 683.707 156 683.171 156H680.523ZM681.565 155.106H683.07C683.569 155.106 683.927 155.009 684.143 154.816C684.359 154.622 684.467 154.381 684.467 154.091C684.467 153.872 684.412 153.672 684.301 153.49C684.191 153.308 684.034 153.163 683.829 153.055C683.627 152.947 683.386 152.893 683.107 152.893H681.565V155.106ZM681.565 152.08H682.962C683.196 152.08 683.406 152.035 683.593 151.945C683.782 151.855 683.931 151.729 684.042 151.567C684.154 151.403 684.21 151.21 684.21 150.987C684.21 150.701 684.11 150.462 683.91 150.268C683.71 150.075 683.403 149.978 682.989 149.978H681.565V152.08ZM692.408 152.545C692.408 153.283 692.273 153.917 692.003 154.448C691.733 154.977 691.363 155.384 690.893 155.669C690.425 155.953 689.893 156.094 689.297 156.094C688.699 156.094 688.165 155.953 687.695 155.669C687.227 155.384 686.858 154.976 686.588 154.445C686.319 153.914 686.184 153.281 686.184 152.545C686.184 151.808 686.319 151.175 686.588 150.646C686.858 150.115 687.227 149.708 687.695 149.425C688.165 149.139 688.699 148.996 689.297 148.996C689.893 148.996 690.425 149.139 690.893 149.425C691.363 149.708 691.733 150.115 692.003 150.646C692.273 151.175 692.408 151.808 692.408 152.545ZM691.376 152.545C691.376 151.983 691.284 151.51 691.102 151.125C690.922 150.738 690.675 150.446 690.36 150.248C690.048 150.048 689.693 149.948 689.297 149.948C688.899 149.948 688.544 150.048 688.231 150.248C687.919 150.446 687.671 150.738 687.489 151.125C687.309 151.51 687.219 151.983 687.219 152.545C687.219 153.108 687.309 153.582 687.489 153.969C687.671 154.354 687.919 154.646 688.231 154.846C688.544 155.044 688.899 155.143 689.297 155.143C689.693 155.143 690.048 155.044 690.36 154.846C690.675 154.646 690.922 154.354 691.102 153.969C691.284 153.582 691.376 153.108 691.376 152.545ZM693.375 156V149.091H695.838C696.373 149.091 696.817 149.183 697.17 149.368C697.526 149.552 697.791 149.807 697.967 150.133C698.142 150.457 698.23 150.832 698.23 151.257C698.23 151.68 698.141 152.052 697.963 152.373C697.788 152.693 697.522 152.941 697.167 153.119C696.814 153.297 696.37 153.385 695.834 153.385H693.969V152.488H695.74C696.077 152.488 696.352 152.44 696.563 152.343C696.777 152.246 696.933 152.106 697.032 151.921C697.131 151.737 697.18 151.515 697.18 151.257C697.18 150.996 697.13 150.77 697.029 150.579C696.93 150.387 696.773 150.241 696.56 150.14C696.348 150.037 696.071 149.985 695.726 149.985H694.418V156H693.375ZM696.786 152.883L698.493 156H697.305L695.632 152.883H696.786ZM701.402 156H699.166V149.091H701.473C702.15 149.091 702.731 149.229 703.217 149.506C703.703 149.78 704.075 150.175 704.334 150.69C704.595 151.203 704.725 151.818 704.725 152.535C704.725 153.255 704.594 153.874 704.331 154.391C704.07 154.908 703.692 155.306 703.197 155.585C702.702 155.862 702.104 156 701.402 156ZM700.208 155.089H701.345C701.871 155.089 702.309 154.99 702.657 154.792C703.006 154.592 703.267 154.303 703.44 153.925C703.613 153.545 703.7 153.082 703.7 152.535C703.7 151.993 703.613 151.533 703.44 151.156C703.269 150.778 703.014 150.491 702.674 150.295C702.335 150.1 701.913 150.002 701.409 150.002H700.208V155.089ZM705.689 156V149.091H710.021V149.988H706.732V152.093H709.795V152.987H706.732V155.103H710.061V156H705.689Z" fill="#FEFFC1"/>
<rect x="391" y="141" width="115" height="22.5" fill="#3A3A3A"/>
<path d="M405.737 156V149.091H408.2C408.737 149.091 409.183 149.189 409.536 149.384C409.889 149.58 410.153 149.848 410.329 150.187C410.504 150.525 410.592 150.905 410.592 151.328C410.592 151.753 410.503 152.135 410.325 152.475C410.15 152.812 409.884 153.08 409.529 153.278C409.176 153.473 408.732 153.571 408.197 153.571H406.503V152.687H408.102C408.442 152.687 408.717 152.629 408.929 152.512C409.14 152.393 409.295 152.231 409.394 152.026C409.493 151.821 409.543 151.588 409.543 151.328C409.543 151.067 409.493 150.835 409.394 150.633C409.295 150.43 409.139 150.272 408.925 150.157C408.714 150.042 408.435 149.985 408.089 149.985H406.78V156H405.737ZM411.481 156V149.091H413.944C414.479 149.091 414.924 149.183 415.277 149.368C415.632 149.552 415.897 149.807 416.073 150.133C416.248 150.457 416.336 150.832 416.336 151.257C416.336 151.68 416.247 152.052 416.069 152.373C415.894 152.693 415.629 152.941 415.273 153.119C414.92 153.297 414.476 153.385 413.941 153.385H412.075V152.488H413.846C414.184 152.488 414.458 152.44 414.669 152.343C414.883 152.246 415.039 152.106 415.138 151.921C415.237 151.737 415.287 151.515 415.287 151.257C415.287 150.996 415.236 150.77 415.135 150.579C415.036 150.387 414.88 150.241 414.666 150.14C414.455 150.037 414.177 149.985 413.833 149.985H412.524V156H411.481ZM414.892 152.883L416.599 156H415.412L413.738 152.883H414.892ZM419.454 156V149.091H421.916C422.454 149.091 422.899 149.189 423.252 149.384C423.605 149.58 423.87 149.848 424.045 150.187C424.22 150.525 424.308 150.905 424.308 151.328C424.308 151.753 424.219 152.135 424.042 152.475C423.866 152.812 423.601 153.08 423.245 153.278C422.892 153.473 422.448 153.571 421.913 153.571H420.219V152.687H421.818C422.158 152.687 422.434 152.629 422.645 152.512C422.856 152.393 423.012 152.231 423.111 152.026C423.209 151.821 423.259 151.588 423.259 151.328C423.259 151.067 423.209 150.835 423.111 150.633C423.012 150.43 422.855 150.272 422.642 150.157C422.43 150.042 422.151 149.985 421.805 149.985H420.496V156H419.454ZM431.199 152.545C431.199 153.283 431.064 153.917 430.794 154.448C430.525 154.977 430.155 155.384 429.685 155.669C429.217 155.953 428.685 156.094 428.089 156.094C427.491 156.094 426.956 155.953 426.486 155.669C426.019 155.384 425.65 154.976 425.38 154.445C425.11 153.914 424.975 153.281 424.975 152.545C424.975 151.808 425.11 151.175 425.38 150.646C425.65 150.115 426.019 149.708 426.486 149.425C426.956 149.139 427.491 148.996 428.089 148.996C428.685 148.996 429.217 149.139 429.685 149.425C430.155 149.708 430.525 150.115 430.794 150.646C431.064 151.175 431.199 151.808 431.199 152.545ZM430.167 152.545C430.167 151.983 430.076 151.51 429.894 151.125C429.714 150.738 429.466 150.446 429.152 150.248C428.839 150.048 428.485 149.948 428.089 149.948C427.691 149.948 427.335 150.048 427.023 150.248C426.71 150.446 426.463 150.738 426.281 151.125C426.101 151.51 426.011 151.983 426.011 152.545C426.011 153.108 426.101 153.582 426.281 153.969C426.463 154.354 426.71 154.646 427.023 154.846C427.335 155.044 427.691 155.143 428.089 155.143C428.485 155.143 428.839 155.044 429.152 154.846C429.466 154.646 429.714 154.354 429.894 153.969C430.076 153.582 430.167 153.108 430.167 152.545ZM437.743 149.091V156H436.785L433.273 150.933H433.209V156H432.166V149.091H433.131L436.647 154.165H436.711V149.091H437.743ZM438.59 149.988V149.091H443.938V149.988H441.782V156H440.743V149.988H438.59ZM452.707 151.338H451.654C451.614 151.113 451.538 150.915 451.428 150.744C451.318 150.573 451.183 150.428 451.023 150.309C450.864 150.19 450.685 150.1 450.487 150.039C450.291 149.978 450.083 149.948 449.863 149.948C449.465 149.948 449.108 150.048 448.793 150.248C448.481 150.448 448.233 150.742 448.051 151.129C447.871 151.515 447.781 151.988 447.781 152.545C447.781 153.108 447.871 153.582 448.051 153.969C448.233 154.356 448.482 154.648 448.797 154.846C449.112 155.044 449.466 155.143 449.859 155.143C450.078 155.143 450.285 155.114 450.48 155.055C450.678 154.995 450.857 154.906 451.017 154.789C451.176 154.672 451.311 154.529 451.421 154.36C451.534 154.19 451.611 153.994 451.654 153.773L452.707 153.777C452.651 154.116 452.541 154.429 452.38 154.715C452.22 154.998 452.014 155.243 451.762 155.45C451.513 155.655 451.227 155.813 450.905 155.926C450.584 156.038 450.233 156.094 449.853 156.094C449.254 156.094 448.721 155.953 448.254 155.669C447.786 155.384 447.417 154.976 447.147 154.445C446.879 153.914 446.746 153.281 446.746 152.545C446.746 151.808 446.881 151.175 447.15 150.646C447.42 150.115 447.789 149.708 448.257 149.425C448.725 149.139 449.257 148.996 449.853 148.996C450.219 148.996 450.561 149.049 450.878 149.155C451.198 149.258 451.484 149.411 451.739 149.614C451.993 149.814 452.203 150.059 452.369 150.349C452.536 150.637 452.648 150.967 452.707 151.338ZM454.159 156H453.052L455.539 149.091H456.743L459.229 156H458.123L456.17 150.346H456.116L454.159 156ZM454.344 153.294H457.934V154.172H454.344V153.294ZM459.895 156V149.091H462.357C462.893 149.091 463.337 149.183 463.69 149.368C464.045 149.552 464.311 149.807 464.486 150.133C464.661 150.457 464.749 150.832 464.749 151.257C464.749 151.68 464.66 152.052 464.483 152.373C464.307 152.693 464.042 152.941 463.687 153.119C463.333 153.297 462.889 153.385 462.354 153.385H460.488V152.488H462.259C462.597 152.488 462.871 152.44 463.083 152.343C463.296 152.246 463.453 152.106 463.552 151.921C463.651 151.737 463.7 151.515 463.7 151.257C463.7 150.996 463.649 150.77 463.548 150.579C463.449 150.387 463.293 150.241 463.079 150.14C462.868 150.037 462.59 149.985 462.246 149.985H460.937V156H459.895ZM463.305 152.883L465.012 156H463.825L462.152 152.883H463.305ZM467.922 156H465.685V149.091H467.993C468.67 149.091 469.251 149.229 469.737 149.506C470.223 149.78 470.595 150.175 470.853 150.69C471.114 151.203 471.245 151.818 471.245 152.535C471.245 153.255 471.113 153.874 470.85 154.391C470.589 154.908 470.211 155.306 469.717 155.585C469.222 155.862 468.624 156 467.922 156ZM466.728 155.089H467.864C468.391 155.089 468.828 154.99 469.177 154.792C469.525 154.592 469.786 154.303 469.959 153.925C470.133 153.545 470.219 153.082 470.219 152.535C470.219 151.993 470.133 151.533 469.959 151.156C469.789 150.778 469.533 150.491 469.194 150.295C468.854 150.1 468.432 150.002 467.929 150.002H466.728V155.089ZM473.251 149.091V156H472.209V149.091H473.251ZM480.013 149.091V156H479.055L475.543 150.933H475.479V156H474.437V149.091H475.401L478.917 154.165H478.981V149.091H480.013ZM481.201 156V149.091H485.533V149.988H482.244V152.093H485.307V152.987H482.244V155.103H485.573V156H481.201ZM486.252 149.988V149.091H491.599V149.988H489.444V156H488.405V149.988H486.252Z" fill="#FEFFC1"/>
<rect x="295.5" y="1" width="63" height="25" fill="#E4E4E4" stroke="black" stroke-width="2"/>
<path d="M309.562 10.2031C309.479 9.46354 309.135 8.89062 308.531 8.48437C307.927 8.07292 307.167 7.86719 306.25 7.86719C305.594 7.86719 305.026 7.97135 304.547 8.17969C304.068 8.38281 303.695 8.66406 303.43 9.02344C303.169 9.3776 303.039 9.78125 303.039 10.2344C303.039 10.6146 303.128 10.9427 303.305 11.2187C303.487 11.4948 303.724 11.7266 304.016 11.9141C304.312 12.0964 304.63 12.25 304.969 12.375C305.307 12.4948 305.633 12.5937 305.945 12.6719L307.508 13.0781C308.018 13.2031 308.542 13.3724 309.078 13.5859C309.615 13.7995 310.112 14.0807 310.57 14.4297C311.029 14.7786 311.398 15.2109 311.68 15.7266C311.966 16.2422 312.109 16.8594 312.109 17.5781C312.109 18.4844 311.875 19.2891 311.406 19.9922C310.943 20.6953 310.268 21.25 309.383 21.6562C308.503 22.0625 307.437 22.2656 306.187 22.2656C304.99 22.2656 303.953 22.0755 303.078 21.6953C302.203 21.3151 301.518 20.776 301.023 20.0781C300.529 19.375 300.255 18.5417 300.203 17.5781H302.625C302.672 18.1562 302.859 18.638 303.187 19.0234C303.521 19.4036 303.945 19.6875 304.461 19.875C304.982 20.0573 305.552 20.1484 306.172 20.1484C306.854 20.1484 307.461 20.0417 307.992 19.8281C308.529 19.6094 308.95 19.3073 309.258 18.9219C309.565 18.5312 309.719 18.0755 309.719 17.5547C309.719 17.0807 309.583 16.6927 309.312 16.3906C309.047 16.0885 308.685 15.8385 308.226 15.6406C307.773 15.4427 307.26 15.2682 306.687 15.1172L304.797 14.6016C303.516 14.2526 302.5 13.7396 301.75 13.0625C301.005 12.3854 300.633 11.4896 300.633 10.375C300.633 9.45312 300.883 8.64844 301.383 7.96094C301.883 7.27344 302.56 6.73958 303.414 6.35938C304.268 5.97396 305.232 5.78125 306.305 5.78125C307.388 5.78125 308.344 5.97135 309.172 6.35156C310.005 6.73177 310.661 7.25521 311.141 7.92187C311.62 8.58333 311.87 9.34375 311.891 10.2031H309.562ZM323.501 10.2031C323.417 9.46354 323.074 8.89062 322.469 8.48437C321.865 8.07292 321.105 7.86719 320.188 7.86719C319.532 7.86719 318.964 7.97135 318.485 8.17969C318.006 8.38281 317.633 8.66406 317.368 9.02344C317.107 9.3776 316.977 9.78125 316.977 10.2344C316.977 10.6146 317.066 10.9427 317.243 11.2187C317.425 11.4948 317.662 11.7266 317.954 11.9141C318.251 12.0964 318.568 12.25 318.907 12.375C319.245 12.4948 319.571 12.5937 319.883 12.6719L321.446 13.0781C321.956 13.2031 322.48 13.3724 323.016 13.5859C323.553 13.7995 324.05 14.0807 324.508 14.4297C324.967 14.7786 325.337 15.2109 325.618 15.7266C325.904 16.2422 326.048 16.8594 326.048 17.5781C326.048 18.4844 325.813 19.2891 325.344 19.9922C324.881 20.6953 324.206 21.25 323.321 21.6562C322.441 22.0625 321.376 22.2656 320.126 22.2656C318.928 22.2656 317.891 22.0755 317.016 21.6953C316.141 21.3151 315.456 20.776 314.962 20.0781C314.467 19.375 314.193 18.5417 314.141 17.5781H316.563C316.61 18.1562 316.798 18.638 317.126 19.0234C317.459 19.4036 317.883 19.6875 318.399 19.875C318.92 20.0573 319.49 20.1484 320.11 20.1484C320.792 20.1484 321.399 20.0417 321.93 19.8281C322.467 19.6094 322.889 19.3073 323.196 18.9219C323.503 18.5312 323.657 18.0755 323.657 17.5547C323.657 17.0807 323.521 16.6927 323.251 16.3906C322.985 16.0885 322.623 15.8385 322.165 15.6406C321.712 15.4427 321.199 15.2682 320.626 15.1172L318.735 14.6016C317.454 14.2526 316.438 13.7396 315.688 13.0625C314.943 12.3854 314.571 11.4896 314.571 10.375C314.571 9.45312 314.821 8.64844 315.321 7.96094C315.821 7.27344 316.498 6.73958 317.352 6.35938C318.206 5.97396 319.17 5.78125 320.243 5.78125C321.326 5.78125 322.282 5.97135 323.11 6.35156C323.943 6.73177 324.6 7.25521 325.079 7.92187C325.558 8.58333 325.808 9.34375 325.829 10.2031H323.501ZM334.064 22.2656C332.829 22.2604 331.775 21.9349 330.9 21.2891C330.025 20.6432 329.355 19.7031 328.892 18.4687C328.428 17.2344 328.197 15.7474 328.197 14.0078C328.197 12.2734 328.428 10.7917 328.892 9.5625C329.361 8.33333 330.033 7.39583 330.908 6.75C331.788 6.10417 332.84 5.78125 334.064 5.78125C335.288 5.78125 336.337 6.10677 337.212 6.75781C338.087 7.40365 338.757 8.34115 339.22 9.57031C339.689 10.7943 339.923 12.2734 339.923 14.0078C339.923 15.7526 339.691 17.2422 339.228 18.4766C338.764 19.7057 338.095 20.6458 337.22 21.2969C336.345 21.9427 335.293 22.2656 334.064 22.2656ZM334.064 20.1797C335.147 20.1797 335.994 19.651 336.603 18.5937C337.217 17.5365 337.525 16.0078 337.525 14.0078C337.525 12.6797 337.384 11.5573 337.103 10.6406C336.827 9.71875 336.428 9.02083 335.908 8.54687C335.392 8.06771 334.777 7.82812 334.064 7.82812C332.986 7.82812 332.139 8.35937 331.525 9.42187C330.91 10.4844 330.6 12.013 330.595 14.0078C330.595 15.3411 330.733 16.4688 331.009 17.3906C331.29 18.3073 331.689 19.0026 332.204 19.4766C332.72 19.9453 333.34 20.1797 334.064 20.1797ZM348.061 22.2187C347.347 22.2083 346.644 22.0781 345.951 21.8281C345.264 21.5781 344.639 21.1615 344.076 20.5781C343.514 19.9948 343.063 19.2109 342.725 18.2266C342.391 17.2422 342.225 16.013 342.225 14.5391C342.225 13.1432 342.363 11.9036 342.639 10.8203C342.92 9.73698 343.324 8.82292 343.85 8.07812C344.376 7.32812 345.011 6.75781 345.756 6.36719C346.501 5.97656 347.337 5.78125 348.264 5.78125C349.217 5.78125 350.063 5.96875 350.803 6.34375C351.542 6.71875 352.141 7.23698 352.6 7.89844C353.063 8.5599 353.357 9.3125 353.482 10.1562H351.1C350.938 9.48958 350.618 8.94531 350.139 8.52344C349.66 8.10156 349.035 7.89062 348.264 7.89062C347.092 7.89062 346.178 8.40104 345.522 9.42187C344.871 10.4427 344.542 11.862 344.537 13.6797H344.654C344.93 13.2266 345.269 12.8411 345.67 12.5234C346.076 12.2005 346.529 11.9531 347.029 11.7812C347.535 11.6042 348.066 11.5156 348.623 11.5156C349.55 11.5156 350.389 11.7422 351.139 12.1953C351.894 12.6432 352.496 13.263 352.943 14.0547C353.391 14.8464 353.615 15.7526 353.615 16.7734C353.615 17.7943 353.384 18.7187 352.92 19.5469C352.462 20.375 351.816 21.0312 350.982 21.5156C350.149 21.9948 349.175 22.2292 348.061 22.2187ZM348.053 20.1875C348.667 20.1875 349.217 20.0365 349.701 19.7344C350.186 19.4323 350.568 19.026 350.85 18.5156C351.131 18.0052 351.272 17.4349 351.272 16.8047C351.272 16.1901 351.134 15.6302 350.857 15.125C350.587 14.6198 350.212 14.2187 349.732 13.9219C349.259 13.625 348.717 13.4766 348.107 13.4766C347.644 13.4766 347.214 13.5651 346.818 13.7422C346.428 13.9193 346.084 14.1641 345.787 14.4766C345.49 14.7891 345.256 15.1484 345.084 15.5547C344.917 15.9557 344.834 16.3802 344.834 16.8281C344.834 17.4271 344.972 17.9818 345.248 18.4922C345.529 19.0026 345.912 19.4141 346.397 19.7266C346.886 20.0339 347.438 20.1875 348.053 20.1875Z" fill="black"/>
<rect x="630.5" y="1" width="63" height="25" fill="#E4E4E4" stroke="black" stroke-width="2"/>
<path d="M645.4 10.2031C645.317 9.46354 644.973 8.89062 644.369 8.48437C643.765 8.07292 643.004 7.86719 642.088 7.86719C641.432 7.86719 640.864 7.97135 640.385 8.17969C639.906 8.38281 639.533 8.66406 639.267 9.02344C639.007 9.3776 638.877 9.78125 638.877 10.2344C638.877 10.6146 638.965 10.9427 639.143 11.2187C639.325 11.4948 639.562 11.7266 639.853 11.9141C640.15 12.0964 640.468 12.25 640.807 12.375C641.145 12.4948 641.471 12.5937 641.783 12.6719L643.346 13.0781C643.856 13.2031 644.379 13.3724 644.916 13.5859C645.452 13.7995 645.95 14.0807 646.408 14.4297C646.866 14.7786 647.236 15.2109 647.518 15.7266C647.804 16.2422 647.947 16.8594 647.947 17.5781C647.947 18.4844 647.713 19.2891 647.244 19.9922C646.781 20.6953 646.106 21.25 645.221 21.6562C644.34 22.0625 643.275 22.2656 642.025 22.2656C640.827 22.2656 639.791 22.0755 638.916 21.6953C638.041 21.3151 637.356 20.776 636.861 20.0781C636.366 19.375 636.093 18.5417 636.041 17.5781H638.463C638.51 18.1562 638.697 18.638 639.025 19.0234C639.359 19.4036 639.783 19.6875 640.299 19.875C640.82 20.0573 641.39 20.1484 642.01 20.1484C642.692 20.1484 643.299 20.0417 643.83 19.8281C644.366 19.6094 644.788 19.3073 645.096 18.9219C645.403 18.5312 645.557 18.0755 645.557 17.5547C645.557 17.0807 645.421 16.6927 645.15 16.3906C644.885 16.0885 644.523 15.8385 644.064 15.6406C643.611 15.4427 643.098 15.2682 642.525 15.1172L640.635 14.6016C639.353 14.2526 638.338 13.7396 637.588 13.0625C636.843 12.3854 636.471 11.4896 636.471 10.375C636.471 9.45312 636.721 8.64844 637.221 7.96094C637.721 7.27344 638.398 6.73958 639.252 6.35938C640.106 5.97396 641.07 5.78125 642.143 5.78125C643.226 5.78125 644.182 5.97135 645.01 6.35156C645.843 6.73177 646.499 7.25521 646.978 7.92187C647.458 8.58333 647.708 9.34375 647.728 10.2031H645.4ZM659.339 10.2031C659.255 9.46354 658.911 8.89062 658.307 8.48437C657.703 8.07292 656.943 7.86719 656.026 7.86719C655.37 7.86719 654.802 7.97135 654.323 8.17969C653.844 8.38281 653.471 8.66406 653.206 9.02344C652.945 9.3776 652.815 9.78125 652.815 10.2344C652.815 10.6146 652.904 10.9427 653.081 11.2187C653.263 11.4948 653.5 11.7266 653.792 11.9141C654.089 12.0964 654.406 12.25 654.745 12.375C655.083 12.4948 655.409 12.5937 655.721 12.6719L657.284 13.0781C657.794 13.2031 658.318 13.3724 658.854 13.5859C659.391 13.7995 659.888 14.0807 660.346 14.4297C660.805 14.7786 661.174 15.2109 661.456 15.7266C661.742 16.2422 661.885 16.8594 661.885 17.5781C661.885 18.4844 661.651 19.2891 661.182 19.9922C660.719 20.6953 660.044 21.25 659.159 21.6562C658.279 22.0625 657.214 22.2656 655.964 22.2656C654.766 22.2656 653.729 22.0755 652.854 21.6953C651.979 21.3151 651.294 20.776 650.799 20.0781C650.305 19.375 650.031 18.5417 649.979 17.5781H652.401C652.448 18.1562 652.635 18.638 652.964 19.0234C653.297 19.4036 653.721 19.6875 654.237 19.875C654.758 20.0573 655.328 20.1484 655.948 20.1484C656.63 20.1484 657.237 20.0417 657.768 19.8281C658.305 19.6094 658.727 19.3073 659.034 18.9219C659.341 18.5312 659.495 18.0755 659.495 17.5547C659.495 17.0807 659.359 16.6927 659.089 16.3906C658.823 16.0885 658.461 15.8385 658.003 15.6406C657.549 15.4427 657.036 15.2682 656.464 15.1172L654.573 14.6016C653.292 14.2526 652.276 13.7396 651.526 13.0625C650.781 12.3854 650.409 11.4896 650.409 10.375C650.409 9.45312 650.659 8.64844 651.159 7.96094C651.659 7.27344 652.336 6.73958 653.19 6.35938C654.044 5.97396 655.008 5.78125 656.081 5.78125C657.164 5.78125 658.12 5.97135 658.948 6.35156C659.781 6.73177 660.437 7.25521 660.917 7.92187C661.396 8.58333 661.646 9.34375 661.667 10.2031H659.339ZM669.902 22.2656C668.667 22.2604 667.613 21.9349 666.738 21.2891C665.863 20.6432 665.193 19.7031 664.73 18.4687C664.266 17.2344 664.035 15.7474 664.035 14.0078C664.035 12.2734 664.266 10.7917 664.73 9.5625C665.199 8.33333 665.87 7.39583 666.745 6.75C667.626 6.10417 668.678 5.78125 669.902 5.78125C671.126 5.78125 672.175 6.10677 673.05 6.75781C673.925 7.40365 674.594 8.34115 675.058 9.57031C675.527 10.7943 675.761 12.2734 675.761 14.0078C675.761 15.7526 675.529 17.2422 675.066 18.4766C674.602 19.7057 673.933 20.6458 673.058 21.2969C672.183 21.9427 671.131 22.2656 669.902 22.2656ZM669.902 20.1797C670.985 20.1797 671.831 19.651 672.441 18.5937C673.055 17.5365 673.363 16.0078 673.363 14.0078C673.363 12.6797 673.222 11.5573 672.941 10.6406C672.665 9.71875 672.266 9.02083 671.745 8.54687C671.23 8.06771 670.615 7.82812 669.902 7.82812C668.824 7.82812 667.977 8.35937 667.363 9.42187C666.748 10.4844 666.438 12.013 666.433 14.0078C666.433 15.3411 666.571 16.4688 666.847 17.3906C667.128 18.3073 667.527 19.0026 668.042 19.4766C668.558 19.9453 669.178 20.1797 669.902 20.1797ZM678.422 22L685.406 8.1875V8.07031H677.328V6H687.906V8.14062L680.945 22H678.422Z" fill="black"/>
<path d="M747.5 135V85" stroke="#FFAE35"/>
<path d="M1 135L1 85" stroke="#FFAE35"/>
<path d="M488 135V85" stroke="#FFAE35"/>
<path d="M97.5 135V85" stroke="#FFAE35"/>
<path d="M584.5 135V85" stroke="#FFAE35"/>
<path d="M795.5 160V135" stroke="#FFAE35"/>
<path d="M49 160V135" stroke="#FFAE35"/>
<path d="M536 160V135" stroke="#FFAE35"/>
<path d="M795.5 179.5V167" stroke="#FFAE35"/>
<path d="M49 179.5V167" stroke="#FFAE35"/>
<path d="M536 179.5V167" stroke="#FFAE35"/>
<path d="M795.5 204.5V192" stroke="#FFAE35"/>
<path d="M49 204.5V192" stroke="#FFAE35"/>
<path d="M536 204.5V192" stroke="#FFAE35"/>
<path d="M747.5 134.5H765.5" stroke="#FFAE35"/>
<path d="M1 134.5H19" stroke="#FFAE35"/>
<path d="M488 134.5H506" stroke="#FFAE35"/>
<path d="M97.5 134.5H79.5" stroke="#FFAE35"/>
<path d="M584.5 134.5H566.5" stroke="#FFAE35"/>
<path d="M778 134.5H796" stroke="#FFAE35"/>
<path d="M31.5 134.5H49.5" stroke="#FFAE35"/>
<path d="M518.5 134.5H536.5" stroke="#FFAE35"/>
<path d="M67 134.5H49" stroke="#FFAE35"/>
<path d="M554 134.5H536" stroke="#FFAE35"/>
<path d="M58 84H527" stroke="#FFDF35" stroke-width="2.5"/>
<path d="M545 84H783" stroke="#FFDF35" stroke-width="2.5"/>
<path d="M112.5 59V46.5" stroke="#FFDF35" stroke-width="2.5"/>
<path d="M214.5 59V46.5" stroke="#FFDF35" stroke-width="2.5"/>
<path d="M304 59V46.5" stroke="#FFDF35" stroke-width="2.5"/>
<path d="M393.5 59V46.5" stroke="#FFDF35" stroke-width="2.5"/>
<path d="M458 59V46.5" stroke="#FFDF35" stroke-width="2.5"/>
<path d="M510 59V46.5" stroke="#FFDF35" stroke-width="2.5"/>
<path d="M599.5 59V46.5" stroke="#FFDF35" stroke-width="2.5"/>
<path d="M701.5 59V46.5" stroke="#FFDF35" stroke-width="2.5"/>
<path d="M766 59V46.5" stroke="#FFDF35" stroke-width="2.5"/>
<path d="M112.5 84V71.5" stroke="#FFDF35" stroke-width="2.5"/>
<path d="M214.5 84V71.5" stroke="#FFDF35" stroke-width="2.5"/>
<path d="M304 84V71.5" stroke="#FFDF35" stroke-width="2.5"/>
<path d="M393.5 84V71.5" stroke="#FFDF35" stroke-width="2.5"/>
<path d="M458 84V71.5" stroke="#FFDF35" stroke-width="2.5"/>
<path d="M510 84V71.5" stroke="#FFDF35" stroke-width="2.5"/>
<path d="M599.5 84V71.5" stroke="#FFDF35" stroke-width="2.5"/>
<path d="M701.5 84V71.5" stroke="#FFDF35" stroke-width="2.5"/>
<path d="M766 84V71.5" stroke="#FFDF35" stroke-width="2.5"/>
<path d="M795.5 192V179.5" stroke="#DBFF00" stroke-width="4"/>
<path d="M49 192V179.5" stroke="#DBFF00" stroke-width="4"/>
<path d="M536 192V179.5" stroke="#DBFF00" stroke-width="4"/>
<path d="M765.5 134.5H778" stroke="#DBFF00" stroke-width="4"/>
<path d="M19 134.5H31.5" stroke="#DBFF00" stroke-width="4"/>
<path d="M506 134.5H518.5" stroke="#DBFF00" stroke-width="4"/>
<path d="M79.5 134.5H67" stroke="#DBFF00" stroke-width="4"/>
<path d="M566.5 134.5H554" stroke="#DBFF00" stroke-width="4"/>
<path d="M112.5 71.5V59" stroke="#DBFF00" stroke-width="4"/>
<path d="M214.5 71.5V59" stroke="#DBFF00" stroke-width="4"/>
<path d="M304 71.5V59" stroke="#DBFF00" stroke-width="4"/>
<path d="M393.5 71.5V59" stroke="#DBFF00" stroke-width="4"/>
<path d="M458 71.5V59" stroke="#DBFF00" stroke-width="4"/>
<path d="M510 71.5V59" stroke="#DBFF00" stroke-width="4"/>
<path d="M599.5 71.5V59" stroke="#DBFF00" stroke-width="4"/>
<path d="M701.5 71.5V59" stroke="#DBFF00" stroke-width="4"/>
<path d="M766 71.5V59" stroke="#DBFF00" stroke-width="4"/>
<path d="M50 46.5H175" stroke="#FFDF35" stroke-width="2.5"/>
<path d="M537 46.5H662" stroke="#FFDF35" stroke-width="2.5"/>
<path d="M254 46.5H354" stroke="#FFDF35" stroke-width="2.5"/>
<path d="M177 46.5H252" stroke="#FFDF35" stroke-width="2.5"/>
<path d="M356 46.5H431" stroke="#FFDF35" stroke-width="2.5"/>
<path d="M664 46.5H739" stroke="#FFDF35" stroke-width="2.5"/>
<path d="M433 46.5H483" stroke="#FFDF35" stroke-width="2.5"/>
<path d="M741 46.5H791" stroke="#FFDF35" stroke-width="2.5"/>
<path d="M485 46.5H535" stroke="#FFDF35" stroke-width="2.5"/>
<path d="M527 84H545" stroke="#DBFF00" stroke-width="14.5" stroke-dasharray="3.5 3.5"/>
<path d="M783 84H801" stroke="#DBFF00" stroke-width="14.5" stroke-dasharray="3.5 3.5"/>
<path d="M791.5 167L795.5 161L799 167H791.5Z" fill="#DBFF00"/>
<path d="M791.5 160H799V161H791.5V160Z" fill="#DBFF00"/>
<path d="M45 167L49 161L52.5 167H45Z" fill="#DBFF00"/>
<path d="M45 160H52.5V161H45V160Z" fill="#DBFF00"/>
<path d="M532 167L536 161L539.5 167H532Z" fill="#DBFF00"/>
<path d="M532 160H539.5V161H532V160Z" fill="#DBFF00"/>
<path d="M774.246 188.5H772.441V183.409H774.261C774.773 183.409 775.214 183.511 775.583 183.715C775.953 183.917 776.237 184.208 776.436 184.587C776.636 184.967 776.737 185.421 776.737 185.95C776.737 186.48 776.636 186.936 776.436 187.317C776.237 187.698 775.951 187.99 775.578 188.194C775.207 188.398 774.763 188.5 774.246 188.5ZM773.518 187.578H774.201C774.519 187.578 774.787 187.521 775.004 187.409C775.223 187.294 775.387 187.118 775.496 186.879C775.607 186.639 775.663 186.329 775.663 185.95C775.663 185.573 775.607 185.266 775.496 185.027C775.387 184.789 775.224 184.613 775.007 184.5C774.79 184.388 774.522 184.331 774.204 184.331H773.518V187.578ZM777.289 188.5V183.409H778.365V185.51H780.55V183.409H781.624V188.5H780.55V186.397H778.365V188.5H777.289ZM782.073 184.297V183.409H786.254V184.297H784.695V188.5H783.631V184.297H782.073Z" fill="#A7A7A7"/>
<path d="M27.7459 188.5H25.9413V183.409H27.7609C28.2729 183.409 28.7138 183.511 29.0833 183.715C29.4529 183.917 29.7371 184.208 29.9359 184.587C30.1365 184.967 30.2367 185.421 30.2367 185.95C30.2367 186.48 30.1365 186.936 29.9359 187.317C29.7371 187.698 29.4512 187.99 29.0783 188.194C28.7071 188.398 28.263 188.5 27.7459 188.5ZM27.0176 187.578H27.7012C28.0194 187.578 28.287 187.521 28.5041 187.409C28.7229 187.294 28.8869 187.118 28.9963 186.879C29.1073 186.639 29.1629 186.329 29.1629 185.95C29.1629 185.573 29.1073 185.266 28.9963 185.027C28.8869 184.789 28.7237 184.613 28.5066 184.5C28.2895 184.388 28.0219 184.331 27.7037 184.331H27.0176V187.578ZM30.789 188.5V183.409H31.8654V185.51H34.0504V183.409H35.1243V188.5H34.0504V186.397H31.8654V188.5H30.789ZM35.5728 184.297V183.409H39.7539V184.297H38.1953V188.5H37.1314V184.297H35.5728Z" fill="#A7A7A7"/>
<path d="M514.746 188.5H512.941V183.409H514.761C515.273 183.409 515.714 183.511 516.083 183.715C516.453 183.917 516.737 184.208 516.936 184.587C517.136 184.967 517.237 185.421 517.237 185.95C517.237 186.48 517.136 186.936 516.936 187.317C516.737 187.698 516.451 187.99 516.078 188.194C515.707 188.398 515.263 188.5 514.746 188.5ZM514.018 187.578H514.701C515.019 187.578 515.287 187.521 515.504 187.409C515.723 187.294 515.887 187.118 515.996 186.879C516.107 186.639 516.163 186.329 516.163 185.95C516.163 185.573 516.107 185.266 515.996 185.027C515.887 184.789 515.724 184.613 515.507 184.5C515.29 184.388 515.022 184.331 514.704 184.331H514.018V187.578ZM517.789 188.5V183.409H518.865V185.51H521.05V183.409H522.124V188.5H521.05V186.397H518.865V188.5H517.789ZM522.573 184.297V183.409H526.754V184.297H525.195V188.5H524.131V184.297H522.573Z" fill="#A7A7A7"/>
<path d="M778.061 167V161.909H780.07C780.456 161.909 780.785 161.983 781.057 162.13C781.329 162.276 781.536 162.479 781.678 162.739C781.823 162.998 781.895 163.296 781.895 163.634C781.895 163.972 781.822 164.271 781.676 164.529C781.53 164.788 781.319 164.989 781.042 165.133C780.767 165.277 780.434 165.349 780.043 165.349H778.762V164.487H779.869C780.076 164.487 780.247 164.451 780.381 164.38C780.517 164.307 780.618 164.207 780.684 164.079C780.752 163.95 780.786 163.802 780.786 163.634C780.786 163.465 780.752 163.318 780.684 163.192C780.618 163.064 780.517 162.966 780.381 162.896C780.245 162.825 780.073 162.789 779.864 162.789H779.138V167H778.061ZM782.349 167V161.909H784.357C784.742 161.909 785.07 161.978 785.342 162.115C785.615 162.251 785.823 162.444 785.966 162.695C786.11 162.943 786.182 163.236 786.182 163.572C786.182 163.91 786.109 164.201 785.963 164.445C785.817 164.687 785.606 164.872 785.329 165.001C785.054 165.131 784.721 165.195 784.33 165.195H782.985V164.33H784.156C784.361 164.33 784.532 164.302 784.668 164.246C784.804 164.189 784.905 164.105 784.971 163.992C785.039 163.879 785.073 163.739 785.073 163.572C785.073 163.403 785.039 163.261 784.971 163.145C784.905 163.029 784.803 162.941 784.665 162.881C784.53 162.82 784.358 162.789 784.151 162.789H783.425V167H782.349ZM785.098 164.683L786.363 167H785.175L783.937 164.683H785.098Z" fill="#A7A7A7"/>
<path d="M31.5615 167V161.909H33.57C33.9561 161.909 34.2851 161.983 34.5569 162.13C34.8287 162.276 35.0358 162.479 35.1783 162.739C35.3225 162.998 35.3946 163.296 35.3946 163.634C35.3946 163.972 35.3217 164.271 35.1758 164.529C35.03 164.788 34.8187 164.989 34.542 165.133C34.2669 165.277 33.9338 165.349 33.5427 165.349H32.2625V164.487H33.3687C33.5758 164.487 33.7465 164.451 33.8807 164.38C34.0166 164.307 34.1177 164.207 34.184 164.079C34.252 163.95 34.2859 163.802 34.2859 163.634C34.2859 163.465 34.252 163.318 34.184 163.192C34.1177 163.064 34.0166 162.966 33.8807 162.896C33.7449 162.825 33.5725 162.789 33.3637 162.789H32.6378V167H31.5615ZM35.8487 167V161.909H37.8572C38.2417 161.909 38.5698 161.978 38.8416 162.115C39.1151 162.251 39.323 162.444 39.4656 162.695C39.6097 162.943 39.6818 163.236 39.6818 163.572C39.6818 163.91 39.6089 164.201 39.4631 164.445C39.3172 164.687 39.1059 164.872 38.8292 165.001C38.5541 165.131 38.221 165.195 37.8299 165.195H36.4851V164.33H37.6559C37.8614 164.33 38.0321 164.302 38.168 164.246C38.3039 164.189 38.4049 164.105 38.4712 163.992C38.5392 163.879 38.5732 163.739 38.5732 163.572C38.5732 163.403 38.5392 163.261 38.4712 163.145C38.4049 163.029 38.303 162.941 38.1655 162.881C38.0296 162.82 37.8581 162.789 37.6509 162.789H36.9251V167H35.8487ZM38.598 164.683L39.8633 167H38.6751L37.4371 164.683H38.598Z" fill="#A7A7A7"/>
<path d="M518.561 167V161.909H520.57C520.956 161.909 521.285 161.983 521.557 162.13C521.829 162.276 522.036 162.479 522.178 162.739C522.323 162.998 522.395 163.296 522.395 163.634C522.395 163.972 522.322 164.271 522.176 164.529C522.03 164.788 521.819 164.989 521.542 165.133C521.267 165.277 520.934 165.349 520.543 165.349H519.262V164.487H520.369C520.576 164.487 520.747 164.451 520.881 164.38C521.017 164.307 521.118 164.207 521.184 164.079C521.252 163.95 521.286 163.802 521.286 163.634C521.286 163.465 521.252 163.318 521.184 163.192C521.118 163.064 521.017 162.966 520.881 162.896C520.745 162.825 520.573 162.789 520.364 162.789H519.638V167H518.561ZM522.849 167V161.909H524.857C525.242 161.909 525.57 161.978 525.842 162.115C526.115 162.251 526.323 162.444 526.466 162.695C526.61 162.943 526.682 163.236 526.682 163.572C526.682 163.91 526.609 164.201 526.463 164.445C526.317 164.687 526.106 164.872 525.829 165.001C525.554 165.131 525.221 165.195 524.83 165.195H523.485V164.33H524.656C524.861 164.33 525.032 164.302 525.168 164.246C525.304 164.189 525.405 164.105 525.471 163.992C525.539 163.879 525.573 163.739 525.573 163.572C525.573 163.403 525.539 163.261 525.471 163.145C525.405 163.029 525.303 162.941 525.165 162.881C525.03 162.82 524.858 162.789 524.651 162.789H523.925V167H522.849ZM525.598 164.683L526.863 167H525.675L524.437 164.683H525.598Z" fill="#A7A7A7"/>
</svg>
