<svg width="1594" height="205" viewBox="0 0 1594 205" fill="none" xmlns="http://www.w3.org/2000/svg">
<rect x="1418" y="141" width="115" height="22.5" fill="#3A3A3A"/>
<path d="M1448.1 156V149.091H1450.57C1451.11 149.091 1451.55 149.189 1451.9 149.384C1452.26 149.58 1452.52 149.848 1452.7 150.187C1452.87 150.525 1452.96 150.905 1452.96 151.328C1452.96 151.753 1452.87 152.135 1452.69 152.475C1452.52 152.812 1452.25 153.08 1451.9 153.278C1451.54 153.473 1451.1 153.571 1450.56 153.571H1448.87V152.687H1450.47C1450.81 152.687 1451.08 152.629 1451.3 152.512C1451.51 152.393 1451.66 152.231 1451.76 152.026C1451.86 151.821 1451.91 151.588 1451.91 151.328C1451.91 151.067 1451.86 150.835 1451.76 150.633C1451.66 150.43 1451.51 150.272 1451.29 150.157C1451.08 150.042 1450.8 149.985 1450.46 149.985H1449.15V156H1448.1ZM1453.85 156V149.091H1456.31C1456.85 149.091 1457.29 149.183 1457.64 149.368C1458 149.552 1458.27 149.807 1458.44 150.133C1458.62 150.457 1458.7 150.832 1458.7 151.257C1458.7 151.68 1458.61 152.052 1458.44 152.373C1458.26 152.693 1458 152.941 1457.64 153.119C1457.29 153.297 1456.84 153.385 1456.31 153.385H1454.44V152.488H1456.21C1456.55 152.488 1456.83 152.44 1457.04 152.343C1457.25 152.246 1457.41 152.106 1457.51 151.921C1457.6 151.737 1457.65 151.515 1457.65 151.257C1457.65 150.996 1457.6 150.77 1457.5 150.579C1457.4 150.387 1457.25 150.241 1457.03 150.14C1456.82 150.037 1456.54 149.985 1456.2 149.985H1454.89V156H1453.85ZM1457.26 152.883L1458.97 156H1457.78L1456.11 152.883H1457.26ZM1461.82 156V149.091H1462.86V155.103H1465.99V156H1461.82ZM1467.79 156H1466.68L1469.17 149.091H1470.37L1472.86 156H1471.75L1469.8 150.346H1469.74L1467.79 156ZM1467.97 153.294H1471.56V154.172H1467.97V153.294ZM1473.52 156V149.091H1476.05C1476.54 149.091 1476.95 149.172 1477.27 149.334C1477.59 149.493 1477.83 149.711 1477.99 149.985C1478.15 150.257 1478.23 150.564 1478.23 150.906C1478.23 151.194 1478.18 151.437 1478.07 151.635C1477.97 151.83 1477.83 151.988 1477.65 152.107C1477.47 152.224 1477.28 152.309 1477.07 152.363V152.431C1477.3 152.442 1477.52 152.516 1477.74 152.653C1477.96 152.788 1478.14 152.981 1478.29 153.23C1478.43 153.48 1478.5 153.784 1478.5 154.141C1478.5 154.494 1478.42 154.811 1478.25 155.093C1478.09 155.371 1477.83 155.593 1477.49 155.757C1477.15 155.919 1476.71 156 1476.17 156H1473.52ZM1474.57 155.106H1476.07C1476.57 155.106 1476.93 155.009 1477.14 154.816C1477.36 154.622 1477.47 154.381 1477.47 154.091C1477.47 153.872 1477.41 153.672 1477.3 153.49C1477.19 153.308 1477.03 153.163 1476.83 153.055C1476.63 152.947 1476.39 152.893 1476.11 152.893H1474.57V155.106ZM1474.57 152.08H1475.96C1476.2 152.08 1476.41 152.035 1476.59 151.945C1476.78 151.855 1476.93 151.729 1477.04 151.567C1477.15 151.403 1477.21 151.21 1477.21 150.987C1477.21 150.701 1477.11 150.462 1476.91 150.268C1476.71 150.075 1476.4 149.978 1475.99 149.978H1474.57V152.08ZM1485.41 152.545C1485.41 153.283 1485.27 153.917 1485 154.448C1484.73 154.977 1484.36 155.384 1483.89 155.669C1483.43 155.953 1482.89 156.094 1482.3 156.094C1481.7 156.094 1481.17 155.953 1480.7 155.669C1480.23 155.384 1479.86 154.976 1479.59 154.445C1479.32 153.914 1479.18 153.281 1479.18 152.545C1479.18 151.808 1479.32 151.175 1479.59 150.646C1479.86 150.115 1480.23 149.708 1480.7 149.425C1481.17 149.139 1481.7 148.996 1482.3 148.996C1482.89 148.996 1483.43 149.139 1483.89 149.425C1484.36 149.708 1484.73 150.115 1485 150.646C1485.27 151.175 1485.41 151.808 1485.41 152.545ZM1484.38 152.545C1484.38 151.983 1484.28 151.51 1484.1 151.125C1483.92 150.738 1483.68 150.446 1483.36 150.248C1483.05 150.048 1482.69 149.948 1482.3 149.948C1481.9 149.948 1481.54 150.048 1481.23 150.248C1480.92 150.446 1480.67 150.738 1480.49 151.125C1480.31 151.51 1480.22 151.983 1480.22 152.545C1480.22 153.108 1480.31 153.582 1480.49 153.969C1480.67 154.354 1480.92 154.646 1481.23 154.846C1481.54 155.044 1481.9 155.143 1482.3 155.143C1482.69 155.143 1483.05 155.044 1483.36 154.846C1483.68 154.646 1483.92 154.354 1484.1 153.969C1484.28 153.582 1484.38 153.108 1484.38 152.545ZM1486.38 156V149.091H1488.84C1489.37 149.091 1489.82 149.183 1490.17 149.368C1490.53 149.552 1490.79 149.807 1490.97 150.133C1491.14 150.457 1491.23 150.832 1491.23 151.257C1491.23 151.68 1491.14 152.052 1490.96 152.373C1490.79 152.693 1490.52 152.941 1490.17 153.119C1489.81 153.297 1489.37 153.385 1488.83 153.385H1486.97V152.488H1488.74C1489.08 152.488 1489.35 152.44 1489.56 152.343C1489.78 152.246 1489.93 152.106 1490.03 151.921C1490.13 151.737 1490.18 151.515 1490.18 151.257C1490.18 150.996 1490.13 150.77 1490.03 150.579C1489.93 150.387 1489.77 150.241 1489.56 150.14C1489.35 150.037 1489.07 149.985 1488.73 149.985H1487.42V156H1486.38ZM1489.79 152.883L1491.49 156H1490.31L1488.63 152.883H1489.79ZM1494.4 156H1492.17V149.091H1494.47C1495.15 149.091 1495.73 149.229 1496.22 149.506C1496.7 149.78 1497.08 150.175 1497.33 150.69C1497.59 151.203 1497.73 151.818 1497.73 152.535C1497.73 153.255 1497.59 153.874 1497.33 154.391C1497.07 154.908 1496.69 155.306 1496.2 155.585C1495.7 155.862 1495.1 156 1494.4 156ZM1493.21 155.089H1494.34C1494.87 155.089 1495.31 154.99 1495.66 154.792C1496.01 154.592 1496.27 154.303 1496.44 153.925C1496.61 153.545 1496.7 153.082 1496.7 152.535C1496.7 151.993 1496.61 151.533 1496.44 151.156C1496.27 150.778 1496.01 150.491 1495.67 150.295C1495.33 150.1 1494.91 150.002 1494.41 150.002H1493.21V155.089ZM1498.69 156V149.091H1503.02V149.988H1499.73V152.093H1502.79V152.987H1499.73V155.103H1503.06V156H1498.69Z" fill="#FEFFC1"/>
<rect x="1184" y="141" width="115" height="22.5" fill="#3A3A3A"/>
<path d="M1198.74 156V149.091H1201.2C1201.74 149.091 1202.18 149.189 1202.54 149.384C1202.89 149.58 1203.15 149.848 1203.33 150.187C1203.5 150.525 1203.59 150.905 1203.59 151.328C1203.59 151.753 1203.5 152.135 1203.33 152.475C1203.15 152.812 1202.88 153.08 1202.53 153.278C1202.18 153.473 1201.73 153.571 1201.2 153.571H1199.5V152.687H1201.1C1201.44 152.687 1201.72 152.629 1201.93 152.512C1202.14 152.393 1202.3 152.231 1202.39 152.026C1202.49 151.821 1202.54 151.588 1202.54 151.328C1202.54 151.067 1202.49 150.835 1202.39 150.633C1202.3 150.43 1202.14 150.272 1201.93 150.157C1201.71 150.042 1201.43 149.985 1201.09 149.985H1199.78V156H1198.74ZM1204.48 156V149.091H1206.94C1207.48 149.091 1207.92 149.183 1208.28 149.368C1208.63 149.552 1208.9 149.807 1209.07 150.133C1209.25 150.457 1209.34 150.832 1209.34 151.257C1209.34 151.68 1209.25 152.052 1209.07 152.373C1208.89 152.693 1208.63 152.941 1208.27 153.119C1207.92 153.297 1207.48 153.385 1206.94 153.385H1205.08V152.488H1206.85C1207.18 152.488 1207.46 152.44 1207.67 152.343C1207.88 152.246 1208.04 152.106 1208.14 151.921C1208.24 151.737 1208.29 151.515 1208.29 151.257C1208.29 150.996 1208.24 150.77 1208.13 150.579C1208.04 150.387 1207.88 150.241 1207.67 150.14C1207.45 150.037 1207.18 149.985 1206.83 149.985H1205.52V156H1204.48ZM1207.89 152.883L1209.6 156H1208.41L1206.74 152.883H1207.89ZM1212.45 156V149.091H1214.92C1215.45 149.091 1215.9 149.189 1216.25 149.384C1216.61 149.58 1216.87 149.848 1217.04 150.187C1217.22 150.525 1217.31 150.905 1217.31 151.328C1217.31 151.753 1217.22 152.135 1217.04 152.475C1216.87 152.812 1216.6 153.08 1216.25 153.278C1215.89 153.473 1215.45 153.571 1214.91 153.571H1213.22V152.687H1214.82C1215.16 152.687 1215.43 152.629 1215.64 152.512C1215.86 152.393 1216.01 152.231 1216.11 152.026C1216.21 151.821 1216.26 151.588 1216.26 151.328C1216.26 151.067 1216.21 150.835 1216.11 150.633C1216.01 150.43 1215.86 150.272 1215.64 150.157C1215.43 150.042 1215.15 149.985 1214.8 149.985H1213.5V156H1212.45ZM1224.2 152.545C1224.2 153.283 1224.06 153.917 1223.79 154.448C1223.52 154.977 1223.15 155.384 1222.68 155.669C1222.22 155.953 1221.68 156.094 1221.09 156.094C1220.49 156.094 1219.96 155.953 1219.49 155.669C1219.02 155.384 1218.65 154.976 1218.38 154.445C1218.11 153.914 1217.98 153.281 1217.98 152.545C1217.98 151.808 1218.11 151.175 1218.38 150.646C1218.65 150.115 1219.02 149.708 1219.49 149.425C1219.96 149.139 1220.49 148.996 1221.09 148.996C1221.68 148.996 1222.22 149.139 1222.68 149.425C1223.15 149.708 1223.52 150.115 1223.79 150.646C1224.06 151.175 1224.2 151.808 1224.2 152.545ZM1223.17 152.545C1223.17 151.983 1223.08 151.51 1222.89 151.125C1222.71 150.738 1222.47 150.446 1222.15 150.248C1221.84 150.048 1221.48 149.948 1221.09 149.948C1220.69 149.948 1220.34 150.048 1220.02 150.248C1219.71 150.446 1219.46 150.738 1219.28 151.125C1219.1 151.51 1219.01 151.983 1219.01 152.545C1219.01 153.108 1219.1 153.582 1219.28 153.969C1219.46 154.354 1219.71 154.646 1220.02 154.846C1220.34 155.044 1220.69 155.143 1221.09 155.143C1221.48 155.143 1221.84 155.044 1222.15 154.846C1222.47 154.646 1222.71 154.354 1222.89 153.969C1223.08 153.582 1223.17 153.108 1223.17 152.545ZM1230.74 149.091V156H1229.78L1226.27 150.933H1226.21V156H1225.17V149.091H1226.13L1229.65 154.165H1229.71V149.091H1230.74ZM1231.59 149.988V149.091H1236.94V149.988H1234.78V156H1233.74V149.988H1231.59ZM1245.71 151.338H1244.65C1244.61 151.113 1244.54 150.915 1244.43 150.744C1244.32 150.573 1244.18 150.428 1244.02 150.309C1243.86 150.19 1243.68 150.1 1243.49 150.039C1243.29 149.978 1243.08 149.948 1242.86 149.948C1242.46 149.948 1242.11 150.048 1241.79 150.248C1241.48 150.448 1241.23 150.742 1241.05 151.129C1240.87 151.515 1240.78 151.988 1240.78 152.545C1240.78 153.108 1240.87 153.582 1241.05 153.969C1241.23 154.356 1241.48 154.648 1241.8 154.846C1242.11 155.044 1242.47 155.143 1242.86 155.143C1243.08 155.143 1243.28 155.114 1243.48 155.055C1243.68 154.995 1243.86 154.906 1244.02 154.789C1244.18 154.672 1244.31 154.529 1244.42 154.36C1244.53 154.19 1244.61 153.994 1244.65 153.773L1245.71 153.777C1245.65 154.116 1245.54 154.429 1245.38 154.715C1245.22 154.998 1245.01 155.243 1244.76 155.45C1244.51 155.655 1244.23 155.813 1243.91 155.926C1243.58 156.038 1243.23 156.094 1242.85 156.094C1242.25 156.094 1241.72 155.953 1241.25 155.669C1240.79 155.384 1240.42 154.976 1240.15 154.445C1239.88 153.914 1239.75 153.281 1239.75 152.545C1239.75 151.808 1239.88 151.175 1240.15 150.646C1240.42 150.115 1240.79 149.708 1241.26 149.425C1241.72 149.139 1242.26 148.996 1242.85 148.996C1243.22 148.996 1243.56 149.049 1243.88 149.155C1244.2 149.258 1244.48 149.411 1244.74 149.614C1244.99 149.814 1245.2 150.059 1245.37 150.349C1245.54 150.637 1245.65 150.967 1245.71 151.338ZM1247.16 156H1246.05L1248.54 149.091H1249.74L1252.23 156H1251.12L1249.17 150.346H1249.12L1247.16 156ZM1247.34 153.294H1250.93V154.172H1247.34V153.294ZM1252.89 156V149.091H1255.36C1255.89 149.091 1256.34 149.183 1256.69 149.368C1257.05 149.552 1257.31 149.807 1257.49 150.133C1257.66 150.457 1257.75 150.832 1257.75 151.257C1257.75 151.68 1257.66 152.052 1257.48 152.373C1257.31 152.693 1257.04 152.941 1256.69 153.119C1256.33 153.297 1255.89 153.385 1255.35 153.385H1253.49V152.488H1255.26C1255.6 152.488 1255.87 152.44 1256.08 152.343C1256.3 152.246 1256.45 152.106 1256.55 151.921C1256.65 151.737 1256.7 151.515 1256.7 151.257C1256.7 150.996 1256.65 150.77 1256.55 150.579C1256.45 150.387 1256.29 150.241 1256.08 150.14C1255.87 150.037 1255.59 149.985 1255.25 149.985H1253.94V156H1252.89ZM1256.31 152.883L1258.01 156H1256.82L1255.15 152.883H1256.31ZM1260.92 156H1258.69V149.091H1260.99C1261.67 149.091 1262.25 149.229 1262.74 149.506C1263.22 149.78 1263.59 150.175 1263.85 150.69C1264.11 151.203 1264.24 151.818 1264.24 152.535C1264.24 153.255 1264.11 153.874 1263.85 154.391C1263.59 154.908 1263.21 155.306 1262.72 155.585C1262.22 155.862 1261.62 156 1260.92 156ZM1259.73 155.089H1260.86C1261.39 155.089 1261.83 154.99 1262.18 154.792C1262.53 154.592 1262.79 154.303 1262.96 153.925C1263.13 153.545 1263.22 153.082 1263.22 152.535C1263.22 151.993 1263.13 151.533 1262.96 151.156C1262.79 150.778 1262.53 150.491 1262.19 150.295C1261.85 150.1 1261.43 150.002 1260.93 150.002H1259.73V155.089ZM1266.25 149.091V156H1265.21V149.091H1266.25ZM1273.01 149.091V156H1272.06L1268.54 150.933H1268.48V156H1267.44V149.091H1268.4L1271.92 154.165H1271.98V149.091H1273.01ZM1274.2 156V149.091H1278.53V149.988H1275.24V152.093H1278.31V152.987H1275.24V155.103H1278.57V156H1274.2ZM1279.25 149.988V149.091H1284.6V149.988H1282.44V156H1281.4V149.988H1279.25Z" fill="#FEFFC1"/>
<rect x="1088.5" y="1" width="63" height="25" fill="#E4E4E4" stroke="black" stroke-width="2"/>
<path d="M1102.56 10.2031C1102.48 9.46354 1102.14 8.89062 1101.53 8.48437C1100.93 8.07292 1100.17 7.86719 1099.25 7.86719C1098.59 7.86719 1098.03 7.97135 1097.55 8.17969C1097.07 8.38281 1096.7 8.66406 1096.43 9.02344C1096.17 9.3776 1096.04 9.78125 1096.04 10.2344C1096.04 10.6146 1096.13 10.9427 1096.3 11.2187C1096.49 11.4948 1096.72 11.7266 1097.02 11.9141C1097.31 12.0964 1097.63 12.25 1097.97 12.375C1098.31 12.4948 1098.63 12.5937 1098.95 12.6719L1100.51 13.0781C1101.02 13.2031 1101.54 13.3724 1102.08 13.5859C1102.61 13.7995 1103.11 14.0807 1103.57 14.4297C1104.03 14.7786 1104.4 15.2109 1104.68 15.7266C1104.97 16.2422 1105.11 16.8594 1105.11 17.5781C1105.11 18.4844 1104.87 19.2891 1104.41 19.9922C1103.94 20.6953 1103.27 21.25 1102.38 21.6562C1101.5 22.0625 1100.44 22.2656 1099.19 22.2656C1097.99 22.2656 1096.95 22.0755 1096.08 21.6953C1095.2 21.3151 1094.52 20.776 1094.02 20.0781C1093.53 19.375 1093.26 18.5417 1093.2 17.5781H1095.62C1095.67 18.1562 1095.86 18.638 1096.19 19.0234C1096.52 19.4036 1096.95 19.6875 1097.46 19.875C1097.98 20.0573 1098.55 20.1484 1099.17 20.1484C1099.85 20.1484 1100.46 20.0417 1100.99 19.8281C1101.53 19.6094 1101.95 19.3073 1102.26 18.9219C1102.57 18.5312 1102.72 18.0755 1102.72 17.5547C1102.72 17.0807 1102.58 16.6927 1102.31 16.3906C1102.05 16.0885 1101.68 15.8385 1101.23 15.6406C1100.77 15.4427 1100.26 15.2682 1099.69 15.1172L1097.8 14.6016C1096.52 14.2526 1095.5 13.7396 1094.75 13.0625C1094.01 12.3854 1093.63 11.4896 1093.63 10.375C1093.63 9.45312 1093.88 8.64844 1094.38 7.96094C1094.88 7.27344 1095.56 6.73958 1096.41 6.35938C1097.27 5.97396 1098.23 5.78125 1099.3 5.78125C1100.39 5.78125 1101.34 5.97135 1102.17 6.35156C1103.01 6.73177 1103.66 7.25521 1104.14 7.92187C1104.62 8.58333 1104.87 9.34375 1104.89 10.2031H1102.56ZM1116.5 10.2031C1116.42 9.46354 1116.07 8.89062 1115.47 8.48437C1114.87 8.07292 1114.1 7.86719 1113.19 7.86719C1112.53 7.86719 1111.96 7.97135 1111.49 8.17969C1111.01 8.38281 1110.63 8.66406 1110.37 9.02344C1110.11 9.3776 1109.98 9.78125 1109.98 10.2344C1109.98 10.6146 1110.07 10.9427 1110.24 11.2187C1110.43 11.4948 1110.66 11.7266 1110.95 11.9141C1111.25 12.0964 1111.57 12.25 1111.91 12.375C1112.25 12.4948 1112.57 12.5937 1112.88 12.6719L1114.45 13.0781C1114.96 13.2031 1115.48 13.3724 1116.02 13.5859C1116.55 13.7995 1117.05 14.0807 1117.51 14.4297C1117.97 14.7786 1118.34 15.2109 1118.62 15.7266C1118.9 16.2422 1119.05 16.8594 1119.05 17.5781C1119.05 18.4844 1118.81 19.2891 1118.34 19.9922C1117.88 20.6953 1117.21 21.25 1116.32 21.6562C1115.44 22.0625 1114.38 22.2656 1113.13 22.2656C1111.93 22.2656 1110.89 22.0755 1110.02 21.6953C1109.14 21.3151 1108.46 20.776 1107.96 20.0781C1107.47 19.375 1107.19 18.5417 1107.14 17.5781H1109.56C1109.61 18.1562 1109.8 18.638 1110.13 19.0234C1110.46 19.4036 1110.88 19.6875 1111.4 19.875C1111.92 20.0573 1112.49 20.1484 1113.11 20.1484C1113.79 20.1484 1114.4 20.0417 1114.93 19.8281C1115.47 19.6094 1115.89 19.3073 1116.2 18.9219C1116.5 18.5312 1116.66 18.0755 1116.66 17.5547C1116.66 17.0807 1116.52 16.6927 1116.25 16.3906C1115.99 16.0885 1115.62 15.8385 1115.16 15.6406C1114.71 15.4427 1114.2 15.2682 1113.63 15.1172L1111.74 14.6016C1110.45 14.2526 1109.44 13.7396 1108.69 13.0625C1107.94 12.3854 1107.57 11.4896 1107.57 10.375C1107.57 9.45312 1107.82 8.64844 1108.32 7.96094C1108.82 7.27344 1109.5 6.73958 1110.35 6.35938C1111.21 5.97396 1112.17 5.78125 1113.24 5.78125C1114.33 5.78125 1115.28 5.97135 1116.11 6.35156C1116.94 6.73177 1117.6 7.25521 1118.08 7.92187C1118.56 8.58333 1118.81 9.34375 1118.83 10.2031H1116.5ZM1127.06 22.2656C1125.83 22.2604 1124.77 21.9349 1123.9 21.2891C1123.02 20.6432 1122.36 19.7031 1121.89 18.4687C1121.43 17.2344 1121.2 15.7474 1121.2 14.0078C1121.2 12.2734 1121.43 10.7917 1121.89 9.5625C1122.36 8.33333 1123.03 7.39583 1123.91 6.75C1124.79 6.10417 1125.84 5.78125 1127.06 5.78125C1128.29 5.78125 1129.34 6.10677 1130.21 6.75781C1131.09 7.40365 1131.76 8.34115 1132.22 9.57031C1132.69 10.7943 1132.92 12.2734 1132.92 14.0078C1132.92 15.7526 1132.69 17.2422 1132.23 18.4766C1131.76 19.7057 1131.1 20.6458 1130.22 21.2969C1129.35 21.9427 1128.29 22.2656 1127.06 22.2656ZM1127.06 20.1797C1128.15 20.1797 1128.99 19.651 1129.6 18.5937C1130.22 17.5365 1130.52 16.0078 1130.52 14.0078C1130.52 12.6797 1130.38 11.5573 1130.1 10.6406C1129.83 9.71875 1129.43 9.02083 1128.91 8.54687C1128.39 8.06771 1127.78 7.82812 1127.06 7.82812C1125.99 7.82812 1125.14 8.35937 1124.52 9.42187C1123.91 10.4844 1123.6 12.013 1123.6 14.0078C1123.6 15.3411 1123.73 16.4688 1124.01 17.3906C1124.29 18.3073 1124.69 19.0026 1125.2 19.4766C1125.72 19.9453 1126.34 20.1797 1127.06 20.1797ZM1141.06 22.2187C1140.35 22.2083 1139.64 22.0781 1138.95 21.8281C1138.26 21.5781 1137.64 21.1615 1137.08 20.5781C1136.51 19.9948 1136.06 19.2109 1135.72 18.2266C1135.39 17.2422 1135.22 16.013 1135.22 14.5391C1135.22 13.1432 1135.36 11.9036 1135.64 10.8203C1135.92 9.73698 1136.32 8.82292 1136.85 8.07812C1137.38 7.32812 1138.01 6.75781 1138.76 6.36719C1139.5 5.97656 1140.34 5.78125 1141.26 5.78125C1142.22 5.78125 1143.06 5.96875 1143.8 6.34375C1144.54 6.71875 1145.14 7.23698 1145.6 7.89844C1146.06 8.5599 1146.36 9.3125 1146.48 10.1562H1144.1C1143.94 9.48958 1143.62 8.94531 1143.14 8.52344C1142.66 8.10156 1142.03 7.89062 1141.26 7.89062C1140.09 7.89062 1139.18 8.40104 1138.52 9.42187C1137.87 10.4427 1137.54 11.862 1137.54 13.6797H1137.65C1137.93 13.2266 1138.27 12.8411 1138.67 12.5234C1139.08 12.2005 1139.53 11.9531 1140.03 11.7812C1140.53 11.6042 1141.07 11.5156 1141.62 11.5156C1142.55 11.5156 1143.39 11.7422 1144.14 12.1953C1144.89 12.6432 1145.5 13.263 1145.94 14.0547C1146.39 14.8464 1146.62 15.7526 1146.62 16.7734C1146.62 17.7943 1146.38 18.7187 1145.92 19.5469C1145.46 20.375 1144.82 21.0312 1143.98 21.5156C1143.15 21.9948 1142.18 22.2292 1141.06 22.2187ZM1141.05 20.1875C1141.67 20.1875 1142.22 20.0365 1142.7 19.7344C1143.19 19.4323 1143.57 19.026 1143.85 18.5156C1144.13 18.0052 1144.27 17.4349 1144.27 16.8047C1144.27 16.1901 1144.13 15.6302 1143.86 15.125C1143.59 14.6198 1143.21 14.2187 1142.73 13.9219C1142.26 13.625 1141.72 13.4766 1141.11 13.4766C1140.64 13.4766 1140.21 13.5651 1139.82 13.7422C1139.43 13.9193 1139.08 14.1641 1138.79 14.4766C1138.49 14.7891 1138.26 15.1484 1138.08 15.5547C1137.92 15.9557 1137.83 16.3802 1137.83 16.8281C1137.83 17.4271 1137.97 17.9818 1138.25 18.4922C1138.53 19.0026 1138.91 19.4141 1139.4 19.7266C1139.89 20.0339 1140.44 20.1875 1141.05 20.1875Z" fill="black"/>
<rect x="1423.5" y="1" width="63" height="25" fill="#E4E4E4" stroke="black" stroke-width="2"/>
<path d="M1438.4 10.2031C1438.32 9.46354 1437.97 8.89062 1437.37 8.48437C1436.76 8.07292 1436 7.86719 1435.09 7.86719C1434.43 7.86719 1433.86 7.97135 1433.38 8.17969C1432.91 8.38281 1432.53 8.66406 1432.27 9.02344C1432.01 9.3776 1431.88 9.78125 1431.88 10.2344C1431.88 10.6146 1431.97 10.9427 1432.14 11.2187C1432.32 11.4948 1432.56 11.7266 1432.85 11.9141C1433.15 12.0964 1433.47 12.25 1433.81 12.375C1434.15 12.4948 1434.47 12.5937 1434.78 12.6719L1436.35 13.0781C1436.86 13.2031 1437.38 13.3724 1437.92 13.5859C1438.45 13.7995 1438.95 14.0807 1439.41 14.4297C1439.87 14.7786 1440.24 15.2109 1440.52 15.7266C1440.8 16.2422 1440.95 16.8594 1440.95 17.5781C1440.95 18.4844 1440.71 19.2891 1440.24 19.9922C1439.78 20.6953 1439.11 21.25 1438.22 21.6562C1437.34 22.0625 1436.28 22.2656 1435.03 22.2656C1433.83 22.2656 1432.79 22.0755 1431.92 21.6953C1431.04 21.3151 1430.36 20.776 1429.86 20.0781C1429.37 19.375 1429.09 18.5417 1429.04 17.5781H1431.46C1431.51 18.1562 1431.7 18.638 1432.03 19.0234C1432.36 19.4036 1432.78 19.6875 1433.3 19.875C1433.82 20.0573 1434.39 20.1484 1435.01 20.1484C1435.69 20.1484 1436.3 20.0417 1436.83 19.8281C1437.37 19.6094 1437.79 19.3073 1438.1 18.9219C1438.4 18.5312 1438.56 18.0755 1438.56 17.5547C1438.56 17.0807 1438.42 16.6927 1438.15 16.3906C1437.88 16.0885 1437.52 15.8385 1437.06 15.6406C1436.61 15.4427 1436.1 15.2682 1435.53 15.1172L1433.63 14.6016C1432.35 14.2526 1431.34 13.7396 1430.59 13.0625C1429.84 12.3854 1429.47 11.4896 1429.47 10.375C1429.47 9.45312 1429.72 8.64844 1430.22 7.96094C1430.72 7.27344 1431.4 6.73958 1432.25 6.35938C1433.11 5.97396 1434.07 5.78125 1435.14 5.78125C1436.23 5.78125 1437.18 5.97135 1438.01 6.35156C1438.84 6.73177 1439.5 7.25521 1439.98 7.92187C1440.46 8.58333 1440.71 9.34375 1440.73 10.2031H1438.4ZM1452.34 10.2031C1452.26 9.46354 1451.91 8.89062 1451.31 8.48437C1450.7 8.07292 1449.94 7.86719 1449.03 7.86719C1448.37 7.86719 1447.8 7.97135 1447.32 8.17969C1446.84 8.38281 1446.47 8.66406 1446.21 9.02344C1445.95 9.3776 1445.82 9.78125 1445.82 10.2344C1445.82 10.6146 1445.9 10.9427 1446.08 11.2187C1446.26 11.4948 1446.5 11.7266 1446.79 11.9141C1447.09 12.0964 1447.41 12.25 1447.74 12.375C1448.08 12.4948 1448.41 12.5937 1448.72 12.6719L1450.28 13.0781C1450.79 13.2031 1451.32 13.3724 1451.85 13.5859C1452.39 13.7995 1452.89 14.0807 1453.35 14.4297C1453.8 14.7786 1454.17 15.2109 1454.46 15.7266C1454.74 16.2422 1454.89 16.8594 1454.89 17.5781C1454.89 18.4844 1454.65 19.2891 1454.18 19.9922C1453.72 20.6953 1453.04 21.25 1452.16 21.6562C1451.28 22.0625 1450.21 22.2656 1448.96 22.2656C1447.77 22.2656 1446.73 22.0755 1445.85 21.6953C1444.98 21.3151 1444.29 20.776 1443.8 20.0781C1443.3 19.375 1443.03 18.5417 1442.98 17.5781H1445.4C1445.45 18.1562 1445.64 18.638 1445.96 19.0234C1446.3 19.4036 1446.72 19.6875 1447.24 19.875C1447.76 20.0573 1448.33 20.1484 1448.95 20.1484C1449.63 20.1484 1450.24 20.0417 1450.77 19.8281C1451.3 19.6094 1451.73 19.3073 1452.03 18.9219C1452.34 18.5312 1452.49 18.0755 1452.49 17.5547C1452.49 17.0807 1452.36 16.6927 1452.09 16.3906C1451.82 16.0885 1451.46 15.8385 1451 15.6406C1450.55 15.4427 1450.04 15.2682 1449.46 15.1172L1447.57 14.6016C1446.29 14.2526 1445.28 13.7396 1444.53 13.0625C1443.78 12.3854 1443.41 11.4896 1443.41 10.375C1443.41 9.45312 1443.66 8.64844 1444.16 7.96094C1444.66 7.27344 1445.34 6.73958 1446.19 6.35938C1447.04 5.97396 1448.01 5.78125 1449.08 5.78125C1450.16 5.78125 1451.12 5.97135 1451.95 6.35156C1452.78 6.73177 1453.44 7.25521 1453.92 7.92187C1454.4 8.58333 1454.65 9.34375 1454.67 10.2031H1452.34ZM1462.9 22.2656C1461.67 22.2604 1460.61 21.9349 1459.74 21.2891C1458.86 20.6432 1458.19 19.7031 1457.73 18.4687C1457.27 17.2344 1457.03 15.7474 1457.03 14.0078C1457.03 12.2734 1457.27 10.7917 1457.73 9.5625C1458.2 8.33333 1458.87 7.39583 1459.75 6.75C1460.63 6.10417 1461.68 5.78125 1462.9 5.78125C1464.13 5.78125 1465.18 6.10677 1466.05 6.75781C1466.93 7.40365 1467.59 8.34115 1468.06 9.57031C1468.53 10.7943 1468.76 12.2734 1468.76 14.0078C1468.76 15.7526 1468.53 17.2422 1468.07 18.4766C1467.6 19.7057 1466.93 20.6458 1466.06 21.2969C1465.18 21.9427 1464.13 22.2656 1462.9 22.2656ZM1462.9 20.1797C1463.99 20.1797 1464.83 19.651 1465.44 18.5937C1466.06 17.5365 1466.36 16.0078 1466.36 14.0078C1466.36 12.6797 1466.22 11.5573 1465.94 10.6406C1465.66 9.71875 1465.27 9.02083 1464.75 8.54687C1464.23 8.06771 1463.62 7.82812 1462.9 7.82812C1461.82 7.82812 1460.98 8.35937 1460.36 9.42187C1459.75 10.4844 1459.44 12.013 1459.43 14.0078C1459.43 15.3411 1459.57 16.4688 1459.85 17.3906C1460.13 18.3073 1460.53 19.0026 1461.04 19.4766C1461.56 19.9453 1462.18 20.1797 1462.9 20.1797ZM1471.42 22L1478.41 8.1875V8.07031H1470.33V6H1480.91V8.14062L1473.95 22H1471.42Z" fill="black"/>
<rect x="223" y="141.5" width="115" height="22.5" fill="#3A3A3A"/>
<path d="M230.554 156.5V149.591H233.016C233.554 149.591 233.999 149.689 234.352 149.884C234.705 150.08 234.97 150.348 235.145 150.687C235.32 151.025 235.408 151.405 235.408 151.828C235.408 152.253 235.319 152.635 235.142 152.975C234.966 153.312 234.701 153.58 234.345 153.778C233.992 153.973 233.548 154.071 233.013 154.071H231.319V153.187H232.918C233.258 153.187 233.534 153.129 233.745 153.012C233.956 152.893 234.112 152.731 234.211 152.526C234.309 152.321 234.359 152.088 234.359 151.828C234.359 151.567 234.309 151.335 234.211 151.133C234.112 150.93 233.955 150.772 233.742 150.657C233.53 150.542 233.251 150.485 232.905 150.485H231.596V156.5H230.554ZM236.298 156.5V149.591H238.76C239.296 149.591 239.74 149.683 240.093 149.868C240.448 150.052 240.714 150.307 240.889 150.633C241.065 150.957 241.152 151.332 241.152 151.757C241.152 152.18 241.063 152.552 240.886 152.873C240.71 153.193 240.445 153.441 240.09 153.619C239.737 153.797 239.292 153.885 238.757 153.885H236.891V152.988H238.663C239 152.988 239.274 152.94 239.486 152.843C239.699 152.746 239.856 152.606 239.955 152.421C240.054 152.237 240.103 152.015 240.103 151.757C240.103 151.496 240.053 151.27 239.951 151.079C239.852 150.887 239.696 150.741 239.482 150.64C239.271 150.537 238.993 150.485 238.649 150.485H237.34V156.5H236.298ZM239.708 153.383L241.415 156.5H240.228L238.555 153.383H239.708ZM244.27 149.591H245.535L247.735 154.962H247.816L250.015 149.591H251.28V156.5H250.288V151.5H250.224L248.187 156.49H247.363L245.326 151.497H245.262V156.5H244.27V149.591ZM253.047 156.5H251.94L254.427 149.591H255.631L258.117 156.5H257.011L255.058 150.846H255.004L253.047 156.5ZM253.232 153.794H256.822V154.672H253.232V153.794ZM259.825 149.591V156.5H258.783V149.591H259.825ZM261.011 156.5V149.591H263.473C264.009 149.591 264.453 149.683 264.806 149.868C265.161 150.052 265.427 150.307 265.602 150.633C265.778 150.957 265.865 151.332 265.865 151.757C265.865 152.18 265.776 152.552 265.599 152.873C265.423 153.193 265.158 153.441 264.803 153.619C264.449 153.797 264.005 153.885 263.47 153.885H261.604V152.988H263.376C263.713 152.988 263.987 152.94 264.199 152.843C264.412 152.746 264.569 152.606 264.668 152.421C264.767 152.237 264.816 152.015 264.816 151.757C264.816 151.496 264.765 151.27 264.664 151.079C264.565 150.887 264.409 150.741 264.195 150.64C263.984 150.537 263.706 150.485 263.362 150.485H262.053V156.5H261.011ZM264.421 153.383L266.128 156.5H264.941L263.268 153.383H264.421ZM267.844 149.591V156.5H266.801V149.591H267.844ZM269.029 156.5V149.591H273.361V150.488H270.072V152.593H273.135V153.487H270.072V155.603H273.401V156.5H269.029ZM278.839 156.5H276.603V149.591H278.91C279.587 149.591 280.168 149.729 280.654 150.006C281.14 150.28 281.512 150.675 281.771 151.19C282.032 151.703 282.162 152.318 282.162 153.035C282.162 153.755 282.031 154.374 281.768 154.891C281.507 155.408 281.129 155.806 280.634 156.085C280.139 156.362 279.541 156.5 278.839 156.5ZM277.645 155.589H278.782C279.308 155.589 279.746 155.49 280.094 155.292C280.443 155.092 280.704 154.803 280.877 154.425C281.05 154.045 281.137 153.582 281.137 153.035C281.137 152.493 281.05 152.033 280.877 151.656C280.706 151.278 280.451 150.991 280.111 150.795C279.771 150.6 279.35 150.502 278.846 150.502H277.645V155.589ZM283.126 156.5V149.591H287.458V150.488H284.168V152.593H287.232V153.487H284.168V155.603H287.498V156.5H283.126ZM294.468 151.406C294.432 151.087 294.283 150.839 294.022 150.664C293.761 150.486 293.433 150.397 293.037 150.397C292.754 150.397 292.509 150.442 292.302 150.532C292.095 150.62 291.934 150.741 291.819 150.896C291.707 151.049 291.651 151.224 291.651 151.419C291.651 151.584 291.689 151.725 291.765 151.844C291.844 151.964 291.946 152.064 292.072 152.145C292.201 152.223 292.338 152.29 292.484 152.344C292.63 152.395 292.771 152.438 292.906 152.472L293.58 152.647C293.801 152.701 294.027 152.774 294.258 152.867C294.49 152.959 294.705 153.08 294.903 153.231C295.101 153.382 295.26 153.568 295.382 153.791C295.506 154.014 295.567 154.28 295.567 154.591C295.567 154.982 295.466 155.329 295.264 155.633C295.064 155.937 294.772 156.176 294.39 156.352C294.01 156.527 293.55 156.615 293.01 156.615C292.493 156.615 292.045 156.533 291.668 156.368C291.29 156.204 290.994 155.971 290.78 155.67C290.567 155.366 290.449 155.007 290.426 154.591H291.472C291.492 154.84 291.573 155.048 291.715 155.215C291.859 155.379 292.042 155.501 292.265 155.582C292.49 155.661 292.736 155.7 293.003 155.7C293.298 155.7 293.56 155.654 293.79 155.562C294.021 155.468 294.203 155.337 294.336 155.171C294.469 155.002 294.535 154.805 294.535 154.58C294.535 154.376 294.477 154.208 294.36 154.078C294.245 153.947 294.089 153.839 293.891 153.754C293.695 153.668 293.474 153.593 293.226 153.528L292.41 153.305C291.856 153.155 291.418 152.933 291.094 152.641C290.772 152.348 290.612 151.961 290.612 151.48C290.612 151.082 290.72 150.735 290.935 150.438C291.151 150.141 291.444 149.91 291.813 149.746C292.181 149.58 292.598 149.496 293.061 149.496C293.529 149.496 293.941 149.579 294.299 149.743C294.659 149.907 294.942 150.133 295.149 150.421C295.356 150.706 295.464 151.035 295.473 151.406H294.468ZM296.14 150.488V149.591H301.487V150.488H299.331V156.5H298.292V150.488H296.14ZM304.742 152.607V153.484H301.679V152.607H304.742ZM311.837 153.045C311.837 153.783 311.702 154.417 311.432 154.948C311.162 155.477 310.792 155.884 310.322 156.169C309.854 156.453 309.322 156.594 308.726 156.594C308.128 156.594 307.594 156.453 307.124 156.169C306.656 155.884 306.287 155.476 306.017 154.945C305.747 154.414 305.612 153.781 305.612 153.045C305.612 152.308 305.747 151.675 306.017 151.146C306.287 150.615 306.656 150.208 307.124 149.925C307.594 149.639 308.128 149.496 308.726 149.496C309.322 149.496 309.854 149.639 310.322 149.925C310.792 150.208 311.162 150.615 311.432 151.146C311.702 151.675 311.837 152.308 311.837 153.045ZM310.804 153.045C310.804 152.483 310.713 152.01 310.531 151.625C310.351 151.238 310.104 150.946 309.789 150.748C309.476 150.548 309.122 150.448 308.726 150.448C308.328 150.448 307.973 150.548 307.66 150.748C307.348 150.946 307.1 151.238 306.918 151.625C306.738 152.01 306.648 152.483 306.648 153.045C306.648 153.608 306.738 154.082 306.918 154.469C307.1 154.854 307.348 155.146 307.66 155.346C307.973 155.544 308.328 155.643 308.726 155.643C309.122 155.643 309.476 155.544 309.789 155.346C310.104 155.146 310.351 154.854 310.531 154.469C310.713 154.082 310.804 153.608 310.804 153.045ZM317.247 149.591H318.293V154.135C318.293 154.619 318.179 155.047 317.952 155.42C317.725 155.792 317.405 156.084 316.994 156.298C316.582 156.509 316.1 156.615 315.547 156.615C314.996 156.615 314.514 156.509 314.103 156.298C313.691 156.084 313.372 155.792 313.145 155.42C312.917 155.047 312.804 154.619 312.804 154.135V149.591H313.846V154.051C313.846 154.363 313.915 154.641 314.052 154.884C314.192 155.127 314.388 155.318 314.642 155.458C314.897 155.595 315.198 155.663 315.547 155.663C315.897 155.663 316.2 155.595 316.454 155.458C316.71 155.318 316.906 155.127 317.041 154.884C317.178 154.641 317.247 154.363 317.247 154.051V149.591ZM319.476 156.5V149.591H323.807V150.488H320.518V152.593H323.581V153.487H320.518V155.603H323.848V156.5H319.476ZM330.444 149.591V156.5H329.486L325.974 151.433H325.91V156.5H324.867V149.591H325.832L329.348 154.665H329.412V149.591H330.444Z" fill="#FEFFC1"/>
<rect x="223" y="141.5" width="115" height="22.5" fill="#3A3A3A"/>
<path d="M230.554 156.5V149.591H233.016C233.554 149.591 233.999 149.689 234.352 149.884C234.705 150.08 234.97 150.348 235.145 150.687C235.32 151.025 235.408 151.405 235.408 151.828C235.408 152.253 235.319 152.635 235.142 152.975C234.966 153.312 234.701 153.58 234.345 153.778C233.992 153.973 233.548 154.071 233.013 154.071H231.319V153.187H232.918C233.258 153.187 233.534 153.129 233.745 153.012C233.956 152.893 234.112 152.731 234.211 152.526C234.309 152.321 234.359 152.088 234.359 151.828C234.359 151.567 234.309 151.335 234.211 151.133C234.112 150.93 233.955 150.772 233.742 150.657C233.53 150.542 233.251 150.485 232.905 150.485H231.596V156.5H230.554ZM236.298 156.5V149.591H238.76C239.296 149.591 239.74 149.683 240.093 149.868C240.448 150.052 240.714 150.307 240.889 150.633C241.065 150.957 241.152 151.332 241.152 151.757C241.152 152.18 241.063 152.552 240.886 152.873C240.71 153.193 240.445 153.441 240.09 153.619C239.737 153.797 239.292 153.885 238.757 153.885H236.891V152.988H238.663C239 152.988 239.274 152.94 239.486 152.843C239.699 152.746 239.856 152.606 239.955 152.421C240.054 152.237 240.103 152.015 240.103 151.757C240.103 151.496 240.053 151.27 239.951 151.079C239.852 150.887 239.696 150.741 239.482 150.64C239.271 150.537 238.993 150.485 238.649 150.485H237.34V156.5H236.298ZM239.708 153.383L241.415 156.5H240.228L238.555 153.383H239.708ZM244.27 149.591H245.535L247.735 154.962H247.816L250.015 149.591H251.28V156.5H250.288V151.5H250.224L248.187 156.49H247.363L245.326 151.497H245.262V156.5H244.27V149.591ZM253.047 156.5H251.94L254.427 149.591H255.631L258.117 156.5H257.011L255.058 150.846H255.004L253.047 156.5ZM253.232 153.794H256.822V154.672H253.232V153.794ZM259.825 149.591V156.5H258.783V149.591H259.825ZM261.011 156.5V149.591H263.473C264.009 149.591 264.453 149.683 264.806 149.868C265.161 150.052 265.427 150.307 265.602 150.633C265.778 150.957 265.865 151.332 265.865 151.757C265.865 152.18 265.776 152.552 265.599 152.873C265.423 153.193 265.158 153.441 264.803 153.619C264.449 153.797 264.005 153.885 263.47 153.885H261.604V152.988H263.376C263.713 152.988 263.987 152.94 264.199 152.843C264.412 152.746 264.569 152.606 264.668 152.421C264.767 152.237 264.816 152.015 264.816 151.757C264.816 151.496 264.765 151.27 264.664 151.079C264.565 150.887 264.409 150.741 264.195 150.64C263.984 150.537 263.706 150.485 263.362 150.485H262.053V156.5H261.011ZM264.421 153.383L266.128 156.5H264.941L263.268 153.383H264.421ZM267.844 149.591V156.5H266.801V149.591H267.844ZM269.029 156.5V149.591H273.361V150.488H270.072V152.593H273.135V153.487H270.072V155.603H273.401V156.5H269.029ZM278.839 156.5H276.603V149.591H278.91C279.587 149.591 280.168 149.729 280.654 150.006C281.14 150.28 281.512 150.675 281.771 151.19C282.032 151.703 282.162 152.318 282.162 153.035C282.162 153.755 282.031 154.374 281.768 154.891C281.507 155.408 281.129 155.806 280.634 156.085C280.139 156.362 279.541 156.5 278.839 156.5ZM277.645 155.589H278.782C279.308 155.589 279.746 155.49 280.094 155.292C280.443 155.092 280.704 154.803 280.877 154.425C281.05 154.045 281.137 153.582 281.137 153.035C281.137 152.493 281.05 152.033 280.877 151.656C280.706 151.278 280.451 150.991 280.111 150.795C279.771 150.6 279.35 150.502 278.846 150.502H277.645V155.589ZM283.126 156.5V149.591H287.458V150.488H284.168V152.593H287.232V153.487H284.168V155.603H287.498V156.5H283.126ZM294.468 151.406C294.432 151.087 294.283 150.839 294.022 150.664C293.761 150.486 293.433 150.397 293.037 150.397C292.754 150.397 292.509 150.442 292.302 150.532C292.095 150.62 291.934 150.741 291.819 150.896C291.707 151.049 291.651 151.224 291.651 151.419C291.651 151.584 291.689 151.725 291.765 151.844C291.844 151.964 291.946 152.064 292.072 152.145C292.201 152.223 292.338 152.29 292.484 152.344C292.63 152.395 292.771 152.438 292.906 152.472L293.58 152.647C293.801 152.701 294.027 152.774 294.258 152.867C294.49 152.959 294.705 153.08 294.903 153.231C295.101 153.382 295.26 153.568 295.382 153.791C295.506 154.014 295.567 154.28 295.567 154.591C295.567 154.982 295.466 155.329 295.264 155.633C295.064 155.937 294.772 156.176 294.39 156.352C294.01 156.527 293.55 156.615 293.01 156.615C292.493 156.615 292.045 156.533 291.668 156.368C291.29 156.204 290.994 155.971 290.78 155.67C290.567 155.366 290.449 155.007 290.426 154.591H291.472C291.492 154.84 291.573 155.048 291.715 155.215C291.859 155.379 292.042 155.501 292.265 155.582C292.49 155.661 292.736 155.7 293.003 155.7C293.298 155.7 293.56 155.654 293.79 155.562C294.021 155.468 294.203 155.337 294.336 155.171C294.469 155.002 294.535 154.805 294.535 154.58C294.535 154.376 294.477 154.208 294.36 154.078C294.245 153.947 294.089 153.839 293.891 153.754C293.695 153.668 293.474 153.593 293.226 153.528L292.41 153.305C291.856 153.155 291.418 152.933 291.094 152.641C290.772 152.348 290.612 151.961 290.612 151.48C290.612 151.082 290.72 150.735 290.935 150.438C291.151 150.141 291.444 149.91 291.813 149.746C292.181 149.58 292.598 149.496 293.061 149.496C293.529 149.496 293.941 149.579 294.299 149.743C294.659 149.907 294.942 150.133 295.149 150.421C295.356 150.706 295.464 151.035 295.473 151.406H294.468ZM296.14 150.488V149.591H301.487V150.488H299.331V156.5H298.292V150.488H296.14ZM304.742 152.607V153.484H301.679V152.607H304.742ZM311.837 153.045C311.837 153.783 311.702 154.417 311.432 154.948C311.162 155.477 310.792 155.884 310.322 156.169C309.854 156.453 309.322 156.594 308.726 156.594C308.128 156.594 307.594 156.453 307.124 156.169C306.656 155.884 306.287 155.476 306.017 154.945C305.747 154.414 305.612 153.781 305.612 153.045C305.612 152.308 305.747 151.675 306.017 151.146C306.287 150.615 306.656 150.208 307.124 149.925C307.594 149.639 308.128 149.496 308.726 149.496C309.322 149.496 309.854 149.639 310.322 149.925C310.792 150.208 311.162 150.615 311.432 151.146C311.702 151.675 311.837 152.308 311.837 153.045ZM310.804 153.045C310.804 152.483 310.713 152.01 310.531 151.625C310.351 151.238 310.104 150.946 309.789 150.748C309.476 150.548 309.122 150.448 308.726 150.448C308.328 150.448 307.973 150.548 307.66 150.748C307.348 150.946 307.1 151.238 306.918 151.625C306.738 152.01 306.648 152.483 306.648 153.045C306.648 153.608 306.738 154.082 306.918 154.469C307.1 154.854 307.348 155.146 307.66 155.346C307.973 155.544 308.328 155.643 308.726 155.643C309.122 155.643 309.476 155.544 309.789 155.346C310.104 155.146 310.351 154.854 310.531 154.469C310.713 154.082 310.804 153.608 310.804 153.045ZM317.247 149.591H318.293V154.135C318.293 154.619 318.179 155.047 317.952 155.42C317.725 155.792 317.405 156.084 316.994 156.298C316.582 156.509 316.1 156.615 315.547 156.615C314.996 156.615 314.514 156.509 314.103 156.298C313.691 156.084 313.372 155.792 313.145 155.42C312.917 155.047 312.804 154.619 312.804 154.135V149.591H313.846V154.051C313.846 154.363 313.915 154.641 314.052 154.884C314.192 155.127 314.388 155.318 314.642 155.458C314.897 155.595 315.198 155.663 315.547 155.663C315.897 155.663 316.2 155.595 316.454 155.458C316.71 155.318 316.906 155.127 317.041 154.884C317.178 154.641 317.247 154.363 317.247 154.051V149.591ZM319.476 156.5V149.591H323.807V150.488H320.518V152.593H323.581V153.487H320.518V155.603H323.848V156.5H319.476ZM330.444 149.591V156.5H329.486L325.974 151.433H325.91V156.5H324.867V149.591H325.832L329.348 154.665H329.412V149.591H330.444Z" fill="#FEFFC1"/>
<rect x="518.5" y="141" width="115" height="22.5" fill="#3A3A3A"/>
<path d="M548.623 156V149.091H551.086C551.624 149.091 552.069 149.189 552.422 149.384C552.775 149.58 553.039 149.848 553.215 150.187C553.39 150.525 553.478 150.905 553.478 151.328C553.478 151.753 553.389 152.135 553.212 152.475C553.036 152.812 552.771 153.08 552.415 153.278C552.062 153.473 551.618 153.571 551.083 153.571H549.389V152.687H550.988C551.328 152.687 551.603 152.629 551.815 152.512C552.026 152.393 552.181 152.231 552.28 152.026C552.379 151.821 552.429 151.588 552.429 151.328C552.429 151.067 552.379 150.835 552.28 150.633C552.181 150.43 552.025 150.272 551.812 150.157C551.6 150.042 551.321 149.985 550.975 149.985H549.666V156H548.623ZM554.368 156V149.091H556.83C557.366 149.091 557.81 149.183 558.163 149.368C558.518 149.552 558.784 149.807 558.959 150.133C559.134 150.457 559.222 150.832 559.222 151.257C559.222 151.68 559.133 152.052 558.956 152.373C558.78 152.693 558.515 152.941 558.16 153.119C557.806 153.297 557.362 153.385 556.827 153.385H554.961V152.488H556.733C557.07 152.488 557.344 152.44 557.556 152.343C557.769 152.246 557.926 152.106 558.025 151.921C558.124 151.737 558.173 151.515 558.173 151.257C558.173 150.996 558.122 150.77 558.021 150.579C557.922 150.387 557.766 150.241 557.552 150.14C557.341 150.037 557.063 149.985 556.719 149.985H555.41V156H554.368ZM557.778 152.883L559.485 156H558.298L556.625 152.883H557.778ZM567.016 151.274C566.95 151.069 566.863 150.886 566.752 150.724C566.645 150.56 566.515 150.42 566.365 150.305C566.214 150.188 566.042 150.1 565.848 150.039C565.657 149.978 565.447 149.948 565.217 149.948C564.828 149.948 564.478 150.048 564.165 150.248C563.852 150.448 563.605 150.742 563.423 151.129C563.243 151.513 563.153 151.984 563.153 152.542C563.153 153.102 563.244 153.576 563.426 153.962C563.608 154.349 563.858 154.643 564.175 154.843C564.492 155.043 564.853 155.143 565.258 155.143C565.634 155.143 565.961 155.067 566.24 154.914C566.521 154.761 566.738 154.545 566.891 154.266C567.046 153.985 567.124 153.654 567.124 153.274L567.393 153.325H565.417V152.464H568.132V153.251C568.132 153.831 568.009 154.335 567.761 154.762C567.516 155.187 567.176 155.515 566.742 155.747C566.311 155.979 565.816 156.094 565.258 156.094C564.633 156.094 564.084 155.951 563.612 155.663C563.142 155.375 562.775 154.967 562.512 154.438C562.249 153.907 562.117 153.278 562.117 152.549C562.117 151.998 562.194 151.503 562.347 151.064C562.5 150.626 562.714 150.254 562.991 149.948C563.27 149.64 563.597 149.405 563.973 149.243C564.35 149.079 564.763 148.996 565.211 148.996C565.584 148.996 565.932 149.052 566.253 149.162C566.577 149.272 566.865 149.428 567.117 149.631C567.371 149.833 567.581 150.074 567.748 150.353C567.914 150.629 568.027 150.936 568.085 151.274H567.016ZM569.123 156V149.091H570.165V155.103H573.296V156H569.123ZM575.089 156H573.982L576.469 149.091H577.673L580.16 156H579.053L577.1 150.346H577.046L575.089 156ZM575.275 153.294H578.864V154.172H575.275V153.294ZM580.825 156V149.091H583.287C583.823 149.091 584.267 149.183 584.62 149.368C584.975 149.552 585.241 149.807 585.416 150.133C585.592 150.457 585.679 150.832 585.679 151.257C585.679 151.68 585.591 152.052 585.413 152.373C585.237 152.693 584.972 152.941 584.617 153.119C584.264 153.297 583.819 153.385 583.284 153.385H581.419V152.488H583.19C583.527 152.488 583.801 152.44 584.013 152.343C584.226 152.246 584.383 152.106 584.482 151.921C584.581 151.737 584.63 151.515 584.63 151.257C584.63 150.996 584.58 150.77 584.478 150.579C584.379 150.387 584.223 150.241 584.009 150.14C583.798 150.037 583.52 149.985 583.176 149.985H581.867V156H580.825ZM584.235 152.883L585.942 156H584.755L583.082 152.883H584.235ZM592.192 149.091V156H591.234L587.722 150.933H587.658V156H586.615V149.091H587.58L591.095 154.165H591.16V149.091H592.192ZM593.38 156V149.091H597.712V149.988H594.422V152.093H597.486V152.987H594.422V155.103H597.752V156H593.38ZM598.772 156V149.091H601.234C601.77 149.091 602.214 149.183 602.567 149.368C602.922 149.552 603.188 149.807 603.363 150.133C603.538 150.457 603.626 150.832 603.626 151.257C603.626 151.68 603.537 152.052 603.36 152.373C603.184 152.693 602.919 152.941 602.564 153.119C602.21 153.297 601.766 153.385 601.231 153.385H599.365V152.488H601.136C601.474 152.488 601.748 152.44 601.96 152.343C602.173 152.246 602.33 152.106 602.429 151.921C602.528 151.737 602.577 151.515 602.577 151.257C602.577 150.996 602.526 150.77 602.425 150.579C602.326 150.387 602.17 150.241 601.956 150.14C601.745 150.037 601.467 149.985 601.123 149.985H599.814V156H598.772ZM602.182 152.883L603.889 156H602.702L601.029 152.883H602.182Z" fill="#FEFFC1"/>
<rect x="697" y="141" width="115" height="22.5" fill="#3A3A3A"/>
<path d="M708.493 156V149.091H710.956C711.494 149.091 711.939 149.189 712.292 149.384C712.645 149.58 712.909 149.848 713.085 150.187C713.26 150.525 713.348 150.905 713.348 151.328C713.348 151.753 713.259 152.135 713.081 152.475C712.906 152.812 712.641 153.08 712.285 153.278C711.932 153.473 711.488 153.571 710.953 153.571H709.259V152.687H710.858C711.198 152.687 711.473 152.629 711.685 152.512C711.896 152.393 712.051 152.231 712.15 152.026C712.249 151.821 712.299 151.588 712.299 151.328C712.299 151.067 712.249 150.835 712.15 150.633C712.051 150.43 711.895 150.272 711.681 150.157C711.47 150.042 711.191 149.985 710.845 149.985H709.536V156H708.493ZM714.237 156V149.091H716.7C717.235 149.091 717.68 149.183 718.033 149.368C718.388 149.552 718.653 149.807 718.829 150.133C719.004 150.457 719.092 150.832 719.092 151.257C719.092 151.68 719.003 152.052 718.825 152.373C718.65 152.693 718.385 152.941 718.029 153.119C717.676 153.297 717.232 153.385 716.697 153.385H714.831V152.488H716.602C716.94 152.488 717.214 152.44 717.425 152.343C717.639 152.246 717.795 152.106 717.894 151.921C717.993 151.737 718.043 151.515 718.043 151.257C718.043 150.996 717.992 150.77 717.891 150.579C717.792 150.387 717.636 150.241 717.422 150.14C717.211 150.037 716.933 149.985 716.589 149.985H715.28V156H714.237ZM717.648 152.883L719.355 156H718.168L716.494 152.883H717.648ZM722.21 156V149.091H724.672C725.21 149.091 725.655 149.189 726.008 149.384C726.361 149.58 726.626 149.848 726.801 150.187C726.977 150.525 727.064 150.905 727.064 151.328C727.064 151.753 726.975 152.135 726.798 152.475C726.622 152.812 726.357 153.08 726.002 153.278C725.648 153.473 725.204 153.571 724.669 153.571H722.975V152.687H724.575C724.914 152.687 725.19 152.629 725.401 152.512C725.612 152.393 725.768 152.231 725.867 152.026C725.966 151.821 726.015 151.588 726.015 151.328C726.015 151.067 725.966 150.835 725.867 150.633C725.768 150.43 725.611 150.272 725.398 150.157C725.186 150.042 724.907 149.985 724.561 149.985H723.252V156H722.21ZM733.955 152.545C733.955 153.283 733.82 153.917 733.551 154.448C733.281 154.977 732.911 155.384 732.441 155.669C731.973 155.953 731.441 156.094 730.845 156.094C730.247 156.094 729.713 155.953 729.243 155.669C728.775 155.384 728.406 154.976 728.136 154.445C727.866 153.914 727.731 153.281 727.731 152.545C727.731 151.808 727.866 151.175 728.136 150.646C728.406 150.115 728.775 149.708 729.243 149.425C729.713 149.139 730.247 148.996 730.845 148.996C731.441 148.996 731.973 149.139 732.441 149.425C732.911 149.708 733.281 150.115 733.551 150.646C733.82 151.175 733.955 151.808 733.955 152.545ZM732.923 152.545C732.923 151.983 732.832 151.51 732.65 151.125C732.47 150.738 732.222 150.446 731.908 150.248C731.595 150.048 731.241 149.948 730.845 149.948C730.447 149.948 730.092 150.048 729.779 150.248C729.466 150.446 729.219 150.738 729.037 151.125C728.857 151.51 728.767 151.983 728.767 152.545C728.767 153.108 728.857 153.582 729.037 153.969C729.219 154.354 729.466 154.646 729.779 154.846C730.092 155.044 730.447 155.143 730.845 155.143C731.241 155.143 731.595 155.044 731.908 154.846C732.222 154.646 732.47 154.354 732.65 153.969C732.832 153.582 732.923 153.108 732.923 152.545ZM734.923 156V149.091H737.385C737.921 149.091 738.365 149.183 738.718 149.368C739.073 149.552 739.339 149.807 739.514 150.133C739.689 150.457 739.777 150.832 739.777 151.257C739.777 151.68 739.688 152.052 739.511 152.373C739.335 152.693 739.07 152.941 738.714 153.119C738.361 153.297 737.917 153.385 737.382 153.385H735.516V152.488H737.287C737.625 152.488 737.899 152.44 738.111 152.343C738.324 152.246 738.481 152.106 738.58 151.921C738.678 151.737 738.728 151.515 738.728 151.257C738.728 150.996 738.677 150.77 738.576 150.579C738.477 150.387 738.321 150.241 738.107 150.14C737.896 150.037 737.618 149.985 737.274 149.985H735.965V156H734.923ZM738.333 152.883L740.04 156H738.853L737.179 152.883H738.333ZM740.372 149.988V149.091H745.72V149.988H743.564V156H742.525V149.988H740.372ZM746.569 156V149.091H750.9V149.988H747.611V152.093H750.674V152.987H747.611V155.103H750.941V156H746.569ZM756.379 156H754.142V149.091H756.449C757.126 149.091 757.708 149.229 758.194 149.506C758.679 149.78 759.052 150.175 759.31 150.69C759.571 151.203 759.702 151.818 759.702 152.535C759.702 153.255 759.57 153.874 759.307 154.391C759.046 154.908 758.668 155.306 758.173 155.585C757.679 155.862 757.08 156 756.379 156ZM755.184 155.089H756.321C756.847 155.089 757.285 154.99 757.634 154.792C757.982 154.592 758.243 154.303 758.416 153.925C758.589 153.545 758.676 153.082 758.676 152.535C758.676 151.993 758.589 151.533 758.416 151.156C758.245 150.778 757.99 150.491 757.65 150.295C757.311 150.1 756.889 150.002 756.385 150.002H755.184V155.089ZM760.665 156V149.091H764.997V149.988H761.708V152.093H764.771V152.987H761.708V155.103H765.037V156H760.665ZM773.977 151.338H772.925C772.884 151.113 772.809 150.915 772.698 150.744C772.588 150.573 772.453 150.428 772.294 150.309C772.134 150.19 771.955 150.1 771.757 150.039C771.562 149.978 771.354 149.948 771.133 149.948C770.735 149.948 770.379 150.048 770.064 150.248C769.751 150.448 769.504 150.742 769.322 151.129C769.142 151.515 769.052 151.988 769.052 152.545C769.052 153.108 769.142 153.582 769.322 153.969C769.504 154.356 769.752 154.648 770.067 154.846C770.382 155.044 770.736 155.143 771.13 155.143C771.348 155.143 771.555 155.114 771.751 155.055C771.948 154.995 772.127 154.906 772.287 154.789C772.447 154.672 772.582 154.529 772.692 154.36C772.804 154.19 772.882 153.994 772.925 153.773L773.977 153.777C773.921 154.116 773.812 154.429 773.65 154.715C773.49 154.998 773.284 155.243 773.032 155.45C772.783 155.655 772.497 155.813 772.176 155.926C771.854 156.038 771.503 156.094 771.123 156.094C770.525 156.094 769.992 155.953 769.524 155.669C769.056 155.384 768.687 154.976 768.417 154.445C768.15 153.914 768.016 153.281 768.016 152.545C768.016 151.808 768.151 151.175 768.421 150.646C768.691 150.115 769.06 149.708 769.527 149.425C769.995 149.139 770.527 148.996 771.123 148.996C771.49 148.996 771.831 149.049 772.149 149.155C772.468 149.258 772.755 149.411 773.009 149.614C773.263 149.814 773.473 150.059 773.64 150.349C773.806 150.637 773.919 150.967 773.977 151.338ZM774.892 156V149.091H775.934V155.103H779.065V156H774.892ZM780.964 149.091V156H779.922V149.091H780.964ZM787.888 151.338H786.836C786.795 151.113 786.72 150.915 786.61 150.744C786.499 150.573 786.365 150.428 786.205 150.309C786.045 150.19 785.866 150.1 785.668 150.039C785.473 149.978 785.265 149.948 785.044 149.948C784.646 149.948 784.29 150.048 783.975 150.248C783.662 150.448 783.415 150.742 783.233 151.129C783.053 151.515 782.963 151.988 782.963 152.545C782.963 153.108 783.053 153.582 783.233 153.969C783.415 154.356 783.663 154.648 783.978 154.846C784.293 155.044 784.647 155.143 785.041 155.143C785.259 155.143 785.466 155.114 785.662 155.055C785.86 154.995 786.038 154.906 786.198 154.789C786.358 154.672 786.493 154.529 786.603 154.36C786.715 154.19 786.793 153.994 786.836 153.773L787.888 153.777C787.832 154.116 787.723 154.429 787.561 154.715C787.401 154.998 787.196 155.243 786.944 155.45C786.694 155.655 786.408 155.813 786.087 155.926C785.765 156.038 785.414 156.094 785.034 156.094C784.436 156.094 783.903 155.953 783.435 155.669C782.967 155.384 782.598 154.976 782.329 154.445C782.061 153.914 781.927 153.281 781.927 152.545C781.927 151.808 782.062 151.175 782.332 150.646C782.602 150.115 782.971 149.708 783.439 149.425C783.906 149.139 784.438 148.996 785.034 148.996C785.401 148.996 785.743 149.049 786.06 149.155C786.379 149.258 786.666 149.411 786.92 149.614C787.174 149.814 787.384 150.059 787.551 150.349C787.717 150.637 787.83 150.967 787.888 151.338ZM788.803 156V149.091H789.846V152.093H793.29V149.091H794.336V156H793.29V152.987H789.846V156H788.803ZM794.988 149.091H796.173L797.977 152.232H798.052L799.856 149.091H801.041L798.534 153.288V156H797.495V153.288L794.988 149.091Z" fill="#FEFFC1"/>
<rect x="198.5" y="1" width="63" height="25" fill="#E4E4E4" stroke="black" stroke-width="2"/>
<path d="M212.358 10.2031C212.275 9.46354 211.931 8.89062 211.327 8.48437C210.723 8.07292 209.962 7.86719 209.046 7.86719C208.39 7.86719 207.822 7.97135 207.343 8.17969C206.864 8.38281 206.491 8.66406 206.226 9.02344C205.965 9.3776 205.835 9.78125 205.835 10.2344C205.835 10.6146 205.923 10.9427 206.101 11.2187C206.283 11.4948 206.52 11.7266 206.811 11.9141C207.108 12.0964 207.426 12.25 207.765 12.375C208.103 12.4948 208.429 12.5937 208.741 12.6719L210.304 13.0781C210.814 13.2031 211.337 13.3724 211.874 13.5859C212.41 13.7995 212.908 14.0807 213.366 14.4297C213.824 14.7786 214.194 15.2109 214.476 15.7266C214.762 16.2422 214.905 16.8594 214.905 17.5781C214.905 18.4844 214.671 19.2891 214.202 19.9922C213.739 20.6953 213.064 21.25 212.179 21.6562C211.298 22.0625 210.233 22.2656 208.983 22.2656C207.785 22.2656 206.749 22.0755 205.874 21.6953C204.999 21.3151 204.314 20.776 203.819 20.0781C203.324 19.375 203.051 18.5417 202.999 17.5781H205.421C205.468 18.1562 205.655 18.638 205.983 19.0234C206.317 19.4036 206.741 19.6875 207.257 19.875C207.778 20.0573 208.348 20.1484 208.968 20.1484C209.65 20.1484 210.257 20.0417 210.788 19.8281C211.324 19.6094 211.746 19.3073 212.054 18.9219C212.361 18.5312 212.515 18.0755 212.515 17.5547C212.515 17.0807 212.379 16.6927 212.108 16.3906C211.843 16.0885 211.481 15.8385 211.022 15.6406C210.569 15.4427 210.056 15.2682 209.483 15.1172L207.593 14.6016C206.311 14.2526 205.296 13.7396 204.546 13.0625C203.801 12.3854 203.429 11.4896 203.429 10.375C203.429 9.45312 203.679 8.64844 204.179 7.96094C204.679 7.27344 205.356 6.73958 206.21 6.35938C207.064 5.97396 208.028 5.78125 209.101 5.78125C210.184 5.78125 211.14 5.97135 211.968 6.35156C212.801 6.73177 213.457 7.25521 213.936 7.92187C214.416 8.58333 214.666 9.34375 214.686 10.2031H212.358ZM226.297 10.2031C226.213 9.46354 225.869 8.89062 225.265 8.48437C224.661 8.07292 223.901 7.86719 222.984 7.86719C222.328 7.86719 221.76 7.97135 221.281 8.17969C220.802 8.38281 220.429 8.66406 220.164 9.02344C219.903 9.3776 219.773 9.78125 219.773 10.2344C219.773 10.6146 219.862 10.9427 220.039 11.2187C220.221 11.4948 220.458 11.7266 220.75 11.9141C221.047 12.0964 221.364 12.25 221.703 12.375C222.041 12.4948 222.367 12.5937 222.679 12.6719L224.242 13.0781C224.752 13.2031 225.276 13.3724 225.812 13.5859C226.349 13.7995 226.846 14.0807 227.304 14.4297C227.763 14.7786 228.132 15.2109 228.414 15.7266C228.7 16.2422 228.843 16.8594 228.843 17.5781C228.843 18.4844 228.609 19.2891 228.14 19.9922C227.677 20.6953 227.002 21.25 226.117 21.6562C225.237 22.0625 224.172 22.2656 222.922 22.2656C221.724 22.2656 220.687 22.0755 219.812 21.6953C218.937 21.3151 218.252 20.776 217.757 20.0781C217.263 19.375 216.989 18.5417 216.937 17.5781H219.359C219.406 18.1562 219.593 18.638 219.922 19.0234C220.255 19.4036 220.679 19.6875 221.195 19.875C221.716 20.0573 222.286 20.1484 222.906 20.1484C223.588 20.1484 224.195 20.0417 224.726 19.8281C225.263 19.6094 225.685 19.3073 225.992 18.9219C226.299 18.5312 226.453 18.0755 226.453 17.5547C226.453 17.0807 226.317 16.6927 226.047 16.3906C225.781 16.0885 225.419 15.8385 224.961 15.6406C224.507 15.4427 223.994 15.2682 223.422 15.1172L221.531 14.6016C220.25 14.2526 219.234 13.7396 218.484 13.0625C217.739 12.3854 217.367 11.4896 217.367 10.375C217.367 9.45312 217.617 8.64844 218.117 7.96094C218.617 7.27344 219.294 6.73958 220.148 6.35938C221.002 5.97396 221.966 5.78125 223.039 5.78125C224.122 5.78125 225.078 5.97135 225.906 6.35156C226.739 6.73177 227.395 7.25521 227.875 7.92187C228.354 8.58333 228.604 9.34375 228.625 10.2031H226.297ZM236.86 22.2656C235.625 22.2604 234.571 21.9349 233.696 21.2891C232.821 20.6432 232.151 19.7031 231.688 18.4687C231.224 17.2344 230.993 15.7474 230.993 14.0078C230.993 12.2734 231.224 10.7917 231.688 9.5625C232.157 8.33333 232.828 7.39583 233.703 6.75C234.584 6.10417 235.636 5.78125 236.86 5.78125C238.084 5.78125 239.133 6.10677 240.008 6.75781C240.883 7.40365 241.552 8.34115 242.016 9.57031C242.485 10.7943 242.719 12.2734 242.719 14.0078C242.719 15.7526 242.487 17.2422 242.024 18.4766C241.56 19.7057 240.891 20.6458 240.016 21.2969C239.141 21.9427 238.089 22.2656 236.86 22.2656ZM236.86 20.1797C237.943 20.1797 238.789 19.651 239.399 18.5937C240.013 17.5365 240.321 16.0078 240.321 14.0078C240.321 12.6797 240.18 11.5573 239.899 10.6406C239.623 9.71875 239.224 9.02083 238.703 8.54687C238.188 8.06771 237.573 7.82812 236.86 7.82812C235.782 7.82812 234.935 8.35937 234.321 9.42187C233.706 10.4844 233.396 12.013 233.391 14.0078C233.391 15.3411 233.529 16.4688 233.805 17.3906C234.086 18.3073 234.485 19.0026 235 19.4766C235.516 19.9453 236.136 20.1797 236.86 20.1797ZM244.935 18.875V16.9219L251.849 6H253.388V8.875H252.411L247.466 16.7031V16.8281H256.942V18.875H244.935ZM252.521 22V18.2812L252.536 17.3906V6H254.825V22H252.521Z" fill="black"/>
<rect x="608.5" y="1" width="63" height="25" fill="#E4E4E4" stroke="black" stroke-width="2"/>
<path d="M622.734 10.2031C622.651 9.46354 622.307 8.89062 621.703 8.48437C621.099 8.07292 620.338 7.86719 619.422 7.86719C618.766 7.86719 618.198 7.97135 617.719 8.17969C617.24 8.38281 616.867 8.66406 616.601 9.02344C616.341 9.3776 616.211 9.78125 616.211 10.2344C616.211 10.6146 616.299 10.9427 616.476 11.2187C616.659 11.4948 616.896 11.7266 617.187 11.9141C617.484 12.0964 617.802 12.25 618.141 12.375C618.479 12.4948 618.805 12.5937 619.117 12.6719L620.68 13.0781C621.19 13.2031 621.713 13.3724 622.25 13.5859C622.786 13.7995 623.284 14.0807 623.742 14.4297C624.2 14.7786 624.57 15.2109 624.851 15.7266C625.138 16.2422 625.281 16.8594 625.281 17.5781C625.281 18.4844 625.047 19.2891 624.578 19.9922C624.115 20.6953 623.44 21.25 622.555 21.6562C621.674 22.0625 620.609 22.2656 619.359 22.2656C618.161 22.2656 617.125 22.0755 616.25 21.6953C615.375 21.3151 614.69 20.776 614.195 20.0781C613.7 19.375 613.427 18.5417 613.375 17.5781H615.797C615.844 18.1562 616.031 18.638 616.359 19.0234C616.693 19.4036 617.117 19.6875 617.633 19.875C618.154 20.0573 618.724 20.1484 619.344 20.1484C620.026 20.1484 620.633 20.0417 621.164 19.8281C621.7 19.6094 622.122 19.3073 622.43 18.9219C622.737 18.5312 622.891 18.0755 622.891 17.5547C622.891 17.0807 622.755 16.6927 622.484 16.3906C622.219 16.0885 621.857 15.8385 621.398 15.6406C620.945 15.4427 620.432 15.2682 619.859 15.1172L617.969 14.6016C616.687 14.2526 615.672 13.7396 614.922 13.0625C614.177 12.3854 613.805 11.4896 613.805 10.375C613.805 9.45312 614.055 8.64844 614.555 7.96094C615.055 7.27344 615.732 6.73958 616.586 6.35938C617.44 5.97396 618.404 5.78125 619.476 5.78125C620.56 5.78125 621.516 5.97135 622.344 6.35156C623.177 6.73177 623.833 7.25521 624.312 7.92187C624.792 8.58333 625.042 9.34375 625.062 10.2031H622.734ZM636.673 10.2031C636.589 9.46354 636.245 8.89062 635.641 8.48437C635.037 8.07292 634.277 7.86719 633.36 7.86719C632.704 7.86719 632.136 7.97135 631.657 8.17969C631.178 8.38281 630.805 8.66406 630.54 9.02344C630.279 9.3776 630.149 9.78125 630.149 10.2344C630.149 10.6146 630.238 10.9427 630.415 11.2187C630.597 11.4948 630.834 11.7266 631.126 11.9141C631.423 12.0964 631.74 12.25 632.079 12.375C632.417 12.4948 632.743 12.5937 633.055 12.6719L634.618 13.0781C635.128 13.2031 635.652 13.3724 636.188 13.5859C636.725 13.7995 637.222 14.0807 637.68 14.4297C638.139 14.7786 638.508 15.2109 638.79 15.7266C639.076 16.2422 639.219 16.8594 639.219 17.5781C639.219 18.4844 638.985 19.2891 638.516 19.9922C638.053 20.6953 637.378 21.25 636.493 21.6562C635.613 22.0625 634.548 22.2656 633.298 22.2656C632.1 22.2656 631.063 22.0755 630.188 21.6953C629.313 21.3151 628.628 20.776 628.133 20.0781C627.639 19.375 627.365 18.5417 627.313 17.5781H629.735C629.782 18.1562 629.969 18.638 630.298 19.0234C630.631 19.4036 631.055 19.6875 631.571 19.875C632.092 20.0573 632.662 20.1484 633.282 20.1484C633.964 20.1484 634.571 20.0417 635.102 19.8281C635.639 19.6094 636.061 19.3073 636.368 18.9219C636.675 18.5312 636.829 18.0755 636.829 17.5547C636.829 17.0807 636.693 16.6927 636.423 16.3906C636.157 16.0885 635.795 15.8385 635.337 15.6406C634.883 15.4427 634.37 15.2682 633.798 15.1172L631.907 14.6016C630.626 14.2526 629.61 13.7396 628.86 13.0625C628.115 12.3854 627.743 11.4896 627.743 10.375C627.743 9.45312 627.993 8.64844 628.493 7.96094C628.993 7.27344 629.67 6.73958 630.524 6.35938C631.378 5.97396 632.342 5.78125 633.415 5.78125C634.498 5.78125 635.454 5.97135 636.282 6.35156C637.115 6.73177 637.771 7.25521 638.251 7.92187C638.73 8.58333 638.98 9.34375 639.001 10.2031H636.673ZM647.236 22.2656C646.001 22.2604 644.947 21.9349 644.072 21.2891C643.197 20.6432 642.527 19.7031 642.064 18.4687C641.6 17.2344 641.369 15.7474 641.369 14.0078C641.369 12.2734 641.6 10.7917 642.064 9.5625C642.533 8.33333 643.204 7.39583 644.079 6.75C644.96 6.10417 646.012 5.78125 647.236 5.78125C648.46 5.78125 649.509 6.10677 650.384 6.75781C651.259 7.40365 651.928 8.34115 652.392 9.57031C652.861 10.7943 653.095 12.2734 653.095 14.0078C653.095 15.7526 652.863 17.2422 652.4 18.4766C651.936 19.7057 651.267 20.6458 650.392 21.2969C649.517 21.9427 648.465 22.2656 647.236 22.2656ZM647.236 20.1797C648.319 20.1797 649.165 19.651 649.775 18.5937C650.389 17.5365 650.697 16.0078 650.697 14.0078C650.697 12.6797 650.556 11.5573 650.275 10.6406C649.999 9.71875 649.6 9.02083 649.079 8.54687C648.564 8.06771 647.949 7.82812 647.236 7.82812C646.158 7.82812 645.311 8.35937 644.697 9.42187C644.082 10.4844 643.772 12.013 643.767 14.0078C643.767 15.3411 643.905 16.4688 644.181 17.3906C644.462 18.3073 644.861 19.0026 645.376 19.4766C645.892 19.9453 646.512 20.1797 647.236 20.1797ZM660.928 22.2187C659.949 22.2187 659.068 22.0312 658.287 21.6562C657.511 21.276 656.891 20.7552 656.428 20.0938C655.964 19.4323 655.717 18.6771 655.686 17.8281H658.029C658.087 18.5156 658.391 19.0807 658.943 19.5234C659.496 19.9661 660.157 20.1875 660.928 20.1875C661.542 20.1875 662.087 20.0469 662.561 19.7656C663.04 19.4792 663.415 19.0859 663.686 18.5859C663.962 18.0859 664.1 17.5156 664.1 16.875C664.1 16.224 663.959 15.6432 663.678 15.1328C663.397 14.6224 663.009 14.2214 662.514 13.9297C662.024 13.638 661.462 13.4896 660.826 13.4844C660.342 13.4844 659.855 13.5677 659.365 13.7344C658.876 13.901 658.48 14.1198 658.178 14.3906L655.967 14.0625L656.865 6H665.662V8.07031H658.873L658.365 12.5469H658.459C658.772 12.2448 659.186 11.9922 659.701 11.7891C660.222 11.5859 660.779 11.4844 661.373 11.4844C662.347 11.4844 663.214 11.7161 663.975 12.1797C664.74 12.6432 665.342 13.276 665.779 14.0781C666.222 14.875 666.441 15.7917 666.436 16.8281C666.441 17.8646 666.206 18.7891 665.732 19.6016C665.264 20.4141 664.613 21.0547 663.779 21.5234C662.951 21.987 662.001 22.2187 660.928 22.2187Z" fill="black"/>






<path d="M1567.25 188.5H1565.44V183.409H1567.26C1567.77 183.409 1568.21 183.511 1568.58 183.715C1568.95 183.917 1569.24 184.208 1569.44 184.587C1569.64 184.967 1569.74 185.421 1569.74 185.95C1569.74 186.48 1569.64 186.936 1569.44 187.317C1569.24 187.698 1568.95 187.99 1568.58 188.194C1568.21 188.398 1567.76 188.5 1567.25 188.5ZM1566.52 187.578H1567.2C1567.52 187.578 1567.79 187.521 1568 187.409C1568.22 187.294 1568.39 187.118 1568.5 186.879C1568.61 186.639 1568.66 186.329 1568.66 185.95C1568.66 185.573 1568.61 185.266 1568.5 185.027C1568.39 184.789 1568.22 184.613 1568.01 184.5C1567.79 184.388 1567.52 184.331 1567.2 184.331H1566.52V187.578ZM1570.29 188.5V183.409H1571.37V185.51H1573.55V183.409H1574.62V188.5H1573.55V186.397H1571.37V188.5H1570.29ZM1575.07 184.297V183.409H1579.25V184.297H1577.7V188.5H1576.63V184.297H1575.07Z" fill="#A7A7A7"/>
<path d="M820.746 188.5H818.941V183.409H820.761C821.273 183.409 821.714 183.511 822.083 183.715C822.453 183.917 822.737 184.208 822.936 184.587C823.136 184.967 823.237 185.421 823.237 185.95C823.237 186.48 823.136 186.936 822.936 187.317C822.737 187.698 822.451 187.99 822.078 188.194C821.707 188.398 821.263 188.5 820.746 188.5ZM820.018 187.578H820.701C821.019 187.578 821.287 187.521 821.504 187.409C821.723 187.294 821.887 187.118 821.996 186.879C822.107 186.639 822.163 186.329 822.163 185.95C822.163 185.573 822.107 185.266 821.996 185.027C821.887 184.789 821.724 184.613 821.507 184.5C821.29 184.388 821.022 184.331 820.704 184.331H820.018V187.578ZM823.789 188.5V183.409H824.865V185.51H827.05V183.409H828.124V188.5H827.05V186.397H824.865V188.5H823.789ZM828.573 184.297V183.409H832.754V184.297H831.195V188.5H830.131V184.297H828.573Z" fill="#A7A7A7"/>
<path d="M1307.75 188.5H1305.94V183.409H1307.76C1308.27 183.409 1308.71 183.511 1309.08 183.715C1309.45 183.917 1309.74 184.208 1309.94 184.587C1310.14 184.967 1310.24 185.421 1310.24 185.95C1310.24 186.48 1310.14 186.936 1309.94 187.317C1309.74 187.698 1309.45 187.99 1309.08 188.194C1308.71 188.398 1308.26 188.5 1307.75 188.5ZM1307.02 187.578H1307.7C1308.02 187.578 1308.29 187.521 1308.5 187.409C1308.72 187.294 1308.89 187.118 1309 186.879C1309.11 186.639 1309.16 186.329 1309.16 185.95C1309.16 185.573 1309.11 185.266 1309 185.027C1308.89 184.789 1308.72 184.613 1308.51 184.5C1308.29 184.388 1308.02 184.331 1307.7 184.331H1307.02V187.578ZM1310.79 188.5V183.409H1311.87V185.51H1314.05V183.409H1315.12V188.5H1314.05V186.397H1311.87V188.5H1310.79ZM1315.57 184.297V183.409H1319.75V184.297H1318.2V188.5H1317.13V184.297H1315.57Z" fill="#A7A7A7"/>
<path d="M1571.06 167V161.909H1573.07C1573.46 161.909 1573.79 161.983 1574.06 162.13C1574.33 162.276 1574.54 162.479 1574.68 162.739C1574.82 162.998 1574.89 163.296 1574.89 163.634C1574.89 163.972 1574.82 164.271 1574.68 164.529C1574.53 164.788 1574.32 164.989 1574.04 165.133C1573.77 165.277 1573.43 165.349 1573.04 165.349H1571.76V164.487H1572.87C1573.08 164.487 1573.25 164.451 1573.38 164.38C1573.52 164.307 1573.62 164.207 1573.68 164.079C1573.75 163.95 1573.79 163.802 1573.79 163.634C1573.79 163.465 1573.75 163.318 1573.68 163.192C1573.62 163.064 1573.52 162.966 1573.38 162.896C1573.24 162.825 1573.07 162.789 1572.86 162.789H1572.14V167H1571.06ZM1575.35 167V161.909H1577.36C1577.74 161.909 1578.07 161.978 1578.34 162.115C1578.62 162.251 1578.82 162.444 1578.97 162.695C1579.11 162.943 1579.18 163.236 1579.18 163.572C1579.18 163.91 1579.11 164.201 1578.96 164.445C1578.82 164.687 1578.61 164.872 1578.33 165.001C1578.05 165.131 1577.72 165.195 1577.33 165.195H1575.99V164.33H1577.16C1577.36 164.33 1577.53 164.302 1577.67 164.246C1577.8 164.189 1577.9 164.105 1577.97 163.992C1578.04 163.879 1578.07 163.739 1578.07 163.572C1578.07 163.403 1578.04 163.261 1577.97 163.145C1577.9 163.029 1577.8 162.941 1577.67 162.881C1577.53 162.82 1577.36 162.789 1577.15 162.789H1576.43V167H1575.35ZM1578.1 164.683L1579.36 167H1578.18L1576.94 164.683H1578.1Z" fill="#A7A7A7"/>
<path d="M824.561 167V161.909H826.57C826.956 161.909 827.285 161.983 827.557 162.13C827.829 162.276 828.036 162.479 828.178 162.739C828.323 162.998 828.395 163.296 828.395 163.634C828.395 163.972 828.322 164.271 828.176 164.529C828.03 164.788 827.819 164.989 827.542 165.133C827.267 165.277 826.934 165.349 826.543 165.349H825.262V164.487H826.369C826.576 164.487 826.747 164.451 826.881 164.38C827.017 164.307 827.118 164.207 827.184 164.079C827.252 163.95 827.286 163.802 827.286 163.634C827.286 163.465 827.252 163.318 827.184 163.192C827.118 163.064 827.017 162.966 826.881 162.896C826.745 162.825 826.573 162.789 826.364 162.789H825.638V167H824.561ZM828.849 167V161.909H830.857C831.242 161.909 831.57 161.978 831.842 162.115C832.115 162.251 832.323 162.444 832.466 162.695C832.61 162.943 832.682 163.236 832.682 163.572C832.682 163.91 832.609 164.201 832.463 164.445C832.317 164.687 832.106 164.872 831.829 165.001C831.554 165.131 831.221 165.195 830.83 165.195H829.485V164.33H830.656C830.861 164.33 831.032 164.302 831.168 164.246C831.304 164.189 831.405 164.105 831.471 163.992C831.539 163.879 831.573 163.739 831.573 163.572C831.573 163.403 831.539 163.261 831.471 163.145C831.405 163.029 831.303 162.941 831.165 162.881C831.03 162.82 830.858 162.789 830.651 162.789H829.925V167H828.849ZM831.598 164.683L832.863 167H831.675L830.437 164.683H831.598Z" fill="#A7A7A7"/>
<path d="M1311.56 167V161.909H1313.57C1313.96 161.909 1314.29 161.983 1314.56 162.13C1314.83 162.276 1315.04 162.479 1315.18 162.739C1315.32 162.998 1315.39 163.296 1315.39 163.634C1315.39 163.972 1315.32 164.271 1315.18 164.529C1315.03 164.788 1314.82 164.989 1314.54 165.133C1314.27 165.277 1313.93 165.349 1313.54 165.349H1312.26V164.487H1313.37C1313.58 164.487 1313.75 164.451 1313.88 164.38C1314.02 164.307 1314.12 164.207 1314.18 164.079C1314.25 163.95 1314.29 163.802 1314.29 163.634C1314.29 163.465 1314.25 163.318 1314.18 163.192C1314.12 163.064 1314.02 162.966 1313.88 162.896C1313.74 162.825 1313.57 162.789 1313.36 162.789H1312.64V167H1311.56ZM1315.85 167V161.909H1317.86C1318.24 161.909 1318.57 161.978 1318.84 162.115C1319.12 162.251 1319.32 162.444 1319.47 162.695C1319.61 162.943 1319.68 163.236 1319.68 163.572C1319.68 163.91 1319.61 164.201 1319.46 164.445C1319.32 164.687 1319.11 164.872 1318.83 165.001C1318.55 165.131 1318.22 165.195 1317.83 165.195H1316.49V164.33H1317.66C1317.86 164.33 1318.03 164.302 1318.17 164.246C1318.3 164.189 1318.4 164.105 1318.47 163.992C1318.54 163.879 1318.57 163.739 1318.57 163.572C1318.57 163.403 1318.54 163.261 1318.47 163.145C1318.4 163.029 1318.3 162.941 1318.17 162.881C1318.03 162.82 1317.86 162.789 1317.65 162.789H1316.93V167H1315.85ZM1318.6 164.683L1319.86 167H1318.68L1317.44 164.683H1318.6Z" fill="#A7A7A7"/>





<path d="M0 84H400" stroke="#FFDF35" stroke-width="2.5" id="ss04"/>

<path d="M25 84V71.5" stroke="#FFDF35" stroke-width="2.5" id="ss04a"/>
<path d="M77 84V71.5" stroke="#FFDF35" stroke-width="2.5" id="ss04b"/>
<path d="M166.5 84V71.5" stroke="#FFDF35" stroke-width="2.5" id="ss04c"/>
<path d="M268.5 84V71.5" stroke="#FFDF35" stroke-width="2.5" id="ss04d"/>
<path d="M358 84V71.5" stroke="#FFDF35" stroke-width="2.5" id="ss04e"/>

<path d="M418 84H833" stroke="#FFDF35" stroke-width="2.5" id="ss05"/>

<path d="M472.5 84V71.5" stroke="#FFDF35" stroke-width="2.5" id="ss05a"/>
<path d="M599.5 84V71.5" stroke="#FFDF35" stroke-width="2.5" id="ss05b"/>
<path d="M701.5 84V71.5" stroke="#FFDF35" stroke-width="2.5" id="ss05c"/>
<path d="M791 84V71.5" stroke="#FFDF35" stroke-width="2.5" id="ss05d"/>

<path d="M851 84H1320" stroke="#FFDF35" stroke-width="2.5" id="ss06"/>

<path d="M905.5 84V71.5" stroke="#FFDF35" stroke-width="2.5" id="ss06a"/>
<path d="M1007.5 84V71.5" stroke="#FFDF35" stroke-width="2.5" id="ss06b"/>
<path d="M1097 84V71.5" stroke="#FFDF35" stroke-width="2.5" id="ss06c"/>
<path d="M1186.5 84V71.5" stroke="#FFDF35" stroke-width="2.5" id="ss06d"/>
<path d="M1251 84V71.5" stroke="#FFDF35" stroke-width="2.5" id="ss06e"/>
<path d="M1303 84V71.5" stroke="#FFDF35" stroke-width="2.5" id="ss06f"/>

<path d="M1338 84H1576" stroke="#FFDF35" stroke-width="2.5" id="ss07"/>

<path d="M1392.5 84V71.5" stroke="#FFDF35" stroke-width="2.5" id="ss07a"/>
<path d="M1494.5 84V71.5" stroke="#FFDF35" stroke-width="2.5" id="ss07b"/>
<path d="M1559 84V71.5" stroke="#FFDF35" stroke-width="2.5" id="ss07c"/>





<path d="M0 46.5H50" stroke="#FFDF35" stroke-width="2.5" id="ce101a"/>
<path d="M25 59V46.5" stroke="#FFDF35" stroke-width="2.5" id="ce101b"/>
<path d="M77 59V46.5" stroke="#FFDF35" stroke-width="2.5" id="ce201a"/>
<path d="M52 46.5H102" stroke="#FFDF35" stroke-width="2.5" id="ce201b"/>
<path d="M166.5 59V46.5" stroke="#FFDF35" stroke-width="2.5" id="ce301a"/>
<path d="M104 46.5H229" stroke="#FFDF35" stroke-width="2.5" id="ce301b"/>
<path d="M268.5 59V46.5" stroke="#FFDF35" stroke-width="2.5" id="ce401a"/>
<path d="M231 46.5H306" stroke="#FFDF35" stroke-width="2.5" id="ce401b"/>
<path d="M358 59V46.5" stroke="#FFDF35" stroke-width="2.5" id="ce501a"/>
<path d="M308 46.5H408" stroke="#FFDF35" stroke-width="2.5" id="ce501b"/>
<path d="M472.5 59V46.5" stroke="#FFDF35" stroke-width="2.5" id="ce102a"/>
<path d="M410 46.5H535" stroke="#FFDF35" stroke-width="2.5" id="ce102b"/>
<path d="M599.5 59V46.5" stroke="#FFDF35" stroke-width="2.5" id="ce202a"/>
<path d="M537 46.5H662" stroke="#FFDF35" stroke-width="2.5" id="ce202b"/>
<path d="M701.5 59V46.5" stroke="#FFDF35" stroke-width="2.5" id="ce302a"/>
<path d="M664 46.5H739" stroke="#FFDF35" stroke-width="2.5" id="ce302b"/>
<path d="M791 59V46.5" stroke="#FFDF35" stroke-width="2.5" id="ce402a"/>
<path d="M741 46.5H841" stroke="#FFDF35" stroke-width="2.5" id="ce402b"/>
<path d="M905.5 59V46.5" stroke="#FFDF35" stroke-width="2.5" id="ce603a"/>
<path d="M1007.5 59V46.5" stroke="#FFDF35" stroke-width="2.5" id="ce503a"/>
<path d="M1097 59V46.5" stroke="#FFDF35" stroke-width="2.5" id="ce403a"/>
<path d="M1186.5 59V46.5" stroke="#FFDF35" stroke-width="2.5" id="ce303a"/>
<path d="M1251 59V46.5" stroke="#FFDF35" stroke-width="2.5" id="ce203a"/>
<path d="M1303 59V46.5" stroke="#FFDF35" stroke-width="2.5" id="ce103a"/>
<path d="M843 46.5H968" stroke="#FFDF35" stroke-width="2.5" id="ce603b"/>
<path d="M1330 46.5H1455" stroke="#FFDF35" stroke-width="2.5" id="ce204b"/>
<path d="M1047 46.5H1147" stroke="#FFDF35" stroke-width="2.5" id="ce303b"/>
<path d="M970 46.5H1045" stroke="#FFDF35" stroke-width="2.5" id="ce403b"/>
<path d="M1149 46.5H1224" stroke="#FFDF35" stroke-width="2.5" id="ce503b"/>
<path d="M1457 46.5H1532" stroke="#FFDF35" stroke-width="2.5" id="ce603b"/>
<path d="M1392.5 59V46.5" stroke="#FFDF35" stroke-width="2.5" id="ce203a"/>
<path d="M1494.5 59V46.5" stroke="#FFDF35" stroke-width="2.5" id="ce204a"/>
<path d="M1559 59V46.5" stroke="#FFDF35" stroke-width="2.5" id="ce104a"/>
<path d="M1226 46.5H1276" stroke="#FFDF35" stroke-width="2.5" id="ce203b"/>
<path d="M1534 46.5H1584" stroke="#FFDF35" stroke-width="2.5" id="ce204b"/>
<path d="M1278 46.5H1328" stroke="#FFDF35" stroke-width="2.5" id="ce103b"/>



<path d="M409 192V179.5" stroke="#DBFF00" stroke-width="4" id="dhtMSTO"/>
<path d="M663.5 192V179.5" stroke="#DBFF00" stroke-width="4" id="dhtGLA"/>
<path d="M379 134.5H391.5" stroke="#DBFF00" stroke-width="4" id="dvMSTOSS04"/>
<path d="M439 134.5H426.5" stroke="#DBFF00" stroke-width="4" id="dvMSTOSS05"/>
<path d="M633.5 134.5H646" stroke="#DBFF00" stroke-width="4" id="dvGLASS05"/>
<path d="M1588.5 192V179.5" stroke="#DBFF00" stroke-width="4" id="dhtLAB"/>
<path d="M842 192V179.5" stroke="#DBFF00" stroke-width="4" id="dhtPCLY"/>
<path d="M1329 192V179.5" stroke="#DBFF00" stroke-width="4" id="dhtPCA"/>
<path d="M1558.5 134.5H1571" stroke="#DBFF00" stroke-width="4" id="dvLABSS07"/>
<path d="M812 134.5H824.5" stroke="#DBFF00" stroke-width="4" id="dvPCLYSS05"/>
<path d="M1299 134.5H1311.5" stroke="#DBFF00" stroke-width="4" id="dvPCASS06"/>
<path d="M872.5 134.5H860" stroke="#DBFF00" stroke-width="4" id="dvPCLYSS06"/>
<path d="M1359.5 134.5H1347" stroke="#DBFF00" stroke-width="4" id="dvPCASS07"/>



<path d="M25 71.5V59" stroke="#DBFF00" stroke-width="4" id="r101"/>
<path d="M77 71.5V59" stroke="#DBFF00" stroke-width="4" id="r201"/>
<path d="M166.5 71.5V59" stroke="#DBFF00" stroke-width="4" id="r301"/>
<path d="M268.5 71.5V59" stroke="#DBFF00" stroke-width="4" id="r401"/>
<path d="M358 71.5V59" stroke="#DBFF00" stroke-width="4" id="r501"/>

<path d="M472.5 71.5V59" stroke="#DBFF00" stroke-width="4" id="r102"/>
<path d="M599.5 71.5V59" stroke="#DBFF00" stroke-width="4" id="r202"/>
<path d="M701.5 71.5V59" stroke="#DBFF00" stroke-width="4" id="r302"/>
<path d="M791 71.5V59" stroke="#DBFF00" stroke-width="4" id="r402"/>

<path d="M905.5 71.5V59" stroke="#DBFF00" stroke-width="4" id="r603"/>
<path d="M1007.5 71.5V59" stroke="#DBFF00" stroke-width="4" id="r503"/>
<path d="M1097 71.5V59" stroke="#DBFF00" stroke-width="4" id="r403"/>
<path d="M1186.5 71.5V59" stroke="#DBFF00" stroke-width="4" id="r303"/>
<path d="M1251 71.5V59" stroke="#DBFF00" stroke-width="4" id="r203"/>
<path d="M1303 71.5V59" stroke="#DBFF00" stroke-width="4" id="r103"/>

<path d="M1392.5 71.5V59" stroke="#DBFF00" stroke-width="4" id="r304"/>
<path d="M1494.5 71.5V59" stroke="#DBFF00" stroke-width="4" id="r204"/>
<path d="M1559 71.5V59" stroke="#DBFF00" stroke-width="4" id="r104"/>


<path d="M1320 84H1338" stroke="#DBFF00" stroke-width="14.5" stroke-dasharray="3.5 3.5" id="IITSS06SS07"/>
<path d="M1576 84H1594" stroke="#DBFF00" stroke-width="14.5" stroke-dasharray="3.5 3.5" id="IITSS07SS08"/>
<path d="M400 84H418" stroke="#DBFF00" stroke-width="14.5" stroke-dasharray="3.5 3.5" id="IITSS05SS06"/>


<path d="M405 167L409 161L412.5 167H405Z" fill="#DBFF00" id="prMSTO"/>
<path d="M405 160H412.5V161H405V160Z" fill="#DBFF00" id="prMSTO"/>
<path d="M659.5 167L663.5 161L667 167H659.5Z" fill="#DBFF00" id="prGLA"/>
<path d="M659.5 160H667V161H659.5V160Z" fill="#DBFF00" id="prGLA"/>
<path d="M1584.5 167L1588.5 161L1592 167H1584.5Z" fill="#DBFF00" id="prLAB"/>
<path d="M1584.5 160H1592V161H1584.5V160Z" fill="#DBFF00" id="prLAB"/>
<path d="M838 167L842 161L845.5 167H838Z" fill="#DBFF00" id="prPCLY"/>
<path d="M838 160H845.5V161H838V160Z" fill="#DBFF00" id="prPCLY"/>
<path d="M1325 167L1329 161L1332.5 167H1325Z" fill="#DBFF00" id="prPCA"/>
<path d="M1325 160H1332.5V161H1325V160Z" fill="#DBFF00" id="prPCA"/>



<path d="M409 204.5V192" stroke="#FFAE35" id="inMSTO"/>
<path d="M409 179.5V167" stroke="#FFAE35" id="outDHTMSTO"/>
<path d="M409 160V135" stroke="#FFAE35" id="outPRMSTO"/>
<path d="M391.5 134.5H409.5" stroke="#FFAE35" id="outPRMSTO"/>
<path d="M426.5 134.5H408.5" stroke="#FFAE35" id="outPRMSTO"/>
<path d="M361 135V85" stroke="#FFAE35" id="alimSS04MSTO"/>
<path d="M361 134.5H379" stroke="#FFAE35" id="alimSS04MSTO"/>
<path d="M457 135V85" stroke="#FFAE35" id="alimSS05MSTO"/>
<path d="M457 134.5H439" stroke="#FFAE35" id="alimSS05MSTO"/>
<path d="M663.5 204.5V192" stroke="#FFAE35" id="inGLA"/>
<path d="M663.5 179.5V167" stroke="#FFAE35" id="outDHTGLA"/>
<path d="M663.5 160V135" stroke="#FFAE35" id="outPRGLA"/>
<path d="M646 134.5H664" stroke="#FFAE35" id="outPRGLA"/>
<path d="M615.5 135V85" stroke="#FFAE35" id="alimSS05GLA"/>
<path d="M615.5 134.5H633.5" stroke="#FFAE35" id="alimSS05GLA"/>
<path d="M1540.5 135V85" stroke="#FFAE35"/>
<path d="M794 135V85" stroke="#FFAE35"/>
<path d="M1281 135V85" stroke="#FFAE35"/>
<path d="M890.5 135V85" stroke="#FFAE35"/>
<path d="M1377.5 135V85" stroke="#FFAE35"/>
<path d="M1588.5 160V135" stroke="#FFAE35"/>
<path d="M842 160V135" stroke="#FFAE35"/>
<path d="M1329 160V135" stroke="#FFAE35"/>
<path d="M1588.5 179.5V167" stroke="#FFAE35"/>
<path d="M842 179.5V167" stroke="#FFAE35"/>
<path d="M1329 179.5V167" stroke="#FFAE35"/>
<path d="M1588.5 204.5V192" stroke="#FFAE35"/>
<path d="M842 204.5V192" stroke="#FFAE35"/>
<path d="M1329 204.5V192" stroke="#FFAE35"/>
<path d="M1540.5 134.5H1558.5" stroke="#FFAE35"/>
<path d="M794 134.5H812" stroke="#FFAE35"/>
<path d="M1281 134.5H1299" stroke="#FFAE35"/>
<path d="M890.5 134.5H872.5" stroke="#FFAE35"/>
<path d="M1377.5 134.5H1359.5" stroke="#FFAE35"/>
<path d="M1571 134.5H1589" stroke="#FFAE35"/>
<path d="M824.5 134.5H842.5" stroke="#FFAE35"/>
<path d="M1311.5 134.5H1329.5" stroke="#FFAE35"/>
<path d="M860 134.5H842" stroke="#FFAE35"/>
<path d="M1347 134.5H1329" stroke="#FFAE35"/>


<path d="M387.746 188.5H385.941V183.409H387.761C388.273 183.409 388.714 183.511 389.083 183.715C389.453 183.917 389.737 184.208 389.936 184.587C390.136 184.967 390.237 185.421 390.237 185.95C390.237 186.48 390.136 186.936 389.936 187.317C389.737 187.698 389.451 187.99 389.078 188.194C388.707 188.398 388.263 188.5 387.746 188.5ZM387.018 187.578H387.701C388.019 187.578 388.287 187.521 388.504 187.409C388.723 187.294 388.887 187.118 388.996 186.879C389.107 186.639 389.163 186.329 389.163 185.95C389.163 185.573 389.107 185.266 388.996 185.027C388.887 184.789 388.724 184.613 388.507 184.5C388.29 184.388 388.022 184.331 387.704 184.331H387.018V187.578ZM390.789 188.5V183.409H391.865V185.51H394.05V183.409H395.124V188.5H394.05V186.397H391.865V188.5H390.789ZM395.573 184.297V183.409H399.754V184.297H398.195V188.5H397.131V184.297H395.573Z" fill="#A7A7A7"/>
<path d="M642.246 188.5H640.441V183.409H642.261C642.773 183.409 643.214 183.511 643.583 183.715C643.953 183.917 644.237 184.208 644.436 184.587C644.636 184.967 644.737 185.421 644.737 185.95C644.737 186.48 644.636 186.936 644.436 187.317C644.237 187.698 643.951 187.99 643.578 188.194C643.207 188.398 642.763 188.5 642.246 188.5ZM641.518 187.578H642.201C642.519 187.578 642.787 187.521 643.004 187.409C643.223 187.294 643.387 187.118 643.496 186.879C643.607 186.639 643.663 186.329 643.663 185.95C643.663 185.573 643.607 185.266 643.496 185.027C643.387 184.789 643.224 184.613 643.007 184.5C642.79 184.388 642.522 184.331 642.204 184.331H641.518V187.578ZM645.289 188.5V183.409H646.365V185.51H648.55V183.409H649.624V188.5H648.55V186.397H646.365V188.5H645.289ZM650.073 184.297V183.409H654.254V184.297H652.695V188.5H651.631V184.297H650.073Z" fill="#A7A7A7"/>
<path d="M391.561 167V161.909H393.57C393.956 161.909 394.285 161.983 394.557 162.13C394.829 162.276 395.036 162.479 395.178 162.739C395.323 162.998 395.395 163.296 395.395 163.634C395.395 163.972 395.322 164.271 395.176 164.529C395.03 164.788 394.819 164.989 394.542 165.133C394.267 165.277 393.934 165.349 393.543 165.349H392.262V164.487H393.369C393.576 164.487 393.747 164.451 393.881 164.38C394.017 164.307 394.118 164.207 394.184 164.079C394.252 163.95 394.286 163.802 394.286 163.634C394.286 163.465 394.252 163.318 394.184 163.192C394.118 163.064 394.017 162.966 393.881 162.896C393.745 162.825 393.573 162.789 393.364 162.789H392.638V167H391.561ZM395.849 167V161.909H397.857C398.242 161.909 398.57 161.978 398.842 162.115C399.115 162.251 399.323 162.444 399.466 162.695C399.61 162.943 399.682 163.236 399.682 163.572C399.682 163.91 399.609 164.201 399.463 164.445C399.317 164.687 399.106 164.872 398.829 165.001C398.554 165.131 398.221 165.195 397.83 165.195H396.485V164.33H397.656C397.861 164.33 398.032 164.302 398.168 164.246C398.304 164.189 398.405 164.105 398.471 163.992C398.539 163.879 398.573 163.739 398.573 163.572C398.573 163.403 398.539 163.261 398.471 163.145C398.405 163.029 398.303 162.941 398.165 162.881C398.03 162.82 397.858 162.789 397.651 162.789H396.925V167H395.849ZM398.598 164.683L399.863 167H398.675L397.437 164.683H398.598Z" fill="#A7A7A7"/>
<path d="M646.061 167V161.909H648.07C648.456 161.909 648.785 161.983 649.057 162.13C649.329 162.276 649.536 162.479 649.678 162.739C649.823 162.998 649.895 163.296 649.895 163.634C649.895 163.972 649.822 164.271 649.676 164.529C649.53 164.788 649.319 164.989 649.042 165.133C648.767 165.277 648.434 165.349 648.043 165.349H646.762V164.487H647.869C648.076 164.487 648.247 164.451 648.381 164.38C648.517 164.307 648.618 164.207 648.684 164.079C648.752 163.95 648.786 163.802 648.786 163.634C648.786 163.465 648.752 163.318 648.684 163.192C648.618 163.064 648.517 162.966 648.381 162.896C648.245 162.825 648.073 162.789 647.864 162.789H647.138V167H646.061ZM650.349 167V161.909H652.357C652.742 161.909 653.07 161.978 653.342 162.115C653.615 162.251 653.823 162.444 653.966 162.695C654.11 162.943 654.182 163.236 654.182 163.572C654.182 163.91 654.109 164.201 653.963 164.445C653.817 164.687 653.606 164.872 653.329 165.001C653.054 165.131 652.721 165.195 652.33 165.195H650.985V164.33H652.156C652.361 164.33 652.532 164.302 652.668 164.246C652.804 164.189 652.905 164.105 652.971 163.992C653.039 163.879 653.073 163.739 653.073 163.572C653.073 163.403 653.039 163.261 652.971 163.145C652.905 163.029 652.803 162.941 652.665 162.881C652.53 162.82 652.358 162.789 652.151 162.789H651.425V167H650.349ZM653.098 164.683L654.363 167H653.175L651.937 164.683H653.098Z" fill="#A7A7A7"/>
</svg>
