<svg width="869" height="205" viewBox="0 0 869 205" fill="none" xmlns="http://www.w3.org/2000/svg">

<rect x="223" y="141.5" width="115" height="22.5" fill="#3A3A3A"/>
<path d="M230.554 156.5V149.591H233.016C233.554 149.591 233.999 149.689 234.352 149.884C234.705 150.08 234.97 150.348 235.145 150.687C235.32 151.025 235.408 151.405 235.408 151.828C235.408 152.253 235.319 152.635 235.142 152.975C234.966 153.312 234.701 153.58 234.345 153.778C233.992 153.973 233.548 154.071 233.013 154.071H231.319V153.187H232.918C233.258 153.187 233.534 153.129 233.745 153.012C233.956 152.893 234.112 152.731 234.211 152.526C234.309 152.321 234.359 152.088 234.359 151.828C234.359 151.567 234.309 151.335 234.211 151.133C234.112 150.93 233.955 150.772 233.742 150.657C233.53 150.542 233.251 150.485 232.905 150.485H231.596V156.5H230.554ZM236.298 156.5V149.591H238.76C239.296 149.591 239.74 149.683 240.093 149.868C240.448 150.052 240.714 150.307 240.889 150.633C241.065 150.957 241.152 151.332 241.152 151.757C241.152 152.18 241.063 152.552 240.886 152.873C240.71 153.193 240.445 153.441 240.09 153.619C239.737 153.797 239.292 153.885 238.757 153.885H236.891V152.988H238.663C239 152.988 239.274 152.94 239.486 152.843C239.699 152.746 239.856 152.606 239.955 152.421C240.054 152.237 240.103 152.015 240.103 151.757C240.103 151.496 240.053 151.27 239.951 151.079C239.852 150.887 239.696 150.741 239.482 150.64C239.271 150.537 238.993 150.485 238.649 150.485H237.34V156.5H236.298ZM239.708 153.383L241.415 156.5H240.228L238.555 153.383H239.708ZM244.27 149.591H245.535L247.735 154.962H247.816L250.015 149.591H251.28V156.5H250.288V151.5H250.224L248.187 156.49H247.363L245.326 151.497H245.262V156.5H244.27V149.591ZM253.047 156.5H251.94L254.427 149.591H255.631L258.117 156.5H257.011L255.058 150.846H255.004L253.047 156.5ZM253.232 153.794H256.822V154.672H253.232V153.794ZM259.825 149.591V156.5H258.783V149.591H259.825ZM261.011 156.5V149.591H263.473C264.009 149.591 264.453 149.683 264.806 149.868C265.161 150.052 265.427 150.307 265.602 150.633C265.778 150.957 265.865 151.332 265.865 151.757C265.865 152.18 265.776 152.552 265.599 152.873C265.423 153.193 265.158 153.441 264.803 153.619C264.449 153.797 264.005 153.885 263.47 153.885H261.604V152.988H263.376C263.713 152.988 263.987 152.94 264.199 152.843C264.412 152.746 264.569 152.606 264.668 152.421C264.767 152.237 264.816 152.015 264.816 151.757C264.816 151.496 264.765 151.27 264.664 151.079C264.565 150.887 264.409 150.741 264.195 150.64C263.984 150.537 263.706 150.485 263.362 150.485H262.053V156.5H261.011ZM264.421 153.383L266.128 156.5H264.941L263.268 153.383H264.421ZM267.844 149.591V156.5H266.801V149.591H267.844ZM269.029 156.5V149.591H273.361V150.488H270.072V152.593H273.135V153.487H270.072V155.603H273.401V156.5H269.029ZM278.839 156.5H276.603V149.591H278.91C279.587 149.591 280.168 149.729 280.654 150.006C281.14 150.28 281.512 150.675 281.771 151.19C282.032 151.703 282.162 152.318 282.162 153.035C282.162 153.755 282.031 154.374 281.768 154.891C281.507 155.408 281.129 155.806 280.634 156.085C280.139 156.362 279.541 156.5 278.839 156.5ZM277.645 155.589H278.782C279.308 155.589 279.746 155.49 280.094 155.292C280.443 155.092 280.704 154.803 280.877 154.425C281.05 154.045 281.137 153.582 281.137 153.035C281.137 152.493 281.05 152.033 280.877 151.656C280.706 151.278 280.451 150.991 280.111 150.795C279.771 150.6 279.35 150.502 278.846 150.502H277.645V155.589ZM283.126 156.5V149.591H287.458V150.488H284.168V152.593H287.232V153.487H284.168V155.603H287.498V156.5H283.126ZM294.468 151.406C294.432 151.087 294.283 150.839 294.022 150.664C293.761 150.486 293.433 150.397 293.037 150.397C292.754 150.397 292.509 150.442 292.302 150.532C292.095 150.62 291.934 150.741 291.819 150.896C291.707 151.049 291.651 151.224 291.651 151.419C291.651 151.584 291.689 151.725 291.765 151.844C291.844 151.964 291.946 152.064 292.072 152.145C292.201 152.223 292.338 152.29 292.484 152.344C292.63 152.395 292.771 152.438 292.906 152.472L293.58 152.647C293.801 152.701 294.027 152.774 294.258 152.867C294.49 152.959 294.705 153.08 294.903 153.231C295.101 153.382 295.26 153.568 295.382 153.791C295.506 154.014 295.567 154.28 295.567 154.591C295.567 154.982 295.466 155.329 295.264 155.633C295.064 155.937 294.772 156.176 294.39 156.352C294.01 156.527 293.55 156.615 293.01 156.615C292.493 156.615 292.045 156.533 291.668 156.368C291.29 156.204 290.994 155.971 290.78 155.67C290.567 155.366 290.449 155.007 290.426 154.591H291.472C291.492 154.84 291.573 155.048 291.715 155.215C291.859 155.379 292.042 155.501 292.265 155.582C292.49 155.661 292.736 155.7 293.003 155.7C293.298 155.7 293.56 155.654 293.79 155.562C294.021 155.468 294.203 155.337 294.336 155.171C294.469 155.002 294.535 154.805 294.535 154.58C294.535 154.376 294.477 154.208 294.36 154.078C294.245 153.947 294.089 153.839 293.891 153.754C293.695 153.668 293.474 153.593 293.226 153.528L292.41 153.305C291.856 153.155 291.418 152.933 291.094 152.641C290.772 152.348 290.612 151.961 290.612 151.48C290.612 151.082 290.72 150.735 290.935 150.438C291.151 150.141 291.444 149.91 291.813 149.746C292.181 149.58 292.598 149.496 293.061 149.496C293.529 149.496 293.941 149.579 294.299 149.743C294.659 149.907 294.942 150.133 295.149 150.421C295.356 150.706 295.464 151.035 295.473 151.406H294.468ZM296.14 150.488V149.591H301.487V150.488H299.331V156.5H298.292V150.488H296.14ZM304.742 152.607V153.484H301.679V152.607H304.742ZM311.837 153.045C311.837 153.783 311.702 154.417 311.432 154.948C311.162 155.477 310.792 155.884 310.322 156.169C309.854 156.453 309.322 156.594 308.726 156.594C308.128 156.594 307.594 156.453 307.124 156.169C306.656 155.884 306.287 155.476 306.017 154.945C305.747 154.414 305.612 153.781 305.612 153.045C305.612 152.308 305.747 151.675 306.017 151.146C306.287 150.615 306.656 150.208 307.124 149.925C307.594 149.639 308.128 149.496 308.726 149.496C309.322 149.496 309.854 149.639 310.322 149.925C310.792 150.208 311.162 150.615 311.432 151.146C311.702 151.675 311.837 152.308 311.837 153.045ZM310.804 153.045C310.804 152.483 310.713 152.01 310.531 151.625C310.351 151.238 310.104 150.946 309.789 150.748C309.476 150.548 309.122 150.448 308.726 150.448C308.328 150.448 307.973 150.548 307.66 150.748C307.348 150.946 307.1 151.238 306.918 151.625C306.738 152.01 306.648 152.483 306.648 153.045C306.648 153.608 306.738 154.082 306.918 154.469C307.1 154.854 307.348 155.146 307.66 155.346C307.973 155.544 308.328 155.643 308.726 155.643C309.122 155.643 309.476 155.544 309.789 155.346C310.104 155.146 310.351 154.854 310.531 154.469C310.713 154.082 310.804 153.608 310.804 153.045ZM317.247 149.591H318.293V154.135C318.293 154.619 318.179 155.047 317.952 155.42C317.725 155.792 317.405 156.084 316.994 156.298C316.582 156.509 316.1 156.615 315.547 156.615C314.996 156.615 314.514 156.509 314.103 156.298C313.691 156.084 313.372 155.792 313.145 155.42C312.917 155.047 312.804 154.619 312.804 154.135V149.591H313.846V154.051C313.846 154.363 313.915 154.641 314.052 154.884C314.192 155.127 314.388 155.318 314.642 155.458C314.897 155.595 315.198 155.663 315.547 155.663C315.897 155.663 316.2 155.595 316.454 155.458C316.71 155.318 316.906 155.127 317.041 154.884C317.178 154.641 317.247 154.363 317.247 154.051V149.591ZM319.476 156.5V149.591H323.807V150.488H320.518V152.593H323.581V153.487H320.518V155.603H323.848V156.5H319.476ZM330.444 149.591V156.5H329.486L325.974 151.433H325.91V156.5H324.867V149.591H325.832L329.348 154.665H329.412V149.591H330.444Z" fill="#FEFFC1"/>
<rect x="518.5" y="141" width="115" height="22.5" fill="#3A3A3A"/>
<path d="M548.623 156V149.091H551.086C551.624 149.091 552.069 149.189 552.422 149.384C552.775 149.58 553.039 149.848 553.215 150.187C553.39 150.525 553.478 150.905 553.478 151.328C553.478 151.753 553.389 152.135 553.212 152.475C553.036 152.812 552.771 153.08 552.415 153.278C552.062 153.473 551.618 153.571 551.083 153.571H549.389V152.687H550.988C551.328 152.687 551.603 152.629 551.815 152.512C552.026 152.393 552.181 152.231 552.28 152.026C552.379 151.821 552.429 151.588 552.429 151.328C552.429 151.067 552.379 150.835 552.28 150.633C552.181 150.43 552.025 150.272 551.812 150.157C551.6 150.042 551.321 149.985 550.975 149.985H549.666V156H548.623ZM554.368 156V149.091H556.83C557.366 149.091 557.81 149.183 558.163 149.368C558.518 149.552 558.784 149.807 558.959 150.133C559.134 150.457 559.222 150.832 559.222 151.257C559.222 151.68 559.133 152.052 558.956 152.373C558.78 152.693 558.515 152.941 558.16 153.119C557.806 153.297 557.362 153.385 556.827 153.385H554.961V152.488H556.733C557.07 152.488 557.344 152.44 557.556 152.343C557.769 152.246 557.926 152.106 558.025 151.921C558.124 151.737 558.173 151.515 558.173 151.257C558.173 150.996 558.122 150.77 558.021 150.579C557.922 150.387 557.766 150.241 557.552 150.14C557.341 150.037 557.063 149.985 556.719 149.985H555.41V156H554.368ZM557.778 152.883L559.485 156H558.298L556.625 152.883H557.778ZM567.016 151.274C566.95 151.069 566.863 150.886 566.752 150.724C566.645 150.56 566.515 150.42 566.365 150.305C566.214 150.188 566.042 150.1 565.848 150.039C565.657 149.978 565.447 149.948 565.217 149.948C564.828 149.948 564.478 150.048 564.165 150.248C563.852 150.448 563.605 150.742 563.423 151.129C563.243 151.513 563.153 151.984 563.153 152.542C563.153 153.102 563.244 153.576 563.426 153.962C563.608 154.349 563.858 154.643 564.175 154.843C564.492 155.043 564.853 155.143 565.258 155.143C565.634 155.143 565.961 155.067 566.24 154.914C566.521 154.761 566.738 154.545 566.891 154.266C567.046 153.985 567.124 153.654 567.124 153.274L567.393 153.325H565.417V152.464H568.132V153.251C568.132 153.831 568.009 154.335 567.761 154.762C567.516 155.187 567.176 155.515 566.742 155.747C566.311 155.979 565.816 156.094 565.258 156.094C564.633 156.094 564.084 155.951 563.612 155.663C563.142 155.375 562.775 154.967 562.512 154.438C562.249 153.907 562.117 153.278 562.117 152.549C562.117 151.998 562.194 151.503 562.347 151.064C562.5 150.626 562.714 150.254 562.991 149.948C563.27 149.64 563.597 149.405 563.973 149.243C564.35 149.079 564.763 148.996 565.211 148.996C565.584 148.996 565.932 149.052 566.253 149.162C566.577 149.272 566.865 149.428 567.117 149.631C567.371 149.833 567.581 150.074 567.748 150.353C567.914 150.629 568.027 150.936 568.085 151.274H567.016ZM569.123 156V149.091H570.165V155.103H573.296V156H569.123ZM575.089 156H573.982L576.469 149.091H577.673L580.16 156H579.053L577.1 150.346H577.046L575.089 156ZM575.275 153.294H578.864V154.172H575.275V153.294ZM580.825 156V149.091H583.287C583.823 149.091 584.267 149.183 584.62 149.368C584.975 149.552 585.241 149.807 585.416 150.133C585.592 150.457 585.679 150.832 585.679 151.257C585.679 151.68 585.591 152.052 585.413 152.373C585.237 152.693 584.972 152.941 584.617 153.119C584.264 153.297 583.819 153.385 583.284 153.385H581.419V152.488H583.19C583.527 152.488 583.801 152.44 584.013 152.343C584.226 152.246 584.383 152.106 584.482 151.921C584.581 151.737 584.63 151.515 584.63 151.257C584.63 150.996 584.58 150.77 584.478 150.579C584.379 150.387 584.223 150.241 584.009 150.14C583.798 150.037 583.52 149.985 583.176 149.985H581.867V156H580.825ZM584.235 152.883L585.942 156H584.755L583.082 152.883H584.235ZM592.192 149.091V156H591.234L587.722 150.933H587.658V156H586.615V149.091H587.58L591.095 154.165H591.16V149.091H592.192ZM593.38 156V149.091H597.712V149.988H594.422V152.093H597.486V152.987H594.422V155.103H597.752V156H593.38ZM598.772 156V149.091H601.234C601.77 149.091 602.214 149.183 602.567 149.368C602.922 149.552 603.188 149.807 603.363 150.133C603.538 150.457 603.626 150.832 603.626 151.257C603.626 151.68 603.537 152.052 603.36 152.373C603.184 152.693 602.919 152.941 602.564 153.119C602.21 153.297 601.766 153.385 601.231 153.385H599.365V152.488H601.136C601.474 152.488 601.748 152.44 601.96 152.343C602.173 152.246 602.33 152.106 602.429 151.921C602.528 151.737 602.577 151.515 602.577 151.257C602.577 150.996 602.526 150.77 602.425 150.579C602.326 150.387 602.17 150.241 601.956 150.14C601.745 150.037 601.467 149.985 601.123 149.985H599.814V156H598.772ZM602.182 152.883L603.889 156H602.702L601.029 152.883H602.182Z" fill="#FEFFC1"/>
<rect x="697" y="141" width="115" height="22.5" fill="#3A3A3A"/>
<path d="M708.493 156V149.091H710.956C711.494 149.091 711.939 149.189 712.292 149.384C712.645 149.58 712.909 149.848 713.085 150.187C713.26 150.525 713.348 150.905 713.348 151.328C713.348 151.753 713.259 152.135 713.081 152.475C712.906 152.812 712.641 153.08 712.285 153.278C711.932 153.473 711.488 153.571 710.953 153.571H709.259V152.687H710.858C711.198 152.687 711.473 152.629 711.685 152.512C711.896 152.393 712.051 152.231 712.15 152.026C712.249 151.821 712.299 151.588 712.299 151.328C712.299 151.067 712.249 150.835 712.15 150.633C712.051 150.43 711.895 150.272 711.681 150.157C711.47 150.042 711.191 149.985 710.845 149.985H709.536V156H708.493ZM714.237 156V149.091H716.7C717.235 149.091 717.68 149.183 718.033 149.368C718.388 149.552 718.653 149.807 718.829 150.133C719.004 150.457 719.092 150.832 719.092 151.257C719.092 151.68 719.003 152.052 718.825 152.373C718.65 152.693 718.385 152.941 718.029 153.119C717.676 153.297 717.232 153.385 716.697 153.385H714.831V152.488H716.602C716.94 152.488 717.214 152.44 717.425 152.343C717.639 152.246 717.795 152.106 717.894 151.921C717.993 151.737 718.043 151.515 718.043 151.257C718.043 150.996 717.992 150.77 717.891 150.579C717.792 150.387 717.636 150.241 717.422 150.14C717.211 150.037 716.933 149.985 716.589 149.985H715.28V156H714.237ZM717.648 152.883L719.355 156H718.168L716.494 152.883H717.648ZM722.21 156V149.091H724.672C725.21 149.091 725.655 149.189 726.008 149.384C726.361 149.58 726.626 149.848 726.801 150.187C726.977 150.525 727.064 150.905 727.064 151.328C727.064 151.753 726.975 152.135 726.798 152.475C726.622 152.812 726.357 153.08 726.002 153.278C725.648 153.473 725.204 153.571 724.669 153.571H722.975V152.687H724.575C724.914 152.687 725.19 152.629 725.401 152.512C725.612 152.393 725.768 152.231 725.867 152.026C725.966 151.821 726.015 151.588 726.015 151.328C726.015 151.067 725.966 150.835 725.867 150.633C725.768 150.43 725.611 150.272 725.398 150.157C725.186 150.042 724.907 149.985 724.561 149.985H723.252V156H722.21ZM733.955 152.545C733.955 153.283 733.82 153.917 733.551 154.448C733.281 154.977 732.911 155.384 732.441 155.669C731.973 155.953 731.441 156.094 730.845 156.094C730.247 156.094 729.713 155.953 729.243 155.669C728.775 155.384 728.406 154.976 728.136 154.445C727.866 153.914 727.731 153.281 727.731 152.545C727.731 151.808 727.866 151.175 728.136 150.646C728.406 150.115 728.775 149.708 729.243 149.425C729.713 149.139 730.247 148.996 730.845 148.996C731.441 148.996 731.973 149.139 732.441 149.425C732.911 149.708 733.281 150.115 733.551 150.646C733.82 151.175 733.955 151.808 733.955 152.545ZM732.923 152.545C732.923 151.983 732.832 151.51 732.65 151.125C732.47 150.738 732.222 150.446 731.908 150.248C731.595 150.048 731.241 149.948 730.845 149.948C730.447 149.948 730.092 150.048 729.779 150.248C729.466 150.446 729.219 150.738 729.037 151.125C728.857 151.51 728.767 151.983 728.767 152.545C728.767 153.108 728.857 153.582 729.037 153.969C729.219 154.354 729.466 154.646 729.779 154.846C730.092 155.044 730.447 155.143 730.845 155.143C731.241 155.143 731.595 155.044 731.908 154.846C732.222 154.646 732.47 154.354 732.65 153.969C732.832 153.582 732.923 153.108 732.923 152.545ZM734.923 156V149.091H737.385C737.921 149.091 738.365 149.183 738.718 149.368C739.073 149.552 739.339 149.807 739.514 150.133C739.689 150.457 739.777 150.832 739.777 151.257C739.777 151.68 739.688 152.052 739.511 152.373C739.335 152.693 739.07 152.941 738.714 153.119C738.361 153.297 737.917 153.385 737.382 153.385H735.516V152.488H737.287C737.625 152.488 737.899 152.44 738.111 152.343C738.324 152.246 738.481 152.106 738.58 151.921C738.678 151.737 738.728 151.515 738.728 151.257C738.728 150.996 738.677 150.77 738.576 150.579C738.477 150.387 738.321 150.241 738.107 150.14C737.896 150.037 737.618 149.985 737.274 149.985H735.965V156H734.923ZM738.333 152.883L740.04 156H738.853L737.179 152.883H738.333ZM740.372 149.988V149.091H745.72V149.988H743.564V156H742.525V149.988H740.372ZM746.569 156V149.091H750.9V149.988H747.611V152.093H750.674V152.987H747.611V155.103H750.941V156H746.569ZM756.379 156H754.142V149.091H756.449C757.126 149.091 757.708 149.229 758.194 149.506C758.679 149.78 759.052 150.175 759.31 150.69C759.571 151.203 759.702 151.818 759.702 152.535C759.702 153.255 759.57 153.874 759.307 154.391C759.046 154.908 758.668 155.306 758.173 155.585C757.679 155.862 757.08 156 756.379 156ZM755.184 155.089H756.321C756.847 155.089 757.285 154.99 757.634 154.792C757.982 154.592 758.243 154.303 758.416 153.925C758.589 153.545 758.676 153.082 758.676 152.535C758.676 151.993 758.589 151.533 758.416 151.156C758.245 150.778 757.99 150.491 757.65 150.295C757.311 150.1 756.889 150.002 756.385 150.002H755.184V155.089ZM760.665 156V149.091H764.997V149.988H761.708V152.093H764.771V152.987H761.708V155.103H765.037V156H760.665ZM773.977 151.338H772.925C772.884 151.113 772.809 150.915 772.698 150.744C772.588 150.573 772.453 150.428 772.294 150.309C772.134 150.19 771.955 150.1 771.757 150.039C771.562 149.978 771.354 149.948 771.133 149.948C770.735 149.948 770.379 150.048 770.064 150.248C769.751 150.448 769.504 150.742 769.322 151.129C769.142 151.515 769.052 151.988 769.052 152.545C769.052 153.108 769.142 153.582 769.322 153.969C769.504 154.356 769.752 154.648 770.067 154.846C770.382 155.044 770.736 155.143 771.13 155.143C771.348 155.143 771.555 155.114 771.751 155.055C771.948 154.995 772.127 154.906 772.287 154.789C772.447 154.672 772.582 154.529 772.692 154.36C772.804 154.19 772.882 153.994 772.925 153.773L773.977 153.777C773.921 154.116 773.812 154.429 773.65 154.715C773.49 154.998 773.284 155.243 773.032 155.45C772.783 155.655 772.497 155.813 772.176 155.926C771.854 156.038 771.503 156.094 771.123 156.094C770.525 156.094 769.992 155.953 769.524 155.669C769.056 155.384 768.687 154.976 768.417 154.445C768.15 153.914 768.016 153.281 768.016 152.545C768.016 151.808 768.151 151.175 768.421 150.646C768.691 150.115 769.06 149.708 769.527 149.425C769.995 149.139 770.527 148.996 771.123 148.996C771.49 148.996 771.831 149.049 772.149 149.155C772.468 149.258 772.755 149.411 773.009 149.614C773.263 149.814 773.473 150.059 773.64 150.349C773.806 150.637 773.919 150.967 773.977 151.338ZM774.892 156V149.091H775.934V155.103H779.065V156H774.892ZM780.964 149.091V156H779.922V149.091H780.964ZM787.888 151.338H786.836C786.795 151.113 786.72 150.915 786.61 150.744C786.499 150.573 786.365 150.428 786.205 150.309C786.045 150.19 785.866 150.1 785.668 150.039C785.473 149.978 785.265 149.948 785.044 149.948C784.646 149.948 784.29 150.048 783.975 150.248C783.662 150.448 783.415 150.742 783.233 151.129C783.053 151.515 782.963 151.988 782.963 152.545C782.963 153.108 783.053 153.582 783.233 153.969C783.415 154.356 783.663 154.648 783.978 154.846C784.293 155.044 784.647 155.143 785.041 155.143C785.259 155.143 785.466 155.114 785.662 155.055C785.86 154.995 786.038 154.906 786.198 154.789C786.358 154.672 786.493 154.529 786.603 154.36C786.715 154.19 786.793 153.994 786.836 153.773L787.888 153.777C787.832 154.116 787.723 154.429 787.561 154.715C787.401 154.998 787.196 155.243 786.944 155.45C786.694 155.655 786.408 155.813 786.087 155.926C785.765 156.038 785.414 156.094 785.034 156.094C784.436 156.094 783.903 155.953 783.435 155.669C782.967 155.384 782.598 154.976 782.329 154.445C782.061 153.914 781.927 153.281 781.927 152.545C781.927 151.808 782.062 151.175 782.332 150.646C782.602 150.115 782.971 149.708 783.439 149.425C783.906 149.139 784.438 148.996 785.034 148.996C785.401 148.996 785.743 149.049 786.06 149.155C786.379 149.258 786.666 149.411 786.92 149.614C787.174 149.814 787.384 150.059 787.551 150.349C787.717 150.637 787.83 150.967 787.888 151.338ZM788.803 156V149.091H789.846V152.093H793.29V149.091H794.336V156H793.29V152.987H789.846V156H788.803ZM794.988 149.091H796.173L797.977 152.232H798.052L799.856 149.091H801.041L798.534 153.288V156H797.495V153.288L794.988 149.091Z" fill="#FEFFC1"/>

<rect x="198.5" y="1" width="63" height="25" fill="#E4E4E4" stroke="black" stroke-width="2"/>
<path d="M212.358 10.2031C212.275 9.46354 211.931 8.89062 211.327 8.48437C210.723 8.07292 209.962 7.86719 209.046 7.86719C208.39 7.86719 207.822 7.97135 207.343 8.17969C206.864 8.38281 206.491 8.66406 206.226 9.02344C205.965 9.3776 205.835 9.78125 205.835 10.2344C205.835 10.6146 205.923 10.9427 206.101 11.2187C206.283 11.4948 206.52 11.7266 206.811 11.9141C207.108 12.0964 207.426 12.25 207.765 12.375C208.103 12.4948 208.429 12.5937 208.741 12.6719L210.304 13.0781C210.814 13.2031 211.337 13.3724 211.874 13.5859C212.41 13.7995 212.908 14.0807 213.366 14.4297C213.824 14.7786 214.194 15.2109 214.476 15.7266C214.762 16.2422 214.905 16.8594 214.905 17.5781C214.905 18.4844 214.671 19.2891 214.202 19.9922C213.739 20.6953 213.064 21.25 212.179 21.6562C211.298 22.0625 210.233 22.2656 208.983 22.2656C207.785 22.2656 206.749 22.0755 205.874 21.6953C204.999 21.3151 204.314 20.776 203.819 20.0781C203.324 19.375 203.051 18.5417 202.999 17.5781H205.421C205.468 18.1562 205.655 18.638 205.983 19.0234C206.317 19.4036 206.741 19.6875 207.257 19.875C207.778 20.0573 208.348 20.1484 208.968 20.1484C209.65 20.1484 210.257 20.0417 210.788 19.8281C211.324 19.6094 211.746 19.3073 212.054 18.9219C212.361 18.5312 212.515 18.0755 212.515 17.5547C212.515 17.0807 212.379 16.6927 212.108 16.3906C211.843 16.0885 211.481 15.8385 211.022 15.6406C210.569 15.4427 210.056 15.2682 209.483 15.1172L207.593 14.6016C206.311 14.2526 205.296 13.7396 204.546 13.0625C203.801 12.3854 203.429 11.4896 203.429 10.375C203.429 9.45312 203.679 8.64844 204.179 7.96094C204.679 7.27344 205.356 6.73958 206.21 6.35938C207.064 5.97396 208.028 5.78125 209.101 5.78125C210.184 5.78125 211.14 5.97135 211.968 6.35156C212.801 6.73177 213.457 7.25521 213.936 7.92187C214.416 8.58333 214.666 9.34375 214.686 10.2031H212.358ZM226.297 10.2031C226.213 9.46354 225.869 8.89062 225.265 8.48437C224.661 8.07292 223.901 7.86719 222.984 7.86719C222.328 7.86719 221.76 7.97135 221.281 8.17969C220.802 8.38281 220.429 8.66406 220.164 9.02344C219.903 9.3776 219.773 9.78125 219.773 10.2344C219.773 10.6146 219.862 10.9427 220.039 11.2187C220.221 11.4948 220.458 11.7266 220.75 11.9141C221.047 12.0964 221.364 12.25 221.703 12.375C222.041 12.4948 222.367 12.5937 222.679 12.6719L224.242 13.0781C224.752 13.2031 225.276 13.3724 225.812 13.5859C226.349 13.7995 226.846 14.0807 227.304 14.4297C227.763 14.7786 228.132 15.2109 228.414 15.7266C228.7 16.2422 228.843 16.8594 228.843 17.5781C228.843 18.4844 228.609 19.2891 228.14 19.9922C227.677 20.6953 227.002 21.25 226.117 21.6562C225.237 22.0625 224.172 22.2656 222.922 22.2656C221.724 22.2656 220.687 22.0755 219.812 21.6953C218.937 21.3151 218.252 20.776 217.757 20.0781C217.263 19.375 216.989 18.5417 216.937 17.5781H219.359C219.406 18.1562 219.593 18.638 219.922 19.0234C220.255 19.4036 220.679 19.6875 221.195 19.875C221.716 20.0573 222.286 20.1484 222.906 20.1484C223.588 20.1484 224.195 20.0417 224.726 19.8281C225.263 19.6094 225.685 19.3073 225.992 18.9219C226.299 18.5312 226.453 18.0755 226.453 17.5547C226.453 17.0807 226.317 16.6927 226.047 16.3906C225.781 16.0885 225.419 15.8385 224.961 15.6406C224.507 15.4427 223.994 15.2682 223.422 15.1172L221.531 14.6016C220.25 14.2526 219.234 13.7396 218.484 13.0625C217.739 12.3854 217.367 11.4896 217.367 10.375C217.367 9.45312 217.617 8.64844 218.117 7.96094C218.617 7.27344 219.294 6.73958 220.148 6.35938C221.002 5.97396 221.966 5.78125 223.039 5.78125C224.122 5.78125 225.078 5.97135 225.906 6.35156C226.739 6.73177 227.395 7.25521 227.875 7.92187C228.354 8.58333 228.604 9.34375 228.625 10.2031H226.297ZM236.86 22.2656C235.625 22.2604 234.571 21.9349 233.696 21.2891C232.821 20.6432 232.151 19.7031 231.688 18.4687C231.224 17.2344 230.993 15.7474 230.993 14.0078C230.993 12.2734 231.224 10.7917 231.688 9.5625C232.157 8.33333 232.828 7.39583 233.703 6.75C234.584 6.10417 235.636 5.78125 236.86 5.78125C238.084 5.78125 239.133 6.10677 240.008 6.75781C240.883 7.40365 241.552 8.34115 242.016 9.57031C242.485 10.7943 242.719 12.2734 242.719 14.0078C242.719 15.7526 242.487 17.2422 242.024 18.4766C241.56 19.7057 240.891 20.6458 240.016 21.2969C239.141 21.9427 238.089 22.2656 236.86 22.2656ZM236.86 20.1797C237.943 20.1797 238.789 19.651 239.399 18.5937C240.013 17.5365 240.321 16.0078 240.321 14.0078C240.321 12.6797 240.18 11.5573 239.899 10.6406C239.623 9.71875 239.224 9.02083 238.703 8.54687C238.188 8.06771 237.573 7.82812 236.86 7.82812C235.782 7.82812 234.935 8.35937 234.321 9.42187C233.706 10.4844 233.396 12.013 233.391 14.0078C233.391 15.3411 233.529 16.4688 233.805 17.3906C234.086 18.3073 234.485 19.0026 235 19.4766C235.516 19.9453 236.136 20.1797 236.86 20.1797ZM244.935 18.875V16.9219L251.849 6H253.388V8.875H252.411L247.466 16.7031V16.8281H256.942V18.875H244.935ZM252.521 22V18.2812L252.536 17.3906V6H254.825V22H252.521Z" fill="black"/>
<rect x="608.5" y="1" width="63" height="25" fill="#E4E4E4" stroke="black" stroke-width="2"/>
<path d="M622.734 10.2031C622.651 9.46354 622.307 8.89062 621.703 8.48437C621.099 8.07292 620.338 7.86719 619.422 7.86719C618.766 7.86719 618.198 7.97135 617.719 8.17969C617.24 8.38281 616.867 8.66406 616.601 9.02344C616.341 9.3776 616.211 9.78125 616.211 10.2344C616.211 10.6146 616.299 10.9427 616.476 11.2187C616.659 11.4948 616.896 11.7266 617.187 11.9141C617.484 12.0964 617.802 12.25 618.141 12.375C618.479 12.4948 618.805 12.5937 619.117 12.6719L620.68 13.0781C621.19 13.2031 621.713 13.3724 622.25 13.5859C622.786 13.7995 623.284 14.0807 623.742 14.4297C624.2 14.7786 624.57 15.2109 624.851 15.7266C625.138 16.2422 625.281 16.8594 625.281 17.5781C625.281 18.4844 625.047 19.2891 624.578 19.9922C624.115 20.6953 623.44 21.25 622.555 21.6562C621.674 22.0625 620.609 22.2656 619.359 22.2656C618.161 22.2656 617.125 22.0755 616.25 21.6953C615.375 21.3151 614.69 20.776 614.195 20.0781C613.7 19.375 613.427 18.5417 613.375 17.5781H615.797C615.844 18.1562 616.031 18.638 616.359 19.0234C616.693 19.4036 617.117 19.6875 617.633 19.875C618.154 20.0573 618.724 20.1484 619.344 20.1484C620.026 20.1484 620.633 20.0417 621.164 19.8281C621.7 19.6094 622.122 19.3073 622.43 18.9219C622.737 18.5312 622.891 18.0755 622.891 17.5547C622.891 17.0807 622.755 16.6927 622.484 16.3906C622.219 16.0885 621.857 15.8385 621.398 15.6406C620.945 15.4427 620.432 15.2682 619.859 15.1172L617.969 14.6016C616.687 14.2526 615.672 13.7396 614.922 13.0625C614.177 12.3854 613.805 11.4896 613.805 10.375C613.805 9.45312 614.055 8.64844 614.555 7.96094C615.055 7.27344 615.732 6.73958 616.586 6.35938C617.44 5.97396 618.404 5.78125 619.476 5.78125C620.56 5.78125 621.516 5.97135 622.344 6.35156C623.177 6.73177 623.833 7.25521 624.312 7.92187C624.792 8.58333 625.042 9.34375 625.062 10.2031H622.734ZM636.673 10.2031C636.589 9.46354 636.245 8.89062 635.641 8.48437C635.037 8.07292 634.277 7.86719 633.36 7.86719C632.704 7.86719 632.136 7.97135 631.657 8.17969C631.178 8.38281 630.805 8.66406 630.54 9.02344C630.279 9.3776 630.149 9.78125 630.149 10.2344C630.149 10.6146 630.238 10.9427 630.415 11.2187C630.597 11.4948 630.834 11.7266 631.126 11.9141C631.423 12.0964 631.74 12.25 632.079 12.375C632.417 12.4948 632.743 12.5937 633.055 12.6719L634.618 13.0781C635.128 13.2031 635.652 13.3724 636.188 13.5859C636.725 13.7995 637.222 14.0807 637.68 14.4297C638.139 14.7786 638.508 15.2109 638.79 15.7266C639.076 16.2422 639.219 16.8594 639.219 17.5781C639.219 18.4844 638.985 19.2891 638.516 19.9922C638.053 20.6953 637.378 21.25 636.493 21.6562C635.613 22.0625 634.548 22.2656 633.298 22.2656C632.1 22.2656 631.063 22.0755 630.188 21.6953C629.313 21.3151 628.628 20.776 628.133 20.0781C627.639 19.375 627.365 18.5417 627.313 17.5781H629.735C629.782 18.1562 629.969 18.638 630.298 19.0234C630.631 19.4036 631.055 19.6875 631.571 19.875C632.092 20.0573 632.662 20.1484 633.282 20.1484C633.964 20.1484 634.571 20.0417 635.102 19.8281C635.639 19.6094 636.061 19.3073 636.368 18.9219C636.675 18.5312 636.829 18.0755 636.829 17.5547C636.829 17.0807 636.693 16.6927 636.423 16.3906C636.157 16.0885 635.795 15.8385 635.337 15.6406C634.883 15.4427 634.37 15.2682 633.798 15.1172L631.907 14.6016C630.626 14.2526 629.61 13.7396 628.86 13.0625C628.115 12.3854 627.743 11.4896 627.743 10.375C627.743 9.45312 627.993 8.64844 628.493 7.96094C628.993 7.27344 629.67 6.73958 630.524 6.35938C631.378 5.97396 632.342 5.78125 633.415 5.78125C634.498 5.78125 635.454 5.97135 636.282 6.35156C637.115 6.73177 637.771 7.25521 638.251 7.92187C638.73 8.58333 638.98 9.34375 639.001 10.2031H636.673ZM647.236 22.2656C646.001 22.2604 644.947 21.9349 644.072 21.2891C643.197 20.6432 642.527 19.7031 642.064 18.4687C641.6 17.2344 641.369 15.7474 641.369 14.0078C641.369 12.2734 641.6 10.7917 642.064 9.5625C642.533 8.33333 643.204 7.39583 644.079 6.75C644.96 6.10417 646.012 5.78125 647.236 5.78125C648.46 5.78125 649.509 6.10677 650.384 6.75781C651.259 7.40365 651.928 8.34115 652.392 9.57031C652.861 10.7943 653.095 12.2734 653.095 14.0078C653.095 15.7526 652.863 17.2422 652.4 18.4766C651.936 19.7057 651.267 20.6458 650.392 21.2969C649.517 21.9427 648.465 22.2656 647.236 22.2656ZM647.236 20.1797C648.319 20.1797 649.165 19.651 649.775 18.5937C650.389 17.5365 650.697 16.0078 650.697 14.0078C650.697 12.6797 650.556 11.5573 650.275 10.6406C649.999 9.71875 649.6 9.02083 649.079 8.54687C648.564 8.06771 647.949 7.82812 647.236 7.82812C646.158 7.82812 645.311 8.35937 644.697 9.42187C644.082 10.4844 643.772 12.013 643.767 14.0078C643.767 15.3411 643.905 16.4688 644.181 17.3906C644.462 18.3073 644.861 19.0026 645.376 19.4766C645.892 19.9453 646.512 20.1797 647.236 20.1797ZM660.928 22.2187C659.949 22.2187 659.068 22.0312 658.287 21.6562C657.511 21.276 656.891 20.7552 656.428 20.0938C655.964 19.4323 655.717 18.6771 655.686 17.8281H658.029C658.087 18.5156 658.391 19.0807 658.943 19.5234C659.496 19.9661 660.157 20.1875 660.928 20.1875C661.542 20.1875 662.087 20.0469 662.561 19.7656C663.04 19.4792 663.415 19.0859 663.686 18.5859C663.962 18.0859 664.1 17.5156 664.1 16.875C664.1 16.224 663.959 15.6432 663.678 15.1328C663.397 14.6224 663.009 14.2214 662.514 13.9297C662.024 13.638 661.462 13.4896 660.826 13.4844C660.342 13.4844 659.855 13.5677 659.365 13.7344C658.876 13.901 658.48 14.1198 658.178 14.3906L655.967 14.0625L656.865 6H665.662V8.07031H658.873L658.365 12.5469H658.459C658.772 12.2448 659.186 11.9922 659.701 11.7891C660.222 11.5859 660.779 11.4844 661.373 11.4844C662.347 11.4844 663.214 11.7161 663.975 12.1797C664.74 12.6432 665.342 13.276 665.779 14.0781C666.222 14.875 666.441 15.7917 666.436 16.8281C666.441 17.8646 666.206 18.7891 665.732 19.6016C665.264 20.4141 664.613 21.0547 663.779 21.5234C662.951 21.987 662.001 22.2187 660.928 22.2187Z" fill="black"/>



<path d="M0 84H400" stroke="#FFDF35" stroke-width="2.5" id="ss04"/>

<path d="M25 84V71.5" stroke="#FFDF35" stroke-width="2.5" id="ss04"/>
<path d="M77 84V71.5" stroke="#FFDF35" stroke-width="2.5" id="ss04"/>
<path d="M166.5 84V71.5" stroke="#FFDF35" stroke-width="2.5" id="ss04"/>
<path d="M268.5 84V71.5" stroke="#FFDF35" stroke-width="2.5" id="ss04"/>
<path d="M358 84V71.5" stroke="#FFDF35" stroke-width="2.5" id="ss04"/>

<path d="M418 84H833" stroke="#FFDF35" stroke-width="2.5" id="ss05"/>

<path d="M472.5 84V71.5" stroke="#FFDF35" stroke-width="2.5" id="ss05"/>
<path d="M599.5 84V71.5" stroke="#FFDF35" stroke-width="2.5" id="ss05"/>
<path d="M701.5 84V71.5" stroke="#FFDF35" stroke-width="2.5" id="ss05"/>
<path d="M791 84V71.5" stroke="#FFDF35" stroke-width="2.5" id="ss05"/>



<path d="M0 46.5H50" stroke="#FFDF35" stroke-width="2.5" id="ce1101"/>
<path d="M25 59V46.5" stroke="#FFDF35" stroke-width="2.5" id="ce1101"/>
<path d="M77 59V46.5" stroke="#FFDF35" stroke-width="2.5" id="ce1201"/>
<path d="M52 46.5H102" stroke="#FFDF35" stroke-width="2.5" id="ce1201"/>
<path d="M166.5 59V46.5" stroke="#FFDF35" stroke-width="2.5" id="ce1301"/>
<path d="M104 46.5H229" stroke="#FFDF35" stroke-width="2.5" id="ce1301"/>
<path d="M268.5 59V46.5" stroke="#FFDF35" stroke-width="2.5" id="ce1401"/>
<path d="M231 46.5H306" stroke="#FFDF35" stroke-width="2.5" id="ce1401"/>
<path d="M358 59V46.5" stroke="#FFDF35" stroke-width="2.5" id="ce1501"/>
<path d="M308 46.5H408" stroke="#FFDF35" stroke-width="2.5" id="ce1501"/>
<path d="M472.5 59V46.5" stroke="#FFDF35" stroke-width="2.5" id="ce1102"/>
<path d="M410 46.5H535" stroke="#FFDF35" stroke-width="2.5" id="ce1102"/>
<path d="M599.5 59V46.5" stroke="#FFDF35" stroke-width="2.5" id="ce1202"/>
<path d="M537 46.5H662" stroke="#FFDF35" stroke-width="2.5" id="ce1202"/>
<path d="M701.5 59V46.5" stroke="#FFDF35" stroke-width="2.5" id="ce1302"/>
<path d="M664 46.5H739" stroke="#FFDF35" stroke-width="2.5" id="ce1302"/>
<path d="M791 59V46.5" stroke="#FFDF35" stroke-width="2.5" id="ce1402"/>
<path d="M741 46.5H841" stroke="#FFDF35" stroke-width="2.5" id="ce1402"/>



<path d="M409 192V179.5" stroke="#DBFF00" stroke-width="4" id="dhtMSTO"/>
<path d="M663.5 192V179.5" stroke="#DBFF00" stroke-width="4" id="dhtGLA"/>
<path d="M379 134.5H391.5" stroke="#DBFF00" stroke-width="4" id="dvMSTOSS04"/>
<path d="M439 134.5H426.5" stroke="#DBFF00" stroke-width="4" id="dvMSTOSS05"/>
<path d="M633.5 134.5H646" stroke="#DBFF00" stroke-width="4" id="dvGLASS05"/>



<path d="M25 71.5V59" stroke="#DBFF00" stroke-width="4" id="r1101"/>
<path d="M77 71.5V59" stroke="#DBFF00" stroke-width="4" id="r1201"/>
<path d="M166.5 71.5V59" stroke="#DBFF00" stroke-width="4" id="r1301"/>
<path d="M268.5 71.5V59" stroke="#DBFF00" stroke-width="4" id="r1401"/>
<path d="M358 71.5V59" stroke="#DBFF00" stroke-width="4" id="r1501"/>

<path d="M472.5 71.5V59" stroke="#DBFF00" stroke-width="4" id="r1102"/>
<path d="M599.5 71.5V59" stroke="#DBFF00" stroke-width="4" id="r1202"/>
<path d="M701.5 71.5V59" stroke="#DBFF00" stroke-width="4" id="r1302"/>
<path d="M791 71.5V59" stroke="#DBFF00" stroke-width="4" id="r1402"/>



<path d="M400 84H418" stroke="#DBFF00" stroke-width="14.5" stroke-dasharray="3.5 3.5" id="IITSS05SS06"/>
<path d="M405 167L409 161L412.5 167H405Z" fill="#DBFF00" id="prMSTO"/>
<path d="M405 160H412.5V161H405V160Z" fill="#DBFF00" id="prMSTO"/>
<path d="M659.5 167L663.5 161L667 167H659.5Z" fill="#DBFF00" id="prGLA"/>
<path d="M659.5 160H667V161H659.5V160Z" fill="#DBFF00" id="prGLA"/>



<path d="M409 204.5V192" stroke="#FFAE35" id="inMSTO"/>
<path d="M409 179.5V167" stroke="#FFAE35" id="outDHTMSTO"/>
<path d="M409 160V135" stroke="#FFAE35" id="outPRMSTO"/>
<path d="M391.5 134.5H409.5" stroke="#FFAE35" id="outPRMSTO"/>
<path d="M426.5 134.5H408.5" stroke="#FFAE35" id="outPRMSTO"/>
<path d="M361 135V85" stroke="#FFAE35" id="alimSS04MSTO"/>
<path d="M361 134.5H379" stroke="#FFAE35" id="alimSS04MSTO"/>
<path d="M457 135V85" stroke="#FFAE35" id="alimSS05MSTO"/>
<path d="M457 134.5H439" stroke="#FFAE35" id="alimSS05MSTO"/>
<path d="M663.5 204.5V192" stroke="#FFAE35" id="inGLA"/>
<path d="M663.5 179.5V167" stroke="#FFAE35" id="outDHTGLA"/>
<path d="M663.5 160V135" stroke="#FFAE35" id="outPRGLA"/>
<path d="M646 134.5H664" stroke="#FFAE35" id="outPRGLA"/>
<path d="M615.5 135V85" stroke="#FFAE35" id="alimSS05GLA"/>
<path d="M615.5 134.5H633.5" stroke="#FFAE35" id="alimSS05GLA"/>


<path d="M387.746 188.5H385.941V183.409H387.761C388.273 183.409 388.714 183.511 389.083 183.715C389.453 183.917 389.737 184.208 389.936 184.587C390.136 184.967 390.237 185.421 390.237 185.95C390.237 186.48 390.136 186.936 389.936 187.317C389.737 187.698 389.451 187.99 389.078 188.194C388.707 188.398 388.263 188.5 387.746 188.5ZM387.018 187.578H387.701C388.019 187.578 388.287 187.521 388.504 187.409C388.723 187.294 388.887 187.118 388.996 186.879C389.107 186.639 389.163 186.329 389.163 185.95C389.163 185.573 389.107 185.266 388.996 185.027C388.887 184.789 388.724 184.613 388.507 184.5C388.29 184.388 388.022 184.331 387.704 184.331H387.018V187.578ZM390.789 188.5V183.409H391.865V185.51H394.05V183.409H395.124V188.5H394.05V186.397H391.865V188.5H390.789ZM395.573 184.297V183.409H399.754V184.297H398.195V188.5H397.131V184.297H395.573Z" fill="#A7A7A7"/>
<path d="M642.246 188.5H640.441V183.409H642.261C642.773 183.409 643.214 183.511 643.583 183.715C643.953 183.917 644.237 184.208 644.436 184.587C644.636 184.967 644.737 185.421 644.737 185.95C644.737 186.48 644.636 186.936 644.436 187.317C644.237 187.698 643.951 187.99 643.578 188.194C643.207 188.398 642.763 188.5 642.246 188.5ZM641.518 187.578H642.201C642.519 187.578 642.787 187.521 643.004 187.409C643.223 187.294 643.387 187.118 643.496 186.879C643.607 186.639 643.663 186.329 643.663 185.95C643.663 185.573 643.607 185.266 643.496 185.027C643.387 184.789 643.224 184.613 643.007 184.5C642.79 184.388 642.522 184.331 642.204 184.331H641.518V187.578ZM645.289 188.5V183.409H646.365V185.51H648.55V183.409H649.624V188.5H648.55V186.397H646.365V188.5H645.289ZM650.073 184.297V183.409H654.254V184.297H652.695V188.5H651.631V184.297H650.073Z" fill="#A7A7A7"/>
<path d="M391.561 167V161.909H393.57C393.956 161.909 394.285 161.983 394.557 162.13C394.829 162.276 395.036 162.479 395.178 162.739C395.323 162.998 395.395 163.296 395.395 163.634C395.395 163.972 395.322 164.271 395.176 164.529C395.03 164.788 394.819 164.989 394.542 165.133C394.267 165.277 393.934 165.349 393.543 165.349H392.262V164.487H393.369C393.576 164.487 393.747 164.451 393.881 164.38C394.017 164.307 394.118 164.207 394.184 164.079C394.252 163.95 394.286 163.802 394.286 163.634C394.286 163.465 394.252 163.318 394.184 163.192C394.118 163.064 394.017 162.966 393.881 162.896C393.745 162.825 393.573 162.789 393.364 162.789H392.638V167H391.561ZM395.849 167V161.909H397.857C398.242 161.909 398.57 161.978 398.842 162.115C399.115 162.251 399.323 162.444 399.466 162.695C399.61 162.943 399.682 163.236 399.682 163.572C399.682 163.91 399.609 164.201 399.463 164.445C399.317 164.687 399.106 164.872 398.829 165.001C398.554 165.131 398.221 165.195 397.83 165.195H396.485V164.33H397.656C397.861 164.33 398.032 164.302 398.168 164.246C398.304 164.189 398.405 164.105 398.471 163.992C398.539 163.879 398.573 163.739 398.573 163.572C398.573 163.403 398.539 163.261 398.471 163.145C398.405 163.029 398.303 162.941 398.165 162.881C398.03 162.82 397.858 162.789 397.651 162.789H396.925V167H395.849ZM398.598 164.683L399.863 167H398.675L397.437 164.683H398.598Z" fill="#A7A7A7"/>
<path d="M646.061 167V161.909H648.07C648.456 161.909 648.785 161.983 649.057 162.13C649.329 162.276 649.536 162.479 649.678 162.739C649.823 162.998 649.895 163.296 649.895 163.634C649.895 163.972 649.822 164.271 649.676 164.529C649.53 164.788 649.319 164.989 649.042 165.133C648.767 165.277 648.434 165.349 648.043 165.349H646.762V164.487H647.869C648.076 164.487 648.247 164.451 648.381 164.38C648.517 164.307 648.618 164.207 648.684 164.079C648.752 163.95 648.786 163.802 648.786 163.634C648.786 163.465 648.752 163.318 648.684 163.192C648.618 163.064 648.517 162.966 648.381 162.896C648.245 162.825 648.073 162.789 647.864 162.789H647.138V167H646.061ZM650.349 167V161.909H652.357C652.742 161.909 653.07 161.978 653.342 162.115C653.615 162.251 653.823 162.444 653.966 162.695C654.11 162.943 654.182 163.236 654.182 163.572C654.182 163.91 654.109 164.201 653.963 164.445C653.817 164.687 653.606 164.872 653.329 165.001C653.054 165.131 652.721 165.195 652.33 165.195H650.985V164.33H652.156C652.361 164.33 652.532 164.302 652.668 164.246C652.804 164.189 652.905 164.105 652.971 163.992C653.039 163.879 653.073 163.739 653.073 163.572C653.073 163.403 653.039 163.261 652.971 163.145C652.905 163.029 652.803 162.941 652.665 162.881C652.53 162.82 652.358 162.789 652.151 162.789H651.425V167H650.349ZM653.098 164.683L654.363 167H653.175L651.937 164.683H653.098Z" fill="#A7A7A7"/>
<rect x="834.5" y="71.5" width="33" height="25" stroke="#FF0000" stroke-width="3"/>
</svg>
