<svg width="408" height="138" viewBox="0 0 408 138" fill="none" xmlns="http://www.w3.org/2000/svg" id="SECTION1">
                <g clip-path="url(#clip0_549_1496)">
                <rect width="50" height="18" transform="matrix(1 0 0 -1 0 138)" fill="#707070" name="1101" id="1"/>
                <rect width="50" height="18" transform="matrix(1 0 0 -1 52 138)" fill="#707070" name="1201" id="2"/>
                <rect width="25" height="18" transform="matrix(1 0 0 -1 104 138)" fill="#707070" name="1301A" id="3"/>
                <rect width="75" height="18" transform="matrix(1 0 0 -1 129 138)" fill="#707070" name="1301B" id="4"/>
                <rect width="25" height="18" transform="matrix(1 0 0 -1 204 138)" fill="#707070" name="1301C" id="5"/>
                <rect width="75" height="18" transform="matrix(1 0 0 -1 231 138)" fill="#707070" name="1401" id="6"/>
                <rect x="308" y="120" width="100" height="18" fill="#707070" name="1501" id="7"/>
                <rect x="308" width="100" height="18" fill="#707070" name="2101" id="8"/>
                <rect x="231" width="75" height="18" fill="#707070" name="2201" id="9"/>
                <rect x="104" width="25" height="18" fill="#707070" name="2301A" id="10"/>
                <rect x="129" width="75" height="18" fill="#707070" name="2301B" id="11"/>
                <rect x="204" width="25" height="18" fill="#707070" name="2301C" id="12"/>
                <rect x="52" width="50" height="18" fill="#707070" name="2401" id="13"/>
                <rect width="50" height="18" fill="#707070" name="2401" id="14"/>

                <path d="M157.5 43L129 18V0L175 43H157.5Z" fill="#707070" name="2301A1" id="17"/>
                <path d="M175.5 43L204 18V0L158 43H175.5Z" fill="#707070" name="2301A2" id="18"/>
                <path d="M175.5 95L204 120V138L158 95H175.5Z" fill="#707070" name="1301A1" id="15"/>
                <path d="M157.5 95L129 120V138L175 95H157.5Z" fill="#707070" name="1301A2" id="16"/>
                <rect x="157.5" y="95" width="25" height="18" transform="rotate(-90 157.5 95)" fill="#707070" name="C1BOT" id="19"/>
                <rect x="157.5" y="68" width="25" height="18" transform="rotate(-90 157.5 68)" fill="#707070" name="C1TOP" id="20"/>
                <path d="M139.459 62.4444H147.541V68H139.459V62.4444Z" fill="#707070" name="C1MA" id="21"/>
                <path d="M143.5 43L150.5 62.4444H136.5L143.5 43Z" fill="#707070" name="C1MB" id="22"/>
                <path d="M139.459 75.5556H147.541V70H139.459V75.5556Z" fill="#707070" name="C1DA" id="23"/>
                <path d="M143.5 95L150.5 75.5556H136.5L143.5 95Z" fill="#707070" name="C1DB" id="24"/>

                <rect x="218" y="50" width="101" height="36" fill="#3A3A3A"/>
                <path d="M243.667 55.9091H245.332L248.226 62.9759H248.332L251.226 55.9091H252.891V65H251.586V58.4215H251.502L248.821 64.9867H247.737L245.056 58.4171H244.972V65H243.667V55.9091ZM256.325 65.1509C255.893 65.1509 255.503 65.071 255.154 64.9112C254.804 64.7485 254.528 64.5132 254.323 64.2054C254.122 63.8977 254.022 63.5204 254.022 63.0735C254.022 62.6888 254.096 62.3722 254.244 62.1236C254.392 61.875 254.591 61.6782 254.843 61.5332C255.094 61.3882 255.375 61.2787 255.686 61.2047C255.997 61.1307 256.314 61.0745 256.636 61.036C257.045 60.9887 257.376 60.9502 257.63 60.9206C257.885 60.8881 258.07 60.8363 258.185 60.7653C258.301 60.6942 258.358 60.5788 258.358 60.419V60.388C258.358 60.0003 258.249 59.6999 258.03 59.4869C257.814 59.2738 257.491 59.1673 257.062 59.1673C256.615 59.1673 256.263 59.2664 256.006 59.4647C255.751 59.66 255.575 59.8775 255.478 60.1172L254.23 59.8331C254.378 59.4188 254.594 59.0844 254.878 58.8299C255.165 58.5724 255.495 58.386 255.868 58.2706C256.241 58.1522 256.633 58.093 257.045 58.093C257.317 58.093 257.605 58.1256 257.91 58.1907C258.218 58.2528 258.505 58.3683 258.771 58.5369C259.041 58.7056 259.261 58.9468 259.433 59.2605C259.604 59.5712 259.69 59.9751 259.69 60.4723V65H258.394V64.0678H258.341C258.255 64.2395 258.126 64.4081 257.954 64.5739C257.783 64.7396 257.562 64.8772 257.293 64.9867C257.024 65.0962 256.701 65.1509 256.325 65.1509ZM256.614 64.0856C256.981 64.0856 257.295 64.0131 257.555 63.8681C257.818 63.7231 258.018 63.5337 258.154 63.2999C258.293 63.0632 258.363 62.8101 258.363 62.5408V61.6619C258.316 61.7093 258.224 61.7537 258.088 61.7951C257.954 61.8336 257.802 61.8676 257.63 61.8972C257.459 61.9238 257.292 61.949 257.129 61.9727C256.966 61.9934 256.83 62.0111 256.72 62.0259C256.463 62.0585 256.228 62.1132 256.015 62.1902C255.805 62.2671 255.636 62.3781 255.509 62.5231C255.384 62.6651 255.322 62.8545 255.322 63.0913C255.322 63.4197 255.444 63.6683 255.686 63.837C255.929 64.0027 256.238 64.0856 256.614 64.0856ZM261.02 65V58.1818H262.348V65H261.02ZM261.691 57.1298C261.46 57.1298 261.262 57.0529 261.096 56.899C260.933 56.7421 260.852 56.5557 260.852 56.3397C260.852 56.1207 260.933 55.9342 261.096 55.7804C261.262 55.6235 261.46 55.5451 261.691 55.5451C261.921 55.5451 262.118 55.6235 262.281 55.7804C262.447 55.9342 262.53 56.1207 262.53 56.3397C262.53 56.5557 262.447 56.7421 262.281 56.899C262.118 57.0529 261.921 57.1298 261.691 57.1298ZM263.696 65V58.1818H264.979V59.2649H265.05C265.174 58.898 265.393 58.6094 265.707 58.3993C266.023 58.1863 266.381 58.0797 266.781 58.0797C266.864 58.0797 266.961 58.0827 267.074 58.0886C267.189 58.0945 267.279 58.1019 267.344 58.1108V59.3803C267.291 59.3655 267.197 59.3493 267.06 59.3315C266.924 59.3108 266.788 59.3004 266.652 59.3004C266.338 59.3004 266.059 59.367 265.813 59.5002C265.57 59.6304 265.378 59.8124 265.236 60.0462C265.094 60.277 265.023 60.5404 265.023 60.8363V65H263.696ZM268.056 65V58.1818H269.383V65H268.056ZM268.726 57.1298C268.495 57.1298 268.297 57.0529 268.131 56.899C267.968 56.7421 267.887 56.5557 267.887 56.3397C267.887 56.1207 267.968 55.9342 268.131 55.7804C268.297 55.6235 268.495 55.5451 268.726 55.5451C268.957 55.5451 269.153 55.6235 269.316 55.7804C269.482 55.9342 269.565 56.1207 269.565 56.3397C269.565 56.5557 269.482 56.7421 269.316 56.899C269.153 57.0529 268.957 57.1298 268.726 57.1298ZM273.669 65.1376C272.998 65.1376 272.419 64.9941 271.934 64.707C271.451 64.417 271.079 64.0101 270.815 63.4863C270.555 62.9596 270.425 62.3426 270.425 61.6353C270.425 60.9369 270.555 60.3214 270.815 59.7887C271.079 59.256 271.446 58.8403 271.916 58.5414C272.39 58.2425 272.943 58.093 273.576 58.093C273.961 58.093 274.334 58.1567 274.695 58.2839C275.056 58.4112 275.38 58.6109 275.667 58.8832C275.954 59.1554 276.18 59.5091 276.346 59.9441C276.512 60.3761 276.595 60.9014 276.595 61.5199V61.9904H271.175V60.9961H275.294C275.294 60.6469 275.223 60.3377 275.081 60.0684C274.939 59.7961 274.739 59.5816 274.482 59.4247C274.227 59.2679 273.928 59.1895 273.585 59.1895C273.212 59.1895 272.887 59.2812 272.609 59.4647C272.333 59.6452 272.12 59.8819 271.969 60.1749C271.821 60.4649 271.747 60.7801 271.747 61.1204V61.8972C271.747 62.3529 271.827 62.7406 271.987 63.0602C272.15 63.3798 272.376 63.6239 272.666 63.7926C272.956 63.9583 273.295 64.0412 273.683 64.0412C273.934 64.0412 274.164 64.0057 274.371 63.9347C274.578 63.8607 274.757 63.7512 274.908 63.6062C275.059 63.4612 275.174 63.2821 275.254 63.0691L276.51 63.2955C276.41 63.6654 276.229 63.9894 275.969 64.2676C275.711 64.5428 275.387 64.7573 274.997 64.9112C274.609 65.0621 274.167 65.1376 273.669 65.1376ZM283.053 65.1332C282.502 65.1332 282.011 64.9926 281.579 64.7115C281.15 64.4274 280.813 64.0234 280.567 63.4996C280.324 62.9729 280.203 62.3411 280.203 61.6042C280.203 60.8674 280.326 60.237 280.571 59.7132C280.82 59.1895 281.16 58.7885 281.592 58.5103C282.024 58.2321 282.514 58.093 283.062 58.093C283.485 58.093 283.825 58.1641 284.083 58.3061C284.343 58.4452 284.544 58.608 284.686 58.7944C284.831 58.9808 284.944 59.1451 285.024 59.2871H285.104V55.9091H286.431V65H285.135V63.9391H285.024C284.944 64.0841 284.828 64.2498 284.677 64.4363C284.529 64.6227 284.325 64.7855 284.065 64.9245C283.804 65.0636 283.467 65.1332 283.053 65.1332ZM283.346 64.0012C283.727 64.0012 284.05 63.9006 284.313 63.6994C284.58 63.4952 284.781 63.2126 284.917 62.8516C285.056 62.4905 285.126 62.0703 285.126 61.5909C285.126 61.1174 285.058 60.7031 284.922 60.348C284.785 59.9929 284.586 59.7162 284.322 59.5179C284.059 59.3197 283.733 59.2205 283.346 59.2205C282.946 59.2205 282.613 59.3241 282.347 59.5312C282.081 59.7384 281.879 60.021 281.743 60.3791C281.61 60.7372 281.544 61.1411 281.544 61.5909C281.544 62.0466 281.612 62.4565 281.748 62.8205C281.884 63.1845 282.085 63.473 282.351 63.6861C282.621 63.8962 282.952 64.0012 283.346 64.0012ZM290.826 65.1376C290.154 65.1376 289.576 64.9941 289.091 64.707C288.608 64.417 288.235 64.0101 287.972 63.4863C287.712 62.9596 287.581 62.3426 287.581 61.6353C287.581 60.9369 287.712 60.3214 287.972 59.7887C288.235 59.256 288.602 58.8403 289.073 58.5414C289.546 58.2425 290.1 58.093 290.733 58.093C291.118 58.093 291.491 58.1567 291.852 58.2839C292.213 58.4112 292.537 58.6109 292.824 58.8832C293.111 59.1554 293.337 59.5091 293.503 59.9441C293.669 60.3761 293.751 60.9014 293.751 61.5199V61.9904H288.331V60.9961H292.451C292.451 60.6469 292.38 60.3377 292.238 60.0684C292.096 59.7961 291.896 59.5816 291.638 59.4247C291.384 59.2679 291.085 59.1895 290.742 59.1895C290.369 59.1895 290.043 59.2812 289.765 59.4647C289.49 59.6452 289.277 59.8819 289.126 60.1749C288.978 60.4649 288.904 60.7801 288.904 61.1204V61.8972C288.904 62.3529 288.984 62.7406 289.144 63.0602C289.307 63.3798 289.533 63.6239 289.823 63.7926C290.113 63.9583 290.452 64.0412 290.839 64.0412C291.091 64.0412 291.32 64.0057 291.527 63.9347C291.735 63.8607 291.914 63.7512 292.065 63.6062C292.216 63.4612 292.331 63.2821 292.411 63.0691L293.667 63.2955C293.566 63.6654 293.386 63.9894 293.126 64.2676C292.868 64.5428 292.544 64.7573 292.153 64.9112C291.766 65.0621 291.323 65.1376 290.826 65.1376ZM242.527 73.2972C242.48 72.877 242.284 72.5515 241.941 72.3207C241.598 72.0869 241.166 71.97 240.645 71.97C240.272 71.97 239.949 72.0292 239.677 72.1475C239.405 72.263 239.193 72.4228 239.042 72.627C238.894 72.8282 238.82 73.0575 238.82 73.315C238.82 73.531 238.871 73.7174 238.971 73.8743C239.075 74.0311 239.21 74.1628 239.375 74.2694C239.544 74.3729 239.724 74.4602 239.917 74.5312C240.109 74.5993 240.294 74.6555 240.472 74.6999L241.359 74.9308C241.649 75.0018 241.947 75.098 242.252 75.2193C242.556 75.3406 242.839 75.5004 243.099 75.6987C243.36 75.897 243.57 76.1426 243.73 76.4355C243.893 76.7285 243.974 77.0792 243.974 77.4876C243.974 78.0025 243.841 78.4597 243.574 78.8592C243.311 79.2587 242.928 79.5739 242.425 79.8047C241.925 80.0355 241.319 80.1509 240.609 80.1509C239.929 80.1509 239.34 80.0429 238.843 79.8269C238.345 79.6109 237.956 79.3046 237.675 78.908C237.394 78.5085 237.239 78.035 237.209 77.4876H238.585C238.612 77.8161 238.718 78.0898 238.905 78.3088C239.094 78.5248 239.335 78.6861 239.628 78.7926C239.924 78.8962 240.248 78.948 240.6 78.948C240.988 78.948 241.333 78.8873 241.635 78.766C241.939 78.6417 242.179 78.4701 242.354 78.2511C242.528 78.0291 242.616 77.7702 242.616 77.4743C242.616 77.205 242.539 76.9845 242.385 76.8129C242.234 76.6412 242.028 76.4992 241.768 76.3867C241.51 76.2743 241.219 76.1751 240.893 76.0893L239.819 75.7963C239.091 75.5981 238.514 75.3066 238.088 74.9219C237.665 74.5372 237.453 74.0282 237.453 73.3949C237.453 72.8711 237.595 72.4139 237.879 72.0233C238.163 71.6326 238.548 71.3293 239.033 71.1133C239.519 70.8943 240.066 70.7848 240.676 70.7848C241.291 70.7848 241.834 70.8928 242.305 71.1088C242.778 71.3249 243.151 71.6223 243.424 72.0011C243.696 72.3769 243.838 72.8089 243.85 73.2972H242.527ZM247.053 80.1509C246.621 80.1509 246.23 80.071 245.881 79.9112C245.532 79.7485 245.255 79.5132 245.051 79.2054C244.85 78.8977 244.749 78.5204 244.749 78.0735C244.749 77.6888 244.823 77.3722 244.971 77.1236C245.119 76.875 245.319 76.6782 245.571 76.5332C245.822 76.3882 246.103 76.2787 246.414 76.2047C246.725 76.1307 247.041 76.0745 247.364 76.036C247.772 75.9887 248.104 75.9502 248.358 75.9206C248.613 75.8881 248.798 75.8363 248.913 75.7653C249.028 75.6942 249.086 75.5788 249.086 75.419V75.388C249.086 75.0003 248.977 74.6999 248.758 74.4869C248.542 74.2738 248.219 74.1673 247.79 74.1673C247.343 74.1673 246.991 74.2664 246.734 74.4647C246.479 74.66 246.303 74.8775 246.205 75.1172L244.958 74.8331C245.106 74.4188 245.322 74.0844 245.606 73.8299C245.893 73.5724 246.223 73.386 246.596 73.2706C246.969 73.1522 247.361 73.093 247.772 73.093C248.045 73.093 248.333 73.1256 248.638 73.1907C248.946 73.2528 249.233 73.3683 249.499 73.5369C249.768 73.7056 249.989 73.9468 250.16 74.2605C250.332 74.5712 250.418 74.9751 250.418 75.4723V80H249.122V79.0678H249.068C248.983 79.2395 248.854 79.4081 248.682 79.5739C248.511 79.7396 248.29 79.8772 248.021 79.9867C247.752 80.0962 247.429 80.1509 247.053 80.1509ZM247.342 79.0856C247.709 79.0856 248.022 79.0131 248.283 78.8681C248.546 78.7231 248.746 78.5337 248.882 78.2999C249.021 78.0632 249.091 77.8101 249.091 77.5408V76.6619C249.043 76.7093 248.952 76.7537 248.815 76.7951C248.682 76.8336 248.53 76.8676 248.358 76.8972C248.187 76.9238 248.019 76.949 247.857 76.9727C247.694 76.9934 247.558 77.0111 247.448 77.0259C247.191 77.0585 246.956 77.1132 246.742 77.1902C246.532 77.2671 246.364 77.3781 246.236 77.5231C246.112 77.6651 246.05 77.8545 246.05 78.0913C246.05 78.4197 246.171 78.6683 246.414 78.837C246.657 79.0027 246.966 79.0856 247.342 79.0856ZM251.748 80V73.1818H253.075V80H251.748ZM252.418 72.1298C252.188 72.1298 251.989 72.0529 251.824 71.899C251.661 71.7421 251.58 71.5557 251.58 71.3397C251.58 71.1207 251.661 70.9342 251.824 70.7804C251.989 70.6235 252.188 70.5451 252.418 70.5451C252.649 70.5451 252.846 70.6235 253.009 70.7804C253.175 70.9342 253.257 71.1207 253.257 71.3397C253.257 71.5557 253.175 71.7421 253.009 71.899C252.846 72.0529 252.649 72.1298 252.418 72.1298ZM255.751 75.9517V80H254.423V73.1818H255.697V74.2915H255.782C255.939 73.9305 256.184 73.6405 256.519 73.4215C256.856 73.2025 257.281 73.093 257.793 73.093C258.257 73.093 258.664 73.1907 259.013 73.386C259.363 73.5784 259.633 73.8654 259.826 74.2472C260.018 74.6289 260.114 75.1009 260.114 75.6632V80H258.787V75.823C258.787 75.3288 258.658 74.9426 258.401 74.6644C258.143 74.3833 257.79 74.2427 257.34 74.2427C257.032 74.2427 256.758 74.3093 256.519 74.4425C256.282 74.5756 256.094 74.771 255.955 75.0284C255.819 75.2829 255.751 75.5907 255.751 75.9517ZM264.639 73.1818V74.2472H260.915V73.1818H264.639ZM261.914 71.5483H263.241V77.998C263.241 78.2555 263.28 78.4493 263.357 78.5795C263.433 78.7068 263.533 78.7941 263.654 78.8414C263.778 78.8858 263.913 78.908 264.058 78.908C264.164 78.908 264.258 78.9006 264.338 78.8858C264.417 78.871 264.48 78.8592 264.524 78.8503L264.764 79.9467C264.687 79.9763 264.577 80.0059 264.435 80.0355C264.293 80.0681 264.116 80.0858 263.903 80.0888C263.553 80.0947 263.228 80.0326 262.926 79.9023C262.624 79.7721 262.38 79.5709 262.194 79.2987C262.007 79.0264 261.914 78.6846 261.914 78.2733V71.5483ZM269.455 75.5833V76.733H265.425V75.5833H269.455ZM278.79 75.4545C278.79 76.4252 278.613 77.2597 278.257 77.9581C277.902 78.6535 277.416 79.1892 276.797 79.565C276.182 79.9379 275.482 80.1243 274.697 80.1243C273.91 80.1243 273.207 79.9379 272.589 79.565C271.973 79.1892 271.488 78.652 271.133 77.9537C270.778 77.2553 270.6 76.4222 270.6 75.4545C270.6 74.4839 270.778 73.6509 271.133 72.9554C271.488 72.257 271.973 71.7214 272.589 71.3485C273.207 70.9727 273.91 70.7848 274.697 70.7848C275.482 70.7848 276.182 70.9727 276.797 71.3485C277.416 71.7214 277.902 72.257 278.257 72.9554C278.613 73.6509 278.79 74.4839 278.79 75.4545ZM277.432 75.4545C277.432 74.7147 277.312 74.0918 277.072 73.5858C276.836 73.0768 276.51 72.6921 276.096 72.4316C275.684 72.1683 275.218 72.0366 274.697 72.0366C274.174 72.0366 273.706 72.1683 273.295 72.4316C272.883 72.6921 272.558 73.0768 272.318 73.5858C272.081 74.0918 271.963 74.7147 271.963 75.4545C271.963 76.1944 272.081 76.8188 272.318 77.3278C272.558 77.8338 272.883 78.2185 273.295 78.4819C273.706 78.7423 274.174 78.8725 274.697 78.8725C275.218 78.8725 275.684 78.7423 276.096 78.4819C276.51 78.2185 276.836 77.8338 277.072 77.3278C277.312 76.8188 277.432 76.1944 277.432 75.4545ZM284.275 77.1724V73.1818H285.607V80H284.302V78.8192H284.231C284.074 79.1832 283.822 79.4866 283.476 79.7292C283.133 79.9689 282.705 80.0888 282.193 80.0888C281.755 80.0888 281.368 79.9926 281.03 79.8002C280.696 79.6049 280.433 79.3164 280.24 78.9347C280.051 78.5529 279.956 78.0809 279.956 77.5186V73.1818H281.283V77.3588C281.283 77.8234 281.412 78.1934 281.67 78.4686C281.927 78.7438 282.261 78.8814 282.673 78.8814C282.921 78.8814 283.168 78.8192 283.414 78.695C283.663 78.5707 283.868 78.3828 284.031 78.1312C284.197 77.8797 284.278 77.5601 284.275 77.1724ZM289.891 80.1376C289.22 80.1376 288.641 79.9941 288.156 79.707C287.673 79.417 287.3 79.0101 287.037 78.4863C286.777 77.9596 286.646 77.3426 286.646 76.6353C286.646 75.9369 286.777 75.3214 287.037 74.7887C287.3 74.256 287.667 73.8403 288.138 73.5414C288.611 73.2425 289.165 73.093 289.798 73.093C290.183 73.093 290.556 73.1567 290.917 73.2839C291.278 73.4112 291.602 73.6109 291.889 73.8832C292.176 74.1554 292.402 74.5091 292.568 74.9441C292.734 75.3761 292.817 75.9014 292.817 76.5199V76.9904H287.397V75.9961H291.516C291.516 75.6469 291.445 75.3377 291.303 75.0684C291.161 74.7961 290.961 74.5816 290.704 74.4247C290.449 74.2679 290.15 74.1895 289.807 74.1895C289.434 74.1895 289.109 74.2812 288.83 74.4647C288.555 74.6452 288.342 74.8819 288.191 75.1749C288.043 75.4649 287.969 75.7801 287.969 76.1204V76.8972C287.969 77.3529 288.049 77.7406 288.209 78.0602C288.372 78.3798 288.598 78.6239 288.888 78.7926C289.178 78.9583 289.517 79.0412 289.905 79.0412C290.156 79.0412 290.386 79.0057 290.593 78.9347C290.8 78.8607 290.979 78.7512 291.13 78.6062C291.281 78.4612 291.396 78.2821 291.476 78.0691L292.732 78.2955C292.632 78.6654 292.451 78.9894 292.191 79.2676C291.933 79.5428 291.609 79.7573 291.219 79.9112C290.831 80.0621 290.388 80.1376 289.891 80.1376ZM295.179 75.9517V80H293.852V73.1818H295.126V74.2915H295.21C295.367 73.9305 295.612 73.6405 295.947 73.4215C296.284 73.2025 296.709 73.093 297.221 73.093C297.685 73.093 298.092 73.1907 298.442 73.386C298.791 73.5784 299.062 73.8654 299.254 74.2472C299.446 74.6289 299.542 75.1009 299.542 75.6632V80H298.215V75.823C298.215 75.3288 298.086 74.9426 297.829 74.6644C297.572 74.3833 297.218 74.2427 296.768 74.2427C296.46 74.2427 296.187 74.3093 295.947 74.4425C295.71 74.5756 295.522 74.771 295.383 75.0284C295.247 75.2829 295.179 75.5907 295.179 75.9517Z" fill="#FEFFC1"/>
                <rect x="232.25" y="89.25" width="21.5" height="21.5" fill="#6B6B6B" stroke="#4A4A4A" stroke-width="1.5"/>
                <rect x="257.75" y="89.25" width="21.5" height="21.5" fill="#6B6B6B" stroke="#4A4A4A" stroke-width="1.5"/>
                <rect x="283.25" y="89.25" width="21.5" height="21.5" fill="#6B6B6B" stroke="#4A4A4A" stroke-width="1.5"/>
                <path d="M234.945 103V97.2734H236.918C237.363 97.2734 237.703 97.3008 237.938 97.3555C238.266 97.431 238.546 97.5677 238.777 97.7656C239.079 98.0208 239.305 98.3477 239.453 98.7461C239.604 99.1419 239.68 99.5951 239.68 100.105C239.68 100.54 239.629 100.926 239.527 101.262C239.426 101.598 239.296 101.876 239.137 102.098C238.978 102.316 238.803 102.49 238.613 102.617C238.426 102.742 238.198 102.837 237.93 102.902C237.664 102.967 237.358 103 237.012 103H234.945ZM235.703 102.324H236.926C237.303 102.324 237.599 102.289 237.812 102.219C238.029 102.148 238.201 102.049 238.328 101.922C238.508 101.742 238.647 101.501 238.746 101.199C238.848 100.895 238.898 100.526 238.898 100.094C238.898 99.4948 238.799 99.0352 238.602 98.7148C238.406 98.3919 238.168 98.1758 237.887 98.0664C237.684 97.9883 237.357 97.9492 236.906 97.9492H235.703V102.324ZM240.469 101.16L241.184 101.098C241.217 101.384 241.296 101.62 241.418 101.805C241.543 101.987 241.736 102.135 241.996 102.25C242.257 102.362 242.549 102.418 242.875 102.418C243.164 102.418 243.419 102.375 243.641 102.289C243.862 102.203 244.026 102.086 244.133 101.938C244.242 101.786 244.297 101.622 244.297 101.445C244.297 101.266 244.245 101.109 244.141 100.977C244.036 100.841 243.865 100.728 243.625 100.637C243.471 100.577 243.132 100.484 242.605 100.359C242.079 100.232 241.711 100.112 241.5 100C241.227 99.8568 241.022 99.6797 240.887 99.4688C240.754 99.2552 240.688 99.0169 240.688 98.7539C240.688 98.4648 240.77 98.1953 240.934 97.9453C241.098 97.6927 241.337 97.5013 241.652 97.3711C241.967 97.2409 242.318 97.1758 242.703 97.1758C243.128 97.1758 243.501 97.2448 243.824 97.3828C244.15 97.5182 244.4 97.7188 244.574 97.9844C244.749 98.25 244.842 98.5508 244.855 98.8867L244.129 98.9414C244.09 98.5794 243.957 98.306 243.73 98.1211C243.507 97.9362 243.174 97.8438 242.734 97.8438C242.276 97.8438 241.941 97.9284 241.73 98.0977C241.522 98.2643 241.418 98.4661 241.418 98.7031C241.418 98.9089 241.492 99.0781 241.641 99.2109C241.786 99.3438 242.167 99.4805 242.781 99.6211C243.398 99.7591 243.822 99.8802 244.051 99.9844C244.384 100.138 244.63 100.333 244.789 100.57C244.948 100.805 245.027 101.076 245.027 101.383C245.027 101.688 244.94 101.975 244.766 102.246C244.591 102.514 244.34 102.724 244.012 102.875C243.686 103.023 243.319 103.098 242.91 103.098C242.392 103.098 241.957 103.022 241.605 102.871C241.257 102.72 240.982 102.493 240.781 102.191C240.583 101.887 240.479 101.543 240.469 101.16ZM245.832 100.211C245.832 99.2604 246.087 98.5169 246.598 97.9805C247.108 97.4414 247.767 97.1719 248.574 97.1719C249.103 97.1719 249.579 97.2982 250.004 97.5508C250.428 97.8034 250.751 98.1562 250.973 98.6094C251.197 99.0599 251.309 99.5716 251.309 100.145C251.309 100.725 251.191 101.245 250.957 101.703C250.723 102.161 250.391 102.509 249.961 102.746C249.531 102.98 249.068 103.098 248.57 103.098C248.031 103.098 247.549 102.967 247.125 102.707C246.701 102.447 246.379 102.091 246.16 101.641C245.941 101.19 245.832 100.714 245.832 100.211ZM246.613 100.223C246.613 100.913 246.798 101.457 247.168 101.855C247.54 102.251 248.007 102.449 248.566 102.449C249.137 102.449 249.605 102.249 249.973 101.848C250.342 101.447 250.527 100.878 250.527 100.141C250.527 99.6745 250.448 99.2682 250.289 98.9219C250.133 98.5729 249.902 98.3034 249.598 98.1133C249.296 97.9206 248.956 97.8242 248.578 97.8242C248.042 97.8242 247.579 98.0091 247.191 98.3789C246.806 98.7461 246.613 99.3607 246.613 100.223Z" fill="black"/>
                <path d="M262.793 103V97.2734H263.551V103H262.793ZM264.801 103V98.8516H265.434V99.4414C265.738 98.9857 266.178 98.7578 266.754 98.7578C267.004 98.7578 267.233 98.8034 267.441 98.8945C267.652 98.9831 267.81 99.1003 267.914 99.2461C268.018 99.3919 268.091 99.5651 268.133 99.7656C268.159 99.8958 268.172 100.124 268.172 100.449V103H267.469V100.477C267.469 100.19 267.441 99.9766 267.387 99.8359C267.332 99.6927 267.234 99.5794 267.094 99.4961C266.956 99.4102 266.793 99.3672 266.605 99.3672C266.306 99.3672 266.047 99.4622 265.828 99.6523C265.612 99.8424 265.504 100.203 265.504 100.734V103H264.801ZM271.961 101.48L272.652 101.57C272.577 102.047 272.383 102.421 272.07 102.691C271.76 102.96 271.379 103.094 270.926 103.094C270.358 103.094 269.901 102.909 269.555 102.539C269.211 102.167 269.039 101.634 269.039 100.941C269.039 100.493 269.113 100.102 269.262 99.7656C269.41 99.4297 269.635 99.1784 269.938 99.0117C270.242 98.8424 270.573 98.7578 270.93 98.7578C271.38 98.7578 271.749 98.8724 272.035 99.1016C272.322 99.3281 272.505 99.651 272.586 100.07L271.902 100.176C271.837 99.8971 271.721 99.6875 271.555 99.5469C271.391 99.4062 271.191 99.3359 270.957 99.3359C270.603 99.3359 270.315 99.4635 270.094 99.7188C269.872 99.9714 269.762 100.372 269.762 100.922C269.762 101.479 269.868 101.884 270.082 102.137C270.296 102.389 270.574 102.516 270.918 102.516C271.194 102.516 271.424 102.431 271.609 102.262C271.794 102.092 271.911 101.832 271.961 101.48ZM273.453 103V102.199H274.254V103H273.453Z" fill="black"/>
                <path d="M286.387 98V92.2734H288.359C288.805 92.2734 289.145 92.3008 289.379 92.3555C289.707 92.431 289.987 92.5677 290.219 92.7656C290.521 93.0208 290.746 93.3477 290.895 93.7461C291.046 94.1419 291.121 94.5951 291.121 95.1055C291.121 95.5404 291.07 95.9258 290.969 96.2617C290.867 96.5977 290.737 96.8763 290.578 97.0977C290.419 97.3164 290.245 97.4896 290.055 97.6172C289.867 97.7422 289.639 97.8372 289.371 97.9023C289.105 97.9674 288.799 98 288.453 98H286.387ZM287.145 97.3242H288.367C288.745 97.3242 289.04 97.2891 289.254 97.2188C289.47 97.1484 289.642 97.0495 289.77 96.9219C289.949 96.7422 290.089 96.5013 290.188 96.1992C290.289 95.8945 290.34 95.526 290.34 95.0938C290.34 94.4948 290.241 94.0352 290.043 93.7148C289.848 93.3919 289.609 93.1758 289.328 93.0664C289.125 92.9883 288.798 92.9492 288.348 92.9492H287.145V97.3242ZM294.918 96.6641L295.645 96.7539C295.53 97.1784 295.318 97.5078 295.008 97.7422C294.698 97.9766 294.302 98.0938 293.82 98.0938C293.214 98.0938 292.732 97.9076 292.375 97.5352C292.021 97.1602 291.844 96.6354 291.844 95.9609C291.844 95.263 292.023 94.7214 292.383 94.3359C292.742 93.9505 293.208 93.7578 293.781 93.7578C294.336 93.7578 294.789 93.9466 295.141 94.3242C295.492 94.7018 295.668 95.2331 295.668 95.918C295.668 95.9596 295.667 96.0221 295.664 96.1055H292.57C292.596 96.5612 292.725 96.9102 292.957 97.1523C293.189 97.3945 293.478 97.5156 293.824 97.5156C294.082 97.5156 294.302 97.4479 294.484 97.3125C294.667 97.1771 294.811 96.9609 294.918 96.6641ZM292.609 95.5273H294.926C294.895 95.1784 294.806 94.9167 294.66 94.7422C294.436 94.4714 294.146 94.3359 293.789 94.3359C293.466 94.3359 293.194 94.444 292.973 94.6602C292.754 94.8763 292.633 95.1654 292.609 95.5273ZM296.25 96.7617L296.945 96.6523C296.984 96.931 297.092 97.1445 297.27 97.293C297.449 97.4414 297.699 97.5156 298.02 97.5156C298.342 97.5156 298.582 97.4505 298.738 97.3203C298.895 97.1875 298.973 97.0326 298.973 96.8555C298.973 96.6966 298.904 96.5716 298.766 96.4805C298.669 96.418 298.43 96.3385 298.047 96.2422C297.531 96.112 297.173 96 296.973 95.9062C296.775 95.8099 296.624 95.6784 296.52 95.5117C296.418 95.3424 296.367 95.1562 296.367 94.9531C296.367 94.7682 296.409 94.5977 296.492 94.4414C296.578 94.2826 296.694 94.151 296.84 94.0469C296.949 93.9661 297.098 93.8984 297.285 93.8438C297.475 93.7865 297.678 93.7578 297.895 93.7578C298.22 93.7578 298.505 93.8047 298.75 93.8984C298.997 93.9922 299.18 94.1198 299.297 94.2812C299.414 94.4401 299.495 94.6536 299.539 94.9219L298.852 95.0156C298.82 94.8021 298.729 94.6354 298.578 94.5156C298.43 94.3958 298.219 94.3359 297.945 94.3359C297.622 94.3359 297.392 94.3893 297.254 94.4961C297.116 94.6029 297.047 94.7279 297.047 94.8711C297.047 94.9622 297.076 95.0443 297.133 95.1172C297.19 95.1927 297.28 95.2552 297.402 95.3047C297.473 95.3307 297.68 95.3906 298.023 95.4844C298.521 95.6172 298.867 95.7266 299.062 95.8125C299.26 95.8958 299.415 96.0182 299.527 96.1797C299.639 96.3411 299.695 96.5417 299.695 96.7812C299.695 97.0156 299.626 97.237 299.488 97.4453C299.353 97.651 299.156 97.8112 298.898 97.9258C298.641 98.0378 298.349 98.0938 298.023 98.0938C297.484 98.0938 297.073 97.9818 296.789 97.7578C296.508 97.5339 296.328 97.2018 296.25 96.7617ZM300.73 98V97.1992H301.531V98H300.73ZM286.68 105.762L287.375 105.652C287.414 105.931 287.522 106.145 287.699 106.293C287.879 106.441 288.129 106.516 288.449 106.516C288.772 106.516 289.012 106.451 289.168 106.32C289.324 106.188 289.402 106.033 289.402 105.855C289.402 105.697 289.333 105.572 289.195 105.48C289.099 105.418 288.859 105.339 288.477 105.242C287.961 105.112 287.603 105 287.402 104.906C287.204 104.81 287.053 104.678 286.949 104.512C286.848 104.342 286.797 104.156 286.797 103.953C286.797 103.768 286.839 103.598 286.922 103.441C287.008 103.283 287.124 103.151 287.27 103.047C287.379 102.966 287.527 102.898 287.715 102.844C287.905 102.786 288.108 102.758 288.324 102.758C288.65 102.758 288.935 102.805 289.18 102.898C289.427 102.992 289.609 103.12 289.727 103.281C289.844 103.44 289.924 103.654 289.969 103.922L289.281 104.016C289.25 103.802 289.159 103.635 289.008 103.516C288.859 103.396 288.648 103.336 288.375 103.336C288.052 103.336 287.822 103.389 287.684 103.496C287.546 103.603 287.477 103.728 287.477 103.871C287.477 103.962 287.505 104.044 287.562 104.117C287.62 104.193 287.71 104.255 287.832 104.305C287.902 104.331 288.109 104.391 288.453 104.484C288.951 104.617 289.297 104.727 289.492 104.812C289.69 104.896 289.845 105.018 289.957 105.18C290.069 105.341 290.125 105.542 290.125 105.781C290.125 106.016 290.056 106.237 289.918 106.445C289.783 106.651 289.586 106.811 289.328 106.926C289.07 107.038 288.779 107.094 288.453 107.094C287.914 107.094 287.503 106.982 287.219 106.758C286.938 106.534 286.758 106.202 286.68 105.762ZM290.961 108.59V102.852H291.602V103.391C291.753 103.18 291.923 103.022 292.113 102.918C292.303 102.811 292.534 102.758 292.805 102.758C293.159 102.758 293.471 102.849 293.742 103.031C294.013 103.214 294.217 103.471 294.355 103.805C294.493 104.135 294.562 104.499 294.562 104.895C294.562 105.319 294.486 105.702 294.332 106.043C294.181 106.382 293.96 106.642 293.668 106.824C293.379 107.004 293.074 107.094 292.754 107.094C292.52 107.094 292.309 107.044 292.121 106.945C291.936 106.846 291.784 106.721 291.664 106.57V108.59H290.961ZM291.598 104.949C291.598 105.483 291.706 105.878 291.922 106.133C292.138 106.388 292.4 106.516 292.707 106.516C293.02 106.516 293.286 106.384 293.508 106.121C293.732 105.855 293.844 105.445 293.844 104.891C293.844 104.362 293.734 103.966 293.516 103.703C293.299 103.44 293.04 103.309 292.738 103.309C292.439 103.309 292.173 103.449 291.941 103.73C291.712 104.009 291.598 104.415 291.598 104.949ZM298.254 105.664L298.98 105.754C298.866 106.178 298.654 106.508 298.344 106.742C298.034 106.977 297.638 107.094 297.156 107.094C296.549 107.094 296.068 106.908 295.711 106.535C295.357 106.16 295.18 105.635 295.18 104.961C295.18 104.263 295.359 103.721 295.719 103.336C296.078 102.951 296.544 102.758 297.117 102.758C297.672 102.758 298.125 102.947 298.477 103.324C298.828 103.702 299.004 104.233 299.004 104.918C299.004 104.96 299.003 105.022 299 105.105H295.906C295.932 105.561 296.061 105.91 296.293 106.152C296.525 106.395 296.814 106.516 297.16 106.516C297.418 106.516 297.638 106.448 297.82 106.312C298.003 106.177 298.147 105.961 298.254 105.664ZM295.945 104.527H298.262C298.23 104.178 298.142 103.917 297.996 103.742C297.772 103.471 297.482 103.336 297.125 103.336C296.802 103.336 296.53 103.444 296.309 103.66C296.09 103.876 295.969 104.165 295.945 104.527ZM296.703 102.336L297.223 101.242H298.145L297.285 102.336H296.703ZM300.066 107V106.199H300.867V107H300.066Z" fill="black"/>
                <path d="M4.81321 125.818V132H4.06463V126.603H4.02841L2.51918 127.605V126.844L4.06463 125.818H4.81321ZM8.67938 125.818V132H7.9308V126.603H7.89458L6.38535 127.605V126.844L7.9308 125.818H8.67938ZM10.5383 132.048C10.3894 132.048 10.2616 131.995 10.1549 131.888C10.0483 131.782 9.99495 131.654 9.99495 131.505C9.99495 131.356 10.0483 131.228 10.1549 131.122C10.2616 131.015 10.3894 130.962 10.5383 130.962C10.6872 130.962 10.815 131.015 10.9216 131.122C11.0283 131.228 11.0816 131.356 11.0816 131.505C11.0816 131.604 11.0564 131.694 11.0061 131.777C10.9578 131.859 10.8924 131.926 10.8099 131.976C10.7294 132.024 10.6389 132.048 10.5383 132.048ZM14.0634 132.085C13.6086 132.085 13.2212 131.961 12.9012 131.713C12.5813 131.464 12.3368 131.103 12.1678 130.63C11.9987 130.155 11.9142 129.581 11.9142 128.909C11.9142 128.241 11.9987 127.671 12.1678 127.198C12.3388 126.723 12.5843 126.36 12.9043 126.111C13.2262 125.859 13.6126 125.734 14.0634 125.734C14.5141 125.734 14.8995 125.859 15.2194 126.111C15.5414 126.36 15.7869 126.723 15.9559 127.198C16.127 127.671 16.2125 128.241 16.2125 128.909C16.2125 129.581 16.128 130.155 15.959 130.63C15.7899 131.103 15.5454 131.464 15.2255 131.713C14.9055 131.961 14.5181 132.085 14.0634 132.085ZM14.0634 131.42C14.5141 131.42 14.8643 131.203 15.1138 130.768C15.3633 130.334 15.4881 129.714 15.4881 128.909C15.4881 128.374 15.4307 127.918 15.316 127.542C15.2033 127.165 15.0403 126.879 14.827 126.681C14.6157 126.484 14.3612 126.386 14.0634 126.386C13.6166 126.386 13.2675 126.606 13.016 127.047C12.7644 127.485 12.6386 128.106 12.6386 128.909C12.6386 129.444 12.695 129.899 12.8077 130.273C12.9204 130.648 13.0824 130.932 13.2937 131.128C13.507 131.323 13.7635 131.42 14.0634 131.42ZM19.4478 125.818V132H18.6992V126.603H18.663L17.1538 127.605V126.844L18.6992 125.818H19.4478Z" fill="black"/>
                <path d="M56.8132 125.818V132H56.0646V126.603H56.0284L54.5192 127.605V126.844L56.0646 125.818H56.8132ZM58.5061 132V131.457L60.5466 129.223C60.786 128.961 60.9832 128.734 61.1382 128.541C61.2931 128.346 61.4078 128.163 61.4823 127.991C61.5588 127.818 61.597 127.637 61.597 127.448C61.597 127.231 61.5447 127.043 61.44 126.884C61.3374 126.725 61.1965 126.602 61.0175 126.515C60.8384 126.429 60.6371 126.386 60.4138 126.386C60.1763 126.386 59.969 126.435 59.792 126.534C59.6169 126.63 59.4811 126.766 59.3845 126.941C59.2899 127.116 59.2426 127.321 59.2426 127.557H58.5302C58.5302 127.195 58.6137 126.877 58.7808 126.603C58.9478 126.329 59.1752 126.116 59.4629 125.963C59.7527 125.81 60.0777 125.734 60.4379 125.734C60.8001 125.734 61.1211 125.81 61.4008 125.963C61.6805 126.116 61.8998 126.322 62.0588 126.582C62.2178 126.841 62.2973 127.13 62.2973 127.448C62.2973 127.676 62.256 127.898 62.1735 128.115C62.093 128.331 61.9522 128.571 61.7509 128.837C61.5517 129.1 61.275 129.422 60.9209 129.803L59.5324 131.288V131.336H62.4059V132H58.5061ZM64.0988 132.048C63.9499 132.048 63.8221 131.995 63.7155 131.888C63.6088 131.782 63.5555 131.654 63.5555 131.505C63.5555 131.356 63.6088 131.228 63.7155 131.122C63.8221 131.015 63.9499 130.962 64.0988 130.962C64.2477 130.962 64.3755 131.015 64.4822 131.122C64.5888 131.228 64.6421 131.356 64.6421 131.505C64.6421 131.604 64.617 131.694 64.5667 131.777C64.5184 131.859 64.453 131.926 64.3705 131.976C64.29 132.024 64.1994 132.048 64.0988 132.048ZM67.6239 132.085C67.1691 132.085 66.7818 131.961 66.4618 131.713C66.1418 131.464 65.8973 131.103 65.7283 130.63C65.5593 130.155 65.4748 129.581 65.4748 128.909C65.4748 128.241 65.5593 127.671 65.7283 127.198C65.8994 126.723 66.1449 126.36 66.4648 126.111C66.7868 125.859 67.1731 125.734 67.6239 125.734C68.0747 125.734 68.46 125.859 68.78 126.111C69.1019 126.36 69.3475 126.723 69.5165 127.198C69.6875 127.671 69.7731 128.241 69.7731 128.909C69.7731 129.581 69.6885 130.155 69.5195 130.63C69.3505 131.103 69.106 131.464 68.786 131.713C68.4661 131.961 68.0787 132.085 67.6239 132.085ZM67.6239 131.42C68.0747 131.42 68.4248 131.203 68.6743 130.768C68.9239 130.334 69.0486 129.714 69.0486 128.909C69.0486 128.374 68.9913 127.918 68.8766 127.542C68.7639 127.165 68.6009 126.879 68.3876 126.681C68.1763 126.484 67.9217 126.386 67.6239 126.386C67.1772 126.386 66.828 126.606 66.5765 127.047C66.325 127.485 66.1992 128.106 66.1992 128.909C66.1992 129.444 66.2555 129.899 66.3682 130.273C66.4809 130.648 66.6429 130.932 66.8542 131.128C67.0675 131.323 67.3241 131.42 67.6239 131.42ZM73.0084 125.818V132H72.2598V126.603H72.2236L70.7143 127.605V126.844L72.2598 125.818H73.0084Z" fill="black"/>
                <path d="M108.813 125.818V132H108.065V126.603H108.028L106.519 127.605V126.844L108.065 125.818H108.813ZM112.595 132.085C112.196 132.085 111.841 132.016 111.529 131.879C111.219 131.742 110.973 131.552 110.79 131.309C110.609 131.063 110.51 130.779 110.494 130.455H111.255C111.271 130.654 111.339 130.826 111.46 130.971C111.581 131.114 111.739 131.224 111.934 131.303C112.129 131.381 112.345 131.42 112.583 131.42C112.848 131.42 113.084 131.374 113.289 131.282C113.494 131.189 113.655 131.06 113.772 130.895C113.889 130.73 113.947 130.539 113.947 130.322C113.947 130.094 113.891 129.894 113.778 129.721C113.665 129.546 113.5 129.409 113.283 129.311C113.066 129.212 112.8 129.163 112.486 129.163H111.991V128.499H112.486C112.732 128.499 112.947 128.454 113.132 128.366C113.319 128.277 113.465 128.152 113.57 127.991C113.676 127.83 113.73 127.641 113.73 127.424C113.73 127.215 113.684 127.033 113.591 126.878C113.498 126.723 113.368 126.602 113.199 126.515C113.032 126.429 112.834 126.386 112.607 126.386C112.394 126.386 112.192 126.425 112.003 126.503C111.816 126.58 111.663 126.692 111.544 126.838C111.426 126.983 111.361 127.158 111.351 127.364H110.627C110.639 127.04 110.736 126.756 110.92 126.512C111.103 126.267 111.342 126.076 111.638 125.939C111.936 125.802 112.263 125.734 112.619 125.734C113.001 125.734 113.329 125.811 113.603 125.966C113.877 126.119 114.087 126.321 114.234 126.573C114.381 126.824 114.454 127.096 114.454 127.388C114.454 127.736 114.363 128.033 114.18 128.278C113.998 128.524 113.752 128.694 113.44 128.788V128.837C113.83 128.901 114.135 129.067 114.355 129.335C114.574 129.6 114.684 129.929 114.684 130.322C114.684 130.658 114.592 130.96 114.409 131.227C114.228 131.493 113.98 131.702 113.666 131.855C113.353 132.008 112.995 132.085 112.595 132.085ZM116.174 132.048C116.025 132.048 115.897 131.995 115.79 131.888C115.684 131.782 115.63 131.654 115.63 131.505C115.63 131.356 115.684 131.228 115.79 131.122C115.897 131.015 116.025 130.962 116.174 130.962C116.322 130.962 116.45 131.015 116.557 131.122C116.664 131.228 116.717 131.356 116.717 131.505C116.717 131.604 116.692 131.694 116.641 131.777C116.593 131.859 116.528 131.926 116.445 131.976C116.365 132.024 116.274 132.048 116.174 132.048ZM119.699 132.085C119.244 132.085 118.856 131.961 118.537 131.713C118.217 131.464 117.972 131.103 117.803 130.63C117.634 130.155 117.549 129.581 117.549 128.909C117.549 128.241 117.634 127.671 117.803 127.198C117.974 126.723 118.22 126.36 118.54 126.111C118.861 125.859 119.248 125.734 119.699 125.734C120.149 125.734 120.535 125.859 120.855 126.111C121.177 126.36 121.422 126.723 121.591 127.198C121.762 127.671 121.848 128.241 121.848 128.909C121.848 129.581 121.763 130.155 121.594 130.63C121.425 131.103 121.181 131.464 120.861 131.713C120.541 131.961 120.153 132.085 119.699 132.085ZM119.699 131.42C120.149 131.42 120.5 131.203 120.749 130.768C120.999 130.334 121.123 129.714 121.123 128.909C121.123 128.374 121.066 127.918 120.951 127.542C120.839 127.165 120.676 126.879 120.462 126.681C120.251 126.484 119.996 126.386 119.699 126.386C119.252 126.386 118.903 126.606 118.651 127.047C118.4 127.485 118.274 128.106 118.274 128.909C118.274 129.444 118.33 129.899 118.443 130.273C118.556 130.648 118.718 130.932 118.929 131.128C119.142 131.323 119.399 131.42 119.699 131.42ZM125.083 125.818V132H124.334V126.603H124.298L122.789 127.605V126.844L124.334 125.818H125.083Z" fill="black"/>
                <path d="M235.813 125.818V132H235.065V126.603H235.028L233.519 127.605V126.844L235.065 125.818H235.813ZM237.361 130.732V130.116L240.078 125.818H240.525V126.772H240.223L238.17 130.02V130.068H241.829V130.732H237.361ZM240.271 132V130.545V130.258V125.818H240.983V132H240.271ZM243.115 132.048C242.967 132.048 242.839 131.995 242.732 131.888C242.625 131.782 242.572 131.654 242.572 131.505C242.572 131.356 242.625 131.228 242.732 131.122C242.839 131.015 242.967 130.962 243.115 130.962C243.264 130.962 243.392 131.015 243.499 131.122C243.605 131.228 243.659 131.356 243.659 131.505C243.659 131.604 243.634 131.694 243.583 131.777C243.535 131.859 243.47 131.926 243.387 131.976C243.307 132.024 243.216 132.048 243.115 132.048ZM246.641 132.085C246.186 132.085 245.798 131.961 245.478 131.713C245.158 131.464 244.914 131.103 244.745 130.63C244.576 130.155 244.491 129.581 244.491 128.909C244.491 128.241 244.576 127.671 244.745 127.198C244.916 126.723 245.161 126.36 245.481 126.111C245.803 125.859 246.19 125.734 246.641 125.734C247.091 125.734 247.477 125.859 247.797 126.111C248.119 126.36 248.364 126.723 248.533 127.198C248.704 127.671 248.79 128.241 248.79 128.909C248.79 129.581 248.705 130.155 248.536 130.63C248.367 131.103 248.123 131.464 247.803 131.713C247.483 131.961 247.095 132.085 246.641 132.085ZM246.641 131.42C247.091 131.42 247.441 131.203 247.691 130.768C247.94 130.334 248.065 129.714 248.065 128.909C248.065 128.374 248.008 127.918 247.893 127.542C247.78 127.165 247.617 126.879 247.404 126.681C247.193 126.484 246.938 126.386 246.641 126.386C246.194 126.386 245.845 126.606 245.593 127.047C245.342 127.485 245.216 128.106 245.216 128.909C245.216 129.444 245.272 129.899 245.385 130.273C245.498 130.648 245.66 130.932 245.871 131.128C246.084 131.323 246.341 131.42 246.641 131.42ZM252.025 125.818V132H251.276V126.603H251.24L249.731 127.605V126.844L251.276 125.818H252.025Z" fill="black"/>
                <path d="M312.813 125.818V132H312.065V126.603H312.028L310.519 127.605V126.844L312.065 125.818H312.813ZM316.438 132.085C316.084 132.085 315.765 132.014 315.481 131.873C315.197 131.732 314.97 131.539 314.799 131.294C314.628 131.048 314.534 130.768 314.518 130.455H315.243C315.271 130.734 315.398 130.966 315.623 131.149C315.85 131.33 316.122 131.42 316.438 131.42C316.691 131.42 316.917 131.361 317.114 131.242C317.313 131.124 317.469 130.961 317.582 130.753C317.697 130.544 317.754 130.308 317.754 130.044C317.754 129.774 317.695 129.534 317.576 129.323C317.459 129.109 317.298 128.941 317.093 128.819C316.888 128.696 316.653 128.633 316.39 128.631C316.2 128.629 316.006 128.659 315.807 128.719C315.608 128.777 315.444 128.853 315.315 128.945L314.615 128.861L314.989 125.818H318.201V126.482H315.617L315.4 128.305H315.436C315.563 128.205 315.722 128.121 315.913 128.055C316.104 127.988 316.303 127.955 316.51 127.955C316.889 127.955 317.226 128.046 317.522 128.227C317.819 128.406 318.053 128.652 318.222 128.963C318.393 129.275 318.478 129.632 318.478 130.032C318.478 130.426 318.39 130.779 318.213 131.088C318.038 131.396 317.796 131.64 317.488 131.819C317.18 131.996 316.83 132.085 316.438 132.085ZM319.891 132.048C319.742 132.048 319.615 131.995 319.508 131.888C319.401 131.782 319.348 131.654 319.348 131.505C319.348 131.356 319.401 131.228 319.508 131.122C319.615 131.015 319.742 130.962 319.891 130.962C320.04 130.962 320.168 131.015 320.275 131.122C320.381 131.228 320.435 131.356 320.435 131.505C320.435 131.604 320.409 131.694 320.359 131.777C320.311 131.859 320.245 131.926 320.163 131.976C320.082 132.024 319.992 132.048 319.891 132.048ZM323.416 132.085C322.962 132.085 322.574 131.961 322.254 131.713C321.934 131.464 321.69 131.103 321.521 130.63C321.352 130.155 321.267 129.581 321.267 128.909C321.267 128.241 321.352 127.671 321.521 127.198C321.692 126.723 321.937 126.36 322.257 126.111C322.579 125.859 322.966 125.734 323.416 125.734C323.867 125.734 324.253 125.859 324.572 126.111C324.894 126.36 325.14 126.723 325.309 127.198C325.48 127.671 325.566 128.241 325.566 128.909C325.566 129.581 325.481 130.155 325.312 130.63C325.143 131.103 324.898 131.464 324.578 131.713C324.259 131.961 323.871 132.085 323.416 132.085ZM323.416 131.42C323.867 131.42 324.217 131.203 324.467 130.768C324.716 130.334 324.841 129.714 324.841 128.909C324.841 128.374 324.784 127.918 324.669 127.542C324.556 127.165 324.393 126.879 324.18 126.681C323.969 126.484 323.714 126.386 323.416 126.386C322.97 126.386 322.621 126.606 322.369 127.047C322.117 127.485 321.992 128.106 321.992 128.909C321.992 129.444 322.048 129.899 322.161 130.273C322.273 130.648 322.435 130.932 322.647 131.128C322.86 131.323 323.117 131.42 323.416 131.42ZM328.801 125.818V132H328.052V126.603H328.016L326.507 127.605V126.844L328.052 125.818H328.801Z" fill="black"/>
                <path d="M310.64 12V11.4567L312.68 9.22301C312.92 8.96141 313.117 8.73402 313.272 8.54084C313.427 8.34564 313.542 8.16252 313.616 7.99148C313.693 7.81842 313.731 7.63731 313.731 7.44815C313.731 7.23082 313.679 7.04267 313.574 6.8837C313.471 6.72473 313.33 6.60198 313.151 6.51545C312.972 6.42892 312.771 6.38565 312.548 6.38565C312.31 6.38565 312.103 6.43495 311.926 6.53356C311.751 6.63015 311.615 6.76598 311.518 6.94105C311.424 7.11612 311.376 7.32138 311.376 7.55682H310.664C310.664 7.1946 310.748 6.87666 310.915 6.60298C311.082 6.32931 311.309 6.116 311.597 5.96307C311.887 5.81013 312.212 5.73366 312.572 5.73366C312.934 5.73366 313.255 5.81013 313.535 5.96307C313.814 6.116 314.034 6.32227 314.193 6.58185C314.352 6.84144 314.431 7.13021 314.431 7.44815C314.431 7.67554 314.39 7.8979 314.307 8.11523C314.227 8.33055 314.086 8.57102 313.885 8.83665C313.686 9.10026 313.409 9.42223 313.055 9.80256L311.666 11.2876V11.3359H314.54V12H310.64ZM317.875 5.81818V12H317.126V6.60298H317.09L315.581 7.60511V6.84446L317.126 5.81818H317.875ZM319.734 12.0483C319.585 12.0483 319.457 11.995 319.35 11.8883C319.244 11.7817 319.19 11.6539 319.19 11.505C319.19 11.3561 319.244 11.2283 319.35 11.1216C319.457 11.015 319.585 10.9616 319.734 10.9616C319.882 10.9616 320.01 11.015 320.117 11.1216C320.224 11.2283 320.277 11.3561 320.277 11.505C320.277 11.6036 320.252 11.6941 320.201 11.7766C320.153 11.8591 320.088 11.9255 320.005 11.9759C319.925 12.0241 319.834 12.0483 319.734 12.0483ZM323.259 12.0845C322.804 12.0845 322.417 11.9608 322.097 11.7132C321.777 11.4637 321.532 11.1025 321.363 10.6296C321.194 10.1547 321.11 9.5812 321.11 8.90909C321.11 8.241 321.194 7.67051 321.363 7.19762C321.534 6.72272 321.78 6.3605 322.1 6.11097C322.422 5.85943 322.808 5.73366 323.259 5.73366C323.709 5.73366 324.095 5.85943 324.415 6.11097C324.737 6.3605 324.982 6.72272 325.151 7.19762C325.322 7.67051 325.408 8.241 325.408 8.90909C325.408 9.5812 325.323 10.1547 325.154 10.6296C324.985 11.1025 324.741 11.4637 324.421 11.7132C324.101 11.9608 323.713 12.0845 323.259 12.0845ZM323.259 11.4205C323.709 11.4205 324.06 11.2031 324.309 10.7685C324.559 10.3338 324.683 9.71402 324.683 8.90909C324.683 8.37382 324.626 7.91803 324.511 7.54173C324.399 7.16542 324.236 6.87867 324.022 6.68146C323.811 6.48426 323.556 6.38565 323.259 6.38565C322.812 6.38565 322.463 6.606 322.211 7.0467C321.96 7.48538 321.834 8.10618 321.834 8.90909C321.834 9.44437 321.89 9.89915 322.003 10.2734C322.116 10.6477 322.278 10.9325 322.489 11.1277C322.702 11.3229 322.959 11.4205 323.259 11.4205ZM328.643 5.81818V12H327.895V6.60298H327.858L326.349 7.60511V6.84446L327.895 5.81818H328.643Z" fill="black"/>
                <path d="M233.64 12V11.4567L235.68 9.22301C235.92 8.96141 236.117 8.73402 236.272 8.54084C236.427 8.34564 236.542 8.16252 236.616 7.99148C236.693 7.81842 236.731 7.63731 236.731 7.44815C236.731 7.23082 236.679 7.04267 236.574 6.8837C236.471 6.72473 236.33 6.60198 236.151 6.51545C235.972 6.42892 235.771 6.38565 235.548 6.38565C235.31 6.38565 235.103 6.43495 234.926 6.53356C234.751 6.63015 234.615 6.76598 234.518 6.94105C234.424 7.11612 234.376 7.32138 234.376 7.55682H233.664C233.664 7.1946 233.748 6.87666 233.915 6.60298C234.082 6.32931 234.309 6.116 234.597 5.96307C234.887 5.81013 235.212 5.73366 235.572 5.73366C235.934 5.73366 236.255 5.81013 236.535 5.96307C236.814 6.116 237.034 6.32227 237.193 6.58185C237.352 6.84144 237.431 7.13021 237.431 7.44815C237.431 7.67554 237.39 7.8979 237.307 8.11523C237.227 8.33055 237.086 8.57102 236.885 8.83665C236.686 9.10026 236.409 9.42223 236.055 9.80256L234.666 11.2876V11.3359H237.54V12H233.64ZM238.701 12V11.4567L240.742 9.22301C240.981 8.96141 241.179 8.73402 241.334 8.54084C241.488 8.34564 241.603 8.16252 241.678 7.99148C241.754 7.81842 241.792 7.63731 241.792 7.44815C241.792 7.23082 241.74 7.04267 241.635 6.8837C241.533 6.72473 241.392 6.60198 241.213 6.51545C241.034 6.42892 240.832 6.38565 240.609 6.38565C240.372 6.38565 240.164 6.43495 239.987 6.53356C239.812 6.63015 239.676 6.76598 239.58 6.94105C239.485 7.11612 239.438 7.32138 239.438 7.55682H238.726C238.726 7.1946 238.809 6.87666 238.976 6.60298C239.143 6.32931 239.37 6.116 239.658 5.96307C239.948 5.81013 240.273 5.73366 240.633 5.73366C240.995 5.73366 241.316 5.81013 241.596 5.96307C241.876 6.116 242.095 6.32227 242.254 6.58185C242.413 6.84144 242.493 7.13021 242.493 7.44815C242.493 7.67554 242.451 7.8979 242.369 8.11523C242.288 8.33055 242.147 8.57102 241.946 8.83665C241.747 9.10026 241.47 9.42223 241.116 9.80256L239.728 11.2876V11.3359H242.601V12H238.701ZM244.294 12.0483C244.145 12.0483 244.017 11.995 243.911 11.8883C243.804 11.7817 243.751 11.6539 243.751 11.505C243.751 11.3561 243.804 11.2283 243.911 11.1216C244.017 11.015 244.145 10.9616 244.294 10.9616C244.443 10.9616 244.571 11.015 244.677 11.1216C244.784 11.2283 244.837 11.3561 244.837 11.505C244.837 11.6036 244.812 11.6941 244.762 11.7766C244.714 11.8591 244.648 11.9255 244.566 11.9759C244.485 12.0241 244.395 12.0483 244.294 12.0483ZM247.819 12.0845C247.364 12.0845 246.977 11.9608 246.657 11.7132C246.337 11.4637 246.093 11.1025 245.924 10.6296C245.755 10.1547 245.67 9.5812 245.67 8.90909C245.67 8.241 245.755 7.67051 245.924 7.19762C246.095 6.72272 246.34 6.3605 246.66 6.11097C246.982 5.85943 247.368 5.73366 247.819 5.73366C248.27 5.73366 248.655 5.85943 248.975 6.11097C249.297 6.3605 249.543 6.72272 249.712 7.19762C249.883 7.67051 249.968 8.241 249.968 8.90909C249.968 9.5812 249.884 10.1547 249.715 10.6296C249.546 11.1025 249.301 11.4637 248.981 11.7132C248.661 11.9608 248.274 12.0845 247.819 12.0845ZM247.819 11.4205C248.27 11.4205 248.62 11.2031 248.87 10.7685C249.119 10.3338 249.244 9.71402 249.244 8.90909C249.244 8.37382 249.187 7.91803 249.072 7.54173C248.959 7.16542 248.796 6.87867 248.583 6.68146C248.372 6.48426 248.117 6.38565 247.819 6.38565C247.372 6.38565 247.023 6.606 246.772 7.0467C246.52 7.48538 246.395 8.10618 246.395 8.90909C246.395 9.44437 246.451 9.89915 246.564 10.2734C246.676 10.6477 246.838 10.9325 247.05 11.1277C247.263 11.3229 247.519 11.4205 247.819 11.4205ZM253.204 5.81818V12H252.455V6.60298H252.419L250.91 7.60511V6.84446L252.455 5.81818H253.204Z" fill="black"/>
                <path d="M106.64 12V11.4567L108.68 9.22301C108.92 8.96141 109.117 8.73402 109.272 8.54084C109.427 8.34564 109.542 8.16252 109.616 7.99148C109.693 7.81842 109.731 7.63731 109.731 7.44815C109.731 7.23082 109.679 7.04267 109.574 6.8837C109.471 6.72473 109.33 6.60198 109.151 6.51545C108.972 6.42892 108.771 6.38565 108.548 6.38565C108.31 6.38565 108.103 6.43495 107.926 6.53356C107.751 6.63015 107.615 6.76598 107.518 6.94105C107.424 7.11612 107.376 7.32138 107.376 7.55682H106.664C106.664 7.1946 106.748 6.87666 106.915 6.60298C107.082 6.32931 107.309 6.116 107.597 5.96307C107.887 5.81013 108.212 5.73366 108.572 5.73366C108.934 5.73366 109.255 5.81013 109.535 5.96307C109.814 6.116 110.034 6.32227 110.193 6.58185C110.352 6.84144 110.431 7.13021 110.431 7.44815C110.431 7.67554 110.39 7.8979 110.307 8.11523C110.227 8.33055 110.086 8.57102 109.885 8.83665C109.686 9.10026 109.409 9.42223 109.055 9.80256L107.666 11.2876V11.3359H110.54V12H106.64ZM113.79 12.0845C113.392 12.0845 113.037 12.0161 112.725 11.8793C112.415 11.7424 112.168 11.5523 111.985 11.3088C111.804 11.0633 111.705 10.7785 111.689 10.4545H112.45C112.466 10.6538 112.534 10.8258 112.655 10.9707C112.776 11.1136 112.934 11.2243 113.129 11.3027C113.324 11.3812 113.541 11.4205 113.778 11.4205C114.044 11.4205 114.279 11.3742 114.484 11.2816C114.69 11.189 114.851 11.0603 114.967 10.8952C115.084 10.7302 115.142 10.5391 115.142 10.3217C115.142 10.0943 115.086 9.89412 114.973 9.72106C114.861 9.54599 114.696 9.40915 114.478 9.31055C114.261 9.21194 113.995 9.16264 113.682 9.16264H113.186V8.49858H113.682C113.927 8.49858 114.142 8.45431 114.327 8.36577C114.515 8.27723 114.661 8.15246 114.765 7.99148C114.872 7.83049 114.925 7.64134 114.925 7.42401C114.925 7.21473 114.879 7.03261 114.786 6.87766C114.694 6.72272 114.563 6.60198 114.394 6.51545C114.227 6.42892 114.03 6.38565 113.802 6.38565C113.589 6.38565 113.388 6.42489 113.199 6.50337C113.011 6.57984 112.858 6.69152 112.74 6.83842C112.621 6.98331 112.557 7.15838 112.547 7.36364H111.822C111.834 7.03965 111.932 6.75592 112.115 6.51243C112.298 6.26693 112.538 6.07576 112.833 5.93892C113.131 5.80208 113.458 5.73366 113.814 5.73366C114.197 5.73366 114.525 5.81114 114.798 5.96609C115.072 6.11902 115.282 6.32126 115.429 6.5728C115.576 6.82434 115.65 7.096 115.65 7.38778C115.65 7.73591 115.558 8.03273 115.375 8.27823C115.194 8.52373 114.947 8.69377 114.635 8.78835V8.83665C115.026 8.90104 115.331 9.06706 115.55 9.33469C115.769 9.60032 115.879 9.92933 115.879 10.3217C115.879 10.6578 115.787 10.9596 115.604 11.2273C115.423 11.4929 115.176 11.7022 114.862 11.8551C114.548 12.008 114.191 12.0845 113.79 12.0845ZM117.369 12.0483C117.22 12.0483 117.092 11.995 116.985 11.8883C116.879 11.7817 116.826 11.6539 116.826 11.505C116.826 11.3561 116.879 11.2283 116.985 11.1216C117.092 11.015 117.22 10.9616 117.369 10.9616C117.518 10.9616 117.646 11.015 117.752 11.1216C117.859 11.2283 117.912 11.3561 117.912 11.505C117.912 11.6036 117.887 11.6941 117.837 11.7766C117.788 11.8591 117.723 11.9255 117.641 11.9759C117.56 12.0241 117.469 12.0483 117.369 12.0483ZM120.894 12.0845C120.439 12.0845 120.052 11.9608 119.732 11.7132C119.412 11.4637 119.167 11.1025 118.998 10.6296C118.829 10.1547 118.745 9.5812 118.745 8.90909C118.745 8.241 118.829 7.67051 118.998 7.19762C119.169 6.72272 119.415 6.3605 119.735 6.11097C120.057 5.85943 120.443 5.73366 120.894 5.73366C121.345 5.73366 121.73 5.85943 122.05 6.11097C122.372 6.3605 122.617 6.72272 122.787 7.19762C122.958 7.67051 123.043 8.241 123.043 8.90909C123.043 9.5812 122.959 10.1547 122.79 10.6296C122.62 11.1025 122.376 11.4637 122.056 11.7132C121.736 11.9608 121.349 12.0845 120.894 12.0845ZM120.894 11.4205C121.345 11.4205 121.695 11.2031 121.944 10.7685C122.194 10.3338 122.319 9.71402 122.319 8.90909C122.319 8.37382 122.261 7.91803 122.147 7.54173C122.034 7.16542 121.871 6.87867 121.658 6.68146C121.446 6.48426 121.192 6.38565 120.894 6.38565C120.447 6.38565 120.098 6.606 119.847 7.0467C119.595 7.48538 119.469 8.10618 119.469 8.90909C119.469 9.44437 119.526 9.89915 119.638 10.2734C119.751 10.6477 119.913 10.9325 120.124 11.1277C120.338 11.3229 120.594 11.4205 120.894 11.4205ZM126.278 5.81818V12H125.53V6.60298H125.494L123.984 7.60511V6.84446L125.53 5.81818H126.278Z" fill="black"/>
                <path d="M148.686 31.9722L148.099 31.4521L153.895 28.3263L154.474 28.8383L152.077 34.9723L151.49 34.4523L153.554 29.3308L153.518 29.2988L148.686 31.9722ZM150.504 30.3556L152.873 32.4517L152.433 32.9491L150.064 30.853L150.504 30.3556ZM158.16 32.0997L154.064 36.7296L153.503 36.2335L157.079 32.1914L157.052 32.1674L155.258 31.9179L155.762 31.3482L157.599 31.6036L158.16 32.0997Z" fill="black"/>
                <path d="M177.951 37.6016L177.364 38.1216L174.967 31.9877L175.546 31.4756L181.342 34.6015L180.755 35.1215L175.923 32.4481L175.887 32.4801L177.951 37.6016ZM176.568 35.601L178.938 33.5049L179.378 34.0023L177.008 36.0984L176.568 35.601ZM181.919 34.0918L181.559 33.6848L181.607 30.6599C181.613 30.3053 181.61 30.0043 181.598 29.7569C181.584 29.5081 181.549 29.2949 181.491 29.1175C181.434 28.9372 181.343 28.7762 181.217 28.6345C181.073 28.4718 180.909 28.3655 180.726 28.3158C180.544 28.2647 180.357 28.2661 180.165 28.32C179.974 28.3739 179.794 28.4748 179.627 28.6228C179.449 28.7801 179.327 28.9544 179.259 29.1456C179.192 29.3339 179.181 29.5257 179.224 29.7208C179.269 29.9146 179.37 30.0997 179.526 30.276L178.992 30.748C178.752 30.4767 178.604 30.1833 178.548 29.8676C178.492 29.552 178.521 29.2416 178.635 28.9363C178.751 28.6298 178.943 28.3572 179.213 28.1185C179.484 27.8785 179.776 27.7231 180.086 27.6523C180.397 27.5815 180.698 27.5906 180.989 27.6797C181.28 27.7688 181.531 27.9324 181.742 28.1705C181.893 28.3408 182.009 28.5347 182.091 28.7521C182.174 28.9667 182.227 29.2402 182.253 29.5724C182.278 29.9019 182.284 30.3264 182.271 30.8459L182.215 32.8782L182.247 32.9144L184.399 31.0103L184.839 31.5076L181.919 34.0918Z" fill="black"/>
                <path d="M54.6399 12V11.4567L56.6804 9.22301C56.9199 8.96141 57.1171 8.73402 57.272 8.54084C57.427 8.34564 57.5417 8.16252 57.6161 7.99148C57.6926 7.81842 57.7308 7.63731 57.7308 7.44815C57.7308 7.23082 57.6785 7.04267 57.5739 6.8837C57.4712 6.72473 57.3304 6.60198 57.1513 6.51545C56.9722 6.42892 56.771 6.38565 56.5476 6.38565C56.3101 6.38565 56.1029 6.43495 55.9258 6.53356C55.7507 6.63015 55.6149 6.76598 55.5183 6.94105C55.4237 7.11612 55.3764 7.32138 55.3764 7.55682H54.6641C54.6641 7.1946 54.7476 6.87666 54.9146 6.60298C55.0816 6.32931 55.309 6.116 55.5968 5.96307C55.8865 5.81013 56.2115 5.73366 56.5717 5.73366C56.9339 5.73366 57.2549 5.81013 57.5346 5.96307C57.8143 6.116 58.0337 6.32227 58.1926 6.58185C58.3516 6.84144 58.4311 7.13021 58.4311 7.44815C58.4311 7.67554 58.3899 7.8979 58.3074 8.11523C58.2269 8.33055 58.086 8.57102 57.8848 8.83665C57.6855 9.10026 57.4089 9.42223 57.0547 9.80256L55.6662 11.2876V11.3359H58.5398V12H54.6399ZM59.4237 10.7322V10.1165L62.1403 5.81818H62.5871V6.77202H62.2852L60.2326 10.0199V10.0682H63.891V10.7322H59.4237ZM62.3335 12V10.5451V10.2583V5.81818H63.0459V12H62.3335ZM65.1779 12.0483C65.029 12.0483 64.9012 11.995 64.7946 11.8883C64.6879 11.7817 64.6346 11.6539 64.6346 11.505C64.6346 11.3561 64.6879 11.2283 64.7946 11.1216C64.9012 11.015 65.029 10.9616 65.1779 10.9616C65.3268 10.9616 65.4546 11.015 65.5613 11.1216C65.6679 11.2283 65.7212 11.3561 65.7212 11.505C65.7212 11.6036 65.6961 11.6941 65.6458 11.7766C65.5975 11.8591 65.5321 11.9255 65.4496 11.9759C65.3691 12.0241 65.2785 12.0483 65.1779 12.0483ZM68.703 12.0845C68.2482 12.0845 67.8609 11.9608 67.5409 11.7132C67.2209 11.4637 66.9764 11.1025 66.8074 10.6296C66.6384 10.1547 66.5539 9.5812 66.5539 8.90909C66.5539 8.241 66.6384 7.67051 66.8074 7.19762C66.9785 6.72272 67.224 6.3605 67.5439 6.11097C67.8659 5.85943 68.2523 5.73366 68.703 5.73366C69.1538 5.73366 69.5391 5.85943 69.8591 6.11097C70.1811 6.3605 70.4266 6.72272 70.5956 7.19762C70.7666 7.67051 70.8522 8.241 70.8522 8.90909C70.8522 9.5812 70.7676 10.1547 70.5986 10.6296C70.4296 11.1025 70.1851 11.4637 69.8651 11.7132C69.5452 11.9608 69.1578 12.0845 68.703 12.0845ZM68.703 11.4205C69.1538 11.4205 69.5039 11.2031 69.7534 10.7685C70.003 10.3338 70.1277 9.71402 70.1277 8.90909C70.1277 8.37382 70.0704 7.91803 69.9557 7.54173C69.843 7.16542 69.68 6.87867 69.4667 6.68146C69.2554 6.48426 69.0008 6.38565 68.703 6.38565C68.2563 6.38565 67.9071 6.606 67.6556 7.0467C67.4041 7.48538 67.2783 8.10618 67.2783 8.90909C67.2783 9.44437 67.3346 9.89915 67.4473 10.2734C67.56 10.6477 67.722 10.9325 67.9333 11.1277C68.1466 11.3229 68.4032 11.4205 68.703 11.4205ZM74.0875 5.81818V12H73.3389V6.60298H73.3027L71.7934 7.60511V6.84446L73.3389 5.81818H74.0875Z" fill="black"/>
                <path d="M2.63991 12V11.4567L4.6804 9.22301C4.91986 8.96141 5.11707 8.73402 5.27202 8.54084C5.42697 8.34564 5.54167 8.16252 5.61612 7.99148C5.69259 7.81842 5.73082 7.63731 5.73082 7.44815C5.73082 7.23082 5.6785 7.04267 5.57386 6.8837C5.47124 6.72473 5.33037 6.60198 5.15128 6.51545C4.97218 6.42892 4.77095 6.38565 4.54759 6.38565C4.31013 6.38565 4.10286 6.43495 3.92578 6.53356C3.75071 6.63015 3.61488 6.76598 3.51829 6.94105C3.42371 7.11612 3.37642 7.32138 3.37642 7.55682H2.66406C2.66406 7.1946 2.74757 6.87666 2.9146 6.60298C3.08162 6.32931 3.30901 6.116 3.59677 5.96307C3.88654 5.81013 4.21153 5.73366 4.57173 5.73366C4.93395 5.73366 5.25491 5.81013 5.53462 5.96307C5.81433 6.116 6.03368 6.32227 6.19265 6.58185C6.35162 6.84144 6.43111 7.13021 6.43111 7.44815C6.43111 7.67554 6.38986 7.8979 6.30735 8.11523C6.22686 8.33055 6.086 8.57102 5.88477 8.83665C5.68555 9.10026 5.40885 9.42223 5.05469 9.80256L3.66619 11.2876V11.3359H6.53977V12H2.63991ZM9.63322 12.0845C9.27905 12.0845 8.9601 12.0141 8.67636 11.8732C8.39263 11.7324 8.16524 11.5392 7.99419 11.2937C7.82314 11.0482 7.72957 10.7685 7.71347 10.4545H8.4379C8.46608 10.7343 8.59285 10.9657 8.81823 11.1488C9.04562 11.3299 9.31728 11.4205 9.63322 11.4205C9.88677 11.4205 10.1121 11.3611 10.3094 11.2424C10.5086 11.1236 10.6645 10.9606 10.7772 10.7534C10.8919 10.5441 10.9493 10.3076 10.9493 10.044C10.9493 9.77438 10.8899 9.53391 10.7712 9.32262C10.6545 9.10932 10.4935 8.94129 10.2882 8.81854C10.083 8.69579 9.84853 8.6334 9.58492 8.63139C9.39576 8.62938 9.20158 8.65856 9.00236 8.71893C8.80314 8.77728 8.63914 8.85275 8.51035 8.94531L7.81006 8.8608L8.18435 5.81818H11.396V6.48224H8.81219L8.59487 8.3054H8.63109C8.75786 8.20478 8.91683 8.12127 9.108 8.05486C9.29917 7.98846 9.49839 7.95526 9.70566 7.95526C10.084 7.95526 10.421 8.04581 10.7168 8.22692C11.0147 8.40601 11.2481 8.65152 11.4171 8.96342C11.5882 9.27533 11.6737 9.63151 11.6737 10.032C11.6737 10.4264 11.5852 10.7785 11.4081 11.0884C11.233 11.3963 10.9915 11.6398 10.6836 11.8189C10.3758 11.996 10.0256 12.0845 9.63322 12.0845ZM13.0866 12.0483C12.9377 12.0483 12.8099 11.995 12.7033 11.8883C12.5966 11.7817 12.5433 11.6539 12.5433 11.505C12.5433 11.3561 12.5966 11.2283 12.7033 11.1216C12.8099 11.015 12.9377 10.9616 13.0866 10.9616C13.2355 10.9616 13.3633 11.015 13.47 11.1216C13.5766 11.2283 13.6299 11.3561 13.6299 11.505C13.6299 11.6036 13.6048 11.6941 13.5545 11.7766C13.5062 11.8591 13.4408 11.9255 13.3583 11.9759C13.2778 12.0241 13.1872 12.0483 13.0866 12.0483ZM16.6117 12.0845C16.1569 12.0845 15.7695 11.9608 15.4496 11.7132C15.1296 11.4637 14.8851 11.1025 14.7161 10.6296C14.5471 10.1547 14.4626 9.5812 14.4626 8.90909C14.4626 8.241 14.5471 7.67051 14.7161 7.19762C14.8871 6.72272 15.1327 6.3605 15.4526 6.11097C15.7746 5.85943 16.1609 5.73366 16.6117 5.73366C17.0625 5.73366 17.4478 5.85943 17.7678 6.11097C18.0897 6.3605 18.3352 6.72272 18.5043 7.19762C18.6753 7.67051 18.7608 8.241 18.7608 8.90909C18.7608 9.5812 18.6763 10.1547 18.5073 10.6296C18.3383 11.1025 18.0938 11.4637 17.7738 11.7132C17.4539 11.9608 17.0665 12.0845 16.6117 12.0845ZM16.6117 11.4205C17.0625 11.4205 17.4126 11.2031 17.6621 10.7685C17.9117 10.3338 18.0364 9.71402 18.0364 8.90909C18.0364 8.37382 17.9791 7.91803 17.8644 7.54173C17.7517 7.16542 17.5887 6.87867 17.3754 6.68146C17.1641 6.48426 16.9095 6.38565 16.6117 6.38565C16.165 6.38565 15.8158 6.606 15.5643 7.0467C15.3128 7.48538 15.187 8.10618 15.187 8.90909C15.187 9.44437 15.2433 9.89915 15.356 10.2734C15.4687 10.6477 15.6307 10.9325 15.842 11.1277C16.0553 11.3229 16.3119 11.4205 16.6117 11.4205ZM21.9962 5.81818V12H21.2476V6.60298H21.2114L19.7021 7.60511V6.84446L21.2476 5.81818H21.9962Z" fill="black"/>
                </g>
                <defs>
                <clipPath id="clip0_549_1496">
                <rect width="408" height="138" fill="white"/>
                </clipPath>
                </defs>
            </svg>
