<svg width="254" height="500" viewBox="0 -75 254 500" fill="none" xmlns="http://www.w3.org/2000/svg">
<style>
    .station {
        font-family: "Inter", sans-serif;
        src: url('../Inter-Medium.ttf') format("truetype");
        font-size: 12.5px;
        fill: #FEFFC1;
    }
    .rame {
        font-family: "Inter", sans-serif;
        src: url('../Inter-Medium.ttf') format("truetype");
        font-size: 19px;
        fill: #FF5353;
    }
    .voy {
        font-family: "Inter", sans-serif;
        font-weight: bold;
        src: url('../Inter-Medium.ttf') format("truetype");
        font-size: 8px;
        fill: #000000;
    }
</style>
<rect x="127" width="75" height="18" fill="#707070"/>
<rect x="204" width="50" height="18" fill="#707070"/>
<rect x="204" y="120" width="50" height="18" fill="#707070"/>
<rect width="75" height="18" transform="matrix(1 0 0 -1 127 138)" fill="#707070"/>
<rect width="25" height="18" fill="#707070"/>
<rect width="25" height="18" transform="matrix(1 0 0 -1 0 138)" fill="#707070"/>
<rect x="100" width="25" height="18" fill="#707070"/>
<rect width="25" height="18" transform="matrix(1 0 0 -1 100 138)" fill="#707070"/>
<rect x="53.5" y="95" width="25" height="18" transform="rotate(-90 53.5 95)" fill="#707070"/>
<rect x="53.5" y="68" width="25" height="18" transform="rotate(-90 53.5 68)" fill="#707070"/>
<path d="M53.5 43L25 18L25 0L71.5 43H53.5Z" fill="#707070"/>
<path d="M71.5 95L100 120V138L53.5 95H71.5Z" fill="#707070"/>
<rect x="25" width="75" height="18" fill="#66D264"/>
<rect width="75" height="18" transform="matrix(1 0 0 -1 25 138)" fill="#66D264"/>
<path d="M35.4585 62.4444H43.5415V68H35.4585V62.4444Z" fill="#707070"/>
<path d="M39.5 43L46.5 62.4444H32.5L39.5 43Z" fill="#707070"/>
<path d="M35.4585 75.5556H43.5415V70H35.4585V75.5556Z" fill="#707070"/>
<path d="M39.5 95L46.5 75.5556H32.5L39.5 95Z" fill="#707070"/>
<rect x="114" y="50" width="101" height="36" fill="#3A3A3A"/>
<path d="M4.81321 125.818V132H4.06463V126.603H4.02841L2.51918 127.605V126.844L4.06463 125.818H4.81321ZM8.67938 125.818V132H7.9308V126.603H7.89458L6.38535 127.605V126.844L7.9308 125.818H8.67938ZM10.5383 132.048C10.3894 132.048 10.2616 131.995 10.1549 131.888C10.0483 131.782 9.99495 131.654 9.99495 131.505C9.99495 131.356 10.0483 131.228 10.1549 131.122C10.2616 131.015 10.3894 130.962 10.5383 130.962C10.6872 130.962 10.815 131.015 10.9216 131.122C11.0283 131.228 11.0816 131.356 11.0816 131.505C11.0816 131.604 11.0564 131.694 11.0061 131.777C10.9578 131.859 10.8924 131.926 10.8099 131.976C10.7294 132.024 10.6389 132.048 10.5383 132.048ZM14.0634 132.085C13.6086 132.085 13.2212 131.961 12.9012 131.713C12.5813 131.464 12.3368 131.103 12.1678 130.63C11.9987 130.155 11.9142 129.581 11.9142 128.909C11.9142 128.241 11.9987 127.671 12.1678 127.198C12.3388 126.723 12.5843 126.36 12.9043 126.111C13.2262 125.859 13.6126 125.734 14.0634 125.734C14.5141 125.734 14.8995 125.859 15.2194 126.111C15.5414 126.36 15.7869 126.723 15.9559 127.198C16.127 127.671 16.2125 128.241 16.2125 128.909C16.2125 129.581 16.128 130.155 15.959 130.63C15.7899 131.103 15.5454 131.464 15.2255 131.713C14.9055 131.961 14.5181 132.085 14.0634 132.085ZM14.0634 131.42C14.5141 131.42 14.8643 131.203 15.1138 130.768C15.3633 130.334 15.4881 129.714 15.4881 128.909C15.4881 128.374 15.4307 127.918 15.316 127.542C15.2033 127.165 15.0403 126.879 14.827 126.681C14.6157 126.484 14.3612 126.386 14.0634 126.386C13.6166 126.386 13.2675 126.606 13.016 127.047C12.7644 127.485 12.6386 128.106 12.6386 128.909C12.6386 129.444 12.695 129.899 12.8077 130.273C12.9204 130.648 13.0824 130.932 13.2937 131.128C13.507 131.323 13.7635 131.42 14.0634 131.42ZM17.1296 130.732V130.116L19.8463 125.818H20.293V126.772H19.9911L17.9386 130.02V130.068H21.597V130.732H17.1296ZM20.0394 132V130.545V130.258V125.818H20.7518V132H20.0394Z" fill="black"/>
<path d="M131.813 125.818V132H131.065V126.603H131.028L129.519 127.605V126.844L131.065 125.818H131.813ZM133.506 132V131.457L135.547 129.223C135.786 128.961 135.983 128.734 136.138 128.541C136.293 128.346 136.408 128.163 136.482 127.991C136.559 127.818 136.597 127.637 136.597 127.448C136.597 127.231 136.545 127.043 136.44 126.884C136.337 126.725 136.197 126.602 136.017 126.515C135.838 126.429 135.637 126.386 135.414 126.386C135.176 126.386 134.969 126.435 134.792 126.534C134.617 126.63 134.481 126.766 134.384 126.941C134.29 127.116 134.243 127.321 134.243 127.557H133.53C133.53 127.195 133.614 126.877 133.781 126.603C133.948 126.329 134.175 126.116 134.463 125.963C134.753 125.81 135.078 125.734 135.438 125.734C135.8 125.734 136.121 125.81 136.401 125.963C136.681 126.116 136.9 126.322 137.059 126.582C137.218 126.841 137.297 127.13 137.297 127.448C137.297 127.676 137.256 127.898 137.174 128.115C137.093 128.331 136.952 128.571 136.751 128.837C136.552 129.1 136.275 129.422 135.921 129.803L134.532 131.288V131.336H137.406V132H133.506ZM139.099 132.048C138.95 132.048 138.822 131.995 138.715 131.888C138.609 131.782 138.555 131.654 138.555 131.505C138.555 131.356 138.609 131.228 138.715 131.122C138.822 131.015 138.95 130.962 139.099 130.962C139.248 130.962 139.376 131.015 139.482 131.122C139.589 131.228 139.642 131.356 139.642 131.505C139.642 131.604 139.617 131.694 139.567 131.777C139.518 131.859 139.453 131.926 139.37 131.976C139.29 132.024 139.199 132.048 139.099 132.048ZM142.624 132.085C142.169 132.085 141.782 131.961 141.462 131.713C141.142 131.464 140.897 131.103 140.728 130.63C140.559 130.155 140.475 129.581 140.475 128.909C140.475 128.241 140.559 127.671 140.728 127.198C140.899 126.723 141.145 126.36 141.465 126.111C141.787 125.859 142.173 125.734 142.624 125.734C143.075 125.734 143.46 125.859 143.78 126.111C144.102 126.36 144.347 126.723 144.516 127.198C144.688 127.671 144.773 128.241 144.773 128.909C144.773 129.581 144.689 130.155 144.52 130.63C144.35 131.103 144.106 131.464 143.786 131.713C143.466 131.961 143.079 132.085 142.624 132.085ZM142.624 131.42C143.075 131.42 143.425 131.203 143.674 130.768C143.924 130.334 144.049 129.714 144.049 128.909C144.049 128.374 143.991 127.918 143.877 127.542C143.764 127.165 143.601 126.879 143.388 126.681C143.176 126.484 142.922 126.386 142.624 126.386C142.177 126.386 141.828 126.606 141.576 127.047C141.325 127.485 141.199 128.106 141.199 128.909C141.199 129.444 141.256 129.899 141.368 130.273C141.481 130.648 141.643 130.932 141.854 131.128C142.068 131.323 142.324 131.42 142.624 131.42ZM145.69 130.732V130.116L148.407 125.818H148.854V126.772H148.552L146.499 130.02V130.068H150.158V130.732H145.69ZM148.6 132V130.545V130.258V125.818H149.312V132H148.6Z" fill="black"/>
<path d="M208.813 125.818V132H208.065V126.603H208.028L206.519 127.605V126.844L208.065 125.818H208.813ZM212.595 132.085C212.196 132.085 211.841 132.016 211.529 131.879C211.219 131.742 210.973 131.552 210.79 131.309C210.609 131.063 210.51 130.779 210.494 130.455H211.255C211.271 130.654 211.339 130.826 211.46 130.971C211.581 131.114 211.739 131.224 211.934 131.303C212.129 131.381 212.345 131.42 212.583 131.42C212.848 131.42 213.084 131.374 213.289 131.282C213.494 131.189 213.655 131.06 213.772 130.895C213.889 130.73 213.947 130.539 213.947 130.322C213.947 130.094 213.891 129.894 213.778 129.721C213.665 129.546 213.5 129.409 213.283 129.311C213.066 129.212 212.8 129.163 212.486 129.163H211.991V128.499H212.486C212.732 128.499 212.947 128.454 213.132 128.366C213.319 128.277 213.465 128.152 213.57 127.991C213.676 127.83 213.73 127.641 213.73 127.424C213.73 127.215 213.684 127.033 213.591 126.878C213.498 126.723 213.368 126.602 213.199 126.515C213.032 126.429 212.834 126.386 212.607 126.386C212.394 126.386 212.192 126.425 212.003 126.503C211.816 126.58 211.663 126.692 211.544 126.838C211.426 126.983 211.361 127.158 211.351 127.364H210.627C210.639 127.04 210.736 126.756 210.92 126.512C211.103 126.267 211.342 126.076 211.638 125.939C211.936 125.802 212.263 125.734 212.619 125.734C213.001 125.734 213.329 125.811 213.603 125.966C213.877 126.119 214.087 126.321 214.234 126.573C214.381 126.824 214.454 127.096 214.454 127.388C214.454 127.736 214.363 128.033 214.18 128.278C213.998 128.524 213.752 128.694 213.44 128.788V128.837C213.83 128.901 214.135 129.067 214.355 129.335C214.574 129.6 214.684 129.929 214.684 130.322C214.684 130.658 214.592 130.96 214.409 131.227C214.228 131.493 213.98 131.702 213.666 131.855C213.353 132.008 212.995 132.085 212.595 132.085ZM216.174 132.048C216.025 132.048 215.897 131.995 215.79 131.888C215.684 131.782 215.63 131.654 215.63 131.505C215.63 131.356 215.684 131.228 215.79 131.122C215.897 131.015 216.025 130.962 216.174 130.962C216.322 130.962 216.45 131.015 216.557 131.122C216.664 131.228 216.717 131.356 216.717 131.505C216.717 131.604 216.692 131.694 216.641 131.777C216.593 131.859 216.528 131.926 216.445 131.976C216.365 132.024 216.274 132.048 216.174 132.048ZM219.699 132.085C219.244 132.085 218.856 131.961 218.537 131.713C218.217 131.464 217.972 131.103 217.803 130.63C217.634 130.155 217.549 129.581 217.549 128.909C217.549 128.241 217.634 127.671 217.803 127.198C217.974 126.723 218.22 126.36 218.54 126.111C218.861 125.859 219.248 125.734 219.699 125.734C220.149 125.734 220.535 125.859 220.855 126.111C221.177 126.36 221.422 126.723 221.591 127.198C221.762 127.671 221.848 128.241 221.848 128.909C221.848 129.581 221.763 130.155 221.594 130.63C221.425 131.103 221.181 131.464 220.861 131.713C220.541 131.961 220.153 132.085 219.699 132.085ZM219.699 131.42C220.149 131.42 220.5 131.203 220.749 130.768C220.999 130.334 221.123 129.714 221.123 128.909C221.123 128.374 221.066 127.918 220.951 127.542C220.839 127.165 220.676 126.879 220.462 126.681C220.251 126.484 219.996 126.386 219.699 126.386C219.252 126.386 218.903 126.606 218.651 127.047C218.4 127.485 218.274 128.106 218.274 128.909C218.274 129.444 218.33 129.899 218.443 130.273C218.556 130.648 218.718 130.932 218.929 131.128C219.142 131.323 219.399 131.42 219.699 131.42ZM222.765 130.732V130.116L225.482 125.818H225.928V126.772H225.626L223.574 130.02V130.068H227.232V130.732H222.765ZM225.675 132V130.545V130.258V125.818H226.387V132H225.675Z" fill="black"/>
<path d="M206.64 12V11.4567L208.68 9.22301C208.92 8.96141 209.117 8.73402 209.272 8.54084C209.427 8.34564 209.542 8.16252 209.616 7.99148C209.693 7.81842 209.731 7.63731 209.731 7.44815C209.731 7.23082 209.679 7.04267 209.574 6.8837C209.471 6.72473 209.33 6.60198 209.151 6.51545C208.972 6.42892 208.771 6.38565 208.548 6.38565C208.31 6.38565 208.103 6.43495 207.926 6.53356C207.751 6.63015 207.615 6.76598 207.518 6.94105C207.424 7.11612 207.376 7.32138 207.376 7.55682H206.664C206.664 7.1946 206.748 6.87666 206.915 6.60298C207.082 6.32931 207.309 6.116 207.597 5.96307C207.887 5.81013 208.212 5.73366 208.572 5.73366C208.934 5.73366 209.255 5.81013 209.535 5.96307C209.814 6.116 210.034 6.32227 210.193 6.58185C210.352 6.84144 210.431 7.13021 210.431 7.44815C210.431 7.67554 210.39 7.8979 210.307 8.11523C210.227 8.33055 210.086 8.57102 209.885 8.83665C209.686 9.10026 209.409 9.42223 209.055 9.80256L207.666 11.2876V11.3359H210.54V12H206.64ZM213.875 5.81818V12H213.126V6.60298H213.09L211.581 7.60511V6.84446L213.126 5.81818H213.875ZM215.734 12.0483C215.585 12.0483 215.457 11.995 215.35 11.8883C215.244 11.7817 215.19 11.6539 215.19 11.505C215.19 11.3561 215.244 11.2283 215.35 11.1216C215.457 11.015 215.585 10.9616 215.734 10.9616C215.882 10.9616 216.01 11.015 216.117 11.1216C216.224 11.2283 216.277 11.3561 216.277 11.505C216.277 11.6036 216.252 11.6941 216.201 11.7766C216.153 11.8591 216.088 11.9255 216.005 11.9759C215.925 12.0241 215.834 12.0483 215.734 12.0483ZM219.259 12.0845C218.804 12.0845 218.417 11.9608 218.097 11.7132C217.777 11.4637 217.532 11.1025 217.363 10.6296C217.194 10.1547 217.11 9.5812 217.11 8.90909C217.11 8.241 217.194 7.67051 217.363 7.19762C217.534 6.72272 217.78 6.3605 218.1 6.11097C218.422 5.85943 218.808 5.73366 219.259 5.73366C219.709 5.73366 220.095 5.85943 220.415 6.11097C220.737 6.3605 220.982 6.72272 221.151 7.19762C221.322 7.67051 221.408 8.241 221.408 8.90909C221.408 9.5812 221.323 10.1547 221.154 10.6296C220.985 11.1025 220.741 11.4637 220.421 11.7132C220.101 11.9608 219.713 12.0845 219.259 12.0845ZM219.259 11.4205C219.709 11.4205 220.06 11.2031 220.309 10.7685C220.559 10.3338 220.683 9.71402 220.683 8.90909C220.683 8.37382 220.626 7.91803 220.511 7.54173C220.399 7.16542 220.236 6.87867 220.022 6.68146C219.811 6.48426 219.556 6.38565 219.259 6.38565C218.812 6.38565 218.463 6.606 218.211 7.0467C217.96 7.48538 217.834 8.10618 217.834 8.90909C217.834 9.44437 217.89 9.89915 218.003 10.2734C218.116 10.6477 218.278 10.9325 218.489 11.1277C218.702 11.3229 218.959 11.4205 219.259 11.4205ZM222.325 10.7322V10.1165L225.042 5.81818H225.488V6.77202H225.186L223.134 10.0199V10.0682H226.792V10.7322H222.325ZM225.235 12V10.5451V10.2583V5.81818H225.947V12H225.235Z" fill="black"/>
<path d="M129.64 12V11.4567L131.68 9.22301C131.92 8.96141 132.117 8.73402 132.272 8.54084C132.427 8.34564 132.542 8.16252 132.616 7.99148C132.693 7.81842 132.731 7.63731 132.731 7.44815C132.731 7.23082 132.679 7.04267 132.574 6.8837C132.471 6.72473 132.33 6.60198 132.151 6.51545C131.972 6.42892 131.771 6.38565 131.548 6.38565C131.31 6.38565 131.103 6.43495 130.926 6.53356C130.751 6.63015 130.615 6.76598 130.518 6.94105C130.424 7.11612 130.376 7.32138 130.376 7.55682H129.664C129.664 7.1946 129.748 6.87666 129.915 6.60298C130.082 6.32931 130.309 6.116 130.597 5.96307C130.887 5.81013 131.212 5.73366 131.572 5.73366C131.934 5.73366 132.255 5.81013 132.535 5.96307C132.814 6.116 133.034 6.32227 133.193 6.58185C133.352 6.84144 133.431 7.13021 133.431 7.44815C133.431 7.67554 133.39 7.8979 133.307 8.11523C133.227 8.33055 133.086 8.57102 132.885 8.83665C132.686 9.10026 132.409 9.42223 132.055 9.80256L130.666 11.2876V11.3359H133.54V12H129.64ZM134.701 12V11.4567L136.742 9.22301C136.981 8.96141 137.179 8.73402 137.334 8.54084C137.488 8.34564 137.603 8.16252 137.678 7.99148C137.754 7.81842 137.792 7.63731 137.792 7.44815C137.792 7.23082 137.74 7.04267 137.635 6.8837C137.533 6.72473 137.392 6.60198 137.213 6.51545C137.034 6.42892 136.832 6.38565 136.609 6.38565C136.372 6.38565 136.164 6.43495 135.987 6.53356C135.812 6.63015 135.676 6.76598 135.58 6.94105C135.485 7.11612 135.438 7.32138 135.438 7.55682H134.726C134.726 7.1946 134.809 6.87666 134.976 6.60298C135.143 6.32931 135.37 6.116 135.658 5.96307C135.948 5.81013 136.273 5.73366 136.633 5.73366C136.995 5.73366 137.316 5.81013 137.596 5.96307C137.876 6.116 138.095 6.32227 138.254 6.58185C138.413 6.84144 138.493 7.13021 138.493 7.44815C138.493 7.67554 138.451 7.8979 138.369 8.11523C138.288 8.33055 138.147 8.57102 137.946 8.83665C137.747 9.10026 137.47 9.42223 137.116 9.80256L135.728 11.2876V11.3359H138.601V12H134.701ZM140.294 12.0483C140.145 12.0483 140.017 11.995 139.911 11.8883C139.804 11.7817 139.751 11.6539 139.751 11.505C139.751 11.3561 139.804 11.2283 139.911 11.1216C140.017 11.015 140.145 10.9616 140.294 10.9616C140.443 10.9616 140.571 11.015 140.677 11.1216C140.784 11.2283 140.837 11.3561 140.837 11.505C140.837 11.6036 140.812 11.6941 140.762 11.7766C140.714 11.8591 140.648 11.9255 140.566 11.9759C140.485 12.0241 140.395 12.0483 140.294 12.0483ZM143.819 12.0845C143.364 12.0845 142.977 11.9608 142.657 11.7132C142.337 11.4637 142.093 11.1025 141.924 10.6296C141.755 10.1547 141.67 9.5812 141.67 8.90909C141.67 8.241 141.755 7.67051 141.924 7.19762C142.095 6.72272 142.34 6.3605 142.66 6.11097C142.982 5.85943 143.368 5.73366 143.819 5.73366C144.27 5.73366 144.655 5.85943 144.975 6.11097C145.297 6.3605 145.543 6.72272 145.712 7.19762C145.883 7.67051 145.968 8.241 145.968 8.90909C145.968 9.5812 145.884 10.1547 145.715 10.6296C145.546 11.1025 145.301 11.4637 144.981 11.7132C144.661 11.9608 144.274 12.0845 143.819 12.0845ZM143.819 11.4205C144.27 11.4205 144.62 11.2031 144.87 10.7685C145.119 10.3338 145.244 9.71402 145.244 8.90909C145.244 8.37382 145.187 7.91803 145.072 7.54173C144.959 7.16542 144.796 6.87867 144.583 6.68146C144.372 6.48426 144.117 6.38565 143.819 6.38565C143.372 6.38565 143.023 6.606 142.772 7.0467C142.52 7.48538 142.395 8.10618 142.395 8.90909C142.395 9.44437 142.451 9.89915 142.564 10.2734C142.676 10.6477 142.838 10.9325 143.05 11.1277C143.263 11.3229 143.519 11.4205 143.819 11.4205ZM146.885 10.7322V10.1165L149.602 5.81818H150.049V6.77202H149.747L147.694 10.0199V10.0682H151.353V10.7322H146.885ZM149.795 12V10.5451V10.2583V5.81818H150.508V12H149.795Z" fill="black"/>
<path d="M2.63991 12V11.4567L4.6804 9.22301C4.91986 8.96141 5.11707 8.73402 5.27202 8.54084C5.42697 8.34564 5.54167 8.16252 5.61612 7.99148C5.69259 7.81842 5.73082 7.63731 5.73082 7.44815C5.73082 7.23082 5.6785 7.04267 5.57386 6.8837C5.47124 6.72473 5.33037 6.60198 5.15128 6.51545C4.97218 6.42892 4.77095 6.38565 4.54759 6.38565C4.31013 6.38565 4.10286 6.43495 3.92578 6.53356C3.75071 6.63015 3.61488 6.76598 3.51829 6.94105C3.42371 7.11612 3.37642 7.32138 3.37642 7.55682H2.66406C2.66406 7.1946 2.74757 6.87666 2.9146 6.60298C3.08162 6.32931 3.30901 6.116 3.59677 5.96307C3.88654 5.81013 4.21153 5.73366 4.57173 5.73366C4.93395 5.73366 5.25491 5.81013 5.53462 5.96307C5.81433 6.116 6.03368 6.32227 6.19265 6.58185C6.35162 6.84144 6.43111 7.13021 6.43111 7.44815C6.43111 7.67554 6.38986 7.8979 6.30735 8.11523C6.22686 8.33055 6.086 8.57102 5.88477 8.83665C5.68555 9.10026 5.40885 9.42223 5.05469 9.80256L3.66619 11.2876V11.3359H6.53977V12H2.63991ZM9.79018 12.0845C9.39174 12.0845 9.03657 12.0161 8.72466 11.8793C8.41476 11.7424 8.16826 11.5523 7.98513 11.3088C7.80403 11.0633 7.70542 10.7785 7.68933 10.4545H8.44998C8.46608 10.6538 8.5345 10.8258 8.65523 10.9707C8.77597 11.1136 8.93394 11.2243 9.12913 11.3027C9.32433 11.3812 9.54065 11.4205 9.7781 11.4205C10.0437 11.4205 10.2792 11.3742 10.4844 11.2816C10.6897 11.189 10.8507 11.0603 10.9674 10.8952C11.0841 10.7302 11.1425 10.5391 11.1425 10.3217C11.1425 10.0943 11.0861 9.89412 10.9734 9.72106C10.8607 9.54599 10.6957 9.40915 10.4784 9.31055C10.2611 9.21194 9.99543 9.16264 9.68151 9.16264H9.18648V8.49858H9.68151C9.92701 8.49858 10.1423 8.45431 10.3275 8.36577C10.5146 8.27723 10.6605 8.15246 10.7651 7.99148C10.8718 7.83049 10.9251 7.64134 10.9251 7.42401C10.9251 7.21473 10.8788 7.03261 10.7863 6.87766C10.6937 6.72272 10.5629 6.60198 10.3939 6.51545C10.2268 6.42892 10.0296 6.38565 9.80225 6.38565C9.58895 6.38565 9.38772 6.42489 9.19856 6.50337C9.01141 6.57984 8.85848 6.69152 8.73975 6.83842C8.62103 6.98331 8.55663 7.15838 8.54657 7.36364H7.82214C7.83421 7.03965 7.93181 6.75592 8.11493 6.51243C8.29805 6.26693 8.53751 6.07576 8.83332 5.93892C9.13115 5.80208 9.45815 5.73366 9.81433 5.73366C10.1967 5.73366 10.5247 5.81114 10.7983 5.96609C11.072 6.11902 11.2823 6.32126 11.4292 6.5728C11.5761 6.82434 11.6496 7.096 11.6496 7.38778C11.6496 7.73591 11.558 8.03273 11.3749 8.27823C11.1938 8.52373 10.9473 8.69377 10.6353 8.78835V8.83665C11.0257 8.90104 11.3306 9.06706 11.5499 9.33469C11.7693 9.60032 11.879 9.92933 11.879 10.3217C11.879 10.6578 11.7874 10.9596 11.6043 11.2273C11.4232 11.4929 11.1757 11.7022 10.8617 11.8551C10.5478 12.008 10.1906 12.0845 9.79018 12.0845ZM13.3688 12.0483C13.2199 12.0483 13.0921 11.995 12.9855 11.8883C12.8788 11.7817 12.8255 11.6539 12.8255 11.505C12.8255 11.3561 12.8788 11.2283 12.9855 11.1216C13.0921 11.015 13.2199 10.9616 13.3688 10.9616C13.5178 10.9616 13.6455 11.015 13.7522 11.1216C13.8588 11.2283 13.9122 11.3561 13.9122 11.505C13.9122 11.6036 13.887 11.6941 13.8367 11.7766C13.7884 11.8591 13.723 11.9255 13.6405 11.9759C13.56 12.0241 13.4695 12.0483 13.3688 12.0483ZM16.8939 12.0845C16.4391 12.0845 16.0518 11.9608 15.7318 11.7132C15.4119 11.4637 15.1674 11.1025 14.9983 10.6296C14.8293 10.1547 14.7448 9.5812 14.7448 8.90909C14.7448 8.241 14.8293 7.67051 14.9983 7.19762C15.1694 6.72272 15.4149 6.3605 15.7348 6.11097C16.0568 5.85943 16.4432 5.73366 16.8939 5.73366C17.3447 5.73366 17.73 5.85943 18.05 6.11097C18.372 6.3605 18.6175 6.72272 18.7865 7.19762C18.9576 7.67051 19.0431 8.241 19.0431 8.90909C19.0431 9.5812 18.9586 10.1547 18.7895 10.6296C18.6205 11.1025 18.376 11.4637 18.056 11.7132C17.7361 11.9608 17.3487 12.0845 16.8939 12.0845ZM16.8939 11.4205C17.3447 11.4205 17.6948 11.2031 17.9444 10.7685C18.1939 10.3338 18.3186 9.71402 18.3186 8.90909C18.3186 8.37382 18.2613 7.91803 18.1466 7.54173C18.0339 7.16542 17.8709 6.87867 17.6576 6.68146C17.4463 6.48426 17.1917 6.38565 16.8939 6.38565C16.4472 6.38565 16.0981 6.606 15.8465 7.0467C15.595 7.48538 15.4692 8.10618 15.4692 8.90909C15.4692 9.44437 15.5256 9.89915 15.6382 10.2734C15.7509 10.6477 15.9129 10.9325 16.1242 11.1277C16.3375 11.3229 16.5941 11.4205 16.8939 11.4205ZM19.9602 10.7322V10.1165L22.6768 5.81818H23.1236V6.77202H22.8217L20.7692 10.0199V10.0682H24.4275V10.7322H19.9602ZM22.87 12V10.5451V10.2583V5.81818H23.5824V12H22.87Z" fill="black"/>
</svg>
