<svg width="485" height="500" viewBox="0 -75 485 500" fill="none" xmlns="http://www.w3.org/2000/svg">
<style>
    .station {
        font-family: "Inter", sans-serif;
        src: url('../Inter-Medium.ttf') format("truetype");
        font-size: 12.5px;
        fill: #FEFFC1;
    }
    .rame {
        font-family: "Inter", sans-serif;
        src: url('../Inter-Medium.ttf') format("truetype");
        font-size: 19px;
        fill: #FF5353;
    }
    .voy {
        font-family: "Inter", sans-serif;
        font-weight: bold;
        src: url('../Inter-Medium.ttf') format("truetype");
        font-size: 8px;
        fill: #000000;
    }
</style>
<rect x="127" width="75" height="18" fill="#707070" id="c2503"/>
<rect x="306" width="75" height="18" fill="#707070" id="c2303"/>
<rect x="204" width="100" height="18" fill="#707070" id="c2403"/>
<rect x="383" width="50" height="18" fill="#707070" id="c2203"/>
<rect x="435" width="50" height="18" fill="#707070" id="c2103"/>
<rect x="204" y="120" width="100" height="18" fill="#707070" id="c1303"/>
<rect x="383" y="120" width="50" height="18" fill="#707070" id="c1503"/>
<rect x="435" y="120" width="50" height="18" fill="#707070" id="c1603"/>
<rect width="75" height="18" transform="matrix(1 0 0 -1 127 138)" fill="#707070" id="c1203"/>
<rect width="75" height="18" transform="matrix(1 0 0 -1 306 138)" fill="#707070" id="c1403"/>
<rect width="25" height="18" fill="#707070" id="c2603A"/>
<rect width="25" height="18" transform="matrix(1 0 0 -1 0 138)" fill="#707070" id="c1103A"/>
<rect x="100" width="25" height="18" fill="#707070" id="c2603C"/>
<rect width="25" height="18" transform="matrix(1 0 0 -1 100 138)" fill="#707070" id="c1103C"/>
<rect x="53.5" y="95" width="25" height="18" transform="rotate(-90 53.5 95)" fill="#707070" id="A1BOT"/>
<rect x="53.5" y="68" width="25" height="18" transform="rotate(-90 53.5 68)" fill="#707070" id="A1TOP"/>
<path d="M53.5 43L25 18L25 0L71 43H53.5Z" fill="#707070" id="2603A1"/>
<path d="M53.5 95L25 120L25 138L71 95H53.5Z" fill="#707070" id="1103A2"/>
<path d="M71.5 43L100 18V0L54 43H71.5Z" fill="#707070" id="2603A2"/>
<path d="M71.5 95L100 120V138L54 95H71.5Z" fill="#707070" id="1103A1"/>
<rect x="25" width="75" height="18" fill="#66D264" id="c2603B"/>
<rect width="75" height="18" transform="matrix(1 0 0 -1 25 138)" fill="#66D264" id="c1103B"/>
<path d="M35.4585 62.4444H43.5415V68H35.4585V62.4444Z" fill="#707070" id="A1MA"/>
<path d="M39.5 43L46.5 62.4444H32.5L39.5 43Z" fill="#707070" id="A1MB"/>
<path d="M35.4585 75.5556H43.5415V70H35.4585V75.5556Z" fill="#707070" id="A1DA"/>
<path d="M39.5 95L46.5 75.5556H32.5L39.5 95Z" fill="#707070" id="A1DB"/>
<rect x="114" y="50" width="101" height="36" fill="#3A3A3A"/>
<text class="station" x="140" y="65">Porte de</text>
<text class="station" x="148" y="80">Clichy</text>
<rect x="293" y="50" width="101" height="36" fill="#3A3A3A"/>
<text class="station" x="305" y="73">Pont Cardinet</text>

<rect x="308" y="-31" width="72" height="27" fill="#FFDF35" stroke="#363636" stroke-width="3" id="sc1403"/>
<text class="rame" x="315" y="-11" id="txtSc1403">TEST</text>

<rect x="308" y="142" width="72" height="27" fill="#FFDF35" stroke="#363636" stroke-width="3" id="sc2303"/>
<text class="rame" x="315" y="162" id="txtSc2303">TEST</text>


<rect x="129" y="-31" width="72" height="27" fill="#FFDF35" stroke="#363636" stroke-width="3" id="sc1203"/>
<text class="rame" x="145" y="-11" id="txtSc1203">TEST</text>

<rect x="129" y="142" width="72" height="27" fill="#FFDF35" stroke="#363636" stroke-width="3" id="sc2503"/>
<text class="rame" x="145" y="162" id="txtSc2503">TEST</text>

<rect x="437" y="-31" width="47" height="27" fill="#FFDF35" stroke="#363636" stroke-width="3" id="sc2103"/>
<text class="rame" x="442" y="-11" id="txtSc2103">TEST</text>

<rect x="437" y="142" width="47" height="27" fill="#FFDF35" stroke="#363636" stroke-width="3" id="sc1603"/>
<text class="rame" x="442" y="162" id="txtSc1603">TEST</text>

<image x= "75" y="55" href="../C3.png" height="25" width="18" id="eC3"/>


<image x= "305" y="89.25" href="../DSO_OFF.png" height="21.5" width="21.5" id="dsoPTCARV1"/>
<image x= "330.5" y="89.25" href="../SSO_OFF.png" height="21.5" width="21.5" id="ssoPTCARV1"/>
<rect x="356" y="89.25" width="21.5" height="21.5" fill="#6B6B6B" stroke="#4A4A4A" stroke-width="1.5" id="voyPTCARV1"/>

<image x= "305" y="26" href="../DSO_OFF.png" height="21.5" width="21.5" id="dsoPTCARV2"/>
<image x= "330.5" y="26" href="../SSO_OFF.png" height="21.5" width="21.5" id="ssoPTCARV2"/>
<rect x="356" y="26" width="21.5" height="21.5" fill="#6B6B6B" stroke="#4A4A4A" stroke-width="1.5" id="voyPTCARV2"/>

<image x= "127" y="89.25" href="../DSO_OFF.png" height="21.5" width="21.5" id="dsoPTCLYV1"/>
<image x= "152.5" y="89.25" href="../SSO_OFF.png" height="21.5" width="21.5" id="ssoPTCLYV1"/>
<rect x="178" y="89.25" width="21.5" height="21.5" fill="#6B6B6B" stroke="#4A4A4A" stroke-width="1.5" id="voyPTCLYV1"/>

<image x= "127" y="26" href="../DSO_OFF.png" height="21.5" width="21.5" id="dsoPTCLYV2"/>
<image x= "152.5" y="26" href="../SSO_OFF.png" height="21.5" width="21.5" id="ssoPTCLYV2"/>
<rect x="178" y="26" width="21.5" height="21.5" fill="#6B6B6B" stroke="#4A4A4A" stroke-width="1.5" id="voyPTCLYV2"/>
<image x= "103" y="26" href="../logoSpOff.png" height="21.5" width="21.5" id="spPTCLYV2"/>


<image x= "100" y="-27" href="../signals/SM-RNT.png" height="25" width="25" id="S2C3"/>
<image x= "100" y="-47" href="../S2C3.png" height="25" width="18"/>

<image x= "0" y="-27" href="../signals/SM-RNT.png" height="25" width="25" id="S4C3"/>
<image x= "0" y="-47" href="../S4C3.png" height="25" width="18"/>

<image x= "100" y="140" href="../signals/SM-RNT.png" height="25" width="25" id="S3C3"/>
<image x= "100" y="160" href="../S3C3.png" height="25" width="18"/>

<image x= "435" y="95" href="../signals/SM-RNT.png" height="25" width="25" id="S1C4"/>
<image x= "435" y="80" href="../S1C4.png" height="25" width="18"/>


<path d="M4.81321 125.818V132H4.06463V126.603H4.02841L2.51918 127.605V126.844L4.06463 125.818H4.81321ZM8.67938 125.818V132H7.9308V126.603H7.89458L6.38535 127.605V126.844L7.9308 125.818H8.67938ZM10.5383 132.048C10.3894 132.048 10.2616 131.995 10.1549 131.888C10.0483 131.782 9.99495 131.654 9.99495 131.505C9.99495 131.356 10.0483 131.228 10.1549 131.122C10.2616 131.015 10.3894 130.962 10.5383 130.962C10.6872 130.962 10.815 131.015 10.9216 131.122C11.0283 131.228 11.0816 131.356 11.0816 131.505C11.0816 131.604 11.0564 131.694 11.0061 131.777C10.9578 131.859 10.8924 131.926 10.8099 131.976C10.7294 132.024 10.6389 132.048 10.5383 132.048ZM14.0634 132.085C13.6086 132.085 13.2212 131.961 12.9012 131.713C12.5813 131.464 12.3368 131.103 12.1678 130.63C11.9987 130.155 11.9142 129.581 11.9142 128.909C11.9142 128.241 11.9987 127.671 12.1678 127.198C12.3388 126.723 12.5843 126.36 12.9043 126.111C13.2262 125.859 13.6126 125.734 14.0634 125.734C14.5141 125.734 14.8995 125.859 15.2194 126.111C15.5414 126.36 15.7869 126.723 15.9559 127.198C16.127 127.671 16.2125 128.241 16.2125 128.909C16.2125 129.581 16.128 130.155 15.959 130.63C15.7899 131.103 15.5454 131.464 15.2255 131.713C14.9055 131.961 14.5181 132.085 14.0634 132.085ZM14.0634 131.42C14.5141 131.42 14.8643 131.203 15.1138 130.768C15.3633 130.334 15.4881 129.714 15.4881 128.909C15.4881 128.374 15.4307 127.918 15.316 127.542C15.2033 127.165 15.0403 126.879 14.827 126.681C14.6157 126.484 14.3612 126.386 14.0634 126.386C13.6166 126.386 13.2675 126.606 13.016 127.047C12.7644 127.485 12.6386 128.106 12.6386 128.909C12.6386 129.444 12.695 129.899 12.8077 130.273C12.9204 130.648 13.0824 130.932 13.2937 131.128C13.507 131.323 13.7635 131.42 14.0634 131.42ZM19.3633 132.085C18.9649 132.085 18.6097 132.016 18.2978 131.879C17.9879 131.742 17.7414 131.552 17.5583 131.309C17.3772 131.063 17.2785 130.779 17.2625 130.455H18.0231C18.0392 130.654 18.1076 130.826 18.2284 130.971C18.3491 131.114 18.5071 131.224 18.7023 131.303C18.8975 131.381 19.1138 131.42 19.3512 131.42C19.6169 131.42 19.8523 131.374 20.0575 131.282C20.2628 131.189 20.4238 131.06 20.5405 130.895C20.6572 130.73 20.7156 130.539 20.7156 130.322C20.7156 130.094 20.6592 129.894 20.5465 129.721C20.4339 129.546 20.2688 129.409 20.0515 129.311C19.8342 129.212 19.5686 129.163 19.2546 129.163H18.7596V128.499H19.2546C19.5001 128.499 19.7155 128.454 19.9006 128.366C20.0877 128.277 20.2336 128.152 20.3383 127.991C20.4449 127.83 20.4982 127.641 20.4982 127.424C20.4982 127.215 20.452 127.033 20.3594 126.878C20.2668 126.723 20.136 126.602 19.967 126.515C19.8 126.429 19.6028 126.386 19.3754 126.386C19.1621 126.386 18.9608 126.425 18.7717 126.503C18.5845 126.58 18.4316 126.692 18.3129 126.838C18.1941 126.983 18.1298 127.158 18.1197 127.364H17.3953C17.4073 127.04 17.5049 126.756 17.6881 126.512C17.8712 126.267 18.1106 126.076 18.4064 125.939C18.7043 125.802 19.0313 125.734 19.3875 125.734C19.7698 125.734 20.0978 125.811 20.3715 125.966C20.6451 126.119 20.8554 126.321 21.0023 126.573C21.1492 126.824 21.2227 127.096 21.2227 127.388C21.2227 127.736 21.1311 128.033 20.948 128.278C20.7669 128.524 20.5204 128.694 20.2085 128.788V128.837C20.5989 128.901 20.9037 129.067 21.1231 129.335C21.3424 129.6 21.4521 129.929 21.4521 130.322C21.4521 130.658 21.3605 130.96 21.1774 131.227C20.9963 131.493 20.7488 131.702 20.4349 131.855C20.1209 132.008 19.7638 132.085 19.3633 132.085Z" fill="black"/>
<path d="M131.813 125.818V132H131.065V126.603H131.028L129.519 127.605V126.844L131.065 125.818H131.813ZM133.506 132V131.457L135.547 129.223C135.786 128.961 135.983 128.734 136.138 128.541C136.293 128.346 136.408 128.163 136.482 127.991C136.559 127.818 136.597 127.637 136.597 127.448C136.597 127.231 136.545 127.043 136.44 126.884C136.337 126.725 136.197 126.602 136.017 126.515C135.838 126.429 135.637 126.386 135.414 126.386C135.176 126.386 134.969 126.435 134.792 126.534C134.617 126.63 134.481 126.766 134.384 126.941C134.29 127.116 134.243 127.321 134.243 127.557H133.53C133.53 127.195 133.614 126.877 133.781 126.603C133.948 126.329 134.175 126.116 134.463 125.963C134.753 125.81 135.078 125.734 135.438 125.734C135.8 125.734 136.121 125.81 136.401 125.963C136.681 126.116 136.9 126.322 137.059 126.582C137.218 126.841 137.297 127.13 137.297 127.448C137.297 127.676 137.256 127.898 137.174 128.115C137.093 128.331 136.952 128.571 136.751 128.837C136.552 129.1 136.275 129.422 135.921 129.803L134.532 131.288V131.336H137.406V132H133.506ZM139.099 132.048C138.95 132.048 138.822 131.995 138.715 131.888C138.609 131.782 138.555 131.654 138.555 131.505C138.555 131.356 138.609 131.228 138.715 131.122C138.822 131.015 138.95 130.962 139.099 130.962C139.248 130.962 139.376 131.015 139.482 131.122C139.589 131.228 139.642 131.356 139.642 131.505C139.642 131.604 139.617 131.694 139.567 131.777C139.518 131.859 139.453 131.926 139.37 131.976C139.29 132.024 139.199 132.048 139.099 132.048ZM142.624 132.085C142.169 132.085 141.782 131.961 141.462 131.713C141.142 131.464 140.897 131.103 140.728 130.63C140.559 130.155 140.475 129.581 140.475 128.909C140.475 128.241 140.559 127.671 140.728 127.198C140.899 126.723 141.145 126.36 141.465 126.111C141.787 125.859 142.173 125.734 142.624 125.734C143.075 125.734 143.46 125.859 143.78 126.111C144.102 126.36 144.347 126.723 144.516 127.198C144.688 127.671 144.773 128.241 144.773 128.909C144.773 129.581 144.689 130.155 144.52 130.63C144.35 131.103 144.106 131.464 143.786 131.713C143.466 131.961 143.079 132.085 142.624 132.085ZM142.624 131.42C143.075 131.42 143.425 131.203 143.674 130.768C143.924 130.334 144.049 129.714 144.049 128.909C144.049 128.374 143.991 127.918 143.877 127.542C143.764 127.165 143.601 126.879 143.388 126.681C143.176 126.484 142.922 126.386 142.624 126.386C142.177 126.386 141.828 126.606 141.576 127.047C141.325 127.485 141.199 128.106 141.199 128.909C141.199 129.444 141.256 129.899 141.368 130.273C141.481 130.648 141.643 130.932 141.854 131.128C142.068 131.323 142.324 131.42 142.624 131.42ZM147.924 132.085C147.525 132.085 147.17 132.016 146.858 131.879C146.548 131.742 146.302 131.552 146.119 131.309C145.938 131.063 145.839 130.779 145.823 130.455H146.584C146.6 130.654 146.668 130.826 146.789 130.971C146.91 131.114 147.068 131.224 147.263 131.303C147.458 131.381 147.674 131.42 147.912 131.42C148.177 131.42 148.413 131.374 148.618 131.282C148.823 131.189 148.984 131.06 149.101 130.895C149.218 130.73 149.276 130.539 149.276 130.322C149.276 130.094 149.22 129.894 149.107 129.721C148.994 129.546 148.829 129.409 148.612 129.311C148.395 129.212 148.129 129.163 147.815 129.163H147.32V128.499H147.815C148.061 128.499 148.276 128.454 148.461 128.366C148.648 128.277 148.794 128.152 148.899 127.991C149.005 127.83 149.059 127.641 149.059 127.424C149.059 127.215 149.013 127.033 148.92 126.878C148.827 126.723 148.697 126.602 148.528 126.515C148.361 126.429 148.163 126.386 147.936 126.386C147.723 126.386 147.521 126.425 147.332 126.503C147.145 126.58 146.992 126.692 146.873 126.838C146.755 126.983 146.69 127.158 146.68 127.364H145.956C145.968 127.04 146.065 126.756 146.249 126.512C146.432 126.267 146.671 126.076 146.967 125.939C147.265 125.802 147.592 125.734 147.948 125.734C148.33 125.734 148.658 125.811 148.932 125.966C149.206 126.119 149.416 126.321 149.563 126.573C149.71 126.824 149.783 127.096 149.783 127.388C149.783 127.736 149.692 128.033 149.509 128.278C149.327 128.524 149.081 128.694 148.769 128.788V128.837C149.159 128.901 149.464 129.067 149.684 129.335C149.903 129.6 150.013 129.929 150.013 130.322C150.013 130.658 149.921 130.96 149.738 131.227C149.557 131.493 149.309 131.702 148.995 131.855C148.681 132.008 148.324 132.085 147.924 132.085Z" fill="black"/>
<path d="M310.813 125.818V132H310.065V126.603H310.028L308.519 127.605V126.844L310.065 125.818H310.813ZM312.361 130.732V130.116L315.078 125.818H315.525V126.772H315.223L313.17 130.02V130.068H316.829V130.732H312.361ZM315.271 132V130.545V130.258V125.818H315.983V132H315.271ZM318.115 132.048C317.967 132.048 317.839 131.995 317.732 131.888C317.625 131.782 317.572 131.654 317.572 131.505C317.572 131.356 317.625 131.228 317.732 131.122C317.839 131.015 317.967 130.962 318.115 130.962C318.264 130.962 318.392 131.015 318.499 131.122C318.605 131.228 318.659 131.356 318.659 131.505C318.659 131.604 318.634 131.694 318.583 131.777C318.535 131.859 318.47 131.926 318.387 131.976C318.307 132.024 318.216 132.048 318.115 132.048ZM321.641 132.085C321.186 132.085 320.798 131.961 320.478 131.713C320.158 131.464 319.914 131.103 319.745 130.63C319.576 130.155 319.491 129.581 319.491 128.909C319.491 128.241 319.576 127.671 319.745 127.198C319.916 126.723 320.161 126.36 320.481 126.111C320.803 125.859 321.19 125.734 321.641 125.734C322.091 125.734 322.477 125.859 322.797 126.111C323.119 126.36 323.364 126.723 323.533 127.198C323.704 127.671 323.79 128.241 323.79 128.909C323.79 129.581 323.705 130.155 323.536 130.63C323.367 131.103 323.123 131.464 322.803 131.713C322.483 131.961 322.095 132.085 321.641 132.085ZM321.641 131.42C322.091 131.42 322.441 131.203 322.691 130.768C322.94 130.334 323.065 129.714 323.065 128.909C323.065 128.374 323.008 127.918 322.893 127.542C322.78 127.165 322.617 126.879 322.404 126.681C322.193 126.484 321.938 126.386 321.641 126.386C321.194 126.386 320.845 126.606 320.593 127.047C320.342 127.485 320.216 128.106 320.216 128.909C320.216 129.444 320.272 129.899 320.385 130.273C320.498 130.648 320.66 130.932 320.871 131.128C321.084 131.323 321.341 131.42 321.641 131.42ZM326.94 132.085C326.542 132.085 326.187 132.016 325.875 131.879C325.565 131.742 325.319 131.552 325.135 131.309C324.954 131.063 324.856 130.779 324.84 130.455H325.6C325.616 130.654 325.685 130.826 325.806 130.971C325.926 131.114 326.084 131.224 326.279 131.303C326.475 131.381 326.691 131.42 326.928 131.42C327.194 131.42 327.429 131.374 327.635 131.282C327.84 131.189 328.001 131.06 328.118 130.895C328.234 130.73 328.293 130.539 328.293 130.322C328.293 130.094 328.236 129.894 328.124 129.721C328.011 129.546 327.846 129.409 327.629 129.311C327.411 129.212 327.146 129.163 326.832 129.163H326.337V128.499H326.832C327.077 128.499 327.293 128.454 327.478 128.366C327.665 128.277 327.811 128.152 327.915 127.991C328.022 127.83 328.075 127.641 328.075 127.424C328.075 127.215 328.029 127.033 327.937 126.878C327.844 126.723 327.713 126.602 327.544 126.515C327.377 126.429 327.18 126.386 326.953 126.386C326.739 126.386 326.538 126.425 326.349 126.503C326.162 126.58 326.009 126.692 325.89 126.838C325.771 126.983 325.707 127.158 325.697 127.364H324.972C324.984 127.04 325.082 126.756 325.265 126.512C325.448 126.267 325.688 126.076 325.984 125.939C326.281 125.802 326.608 125.734 326.965 125.734C327.347 125.734 327.675 125.811 327.949 125.966C328.222 126.119 328.433 126.321 328.579 126.573C328.726 126.824 328.8 127.096 328.8 127.388C328.8 127.736 328.708 128.033 328.525 128.278C328.344 128.524 328.098 128.694 327.786 128.788V128.837C328.176 128.901 328.481 129.067 328.7 129.335C328.92 129.6 329.029 129.929 329.029 130.322C329.029 130.658 328.938 130.96 328.755 131.227C328.573 131.493 328.326 131.702 328.012 131.855C327.698 132.008 327.341 132.085 326.94 132.085Z" fill="black"/>
<path d="M208.813 125.818V132H208.065V126.603H208.028L206.519 127.605V126.844L208.065 125.818H208.813ZM212.595 132.085C212.196 132.085 211.841 132.016 211.529 131.879C211.219 131.742 210.973 131.552 210.79 131.309C210.609 131.063 210.51 130.779 210.494 130.455H211.255C211.271 130.654 211.339 130.826 211.46 130.971C211.581 131.114 211.739 131.224 211.934 131.303C212.129 131.381 212.345 131.42 212.583 131.42C212.848 131.42 213.084 131.374 213.289 131.282C213.494 131.189 213.655 131.06 213.772 130.895C213.889 130.73 213.947 130.539 213.947 130.322C213.947 130.094 213.891 129.894 213.778 129.721C213.665 129.546 213.5 129.409 213.283 129.311C213.066 129.212 212.8 129.163 212.486 129.163H211.991V128.499H212.486C212.732 128.499 212.947 128.454 213.132 128.366C213.319 128.277 213.465 128.152 213.57 127.991C213.676 127.83 213.73 127.641 213.73 127.424C213.73 127.215 213.684 127.033 213.591 126.878C213.498 126.723 213.368 126.602 213.199 126.515C213.032 126.429 212.834 126.386 212.607 126.386C212.394 126.386 212.192 126.425 212.003 126.503C211.816 126.58 211.663 126.692 211.544 126.838C211.426 126.983 211.361 127.158 211.351 127.364H210.627C210.639 127.04 210.736 126.756 210.92 126.512C211.103 126.267 211.342 126.076 211.638 125.939C211.936 125.802 212.263 125.734 212.619 125.734C213.001 125.734 213.329 125.811 213.603 125.966C213.877 126.119 214.087 126.321 214.234 126.573C214.381 126.824 214.454 127.096 214.454 127.388C214.454 127.736 214.363 128.033 214.18 128.278C213.998 128.524 213.752 128.694 213.44 128.788V128.837C213.83 128.901 214.135 129.067 214.355 129.335C214.574 129.6 214.684 129.929 214.684 130.322C214.684 130.658 214.592 130.96 214.409 131.227C214.228 131.493 213.98 131.702 213.666 131.855C213.353 132.008 212.995 132.085 212.595 132.085ZM216.174 132.048C216.025 132.048 215.897 131.995 215.79 131.888C215.684 131.782 215.63 131.654 215.63 131.505C215.63 131.356 215.684 131.228 215.79 131.122C215.897 131.015 216.025 130.962 216.174 130.962C216.322 130.962 216.45 131.015 216.557 131.122C216.664 131.228 216.717 131.356 216.717 131.505C216.717 131.604 216.692 131.694 216.641 131.777C216.593 131.859 216.528 131.926 216.445 131.976C216.365 132.024 216.274 132.048 216.174 132.048ZM219.699 132.085C219.244 132.085 218.856 131.961 218.537 131.713C218.217 131.464 217.972 131.103 217.803 130.63C217.634 130.155 217.549 129.581 217.549 128.909C217.549 128.241 217.634 127.671 217.803 127.198C217.974 126.723 218.22 126.36 218.54 126.111C218.861 125.859 219.248 125.734 219.699 125.734C220.149 125.734 220.535 125.859 220.855 126.111C221.177 126.36 221.422 126.723 221.591 127.198C221.762 127.671 221.848 128.241 221.848 128.909C221.848 129.581 221.763 130.155 221.594 130.63C221.425 131.103 221.181 131.464 220.861 131.713C220.541 131.961 220.153 132.085 219.699 132.085ZM219.699 131.42C220.149 131.42 220.5 131.203 220.749 130.768C220.999 130.334 221.123 129.714 221.123 128.909C221.123 128.374 221.066 127.918 220.951 127.542C220.839 127.165 220.676 126.879 220.462 126.681C220.251 126.484 219.996 126.386 219.699 126.386C219.252 126.386 218.903 126.606 218.651 127.047C218.4 127.485 218.274 128.106 218.274 128.909C218.274 129.444 218.33 129.899 218.443 130.273C218.556 130.648 218.718 130.932 218.929 131.128C219.142 131.323 219.399 131.42 219.699 131.42ZM224.999 132.085C224.6 132.085 224.245 132.016 223.933 131.879C223.623 131.742 223.377 131.552 223.194 131.309C223.012 131.063 222.914 130.779 222.898 130.455H223.658C223.674 130.654 223.743 130.826 223.864 130.971C223.984 131.114 224.142 131.224 224.338 131.303C224.533 131.381 224.749 131.42 224.986 131.42C225.252 131.42 225.488 131.374 225.693 131.282C225.898 131.189 226.059 131.06 226.176 130.895C226.292 130.73 226.351 130.539 226.351 130.322C226.351 130.094 226.294 129.894 226.182 129.721C226.069 129.546 225.904 129.409 225.687 129.311C225.469 129.212 225.204 129.163 224.89 129.163H224.395V128.499H224.89C225.135 128.499 225.351 128.454 225.536 128.366C225.723 128.277 225.869 128.152 225.974 127.991C226.08 127.83 226.133 127.641 226.133 127.424C226.133 127.215 226.087 127.033 225.995 126.878C225.902 126.723 225.771 126.602 225.602 126.515C225.435 126.429 225.238 126.386 225.011 126.386C224.797 126.386 224.596 126.425 224.407 126.503C224.22 126.58 224.067 126.692 223.948 126.838C223.829 126.983 223.765 127.158 223.755 127.364H223.031C223.043 127.04 223.14 126.756 223.323 126.512C223.506 126.267 223.746 126.076 224.042 125.939C224.34 125.802 224.667 125.734 225.023 125.734C225.405 125.734 225.733 125.811 226.007 125.966C226.28 126.119 226.491 126.321 226.638 126.573C226.784 126.824 226.858 127.096 226.858 127.388C226.858 127.736 226.766 128.033 226.583 128.278C226.402 128.524 226.156 128.694 225.844 128.788V128.837C226.234 128.901 226.539 129.067 226.758 129.335C226.978 129.6 227.087 129.929 227.087 130.322C227.087 130.658 226.996 130.96 226.813 131.227C226.632 131.493 226.384 131.702 226.07 131.855C225.756 132.008 225.399 132.085 224.999 132.085Z" fill="black"/>
<path d="M387.813 125.818V132H387.065V126.603H387.028L385.519 127.605V126.844L387.065 125.818H387.813ZM391.438 132.085C391.084 132.085 390.765 132.014 390.481 131.873C390.197 131.732 389.97 131.539 389.799 131.294C389.628 131.048 389.534 130.768 389.518 130.455H390.243C390.271 130.734 390.398 130.966 390.623 131.149C390.85 131.33 391.122 131.42 391.438 131.42C391.691 131.42 391.917 131.361 392.114 131.242C392.313 131.124 392.469 130.961 392.582 130.753C392.697 130.544 392.754 130.308 392.754 130.044C392.754 129.774 392.695 129.534 392.576 129.323C392.459 129.109 392.298 128.941 392.093 128.819C391.888 128.696 391.653 128.633 391.39 128.631C391.2 128.629 391.006 128.659 390.807 128.719C390.608 128.777 390.444 128.853 390.315 128.945L389.615 128.861L389.989 125.818H393.201V126.482H390.617L390.4 128.305H390.436C390.563 128.205 390.722 128.121 390.913 128.055C391.104 127.988 391.303 127.955 391.51 127.955C391.889 127.955 392.226 128.046 392.522 128.227C392.819 128.406 393.053 128.652 393.222 128.963C393.393 129.275 393.478 129.632 393.478 130.032C393.478 130.426 393.39 130.779 393.213 131.088C393.038 131.396 392.796 131.64 392.488 131.819C392.18 131.996 391.83 132.085 391.438 132.085ZM394.891 132.048C394.742 132.048 394.615 131.995 394.508 131.888C394.401 131.782 394.348 131.654 394.348 131.505C394.348 131.356 394.401 131.228 394.508 131.122C394.615 131.015 394.742 130.962 394.891 130.962C395.04 130.962 395.168 131.015 395.275 131.122C395.381 131.228 395.435 131.356 395.435 131.505C395.435 131.604 395.409 131.694 395.359 131.777C395.311 131.859 395.245 131.926 395.163 131.976C395.082 132.024 394.992 132.048 394.891 132.048ZM398.416 132.085C397.962 132.085 397.574 131.961 397.254 131.713C396.934 131.464 396.69 131.103 396.521 130.63C396.352 130.155 396.267 129.581 396.267 128.909C396.267 128.241 396.352 127.671 396.521 127.198C396.692 126.723 396.937 126.36 397.257 126.111C397.579 125.859 397.966 125.734 398.416 125.734C398.867 125.734 399.253 125.859 399.572 126.111C399.894 126.36 400.14 126.723 400.309 127.198C400.48 127.671 400.566 128.241 400.566 128.909C400.566 129.581 400.481 130.155 400.312 130.63C400.143 131.103 399.898 131.464 399.578 131.713C399.259 131.961 398.871 132.085 398.416 132.085ZM398.416 131.42C398.867 131.42 399.217 131.203 399.467 130.768C399.716 130.334 399.841 129.714 399.841 128.909C399.841 128.374 399.784 127.918 399.669 127.542C399.556 127.165 399.393 126.879 399.18 126.681C398.969 126.484 398.714 126.386 398.416 126.386C397.97 126.386 397.621 126.606 397.369 127.047C397.117 127.485 396.992 128.106 396.992 128.909C396.992 129.444 397.048 129.899 397.161 130.273C397.273 130.648 397.435 130.932 397.647 131.128C397.86 131.323 398.117 131.42 398.416 131.42ZM403.716 132.085C403.318 132.085 402.963 132.016 402.651 131.879C402.341 131.742 402.094 131.552 401.911 131.309C401.73 131.063 401.632 130.779 401.615 130.455H402.376C402.392 130.654 402.461 130.826 402.581 130.971C402.702 131.114 402.86 131.224 403.055 131.303C403.25 131.381 403.467 131.42 403.704 131.42C403.97 131.42 404.205 131.374 404.411 131.282C404.616 131.189 404.777 131.06 404.894 130.895C405.01 130.73 405.069 130.539 405.069 130.322C405.069 130.094 405.012 129.894 404.9 129.721C404.787 129.546 404.622 129.409 404.405 129.311C404.187 129.212 403.922 129.163 403.608 129.163H403.113V128.499H403.608C403.853 128.499 404.068 128.454 404.254 128.366C404.441 128.277 404.587 128.152 404.691 127.991C404.798 127.83 404.851 127.641 404.851 127.424C404.851 127.215 404.805 127.033 404.712 126.878C404.62 126.723 404.489 126.602 404.32 126.515C404.153 126.429 403.956 126.386 403.728 126.386C403.515 126.386 403.314 126.425 403.125 126.503C402.938 126.58 402.785 126.692 402.666 126.838C402.547 126.983 402.483 127.158 402.473 127.364H401.748C401.76 127.04 401.858 126.756 402.041 126.512C402.224 126.267 402.464 126.076 402.759 125.939C403.057 125.802 403.384 125.734 403.74 125.734C404.123 125.734 404.451 125.811 404.724 125.966C404.998 126.119 405.208 126.321 405.355 126.573C405.502 126.824 405.576 127.096 405.576 127.388C405.576 127.736 405.484 128.033 405.301 128.278C405.12 128.524 404.873 128.694 404.562 128.788V128.837C404.952 128.901 405.257 129.067 405.476 129.335C405.695 129.6 405.805 129.929 405.805 130.322C405.805 130.658 405.714 130.96 405.53 131.227C405.349 131.493 405.102 131.702 404.788 131.855C404.474 132.008 404.117 132.085 403.716 132.085Z" fill="black"/>
<path d="M439.813 125.818V132H439.065V126.603H439.028L437.519 127.605V126.844L439.065 125.818H439.813ZM443.559 132.085C443.305 132.08 443.052 132.032 442.798 131.94C442.544 131.847 442.313 131.691 442.104 131.472C441.894 131.25 441.726 130.952 441.6 130.575C441.473 130.197 441.409 129.722 441.409 129.151C441.409 128.603 441.461 128.118 441.563 127.696C441.666 127.271 441.815 126.914 442.01 126.624C442.205 126.332 442.441 126.111 442.716 125.96C442.994 125.809 443.307 125.734 443.655 125.734C444.001 125.734 444.309 125.803 444.579 125.942C444.851 126.079 445.072 126.27 445.243 126.515C445.414 126.761 445.525 127.044 445.575 127.364H444.838C444.77 127.086 444.637 126.856 444.44 126.672C444.243 126.489 443.981 126.398 443.655 126.398C443.176 126.398 442.799 126.606 442.523 127.023C442.25 127.439 442.112 128.024 442.11 128.776H442.158C442.271 128.605 442.405 128.459 442.56 128.339C442.716 128.216 442.89 128.121 443.079 128.055C443.268 127.988 443.468 127.955 443.679 127.955C444.034 127.955 444.358 128.044 444.651 128.221C444.945 128.396 445.181 128.638 445.358 128.948C445.535 129.256 445.623 129.609 445.623 130.008C445.623 130.39 445.538 130.74 445.367 131.058C445.196 131.374 444.955 131.626 444.645 131.813C444.337 131.998 443.975 132.089 443.559 132.085ZM443.559 131.42C443.812 131.42 444.04 131.357 444.241 131.23C444.444 131.104 444.604 130.933 444.721 130.72C444.839 130.507 444.899 130.269 444.899 130.008C444.899 129.752 444.841 129.52 444.727 129.311C444.614 129.099 444.458 128.931 444.259 128.806C444.062 128.682 443.836 128.619 443.583 128.619C443.392 128.619 443.214 128.658 443.049 128.734C442.884 128.808 442.739 128.911 442.614 129.042C442.491 129.173 442.395 129.323 442.324 129.492C442.254 129.659 442.218 129.835 442.218 130.02C442.218 130.265 442.276 130.495 442.39 130.708C442.507 130.921 442.666 131.093 442.867 131.224C443.071 131.355 443.301 131.42 443.559 131.42ZM446.966 132.048C446.817 132.048 446.689 131.995 446.583 131.888C446.476 131.782 446.423 131.654 446.423 131.505C446.423 131.356 446.476 131.228 446.583 131.122C446.689 131.015 446.817 130.962 446.966 130.962C447.115 130.962 447.243 131.015 447.349 131.122C447.456 131.228 447.509 131.356 447.509 131.505C447.509 131.604 447.484 131.694 447.434 131.777C447.386 131.859 447.32 131.926 447.238 131.976C447.157 132.024 447.067 132.048 446.966 132.048ZM450.491 132.085C450.036 132.085 449.649 131.961 449.329 131.713C449.009 131.464 448.765 131.103 448.595 130.63C448.426 130.155 448.342 129.581 448.342 128.909C448.342 128.241 448.426 127.671 448.595 127.198C448.767 126.723 449.012 126.36 449.332 126.111C449.654 125.859 450.04 125.734 450.491 125.734C450.942 125.734 451.327 125.859 451.647 126.111C451.969 126.36 452.215 126.723 452.384 127.198C452.555 127.671 452.64 128.241 452.64 128.909C452.64 129.581 452.556 130.155 452.387 130.63C452.218 131.103 451.973 131.464 451.653 131.713C451.333 131.961 450.946 132.085 450.491 132.085ZM450.491 131.42C450.942 131.42 451.292 131.203 451.542 130.768C451.791 130.334 451.916 129.714 451.916 128.909C451.916 128.374 451.858 127.918 451.744 127.542C451.631 127.165 451.468 126.879 451.255 126.681C451.043 126.484 450.789 126.386 450.491 126.386C450.044 126.386 449.695 126.606 449.444 127.047C449.192 127.485 449.066 128.106 449.066 128.909C449.066 129.444 449.123 129.899 449.235 130.273C449.348 130.648 449.51 130.932 449.721 131.128C449.935 131.323 450.191 131.42 450.491 131.42ZM455.791 132.085C455.393 132.085 455.037 132.016 454.726 131.879C454.416 131.742 454.169 131.552 453.986 131.309C453.805 131.063 453.706 130.779 453.69 130.455H454.451C454.467 130.654 454.535 130.826 454.656 130.971C454.777 131.114 454.935 131.224 455.13 131.303C455.325 131.381 455.542 131.42 455.779 131.42C456.045 131.42 456.28 131.374 456.485 131.282C456.691 131.189 456.852 131.06 456.968 130.895C457.085 130.73 457.143 130.539 457.143 130.322C457.143 130.094 457.087 129.894 456.974 129.721C456.862 129.546 456.697 129.409 456.479 129.311C456.262 129.212 455.996 129.163 455.682 129.163H455.187V128.499H455.682C455.928 128.499 456.143 128.454 456.328 128.366C456.515 128.277 456.661 128.152 456.766 127.991C456.873 127.83 456.926 127.641 456.926 127.424C456.926 127.215 456.88 127.033 456.787 126.878C456.695 126.723 456.564 126.602 456.395 126.515C456.228 126.429 456.031 126.386 455.803 126.386C455.59 126.386 455.389 126.425 455.199 126.503C455.012 126.58 454.859 126.692 454.741 126.838C454.622 126.983 454.557 127.158 454.547 127.364H453.823C453.835 127.04 453.933 126.756 454.116 126.512C454.299 126.267 454.538 126.076 454.834 125.939C455.132 125.802 455.459 125.734 455.815 125.734C456.198 125.734 456.526 125.811 456.799 125.966C457.073 126.119 457.283 126.321 457.43 126.573C457.577 126.824 457.65 127.096 457.65 127.388C457.65 127.736 457.559 128.033 457.376 128.278C457.195 128.524 456.948 128.694 456.636 128.788V128.837C457.027 128.901 457.331 129.067 457.551 129.335C457.77 129.6 457.88 129.929 457.88 130.322C457.88 130.658 457.788 130.96 457.605 131.227C457.424 131.493 457.177 131.702 456.863 131.855C456.549 132.008 456.191 132.085 455.791 132.085Z" fill="black"/>
<path d="M206.64 12V11.4567L208.68 9.22301C208.92 8.96141 209.117 8.73402 209.272 8.54084C209.427 8.34564 209.542 8.16252 209.616 7.99148C209.693 7.81842 209.731 7.63731 209.731 7.44815C209.731 7.23082 209.679 7.04267 209.574 6.8837C209.471 6.72473 209.33 6.60198 209.151 6.51545C208.972 6.42892 208.771 6.38565 208.548 6.38565C208.31 6.38565 208.103 6.43495 207.926 6.53356C207.751 6.63015 207.615 6.76598 207.518 6.94105C207.424 7.11612 207.376 7.32138 207.376 7.55682H206.664C206.664 7.1946 206.748 6.87666 206.915 6.60298C207.082 6.32931 207.309 6.116 207.597 5.96307C207.887 5.81013 208.212 5.73366 208.572 5.73366C208.934 5.73366 209.255 5.81013 209.535 5.96307C209.814 6.116 210.034 6.32227 210.193 6.58185C210.352 6.84144 210.431 7.13021 210.431 7.44815C210.431 7.67554 210.39 7.8979 210.307 8.11523C210.227 8.33055 210.086 8.57102 209.885 8.83665C209.686 9.10026 209.409 9.42223 209.055 9.80256L207.666 11.2876V11.3359H210.54V12H206.64ZM211.424 10.7322V10.1165L214.14 5.81818H214.587V6.77202H214.285L212.233 10.0199V10.0682H215.891V10.7322H211.424ZM214.334 12V10.5451V10.2583V5.81818H215.046V12H214.334ZM217.178 12.0483C217.029 12.0483 216.901 11.995 216.795 11.8883C216.688 11.7817 216.635 11.6539 216.635 11.505C216.635 11.3561 216.688 11.2283 216.795 11.1216C216.901 11.015 217.029 10.9616 217.178 10.9616C217.327 10.9616 217.455 11.015 217.561 11.1216C217.668 11.2283 217.721 11.3561 217.721 11.505C217.721 11.6036 217.696 11.6941 217.646 11.7766C217.597 11.8591 217.532 11.9255 217.45 11.9759C217.369 12.0241 217.279 12.0483 217.178 12.0483ZM220.703 12.0845C220.248 12.0845 219.861 11.9608 219.541 11.7132C219.221 11.4637 218.976 11.1025 218.807 10.6296C218.638 10.1547 218.554 9.5812 218.554 8.90909C218.554 8.241 218.638 7.67051 218.807 7.19762C218.978 6.72272 219.224 6.3605 219.544 6.11097C219.866 5.85943 220.252 5.73366 220.703 5.73366C221.154 5.73366 221.539 5.85943 221.859 6.11097C222.181 6.3605 222.427 6.72272 222.596 7.19762C222.767 7.67051 222.852 8.241 222.852 8.90909C222.852 9.5812 222.768 10.1547 222.599 10.6296C222.43 11.1025 222.185 11.4637 221.865 11.7132C221.545 11.9608 221.158 12.0845 220.703 12.0845ZM220.703 11.4205C221.154 11.4205 221.504 11.2031 221.753 10.7685C222.003 10.3338 222.128 9.71402 222.128 8.90909C222.128 8.37382 222.07 7.91803 221.956 7.54173C221.843 7.16542 221.68 6.87867 221.467 6.68146C221.255 6.48426 221.001 6.38565 220.703 6.38565C220.256 6.38565 219.907 6.606 219.656 7.0467C219.404 7.48538 219.278 8.10618 219.278 8.90909C219.278 9.44437 219.335 9.89915 219.447 10.2734C219.56 10.6477 219.722 10.9325 219.933 11.1277C220.147 11.3229 220.403 11.4205 220.703 11.4205ZM226.003 12.0845C225.605 12.0845 225.249 12.0161 224.937 11.8793C224.628 11.7424 224.381 11.5523 224.198 11.3088C224.017 11.0633 223.918 10.7785 223.902 10.4545H224.663C224.679 10.6538 224.747 10.8258 224.868 10.9707C224.989 11.1136 225.147 11.2243 225.342 11.3027C225.537 11.3812 225.753 11.4205 225.991 11.4205C226.257 11.4205 226.492 11.3742 226.697 11.2816C226.902 11.189 227.063 11.0603 227.18 10.8952C227.297 10.7302 227.355 10.5391 227.355 10.3217C227.355 10.0943 227.299 9.89412 227.186 9.72106C227.074 9.54599 226.908 9.40915 226.691 9.31055C226.474 9.21194 226.208 9.16264 225.894 9.16264H225.399V8.49858H225.894C226.14 8.49858 226.355 8.45431 226.54 8.36577C226.727 8.27723 226.873 8.15246 226.978 7.99148C227.085 7.83049 227.138 7.64134 227.138 7.42401C227.138 7.21473 227.092 7.03261 226.999 6.87766C226.906 6.72272 226.776 6.60198 226.607 6.51545C226.44 6.42892 226.242 6.38565 226.015 6.38565C225.802 6.38565 225.6 6.42489 225.411 6.50337C225.224 6.57984 225.071 6.69152 224.953 6.83842C224.834 6.98331 224.769 7.15838 224.759 7.36364H224.035C224.047 7.03965 224.145 6.75592 224.328 6.51243C224.511 6.26693 224.75 6.07576 225.046 5.93892C225.344 5.80208 225.671 5.73366 226.027 5.73366C226.409 5.73366 226.737 5.81114 227.011 5.96609C227.285 6.11902 227.495 6.32126 227.642 6.5728C227.789 6.82434 227.862 7.096 227.862 7.38778C227.862 7.73591 227.771 8.03273 227.588 8.27823C227.407 8.52373 227.16 8.69377 226.848 8.78835V8.83665C227.239 8.90104 227.543 9.06706 227.763 9.33469C227.982 9.60032 228.092 9.92933 228.092 10.3217C228.092 10.6578 228 10.9596 227.817 11.2273C227.636 11.4929 227.388 11.7022 227.075 11.8551C226.761 12.008 226.403 12.0845 226.003 12.0845Z" fill="black"/>
<path d="M385.64 12V11.4567L387.68 9.22301C387.92 8.96141 388.117 8.73402 388.272 8.54084C388.427 8.34564 388.542 8.16252 388.616 7.99148C388.693 7.81842 388.731 7.63731 388.731 7.44815C388.731 7.23082 388.679 7.04267 388.574 6.8837C388.471 6.72473 388.33 6.60198 388.151 6.51545C387.972 6.42892 387.771 6.38565 387.548 6.38565C387.31 6.38565 387.103 6.43495 386.926 6.53356C386.751 6.63015 386.615 6.76598 386.518 6.94105C386.424 7.11612 386.376 7.32138 386.376 7.55682H385.664C385.664 7.1946 385.748 6.87666 385.915 6.60298C386.082 6.32931 386.309 6.116 386.597 5.96307C386.887 5.81013 387.212 5.73366 387.572 5.73366C387.934 5.73366 388.255 5.81013 388.535 5.96307C388.814 6.116 389.034 6.32227 389.193 6.58185C389.352 6.84144 389.431 7.13021 389.431 7.44815C389.431 7.67554 389.39 7.8979 389.307 8.11523C389.227 8.33055 389.086 8.57102 388.885 8.83665C388.686 9.10026 388.409 9.42223 388.055 9.80256L386.666 11.2876V11.3359H389.54V12H385.64ZM390.701 12V11.4567L392.742 9.22301C392.981 8.96141 393.179 8.73402 393.334 8.54084C393.488 8.34564 393.603 8.16252 393.678 7.99148C393.754 7.81842 393.792 7.63731 393.792 7.44815C393.792 7.23082 393.74 7.04267 393.635 6.8837C393.533 6.72473 393.392 6.60198 393.213 6.51545C393.034 6.42892 392.832 6.38565 392.609 6.38565C392.372 6.38565 392.164 6.43495 391.987 6.53356C391.812 6.63015 391.676 6.76598 391.58 6.94105C391.485 7.11612 391.438 7.32138 391.438 7.55682H390.726C390.726 7.1946 390.809 6.87666 390.976 6.60298C391.143 6.32931 391.37 6.116 391.658 5.96307C391.948 5.81013 392.273 5.73366 392.633 5.73366C392.995 5.73366 393.316 5.81013 393.596 5.96307C393.876 6.116 394.095 6.32227 394.254 6.58185C394.413 6.84144 394.493 7.13021 394.493 7.44815C394.493 7.67554 394.451 7.8979 394.369 8.11523C394.288 8.33055 394.147 8.57102 393.946 8.83665C393.747 9.10026 393.47 9.42223 393.116 9.80256L391.728 11.2876V11.3359H394.601V12H390.701ZM396.294 12.0483C396.145 12.0483 396.017 11.995 395.911 11.8883C395.804 11.7817 395.751 11.6539 395.751 11.505C395.751 11.3561 395.804 11.2283 395.911 11.1216C396.017 11.015 396.145 10.9616 396.294 10.9616C396.443 10.9616 396.571 11.015 396.677 11.1216C396.784 11.2283 396.837 11.3561 396.837 11.505C396.837 11.6036 396.812 11.6941 396.762 11.7766C396.714 11.8591 396.648 11.9255 396.566 11.9759C396.485 12.0241 396.395 12.0483 396.294 12.0483ZM399.819 12.0845C399.364 12.0845 398.977 11.9608 398.657 11.7132C398.337 11.4637 398.093 11.1025 397.924 10.6296C397.755 10.1547 397.67 9.5812 397.67 8.90909C397.67 8.241 397.755 7.67051 397.924 7.19762C398.095 6.72272 398.34 6.3605 398.66 6.11097C398.982 5.85943 399.368 5.73366 399.819 5.73366C400.27 5.73366 400.655 5.85943 400.975 6.11097C401.297 6.3605 401.543 6.72272 401.712 7.19762C401.883 7.67051 401.968 8.241 401.968 8.90909C401.968 9.5812 401.884 10.1547 401.715 10.6296C401.546 11.1025 401.301 11.4637 400.981 11.7132C400.661 11.9608 400.274 12.0845 399.819 12.0845ZM399.819 11.4205C400.27 11.4205 400.62 11.2031 400.87 10.7685C401.119 10.3338 401.244 9.71402 401.244 8.90909C401.244 8.37382 401.187 7.91803 401.072 7.54173C400.959 7.16542 400.796 6.87867 400.583 6.68146C400.372 6.48426 400.117 6.38565 399.819 6.38565C399.372 6.38565 399.023 6.606 398.772 7.0467C398.52 7.48538 398.395 8.10618 398.395 8.90909C398.395 9.44437 398.451 9.89915 398.564 10.2734C398.676 10.6477 398.838 10.9325 399.05 11.1277C399.263 11.3229 399.519 11.4205 399.819 11.4205ZM405.119 12.0845C404.721 12.0845 404.366 12.0161 404.054 11.8793C403.744 11.7424 403.497 11.5523 403.314 11.3088C403.133 11.0633 403.034 10.7785 403.018 10.4545H403.779C403.795 10.6538 403.863 10.8258 403.984 10.9707C404.105 11.1136 404.263 11.2243 404.458 11.3027C404.653 11.3812 404.87 11.4205 405.107 11.4205C405.373 11.4205 405.608 11.3742 405.813 11.2816C406.019 11.189 406.18 11.0603 406.296 10.8952C406.413 10.7302 406.471 10.5391 406.471 10.3217C406.471 10.0943 406.415 9.89412 406.302 9.72106C406.19 9.54599 406.025 9.40915 405.807 9.31055C405.59 9.21194 405.324 9.16264 405.01 9.16264H404.515V8.49858H405.01C405.256 8.49858 405.471 8.45431 405.656 8.36577C405.844 8.27723 405.989 8.15246 406.094 7.99148C406.201 7.83049 406.254 7.64134 406.254 7.42401C406.254 7.21473 406.208 7.03261 406.115 6.87766C406.023 6.72272 405.892 6.60198 405.723 6.51545C405.556 6.42892 405.359 6.38565 405.131 6.38565C404.918 6.38565 404.717 6.42489 404.528 6.50337C404.34 6.57984 404.187 6.69152 404.069 6.83842C403.95 6.98331 403.886 7.15838 403.876 7.36364H403.151C403.163 7.03965 403.261 6.75592 403.444 6.51243C403.627 6.26693 403.866 6.07576 404.162 5.93892C404.46 5.80208 404.787 5.73366 405.143 5.73366C405.526 5.73366 405.854 5.81114 406.127 5.96609C406.401 6.11902 406.611 6.32126 406.758 6.5728C406.905 6.82434 406.979 7.096 406.979 7.38778C406.979 7.73591 406.887 8.03273 406.704 8.27823C406.523 8.52373 406.276 8.69377 405.964 8.78835V8.83665C406.355 8.90104 406.66 9.06706 406.879 9.33469C407.098 9.60032 407.208 9.92933 407.208 10.3217C407.208 10.6578 407.116 10.9596 406.933 11.2273C406.752 11.4929 406.505 11.7022 406.191 11.8551C405.877 12.008 405.52 12.0845 405.119 12.0845Z" fill="black"/>
<path d="M437.64 12V11.4567L439.68 9.22301C439.92 8.96141 440.117 8.73402 440.272 8.54084C440.427 8.34564 440.542 8.16252 440.616 7.99148C440.693 7.81842 440.731 7.63731 440.731 7.44815C440.731 7.23082 440.679 7.04267 440.574 6.8837C440.471 6.72473 440.33 6.60198 440.151 6.51545C439.972 6.42892 439.771 6.38565 439.548 6.38565C439.31 6.38565 439.103 6.43495 438.926 6.53356C438.751 6.63015 438.615 6.76598 438.518 6.94105C438.424 7.11612 438.376 7.32138 438.376 7.55682H437.664C437.664 7.1946 437.748 6.87666 437.915 6.60298C438.082 6.32931 438.309 6.116 438.597 5.96307C438.887 5.81013 439.212 5.73366 439.572 5.73366C439.934 5.73366 440.255 5.81013 440.535 5.96307C440.814 6.116 441.034 6.32227 441.193 6.58185C441.352 6.84144 441.431 7.13021 441.431 7.44815C441.431 7.67554 441.39 7.8979 441.307 8.11523C441.227 8.33055 441.086 8.57102 440.885 8.83665C440.686 9.10026 440.409 9.42223 440.055 9.80256L438.666 11.2876V11.3359H441.54V12H437.64ZM444.875 5.81818V12H444.126V6.60298H444.09L442.581 7.60511V6.84446L444.126 5.81818H444.875ZM446.734 12.0483C446.585 12.0483 446.457 11.995 446.35 11.8883C446.244 11.7817 446.19 11.6539 446.19 11.505C446.19 11.3561 446.244 11.2283 446.35 11.1216C446.457 11.015 446.585 10.9616 446.734 10.9616C446.882 10.9616 447.01 11.015 447.117 11.1216C447.224 11.2283 447.277 11.3561 447.277 11.505C447.277 11.6036 447.252 11.6941 447.201 11.7766C447.153 11.8591 447.088 11.9255 447.005 11.9759C446.925 12.0241 446.834 12.0483 446.734 12.0483ZM450.259 12.0845C449.804 12.0845 449.417 11.9608 449.097 11.7132C448.777 11.4637 448.532 11.1025 448.363 10.6296C448.194 10.1547 448.11 9.5812 448.11 8.90909C448.11 8.241 448.194 7.67051 448.363 7.19762C448.534 6.72272 448.78 6.3605 449.1 6.11097C449.422 5.85943 449.808 5.73366 450.259 5.73366C450.709 5.73366 451.095 5.85943 451.415 6.11097C451.737 6.3605 451.982 6.72272 452.151 7.19762C452.322 7.67051 452.408 8.241 452.408 8.90909C452.408 9.5812 452.323 10.1547 452.154 10.6296C451.985 11.1025 451.741 11.4637 451.421 11.7132C451.101 11.9608 450.713 12.0845 450.259 12.0845ZM450.259 11.4205C450.709 11.4205 451.06 11.2031 451.309 10.7685C451.559 10.3338 451.683 9.71402 451.683 8.90909C451.683 8.37382 451.626 7.91803 451.511 7.54173C451.399 7.16542 451.236 6.87867 451.022 6.68146C450.811 6.48426 450.556 6.38565 450.259 6.38565C449.812 6.38565 449.463 6.606 449.211 7.0467C448.96 7.48538 448.834 8.10618 448.834 8.90909C448.834 9.44437 448.89 9.89915 449.003 10.2734C449.116 10.6477 449.278 10.9325 449.489 11.1277C449.702 11.3229 449.959 11.4205 450.259 11.4205ZM455.559 12.0845C455.16 12.0845 454.805 12.0161 454.493 11.8793C454.183 11.7424 453.937 11.5523 453.754 11.3088C453.572 11.0633 453.474 10.7785 453.458 10.4545H454.218C454.235 10.6538 454.303 10.8258 454.424 10.9707C454.544 11.1136 454.702 11.2243 454.898 11.3027C455.093 11.3812 455.309 11.4205 455.547 11.4205C455.812 11.4205 456.048 11.3742 456.253 11.2816C456.458 11.189 456.619 11.0603 456.736 10.8952C456.853 10.7302 456.911 10.5391 456.911 10.3217C456.911 10.0943 456.855 9.89412 456.742 9.72106C456.629 9.54599 456.464 9.40915 456.247 9.31055C456.029 9.21194 455.764 9.16264 455.45 9.16264H454.955V8.49858H455.45C455.695 8.49858 455.911 8.45431 456.096 8.36577C456.283 8.27723 456.429 8.15246 456.534 7.99148C456.64 7.83049 456.694 7.64134 456.694 7.42401C456.694 7.21473 456.647 7.03261 456.555 6.87766C456.462 6.72272 456.331 6.60198 456.162 6.51545C455.995 6.42892 455.798 6.38565 455.571 6.38565C455.357 6.38565 455.156 6.42489 454.967 6.50337C454.78 6.57984 454.627 6.69152 454.508 6.83842C454.389 6.98331 454.325 7.15838 454.315 7.36364H453.591C453.603 7.03965 453.7 6.75592 453.883 6.51243C454.066 6.26693 454.306 6.07576 454.602 5.93892C454.9 5.80208 455.227 5.73366 455.583 5.73366C455.965 5.73366 456.293 5.81114 456.567 5.96609C456.84 6.11902 457.051 6.32126 457.198 6.5728C457.345 6.82434 457.418 7.096 457.418 7.38778C457.418 7.73591 457.326 8.03273 457.143 8.27823C456.962 8.52373 456.716 8.69377 456.404 8.78835V8.83665C456.794 8.90104 457.099 9.06706 457.318 9.33469C457.538 9.60032 457.647 9.92933 457.647 10.3217C457.647 10.6578 457.556 10.9596 457.373 11.2273C457.192 11.4929 456.944 11.7022 456.63 11.8551C456.316 12.008 455.959 12.0845 455.559 12.0845Z" fill="black"/>
<path d="M129.64 12V11.4567L131.68 9.22301C131.92 8.96141 132.117 8.73402 132.272 8.54084C132.427 8.34564 132.542 8.16252 132.616 7.99148C132.693 7.81842 132.731 7.63731 132.731 7.44815C132.731 7.23082 132.679 7.04267 132.574 6.8837C132.471 6.72473 132.33 6.60198 132.151 6.51545C131.972 6.42892 131.771 6.38565 131.548 6.38565C131.31 6.38565 131.103 6.43495 130.926 6.53356C130.751 6.63015 130.615 6.76598 130.518 6.94105C130.424 7.11612 130.376 7.32138 130.376 7.55682H129.664C129.664 7.1946 129.748 6.87666 129.915 6.60298C130.082 6.32931 130.309 6.116 130.597 5.96307C130.887 5.81013 131.212 5.73366 131.572 5.73366C131.934 5.73366 132.255 5.81013 132.535 5.96307C132.814 6.116 133.034 6.32227 133.193 6.58185C133.352 6.84144 133.431 7.13021 133.431 7.44815C133.431 7.67554 133.39 7.8979 133.307 8.11523C133.227 8.33055 133.086 8.57102 132.885 8.83665C132.686 9.10026 132.409 9.42223 132.055 9.80256L130.666 11.2876V11.3359H133.54V12H129.64ZM136.633 12.0845C136.279 12.0845 135.96 12.0141 135.676 11.8732C135.393 11.7324 135.165 11.5392 134.994 11.2937C134.823 11.0482 134.73 10.7685 134.713 10.4545H135.438C135.466 10.7343 135.593 10.9657 135.818 11.1488C136.046 11.3299 136.317 11.4205 136.633 11.4205C136.887 11.4205 137.112 11.3611 137.309 11.2424C137.509 11.1236 137.665 10.9606 137.777 10.7534C137.892 10.5441 137.949 10.3076 137.949 10.044C137.949 9.77438 137.89 9.53391 137.771 9.32262C137.654 9.10932 137.493 8.94129 137.288 8.81854C137.083 8.69579 136.849 8.6334 136.585 8.63139C136.396 8.62938 136.202 8.65856 136.002 8.71893C135.803 8.77728 135.639 8.85275 135.51 8.94531L134.81 8.8608L135.184 5.81818H138.396V6.48224H135.812L135.595 8.3054H135.631C135.758 8.20478 135.917 8.12127 136.108 8.05486C136.299 7.98846 136.498 7.95526 136.706 7.95526C137.084 7.95526 137.421 8.04581 137.717 8.22692C138.015 8.40601 138.248 8.65152 138.417 8.96342C138.588 9.27533 138.674 9.63151 138.674 10.032C138.674 10.4264 138.585 10.7785 138.408 11.0884C138.233 11.3963 137.992 11.6398 137.684 11.8189C137.376 11.996 137.026 12.0845 136.633 12.0845ZM140.087 12.0483C139.938 12.0483 139.81 11.995 139.703 11.8883C139.597 11.7817 139.543 11.6539 139.543 11.505C139.543 11.3561 139.597 11.2283 139.703 11.1216C139.81 11.015 139.938 10.9616 140.087 10.9616C140.236 10.9616 140.363 11.015 140.47 11.1216C140.577 11.2283 140.63 11.3561 140.63 11.505C140.63 11.6036 140.605 11.6941 140.554 11.7766C140.506 11.8591 140.441 11.9255 140.358 11.9759C140.278 12.0241 140.187 12.0483 140.087 12.0483ZM143.612 12.0845C143.157 12.0845 142.77 11.9608 142.45 11.7132C142.13 11.4637 141.885 11.1025 141.716 10.6296C141.547 10.1547 141.463 9.5812 141.463 8.90909C141.463 8.241 141.547 7.67051 141.716 7.19762C141.887 6.72272 142.133 6.3605 142.453 6.11097C142.775 5.85943 143.161 5.73366 143.612 5.73366C144.062 5.73366 144.448 5.85943 144.768 6.11097C145.09 6.3605 145.335 6.72272 145.504 7.19762C145.675 7.67051 145.761 8.241 145.761 8.90909C145.761 9.5812 145.676 10.1547 145.507 10.6296C145.338 11.1025 145.094 11.4637 144.774 11.7132C144.454 11.9608 144.066 12.0845 143.612 12.0845ZM143.612 11.4205C144.062 11.4205 144.413 11.2031 144.662 10.7685C144.912 10.3338 145.036 9.71402 145.036 8.90909C145.036 8.37382 144.979 7.91803 144.864 7.54173C144.752 7.16542 144.589 6.87867 144.375 6.68146C144.164 6.48426 143.91 6.38565 143.612 6.38565C143.165 6.38565 142.816 6.606 142.564 7.0467C142.313 7.48538 142.187 8.10618 142.187 8.90909C142.187 9.44437 142.243 9.89915 142.356 10.2734C142.469 10.6477 142.631 10.9325 142.842 11.1277C143.055 11.3229 143.312 11.4205 143.612 11.4205ZM148.912 12.0845C148.513 12.0845 148.158 12.0161 147.846 11.8793C147.536 11.7424 147.29 11.5523 147.107 11.3088C146.925 11.0633 146.827 10.7785 146.811 10.4545H147.571C147.588 10.6538 147.656 10.8258 147.777 10.9707C147.897 11.1136 148.055 11.2243 148.251 11.3027C148.446 11.3812 148.662 11.4205 148.9 11.4205C149.165 11.4205 149.401 11.3742 149.606 11.2816C149.811 11.189 149.972 11.0603 150.089 10.8952C150.206 10.7302 150.264 10.5391 150.264 10.3217C150.264 10.0943 150.208 9.89412 150.095 9.72106C149.982 9.54599 149.817 9.40915 149.6 9.31055C149.383 9.21194 149.117 9.16264 148.803 9.16264H148.308V8.49858H148.803C149.048 8.49858 149.264 8.45431 149.449 8.36577C149.636 8.27723 149.782 8.15246 149.887 7.99148C149.993 7.83049 150.047 7.64134 150.047 7.42401C150.047 7.21473 150 7.03261 149.908 6.87766C149.815 6.72272 149.684 6.60198 149.515 6.51545C149.348 6.42892 149.151 6.38565 148.924 6.38565C148.71 6.38565 148.509 6.42489 148.32 6.50337C148.133 6.57984 147.98 6.69152 147.861 6.83842C147.742 6.98331 147.678 7.15838 147.668 7.36364H146.944C146.956 7.03965 147.053 6.75592 147.236 6.51243C147.42 6.26693 147.659 6.07576 147.955 5.93892C148.253 5.80208 148.58 5.73366 148.936 5.73366C149.318 5.73366 149.646 5.81114 149.92 5.96609C150.193 6.11902 150.404 6.32126 150.551 6.5728C150.698 6.82434 150.771 7.096 150.771 7.38778C150.771 7.73591 150.679 8.03273 150.496 8.27823C150.315 8.52373 150.069 8.69377 149.757 8.78835V8.83665C150.147 8.90104 150.452 9.06706 150.671 9.33469C150.891 9.60032 151 9.92933 151 10.3217C151 10.6578 150.909 10.9596 150.726 11.2273C150.545 11.4929 150.297 11.7022 149.983 11.8551C149.669 12.008 149.312 12.0845 148.912 12.0845Z" fill="black"/>
<path d="M308.64 12V11.4567L310.68 9.22301C310.92 8.96141 311.117 8.73402 311.272 8.54084C311.427 8.34564 311.542 8.16252 311.616 7.99148C311.693 7.81842 311.731 7.63731 311.731 7.44815C311.731 7.23082 311.679 7.04267 311.574 6.8837C311.471 6.72473 311.33 6.60198 311.151 6.51545C310.972 6.42892 310.771 6.38565 310.548 6.38565C310.31 6.38565 310.103 6.43495 309.926 6.53356C309.751 6.63015 309.615 6.76598 309.518 6.94105C309.424 7.11612 309.376 7.32138 309.376 7.55682H308.664C308.664 7.1946 308.748 6.87666 308.915 6.60298C309.082 6.32931 309.309 6.116 309.597 5.96307C309.887 5.81013 310.212 5.73366 310.572 5.73366C310.934 5.73366 311.255 5.81013 311.535 5.96307C311.814 6.116 312.034 6.32227 312.193 6.58185C312.352 6.84144 312.431 7.13021 312.431 7.44815C312.431 7.67554 312.39 7.8979 312.307 8.11523C312.227 8.33055 312.086 8.57102 311.885 8.83665C311.686 9.10026 311.409 9.42223 311.055 9.80256L309.666 11.2876V11.3359H312.54V12H308.64ZM315.79 12.0845C315.392 12.0845 315.037 12.0161 314.725 11.8793C314.415 11.7424 314.168 11.5523 313.985 11.3088C313.804 11.0633 313.705 10.7785 313.689 10.4545H314.45C314.466 10.6538 314.534 10.8258 314.655 10.9707C314.776 11.1136 314.934 11.2243 315.129 11.3027C315.324 11.3812 315.541 11.4205 315.778 11.4205C316.044 11.4205 316.279 11.3742 316.484 11.2816C316.69 11.189 316.851 11.0603 316.967 10.8952C317.084 10.7302 317.142 10.5391 317.142 10.3217C317.142 10.0943 317.086 9.89412 316.973 9.72106C316.861 9.54599 316.696 9.40915 316.478 9.31055C316.261 9.21194 315.995 9.16264 315.682 9.16264H315.186V8.49858H315.682C315.927 8.49858 316.142 8.45431 316.327 8.36577C316.515 8.27723 316.661 8.15246 316.765 7.99148C316.872 7.83049 316.925 7.64134 316.925 7.42401C316.925 7.21473 316.879 7.03261 316.786 6.87766C316.694 6.72272 316.563 6.60198 316.394 6.51545C316.227 6.42892 316.03 6.38565 315.802 6.38565C315.589 6.38565 315.388 6.42489 315.199 6.50337C315.011 6.57984 314.858 6.69152 314.74 6.83842C314.621 6.98331 314.557 7.15838 314.547 7.36364H313.822C313.834 7.03965 313.932 6.75592 314.115 6.51243C314.298 6.26693 314.538 6.07576 314.833 5.93892C315.131 5.80208 315.458 5.73366 315.814 5.73366C316.197 5.73366 316.525 5.81114 316.798 5.96609C317.072 6.11902 317.282 6.32126 317.429 6.5728C317.576 6.82434 317.65 7.096 317.65 7.38778C317.65 7.73591 317.558 8.03273 317.375 8.27823C317.194 8.52373 316.947 8.69377 316.635 8.78835V8.83665C317.026 8.90104 317.331 9.06706 317.55 9.33469C317.769 9.60032 317.879 9.92933 317.879 10.3217C317.879 10.6578 317.787 10.9596 317.604 11.2273C317.423 11.4929 317.176 11.7022 316.862 11.8551C316.548 12.008 316.191 12.0845 315.79 12.0845ZM319.369 12.0483C319.22 12.0483 319.092 11.995 318.985 11.8883C318.879 11.7817 318.826 11.6539 318.826 11.505C318.826 11.3561 318.879 11.2283 318.985 11.1216C319.092 11.015 319.22 10.9616 319.369 10.9616C319.518 10.9616 319.646 11.015 319.752 11.1216C319.859 11.2283 319.912 11.3561 319.912 11.505C319.912 11.6036 319.887 11.6941 319.837 11.7766C319.788 11.8591 319.723 11.9255 319.641 11.9759C319.56 12.0241 319.469 12.0483 319.369 12.0483ZM322.894 12.0845C322.439 12.0845 322.052 11.9608 321.732 11.7132C321.412 11.4637 321.167 11.1025 320.998 10.6296C320.829 10.1547 320.745 9.5812 320.745 8.90909C320.745 8.241 320.829 7.67051 320.998 7.19762C321.169 6.72272 321.415 6.3605 321.735 6.11097C322.057 5.85943 322.443 5.73366 322.894 5.73366C323.345 5.73366 323.73 5.85943 324.05 6.11097C324.372 6.3605 324.617 6.72272 324.787 7.19762C324.958 7.67051 325.043 8.241 325.043 8.90909C325.043 9.5812 324.959 10.1547 324.79 10.6296C324.62 11.1025 324.376 11.4637 324.056 11.7132C323.736 11.9608 323.349 12.0845 322.894 12.0845ZM322.894 11.4205C323.345 11.4205 323.695 11.2031 323.944 10.7685C324.194 10.3338 324.319 9.71402 324.319 8.90909C324.319 8.37382 324.261 7.91803 324.147 7.54173C324.034 7.16542 323.871 6.87867 323.658 6.68146C323.446 6.48426 323.192 6.38565 322.894 6.38565C322.447 6.38565 322.098 6.606 321.847 7.0467C321.595 7.48538 321.469 8.10618 321.469 8.90909C321.469 9.44437 321.526 9.89915 321.638 10.2734C321.751 10.6477 321.913 10.9325 322.124 11.1277C322.338 11.3229 322.594 11.4205 322.894 11.4205ZM328.194 12.0845C327.795 12.0845 327.44 12.0161 327.128 11.8793C326.818 11.7424 326.572 11.5523 326.389 11.3088C326.208 11.0633 326.109 10.7785 326.093 10.4545H326.854C326.87 10.6538 326.938 10.8258 327.059 10.9707C327.18 11.1136 327.338 11.2243 327.533 11.3027C327.728 11.3812 327.944 11.4205 328.182 11.4205C328.447 11.4205 328.683 11.3742 328.888 11.2816C329.093 11.189 329.254 11.0603 329.371 10.8952C329.488 10.7302 329.546 10.5391 329.546 10.3217C329.546 10.0943 329.49 9.89412 329.377 9.72106C329.264 9.54599 329.099 9.40915 328.882 9.31055C328.665 9.21194 328.399 9.16264 328.085 9.16264H327.59V8.49858H328.085C328.331 8.49858 328.546 8.45431 328.731 8.36577C328.918 8.27723 329.064 8.15246 329.169 7.99148C329.275 7.83049 329.329 7.64134 329.329 7.42401C329.329 7.21473 329.283 7.03261 329.19 6.87766C329.097 6.72272 328.967 6.60198 328.798 6.51545C328.631 6.42892 328.433 6.38565 328.206 6.38565C327.993 6.38565 327.791 6.42489 327.602 6.50337C327.415 6.57984 327.262 6.69152 327.143 6.83842C327.025 6.98331 326.96 7.15838 326.95 7.36364H326.226C326.238 7.03965 326.335 6.75592 326.519 6.51243C326.702 6.26693 326.941 6.07576 327.237 5.93892C327.535 5.80208 327.862 5.73366 328.218 5.73366C328.6 5.73366 328.928 5.81114 329.202 5.96609C329.476 6.11902 329.686 6.32126 329.833 6.5728C329.98 6.82434 330.053 7.096 330.053 7.38778C330.053 7.73591 329.962 8.03273 329.779 8.27823C329.597 8.52373 329.351 8.69377 329.039 8.78835V8.83665C329.429 8.90104 329.734 9.06706 329.954 9.33469C330.173 9.60032 330.283 9.92933 330.283 10.3217C330.283 10.6578 330.191 10.9596 330.008 11.2273C329.827 11.4929 329.579 11.7022 329.265 11.8551C328.952 12.008 328.594 12.0845 328.194 12.0845Z" fill="black"/>
<path d="M44.6864 31.9722L44.0986 31.4521L49.8949 28.3263L50.4736 28.8383L48.0775 34.9723L47.4897 34.4523L49.5543 29.3308L49.5181 29.2988L44.6864 31.9722ZM46.5035 30.3556L48.8727 32.4517L48.4327 32.9491L46.0635 30.853L46.5035 30.3556ZM54.1599 32.0997L50.0637 36.7296L49.503 36.2335L53.0792 32.1914L53.0521 32.1674L51.2577 31.9179L51.7617 31.3482L53.5992 31.6036L54.1599 32.0997Z" fill="black"/>
<path d="M73.9514 37.6016L73.3636 38.1216L70.9675 31.9877L71.5462 31.4756L77.3424 34.6015L76.7547 35.1215L71.9229 32.4481L71.8868 32.4801L73.9514 37.6016ZM72.5683 35.601L74.9376 33.5049L75.3776 34.0023L73.0084 36.0984L72.5683 35.601ZM77.9186 34.0918L77.5585 33.6848L77.6067 30.6599C77.6127 30.3053 77.6097 30.0043 77.5978 29.7569C77.5845 29.5081 77.549 29.2949 77.4915 29.1175C77.4341 28.9372 77.3427 28.7762 77.2174 28.6345C77.0734 28.4718 76.9095 28.3655 76.7258 28.3158C76.5436 28.2647 76.3568 28.2661 76.1653 28.32C75.9738 28.3739 75.7944 28.4748 75.6271 28.6228C75.4493 28.7801 75.3267 28.9544 75.2594 29.1456C75.1923 29.3339 75.1806 29.5257 75.2243 29.7208C75.2694 29.9146 75.37 30.0997 75.526 30.276L74.9925 30.748C74.7525 30.4767 74.6044 30.1833 74.5481 29.8676C74.4919 29.552 74.5208 29.2416 74.635 28.9363C74.7507 28.6298 74.9434 28.3572 75.2132 28.1185C75.4845 27.8785 75.7755 27.7231 76.0864 27.6523C76.3972 27.5815 76.6982 27.5906 76.9892 27.6797C77.2803 27.7688 77.5312 27.9324 77.7418 28.1705C77.8925 28.3408 78.009 28.5347 78.0912 28.7521C78.1736 28.9667 78.2274 29.2402 78.2527 29.5724C78.2782 29.9019 78.2843 30.3264 78.271 30.8459L78.2152 32.8782L78.2472 32.9144L80.3994 31.0103L80.8394 31.5076L77.9186 34.0918Z" fill="black"/>
<path d="M2.63991 12V11.4567L4.6804 9.22301C4.91986 8.96141 5.11707 8.73402 5.27202 8.54084C5.42697 8.34564 5.54167 8.16252 5.61612 7.99148C5.69259 7.81842 5.73082 7.63731 5.73082 7.44815C5.73082 7.23082 5.6785 7.04267 5.57386 6.8837C5.47124 6.72473 5.33037 6.60198 5.15128 6.51545C4.97218 6.42892 4.77095 6.38565 4.54759 6.38565C4.31013 6.38565 4.10286 6.43495 3.92578 6.53356C3.75071 6.63015 3.61488 6.76598 3.51829 6.94105C3.42371 7.11612 3.37642 7.32138 3.37642 7.55682H2.66406C2.66406 7.1946 2.74757 6.87666 2.9146 6.60298C3.08162 6.32931 3.30901 6.116 3.59677 5.96307C3.88654 5.81013 4.21153 5.73366 4.57173 5.73366C4.93395 5.73366 5.25491 5.81013 5.53462 5.96307C5.81433 6.116 6.03368 6.32227 6.19265 6.58185C6.35162 6.84144 6.43111 7.13021 6.43111 7.44815C6.43111 7.67554 6.38986 7.8979 6.30735 8.11523C6.22686 8.33055 6.086 8.57102 5.88477 8.83665C5.68555 9.10026 5.40885 9.42223 5.05469 9.80256L3.66619 11.2876V11.3359H6.53977V12H2.63991ZM9.75396 12.0845C9.5004 12.0805 9.24685 12.0322 8.9933 11.9396C8.73975 11.8471 8.50834 11.6911 8.29906 11.4718C8.08978 11.2504 7.92175 10.9516 7.79497 10.5753C7.6682 10.197 7.60481 9.72206 7.60481 9.15057C7.60481 8.60322 7.65612 8.11825 7.75875 7.69567C7.86138 7.27107 8.01029 6.91388 8.20548 6.62411C8.40068 6.33233 8.63612 6.11097 8.9118 5.96005C9.1895 5.80913 9.50242 5.73366 9.85055 5.73366C10.1967 5.73366 10.5045 5.80309 10.7742 5.94194C11.0459 6.07878 11.2672 6.26995 11.4383 6.51545C11.6093 6.76095 11.72 7.04368 11.7703 7.36364H11.0338C10.9654 7.08594 10.8326 6.85553 10.6353 6.67241C10.4381 6.48929 10.1765 6.39773 9.85055 6.39773C9.37162 6.39773 8.99431 6.606 8.71862 7.02255C8.44495 7.4391 8.3071 8.02367 8.30509 8.77628H8.35339C8.46608 8.60523 8.5999 8.45934 8.75484 8.3386C8.9118 8.21585 9.08486 8.12127 9.27402 8.05486C9.46318 7.98846 9.6634 7.95526 9.87469 7.95526C10.2289 7.95526 10.5528 8.0438 10.8466 8.22088C11.1404 8.39595 11.3759 8.63843 11.553 8.94833C11.73 9.25621 11.8186 9.60938 11.8186 10.0078C11.8186 10.3902 11.7331 10.7403 11.562 11.0582C11.391 11.3742 11.1505 11.6257 10.8406 11.8129C10.5327 11.998 10.1705 12.0885 9.75396 12.0845ZM9.75396 11.4205C10.0075 11.4205 10.2349 11.3571 10.4361 11.2303C10.6394 11.1035 10.7994 10.9335 10.9161 10.7202C11.0348 10.5069 11.0942 10.2694 11.0942 10.0078C11.0942 9.75225 11.0368 9.51983 10.9221 9.31055C10.8094 9.09925 10.6535 8.93123 10.4542 8.80646C10.257 8.6817 10.0317 8.61932 9.7781 8.61932C9.58693 8.61932 9.40884 8.65755 9.24384 8.73402C9.07883 8.80848 8.93394 8.9111 8.80918 9.0419C8.68643 9.1727 8.58983 9.32262 8.5194 9.49165C8.44897 9.65868 8.41376 9.83475 8.41376 10.0199C8.41376 10.2654 8.47111 10.4948 8.58581 10.7081C8.70252 10.9214 8.8615 11.0935 9.06273 11.2243C9.26597 11.3551 9.49638 11.4205 9.75396 11.4205ZM13.1613 12.0483C13.0124 12.0483 12.8846 11.995 12.778 11.8883C12.6713 11.7817 12.618 11.6539 12.618 11.505C12.618 11.3561 12.6713 11.2283 12.778 11.1216C12.8846 11.015 13.0124 10.9616 13.1613 10.9616C13.3102 10.9616 13.438 11.015 13.5447 11.1216C13.6513 11.2283 13.7046 11.3561 13.7046 11.505C13.7046 11.6036 13.6795 11.6941 13.6292 11.7766C13.5809 11.8591 13.5155 11.9255 13.433 11.9759C13.3525 12.0241 13.2619 12.0483 13.1613 12.0483ZM16.6864 12.0845C16.2316 12.0845 15.8443 11.9608 15.5243 11.7132C15.2043 11.4637 14.9598 11.1025 14.7908 10.6296C14.6218 10.1547 14.5373 9.5812 14.5373 8.90909C14.5373 8.241 14.6218 7.67051 14.7908 7.19762C14.9619 6.72272 15.2074 6.3605 15.5273 6.11097C15.8493 5.85943 16.2356 5.73366 16.6864 5.73366C17.1372 5.73366 17.5225 5.85943 17.8425 6.11097C18.1644 6.3605 18.41 6.72272 18.579 7.19762C18.75 7.67051 18.8356 8.241 18.8356 8.90909C18.8356 9.5812 18.751 10.1547 18.582 10.6296C18.413 11.1025 18.1685 11.4637 17.8485 11.7132C17.5286 11.9608 17.1412 12.0845 16.6864 12.0845ZM16.6864 11.4205C17.1372 11.4205 17.4873 11.2031 17.7368 10.7685C17.9864 10.3338 18.1111 9.71402 18.1111 8.90909C18.1111 8.37382 18.0538 7.91803 17.9391 7.54173C17.8264 7.16542 17.6634 6.87867 17.4501 6.68146C17.2388 6.48426 16.9842 6.38565 16.6864 6.38565C16.2397 6.38565 15.8905 6.606 15.639 7.0467C15.3875 7.48538 15.2617 8.10618 15.2617 8.90909C15.2617 9.44437 15.318 9.89915 15.4307 10.2734C15.5434 10.6477 15.7054 10.9325 15.9167 11.1277C16.13 11.3229 16.3866 11.4205 16.6864 11.4205ZM21.9863 12.0845C21.5879 12.0845 21.2327 12.0161 20.9208 11.8793C20.6109 11.7424 20.3644 11.5523 20.1813 11.3088C20.0002 11.0633 19.9016 10.7785 19.8855 10.4545H20.6462C20.6622 10.6538 20.7307 10.8258 20.8514 10.9707C20.9721 11.1136 21.1301 11.2243 21.3253 11.3027C21.5205 11.3812 21.7368 11.4205 21.9743 11.4205C22.2399 11.4205 22.4753 11.3742 22.6806 11.2816C22.8859 11.189 23.0468 11.0603 23.1636 10.8952C23.2803 10.7302 23.3386 10.5391 23.3386 10.3217C23.3386 10.0943 23.2823 9.89412 23.1696 9.72106C23.0569 9.54599 22.8919 9.40915 22.6746 9.31055C22.4572 9.21194 22.1916 9.16264 21.8777 9.16264H21.3827V8.49858H21.8777C22.1232 8.49858 22.3385 8.45431 22.5236 8.36577C22.7108 8.27723 22.8567 8.15246 22.9613 7.99148C23.068 7.83049 23.1213 7.64134 23.1213 7.42401C23.1213 7.21473 23.075 7.03261 22.9824 6.87766C22.8899 6.72272 22.7591 6.60198 22.59 6.51545C22.423 6.42892 22.2258 6.38565 21.9984 6.38565C21.7851 6.38565 21.5839 6.42489 21.3947 6.50337C21.2076 6.57984 21.0546 6.69152 20.9359 6.83842C20.8172 6.98331 20.7528 7.15838 20.7427 7.36364H20.0183C20.0304 7.03965 20.128 6.75592 20.3111 6.51243C20.4942 6.26693 20.7337 6.07576 21.0295 5.93892C21.3273 5.80208 21.6543 5.73366 22.0105 5.73366C22.3928 5.73366 22.7208 5.81114 22.9945 5.96609C23.2682 6.11902 23.4785 6.32126 23.6254 6.5728C23.7723 6.82434 23.8457 7.096 23.8457 7.38778C23.8457 7.73591 23.7542 8.03273 23.571 8.27823C23.3899 8.52373 23.1434 8.69377 22.8315 8.78835V8.83665C23.2219 8.90104 23.5268 9.06706 23.7461 9.33469C23.9655 9.60032 24.0751 9.92933 24.0751 10.3217C24.0751 10.6578 23.9836 10.9596 23.8004 11.2273C23.6193 11.4929 23.3718 11.7022 23.0579 11.8551C22.744 12.008 22.3868 12.0845 21.9863 12.0845Z" fill="black"/>


<image x= "49" y="143" href="../SPPT-CL.png" height="50" width="50" id="a"/>
<rect x="50" y="180" width="70" height="100" stroke="#FEFFC1" stroke-width="2"/>

<image x= "59" y="185" href="../ON.png" height="25" width="25" id="voyC3Nor"/>
<text class="voy" x="61.5" y="200">NOR.</text>

<image x= "59" y="213.5" href="../OFF.png" height="25" width="25" id="voyC3A1Dev"/>
<text class="voy" x="63" y="225">DEV</text>
<text class="voy" x="66" y="233">A1</text>

<image x= "86" y="213.5" href="../OFF.png" height="25" width="25" id="voyC3A2Dev"/>
<text class="voy" x="90" y="225">DEV</text>
<text class="voy" x="93" y="233">A2</text>

<image x= "59" y="245" href="../OFF.png" height="25" width="25" id="voyC3Auto"/>
<text class="voy" x="60" y="260">AUTO</text>

<image x= "86" y="245" href="../OFF.png" height="25" width="25" id="voyC3SP"/>
<text class="voy" x="92.5" y="256">SP</text>
<text class="voy" x="90" y="265">PCL</text>

</svg>
