<svg width="431" height="900" viewBox="0 -50 431 900" fill="none" xmlns="http://www.w3.org/2000/svg">
<style>
    .station {
        font-family: "Inter", sans-serif;
        src: url('../Inter-Medium.ttf') format("truetype");
        font-size: 12.5px;
        fill: #FEFFC1;
    }
    .rame {
        font-family: "Inter", sans-serif;
        src: url('../Inter-Medium.ttf') format("truetype");
        font-size: 19px;
        fill: #FF5353;
    }
    .voy {
        font-family: "Inter", sans-serif;
        font-weight: bold;
        src: url('../Inter-Medium.ttf') format("truetype");
        font-size: 8px;
        fill: #000000;
    }
</style>
<rect width="25" height="18" transform="matrix(1 0 0 -1 0 138)" fill="#707070" name="1102A" id="1"/>
<rect width="75" height="18" transform="matrix(1 0 0 -1 25 138)" fill="#66D264" name="1102B" id="2"/>
<rect width="25" height="18" transform="matrix(1 0 0 -1 100 138)" fill="#707070" name="1102C" id="3"/>
<rect width="25" height="18" transform="matrix(1 0 0 -1 127 138)" fill="#707070" name="1202A" id="4"/>
<rect width="75" height="18" transform="matrix(1 0 0 -1 152 138)" fill="#66D264" name="1202B" id="5"/>
<rect width="25" height="18" transform="matrix(1 0 0 -1 227 138)" fill="#707070" name="1202C" id="6"/>
<rect width="75" height="18" transform="matrix(1 0 0 -1 254 138)" fill="#707070" name="1302" id="7"/>
<rect x="331" y="120" width="100" height="18" fill="#707070" name="1402" id="8"/>
<rect x="331" width="100" height="18" fill="#707070" name="2102" id="9"/>
<rect x="254" width="75" height="18" fill="#707070" name="2202" id="10"/>
<rect x="127" width="125" height="18" fill="#707070" name="2302" id="11"/>
<rect width="25" height="18" fill="#707070" name="2402A" id="12"/>
<rect x="25" width="75" height="18" fill="#66D264" name="2402B" id="13"/>
<rect x="100" width="25" height="18" fill="#707070" name="2402C" id="14"/>
<rect width="75" height="18" transform="matrix(1 0 0 -1 254 258)" fill="#707070" name="PAG1" id="15"/>

<path d="M71.5 95L100 120V138L53.5 95H71.5Z" fill="#707070" name="1102A1" id="16"/>
<path d="M53.5 43L25 18L25 0L71.5 43H53.5Z" fill="#707070" name="2402A1" id="17"/>
<path d="M180.5 163L152 138V120L198.5 163H180.5Z" fill="#707070" name="1202A2" id="18"/>
<path d="M198.5 215L227 240V258L180.5 215H198.5Z" fill="#707070" name="PAGA2" id="19"/>
<rect width="25" height="18" transform="matrix(1 0 0 -1 227 258)" fill="#707070" name="A2E" id="20"/>

<rect x="53.5" y="95" width="25" height="18" transform="rotate(-90 53.5 95)" fill="#707070" name="A1BOT" id="21"/>
<rect x="180.5" y="215" width="25" height="18" transform="rotate(-90 180.5 215)" fill="#707070" name="A2BOT" id="22"/>
<rect x="53.5" y="68" width="25" height="18" transform="rotate(-90 53.5 68)" fill="#707070" name="A1TOP" id="23"/>
<rect x="180.5" y="188" width="25" height="18" transform="rotate(-90 180.5 188)" fill="#707070" name="A2TOP" id="24"/>

<path d="M35.4585 62.4444H43.5415V68H35.4585V62.4444Z" fill="#707070" name="A1MA" id="25"/>
<path d="M39.5 43L46.5 62.4444H32.5L39.5 43Z" fill="#707070" name="A1MB" id="26"/>
<path d="M162.459 182.444H170.541V188H162.459V182.444Z" fill="#707070" name="A2MA" id="27"/>
<path d="M166.5 163L173.5 182.444H159.5L166.5 163Z" fill="#707070" name="A2MB" id="28"/>
<path d="M35.4585 75.5556H43.5415V70H35.4585V75.5556Z" fill="#707070" name="A1DA" id="29"/>
<path d="M39.5 95L46.5 75.5556H32.5L39.5 95Z" fill="#707070" name="A1DB" id="30"/>
<path d="M162.459 195.556H170.541V190H162.459V195.556Z" fill="#707070" name="A2DB" id="31"/>
<path d="M166.5 215L173.5 195.556H159.5L166.5 215Z" fill="#707070" name="A2DB" id="32"/>

<rect x="255.5" y="-31" width="72" height="27" fill="#FFDF35" stroke="#363636" stroke-width="3" id="sc2202"/>
<text class="rame" x="286" y="-11" id="txtSc2202">X</text>

<rect x="255.5" y="142" width="72" height="27" fill="#FFDF35" stroke="#363636" stroke-width="3" id="sc1302"/>
<text class="rame" x="286" y="162" id="txtSc1302">X</text>

<rect x="255.5" y="208" width="72" height="27" fill="#FFDF35" stroke="#363636" stroke-width="3" id="scPAG1"/>
<text class="rame" x="286" y="228" id="txtScPAG1">X</text>

<rect x="241" y="50" width="101" height="36" fill="#3A3A3A"/>
<text class="station" x="258.5" y="73">Saint-Ouen</text>

<image x= "0" y="-27" href="../DS_OFF.png" height="15" width="15" id="S4C1"/>
<image x= "0" y="-47" href="../S4C2.png" height="25" width="18" id="eS4C2"/>
<image x= "235" y="141" href="../DS_OFF.png" height="15" width="15" id="S2C2"/>
<image x= "235" y="152" href="../S6C2.png" height="25" width="18" id="eS6C2"/>
<image x= "228" y="-27" href="../V2S2_GREEN.png" height="25" width="25" id="S2C2"/>
<image x= "234" y="-47" href="../S2C2.png" height="25" width="18" id="eS2C2"/>
<image x= "228" y="212" href="../V2S2_RED.png" height="25" width="25" id="DEPC2"/>
<image x= "234" y="192" href="../DEPC2.png" height="25" width="18" id="eDEPC2"/>
<image x= "101" y="93" href="../V2S2_RED.png" height="25" width="25" id="S5C2"/>
<image x= "108" y="73" href="../S5C2.png" height="25" width="18" id="eS5C2"/>
<image x= "331" y="140" href="../V1S1_GREEN.png" height="25" width="25" id="S1C3"/>
<image x= "331" y="160" href="../S1C2.png" height="25" width="18" id="eS1C3"/>

<image x= "75" y="55" href="../C2.png" height="25" width="18" id="eC2"/>
<image x= "202" y="175" href="../C2B.png" height="25" width="18" id="eC2B"/>

<rect x="255.25" y="89.25" width="21.5" height="21.5" fill="#6B6B6B" stroke="#4A4A4A" stroke-width="1.5"/>
<rect x="280.75" y="89.25" width="21.5" height="21.5" fill="#6B6B6B" stroke="#4A4A4A" stroke-width="1.5"/>
<rect x="306.25" y="89.25" width="21.5" height="21.5" fill="#6B6B6B" stroke="#4A4A4A" stroke-width="1.5"/>
<path d="M257.945 103V97.2734H259.918C260.363 97.2734 260.703 97.3008 260.938 97.3555C261.266 97.431 261.546 97.5677 261.777 97.7656C262.079 98.0208 262.305 98.3477 262.453 98.7461C262.604 99.1419 262.68 99.5951 262.68 100.105C262.68 100.54 262.629 100.926 262.527 101.262C262.426 101.598 262.296 101.876 262.137 102.098C261.978 102.316 261.803 102.49 261.613 102.617C261.426 102.742 261.198 102.837 260.93 102.902C260.664 102.967 260.358 103 260.012 103H257.945ZM258.703 102.324H259.926C260.303 102.324 260.599 102.289 260.812 102.219C261.029 102.148 261.201 102.049 261.328 101.922C261.508 101.742 261.647 101.501 261.746 101.199C261.848 100.895 261.898 100.526 261.898 100.094C261.898 99.4948 261.799 99.0352 261.602 98.7148C261.406 98.3919 261.168 98.1758 260.887 98.0664C260.684 97.9883 260.357 97.9492 259.906 97.9492H258.703V102.324ZM263.469 101.16L264.184 101.098C264.217 101.384 264.296 101.62 264.418 101.805C264.543 101.987 264.736 102.135 264.996 102.25C265.257 102.362 265.549 102.418 265.875 102.418C266.164 102.418 266.419 102.375 266.641 102.289C266.862 102.203 267.026 102.086 267.133 101.938C267.242 101.786 267.297 101.622 267.297 101.445C267.297 101.266 267.245 101.109 267.141 100.977C267.036 100.841 266.865 100.728 266.625 100.637C266.471 100.577 266.132 100.484 265.605 100.359C265.079 100.232 264.711 100.112 264.5 100C264.227 99.8568 264.022 99.6797 263.887 99.4688C263.754 99.2552 263.688 99.0169 263.688 98.7539C263.688 98.4648 263.77 98.1953 263.934 97.9453C264.098 97.6927 264.337 97.5013 264.652 97.3711C264.967 97.2409 265.318 97.1758 265.703 97.1758C266.128 97.1758 266.501 97.2448 266.824 97.3828C267.15 97.5182 267.4 97.7188 267.574 97.9844C267.749 98.25 267.842 98.5508 267.855 98.8867L267.129 98.9414C267.09 98.5794 266.957 98.306 266.73 98.1211C266.507 97.9362 266.174 97.8438 265.734 97.8438C265.276 97.8438 264.941 97.9284 264.73 98.0977C264.522 98.2643 264.418 98.4661 264.418 98.7031C264.418 98.9089 264.492 99.0781 264.641 99.2109C264.786 99.3438 265.167 99.4805 265.781 99.6211C266.398 99.7591 266.822 99.8802 267.051 99.9844C267.384 100.138 267.63 100.333 267.789 100.57C267.948 100.805 268.027 101.076 268.027 101.383C268.027 101.688 267.94 101.975 267.766 102.246C267.591 102.514 267.34 102.724 267.012 102.875C266.686 103.023 266.319 103.098 265.91 103.098C265.392 103.098 264.957 103.022 264.605 102.871C264.257 102.72 263.982 102.493 263.781 102.191C263.583 101.887 263.479 101.543 263.469 101.16ZM268.832 100.211C268.832 99.2604 269.087 98.5169 269.598 97.9805C270.108 97.4414 270.767 97.1719 271.574 97.1719C272.103 97.1719 272.579 97.2982 273.004 97.5508C273.428 97.8034 273.751 98.1562 273.973 98.6094C274.197 99.0599 274.309 99.5716 274.309 100.145C274.309 100.725 274.191 101.245 273.957 101.703C273.723 102.161 273.391 102.509 272.961 102.746C272.531 102.98 272.068 103.098 271.57 103.098C271.031 103.098 270.549 102.967 270.125 102.707C269.701 102.447 269.379 102.091 269.16 101.641C268.941 101.19 268.832 100.714 268.832 100.211ZM269.613 100.223C269.613 100.913 269.798 101.457 270.168 101.855C270.54 102.251 271.007 102.449 271.566 102.449C272.137 102.449 272.605 102.249 272.973 101.848C273.342 101.447 273.527 100.878 273.527 100.141C273.527 99.6745 273.448 99.2682 273.289 98.9219C273.133 98.5729 272.902 98.3034 272.598 98.1133C272.296 97.9206 271.956 97.8242 271.578 97.8242C271.042 97.8242 270.579 98.0091 270.191 98.3789C269.806 98.7461 269.613 99.3607 269.613 100.223Z" fill="black"/>
<path d="M285.793 103V97.2734H286.551V103H285.793ZM287.801 103V98.8516H288.434V99.4414C288.738 98.9857 289.178 98.7578 289.754 98.7578C290.004 98.7578 290.233 98.8034 290.441 98.8945C290.652 98.9831 290.81 99.1003 290.914 99.2461C291.018 99.3919 291.091 99.5651 291.133 99.7656C291.159 99.8958 291.172 100.124 291.172 100.449V103H290.469V100.477C290.469 100.19 290.441 99.9766 290.387 99.8359C290.332 99.6927 290.234 99.5794 290.094 99.4961C289.956 99.4102 289.793 99.3672 289.605 99.3672C289.306 99.3672 289.047 99.4622 288.828 99.6523C288.612 99.8424 288.504 100.203 288.504 100.734V103H287.801ZM294.961 101.48L295.652 101.57C295.577 102.047 295.383 102.421 295.07 102.691C294.76 102.96 294.379 103.094 293.926 103.094C293.358 103.094 292.901 102.909 292.555 102.539C292.211 102.167 292.039 101.634 292.039 100.941C292.039 100.493 292.113 100.102 292.262 99.7656C292.41 99.4297 292.635 99.1784 292.938 99.0117C293.242 98.8424 293.573 98.7578 293.93 98.7578C294.38 98.7578 294.749 98.8724 295.035 99.1016C295.322 99.3281 295.505 99.651 295.586 100.07L294.902 100.176C294.837 99.8971 294.721 99.6875 294.555 99.5469C294.391 99.4062 294.191 99.3359 293.957 99.3359C293.603 99.3359 293.315 99.4635 293.094 99.7188C292.872 99.9714 292.762 100.372 292.762 100.922C292.762 101.479 292.868 101.884 293.082 102.137C293.296 102.389 293.574 102.516 293.918 102.516C294.194 102.516 294.424 102.431 294.609 102.262C294.794 102.092 294.911 101.832 294.961 101.48ZM296.453 103V102.199H297.254V103H296.453Z" fill="black"/>
<path d="M309.387 98V92.2734H311.359C311.805 92.2734 312.145 92.3008 312.379 92.3555C312.707 92.431 312.987 92.5677 313.219 92.7656C313.521 93.0208 313.746 93.3477 313.895 93.7461C314.046 94.1419 314.121 94.5951 314.121 95.1055C314.121 95.5404 314.07 95.9258 313.969 96.2617C313.867 96.5977 313.737 96.8763 313.578 97.0977C313.419 97.3164 313.245 97.4896 313.055 97.6172C312.867 97.7422 312.639 97.8372 312.371 97.9023C312.105 97.9674 311.799 98 311.453 98H309.387ZM310.145 97.3242H311.367C311.745 97.3242 312.04 97.2891 312.254 97.2188C312.47 97.1484 312.642 97.0495 312.77 96.9219C312.949 96.7422 313.089 96.5013 313.188 96.1992C313.289 95.8945 313.34 95.526 313.34 95.0938C313.34 94.4948 313.241 94.0352 313.043 93.7148C312.848 93.3919 312.609 93.1758 312.328 93.0664C312.125 92.9883 311.798 92.9492 311.348 92.9492H310.145V97.3242ZM317.918 96.6641L318.645 96.7539C318.53 97.1784 318.318 97.5078 318.008 97.7422C317.698 97.9766 317.302 98.0938 316.82 98.0938C316.214 98.0938 315.732 97.9076 315.375 97.5352C315.021 97.1602 314.844 96.6354 314.844 95.9609C314.844 95.263 315.023 94.7214 315.383 94.3359C315.742 93.9505 316.208 93.7578 316.781 93.7578C317.336 93.7578 317.789 93.9466 318.141 94.3242C318.492 94.7018 318.668 95.2331 318.668 95.918C318.668 95.9596 318.667 96.0221 318.664 96.1055H315.57C315.596 96.5612 315.725 96.9102 315.957 97.1523C316.189 97.3945 316.478 97.5156 316.824 97.5156C317.082 97.5156 317.302 97.4479 317.484 97.3125C317.667 97.1771 317.811 96.9609 317.918 96.6641ZM315.609 95.5273H317.926C317.895 95.1784 317.806 94.9167 317.66 94.7422C317.436 94.4714 317.146 94.3359 316.789 94.3359C316.466 94.3359 316.194 94.444 315.973 94.6602C315.754 94.8763 315.633 95.1654 315.609 95.5273ZM319.25 96.7617L319.945 96.6523C319.984 96.931 320.092 97.1445 320.27 97.293C320.449 97.4414 320.699 97.5156 321.02 97.5156C321.342 97.5156 321.582 97.4505 321.738 97.3203C321.895 97.1875 321.973 97.0326 321.973 96.8555C321.973 96.6966 321.904 96.5716 321.766 96.4805C321.669 96.418 321.43 96.3385 321.047 96.2422C320.531 96.112 320.173 96 319.973 95.9062C319.775 95.8099 319.624 95.6784 319.52 95.5117C319.418 95.3424 319.367 95.1562 319.367 94.9531C319.367 94.7682 319.409 94.5977 319.492 94.4414C319.578 94.2826 319.694 94.151 319.84 94.0469C319.949 93.9661 320.098 93.8984 320.285 93.8438C320.475 93.7865 320.678 93.7578 320.895 93.7578C321.22 93.7578 321.505 93.8047 321.75 93.8984C321.997 93.9922 322.18 94.1198 322.297 94.2812C322.414 94.4401 322.495 94.6536 322.539 94.9219L321.852 95.0156C321.82 94.8021 321.729 94.6354 321.578 94.5156C321.43 94.3958 321.219 94.3359 320.945 94.3359C320.622 94.3359 320.392 94.3893 320.254 94.4961C320.116 94.6029 320.047 94.7279 320.047 94.8711C320.047 94.9622 320.076 95.0443 320.133 95.1172C320.19 95.1927 320.28 95.2552 320.402 95.3047C320.473 95.3307 320.68 95.3906 321.023 95.4844C321.521 95.6172 321.867 95.7266 322.062 95.8125C322.26 95.8958 322.415 96.0182 322.527 96.1797C322.639 96.3411 322.695 96.5417 322.695 96.7812C322.695 97.0156 322.626 97.237 322.488 97.4453C322.353 97.651 322.156 97.8112 321.898 97.9258C321.641 98.0378 321.349 98.0938 321.023 98.0938C320.484 98.0938 320.073 97.9818 319.789 97.7578C319.508 97.5339 319.328 97.2018 319.25 96.7617ZM323.73 98V97.1992H324.531V98H323.73ZM309.68 105.762L310.375 105.652C310.414 105.931 310.522 106.145 310.699 106.293C310.879 106.441 311.129 106.516 311.449 106.516C311.772 106.516 312.012 106.451 312.168 106.32C312.324 106.188 312.402 106.033 312.402 105.855C312.402 105.697 312.333 105.572 312.195 105.48C312.099 105.418 311.859 105.339 311.477 105.242C310.961 105.112 310.603 105 310.402 104.906C310.204 104.81 310.053 104.678 309.949 104.512C309.848 104.342 309.797 104.156 309.797 103.953C309.797 103.768 309.839 103.598 309.922 103.441C310.008 103.283 310.124 103.151 310.27 103.047C310.379 102.966 310.527 102.898 310.715 102.844C310.905 102.786 311.108 102.758 311.324 102.758C311.65 102.758 311.935 102.805 312.18 102.898C312.427 102.992 312.609 103.12 312.727 103.281C312.844 103.44 312.924 103.654 312.969 103.922L312.281 104.016C312.25 103.802 312.159 103.635 312.008 103.516C311.859 103.396 311.648 103.336 311.375 103.336C311.052 103.336 310.822 103.389 310.684 103.496C310.546 103.603 310.477 103.728 310.477 103.871C310.477 103.962 310.505 104.044 310.562 104.117C310.62 104.193 310.71 104.255 310.832 104.305C310.902 104.331 311.109 104.391 311.453 104.484C311.951 104.617 312.297 104.727 312.492 104.812C312.69 104.896 312.845 105.018 312.957 105.18C313.069 105.341 313.125 105.542 313.125 105.781C313.125 106.016 313.056 106.237 312.918 106.445C312.783 106.651 312.586 106.811 312.328 106.926C312.07 107.038 311.779 107.094 311.453 107.094C310.914 107.094 310.503 106.982 310.219 106.758C309.938 106.534 309.758 106.202 309.68 105.762ZM313.961 108.59V102.852H314.602V103.391C314.753 103.18 314.923 103.022 315.113 102.918C315.303 102.811 315.534 102.758 315.805 102.758C316.159 102.758 316.471 102.849 316.742 103.031C317.013 103.214 317.217 103.471 317.355 103.805C317.493 104.135 317.562 104.499 317.562 104.895C317.562 105.319 317.486 105.702 317.332 106.043C317.181 106.382 316.96 106.642 316.668 106.824C316.379 107.004 316.074 107.094 315.754 107.094C315.52 107.094 315.309 107.044 315.121 106.945C314.936 106.846 314.784 106.721 314.664 106.57V108.59H313.961ZM314.598 104.949C314.598 105.483 314.706 105.878 314.922 106.133C315.138 106.388 315.4 106.516 315.707 106.516C316.02 106.516 316.286 106.384 316.508 106.121C316.732 105.855 316.844 105.445 316.844 104.891C316.844 104.362 316.734 103.966 316.516 103.703C316.299 103.44 316.04 103.309 315.738 103.309C315.439 103.309 315.173 103.449 314.941 103.73C314.712 104.009 314.598 104.415 314.598 104.949ZM321.254 105.664L321.98 105.754C321.866 106.178 321.654 106.508 321.344 106.742C321.034 106.977 320.638 107.094 320.156 107.094C319.549 107.094 319.068 106.908 318.711 106.535C318.357 106.16 318.18 105.635 318.18 104.961C318.18 104.263 318.359 103.721 318.719 103.336C319.078 102.951 319.544 102.758 320.117 102.758C320.672 102.758 321.125 102.947 321.477 103.324C321.828 103.702 322.004 104.233 322.004 104.918C322.004 104.96 322.003 105.022 322 105.105H318.906C318.932 105.561 319.061 105.91 319.293 106.152C319.525 106.395 319.814 106.516 320.16 106.516C320.418 106.516 320.638 106.448 320.82 106.312C321.003 106.177 321.147 105.961 321.254 105.664ZM318.945 104.527H321.262C321.23 104.178 321.142 103.917 320.996 103.742C320.772 103.471 320.482 103.336 320.125 103.336C319.802 103.336 319.53 103.444 319.309 103.66C319.09 103.876 318.969 104.165 318.945 104.527ZM319.703 102.336L320.223 101.242H321.145L320.285 102.336H319.703ZM323.066 107V106.199H323.867V107H323.066Z" fill="black"/>
<path d="M4.81321 125.818V132H4.06463V126.603H4.02841L2.51918 127.605V126.844L4.06463 125.818H4.81321ZM8.67938 125.818V132H7.9308V126.603H7.89458L6.38535 127.605V126.844L7.9308 125.818H8.67938ZM10.5383 132.048C10.3894 132.048 10.2616 131.995 10.1549 131.888C10.0483 131.782 9.99495 131.654 9.99495 131.505C9.99495 131.356 10.0483 131.228 10.1549 131.122C10.2616 131.015 10.3894 130.962 10.5383 130.962C10.6872 130.962 10.815 131.015 10.9216 131.122C11.0283 131.228 11.0816 131.356 11.0816 131.505C11.0816 131.604 11.0564 131.694 11.0061 131.777C10.9578 131.859 10.8924 131.926 10.8099 131.976C10.7294 132.024 10.6389 132.048 10.5383 132.048ZM14.0634 132.085C13.6086 132.085 13.2212 131.961 12.9012 131.713C12.5813 131.464 12.3368 131.103 12.1678 130.63C11.9987 130.155 11.9142 129.581 11.9142 128.909C11.9142 128.241 11.9987 127.671 12.1678 127.198C12.3388 126.723 12.5843 126.36 12.9043 126.111C13.2262 125.859 13.6126 125.734 14.0634 125.734C14.5141 125.734 14.8995 125.859 15.2194 126.111C15.5414 126.36 15.7869 126.723 15.9559 127.198C16.127 127.671 16.2125 128.241 16.2125 128.909C16.2125 129.581 16.128 130.155 15.959 130.63C15.7899 131.103 15.5454 131.464 15.2255 131.713C14.9055 131.961 14.5181 132.085 14.0634 132.085ZM14.0634 131.42C14.5141 131.42 14.8643 131.203 15.1138 130.768C15.3633 130.334 15.4881 129.714 15.4881 128.909C15.4881 128.374 15.4307 127.918 15.316 127.542C15.2033 127.165 15.0403 126.879 14.827 126.681C14.6157 126.484 14.3612 126.386 14.0634 126.386C13.6166 126.386 13.2675 126.606 13.016 127.047C12.7644 127.485 12.6386 128.106 12.6386 128.909C12.6386 129.444 12.695 129.899 12.8077 130.273C12.9204 130.648 13.0824 130.932 13.2937 131.128C13.507 131.323 13.7635 131.42 14.0634 131.42ZM17.2745 132V131.457L19.315 129.223C19.5545 128.961 19.7517 128.734 19.9066 128.541C20.0616 128.346 20.1763 128.163 20.2507 127.991C20.3272 127.818 20.3654 127.637 20.3654 127.448C20.3654 127.231 20.3131 127.043 20.2085 126.884C20.1058 126.725 19.965 126.602 19.7859 126.515C19.6068 126.429 19.4056 126.386 19.1822 126.386C18.9447 126.386 18.7375 126.435 18.5604 126.534C18.3853 126.63 18.2495 126.766 18.1529 126.941C18.0583 127.116 18.011 127.321 18.011 127.557H17.2987C17.2987 127.195 17.3822 126.877 17.5492 126.603C17.7162 126.329 17.9436 126.116 18.2314 125.963C18.5212 125.81 18.8461 125.734 19.2063 125.734C19.5686 125.734 19.8895 125.81 20.1692 125.963C20.4489 126.116 20.6683 126.322 20.8273 126.582C20.9862 126.841 21.0657 127.13 21.0657 127.448C21.0657 127.676 21.0245 127.898 20.942 128.115C20.8615 128.331 20.7206 128.571 20.5194 128.837C20.3202 129.1 20.0435 129.422 19.6893 129.803L18.3008 131.288V131.336H21.1744V132H17.2745Z" fill="black"/>
<path d="M131.813 125.818V132H131.065V126.603H131.028L129.519 127.605V126.844L131.065 125.818H131.813ZM133.506 132V131.457L135.547 129.223C135.786 128.961 135.983 128.734 136.138 128.541C136.293 128.346 136.408 128.163 136.482 127.991C136.559 127.818 136.597 127.637 136.597 127.448C136.597 127.231 136.545 127.043 136.44 126.884C136.337 126.725 136.197 126.602 136.017 126.515C135.838 126.429 135.637 126.386 135.414 126.386C135.176 126.386 134.969 126.435 134.792 126.534C134.617 126.63 134.481 126.766 134.384 126.941C134.29 127.116 134.243 127.321 134.243 127.557H133.53C133.53 127.195 133.614 126.877 133.781 126.603C133.948 126.329 134.175 126.116 134.463 125.963C134.753 125.81 135.078 125.734 135.438 125.734C135.8 125.734 136.121 125.81 136.401 125.963C136.681 126.116 136.9 126.322 137.059 126.582C137.218 126.841 137.297 127.13 137.297 127.448C137.297 127.676 137.256 127.898 137.174 128.115C137.093 128.331 136.952 128.571 136.751 128.837C136.552 129.1 136.275 129.422 135.921 129.803L134.532 131.288V131.336H137.406V132H133.506ZM139.099 132.048C138.95 132.048 138.822 131.995 138.715 131.888C138.609 131.782 138.555 131.654 138.555 131.505C138.555 131.356 138.609 131.228 138.715 131.122C138.822 131.015 138.95 130.962 139.099 130.962C139.248 130.962 139.376 131.015 139.482 131.122C139.589 131.228 139.642 131.356 139.642 131.505C139.642 131.604 139.617 131.694 139.567 131.777C139.518 131.859 139.453 131.926 139.37 131.976C139.29 132.024 139.199 132.048 139.099 132.048ZM142.624 132.085C142.169 132.085 141.782 131.961 141.462 131.713C141.142 131.464 140.897 131.103 140.728 130.63C140.559 130.155 140.475 129.581 140.475 128.909C140.475 128.241 140.559 127.671 140.728 127.198C140.899 126.723 141.145 126.36 141.465 126.111C141.787 125.859 142.173 125.734 142.624 125.734C143.075 125.734 143.46 125.859 143.78 126.111C144.102 126.36 144.347 126.723 144.516 127.198C144.688 127.671 144.773 128.241 144.773 128.909C144.773 129.581 144.689 130.155 144.52 130.63C144.35 131.103 144.106 131.464 143.786 131.713C143.466 131.961 143.079 132.085 142.624 132.085ZM142.624 131.42C143.075 131.42 143.425 131.203 143.674 130.768C143.924 130.334 144.049 129.714 144.049 128.909C144.049 128.374 143.991 127.918 143.877 127.542C143.764 127.165 143.601 126.879 143.388 126.681C143.176 126.484 142.922 126.386 142.624 126.386C142.177 126.386 141.828 126.606 141.576 127.047C141.325 127.485 141.199 128.106 141.199 128.909C141.199 129.444 141.256 129.899 141.368 130.273C141.481 130.648 141.643 130.932 141.854 131.128C142.068 131.323 142.324 131.42 142.624 131.42ZM145.835 132V131.457L147.876 129.223C148.115 128.961 148.312 128.734 148.467 128.541C148.622 128.346 148.737 128.163 148.811 127.991C148.888 127.818 148.926 127.637 148.926 127.448C148.926 127.231 148.874 127.043 148.769 126.884C148.666 126.725 148.526 126.602 148.346 126.515C148.167 126.429 147.966 126.386 147.743 126.386C147.505 126.386 147.298 126.435 147.121 126.534C146.946 126.63 146.81 126.766 146.713 126.941C146.619 127.116 146.572 127.321 146.572 127.557H145.859C145.859 127.195 145.943 126.877 146.11 126.603C146.277 126.329 146.504 126.116 146.792 125.963C147.082 125.81 147.407 125.734 147.767 125.734C148.129 125.734 148.45 125.81 148.73 125.963C149.009 126.116 149.229 126.322 149.388 126.582C149.547 126.841 149.626 127.13 149.626 127.448C149.626 127.676 149.585 127.898 149.503 128.115C149.422 128.331 149.281 128.571 149.08 128.837C148.881 129.1 148.604 129.422 148.25 129.803L146.861 131.288V131.336H149.735V132H145.835Z" fill="black"/>
<path d="M258.813 125.818V132H258.065V126.603H258.028L256.519 127.605V126.844L258.065 125.818H258.813ZM262.595 132.085C262.196 132.085 261.841 132.016 261.529 131.879C261.219 131.742 260.973 131.552 260.79 131.309C260.609 131.063 260.51 130.779 260.494 130.455H261.255C261.271 130.654 261.339 130.826 261.46 130.971C261.581 131.114 261.739 131.224 261.934 131.303C262.129 131.381 262.345 131.42 262.583 131.42C262.848 131.42 263.084 131.374 263.289 131.282C263.494 131.189 263.655 131.06 263.772 130.895C263.889 130.73 263.947 130.539 263.947 130.322C263.947 130.094 263.891 129.894 263.778 129.721C263.665 129.546 263.5 129.409 263.283 129.311C263.066 129.212 262.8 129.163 262.486 129.163H261.991V128.499H262.486C262.732 128.499 262.947 128.454 263.132 128.366C263.319 128.277 263.465 128.152 263.57 127.991C263.676 127.83 263.73 127.641 263.73 127.424C263.73 127.215 263.684 127.033 263.591 126.878C263.498 126.723 263.368 126.602 263.199 126.515C263.032 126.429 262.834 126.386 262.607 126.386C262.394 126.386 262.192 126.425 262.003 126.503C261.816 126.58 261.663 126.692 261.544 126.838C261.426 126.983 261.361 127.158 261.351 127.364H260.627C260.639 127.04 260.736 126.756 260.92 126.512C261.103 126.267 261.342 126.076 261.638 125.939C261.936 125.802 262.263 125.734 262.619 125.734C263.001 125.734 263.329 125.811 263.603 125.966C263.877 126.119 264.087 126.321 264.234 126.573C264.381 126.824 264.454 127.096 264.454 127.388C264.454 127.736 264.363 128.033 264.18 128.278C263.998 128.524 263.752 128.694 263.44 128.788V128.837C263.83 128.901 264.135 129.067 264.355 129.335C264.574 129.6 264.684 129.929 264.684 130.322C264.684 130.658 264.592 130.96 264.409 131.227C264.228 131.493 263.98 131.702 263.666 131.855C263.353 132.008 262.995 132.085 262.595 132.085ZM266.174 132.048C266.025 132.048 265.897 131.995 265.79 131.888C265.684 131.782 265.63 131.654 265.63 131.505C265.63 131.356 265.684 131.228 265.79 131.122C265.897 131.015 266.025 130.962 266.174 130.962C266.322 130.962 266.45 131.015 266.557 131.122C266.664 131.228 266.717 131.356 266.717 131.505C266.717 131.604 266.692 131.694 266.641 131.777C266.593 131.859 266.528 131.926 266.445 131.976C266.365 132.024 266.274 132.048 266.174 132.048ZM269.699 132.085C269.244 132.085 268.856 131.961 268.537 131.713C268.217 131.464 267.972 131.103 267.803 130.63C267.634 130.155 267.549 129.581 267.549 128.909C267.549 128.241 267.634 127.671 267.803 127.198C267.974 126.723 268.22 126.36 268.54 126.111C268.861 125.859 269.248 125.734 269.699 125.734C270.149 125.734 270.535 125.859 270.855 126.111C271.177 126.36 271.422 126.723 271.591 127.198C271.762 127.671 271.848 128.241 271.848 128.909C271.848 129.581 271.763 130.155 271.594 130.63C271.425 131.103 271.181 131.464 270.861 131.713C270.541 131.961 270.153 132.085 269.699 132.085ZM269.699 131.42C270.149 131.42 270.5 131.203 270.749 130.768C270.999 130.334 271.123 129.714 271.123 128.909C271.123 128.374 271.066 127.918 270.951 127.542C270.839 127.165 270.676 126.879 270.462 126.681C270.251 126.484 269.996 126.386 269.699 126.386C269.252 126.386 268.903 126.606 268.651 127.047C268.4 127.485 268.274 128.106 268.274 128.909C268.274 129.444 268.33 129.899 268.443 130.273C268.556 130.648 268.718 130.932 268.929 131.128C269.142 131.323 269.399 131.42 269.699 131.42ZM272.91 132V131.457L274.95 129.223C275.19 128.961 275.387 128.734 275.542 128.541C275.697 128.346 275.812 128.163 275.886 127.991C275.962 127.818 276.001 127.637 276.001 127.448C276.001 127.231 275.948 127.043 275.844 126.884C275.741 126.725 275.6 126.602 275.421 126.515C275.242 126.429 275.041 126.386 274.817 126.386C274.58 126.386 274.373 126.435 274.196 126.534C274.021 126.63 273.885 126.766 273.788 126.941C273.694 127.116 273.646 127.321 273.646 127.557H272.934C272.934 127.195 273.017 126.877 273.184 126.603C273.351 126.329 273.579 126.116 273.867 125.963C274.156 125.81 274.481 125.734 274.842 125.734C275.204 125.734 275.525 125.81 275.804 125.963C276.084 126.116 276.304 126.322 276.463 126.582C276.621 126.841 276.701 127.13 276.701 127.448C276.701 127.676 276.66 127.898 276.577 128.115C276.497 128.331 276.356 128.571 276.155 128.837C275.955 129.1 275.679 129.422 275.325 129.803L273.936 131.288V131.336H276.81V132H272.91Z" fill="black"/>
<path d="M256.749 252V245.818H258.837C259.322 245.818 259.719 245.906 260.027 246.081C260.337 246.254 260.566 246.488 260.715 246.784C260.864 247.08 260.938 247.41 260.938 247.774C260.938 248.138 260.864 248.469 260.715 248.767C260.568 249.065 260.341 249.302 260.033 249.48C259.725 249.655 259.33 249.742 258.849 249.742H257.352V249.078H258.825C259.157 249.078 259.424 249.021 259.625 248.906C259.826 248.791 259.972 248.636 260.063 248.441C260.155 248.244 260.202 248.022 260.202 247.774C260.202 247.527 260.155 247.305 260.063 247.11C259.972 246.915 259.825 246.762 259.622 246.651C259.419 246.539 259.149 246.482 258.813 246.482H257.497V252H256.749ZM261.682 252H260.897L263.167 245.818H263.94L266.209 252H265.425L263.577 246.796H263.529L261.682 252ZM261.972 249.585H265.135V250.249H261.972V249.585ZM271.023 247.75C270.956 247.547 270.869 247.365 270.76 247.204C270.653 247.041 270.526 246.902 270.377 246.787C270.23 246.672 270.063 246.585 269.876 246.525C269.689 246.464 269.483 246.434 269.26 246.434C268.894 246.434 268.561 246.529 268.261 246.718C267.961 246.907 267.723 247.186 267.545 247.554C267.368 247.922 267.28 248.374 267.28 248.909C267.28 249.444 267.369 249.896 267.548 250.264C267.728 250.633 267.97 250.911 268.276 251.1C268.582 251.29 268.926 251.384 269.308 251.384C269.662 251.384 269.974 251.309 270.244 251.158C270.516 251.005 270.727 250.79 270.878 250.512C271.031 250.232 271.107 249.903 271.107 249.525L271.337 249.573H269.477V248.909H271.832V249.573C271.832 250.082 271.723 250.525 271.506 250.901C271.29 251.278 270.993 251.569 270.612 251.777C270.234 251.982 269.799 252.085 269.308 252.085C268.761 252.085 268.28 251.956 267.865 251.698C267.453 251.441 267.131 251.074 266.899 250.599C266.67 250.125 266.555 249.561 266.555 248.909C266.555 248.42 266.621 247.98 266.752 247.59C266.884 247.198 267.072 246.864 267.313 246.588C267.554 246.312 267.84 246.101 268.17 245.954C268.5 245.807 268.863 245.734 269.26 245.734C269.586 245.734 269.89 245.783 270.171 245.882C270.455 245.978 270.708 246.116 270.929 246.295C271.152 246.472 271.339 246.684 271.488 246.932C271.636 247.177 271.739 247.45 271.795 247.75H271.023ZM275.093 245.818V252H274.345V246.603H274.309L272.799 247.605V246.844L274.345 245.818H275.093Z" fill="black"/>
<path d="M335.813 125.818V132H335.065V126.603H335.028L333.519 127.605V126.844L335.065 125.818H335.813ZM337.361 130.732V130.116L340.078 125.818H340.525V126.772H340.223L338.17 130.02V130.068H341.829V130.732H337.361ZM340.271 132V130.545V130.258V125.818H340.983V132H340.271ZM343.115 132.048C342.967 132.048 342.839 131.995 342.732 131.888C342.625 131.782 342.572 131.654 342.572 131.505C342.572 131.356 342.625 131.228 342.732 131.122C342.839 131.015 342.967 130.962 343.115 130.962C343.264 130.962 343.392 131.015 343.499 131.122C343.605 131.228 343.659 131.356 343.659 131.505C343.659 131.604 343.634 131.694 343.583 131.777C343.535 131.859 343.47 131.926 343.387 131.976C343.307 132.024 343.216 132.048 343.115 132.048ZM346.641 132.085C346.186 132.085 345.798 131.961 345.478 131.713C345.158 131.464 344.914 131.103 344.745 130.63C344.576 130.155 344.491 129.581 344.491 128.909C344.491 128.241 344.576 127.671 344.745 127.198C344.916 126.723 345.161 126.36 345.481 126.111C345.803 125.859 346.19 125.734 346.641 125.734C347.091 125.734 347.477 125.859 347.797 126.111C348.119 126.36 348.364 126.723 348.533 127.198C348.704 127.671 348.79 128.241 348.79 128.909C348.79 129.581 348.705 130.155 348.536 130.63C348.367 131.103 348.123 131.464 347.803 131.713C347.483 131.961 347.095 132.085 346.641 132.085ZM346.641 131.42C347.091 131.42 347.441 131.203 347.691 130.768C347.94 130.334 348.065 129.714 348.065 128.909C348.065 128.374 348.008 127.918 347.893 127.542C347.78 127.165 347.617 126.879 347.404 126.681C347.193 126.484 346.938 126.386 346.641 126.386C346.194 126.386 345.845 126.606 345.593 127.047C345.342 127.485 345.216 128.106 345.216 128.909C345.216 129.444 345.272 129.899 345.385 130.273C345.498 130.648 345.66 130.932 345.871 131.128C346.084 131.323 346.341 131.42 346.641 131.42ZM349.852 132V131.457L351.892 129.223C352.132 128.961 352.329 128.734 352.484 128.541C352.639 128.346 352.753 128.163 352.828 127.991C352.904 127.818 352.943 127.637 352.943 127.448C352.943 127.231 352.89 127.043 352.786 126.884C352.683 126.725 352.542 126.602 352.363 126.515C352.184 126.429 351.983 126.386 351.759 126.386C351.522 126.386 351.315 126.435 351.138 126.534C350.962 126.63 350.827 126.766 350.73 126.941C350.635 127.116 350.588 127.321 350.588 127.557H349.876C349.876 127.195 349.959 126.877 350.126 126.603C350.293 126.329 350.521 126.116 350.809 125.963C351.098 125.81 351.423 125.734 351.783 125.734C352.146 125.734 352.467 125.81 352.746 125.963C353.026 126.116 353.245 126.322 353.404 126.582C353.563 126.841 353.643 127.13 353.643 127.448C353.643 127.676 353.602 127.898 353.519 128.115C353.439 128.331 353.298 128.571 353.097 128.837C352.897 129.1 352.621 129.422 352.266 129.803L350.878 131.288V131.336H353.752V132H349.852Z" fill="black"/>
<path d="M333.64 12V11.4567L335.68 9.22301C335.92 8.96141 336.117 8.73402 336.272 8.54084C336.427 8.34564 336.542 8.16252 336.616 7.99148C336.693 7.81842 336.731 7.63731 336.731 7.44815C336.731 7.23082 336.679 7.04267 336.574 6.8837C336.471 6.72473 336.33 6.60198 336.151 6.51545C335.972 6.42892 335.771 6.38565 335.548 6.38565C335.31 6.38565 335.103 6.43495 334.926 6.53356C334.751 6.63015 334.615 6.76598 334.518 6.94105C334.424 7.11612 334.376 7.32138 334.376 7.55682H333.664C333.664 7.1946 333.748 6.87666 333.915 6.60298C334.082 6.32931 334.309 6.116 334.597 5.96307C334.887 5.81013 335.212 5.73366 335.572 5.73366C335.934 5.73366 336.255 5.81013 336.535 5.96307C336.814 6.116 337.034 6.32227 337.193 6.58185C337.352 6.84144 337.431 7.13021 337.431 7.44815C337.431 7.67554 337.39 7.8979 337.307 8.11523C337.227 8.33055 337.086 8.57102 336.885 8.83665C336.686 9.10026 336.409 9.42223 336.055 9.80256L334.666 11.2876V11.3359H337.54V12H333.64ZM340.875 5.81818V12H340.126V6.60298H340.09L338.581 7.60511V6.84446L340.126 5.81818H340.875ZM342.734 12.0483C342.585 12.0483 342.457 11.995 342.35 11.8883C342.244 11.7817 342.19 11.6539 342.19 11.505C342.19 11.3561 342.244 11.2283 342.35 11.1216C342.457 11.015 342.585 10.9616 342.734 10.9616C342.882 10.9616 343.01 11.015 343.117 11.1216C343.224 11.2283 343.277 11.3561 343.277 11.505C343.277 11.6036 343.252 11.6941 343.201 11.7766C343.153 11.8591 343.088 11.9255 343.005 11.9759C342.925 12.0241 342.834 12.0483 342.734 12.0483ZM346.259 12.0845C345.804 12.0845 345.417 11.9608 345.097 11.7132C344.777 11.4637 344.532 11.1025 344.363 10.6296C344.194 10.1547 344.11 9.5812 344.11 8.90909C344.11 8.241 344.194 7.67051 344.363 7.19762C344.534 6.72272 344.78 6.3605 345.1 6.11097C345.422 5.85943 345.808 5.73366 346.259 5.73366C346.709 5.73366 347.095 5.85943 347.415 6.11097C347.737 6.3605 347.982 6.72272 348.151 7.19762C348.322 7.67051 348.408 8.241 348.408 8.90909C348.408 9.5812 348.323 10.1547 348.154 10.6296C347.985 11.1025 347.741 11.4637 347.421 11.7132C347.101 11.9608 346.713 12.0845 346.259 12.0845ZM346.259 11.4205C346.709 11.4205 347.06 11.2031 347.309 10.7685C347.559 10.3338 347.683 9.71402 347.683 8.90909C347.683 8.37382 347.626 7.91803 347.511 7.54173C347.399 7.16542 347.236 6.87867 347.022 6.68146C346.811 6.48426 346.556 6.38565 346.259 6.38565C345.812 6.38565 345.463 6.606 345.211 7.0467C344.96 7.48538 344.834 8.10618 344.834 8.90909C344.834 9.44437 344.89 9.89915 345.003 10.2734C345.116 10.6477 345.278 10.9325 345.489 11.1277C345.702 11.3229 345.959 11.4205 346.259 11.4205ZM349.47 12V11.4567L351.51 9.22301C351.75 8.96141 351.947 8.73402 352.102 8.54084C352.257 8.34564 352.372 8.16252 352.446 7.99148C352.523 7.81842 352.561 7.63731 352.561 7.44815C352.561 7.23082 352.508 7.04267 352.404 6.8837C352.301 6.72473 352.16 6.60198 351.981 6.51545C351.802 6.42892 351.601 6.38565 351.378 6.38565C351.14 6.38565 350.933 6.43495 350.756 6.53356C350.581 6.63015 350.445 6.76598 350.348 6.94105C350.254 7.11612 350.206 7.32138 350.206 7.55682H349.494C349.494 7.1946 349.577 6.87666 349.745 6.60298C349.912 6.32931 350.139 6.116 350.427 5.96307C350.716 5.81013 351.041 5.73366 351.402 5.73366C351.764 5.73366 352.085 5.81013 352.365 5.96307C352.644 6.116 352.864 6.32227 353.023 6.58185C353.182 6.84144 353.261 7.13021 353.261 7.44815C353.261 7.67554 353.22 7.8979 353.137 8.11523C353.057 8.33055 352.916 8.57102 352.715 8.83665C352.515 9.10026 352.239 9.42223 351.885 9.80256L350.496 11.2876V11.3359H353.37V12H349.47Z" fill="black"/>
<path d="M256.64 12V11.4567L258.68 9.22301C258.92 8.96141 259.117 8.73402 259.272 8.54084C259.427 8.34564 259.542 8.16252 259.616 7.99148C259.693 7.81842 259.731 7.63731 259.731 7.44815C259.731 7.23082 259.679 7.04267 259.574 6.8837C259.471 6.72473 259.33 6.60198 259.151 6.51545C258.972 6.42892 258.771 6.38565 258.548 6.38565C258.31 6.38565 258.103 6.43495 257.926 6.53356C257.751 6.63015 257.615 6.76598 257.518 6.94105C257.424 7.11612 257.376 7.32138 257.376 7.55682H256.664C256.664 7.1946 256.748 6.87666 256.915 6.60298C257.082 6.32931 257.309 6.116 257.597 5.96307C257.887 5.81013 258.212 5.73366 258.572 5.73366C258.934 5.73366 259.255 5.81013 259.535 5.96307C259.814 6.116 260.034 6.32227 260.193 6.58185C260.352 6.84144 260.431 7.13021 260.431 7.44815C260.431 7.67554 260.39 7.8979 260.307 8.11523C260.227 8.33055 260.086 8.57102 259.885 8.83665C259.686 9.10026 259.409 9.42223 259.055 9.80256L257.666 11.2876V11.3359H260.54V12H256.64ZM261.701 12V11.4567L263.742 9.22301C263.981 8.96141 264.179 8.73402 264.334 8.54084C264.488 8.34564 264.603 8.16252 264.678 7.99148C264.754 7.81842 264.792 7.63731 264.792 7.44815C264.792 7.23082 264.74 7.04267 264.635 6.8837C264.533 6.72473 264.392 6.60198 264.213 6.51545C264.034 6.42892 263.832 6.38565 263.609 6.38565C263.372 6.38565 263.164 6.43495 262.987 6.53356C262.812 6.63015 262.676 6.76598 262.58 6.94105C262.485 7.11612 262.438 7.32138 262.438 7.55682H261.726C261.726 7.1946 261.809 6.87666 261.976 6.60298C262.143 6.32931 262.37 6.116 262.658 5.96307C262.948 5.81013 263.273 5.73366 263.633 5.73366C263.995 5.73366 264.316 5.81013 264.596 5.96307C264.876 6.116 265.095 6.32227 265.254 6.58185C265.413 6.84144 265.493 7.13021 265.493 7.44815C265.493 7.67554 265.451 7.8979 265.369 8.11523C265.288 8.33055 265.147 8.57102 264.946 8.83665C264.747 9.10026 264.47 9.42223 264.116 9.80256L262.728 11.2876V11.3359H265.601V12H261.701ZM267.294 12.0483C267.145 12.0483 267.017 11.995 266.911 11.8883C266.804 11.7817 266.751 11.6539 266.751 11.505C266.751 11.3561 266.804 11.2283 266.911 11.1216C267.017 11.015 267.145 10.9616 267.294 10.9616C267.443 10.9616 267.571 11.015 267.677 11.1216C267.784 11.2283 267.837 11.3561 267.837 11.505C267.837 11.6036 267.812 11.6941 267.762 11.7766C267.714 11.8591 267.648 11.9255 267.566 11.9759C267.485 12.0241 267.395 12.0483 267.294 12.0483ZM270.819 12.0845C270.364 12.0845 269.977 11.9608 269.657 11.7132C269.337 11.4637 269.093 11.1025 268.924 10.6296C268.755 10.1547 268.67 9.5812 268.67 8.90909C268.67 8.241 268.755 7.67051 268.924 7.19762C269.095 6.72272 269.34 6.3605 269.66 6.11097C269.982 5.85943 270.368 5.73366 270.819 5.73366C271.27 5.73366 271.655 5.85943 271.975 6.11097C272.297 6.3605 272.543 6.72272 272.712 7.19762C272.883 7.67051 272.968 8.241 272.968 8.90909C272.968 9.5812 272.884 10.1547 272.715 10.6296C272.546 11.1025 272.301 11.4637 271.981 11.7132C271.661 11.9608 271.274 12.0845 270.819 12.0845ZM270.819 11.4205C271.27 11.4205 271.62 11.2031 271.87 10.7685C272.119 10.3338 272.244 9.71402 272.244 8.90909C272.244 8.37382 272.187 7.91803 272.072 7.54173C271.959 7.16542 271.796 6.87867 271.583 6.68146C271.372 6.48426 271.117 6.38565 270.819 6.38565C270.372 6.38565 270.023 6.606 269.772 7.0467C269.52 7.48538 269.395 8.10618 269.395 8.90909C269.395 9.44437 269.451 9.89915 269.564 10.2734C269.676 10.6477 269.838 10.9325 270.05 11.1277C270.263 11.3229 270.519 11.4205 270.819 11.4205ZM274.03 12V11.4567L276.071 9.22301C276.31 8.96141 276.508 8.73402 276.662 8.54084C276.817 8.34564 276.932 8.16252 277.007 7.99148C277.083 7.81842 277.121 7.63731 277.121 7.44815C277.121 7.23082 277.069 7.04267 276.964 6.8837C276.862 6.72473 276.721 6.60198 276.542 6.51545C276.363 6.42892 276.161 6.38565 275.938 6.38565C275.701 6.38565 275.493 6.43495 275.316 6.53356C275.141 6.63015 275.005 6.76598 274.909 6.94105C274.814 7.11612 274.767 7.32138 274.767 7.55682H274.055C274.055 7.1946 274.138 6.87666 274.305 6.60298C274.472 6.32931 274.699 6.116 274.987 5.96307C275.277 5.81013 275.602 5.73366 275.962 5.73366C276.324 5.73366 276.645 5.81013 276.925 5.96307C277.205 6.116 277.424 6.32227 277.583 6.58185C277.742 6.84144 277.822 7.13021 277.822 7.44815C277.822 7.67554 277.78 7.8979 277.698 8.11523C277.617 8.33055 277.476 8.57102 277.275 8.83665C277.076 9.10026 276.799 9.42223 276.445 9.80256L275.057 11.2876V11.3359H277.93V12H274.03Z" fill="black"/>
<path d="M129.64 12V11.4567L131.68 9.22301C131.92 8.96141 132.117 8.73402 132.272 8.54084C132.427 8.34564 132.542 8.16252 132.616 7.99148C132.693 7.81842 132.731 7.63731 132.731 7.44815C132.731 7.23082 132.679 7.04267 132.574 6.8837C132.471 6.72473 132.33 6.60198 132.151 6.51545C131.972 6.42892 131.771 6.38565 131.548 6.38565C131.31 6.38565 131.103 6.43495 130.926 6.53356C130.751 6.63015 130.615 6.76598 130.518 6.94105C130.424 7.11612 130.376 7.32138 130.376 7.55682H129.664C129.664 7.1946 129.748 6.87666 129.915 6.60298C130.082 6.32931 130.309 6.116 130.597 5.96307C130.887 5.81013 131.212 5.73366 131.572 5.73366C131.934 5.73366 132.255 5.81013 132.535 5.96307C132.814 6.116 133.034 6.32227 133.193 6.58185C133.352 6.84144 133.431 7.13021 133.431 7.44815C133.431 7.67554 133.39 7.8979 133.307 8.11523C133.227 8.33055 133.086 8.57102 132.885 8.83665C132.686 9.10026 132.409 9.42223 132.055 9.80256L130.666 11.2876V11.3359H133.54V12H129.64ZM136.79 12.0845C136.392 12.0845 136.037 12.0161 135.725 11.8793C135.415 11.7424 135.168 11.5523 134.985 11.3088C134.804 11.0633 134.705 10.7785 134.689 10.4545H135.45C135.466 10.6538 135.534 10.8258 135.655 10.9707C135.776 11.1136 135.934 11.2243 136.129 11.3027C136.324 11.3812 136.541 11.4205 136.778 11.4205C137.044 11.4205 137.279 11.3742 137.484 11.2816C137.69 11.189 137.851 11.0603 137.967 10.8952C138.084 10.7302 138.142 10.5391 138.142 10.3217C138.142 10.0943 138.086 9.89412 137.973 9.72106C137.861 9.54599 137.696 9.40915 137.478 9.31055C137.261 9.21194 136.995 9.16264 136.682 9.16264H136.186V8.49858H136.682C136.927 8.49858 137.142 8.45431 137.327 8.36577C137.515 8.27723 137.661 8.15246 137.765 7.99148C137.872 7.83049 137.925 7.64134 137.925 7.42401C137.925 7.21473 137.879 7.03261 137.786 6.87766C137.694 6.72272 137.563 6.60198 137.394 6.51545C137.227 6.42892 137.03 6.38565 136.802 6.38565C136.589 6.38565 136.388 6.42489 136.199 6.50337C136.011 6.57984 135.858 6.69152 135.74 6.83842C135.621 6.98331 135.557 7.15838 135.547 7.36364H134.822C134.834 7.03965 134.932 6.75592 135.115 6.51243C135.298 6.26693 135.538 6.07576 135.833 5.93892C136.131 5.80208 136.458 5.73366 136.814 5.73366C137.197 5.73366 137.525 5.81114 137.798 5.96609C138.072 6.11902 138.282 6.32126 138.429 6.5728C138.576 6.82434 138.65 7.096 138.65 7.38778C138.65 7.73591 138.558 8.03273 138.375 8.27823C138.194 8.52373 137.947 8.69377 137.635 8.78835V8.83665C138.026 8.90104 138.331 9.06706 138.55 9.33469C138.769 9.60032 138.879 9.92933 138.879 10.3217C138.879 10.6578 138.787 10.9596 138.604 11.2273C138.423 11.4929 138.176 11.7022 137.862 11.8551C137.548 12.008 137.191 12.0845 136.79 12.0845ZM140.369 12.0483C140.22 12.0483 140.092 11.995 139.985 11.8883C139.879 11.7817 139.826 11.6539 139.826 11.505C139.826 11.3561 139.879 11.2283 139.985 11.1216C140.092 11.015 140.22 10.9616 140.369 10.9616C140.518 10.9616 140.646 11.015 140.752 11.1216C140.859 11.2283 140.912 11.3561 140.912 11.505C140.912 11.6036 140.887 11.6941 140.837 11.7766C140.788 11.8591 140.723 11.9255 140.641 11.9759C140.56 12.0241 140.469 12.0483 140.369 12.0483ZM143.894 12.0845C143.439 12.0845 143.052 11.9608 142.732 11.7132C142.412 11.4637 142.167 11.1025 141.998 10.6296C141.829 10.1547 141.745 9.5812 141.745 8.90909C141.745 8.241 141.829 7.67051 141.998 7.19762C142.169 6.72272 142.415 6.3605 142.735 6.11097C143.057 5.85943 143.443 5.73366 143.894 5.73366C144.345 5.73366 144.73 5.85943 145.05 6.11097C145.372 6.3605 145.617 6.72272 145.787 7.19762C145.958 7.67051 146.043 8.241 146.043 8.90909C146.043 9.5812 145.959 10.1547 145.79 10.6296C145.62 11.1025 145.376 11.4637 145.056 11.7132C144.736 11.9608 144.349 12.0845 143.894 12.0845ZM143.894 11.4205C144.345 11.4205 144.695 11.2031 144.944 10.7685C145.194 10.3338 145.319 9.71402 145.319 8.90909C145.319 8.37382 145.261 7.91803 145.147 7.54173C145.034 7.16542 144.871 6.87867 144.658 6.68146C144.446 6.48426 144.192 6.38565 143.894 6.38565C143.447 6.38565 143.098 6.606 142.847 7.0467C142.595 7.48538 142.469 8.10618 142.469 8.90909C142.469 9.44437 142.526 9.89915 142.638 10.2734C142.751 10.6477 142.913 10.9325 143.124 11.1277C143.338 11.3229 143.594 11.4205 143.894 11.4205ZM147.105 12V11.4567L149.146 9.22301C149.385 8.96141 149.582 8.73402 149.737 8.54084C149.892 8.34564 150.007 8.16252 150.081 7.99148C150.158 7.81842 150.196 7.63731 150.196 7.44815C150.196 7.23082 150.144 7.04267 150.039 6.8837C149.936 6.72473 149.796 6.60198 149.616 6.51545C149.437 6.42892 149.236 6.38565 149.013 6.38565C148.775 6.38565 148.568 6.43495 148.391 6.53356C148.216 6.63015 148.08 6.76598 147.983 6.94105C147.889 7.11612 147.842 7.32138 147.842 7.55682H147.129C147.129 7.1946 147.213 6.87666 147.38 6.60298C147.547 6.32931 147.774 6.116 148.062 5.96307C148.352 5.81013 148.677 5.73366 149.037 5.73366C149.399 5.73366 149.72 5.81013 150 5.96307C150.28 6.116 150.499 6.32227 150.658 6.58185C150.817 6.84144 150.896 7.13021 150.896 7.44815C150.896 7.67554 150.855 7.8979 150.773 8.11523C150.692 8.33055 150.551 8.57102 150.35 8.83665C150.151 9.10026 149.874 9.42223 149.52 9.80256L148.131 11.2876V11.3359H151.005V12H147.105Z" fill="black"/>
<path d="M2.63991 12V11.4567L4.6804 9.22301C4.91986 8.96141 5.11707 8.73402 5.27202 8.54084C5.42697 8.34564 5.54167 8.16252 5.61612 7.99148C5.69259 7.81842 5.73082 7.63731 5.73082 7.44815C5.73082 7.23082 5.6785 7.04267 5.57386 6.8837C5.47124 6.72473 5.33037 6.60198 5.15128 6.51545C4.97218 6.42892 4.77095 6.38565 4.54759 6.38565C4.31013 6.38565 4.10286 6.43495 3.92578 6.53356C3.75071 6.63015 3.61488 6.76598 3.51829 6.94105C3.42371 7.11612 3.37642 7.32138 3.37642 7.55682H2.66406C2.66406 7.1946 2.74757 6.87666 2.9146 6.60298C3.08162 6.32931 3.30901 6.116 3.59677 5.96307C3.88654 5.81013 4.21153 5.73366 4.57173 5.73366C4.93395 5.73366 5.25491 5.81013 5.53462 5.96307C5.81433 6.116 6.03368 6.32227 6.19265 6.58185C6.35162 6.84144 6.43111 7.13021 6.43111 7.44815C6.43111 7.67554 6.38986 7.8979 6.30735 8.11523C6.22686 8.33055 6.086 8.57102 5.88477 8.83665C5.68555 9.10026 5.40885 9.42223 5.05469 9.80256L3.66619 11.2876V11.3359H6.53977V12H2.63991ZM7.4237 10.7322V10.1165L10.1403 5.81818H10.5871V6.77202H10.2852L8.23265 10.0199V10.0682H11.891V10.7322H7.4237ZM10.3335 12V10.5451V10.2583V5.81818H11.0459V12H10.3335ZM13.1779 12.0483C13.029 12.0483 12.9012 11.995 12.7946 11.8883C12.6879 11.7817 12.6346 11.6539 12.6346 11.505C12.6346 11.3561 12.6879 11.2283 12.7946 11.1216C12.9012 11.015 13.029 10.9616 13.1779 10.9616C13.3268 10.9616 13.4546 11.015 13.5613 11.1216C13.6679 11.2283 13.7212 11.3561 13.7212 11.505C13.7212 11.6036 13.6961 11.6941 13.6458 11.7766C13.5975 11.8591 13.5321 11.9255 13.4496 11.9759C13.3691 12.0241 13.2785 12.0483 13.1779 12.0483ZM16.703 12.0845C16.2482 12.0845 15.8609 11.9608 15.5409 11.7132C15.2209 11.4637 14.9764 11.1025 14.8074 10.6296C14.6384 10.1547 14.5539 9.5812 14.5539 8.90909C14.5539 8.241 14.6384 7.67051 14.8074 7.19762C14.9785 6.72272 15.224 6.3605 15.5439 6.11097C15.8659 5.85943 16.2523 5.73366 16.703 5.73366C17.1538 5.73366 17.5391 5.85943 17.8591 6.11097C18.1811 6.3605 18.4266 6.72272 18.5956 7.19762C18.7666 7.67051 18.8522 8.241 18.8522 8.90909C18.8522 9.5812 18.7676 10.1547 18.5986 10.6296C18.4296 11.1025 18.1851 11.4637 17.8651 11.7132C17.5452 11.9608 17.1578 12.0845 16.703 12.0845ZM16.703 11.4205C17.1538 11.4205 17.5039 11.2031 17.7534 10.7685C18.003 10.3338 18.1277 9.71402 18.1277 8.90909C18.1277 8.37382 18.0704 7.91803 17.9557 7.54173C17.843 7.16542 17.68 6.87867 17.4667 6.68146C17.2554 6.48426 17.0008 6.38565 16.703 6.38565C16.2563 6.38565 15.9071 6.606 15.6556 7.0467C15.4041 7.48538 15.2783 8.10618 15.2783 8.90909C15.2783 9.44437 15.3346 9.89915 15.4473 10.2734C15.56 10.6477 15.722 10.9325 15.9333 11.1277C16.1466 11.3229 16.4032 11.4205 16.703 11.4205ZM19.9142 12V11.4567L21.9547 9.22301C22.1941 8.96141 22.3913 8.73402 22.5463 8.54084C22.7012 8.34564 22.8159 8.16252 22.8904 7.99148C22.9668 7.81842 23.0051 7.63731 23.0051 7.44815C23.0051 7.23082 22.9528 7.04267 22.8481 6.8837C22.7455 6.72473 22.6046 6.60198 22.4255 6.51545C22.2464 6.42892 22.0452 6.38565 21.8218 6.38565C21.5844 6.38565 21.3771 6.43495 21.2 6.53356C21.025 6.63015 20.8891 6.76598 20.7925 6.94105C20.698 7.11612 20.6507 7.32138 20.6507 7.55682H19.9383C19.9383 7.1946 20.0218 6.87666 20.1889 6.60298C20.3559 6.32931 20.5833 6.116 20.871 5.96307C21.1608 5.81013 21.4858 5.73366 21.846 5.73366C22.2082 5.73366 22.5292 5.81013 22.8089 5.96307C23.0886 6.116 23.3079 6.32227 23.4669 6.58185C23.6259 6.84144 23.7054 7.13021 23.7054 7.44815C23.7054 7.67554 23.6641 7.8979 23.5816 8.11523C23.5011 8.33055 23.3603 8.57102 23.159 8.83665C22.9598 9.10026 22.6831 9.42223 22.3289 9.80256L20.9405 11.2876V11.3359H23.814V12H19.9142Z" fill="black"/>
<path d="M171.811 151.641L171.224 151.121L177.02 147.995L177.599 148.507L175.202 154.641L174.615 154.121L176.679 149L176.643 148.968L171.811 151.641ZM173.629 150.025L175.998 152.121L175.558 152.618L173.189 150.522L173.629 150.025ZM175.779 155.151L176.139 154.744L179.147 154.423C179.5 154.386 179.798 154.346 180.042 154.304C180.287 154.261 180.495 154.2 180.664 154.121C180.836 154.042 180.984 153.932 181.11 153.79C181.254 153.627 181.339 153.452 181.366 153.263C181.395 153.076 181.37 152.891 181.294 152.707C181.217 152.524 181.095 152.358 180.928 152.21C180.75 152.053 180.562 151.952 180.364 151.909C180.169 151.865 179.977 151.877 179.789 151.944C179.602 152.012 179.43 152.135 179.274 152.311L178.741 151.839C178.981 151.568 179.254 151.385 179.56 151.291C179.867 151.197 180.179 151.187 180.495 151.264C180.814 151.341 181.108 151.499 181.378 151.738C181.649 151.978 181.839 152.248 181.947 152.548C182.055 152.848 182.083 153.147 182.03 153.447C181.977 153.747 181.845 154.016 181.634 154.254C181.483 154.424 181.305 154.563 181.099 154.672C180.897 154.779 180.632 154.866 180.305 154.932C179.981 154.997 179.56 155.055 179.043 155.105L177.019 155.297L176.987 155.334L179.139 157.238L178.699 157.735L175.779 155.151Z" fill="black"/>
<path d="M43.2528 30.4067L42.6651 29.8867L48.4613 26.7609L49.04 27.2729L46.6439 33.4069L46.0561 32.8868L48.1207 27.7653L48.0845 27.7333L43.2528 30.4067ZM45.0699 28.7902L47.4392 30.8863L46.9991 31.3836L44.6299 29.2875L45.0699 28.7902ZM52.7263 30.5342L48.6301 35.1641L48.0695 34.6681L51.6456 30.626L51.6185 30.602L49.8241 30.3525L50.3281 29.7828L52.1657 30.0382L52.7263 30.5342Z" fill="black"/>
</svg>
