<svg width="142" height="339" viewBox="0 0 142 339" fill="none" xmlns="http://www.w3.org/2000/svg">
<rect x="1" y="34" width="140" height="304" stroke="#FEFFC1" stroke-width="2"/>
<rect width="92" height="26.4828" fill="#3A3A3A"/>
<path d="M3.9797 9.26278V8.09091H12.1615V9.26278H8.73112V19H7.4101V9.26278H3.9797ZM14.0503 19V8.09091H20.6341V9.26278H15.3713V12.9489H20.2932V14.1207H15.3713V17.8281H20.7194V19H14.0503ZM22.8652 19V8.09091H26.5512C27.4035 8.09091 28.1031 8.23651 28.65 8.5277C29.1968 8.81534 29.6017 9.21129 29.8645 9.71555C30.1272 10.2198 30.2586 10.7933 30.2586 11.4361C30.2586 12.0788 30.1272 12.6488 29.8645 13.146C29.6017 13.6431 29.1986 14.0337 28.6553 14.3178C28.112 14.5984 27.4177 14.7386 26.5725 14.7386H23.5896V13.5455H26.5299C27.1123 13.5455 27.5811 13.4602 27.9362 13.2898C28.2949 13.1193 28.5541 12.8778 28.7139 12.5653C28.8772 12.2493 28.9589 11.8729 28.9589 11.4361C28.9589 10.9993 28.8772 10.6175 28.7139 10.2908C28.5505 9.96413 28.2895 9.712 27.9309 9.53445C27.5722 9.35334 27.0981 9.26278 26.5086 9.26278H24.1862V19H22.8652ZM28.0001 14.0994L30.6848 19H29.1507L26.5086 14.0994H28.0001ZM36.3786 8.09091H37.9553L41.6627 17.1463H41.7906L45.498 8.09091H47.0747V19H45.8389V10.7116H45.7323L42.3232 19H41.1301L37.721 10.7116H37.6144V19H36.3786V8.09091ZM52.9398 19H49.5734V8.09091H53.089C54.1472 8.09091 55.0528 8.3093 55.8056 8.74609C56.5585 9.17933 57.1355 9.80256 57.5368 10.6158C57.9381 11.4254 58.1387 12.3949 58.1387 13.5241C58.1387 14.6605 57.9363 15.6388 57.5315 16.4592C57.1266 17.2759 56.5371 17.9045 55.763 18.3448C54.9888 18.7816 54.0478 19 52.9398 19ZM50.8944 17.8281H52.8546C53.7566 17.8281 54.5041 17.6541 55.0972 17.3061C55.6902 16.9581 56.1323 16.4627 56.4235 15.82C56.7147 15.1772 56.8603 14.4119 56.8603 13.5241C56.8603 12.6435 56.7165 11.8853 56.4288 11.2496C56.1412 10.6104 55.7115 10.1204 55.1398 9.77947C54.568 9.43501 53.856 9.26278 53.0038 9.26278H50.8944V17.8281ZM66.1705 10.8182C66.1066 10.2784 65.8474 9.85938 65.3928 9.56108C64.9383 9.26278 64.3808 9.11364 63.7202 9.11364C63.2373 9.11364 62.8147 9.19176 62.4525 9.34801C62.0938 9.50426 61.8133 9.7191 61.6109 9.99254C61.412 10.266 61.3126 10.5767 61.3126 10.9247C61.3126 11.2159 61.3818 11.4663 61.5203 11.6758C61.6624 11.8817 61.8435 12.054 62.0636 12.1925C62.2838 12.3274 62.5146 12.4393 62.7561 12.5281C62.9976 12.6133 63.2195 12.6825 63.4219 12.7358L64.5299 13.0341C64.814 13.1087 65.13 13.2116 65.4781 13.343C65.8296 13.4744 66.1652 13.6538 66.4848 13.881C66.808 14.1048 67.0743 14.3924 67.2838 14.744C67.4933 15.0955 67.5981 15.527 67.5981 16.0384C67.5981 16.6278 67.4436 17.1605 67.1347 17.6364C66.8293 18.1122 66.3818 18.4904 65.7923 18.771C65.2064 19.0515 64.4944 19.1918 63.6563 19.1918C62.8751 19.1918 62.1986 19.0657 61.6268 18.8136C61.0587 18.5614 60.6112 18.2099 60.2845 17.7589C59.9614 17.3079 59.7785 16.7841 59.7359 16.1875H61.0995C61.135 16.5994 61.2735 16.9403 61.515 17.2102C61.76 17.4766 62.069 17.6754 62.4418 17.8068C62.8182 17.9347 63.2231 17.9986 63.6563 17.9986C64.1606 17.9986 64.6133 17.9169 65.0146 17.7536C65.4159 17.5866 65.7337 17.3558 65.9681 17.0611C66.2025 16.7628 66.3197 16.4148 66.3197 16.017C66.3197 15.6548 66.2185 15.3601 66.016 15.1328C65.8136 14.9055 65.5473 14.7209 65.217 14.5788C64.8868 14.4368 64.5299 14.3125 64.1464 14.206L62.804 13.8224C61.9518 13.5774 61.2771 13.2276 60.7799 12.7731C60.2827 12.3185 60.0342 11.7237 60.0342 10.9886C60.0342 10.3778 60.1993 9.84517 60.5295 9.39062C60.8633 8.93253 61.3108 8.57741 61.8719 8.32528C62.4365 8.0696 63.0668 7.94176 63.7629 7.94176C64.466 7.94176 65.091 8.06783 65.6379 8.31996C66.1847 8.56854 66.618 8.90945 66.9376 9.34268C67.2607 9.77592 67.4312 10.2678 67.4489 10.8182H66.1705ZM69.0235 9.26278V8.09091H77.2053V9.26278H73.7749V19H72.4538V9.26278H69.0235ZM87.8445 13.5455C87.8445 14.696 87.6368 15.6903 87.2213 16.5284C86.8058 17.3665 86.2359 18.0128 85.5114 18.4673C84.787 18.9219 83.9596 19.1491 83.0292 19.1491C82.0988 19.1491 81.2714 18.9219 80.5469 18.4673C79.8225 18.0128 79.2525 17.3665 78.8371 16.5284C78.4216 15.6903 78.2138 14.696 78.2138 13.5455C78.2138 12.3949 78.4216 11.4006 78.8371 10.5625C79.2525 9.72443 79.8225 9.07812 80.5469 8.62358C81.2714 8.16903 82.0988 7.94176 83.0292 7.94176C83.9596 7.94176 84.787 8.16903 85.5114 8.62358C86.2359 9.07812 86.8058 9.72443 87.2213 10.5625C87.6368 11.4006 87.8445 12.3949 87.8445 13.5455ZM86.5661 13.5455C86.5661 12.6009 86.4081 11.8036 86.092 11.1538C85.7795 10.5039 85.3552 10.0121 84.8189 9.67827C84.2863 9.34446 83.6897 9.17756 83.0292 9.17756C82.3687 9.17756 81.7703 9.34446 81.2341 9.67827C80.7014 10.0121 80.277 10.5039 79.961 11.1538C79.6485 11.8036 79.4922 12.6009 79.4922 13.5455C79.4922 14.4901 79.6485 15.2873 79.961 15.9371C80.277 16.587 80.7014 17.0788 81.2341 17.4126C81.7703 17.7464 82.3687 17.9134 83.0292 17.9134C83.6897 17.9134 84.2863 17.7464 84.8189 17.4126C85.3552 17.0788 85.7795 16.587 86.092 15.9371C86.4081 15.2873 86.5661 14.4901 86.5661 13.5455Z" fill="#FEFFC1"/>
<g filter="url(#filter0_i_655_8)">
<rect x="23" y="55" width="46" height="46" fill="#66D264"/>
</g>
<rect x="24.5" y="56.5" width="43" height="43" stroke="#4A4A4A" stroke-width="3"/>
<path d="M38.3534 72.0909V83H36.8406L31.2955 74.9993H31.1943V83H29.5483V72.0909H31.0718L36.6222 80.1023H36.7234V72.0909H38.3534ZM49.7806 77.5455C49.7806 78.7102 49.5675 79.7116 49.1414 80.5497C48.7152 81.3842 48.1311 82.027 47.3889 82.478C46.6502 82.9254 45.8104 83.1491 44.8694 83.1491C43.9248 83.1491 43.0814 82.9254 42.3392 82.478C41.6005 82.027 41.0181 81.3825 40.592 80.5444C40.1659 79.7063 39.9528 78.7067 39.9528 77.5455C39.9528 76.3807 40.1659 75.381 40.592 74.5465C41.0181 73.7085 41.6005 73.0657 42.3392 72.6183C43.0814 72.1673 43.9248 71.9418 44.8694 71.9418C45.8104 71.9418 46.6502 72.1673 47.3889 72.6183C48.1311 73.0657 48.7152 73.7085 49.1414 74.5465C49.5675 75.381 49.7806 76.3807 49.7806 77.5455ZM48.1506 77.5455C48.1506 76.6577 48.0068 75.9102 47.7191 75.3029C47.435 74.6921 47.0444 74.2305 46.5473 73.918C46.0537 73.6019 45.4944 73.4439 44.8694 73.4439C44.2408 73.4439 43.6797 73.6019 43.1861 73.918C42.6925 74.2305 42.3019 74.6921 42.0142 75.3029C41.7301 75.9102 41.5881 76.6577 41.5881 77.5455C41.5881 78.4332 41.7301 79.1825 42.0142 79.7933C42.3019 80.4006 42.6925 80.8622 43.1861 81.1783C43.6797 81.4908 44.2408 81.647 44.8694 81.647C45.4944 81.647 46.0537 81.4908 46.5473 81.1783C47.0444 80.8622 47.435 80.4006 47.7191 79.7933C48.0068 79.1825 48.1506 78.4332 48.1506 77.5455ZM51.3827 83V72.0909H55.2712C56.1164 72.0909 56.8177 72.2365 57.3752 72.5277C57.9363 72.8189 58.3553 73.2219 58.6323 73.7369C58.9093 74.2482 59.0478 74.8395 59.0478 75.5107C59.0478 76.1783 58.9075 76.766 58.627 77.2738C58.35 77.7781 57.931 78.1705 57.3699 78.451C56.8124 78.7315 56.111 78.8718 55.2659 78.8718H52.3202V77.4549H55.1167C55.6494 77.4549 56.0826 77.3786 56.4164 77.2259C56.7538 77.0732 57.0006 76.8512 57.1568 76.56C57.3131 76.2688 57.3912 75.919 57.3912 75.5107C57.3912 75.0987 57.3113 74.7418 57.1515 74.44C56.9953 74.1381 56.7485 73.9073 56.4111 73.7475C56.0773 73.5842 55.6387 73.5025 55.0954 73.5025H53.0286V83H51.3827ZM56.768 78.0781L59.4633 83H57.5883L54.9463 78.0781H56.768ZM61.5222 83.1012C61.231 83.1012 60.9806 82.9982 60.7711 82.7923C60.5616 82.5827 60.4568 82.3306 60.4568 82.0359C60.4568 81.7447 60.5616 81.4961 60.7711 81.2901C60.9806 81.0806 61.231 80.9759 61.5222 80.9759C61.8134 80.9759 62.0637 81.0806 62.2732 81.2901C62.4828 81.4961 62.5875 81.7447 62.5875 82.0359C62.5875 82.2312 62.5378 82.4105 62.4384 82.5739C62.3425 82.7337 62.2146 82.8615 62.0548 82.9574C61.895 83.0533 61.7175 83.1012 61.5222 83.1012Z" fill="black"/>
<rect x="24.5" y="106.5" width="43" height="43" fill="#6B6B6B" stroke="#4A4A4A" stroke-width="3"/>
<path d="M34.8231 124H31.2915V113.091H34.9349C36.0038 113.091 36.9218 113.309 37.6888 113.746C38.4559 114.179 39.0436 114.803 39.452 115.616C39.8639 116.425 40.0699 117.397 40.0699 118.529C40.0699 119.666 39.8621 120.642 39.4467 121.459C39.0347 122.276 38.4381 122.904 37.6569 123.345C36.8756 123.782 35.931 124 34.8231 124ZM32.9374 122.562H34.7325C35.5635 122.562 36.2542 122.406 36.8046 122.093C37.355 121.777 37.767 121.321 38.0404 120.724C38.3138 120.124 38.4506 119.392 38.4506 118.529C38.4506 117.674 38.3138 116.947 38.0404 116.351C37.7705 115.754 37.3675 115.301 36.8313 114.993C36.295 114.684 35.6292 114.529 34.8337 114.529H32.9374V122.562ZM41.6667 124V113.091H48.5062V114.508H43.3126V117.832H48.1493V119.243H43.3126V122.583H48.5701V124H41.6667ZM51.2082 113.091L54.2445 121.976H54.367L57.4032 113.091H59.1823L55.2565 124H53.3549L49.4291 113.091H51.2082ZM59.779 124.101C59.4878 124.101 59.2375 123.998 59.0279 123.792C58.8184 123.583 58.7137 123.331 58.7137 123.036C58.7137 122.745 58.8184 122.496 59.0279 122.29C59.2375 122.081 59.4878 121.976 59.779 121.976C60.0702 121.976 60.3206 122.081 60.5301 122.29C60.7396 122.496 60.8444 122.745 60.8444 123.036C60.8444 123.231 60.7946 123.411 60.6952 123.574C60.5993 123.734 60.4715 123.862 60.3117 123.957C60.1519 124.053 59.9743 124.101 59.779 124.101ZM39.805 142H38.0578L41.9836 131.091H43.8852L47.811 142H46.0639L42.9797 133.072H42.8945L39.805 142ZM40.098 137.728H45.7656V139.113H40.098V137.728ZM52.4134 131.091V142H50.7621V132.742H50.6982L48.0881 134.447V132.87L50.8101 131.091H52.4134Z" fill="black"/>
<rect x="74.5" y="106.5" width="43" height="43" fill="#6B6B6B" stroke="#4A4A4A" stroke-width="3"/>
<path d="M84.8231 124H81.2915V113.091H84.9349C86.0038 113.091 86.9218 113.309 87.6888 113.746C88.4559 114.179 89.0436 114.803 89.452 115.616C89.8639 116.425 90.0699 117.397 90.0699 118.529C90.0699 119.666 89.8621 120.642 89.4467 121.459C89.0347 122.276 88.4381 122.904 87.6569 123.345C86.8756 123.782 85.931 124 84.8231 124ZM82.9374 122.562H84.7325C85.5635 122.562 86.2542 122.406 86.8046 122.093C87.355 121.777 87.767 121.321 88.0404 120.724C88.3138 120.124 88.4506 119.392 88.4506 118.529C88.4506 117.674 88.3138 116.947 88.0404 116.351C87.7705 115.754 87.3675 115.301 86.8313 114.993C86.295 114.684 85.6292 114.529 84.8337 114.529H82.9374V122.562ZM91.6667 124V113.091H98.5062V114.508H93.3126V117.832H98.1493V119.243H93.3126V122.583H98.5701V124H91.6667ZM101.208 113.091L104.244 121.976H104.367L107.403 113.091H109.182L105.257 124H103.355L99.4291 113.091H101.208ZM109.779 124.101C109.488 124.101 109.237 123.998 109.028 123.792C108.818 123.583 108.714 123.331 108.714 123.036C108.714 122.745 108.818 122.496 109.028 122.29C109.237 122.081 109.488 121.976 109.779 121.976C110.07 121.976 110.321 122.081 110.53 122.29C110.74 122.496 110.844 122.745 110.844 123.036C110.844 123.231 110.795 123.411 110.695 123.574C110.599 123.734 110.471 123.862 110.312 123.957C110.152 124.053 109.974 124.101 109.779 124.101ZM88.494 142H86.7468L90.6726 131.091H92.5742L96.5 142H94.7528L91.6687 133.072H91.5834L88.494 142ZM88.7869 137.728H94.4545V139.113H88.7869V137.728ZM97.4762 142V140.807L101.168 136.982C101.562 136.567 101.887 136.203 102.142 135.89C102.402 135.574 102.595 135.274 102.723 134.99C102.851 134.706 102.915 134.404 102.915 134.085C102.915 133.722 102.83 133.41 102.659 133.147C102.489 132.881 102.256 132.676 101.961 132.534C101.667 132.389 101.335 132.316 100.965 132.316C100.575 132.316 100.234 132.396 99.9425 132.556C99.6513 132.716 99.4276 132.941 99.2713 133.232C99.1151 133.523 99.0369 133.864 99.0369 134.255H97.4656C97.4656 133.591 97.6183 133.01 97.9237 132.513C98.2291 132.016 98.6481 131.631 99.1808 131.357C99.7134 131.08 100.319 130.942 100.997 130.942C101.683 130.942 102.286 131.078 102.808 131.352C103.334 131.622 103.744 131.991 104.039 132.46C104.333 132.925 104.481 133.451 104.481 134.037C104.481 134.441 104.404 134.837 104.252 135.224C104.103 135.612 103.842 136.043 103.469 136.519C103.096 136.991 102.577 137.565 101.913 138.239L99.7454 140.509V140.588H104.657V142H97.4762Z" fill="black"/>
<rect x="24.5" y="156.5" width="43" height="43" fill="#6B6B6B" stroke="#4A4A4A" stroke-width="3"/>
<path d="M37.5976 175.537C37.4946 175.214 37.3562 174.925 37.1821 174.669C37.0117 174.41 36.8075 174.19 36.5696 174.009C36.3316 173.824 36.06 173.684 35.7546 173.588C35.4527 173.492 35.1207 173.444 34.7585 173.444C34.1441 173.444 33.5902 173.602 33.0966 173.918C32.603 174.234 32.2123 174.697 31.9247 175.308C31.6406 175.915 31.4986 176.659 31.4986 177.54C31.4986 178.424 31.6424 179.172 31.93 179.783C32.2177 180.393 32.6118 180.857 33.1125 181.173C33.6133 181.489 34.1832 181.647 34.8224 181.647C35.4155 181.647 35.9321 181.526 36.3725 181.285C36.8164 181.043 37.1591 180.702 37.4005 180.262C37.6456 179.818 37.7681 179.296 37.7681 178.696L38.1942 178.776H35.0728V177.418H39.3608V178.659C39.3608 179.575 39.1655 180.37 38.7748 181.045C38.3878 181.716 37.8515 182.235 37.1662 182.6C36.4843 182.966 35.7031 183.149 34.8224 183.149C33.8352 183.149 32.9687 182.922 32.223 182.467C31.4808 182.013 30.902 181.368 30.4865 180.534C30.071 179.696 29.8633 178.701 29.8633 177.551C29.8633 176.681 29.984 175.9 30.2255 175.207C30.4669 174.515 30.8061 173.927 31.2429 173.444C31.6832 172.957 32.1999 172.586 32.7929 172.331C33.3895 172.071 34.0412 171.942 34.7478 171.942C35.3373 171.942 35.886 172.029 36.3938 172.203C36.9052 172.377 37.3597 172.624 37.7574 172.943C38.1587 173.263 38.4907 173.643 38.7535 174.083C39.0163 174.52 39.1939 175.005 39.2862 175.537H37.5976ZM41.5848 183H39.8376L43.7634 172.091H45.665L49.5908 183H47.8437L44.7595 174.072H44.6743L41.5848 183ZM41.8777 178.728H47.5454V180.113H41.8777V178.728ZM50.7162 183V172.091H54.6047C55.4498 172.091 56.1512 172.237 56.7087 172.528C57.2698 172.819 57.6888 173.222 57.9658 173.737C58.2428 174.248 58.3813 174.839 58.3813 175.511C58.3813 176.178 58.241 176.766 57.9605 177.274C57.6835 177.778 57.2645 178.17 56.7034 178.451C56.1459 178.732 55.4445 178.872 54.5994 178.872H51.6537V177.455H54.4502C54.9829 177.455 55.4161 177.379 55.7499 177.226C56.0873 177.073 56.3341 176.851 56.4903 176.56C56.6466 176.269 56.7247 175.919 56.7247 175.511C56.7247 175.099 56.6448 174.742 56.485 174.44C56.3288 174.138 56.082 173.907 55.7446 173.748C55.4108 173.584 54.9722 173.502 54.4289 173.502H52.3621V183H50.7162ZM56.1015 178.078L58.7968 183H56.9218L54.2797 178.078H56.1015ZM60.8557 183.101C60.5645 183.101 60.3141 182.998 60.1046 182.792C59.8951 182.583 59.7903 182.331 59.7903 182.036C59.7903 181.745 59.8951 181.496 60.1046 181.29C60.3141 181.081 60.5645 180.976 60.8557 180.976C61.1469 180.976 61.3972 181.081 61.6067 181.29C61.8163 181.496 61.921 181.745 61.921 182.036C61.921 182.231 61.8713 182.411 61.7719 182.574C61.676 182.734 61.5481 182.862 61.3883 182.957C61.2285 183.053 61.051 183.101 60.8557 183.101Z" fill="black"/>
<rect x="24.5" y="206.5" width="43" height="43" fill="#6B6B6B" stroke="#4A4A4A" stroke-width="3"/>
<path d="M30.3353 222.091V233H28.6893V222.091H30.3353ZM41.0873 222.091V233H39.5746L34.0295 224.999H33.9282V233H32.2823V222.091H33.8057L39.3562 230.102H39.4574V222.091H41.0873ZM48.9883 224.957C48.9315 224.452 48.6971 224.062 48.2852 223.785C47.8732 223.504 47.3548 223.364 46.7298 223.364C46.2823 223.364 45.8952 223.435 45.5685 223.577C45.2418 223.716 44.9879 223.907 44.8068 224.152C44.6293 224.394 44.5405 224.669 44.5405 224.978C44.5405 225.237 44.6009 225.461 44.7216 225.649C44.8459 225.837 45.0075 225.995 45.2063 226.123C45.4087 226.248 45.6254 226.352 45.8562 226.438C46.087 226.519 46.3089 226.587 46.522 226.64L47.5874 226.917C47.9354 227.002 48.2923 227.118 48.658 227.263C49.0238 227.409 49.3629 227.6 49.6754 227.838C49.9879 228.076 50.2401 228.371 50.4318 228.723C50.6271 229.074 50.7248 229.495 50.7248 229.985C50.7248 230.603 50.565 231.152 50.2454 231.631C49.9293 232.11 49.4695 232.489 48.8658 232.766C48.2656 233.043 47.5394 233.181 46.6871 233.181C45.8704 233.181 45.1637 233.051 44.5671 232.792C43.9705 232.533 43.5036 232.165 43.1662 231.69C42.8288 231.21 42.6424 230.642 42.6069 229.985H44.2582C44.2901 230.379 44.418 230.708 44.6417 230.971C44.869 231.23 45.1584 231.423 45.5099 231.551C45.8651 231.675 46.2539 231.738 46.6765 231.738C47.1417 231.738 47.5554 231.665 47.9176 231.519C48.2834 231.37 48.571 231.164 48.7805 230.901C48.9901 230.635 49.0948 230.324 49.0948 229.969C49.0948 229.646 49.0025 229.381 48.8178 229.175C48.6367 228.969 48.3899 228.799 48.0774 228.664C47.7685 228.529 47.4187 228.41 47.0281 228.307L45.739 227.956C44.8654 227.718 44.1729 227.368 43.6616 226.906C43.1538 226.445 42.8999 225.834 42.8999 225.074C42.8999 224.445 43.0703 223.897 43.4112 223.428C43.7521 222.959 44.2138 222.595 44.7962 222.336C45.3786 222.073 46.0355 221.942 46.767 221.942C47.5057 221.942 48.1573 222.071 48.7219 222.331C49.2901 222.59 49.7376 222.947 50.0643 223.401C50.391 223.852 50.5614 224.371 50.5756 224.957H48.9883ZM52.2417 233V222.091H56.1302C56.9753 222.091 57.6767 222.237 58.2342 222.528C58.7953 222.819 59.2143 223.222 59.4913 223.737C59.7683 224.248 59.9068 224.839 59.9068 225.511C59.9068 226.178 59.7665 226.766 59.486 227.274C59.209 227.778 58.79 228.17 58.2289 228.451C57.6714 228.732 56.97 228.872 56.1248 228.872H53.1792V227.455H55.9757C56.5084 227.455 56.9416 227.379 57.2754 227.226C57.6128 227.073 57.8596 226.851 58.0158 226.56C58.1721 226.269 58.2502 225.919 58.2502 225.511C58.2502 225.099 58.1703 224.742 58.0105 224.44C57.8542 224.138 57.6074 223.907 57.2701 223.748C56.9363 223.584 56.4977 223.502 55.9544 223.502H53.8876V233H52.2417ZM57.627 228.078L60.3223 233H58.4473L55.8052 228.078H57.627ZM62.3812 233.101C62.09 233.101 61.8396 232.998 61.6301 232.792C61.4206 232.583 61.3158 232.331 61.3158 232.036C61.3158 231.745 61.4206 231.496 61.6301 231.29C61.8396 231.081 62.09 230.976 62.3812 230.976C62.6724 230.976 62.9227 231.081 63.1322 231.29C63.3417 231.496 63.4465 231.745 63.4465 232.036C63.4465 232.231 63.3968 232.411 63.2974 232.574C63.2015 232.734 63.0736 232.862 62.9138 232.957C62.754 233.053 62.5765 233.101 62.3812 233.101Z" fill="black"/>
<g filter="url(#filter1_i_655_8)">
<rect x="23" y="271" width="46" height="46" fill="#66D264"/>
</g>
<rect x="24.5" y="272.5" width="43" height="43" stroke="#4A4A4A" stroke-width="3"/>
<path d="M28.8255 299H27.1948L30.8589 288.818H32.6337L36.2978 299H34.6671L31.7886 290.668H31.709L28.8255 299ZM29.0989 295.013H34.3887V296.305H29.0989V295.013ZM43.8957 288.818H45.4369V295.515C45.4369 296.228 45.2695 296.859 44.9348 297.409C44.6 297.956 44.1294 298.387 43.5229 298.702C42.9163 299.013 42.2054 299.169 41.39 299.169C40.578 299.169 39.8687 299.013 39.2622 298.702C38.6557 298.387 38.185 297.956 37.8503 297.409C37.5155 296.859 37.3481 296.228 37.3481 295.515V288.818H38.8844V295.391C38.8844 295.851 38.9854 296.261 39.1876 296.619C39.3931 296.977 39.6831 297.258 40.0577 297.464C40.4322 297.666 40.8763 297.767 41.39 297.767C41.9071 297.767 42.3529 297.666 42.7274 297.464C43.1052 297.258 43.3936 296.977 43.5925 296.619C43.7946 296.261 43.8957 295.851 43.8957 295.391V288.818ZM46.7483 290.141V288.818H54.6282V290.141H51.4514V299H49.9201V290.141H46.7483ZM64.3565 293.909C64.3565 294.996 64.1576 295.931 63.7599 296.713C63.3622 297.492 62.817 298.092 62.1243 298.513C61.4349 298.93 60.651 299.139 59.7727 299.139C58.8911 299.139 58.1039 298.93 57.4112 298.513C56.7218 298.092 56.1782 297.49 55.7805 296.708C55.3828 295.926 55.1839 294.993 55.1839 293.909C55.1839 292.822 55.3828 291.889 55.7805 291.11C56.1782 290.328 56.7218 289.728 57.4112 289.31C58.1039 288.889 58.8911 288.679 59.7727 288.679C60.651 288.679 61.4349 288.889 62.1243 289.31C62.817 289.728 63.3622 290.328 63.7599 291.11C64.1576 291.889 64.3565 292.822 64.3565 293.909ZM62.8352 293.909C62.8352 293.08 62.701 292.383 62.4325 291.816C62.1673 291.246 61.8028 290.815 61.3387 290.523C60.878 290.228 60.356 290.081 59.7727 290.081C59.1861 290.081 58.6624 290.228 58.2017 290.523C57.741 290.815 57.3764 291.246 57.1079 291.816C56.8428 292.383 56.7102 293.08 56.7102 293.909C56.7102 294.738 56.8428 295.437 57.1079 296.007C57.3764 296.574 57.741 297.005 58.2017 297.3C58.6624 297.591 59.1861 297.737 59.7727 297.737C60.356 297.737 60.878 297.591 61.3387 297.3C61.8028 297.005 62.1673 296.574 62.4325 296.007C62.701 295.437 62.8352 294.738 62.8352 293.909Z" fill="black"/>
<defs>
<filter id="filter0_i_655_8" x="23" y="55" width="46" height="46" filterUnits="userSpaceOnUse" color-interpolation-filters="sRGB">
<feFlood flood-opacity="0" result="BackgroundImageFix"/>
<feBlend mode="normal" in="SourceGraphic" in2="BackgroundImageFix" result="shape"/>
<feColorMatrix in="SourceAlpha" type="matrix" values="0 0 0 0 0 0 0 0 0 0 0 0 0 0 0 0 0 0 127 0" result="hardAlpha"/>
<feMorphology radius="7" operator="erode" in="SourceAlpha" result="effect1_innerShadow_655_8"/>
<feOffset/>
<feGaussianBlur stdDeviation="1.5"/>
<feComposite in2="hardAlpha" operator="arithmetic" k2="-1" k3="1"/>
<feColorMatrix type="matrix" values="0 0 0 0 1 0 0 0 0 1 0 0 0 0 1 0 0 0 0.35 0"/>
<feBlend mode="normal" in2="shape" result="effect1_innerShadow_655_8"/>
</filter>
<filter id="filter1_i_655_8" x="23" y="271" width="46" height="46" filterUnits="userSpaceOnUse" color-interpolation-filters="sRGB">
<feFlood flood-opacity="0" result="BackgroundImageFix"/>
<feBlend mode="normal" in="SourceGraphic" in2="BackgroundImageFix" result="shape"/>
<feColorMatrix in="SourceAlpha" type="matrix" values="0 0 0 0 0 0 0 0 0 0 0 0 0 0 0 0 0 0 127 0" result="hardAlpha"/>
<feMorphology radius="7" operator="erode" in="SourceAlpha" result="effect1_innerShadow_655_8"/>
<feOffset/>
<feGaussianBlur stdDeviation="1.5"/>
<feComposite in2="hardAlpha" operator="arithmetic" k2="-1" k3="1"/>
<feColorMatrix type="matrix" values="0 0 0 0 1 0 0 0 0 1 0 0 0 0 1 0 0 0 0.37 0"/>
<feBlend mode="normal" in2="shape" result="effect1_innerShadow_655_8"/>
</filter>
</defs>
</svg>
