<svg width="421" height="288" viewBox="0 0 421 288" fill="none" xmlns="http://www.w3.org/2000/svg">
<rect x="168" y="39" width="112" height="30" fill="#CDCDCD"/>
<rect x="283" y="39" width="112" height="30" fill="#CDCDCD"/>
<rect x="168" y="219" width="112" height="30" fill="#CDCDCD"/>
<rect x="283" y="219" width="112" height="30" fill="#CDCDCD"/>
<path d="M53 46H165V62H53V46Z" fill="#148FB6"/>
<path d="M53 226H165V242H53V226Z" fill="#148FB6"/>
<rect x="83" y="39" width="52" height="30" fill="#CDCDCD"/>
<rect x="83" y="219" width="52" height="30" fill="#CDCDCD"/>
<path d="M200.21 61V59.5682L204.64 54.9787C205.113 54.4801 205.503 54.0433 205.81 53.6683C206.121 53.2891 206.353 52.929 206.507 52.5881C206.66 52.2472 206.737 51.8849 206.737 51.5014C206.737 51.0668 206.634 50.6918 206.43 50.3764C206.225 50.0568 205.946 49.8118 205.593 49.6413C205.239 49.4666 204.84 49.3793 204.397 49.3793C203.928 49.3793 203.519 49.4751 203.17 49.6669C202.82 49.8587 202.552 50.1293 202.365 50.4787C202.177 50.8281 202.083 51.2372 202.083 51.706H200.198C200.198 50.9091 200.381 50.2124 200.747 49.6158C201.114 49.0192 201.617 48.5568 202.256 48.2287C202.895 47.8963 203.622 47.7301 204.436 47.7301C205.258 47.7301 205.982 47.8942 206.609 48.2223C207.24 48.5462 207.732 48.9893 208.085 49.5518C208.439 50.1101 208.616 50.7408 208.616 51.4439C208.616 51.9297 208.524 52.4048 208.341 52.8693C208.162 53.3338 207.849 53.8516 207.401 54.4226C206.954 54.9893 206.332 55.6776 205.535 56.4872L202.933 59.2102V59.3061H208.827V61H200.21ZM211.249 61V59.5682L215.679 54.9787C216.152 54.4801 216.542 54.0433 216.849 53.6683C217.16 53.2891 217.392 52.929 217.546 52.5881C217.699 52.2472 217.776 51.8849 217.776 51.5014C217.776 51.0668 217.673 50.6918 217.469 50.3764C217.264 50.0568 216.985 49.8118 216.632 49.6413C216.278 49.4666 215.879 49.3793 215.436 49.3793C214.968 49.3793 214.558 49.4751 214.209 49.6669C213.86 49.8587 213.591 50.1293 213.404 50.4787C213.216 50.8281 213.122 51.2372 213.122 51.706H211.237C211.237 50.9091 211.42 50.2124 211.786 49.6158C212.153 49.0192 212.656 48.5568 213.295 48.2287C213.934 47.8963 214.661 47.7301 215.475 47.7301C216.297 47.7301 217.021 47.8942 217.648 48.2223C218.279 48.5462 218.771 48.9893 219.124 49.5518C219.478 50.1101 219.655 50.7408 219.655 51.4439C219.655 51.9297 219.563 52.4048 219.38 52.8693C219.201 53.3338 218.888 53.8516 218.441 54.4226C217.993 54.9893 217.371 55.6776 216.574 56.4872L213.972 59.2102V59.3061H219.866V61H211.249ZM223.573 61.1214C223.224 61.1214 222.923 60.9979 222.672 60.7507C222.421 60.4993 222.295 60.1967 222.295 59.843C222.295 59.4936 222.421 59.1953 222.672 58.9482C222.923 58.6967 223.224 58.571 223.573 58.571C223.923 58.571 224.223 58.6967 224.475 58.9482C224.726 59.1953 224.852 59.4936 224.852 59.843C224.852 60.0774 224.792 60.2926 224.673 60.4886C224.558 60.6804 224.404 60.8338 224.213 60.9489C224.021 61.0639 223.808 61.1214 223.573 61.1214ZM231.469 61.2173C230.459 61.2131 229.596 60.9467 228.88 60.4183C228.164 59.8899 227.617 59.1207 227.238 58.1108C226.858 57.1009 226.669 55.8842 226.669 54.4609C226.669 53.0419 226.858 51.8295 227.238 50.8239C227.621 49.8182 228.171 49.0511 228.887 48.5227C229.607 47.9943 230.468 47.7301 231.469 47.7301C232.471 47.7301 233.329 47.9964 234.045 48.5291C234.761 49.0575 235.309 49.8246 235.688 50.8303C236.071 51.8317 236.263 53.0419 236.263 54.4609C236.263 55.8885 236.074 57.1072 235.694 58.1172C235.315 59.1229 234.767 59.892 234.051 60.4247C233.336 60.9531 232.475 61.2173 231.469 61.2173ZM231.469 59.5107C232.355 59.5107 233.048 59.0781 233.547 58.2131C234.049 57.348 234.301 56.0973 234.301 54.4609C234.301 53.3743 234.186 52.456 233.956 51.706C233.73 50.9517 233.404 50.3807 232.978 49.9929C232.556 49.6009 232.053 49.4048 231.469 49.4048C230.587 49.4048 229.895 49.8395 229.392 50.7088C228.889 51.5781 228.635 52.8288 228.631 54.4609C228.631 55.5518 228.744 56.4744 228.97 57.2287C229.2 57.9787 229.526 58.5476 229.948 58.9354C230.37 59.3189 230.877 59.5107 231.469 59.5107ZM238.256 58.4432V56.8452L243.913 47.9091H245.172V50.2614H244.373L240.327 56.6662V56.7685H248.08V58.4432H238.256ZM244.463 61V57.9574L244.475 57.2287V47.9091H246.348V61H244.463Z" fill="#424242"/>
<path d="M316.854 61V59.5682L321.284 54.9787C321.757 54.4801 322.147 54.0433 322.453 53.6683C322.764 53.2891 322.997 52.929 323.15 52.5881C323.304 52.2472 323.38 51.8849 323.38 51.5014C323.38 51.0668 323.278 50.6918 323.073 50.3764C322.869 50.0568 322.59 49.8118 322.236 49.6413C321.882 49.4666 321.484 49.3793 321.041 49.3793C320.572 49.3793 320.163 49.4751 319.813 49.6669C319.464 49.8587 319.196 50.1293 319.008 50.4787C318.821 50.8281 318.727 51.2372 318.727 51.706H316.841C316.841 50.9091 317.024 50.2124 317.391 49.6158C317.757 49.0192 318.26 48.5568 318.899 48.2287C319.539 47.8963 320.265 47.7301 321.079 47.7301C321.902 47.7301 322.626 47.8942 323.252 48.2223C323.883 48.5462 324.375 48.9893 324.729 49.5518C325.083 50.1101 325.259 50.7408 325.259 51.4439C325.259 51.9297 325.168 52.4048 324.985 52.8693C324.806 53.3338 324.492 53.8516 324.045 54.4226C323.598 54.9893 322.975 55.6776 322.179 56.4872L319.577 59.2102V59.3061H325.47V61H316.854ZM332.86 47.9091V61H330.878V49.8906H330.801L327.669 51.9361V50.044L330.936 47.9091H332.86ZM336.93 61.1214C336.58 61.1214 336.28 60.9979 336.028 60.7507C335.777 60.4993 335.651 60.1967 335.651 59.843C335.651 59.4936 335.777 59.1953 336.028 58.9482C336.28 58.6967 336.58 58.571 336.93 58.571C337.279 58.571 337.58 58.6967 337.831 58.9482C338.082 59.1953 338.208 59.4936 338.208 59.843C338.208 60.0774 338.149 60.2926 338.029 60.4886C337.914 60.6804 337.761 60.8338 337.569 60.9489C337.377 61.0639 337.164 61.1214 336.93 61.1214ZM344.826 61.2173C343.816 61.2131 342.953 60.9467 342.237 60.4183C341.521 59.8899 340.973 59.1207 340.594 58.1108C340.215 57.1009 340.025 55.8842 340.025 54.4609C340.025 53.0419 340.215 51.8295 340.594 50.8239C340.978 49.8182 341.527 49.0511 342.243 48.5227C342.963 47.9943 343.824 47.7301 344.826 47.7301C345.827 47.7301 346.686 47.9964 347.402 48.5291C348.117 49.0575 348.665 49.8246 349.044 50.8303C349.428 51.8317 349.62 53.0419 349.62 54.4609C349.62 55.8885 349.43 57.1072 349.051 58.1172C348.671 59.1229 348.124 59.892 347.408 60.4247C346.692 60.9531 345.831 61.2173 344.826 61.2173ZM344.826 59.5107C345.712 59.5107 346.404 59.0781 346.903 58.2131C347.406 57.348 347.657 56.0973 347.657 54.4609C347.657 53.3743 347.542 52.456 347.312 51.706C347.086 50.9517 346.76 50.3807 346.334 49.9929C345.912 49.6009 345.409 49.4048 344.826 49.4048C343.943 49.4048 343.251 49.8395 342.748 50.7088C342.245 51.5781 341.992 52.8288 341.987 54.4609C341.987 55.5518 342.1 56.4744 342.326 57.2287C342.556 57.9787 342.882 58.5476 343.304 58.9354C343.726 59.3189 344.233 59.5107 344.826 59.5107ZM351.612 58.4432V56.8452L357.269 47.9091H358.528V50.2614H357.729L353.683 56.6662V56.7685H361.437V58.4432H351.612ZM357.819 61V57.9574L357.832 57.2287V47.9091H359.705V61H357.819Z" fill="#424242"/>
<path d="M206.443 227.909V241H204.461V229.891H204.384L201.252 231.936V230.044L204.519 227.909H206.443ZM209.984 241V239.568L214.414 234.979C214.887 234.48 215.276 234.043 215.583 233.668C215.894 233.289 216.127 232.929 216.28 232.588C216.433 232.247 216.51 231.885 216.51 231.501C216.51 231.067 216.408 230.692 216.203 230.376C215.999 230.057 215.72 229.812 215.366 229.641C215.012 229.467 214.614 229.379 214.171 229.379C213.702 229.379 213.293 229.475 212.943 229.667C212.594 229.859 212.325 230.129 212.138 230.479C211.95 230.828 211.857 231.237 211.857 231.706H209.971C209.971 230.909 210.154 230.212 210.521 229.616C210.887 229.019 211.39 228.557 212.029 228.229C212.669 227.896 213.395 227.73 214.209 227.73C215.031 227.73 215.756 227.894 216.382 228.222C217.013 228.546 217.505 228.989 217.859 229.552C218.213 230.11 218.389 230.741 218.389 231.444C218.389 231.93 218.298 232.405 218.115 232.869C217.936 233.334 217.622 233.852 217.175 234.423C216.727 234.989 216.105 235.678 215.308 236.487L212.707 239.21V239.306H218.6V241H209.984ZM222.308 241.121C221.958 241.121 221.658 240.998 221.406 240.751C221.155 240.499 221.029 240.197 221.029 239.843C221.029 239.494 221.155 239.195 221.406 238.948C221.658 238.697 221.958 238.571 222.308 238.571C222.657 238.571 222.958 238.697 223.209 238.948C223.46 239.195 223.586 239.494 223.586 239.843C223.586 240.077 223.526 240.293 223.407 240.489C223.292 240.68 223.139 240.834 222.947 240.949C222.755 241.064 222.542 241.121 222.308 241.121ZM230.203 241.217C229.194 241.213 228.331 240.947 227.615 240.418C226.899 239.89 226.351 239.121 225.972 238.111C225.593 237.101 225.403 235.884 225.403 234.461C225.403 233.042 225.593 231.83 225.972 230.824C226.355 229.818 226.905 229.051 227.621 228.523C228.341 227.994 229.202 227.73 230.203 227.73C231.205 227.73 232.064 227.996 232.779 228.529C233.495 229.058 234.043 229.825 234.422 230.83C234.806 231.832 234.998 233.042 234.998 234.461C234.998 235.888 234.808 237.107 234.429 238.117C234.049 239.123 233.502 239.892 232.786 240.425C232.07 240.953 231.209 241.217 230.203 241.217ZM230.203 239.511C231.09 239.511 231.782 239.078 232.281 238.213C232.784 237.348 233.035 236.097 233.035 234.461C233.035 233.374 232.92 232.456 232.69 231.706C232.464 230.952 232.138 230.381 231.712 229.993C231.29 229.601 230.787 229.405 230.203 229.405C229.321 229.405 228.629 229.839 228.126 230.709C227.623 231.578 227.37 232.829 227.365 234.461C227.365 235.552 227.478 236.474 227.704 237.229C227.934 237.979 228.26 238.548 228.682 238.935C229.104 239.319 229.611 239.511 230.203 239.511ZM236.99 238.443V236.845L242.647 227.909H243.906V230.261H243.107L239.061 236.666V236.768H246.815V238.443H236.99ZM243.197 241V237.957L243.21 237.229V227.909H245.083V241H243.197Z" fill="#424242"/>
<path d="M321.355 227.909V241H319.373V229.891H319.297L316.164 231.936V230.044L319.431 227.909H321.355ZM329.453 241.179C328.576 241.179 327.792 241.028 327.101 240.725C326.415 240.423 325.872 240.003 325.471 239.466C325.075 238.925 324.862 238.298 324.832 237.587H326.839C326.865 237.974 326.995 238.311 327.229 238.597C327.468 238.878 327.779 239.095 328.162 239.249C328.546 239.402 328.972 239.479 329.441 239.479C329.956 239.479 330.412 239.389 330.809 239.21C331.209 239.031 331.522 238.782 331.748 238.462C331.974 238.138 332.087 237.766 332.087 237.344C332.087 236.905 331.974 236.519 331.748 236.187C331.527 235.85 331.201 235.586 330.77 235.394C330.344 235.202 329.828 235.107 329.223 235.107H328.118V233.496H329.223C329.709 233.496 330.135 233.408 330.502 233.234C330.873 233.059 331.162 232.816 331.371 232.505C331.58 232.19 331.684 231.821 331.684 231.399C331.684 230.994 331.593 230.643 331.409 230.344C331.23 230.042 330.975 229.805 330.642 229.635C330.314 229.464 329.926 229.379 329.479 229.379C329.053 229.379 328.654 229.458 328.284 229.616C327.917 229.769 327.619 229.991 327.389 230.281C327.159 230.566 327.035 230.909 327.018 231.31H325.107C325.128 230.602 325.337 229.98 325.733 229.443C326.134 228.906 326.662 228.487 327.319 228.184C327.975 227.881 328.703 227.73 329.505 227.73C330.344 227.73 331.069 227.894 331.678 228.222C332.292 228.546 332.765 228.979 333.097 229.52C333.434 230.061 333.6 230.653 333.596 231.297C333.6 232.03 333.395 232.652 332.982 233.163C332.573 233.675 332.027 234.018 331.346 234.192V234.295C332.215 234.427 332.888 234.772 333.365 235.33C333.847 235.888 334.086 236.581 334.081 237.408C334.086 238.128 333.885 238.773 333.48 239.344C333.08 239.915 332.532 240.365 331.838 240.693C331.143 241.017 330.348 241.179 329.453 241.179ZM337.396 241.121C337.046 241.121 336.746 240.998 336.494 240.751C336.243 240.499 336.117 240.197 336.117 239.843C336.117 239.494 336.243 239.195 336.494 238.948C336.746 238.697 337.046 238.571 337.396 238.571C337.745 238.571 338.045 238.697 338.297 238.948C338.548 239.195 338.674 239.494 338.674 239.843C338.674 240.077 338.614 240.293 338.495 240.489C338.38 240.68 338.227 240.834 338.035 240.949C337.843 241.064 337.63 241.121 337.396 241.121ZM345.291 241.217C344.281 241.213 343.419 240.947 342.703 240.418C341.987 239.89 341.439 239.121 341.06 238.111C340.681 237.101 340.491 235.884 340.491 234.461C340.491 233.042 340.681 231.83 341.06 230.824C341.443 229.818 341.993 229.051 342.709 228.523C343.429 227.994 344.29 227.73 345.291 227.73C346.293 227.73 347.151 227.996 347.867 228.529C348.583 229.058 349.131 229.825 349.51 230.83C349.894 231.832 350.085 233.042 350.085 234.461C350.085 235.888 349.896 237.107 349.517 238.117C349.137 239.123 348.59 239.892 347.874 240.425C347.158 240.953 346.297 241.217 345.291 241.217ZM345.291 239.511C346.178 239.511 346.87 239.078 347.369 238.213C347.872 237.348 348.123 236.097 348.123 234.461C348.123 233.374 348.008 232.456 347.778 231.706C347.552 230.952 347.226 230.381 346.8 229.993C346.378 229.601 345.875 229.405 345.291 229.405C344.409 229.405 343.717 229.839 343.214 230.709C342.711 231.578 342.458 232.829 342.453 234.461C342.453 235.552 342.566 236.474 342.792 237.229C343.022 237.979 343.348 238.548 343.77 238.935C344.192 239.319 344.699 239.511 345.291 239.511ZM352.078 238.443V236.845L357.735 227.909H358.994V230.261H358.195L354.149 236.666V236.768H361.903V238.443H352.078ZM358.285 241V237.957L358.298 237.229V227.909H360.17V241H358.285Z" fill="#424242"/>
<path d="M85.1225 61V59.5682L89.5522 54.9787C90.0252 54.4801 90.4151 54.0433 90.7219 53.6683C91.033 53.2891 91.2653 52.929 91.4187 52.5881C91.5721 52.2472 91.6488 51.8849 91.6488 51.5014C91.6488 51.0668 91.5465 50.6918 91.342 50.3764C91.1374 50.0568 90.8583 49.8118 90.5046 49.6413C90.1509 49.4666 89.7525 49.3793 89.3093 49.3793C88.8406 49.3793 88.4315 49.4751 88.082 49.6669C87.7326 49.8587 87.4641 50.1293 87.2766 50.4787C87.0891 50.8281 86.9954 51.2372 86.9954 51.706H85.1097C85.1097 50.9091 85.293 50.2124 85.6594 49.6158C86.0259 49.0192 86.5288 48.5568 87.168 48.2287C87.8072 47.8963 88.5337 47.7301 89.3477 47.7301C90.1701 47.7301 90.8945 47.8942 91.521 48.2223C92.1516 48.5462 92.6438 48.9893 92.9975 49.5518C93.3512 50.1101 93.5281 50.7408 93.5281 51.4439C93.5281 51.9297 93.4364 52.4048 93.2532 52.8693C93.0742 53.3338 92.761 53.8516 92.3136 54.4226C91.8661 54.9893 91.244 55.6776 90.4471 56.4872L87.8455 59.2102V59.3061H93.739V61H85.1225ZM100.719 61.179C99.8413 61.179 99.0572 61.0277 98.3668 60.7251C97.6808 60.4226 97.1374 60.0028 96.7369 59.4659C96.3406 58.9247 96.1275 58.2983 96.0977 57.5866H98.1048C98.1303 57.9744 98.2603 58.3111 98.4947 58.5966C98.7333 58.8778 99.0444 59.0952 99.4279 59.2486C99.8114 59.402 100.238 59.4787 100.706 59.4787C101.222 59.4787 101.678 59.3892 102.074 59.2102C102.475 59.0312 102.788 58.782 103.014 58.4624C103.24 58.1385 103.353 57.7656 103.353 57.3438C103.353 56.9048 103.24 56.5192 103.014 56.1868C102.792 55.8501 102.466 55.5859 102.036 55.3942C101.61 55.2024 101.094 55.1065 100.489 55.1065H99.3832V53.4957H100.489C100.975 53.4957 101.401 53.4084 101.767 53.2337C102.138 53.0589 102.428 52.8161 102.637 52.505C102.846 52.1896 102.95 51.821 102.95 51.3991C102.95 50.9943 102.858 50.6428 102.675 50.3445C102.496 50.0419 102.24 49.8054 101.908 49.6349C101.58 49.4645 101.192 49.3793 100.745 49.3793C100.319 49.3793 99.9201 49.4581 99.5494 49.6158C99.1829 49.7692 98.8846 49.9908 98.6545 50.2805C98.4244 50.5661 98.3008 50.9091 98.2837 51.3097H96.3725C96.3938 50.6023 96.6026 49.9801 96.9989 49.4432C97.3995 48.9062 97.9279 48.4865 98.5842 48.1839C99.2404 47.8814 99.9691 47.7301 100.77 47.7301C101.61 47.7301 102.334 47.8942 102.944 48.2223C103.557 48.5462 104.03 48.9787 104.363 49.5199C104.699 50.0611 104.865 50.6534 104.861 51.2969C104.865 52.0298 104.661 52.652 104.248 53.1634C103.838 53.6747 103.293 54.0178 102.611 54.1925V54.2947C103.48 54.4268 104.154 54.772 104.631 55.3303C105.113 55.8885 105.351 56.581 105.347 57.4077C105.351 58.1278 105.151 58.7734 104.746 59.3445C104.346 59.9155 103.798 60.3651 103.103 60.6932C102.409 61.017 101.614 61.179 100.719 61.179ZM108.661 61.1214C108.312 61.1214 108.011 60.9979 107.76 60.7507C107.509 60.4993 107.383 60.1967 107.383 59.843C107.383 59.4936 107.509 59.1953 107.76 58.9482C108.011 58.6967 108.312 58.571 108.661 58.571C109.011 58.571 109.311 58.6967 109.562 58.9482C109.814 59.1953 109.94 59.4936 109.94 59.843C109.94 60.0774 109.88 60.2926 109.761 60.4886C109.646 60.6804 109.492 60.8338 109.3 60.9489C109.109 61.0639 108.896 61.1214 108.661 61.1214ZM116.557 61.2173C115.547 61.2131 114.684 60.9467 113.968 60.4183C113.252 59.8899 112.705 59.1207 112.325 58.1108C111.946 57.1009 111.757 55.8842 111.757 54.4609C111.757 53.0419 111.946 51.8295 112.325 50.8239C112.709 49.8182 113.259 49.0511 113.975 48.5227C114.695 47.9943 115.556 47.7301 116.557 47.7301C117.558 47.7301 118.417 47.9964 119.133 48.5291C119.849 49.0575 120.396 49.8246 120.776 50.8303C121.159 51.8317 121.351 53.0419 121.351 54.4609C121.351 55.8885 121.161 57.1072 120.782 58.1172C120.403 59.1229 119.855 59.892 119.139 60.4247C118.423 60.9531 117.563 61.2173 116.557 61.2173ZM116.557 59.5107C117.443 59.5107 118.136 59.0781 118.634 58.2131C119.137 57.348 119.389 56.0973 119.389 54.4609C119.389 53.3743 119.274 52.456 119.044 51.706C118.818 50.9517 118.492 50.3807 118.066 49.9929C117.644 49.6009 117.141 49.4048 116.557 49.4048C115.675 49.4048 114.982 49.8395 114.48 50.7088C113.977 51.5781 113.723 52.8288 113.719 54.4609C113.719 55.5518 113.832 56.4744 114.058 57.2287C114.288 57.9787 114.614 58.5476 115.036 58.9354C115.458 59.3189 115.965 59.5107 116.557 59.5107ZM123.344 58.4432V56.8452L129.001 47.9091H130.26V50.2614H129.461L125.415 56.6662V56.7685H133.168V58.4432H123.344ZM129.55 61V57.9574L129.563 57.2287V47.9091H131.436V61H129.55Z" fill="#424242"/>
<path d="M93.0862 227.909V241H91.1047V229.891H91.028L87.8959 231.936V230.044L91.1622 227.909H93.0862ZM101.594 227.909V241H99.6125V229.891H99.5358L96.4037 231.936V230.044L99.67 227.909H101.594ZM105.664 241.121C105.315 241.121 105.014 240.998 104.763 240.751C104.511 240.499 104.386 240.197 104.386 239.843C104.386 239.494 104.511 239.195 104.763 238.948C105.014 238.697 105.315 238.571 105.664 238.571C106.014 238.571 106.314 238.697 106.565 238.948C106.817 239.195 106.943 239.494 106.943 239.843C106.943 240.077 106.883 240.293 106.764 240.489C106.649 240.68 106.495 240.834 106.303 240.949C106.112 241.064 105.899 241.121 105.664 241.121ZM113.56 241.217C112.55 241.213 111.687 240.947 110.971 240.418C110.255 239.89 109.708 239.121 109.328 238.111C108.949 237.101 108.759 235.884 108.759 234.461C108.759 233.042 108.949 231.83 109.328 230.824C109.712 229.818 110.262 229.051 110.978 228.523C111.698 227.994 112.559 227.73 113.56 227.73C114.561 227.73 115.42 227.996 116.136 228.529C116.852 229.058 117.399 229.825 117.779 230.83C118.162 231.832 118.354 233.042 118.354 234.461C118.354 235.888 118.164 237.107 117.785 238.117C117.406 239.123 116.858 239.892 116.142 240.425C115.426 240.953 114.566 241.217 113.56 241.217ZM113.56 239.511C114.446 239.511 115.139 239.078 115.637 238.213C116.14 237.348 116.392 236.097 116.392 234.461C116.392 233.374 116.277 232.456 116.046 231.706C115.821 230.952 115.495 230.381 115.068 229.993C114.647 229.601 114.144 229.405 113.56 229.405C112.678 229.405 111.985 229.839 111.483 230.709C110.98 231.578 110.726 232.829 110.722 234.461C110.722 235.552 110.835 236.474 111.061 237.229C111.291 237.979 111.617 238.548 112.039 238.935C112.46 239.319 112.968 239.511 113.56 239.511ZM120.347 238.443V236.845L126.004 227.909H127.263V230.261H126.464L122.418 236.666V236.768H130.171V238.443H120.347ZM126.553 241V237.957L126.566 237.229V227.909H128.439V241H126.553Z" fill="#424242"/>
<path d="M53 46L165 226V242L53 62V46Z" fill="#CDCDCD"/>
<rect x="168" y="75" width="112" height="3" fill="black"/>
<rect x="168" y="210" width="112" height="3" fill="black"/>
<path d="M203.402 142C203.367 141.574 203.208 141.241 202.922 141.003C202.641 140.764 202.213 140.645 201.637 140.645C201.271 140.645 200.97 140.69 200.736 140.779C200.506 140.864 200.335 140.982 200.225 141.131C200.114 141.28 200.056 141.45 200.052 141.642C200.044 141.8 200.071 141.942 200.135 142.07C200.203 142.194 200.31 142.307 200.455 142.409C200.6 142.507 200.785 142.597 201.011 142.678C201.237 142.759 201.505 142.831 201.816 142.895L202.89 143.125C203.615 143.278 204.235 143.481 204.75 143.732C205.266 143.984 205.688 144.28 206.016 144.621C206.344 144.957 206.585 145.337 206.738 145.759C206.896 146.18 206.977 146.641 206.981 147.139C206.977 148 206.762 148.729 206.335 149.325C205.909 149.922 205.3 150.376 204.507 150.687C203.719 150.998 202.771 151.153 201.663 151.153C200.525 151.153 199.532 150.985 198.684 150.648C197.84 150.312 197.184 149.794 196.715 149.095C196.251 148.392 196.017 147.493 196.012 146.398H199.387C199.409 146.798 199.509 147.135 199.688 147.408C199.867 147.68 200.118 147.887 200.442 148.028C200.77 148.168 201.16 148.239 201.612 148.239C201.991 148.239 202.309 148.192 202.564 148.098C202.82 148.004 203.014 147.874 203.146 147.708C203.278 147.542 203.346 147.352 203.35 147.139C203.346 146.939 203.28 146.764 203.152 146.615C203.029 146.462 202.824 146.325 202.539 146.206C202.253 146.082 201.867 145.967 201.382 145.861L200.078 145.58C198.919 145.328 198.005 144.908 197.335 144.32C196.671 143.728 196.34 142.92 196.345 141.898C196.34 141.067 196.562 140.34 197.009 139.718C197.461 139.092 198.085 138.604 198.882 138.254C199.684 137.905 200.602 137.73 201.637 137.73C202.694 137.73 203.608 137.907 204.38 138.261C205.151 138.614 205.745 139.113 206.163 139.756C206.585 140.396 206.798 141.143 206.802 142H203.402ZM207.975 140.773V137.909H219.353V140.773H215.415V151H211.913V140.773H207.975ZM227.185 143.125V145.784H221.048V143.125H227.185ZM229.233 151V137.909H232.787V148.136H238.08V151H229.233ZM242.917 151H239.082L243.403 137.909H248.261L252.582 151H248.747L245.883 141.514H245.781L242.917 151ZM242.201 145.835H249.411V148.494H242.201V145.835Z" fill="black"/>
<path d="M120 176.5L109 158.5L98 176.5H120Z" fill="#B1B1B1"/>
<path d="M120 113.5L109 131.5L98 113.5H120Z" fill="#B1B1B1"/>
<path d="M189.502 27.0449C189.477 26.8123 189.373 26.6312 189.188 26.5016C189.005 26.372 188.767 26.3072 188.474 26.3072C188.268 26.3072 188.092 26.3382 187.944 26.4004C187.797 26.4625 187.684 26.5469 187.606 26.6534C187.528 26.7599 187.488 26.8816 187.486 27.0183C187.486 27.1319 187.512 27.2305 187.563 27.3139C187.617 27.3974 187.689 27.4684 187.779 27.527C187.87 27.5838 187.97 27.6317 188.08 27.6708C188.19 27.7099 188.301 27.7427 188.413 27.7694L188.924 27.8972C189.13 27.9451 189.328 28.0099 189.518 28.0916C189.71 28.1733 189.881 28.2763 190.032 28.4006C190.185 28.5249 190.306 28.6749 190.395 28.8507C190.483 29.0265 190.528 29.2324 190.528 29.4686C190.528 29.7882 190.446 30.0696 190.283 30.3129C190.119 30.5543 189.883 30.7434 189.574 30.8801C189.267 31.0151 188.895 31.0826 188.458 31.0826C188.034 31.0826 187.665 31.0169 187.353 30.8855C187.042 30.7541 186.799 30.5623 186.623 30.3102C186.449 30.0581 186.355 29.7509 186.341 29.3887H187.313C187.327 29.5787 187.386 29.7367 187.489 29.8627C187.592 29.9888 187.726 30.0829 187.891 30.1451C188.058 30.2072 188.244 30.2383 188.45 30.2383C188.665 30.2383 188.853 30.2063 189.015 30.1424C189.178 30.0767 189.306 29.9862 189.398 29.8707C189.491 29.7536 189.538 29.6168 189.54 29.4606C189.538 29.3185 189.496 29.2013 189.414 29.109C189.333 29.0149 189.218 28.9368 189.071 28.8746C188.925 28.8107 188.755 28.7539 188.559 28.7042L187.939 28.5444C187.49 28.429 187.135 28.2541 186.874 28.0197C186.614 27.7836 186.485 27.4702 186.485 27.0795C186.485 26.7582 186.572 26.4767 186.746 26.2353C186.922 25.9938 187.16 25.8065 187.462 25.6733C187.764 25.5384 188.106 25.4709 188.488 25.4709C188.875 25.4709 189.214 25.5384 189.505 25.6733C189.798 25.8065 190.028 25.992 190.195 26.2299C190.362 26.4661 190.448 26.7377 190.453 27.0449H189.502ZM191.355 31V30.2862L193.249 28.4299C193.43 28.247 193.581 28.0845 193.702 27.9425C193.822 27.8004 193.913 27.6628 193.973 27.5297C194.034 27.3965 194.064 27.2544 194.064 27.1035C194.064 26.9313 194.025 26.7839 193.947 26.6614C193.869 26.5371 193.761 26.4412 193.625 26.3738C193.488 26.3063 193.332 26.2725 193.158 26.2725C192.979 26.2725 192.822 26.3098 192.687 26.3844C192.552 26.4572 192.447 26.5611 192.373 26.696C192.3 26.831 192.264 26.9917 192.264 27.1781H191.323C191.323 26.8319 191.402 26.5309 191.56 26.2752C191.718 26.0195 191.936 25.8216 192.213 25.6813C192.492 25.541 192.811 25.4709 193.172 25.4709C193.538 25.4709 193.859 25.5392 194.136 25.676C194.413 25.8127 194.628 26 194.78 26.2379C194.935 26.4759 195.012 26.7475 195.012 27.0529C195.012 27.2571 194.973 27.4577 194.895 27.6548C194.817 27.8519 194.679 28.0703 194.482 28.31C194.287 28.5497 194.012 28.84 193.659 29.1809L192.719 30.1371V30.1744H195.095V31H191.355ZM200.736 27.3858H199.74C199.711 27.2225 199.659 27.0778 199.582 26.9517C199.506 26.8239 199.411 26.7156 199.297 26.6268C199.184 26.538 199.054 26.4714 198.909 26.427C198.765 26.3809 198.609 26.3578 198.443 26.3578C198.146 26.3578 197.883 26.4324 197.654 26.5815C197.425 26.7289 197.246 26.9455 197.116 27.2314C196.987 27.5154 196.922 27.8626 196.922 28.2727C196.922 28.69 196.987 29.0415 197.116 29.3274C197.248 29.6115 197.427 29.8263 197.654 29.9719C197.883 30.1158 198.145 30.1877 198.44 30.1877C198.603 30.1877 198.756 30.1664 198.898 30.1238C199.042 30.0794 199.17 30.0146 199.284 29.9293C199.4 29.8441 199.496 29.7393 199.574 29.6151C199.654 29.4908 199.709 29.3487 199.74 29.1889L200.736 29.1942C200.698 29.4535 200.618 29.6967 200.493 29.924C200.371 30.1513 200.21 30.3519 200.011 30.5259C199.812 30.6982 199.58 30.8331 199.313 30.9308C199.047 31.0266 198.751 31.0746 198.427 31.0746C197.947 31.0746 197.519 30.9636 197.143 30.7417C196.766 30.5197 196.47 30.1992 196.253 29.7802C196.037 29.3612 195.928 28.8587 195.928 28.2727C195.928 27.685 196.038 27.1825 196.256 26.7653C196.474 26.3462 196.772 26.0257 197.148 25.8038C197.525 25.5819 197.951 25.4709 198.427 25.4709C198.73 25.4709 199.012 25.5135 199.273 25.5987C199.534 25.6839 199.767 25.8091 199.971 25.9743C200.175 26.1376 200.343 26.3382 200.475 26.5762C200.608 26.8123 200.695 27.0822 200.736 27.3858ZM201.489 29.9879V29.2022L203.803 25.5455H204.458V26.6641H204.059L202.501 29.133V29.1756H205.731V29.9879H201.489ZM204.091 31V29.7482L204.101 29.3967V25.5455H205.034V31H204.091Z" fill="black"/>
<path d="M189.502 258.045C189.477 257.812 189.373 257.631 189.188 257.502C189.005 257.372 188.767 257.307 188.474 257.307C188.268 257.307 188.092 257.338 187.944 257.4C187.797 257.463 187.684 257.547 187.606 257.653C187.528 257.76 187.488 257.882 187.486 258.018C187.486 258.132 187.512 258.23 187.563 258.314C187.617 258.397 187.689 258.468 187.779 258.527C187.87 258.584 187.97 258.632 188.08 258.671C188.19 258.71 188.301 258.743 188.413 258.769L188.924 258.897C189.13 258.945 189.328 259.01 189.518 259.092C189.71 259.173 189.881 259.276 190.032 259.401C190.185 259.525 190.306 259.675 190.395 259.851C190.483 260.026 190.528 260.232 190.528 260.469C190.528 260.788 190.446 261.07 190.283 261.313C190.119 261.554 189.883 261.743 189.574 261.88C189.267 262.015 188.895 262.083 188.458 262.083C188.034 262.083 187.665 262.017 187.353 261.885C187.042 261.754 186.799 261.562 186.623 261.31C186.449 261.058 186.355 260.751 186.341 260.389H187.313C187.327 260.579 187.386 260.737 187.489 260.863C187.592 260.989 187.726 261.083 187.891 261.145C188.058 261.207 188.244 261.238 188.45 261.238C188.665 261.238 188.853 261.206 189.015 261.142C189.178 261.077 189.306 260.986 189.398 260.871C189.491 260.754 189.538 260.617 189.54 260.461C189.538 260.319 189.496 260.201 189.414 260.109C189.333 260.015 189.218 259.937 189.071 259.875C188.925 259.811 188.755 259.754 188.559 259.704L187.939 259.544C187.49 259.429 187.135 259.254 186.874 259.02C186.614 258.784 186.485 258.47 186.485 258.08C186.485 257.758 186.572 257.477 186.746 257.235C186.922 256.994 187.16 256.806 187.462 256.673C187.764 256.538 188.106 256.471 188.488 256.471C188.875 256.471 189.214 256.538 189.505 256.673C189.798 256.806 190.028 256.992 190.195 257.23C190.362 257.466 190.448 257.738 190.453 258.045H189.502ZM193.313 262.075C192.929 262.075 192.588 262.009 192.29 261.877C191.994 261.746 191.759 261.563 191.587 261.329C191.415 261.094 191.323 260.824 191.313 260.517H192.314C192.323 260.664 192.372 260.793 192.461 260.903C192.549 261.011 192.667 261.095 192.815 261.156C192.962 261.216 193.127 261.246 193.31 261.246C193.506 261.246 193.679 261.213 193.83 261.145C193.981 261.076 194.099 260.98 194.184 260.857C194.269 260.735 194.311 260.594 194.309 260.434C194.311 260.269 194.268 260.123 194.181 259.997C194.094 259.871 193.968 259.773 193.803 259.702C193.64 259.631 193.443 259.595 193.212 259.595H192.73V258.833H193.212C193.402 258.833 193.568 258.8 193.71 258.735C193.854 258.669 193.966 258.577 194.048 258.458C194.13 258.337 194.17 258.198 194.168 258.04C194.17 257.885 194.135 257.751 194.064 257.637C193.995 257.522 193.896 257.432 193.768 257.368C193.642 257.305 193.494 257.273 193.324 257.273C193.157 257.273 193.002 257.303 192.86 257.363C192.718 257.423 192.604 257.51 192.517 257.621C192.43 257.732 192.383 257.863 192.378 258.016H191.427C191.434 257.71 191.522 257.442 191.691 257.211C191.861 256.979 192.089 256.798 192.373 256.668C192.657 256.537 192.976 256.471 193.329 256.471C193.693 256.471 194.009 256.539 194.277 256.676C194.547 256.811 194.756 256.993 194.903 257.222C195.05 257.451 195.124 257.704 195.124 257.981C195.126 258.288 195.035 258.546 194.852 258.753C194.671 258.961 194.433 259.097 194.139 259.161V259.203C194.522 259.257 194.816 259.399 195.02 259.63C195.226 259.859 195.328 260.144 195.326 260.485C195.326 260.79 195.239 261.063 195.065 261.305C194.893 261.545 194.655 261.733 194.352 261.869C194.05 262.006 193.704 262.075 193.313 262.075ZM200.963 258.386H199.967C199.938 258.222 199.886 258.078 199.809 257.952C199.733 257.824 199.638 257.716 199.525 257.627C199.411 257.538 199.281 257.471 199.136 257.427C198.992 257.381 198.836 257.358 198.67 257.358C198.373 257.358 198.11 257.432 197.881 257.581C197.652 257.729 197.473 257.945 197.343 258.231C197.214 258.515 197.149 258.863 197.149 259.273C197.149 259.69 197.214 260.042 197.343 260.327C197.475 260.612 197.654 260.826 197.881 260.972C198.11 261.116 198.372 261.188 198.667 261.188C198.83 261.188 198.983 261.166 199.125 261.124C199.269 261.079 199.398 261.015 199.511 260.929C199.627 260.844 199.723 260.739 199.801 260.615C199.881 260.491 199.936 260.349 199.967 260.189L200.963 260.194C200.925 260.453 200.845 260.697 200.72 260.924C200.598 261.151 200.437 261.352 200.238 261.526C200.039 261.698 199.807 261.833 199.54 261.931C199.274 262.027 198.979 262.075 198.654 262.075C198.174 262.075 197.746 261.964 197.37 261.742C196.993 261.52 196.697 261.199 196.48 260.78C196.264 260.361 196.155 259.859 196.155 259.273C196.155 258.685 196.265 258.183 196.483 257.765C196.701 257.346 196.999 257.026 197.375 256.804C197.752 256.582 198.178 256.471 198.654 256.471C198.957 256.471 199.24 256.513 199.501 256.599C199.762 256.684 199.994 256.809 200.198 256.974C200.403 257.138 200.57 257.338 200.702 257.576C200.835 257.812 200.922 258.082 200.963 258.386ZM201.716 260.988V260.202L204.03 256.545H204.685V257.664H204.286L202.728 260.133V260.176H205.958V260.988H201.716ZM204.318 262V260.748L204.329 260.397V256.545H205.261V262H204.318Z" fill="black"/>
<path d="M107.845 92.7717H105.853C105.796 92.445 105.691 92.1555 105.538 91.9034C105.386 91.6477 105.196 91.4311 104.968 91.2536C104.741 91.076 104.482 90.9428 104.191 90.854C103.903 90.7617 103.592 90.7156 103.259 90.7156C102.666 90.7156 102.14 90.8647 101.682 91.163C101.224 91.4577 100.865 91.891 100.606 92.4627C100.347 93.0309 100.217 93.7251 100.217 94.5455C100.217 95.38 100.347 96.0831 100.606 96.6548C100.869 97.223 101.227 97.6527 101.682 97.9439C102.14 98.2315 102.664 98.3754 103.253 98.3754C103.58 98.3754 103.885 98.3327 104.169 98.2475C104.457 98.1587 104.715 98.0291 104.942 97.8587C105.173 97.6882 105.366 97.4787 105.522 97.2301C105.682 96.9815 105.792 96.6974 105.853 96.3778L107.845 96.3885C107.77 96.907 107.609 97.3935 107.36 97.848C107.115 98.3026 106.794 98.7038 106.396 99.0518C105.998 99.3963 105.533 99.6662 105 99.8615C104.468 100.053 103.876 100.149 103.227 100.149C102.268 100.149 101.412 99.9272 100.659 99.4833C99.9063 99.0394 99.3133 98.3984 98.88 97.5604C98.4468 96.7223 98.2302 95.7173 98.2302 94.5455C98.2302 93.37 98.4486 92.3651 98.8853 91.5305C99.3221 90.6925 99.9169 90.0515 100.67 89.6076C101.423 89.1637 102.275 88.9418 103.227 88.9418C103.834 88.9418 104.398 89.027 104.92 89.1974C105.443 89.3679 105.908 89.6183 106.316 89.9485C106.724 90.2752 107.06 90.6765 107.323 91.1523C107.589 91.6246 107.763 92.1644 107.845 92.7717ZM109.351 97.9759V96.4045L113.98 89.0909H115.29V91.3281H114.491L111.375 96.266V96.3512H117.836V97.9759H109.351ZM114.555 100V97.4964L114.576 96.7933V89.0909H116.441V100H114.555Z" fill="black"/>
<path d="M307 29L302 26.1132V31.8868L307 29ZM257 29.5H302.5V28.5H257V29.5Z" fill="#9F9F9F"/>
<path d="M421 19L416 16.1132V21.8868L421 19ZM371 19.5H416.5V18.5H371V19.5Z" fill="#9F9F9F"/>
<path d="M307 272L302 269.113V274.887L307 272ZM257 272.5H302.5V271.5H257V272.5Z" fill="#00FF19"/>
<path d="M421 282L416 279.113V284.887L421 282ZM371 282.5H416.5V281.5H371V282.5Z" fill="#00FF19"/>
<path d="M165 259L160 256.113V261.887L165 259ZM53 259.5H160.5V258.5H53V259.5Z" fill="#00FF19"/>
<path d="M53 29L58 31.8868V26.1132L53 29ZM165 28.5H57.5V29.5H165V28.5Z" fill="#00FF19"/>
<path d="M53 267L58 264.113V269.887L53 267ZM165 267.5H57.5V266.5H165V267.5Z" fill="#9F9F9F"/>
<path d="M165 21L160 23.8868V18.1132L165 21ZM53 20.5H160.5V21.5H53V20.5Z" fill="#9F9F9F"/>
<path d="M257 21L262 18.1132V23.8868L257 21ZM307 21.5H261.5V20.5H307V21.5Z" fill="#00FF19"/>
<path d="M371 11L376 8.11325V13.8868L371 11ZM421 11.5H375.5V10.5H421V11.5Z" fill="#00FF19"/>
<path d="M257 264L262 261.113V266.887L257 264ZM307 264.5H261.5V263.5H307V264.5Z" fill="#9F9F9F"/>
<path d="M371 274L376 271.113V276.887L371 274ZM421 274.5H375.5V273.5H421V274.5Z" fill="#9F9F9F"/>
<path d="M107 276V275.5H107.325L107.457 275.797L107 276ZM111 285V285.5H110.675L110.543 285.203L111 285ZM165 285L160 287.887V282.113L165 285ZM53 275.5H107V276.5H53V275.5ZM107.457 275.797L111.457 284.797L110.543 285.203L106.543 276.203L107.457 275.797ZM111 284.5H160.5V285.5H111V284.5Z" fill="#9F9F9F"/>
<path d="M111 12V12.5H110.675L110.543 12.2031L111 12ZM107 3V2.5H107.325L107.457 2.79693L107 3ZM53 3L58 0.113249V5.88675L53 3ZM165 12.5H111V11.5H165V12.5ZM110.543 12.2031L106.543 3.20307L107.457 2.79693L111.457 11.7969L110.543 12.2031ZM107 3.5H57.5V2.5H107V3.5Z" fill="#9F9F9F"/>
<path d="M17.5677 27.0449C17.5429 26.8123 17.4381 26.6312 17.2535 26.5016C17.0706 26.372 16.8327 26.3072 16.5397 26.3072C16.3337 26.3072 16.157 26.3382 16.0097 26.4004C15.8623 26.4625 15.7496 26.5469 15.6714 26.6534C15.5933 26.7599 15.5534 26.8816 15.5516 27.0183C15.5516 27.1319 15.5773 27.2305 15.6288 27.3139C15.6821 27.3974 15.754 27.4684 15.8445 27.527C15.9351 27.5838 16.0354 27.6317 16.1455 27.6708C16.2556 27.7099 16.3666 27.7427 16.4784 27.7694L16.9898 27.8972C17.1958 27.9451 17.3937 28.0099 17.5837 28.0916C17.7755 28.1733 17.9468 28.2763 18.0977 28.4006C18.2504 28.5249 18.3712 28.6749 18.46 28.8507C18.5487 29.0265 18.5931 29.2324 18.5931 29.4686C18.5931 29.7882 18.5115 30.0696 18.3481 30.3129C18.1847 30.5543 17.9486 30.7434 17.6396 30.8801C17.3325 31.0151 16.9605 31.0826 16.5237 31.0826C16.0993 31.0826 15.7309 31.0169 15.4184 30.8855C15.1077 30.7541 14.8644 30.5623 14.6887 30.3102C14.5146 30.0581 14.4205 29.7509 14.4063 29.3887H15.3785C15.3927 29.5787 15.4513 29.7367 15.5542 29.8627C15.6572 29.9888 15.7913 30.0829 15.9564 30.1451C16.1233 30.2072 16.3097 30.2383 16.5157 30.2383C16.7306 30.2383 16.9188 30.2063 17.0803 30.1424C17.2437 30.0767 17.3715 29.9862 17.4639 29.8707C17.5562 29.7536 17.6032 29.6168 17.605 29.4606C17.6032 29.3185 17.5615 29.2013 17.4798 29.109C17.3982 29.0149 17.2836 28.9368 17.1363 28.8746C16.9907 28.8107 16.8202 28.7539 16.6249 28.7042L16.0044 28.5444C15.5551 28.429 15.2 28.2541 14.939 28.0197C14.6798 27.7836 14.5502 27.4702 14.5502 27.0795C14.5502 26.7582 14.6372 26.4767 14.8112 26.2353C14.9869 25.9938 15.2258 25.8065 15.5276 25.6733C15.8295 25.5384 16.1713 25.4709 16.553 25.4709C16.9401 25.4709 17.2792 25.5384 17.5704 25.6733C17.8634 25.8065 18.0933 25.992 18.2602 26.2299C18.4271 26.4661 18.5132 26.7377 18.5186 27.0449H17.5677ZM19.3222 29.9879V29.2022L21.6367 25.5455H22.2919V26.6641H21.8924L20.3343 29.133V29.1756H23.5649V29.9879H19.3222ZM21.9243 31V29.7482L21.935 29.3967V25.5455H22.8671V31H21.9243ZM29.138 27.3858H28.1419C28.1135 27.2225 28.0611 27.0778 27.9848 26.9517C27.9084 26.8239 27.8134 26.7156 27.6998 26.6268C27.5862 26.538 27.4565 26.4714 27.3109 26.427C27.1671 26.3809 27.0118 26.3578 26.8449 26.3578C26.5483 26.3578 26.2856 26.4324 26.0565 26.5815C25.8275 26.7289 25.6481 26.9455 25.5185 27.2314C25.3889 27.5154 25.3241 27.8626 25.3241 28.2727C25.3241 28.69 25.3889 29.0415 25.5185 29.3274C25.6499 29.6115 25.8292 29.8263 26.0565 29.9719C26.2856 30.1158 26.5475 30.1877 26.8422 30.1877C27.0055 30.1877 27.1582 30.1664 27.3003 30.1238C27.4441 30.0794 27.5728 30.0146 27.6865 29.9293C27.8019 29.8441 27.8987 29.7393 27.9768 29.6151C28.0567 29.4908 28.1117 29.3487 28.1419 29.1889L29.138 29.1942C29.1007 29.4535 29.0199 29.6967 28.8956 29.924C28.7731 30.1513 28.6124 30.3519 28.4136 30.5259C28.2147 30.6982 27.9821 30.8331 27.7158 30.9308C27.4494 31.0266 27.1538 31.0746 26.8289 31.0746C26.3495 31.0746 25.9216 30.9636 25.5451 30.7417C25.1687 30.5197 24.8722 30.1992 24.6556 29.7802C24.439 29.3612 24.3307 28.8587 24.3307 28.2727C24.3307 27.685 24.4399 27.1825 24.6582 26.7653C24.8766 26.3462 25.1741 26.0257 25.5505 25.8038C25.9269 25.5819 26.353 25.4709 26.8289 25.4709C27.1325 25.4709 27.4148 25.5135 27.6758 25.5987C27.9368 25.6839 28.1694 25.8091 28.3736 25.9743C28.5778 26.1376 28.7456 26.3382 28.877 26.5762C29.0102 26.8123 29.0972 27.0822 29.138 27.3858ZM29.8911 29.9879V29.2022L32.2055 25.5455H32.8607V26.6641H32.4612L30.9031 29.133V29.1756H34.1338V29.9879H29.8911ZM32.4932 31V29.7482L32.5038 29.3967V25.5455H33.436V31H32.4932Z" fill="black"/>
<path d="M18.9593 258.045C18.9345 257.812 18.8297 257.631 18.6451 257.502C18.4622 257.372 18.2243 257.307 17.9313 257.307C17.7253 257.307 17.5487 257.338 17.4013 257.4C17.2539 257.463 17.1412 257.547 17.063 257.653C16.9849 257.76 16.945 257.882 16.9432 258.018C16.9432 258.132 16.9689 258.23 17.0204 258.314C17.0737 258.397 17.1456 258.468 17.2362 258.527C17.3267 258.584 17.427 258.632 17.5371 258.671C17.6472 258.71 17.7582 258.743 17.87 258.769L18.3814 258.897C18.5874 258.945 18.7853 259.01 18.9753 259.092C19.1671 259.173 19.3384 259.276 19.4893 259.401C19.642 259.525 19.7628 259.675 19.8516 259.851C19.9403 260.026 19.9847 260.232 19.9847 260.469C19.9847 260.788 19.9031 261.07 19.7397 261.313C19.5763 261.554 19.3402 261.743 19.0312 261.88C18.7241 262.015 18.3521 262.083 17.9153 262.083C17.4909 262.083 17.1225 262.017 16.81 261.885C16.4993 261.754 16.256 261.562 16.0803 261.31C15.9063 261.058 15.8121 260.751 15.7979 260.389H16.7701C16.7843 260.579 16.8429 260.737 16.9458 260.863C17.0488 260.989 17.1829 261.083 17.348 261.145C17.5149 261.207 17.7013 261.238 17.9073 261.238C18.1222 261.238 18.3104 261.206 18.4719 261.142C18.6353 261.077 18.7631 260.986 18.8555 260.871C18.9478 260.754 18.9949 260.617 18.9966 260.461C18.9949 260.319 18.9531 260.201 18.8714 260.109C18.7898 260.015 18.6752 259.937 18.5279 259.875C18.3823 259.811 18.2118 259.754 18.0165 259.704L17.396 259.544C16.9467 259.429 16.5916 259.254 16.3306 259.02C16.0714 258.784 15.9418 258.47 15.9418 258.08C15.9418 257.758 16.0288 257.477 16.2028 257.235C16.3786 256.994 16.6174 256.806 16.9192 256.673C17.2211 256.538 17.5629 256.471 17.9446 256.471C18.3317 256.471 18.6708 256.538 18.962 256.673C19.255 256.806 19.4849 256.992 19.6518 257.23C19.8187 257.466 19.9048 257.738 19.9102 258.045H18.9593ZM23.0309 256.545V262H22.0428V257.507H22.0109L20.7351 258.322V257.416L22.0908 256.545H23.0309ZM29.138 258.386H28.1419C28.1135 258.222 28.0611 258.078 27.9848 257.952C27.9084 257.824 27.8134 257.716 27.6998 257.627C27.5862 257.538 27.4565 257.471 27.3109 257.427C27.1671 257.381 27.0118 257.358 26.8449 257.358C26.5483 257.358 26.2856 257.432 26.0565 257.581C25.8275 257.729 25.6481 257.945 25.5185 258.231C25.3889 258.515 25.3241 258.863 25.3241 259.273C25.3241 259.69 25.3889 260.042 25.5185 260.327C25.6499 260.612 25.8292 260.826 26.0565 260.972C26.2856 261.116 26.5475 261.188 26.8422 261.188C27.0055 261.188 27.1582 261.166 27.3003 261.124C27.4441 261.079 27.5728 261.015 27.6865 260.929C27.8019 260.844 27.8987 260.739 27.9768 260.615C28.0567 260.491 28.1117 260.349 28.1419 260.189L29.138 260.194C29.1007 260.453 29.0199 260.697 28.8956 260.924C28.7731 261.151 28.6124 261.352 28.4136 261.526C28.2147 261.698 27.9821 261.833 27.7158 261.931C27.4494 262.027 27.1538 262.075 26.8289 262.075C26.3495 262.075 25.9216 261.964 25.5451 261.742C25.1687 261.52 24.8722 261.199 24.6556 260.78C24.439 260.361 24.3307 259.859 24.3307 259.273C24.3307 258.685 24.4399 258.183 24.6582 257.765C24.8766 257.346 25.1741 257.026 25.5505 256.804C25.9269 256.582 26.353 256.471 26.8289 256.471C27.1325 256.471 27.4148 256.513 27.6758 256.599C27.9368 256.684 28.1694 256.809 28.3736 256.974C28.5778 257.138 28.7456 257.338 28.877 257.576C29.0102 257.812 29.0972 258.082 29.138 258.386ZM29.8911 260.988V260.202L32.2055 256.545H32.8607V257.664H32.4612L30.9031 260.133V260.176H34.1338V260.988H29.8911ZM32.4932 262V260.748L32.5038 260.397V256.545H33.436V262H32.4932Z" fill="black"/>
<path d="M361.208 258.045C361.184 257.812 361.079 257.631 360.894 257.502C360.711 257.372 360.473 257.307 360.18 257.307C359.974 257.307 359.798 257.338 359.65 257.4C359.503 257.463 359.39 257.547 359.312 257.653C359.234 257.76 359.194 257.882 359.192 258.018C359.192 258.132 359.218 258.23 359.269 258.314C359.323 258.397 359.395 258.468 359.485 258.527C359.576 258.584 359.676 258.632 359.786 258.671C359.896 258.71 360.007 258.743 360.119 258.769L360.63 258.897C360.836 258.945 361.034 259.01 361.224 259.092C361.416 259.173 361.587 259.276 361.738 259.401C361.891 259.525 362.012 259.675 362.101 259.851C362.189 260.026 362.234 260.232 362.234 260.469C362.234 260.788 362.152 261.07 361.989 261.313C361.825 261.554 361.589 261.743 361.28 261.88C360.973 262.015 360.601 262.083 360.164 262.083C359.74 262.083 359.372 262.017 359.059 261.885C358.748 261.754 358.505 261.562 358.329 261.31C358.155 261.058 358.061 260.751 358.047 260.389H359.019C359.033 260.579 359.092 260.737 359.195 260.863C359.298 260.989 359.432 261.083 359.597 261.145C359.764 261.207 359.95 261.238 360.156 261.238C360.371 261.238 360.559 261.206 360.721 261.142C360.884 261.077 361.012 260.986 361.104 260.871C361.197 260.754 361.244 260.617 361.246 260.461C361.244 260.319 361.202 260.201 361.12 260.109C361.039 260.015 360.924 259.937 360.777 259.875C360.631 259.811 360.461 259.754 360.266 259.704L359.645 259.544C359.196 259.429 358.841 259.254 358.58 259.02C358.32 258.784 358.191 258.47 358.191 258.08C358.191 257.758 358.278 257.477 358.452 257.235C358.628 256.994 358.866 256.806 359.168 256.673C359.47 256.538 359.812 256.471 360.194 256.471C360.581 256.471 360.92 256.538 361.211 256.673C361.504 256.806 361.734 256.992 361.901 257.23C362.068 257.466 362.154 257.738 362.159 258.045H361.208ZM365.28 256.545V262H364.292V257.507H364.26L362.984 258.322V257.416L364.34 256.545H365.28ZM371.387 258.386H370.391C370.363 258.222 370.31 258.078 370.234 257.952C370.157 257.824 370.062 257.716 369.949 257.627C369.835 257.538 369.706 257.471 369.56 257.427C369.416 257.381 369.261 257.358 369.094 257.358C368.797 257.358 368.535 257.432 368.306 257.581C368.076 257.729 367.897 257.945 367.768 258.231C367.638 258.515 367.573 258.863 367.573 259.273C367.573 259.69 367.638 260.042 367.768 260.327C367.899 260.612 368.078 260.826 368.306 260.972C368.535 261.116 368.796 261.188 369.091 261.188C369.255 261.188 369.407 261.166 369.549 261.124C369.693 261.079 369.822 261.015 369.936 260.929C370.051 260.844 370.148 260.739 370.226 260.615C370.306 260.491 370.361 260.349 370.391 260.189L371.387 260.194C371.35 260.453 371.269 260.697 371.145 260.924C371.022 261.151 370.861 261.352 370.663 261.526C370.464 261.698 370.231 261.833 369.965 261.931C369.698 262.027 369.403 262.075 369.078 262.075C368.598 262.075 368.171 261.964 367.794 261.742C367.418 261.52 367.121 261.199 366.905 260.78C366.688 260.361 366.58 259.859 366.58 259.273C366.58 258.685 366.689 258.183 366.907 257.765C367.126 257.346 367.423 257.026 367.799 256.804C368.176 256.582 368.602 256.471 369.078 256.471C369.382 256.471 369.664 256.513 369.925 256.599C370.186 256.684 370.418 256.809 370.623 256.974C370.827 257.138 370.995 257.338 371.126 257.576C371.259 257.812 371.346 258.082 371.387 258.386ZM374.135 262.075C373.78 262.075 373.462 262.008 373.181 261.875C372.901 261.74 372.678 261.555 372.513 261.321C372.35 261.086 372.263 260.818 372.252 260.517H373.211C373.229 260.74 373.325 260.923 373.501 261.065C373.677 261.205 373.888 261.276 374.135 261.276C374.328 261.276 374.501 261.231 374.652 261.142C374.803 261.054 374.922 260.93 375.009 260.772C375.096 260.614 375.138 260.434 375.136 260.232C375.138 260.026 375.095 259.843 375.006 259.683C374.917 259.523 374.795 259.398 374.641 259.307C374.487 259.215 374.309 259.169 374.108 259.169C373.945 259.167 373.784 259.197 373.626 259.259C373.468 259.322 373.343 259.403 373.251 259.504L372.358 259.358L372.643 256.545H375.808V257.371H373.461L373.304 258.817H373.336C373.437 258.698 373.58 258.6 373.765 258.522C373.949 258.442 374.152 258.402 374.372 258.402C374.702 258.402 374.997 258.48 375.256 258.636C375.515 258.791 375.72 259.004 375.869 259.275C376.018 259.547 376.093 259.858 376.093 260.208C376.093 260.568 376.009 260.889 375.842 261.172C375.677 261.452 375.447 261.673 375.152 261.835C374.859 261.995 374.52 262.075 374.135 262.075Z" fill="black"/>
<path d="M360.817 27.0449C360.792 26.8123 360.687 26.6312 360.502 26.5016C360.32 26.372 360.082 26.3072 359.789 26.3072C359.583 26.3072 359.406 26.3382 359.259 26.4004C359.111 26.4625 358.999 26.5469 358.92 26.6534C358.842 26.7599 358.802 26.8816 358.801 27.0183C358.801 27.1319 358.826 27.2305 358.878 27.3139C358.931 27.3974 359.003 27.4684 359.094 27.527C359.184 27.5838 359.284 27.6317 359.395 27.6708C359.505 27.7099 359.616 27.7427 359.727 27.7694L360.239 27.8972C360.445 27.9451 360.643 28.0099 360.833 28.0916C361.025 28.1733 361.196 28.2763 361.347 28.4006C361.499 28.5249 361.62 28.6749 361.709 28.8507C361.798 29.0265 361.842 29.2324 361.842 29.4686C361.842 29.7882 361.76 30.0696 361.597 30.3129C361.434 30.5543 361.198 30.7434 360.889 30.8801C360.581 31.0151 360.21 31.0826 359.773 31.0826C359.348 31.0826 358.98 31.0169 358.667 30.8855C358.357 30.7541 358.113 30.5623 357.938 30.3102C357.764 30.0581 357.67 29.7509 357.655 29.3887H358.627C358.642 29.5787 358.7 29.7367 358.803 29.8627C358.906 29.9888 359.04 30.0829 359.205 30.1451C359.372 30.2072 359.559 30.2383 359.765 30.2383C359.98 30.2383 360.168 30.2063 360.329 30.1424C360.493 30.0767 360.621 29.9862 360.713 29.8707C360.805 29.7536 360.852 29.6168 360.854 29.4606C360.852 29.3185 360.811 29.2013 360.729 29.109C360.647 29.0149 360.533 28.9368 360.385 28.8746C360.24 28.8107 360.069 28.7539 359.874 28.7042L359.253 28.5444C358.804 28.429 358.449 28.2541 358.188 28.0197C357.929 27.7836 357.799 27.4702 357.799 27.0795C357.799 26.7582 357.886 26.4767 358.06 26.2353C358.236 25.9938 358.475 25.8065 358.777 25.6733C359.078 25.5384 359.42 25.4709 359.802 25.4709C360.189 25.4709 360.528 25.5384 360.819 25.6733C361.112 25.8065 361.342 25.992 361.509 26.2299C361.676 26.4661 361.762 26.7377 361.768 27.0449H360.817ZM362.571 29.9879V29.2022L364.886 25.5455H365.541V26.6641H365.141L363.583 29.133V29.1756H366.814V29.9879H362.571ZM365.173 31V29.7482L365.184 29.3967V25.5455H366.116V31H365.173ZM372.387 27.3858H371.391C371.363 27.2225 371.31 27.0778 371.234 26.9517C371.157 26.8239 371.062 26.7156 370.949 26.6268C370.835 26.538 370.706 26.4714 370.56 26.427C370.416 26.3809 370.261 26.3578 370.094 26.3578C369.797 26.3578 369.535 26.4324 369.306 26.5815C369.076 26.7289 368.897 26.9455 368.768 27.2314C368.638 27.5154 368.573 27.8626 368.573 28.2727C368.573 28.69 368.638 29.0415 368.768 29.3274C368.899 29.6115 369.078 29.8263 369.306 29.9719C369.535 30.1158 369.796 30.1877 370.091 30.1877C370.255 30.1877 370.407 30.1664 370.549 30.1238C370.693 30.0794 370.822 30.0146 370.936 29.9293C371.051 29.8441 371.148 29.7393 371.226 29.6151C371.306 29.4908 371.361 29.3487 371.391 29.1889L372.387 29.1942C372.35 29.4535 372.269 29.6967 372.145 29.924C372.022 30.1513 371.861 30.3519 371.663 30.5259C371.464 30.6982 371.231 30.8331 370.965 30.9308C370.698 31.0266 370.403 31.0746 370.078 31.0746C369.598 31.0746 369.171 30.9636 368.794 30.7417C368.418 30.5197 368.121 30.1992 367.905 29.7802C367.688 29.3612 367.58 28.8587 367.58 28.2727C367.58 27.685 367.689 27.1825 367.907 26.7653C368.126 26.3462 368.423 26.0257 368.799 25.8038C369.176 25.5819 369.602 25.4709 370.078 25.4709C370.382 25.4709 370.664 25.5135 370.925 25.5987C371.186 25.6839 371.418 25.8091 371.623 25.9743C371.827 26.1376 371.995 26.3382 372.126 26.5762C372.259 26.8123 372.346 27.0822 372.387 27.3858ZM375.135 31.0746C374.78 31.0746 374.462 31.008 374.181 30.8748C373.901 30.7399 373.678 30.5552 373.513 30.3208C373.35 30.0865 373.263 29.8184 373.252 29.5165H374.211C374.229 29.7402 374.325 29.9231 374.501 30.0652C374.677 30.2054 374.888 30.2756 375.135 30.2756C375.328 30.2756 375.501 30.2312 375.652 30.1424C375.803 30.0536 375.922 29.9302 376.009 29.7722C376.096 29.6142 376.138 29.4339 376.136 29.2315C376.138 29.0256 376.095 28.8427 376.006 28.6829C375.917 28.5231 375.795 28.3979 375.641 28.3074C375.487 28.215 375.309 28.1689 375.108 28.1689C374.945 28.1671 374.784 28.1973 374.626 28.2594C374.468 28.3216 374.343 28.4032 374.251 28.5044L373.358 28.358L373.643 25.5455H376.808V26.3711H374.461L374.304 27.8173H374.336C374.437 27.6983 374.58 27.5998 374.765 27.5217C374.949 27.4418 375.152 27.4018 375.372 27.4018C375.702 27.4018 375.997 27.4799 376.256 27.6362C376.515 27.7907 376.72 28.0037 376.869 28.2754C377.018 28.5471 377.093 28.8578 377.093 29.2076C377.093 29.568 377.009 29.8894 376.842 30.1717C376.677 30.4522 376.447 30.6733 376.152 30.8349C375.859 30.9947 375.52 31.0746 375.135 31.0746Z" fill="black"/>
</svg>
