<svg width="536" height="435" viewBox="0 0 536 435" fill="none" xmlns="http://www.w3.org/2000/svg">
<rect x="168" y="40" width="112" height="30" fill="#CDCDCD"/>
<rect x="283" y="40" width="112" height="30" fill="#CDCDCD"/>
<rect x="283" y="220" width="112" height="30" fill="#CDCDCD"/>
<rect x="241" y="335" width="112" height="30" fill="#CDCDCD"/>
<rect x="398.5" y="220" width="112" height="30" fill="#CDCDCD"/>
<rect x="398.5" y="40" width="112" height="30" fill="#CDCDCD"/>
<path d="M53 47H165V63H53V47Z" fill="#148FB6"/>
<path d="M168 227H280V243H168V227Z" fill="#148FB6"/>
<path d="M53 227H165V243H53V227Z" fill="#148FB6"/>
<rect x="83" y="40" width="52" height="30" fill="#CDCDCD"/>
<rect x="198" y="220" width="52" height="30" fill="#CDCDCD"/>
<rect x="83" y="220" width="52" height="30" fill="#CDCDCD"/>
<path d="M85.5971 62V60.5682L90.0268 55.9787C90.4998 55.4801 90.8897 55.0433 91.1966 54.6683C91.5076 54.2891 91.7399 53.929 91.8933 53.5881C92.0467 53.2472 92.1234 52.8849 92.1234 52.5014C92.1234 52.0668 92.0211 51.6918 91.8166 51.3764C91.612 51.0568 91.3329 50.8118 90.9792 50.6413C90.6255 50.4666 90.2271 50.3793 89.7839 50.3793C89.3152 50.3793 88.9061 50.4751 88.5566 50.6669C88.2072 50.8587 87.9387 51.1293 87.7512 51.4787C87.5637 51.8281 87.47 52.2372 87.47 52.706H85.5843C85.5843 51.9091 85.7676 51.2124 86.1341 50.6158C86.5005 50.0192 87.0034 49.5568 87.6426 49.2287C88.2818 48.8963 89.0083 48.7301 89.8223 48.7301C90.6447 48.7301 91.3691 48.8942 91.9956 49.2223C92.6262 49.5462 93.1184 49.9893 93.4721 50.5518C93.8258 51.1101 94.0027 51.7408 94.0027 52.4439C94.0027 52.9297 93.911 53.4048 93.7278 53.8693C93.5488 54.3338 93.2356 54.8516 92.7882 55.4226C92.3407 55.9893 91.7186 56.6776 90.9217 57.4872L88.3201 60.2102V60.3061H94.2136V62H85.5971ZM96.0801 59.4432V57.8452L101.737 48.9091H102.996V51.2614H102.197L98.1511 57.6662V57.7685H105.905V59.4432H96.0801ZM102.287 62V58.9574L102.3 58.2287V48.9091H104.172V62H102.287ZM108.925 62.1214C108.575 62.1214 108.275 61.9979 108.024 61.7507C107.772 61.4993 107.646 61.1967 107.646 60.843C107.646 60.4936 107.772 60.1953 108.024 59.9482C108.275 59.6967 108.575 59.571 108.925 59.571C109.274 59.571 109.575 59.6967 109.826 59.9482C110.078 60.1953 110.203 60.4936 110.203 60.843C110.203 61.0774 110.144 61.2926 110.024 61.4886C109.909 61.6804 109.756 61.8338 109.564 61.9489C109.372 62.0639 109.159 62.1214 108.925 62.1214ZM116.821 62.2173C115.811 62.2131 114.948 61.9467 114.232 61.4183C113.516 60.8899 112.968 60.1207 112.589 59.1108C112.21 58.1009 112.02 56.8842 112.02 55.4609C112.02 54.0419 112.21 52.8295 112.589 51.8239C112.973 50.8182 113.522 50.0511 114.238 49.5227C114.958 48.9943 115.819 48.7301 116.821 48.7301C117.822 48.7301 118.681 48.9964 119.397 49.5291C120.113 50.0575 120.66 50.8246 121.039 51.8303C121.423 52.8317 121.615 54.0419 121.615 55.4609C121.615 56.8885 121.425 58.1072 121.046 59.1172C120.667 60.1229 120.119 60.892 119.403 61.4247C118.687 61.9531 117.826 62.2173 116.821 62.2173ZM116.821 60.5107C117.707 60.5107 118.4 60.0781 118.898 59.2131C119.401 58.348 119.652 57.0973 119.652 55.4609C119.652 54.3743 119.537 53.456 119.307 52.706C119.081 51.9517 118.755 51.3807 118.329 50.9929C117.907 50.6009 117.404 50.4048 116.821 50.4048C115.939 50.4048 115.246 50.8395 114.743 51.7088C114.24 52.5781 113.987 53.8288 113.983 55.4609C113.983 56.5518 114.096 57.4744 114.321 58.2287C114.551 58.9787 114.877 59.5476 115.299 59.9354C115.721 60.3189 116.228 60.5107 116.821 60.5107ZM123.882 62V60.5682L128.312 55.9787C128.785 55.4801 129.175 55.0433 129.482 54.6683C129.793 54.2891 130.025 53.929 130.178 53.5881C130.332 53.2472 130.409 52.8849 130.409 52.5014C130.409 52.0668 130.306 51.6918 130.102 51.3764C129.897 51.0568 129.618 50.8118 129.264 50.6413C128.911 50.4666 128.512 50.3793 128.069 50.3793C127.6 50.3793 127.191 50.4751 126.842 50.6669C126.492 50.8587 126.224 51.1293 126.036 51.4787C125.849 51.8281 125.755 52.2372 125.755 52.706H123.869C123.869 51.9091 124.053 51.2124 124.419 50.6158C124.786 50.0192 125.289 49.5568 125.928 49.2287C126.567 48.8963 127.294 48.7301 128.107 48.7301C128.93 48.7301 129.654 48.8942 130.281 49.2223C130.911 49.5462 131.404 49.9893 131.757 50.5518C132.111 51.1101 132.288 51.7408 132.288 52.4439C132.288 52.9297 132.196 53.4048 132.013 53.8693C131.834 54.3338 131.521 54.8516 131.073 55.4226C130.626 55.9893 130.004 56.6776 129.207 57.4872L126.605 60.2102V60.3061H132.499V62H123.882Z" fill="#424242"/>
<path d="M206.812 228.909V242H204.83V230.891H204.754L201.621 232.936V231.044L204.888 228.909H206.812ZM210.353 242V240.568L214.783 235.979C215.256 235.48 215.646 235.043 215.952 234.668C216.263 234.289 216.496 233.929 216.649 233.588C216.803 233.247 216.879 232.885 216.879 232.501C216.879 232.067 216.777 231.692 216.572 231.376C216.368 231.057 216.089 230.812 215.735 230.641C215.381 230.467 214.983 230.379 214.54 230.379C214.071 230.379 213.662 230.475 213.312 230.667C212.963 230.859 212.695 231.129 212.507 231.479C212.32 231.828 212.226 232.237 212.226 232.706H210.34C210.34 231.909 210.523 231.212 210.89 230.616C211.256 230.019 211.759 229.557 212.398 229.229C213.038 228.896 213.764 228.73 214.578 228.73C215.401 228.73 216.125 228.894 216.751 229.222C217.382 229.546 217.874 229.989 218.228 230.552C218.582 231.11 218.759 231.741 218.759 232.444C218.759 232.93 218.667 233.405 218.484 233.869C218.305 234.334 217.991 234.852 217.544 235.423C217.097 235.989 216.474 236.678 215.678 237.487L213.076 240.21V240.306H218.969V242H210.353ZM222.677 242.121C222.327 242.121 222.027 241.998 221.776 241.751C221.524 241.499 221.398 241.197 221.398 240.843C221.398 240.494 221.524 240.195 221.776 239.948C222.027 239.697 222.327 239.571 222.677 239.571C223.026 239.571 223.327 239.697 223.578 239.948C223.83 240.195 223.955 240.494 223.955 240.843C223.955 241.077 223.896 241.293 223.776 241.489C223.661 241.68 223.508 241.834 223.316 241.949C223.124 242.064 222.911 242.121 222.677 242.121ZM230.573 242.217C229.563 242.213 228.7 241.947 227.984 241.418C227.268 240.89 226.72 240.121 226.341 239.111C225.962 238.101 225.772 236.884 225.772 235.461C225.772 234.042 225.962 232.83 226.341 231.824C226.725 230.818 227.274 230.051 227.99 229.523C228.71 228.994 229.571 228.73 230.573 228.73C231.574 228.73 232.433 228.996 233.149 229.529C233.865 230.058 234.412 230.825 234.791 231.83C235.175 232.832 235.367 234.042 235.367 235.461C235.367 236.888 235.177 238.107 234.798 239.117C234.419 240.123 233.871 240.892 233.155 241.425C232.439 241.953 231.578 242.217 230.573 242.217ZM230.573 240.511C231.459 240.511 232.151 240.078 232.65 239.213C233.153 238.348 233.404 237.097 233.404 235.461C233.404 234.374 233.289 233.456 233.059 232.706C232.833 231.952 232.507 231.381 232.081 230.993C231.659 230.601 231.156 230.405 230.573 230.405C229.691 230.405 228.998 230.839 228.495 231.709C227.992 232.578 227.739 233.829 227.735 235.461C227.735 236.552 227.847 237.474 228.073 238.229C228.303 238.979 228.629 239.548 229.051 239.935C229.473 240.319 229.98 240.511 230.573 240.511ZM237.634 242V240.568L242.064 235.979C242.537 235.48 242.927 235.043 243.234 234.668C243.545 234.289 243.777 233.929 243.93 233.588C244.084 233.247 244.161 232.885 244.161 232.501C244.161 232.067 244.058 231.692 243.854 231.376C243.649 231.057 243.37 230.812 243.016 230.641C242.663 230.467 242.264 230.379 241.821 230.379C241.352 230.379 240.943 230.475 240.594 230.667C240.244 230.859 239.976 231.129 239.788 231.479C239.601 231.828 239.507 232.237 239.507 232.706H237.621C237.621 231.909 237.805 231.212 238.171 230.616C238.538 230.019 239.04 229.557 239.68 229.229C240.319 228.896 241.045 228.73 241.859 228.73C242.682 228.73 243.406 228.894 244.033 229.222C244.663 229.546 245.156 229.989 245.509 230.552C245.863 231.11 246.04 231.741 246.04 232.444C246.04 232.93 245.948 233.405 245.765 233.869C245.586 234.334 245.273 234.852 244.825 235.423C244.378 235.989 243.756 236.678 242.959 237.487L240.357 240.21V240.306H246.251V242H237.634Z" fill="#424242"/>
<path d="M93.4553 228.909V242H91.4738V230.891H91.3971L88.265 232.936V231.044L91.5313 228.909H93.4553ZM101.963 228.909V242H99.9816V230.891H99.9049L96.7728 232.936V231.044L100.039 228.909H101.963ZM106.033 242.121C105.684 242.121 105.383 241.998 105.132 241.751C104.881 241.499 104.755 241.197 104.755 240.843C104.755 240.494 104.881 240.195 105.132 239.948C105.383 239.697 105.684 239.571 106.033 239.571C106.383 239.571 106.683 239.697 106.935 239.948C107.186 240.195 107.312 240.494 107.312 240.843C107.312 241.077 107.252 241.293 107.133 241.489C107.018 241.68 106.864 241.834 106.672 241.949C106.481 242.064 106.268 242.121 106.033 242.121ZM113.929 242.217C112.919 242.213 112.056 241.947 111.34 241.418C110.624 240.89 110.077 240.121 109.698 239.111C109.318 238.101 109.129 236.884 109.129 235.461C109.129 234.042 109.318 232.83 109.698 231.824C110.081 230.818 110.631 230.051 111.347 229.523C112.067 228.994 112.928 228.73 113.929 228.73C114.93 228.73 115.789 228.996 116.505 229.529C117.221 230.058 117.769 230.825 118.148 231.83C118.531 232.832 118.723 234.042 118.723 235.461C118.723 236.888 118.533 238.107 118.154 239.117C117.775 240.123 117.227 240.892 116.511 241.425C115.796 241.953 114.935 242.217 113.929 242.217ZM113.929 240.511C114.815 240.511 115.508 240.078 116.006 239.213C116.509 238.348 116.761 237.097 116.761 235.461C116.761 234.374 116.646 233.456 116.416 232.706C116.19 231.952 115.864 231.381 115.438 230.993C115.016 230.601 114.513 230.405 113.929 230.405C113.047 230.405 112.354 230.839 111.852 231.709C111.349 232.578 111.095 233.829 111.091 235.461C111.091 236.552 111.204 237.474 111.43 238.229C111.66 238.979 111.986 239.548 112.408 239.935C112.83 240.319 113.337 240.511 113.929 240.511ZM120.991 242V240.568L125.42 235.979C125.893 235.48 126.283 235.043 126.59 234.668C126.901 234.289 127.133 233.929 127.287 233.588C127.44 233.247 127.517 232.885 127.517 232.501C127.517 232.067 127.415 231.692 127.21 231.376C127.006 231.057 126.726 230.812 126.373 230.641C126.019 230.467 125.621 230.379 125.177 230.379C124.709 230.379 124.3 230.475 123.95 230.667C123.601 230.859 123.332 231.129 123.145 231.479C122.957 231.828 122.864 232.237 122.864 232.706H120.978C120.978 231.909 121.161 231.212 121.528 230.616C121.894 230.019 122.397 229.557 123.036 229.229C123.675 228.896 124.402 228.73 125.216 228.73C126.038 228.73 126.763 228.894 127.389 229.222C128.02 229.546 128.512 229.989 128.866 230.552C129.219 231.11 129.396 231.741 129.396 232.444C129.396 232.93 129.305 233.405 129.121 233.869C128.942 234.334 128.629 234.852 128.182 235.423C127.734 235.989 127.112 236.678 126.315 237.487L123.714 240.21V240.306H129.607V242H120.991Z" fill="#424242"/>
<path d="M200.492 62V60.5682L204.921 55.9787C205.394 55.4801 205.784 55.0433 206.091 54.6683C206.402 54.2891 206.634 53.929 206.788 53.5881C206.941 53.2472 207.018 52.8849 207.018 52.5014C207.018 52.0668 206.916 51.6918 206.711 51.3764C206.507 51.0568 206.227 50.8118 205.874 50.6413C205.52 50.4666 205.122 50.3793 204.678 50.3793C204.21 50.3793 203.801 50.4751 203.451 50.6669C203.102 50.8587 202.833 51.1293 202.646 51.4787C202.458 51.8281 202.365 52.2372 202.365 52.706H200.479C200.479 51.9091 200.662 51.2124 201.029 50.6158C201.395 50.0192 201.898 49.5568 202.537 49.2287C203.176 48.8963 203.903 48.7301 204.717 48.7301C205.539 48.7301 206.264 48.8942 206.89 49.2223C207.521 49.5462 208.013 49.9893 208.367 50.5518C208.72 51.1101 208.897 51.7408 208.897 52.4439C208.897 52.9297 208.806 53.4048 208.622 53.8693C208.443 54.3338 208.13 54.8516 207.683 55.4226C207.235 55.9893 206.613 56.6776 205.816 57.4872L203.215 60.2102V60.3061H209.108V62H200.492ZM216.088 62.179C215.21 62.179 214.426 62.0277 213.736 61.7251C213.05 61.4226 212.507 61.0028 212.106 60.4659C211.71 59.9247 211.497 59.2983 211.467 58.5866H213.474C213.499 58.9744 213.629 59.3111 213.864 59.5966C214.102 59.8778 214.414 60.0952 214.797 60.2486C215.181 60.402 215.607 60.4787 216.075 60.4787C216.591 60.4787 217.047 60.3892 217.443 60.2102C217.844 60.0312 218.157 59.782 218.383 59.4624C218.609 59.1385 218.722 58.7656 218.722 58.3438C218.722 57.9048 218.609 57.5192 218.383 57.1868C218.161 56.8501 217.835 56.5859 217.405 56.3942C216.979 56.2024 216.463 56.1065 215.858 56.1065H214.752V54.4957H215.858C216.344 54.4957 216.77 54.4084 217.137 54.2337C217.507 54.0589 217.797 53.8161 218.006 53.505C218.215 53.1896 218.319 52.821 218.319 52.3991C218.319 51.9943 218.227 51.6428 218.044 51.3445C217.865 51.0419 217.61 50.8054 217.277 50.6349C216.949 50.4645 216.561 50.3793 216.114 50.3793C215.688 50.3793 215.289 50.4581 214.919 50.6158C214.552 50.7692 214.254 50.9908 214.024 51.2805C213.794 51.5661 213.67 51.9091 213.653 52.3097H211.742C211.763 51.6023 211.972 50.9801 212.368 50.4432C212.769 49.9062 213.297 49.4865 213.953 49.1839C214.61 48.8814 215.338 48.7301 216.139 48.7301C216.979 48.7301 217.703 48.8942 218.313 49.2223C218.926 49.5462 219.399 49.9787 219.732 50.5199C220.068 51.0611 220.235 51.6534 220.23 52.2969C220.235 53.0298 220.03 53.652 219.617 54.1634C219.208 54.6747 218.662 55.0178 217.98 55.1925V55.2947C218.85 55.4268 219.523 55.772 220 56.3303C220.482 56.8885 220.72 57.581 220.716 58.4077C220.72 59.1278 220.52 59.7734 220.115 60.3445C219.715 60.9155 219.167 61.3651 218.472 61.6932C217.778 62.017 216.983 62.179 216.088 62.179ZM224.03 62.1214C223.681 62.1214 223.381 61.9979 223.129 61.7507C222.878 61.4993 222.752 61.1967 222.752 60.843C222.752 60.4936 222.878 60.1953 223.129 59.9482C223.381 59.6967 223.681 59.571 224.03 59.571C224.38 59.571 224.68 59.6967 224.932 59.9482C225.183 60.1953 225.309 60.4936 225.309 60.843C225.309 61.0774 225.249 61.2926 225.13 61.4886C225.015 61.6804 224.861 61.8338 224.67 61.9489C224.478 62.0639 224.265 62.1214 224.03 62.1214ZM231.926 62.2173C230.916 62.2131 230.053 61.9467 229.337 61.4183C228.621 60.8899 228.074 60.1207 227.695 59.1108C227.315 58.1009 227.126 56.8842 227.126 55.4609C227.126 54.0419 227.315 52.8295 227.695 51.8239C228.078 50.8182 228.628 50.0511 229.344 49.5227C230.064 48.9943 230.925 48.7301 231.926 48.7301C232.928 48.7301 233.786 48.9964 234.502 49.5291C235.218 50.0575 235.766 50.8246 236.145 51.8303C236.528 52.8317 236.72 54.0419 236.72 55.4609C236.72 56.8885 236.531 58.1072 236.151 59.1172C235.772 60.1229 235.224 60.892 234.509 61.4247C233.793 61.9531 232.932 62.2173 231.926 62.2173ZM231.926 60.5107C232.813 60.5107 233.505 60.0781 234.004 59.2131C234.506 58.348 234.758 57.0973 234.758 55.4609C234.758 54.3743 234.643 53.456 234.413 52.706C234.187 51.9517 233.861 51.3807 233.435 50.9929C233.013 50.6009 232.51 50.4048 231.926 50.4048C231.044 50.4048 230.352 50.8395 229.849 51.7088C229.346 52.5781 229.092 53.8288 229.088 55.4609C229.088 56.5518 229.201 57.4744 229.427 58.2287C229.657 58.9787 229.983 59.5476 230.405 59.9354C230.827 60.3189 231.334 60.5107 231.926 60.5107ZM238.988 62V60.5682L243.417 55.9787C243.89 55.4801 244.28 55.0433 244.587 54.6683C244.898 54.2891 245.131 53.929 245.284 53.5881C245.437 53.2472 245.514 52.8849 245.514 52.5014C245.514 52.0668 245.412 51.6918 245.207 51.3764C245.003 51.0568 244.724 50.8118 244.37 50.6413C244.016 50.4666 243.618 50.3793 243.175 50.3793C242.706 50.3793 242.297 50.4751 241.947 50.6669C241.598 50.8587 241.329 51.1293 241.142 51.4787C240.954 51.8281 240.861 52.2372 240.861 52.706H238.975C238.975 51.9091 239.158 51.2124 239.525 50.6158C239.891 50.0192 240.394 49.5568 241.033 49.2287C241.672 48.8963 242.399 48.7301 243.213 48.7301C244.035 48.7301 244.76 48.8942 245.386 49.2223C246.017 49.5462 246.509 49.9893 246.863 50.5518C247.216 51.1101 247.393 51.7408 247.393 52.4439C247.393 52.9297 247.302 53.4048 247.118 53.8693C246.939 54.3338 246.626 54.8516 246.179 55.4226C245.731 55.9893 245.109 56.6776 244.312 57.4872L241.711 60.2102V60.3061H247.604V62H238.988Z" fill="#424242"/>
<path d="M315.58 62V60.5682L320.009 55.9787C320.482 55.4801 320.872 55.0433 321.179 54.6683C321.49 54.2891 321.722 53.929 321.876 53.5881C322.029 53.2472 322.106 52.8849 322.106 52.5014C322.106 52.0668 322.004 51.6918 321.799 51.3764C321.594 51.0568 321.315 50.8118 320.962 50.6413C320.608 50.4666 320.21 50.3793 319.766 50.3793C319.298 50.3793 318.888 50.4751 318.539 50.6669C318.19 50.8587 317.921 51.1293 317.734 51.4787C317.546 51.8281 317.452 52.2372 317.452 52.706H315.567C315.567 51.9091 315.75 51.2124 316.116 50.6158C316.483 50.0192 316.986 49.5568 317.625 49.2287C318.264 48.8963 318.991 48.7301 319.805 48.7301C320.627 48.7301 321.352 48.8942 321.978 49.2223C322.609 49.5462 323.101 49.9893 323.455 50.5518C323.808 51.1101 323.985 51.7408 323.985 52.4439C323.985 52.9297 323.893 53.4048 323.71 53.8693C323.531 54.3338 323.218 54.8516 322.771 55.4226C322.323 55.9893 321.701 56.6776 320.904 57.4872L318.303 60.2102V60.3061H324.196V62H315.58ZM326.619 62V60.5682L331.048 55.9787C331.521 55.4801 331.911 55.0433 332.218 54.6683C332.529 54.2891 332.761 53.929 332.915 53.5881C333.068 53.2472 333.145 52.8849 333.145 52.5014C333.145 52.0668 333.043 51.6918 332.838 51.3764C332.634 51.0568 332.354 50.8118 332.001 50.6413C331.647 50.4666 331.249 50.3793 330.805 50.3793C330.337 50.3793 329.928 50.4751 329.578 50.6669C329.229 50.8587 328.96 51.1293 328.773 51.4787C328.585 51.8281 328.491 52.2372 328.491 52.706H326.606C326.606 51.9091 326.789 51.2124 327.156 50.6158C327.522 50.0192 328.025 49.5568 328.664 49.2287C329.303 48.8963 330.03 48.7301 330.844 48.7301C331.666 48.7301 332.391 48.8942 333.017 49.2223C333.648 49.5462 334.14 49.9893 334.494 50.5518C334.847 51.1101 335.024 51.7408 335.024 52.4439C335.024 52.9297 334.933 53.4048 334.749 53.8693C334.57 54.3338 334.257 54.8516 333.81 55.4226C333.362 55.9893 332.74 56.6776 331.943 57.4872L329.342 60.2102V60.3061H335.235V62H326.619ZM338.942 62.1214C338.593 62.1214 338.293 61.9979 338.041 61.7507C337.79 61.4993 337.664 61.1967 337.664 60.843C337.664 60.4936 337.79 60.1953 338.041 59.9482C338.293 59.6967 338.593 59.571 338.942 59.571C339.292 59.571 339.592 59.6967 339.844 59.9482C340.095 60.1953 340.221 60.4936 340.221 60.843C340.221 61.0774 340.161 61.2926 340.042 61.4886C339.927 61.6804 339.773 61.8338 339.582 61.9489C339.39 62.0639 339.177 62.1214 338.942 62.1214ZM346.838 62.2173C345.828 62.2131 344.965 61.9467 344.249 61.4183C343.534 60.8899 342.986 60.1207 342.607 59.1108C342.227 58.1009 342.038 56.8842 342.038 55.4609C342.038 54.0419 342.227 52.8295 342.607 51.8239C342.99 50.8182 343.54 50.0511 344.256 49.5227C344.976 48.9943 345.837 48.7301 346.838 48.7301C347.84 48.7301 348.698 48.9964 349.414 49.5291C350.13 50.0575 350.678 50.8246 351.057 51.8303C351.441 52.8317 351.632 54.0419 351.632 55.4609C351.632 56.8885 351.443 58.1072 351.063 59.1172C350.684 60.1229 350.137 60.892 349.421 61.4247C348.705 61.9531 347.844 62.2173 346.838 62.2173ZM346.838 60.5107C347.725 60.5107 348.417 60.0781 348.916 59.2131C349.419 58.348 349.67 57.0973 349.67 55.4609C349.67 54.3743 349.555 53.456 349.325 52.706C349.099 51.9517 348.773 51.3807 348.347 50.9929C347.925 50.6009 347.422 50.4048 346.838 50.4048C345.956 50.4048 345.264 50.8395 344.761 51.7088C344.258 52.5781 344.004 53.8288 344 55.4609C344 56.5518 344.113 57.4744 344.339 58.2287C344.569 58.9787 344.895 59.5476 345.317 59.9354C345.739 60.3189 346.246 60.5107 346.838 60.5107ZM353.9 62V60.5682L358.33 55.9787C358.803 55.4801 359.192 55.0433 359.499 54.6683C359.81 54.2891 360.043 53.929 360.196 53.5881C360.349 53.2472 360.426 52.8849 360.426 52.5014C360.426 52.0668 360.324 51.6918 360.119 51.3764C359.915 51.0568 359.636 50.8118 359.282 50.6413C358.928 50.4666 358.53 50.3793 358.087 50.3793C357.618 50.3793 357.209 50.4751 356.859 50.6669C356.51 50.8587 356.241 51.1293 356.054 51.4787C355.866 51.8281 355.773 52.2372 355.773 52.706H353.887C353.887 51.9091 354.07 51.2124 354.437 50.6158C354.803 50.0192 355.306 49.5568 355.945 49.2287C356.585 48.8963 357.311 48.7301 358.125 48.7301C358.947 48.7301 359.672 48.8942 360.298 49.2223C360.929 49.5462 361.421 49.9893 361.775 50.5518C362.129 51.1101 362.305 51.7408 362.305 52.4439C362.305 52.9297 362.214 53.4048 362.031 53.8693C361.852 54.3338 361.538 54.8516 361.091 55.4226C360.643 55.9893 360.021 56.6776 359.224 57.4872L356.623 60.2102V60.3061H362.516V62H353.9Z" fill="#424242"/>
<path d="M321.724 228.909V242H319.742V230.891H319.666L316.534 232.936V231.044L319.8 228.909H321.724ZM329.823 242.179C328.945 242.179 328.161 242.028 327.47 241.725C326.784 241.423 326.241 241.003 325.84 240.466C325.444 239.925 325.231 239.298 325.201 238.587H327.208C327.234 238.974 327.364 239.311 327.598 239.597C327.837 239.878 328.148 240.095 328.531 240.249C328.915 240.402 329.341 240.479 329.81 240.479C330.325 240.479 330.781 240.389 331.178 240.21C331.578 240.031 331.892 239.782 332.117 239.462C332.343 239.138 332.456 238.766 332.456 238.344C332.456 237.905 332.343 237.519 332.117 237.187C331.896 236.85 331.57 236.586 331.139 236.394C330.713 236.202 330.198 236.107 329.593 236.107H328.487V234.496H329.593C330.078 234.496 330.504 234.408 330.871 234.234C331.242 234.059 331.531 233.816 331.74 233.505C331.949 233.19 332.053 232.821 332.053 232.399C332.053 231.994 331.962 231.643 331.779 231.344C331.6 231.042 331.344 230.805 331.012 230.635C330.683 230.464 330.296 230.379 329.848 230.379C329.422 230.379 329.024 230.458 328.653 230.616C328.286 230.769 327.988 230.991 327.758 231.281C327.528 231.566 327.404 231.909 327.387 232.31H325.476C325.497 231.602 325.706 230.98 326.102 230.443C326.503 229.906 327.031 229.487 327.688 229.184C328.344 228.881 329.073 228.73 329.874 228.73C330.713 228.73 331.438 228.894 332.047 229.222C332.661 229.546 333.134 229.979 333.466 230.52C333.803 231.061 333.969 231.653 333.965 232.297C333.969 233.03 333.764 233.652 333.351 234.163C332.942 234.675 332.396 235.018 331.715 235.192V235.295C332.584 235.427 333.257 235.772 333.735 236.33C334.216 236.888 334.455 237.581 334.45 238.408C334.455 239.128 334.254 239.773 333.85 240.344C333.449 240.915 332.901 241.365 332.207 241.693C331.512 242.017 330.718 242.179 329.823 242.179ZM337.765 242.121C337.415 242.121 337.115 241.998 336.863 241.751C336.612 241.499 336.486 241.197 336.486 240.843C336.486 240.494 336.612 240.195 336.863 239.948C337.115 239.697 337.415 239.571 337.765 239.571C338.114 239.571 338.415 239.697 338.666 239.948C338.917 240.195 339.043 240.494 339.043 240.843C339.043 241.077 338.983 241.293 338.864 241.489C338.749 241.68 338.596 241.834 338.404 241.949C338.212 242.064 337.999 242.121 337.765 242.121ZM345.661 242.217C344.651 242.213 343.788 241.947 343.072 241.418C342.356 240.89 341.808 240.121 341.429 239.111C341.05 238.101 340.86 236.884 340.86 235.461C340.86 234.042 341.05 232.83 341.429 231.824C341.813 230.818 342.362 230.051 343.078 229.523C343.798 228.994 344.659 228.73 345.661 228.73C346.662 228.73 347.521 228.996 348.237 229.529C348.952 230.058 349.5 230.825 349.879 231.83C350.263 232.832 350.455 234.042 350.455 235.461C350.455 236.888 350.265 238.107 349.886 239.117C349.506 240.123 348.959 240.892 348.243 241.425C347.527 241.953 346.666 242.217 345.661 242.217ZM345.661 240.511C346.547 240.511 347.239 240.078 347.738 239.213C348.241 238.348 348.492 237.097 348.492 235.461C348.492 234.374 348.377 233.456 348.147 232.706C347.921 231.952 347.595 231.381 347.169 230.993C346.747 230.601 346.244 230.405 345.661 230.405C344.778 230.405 344.086 230.839 343.583 231.709C343.08 232.578 342.827 233.829 342.822 235.461C342.822 236.552 342.935 237.474 343.161 238.229C343.391 238.979 343.717 239.548 344.139 239.935C344.561 240.319 345.068 240.511 345.661 240.511ZM352.722 242V240.568L357.152 235.979C357.625 235.48 358.015 235.043 358.322 234.668C358.633 234.289 358.865 233.929 359.018 233.588C359.172 233.247 359.248 232.885 359.248 232.501C359.248 232.067 359.146 231.692 358.942 231.376C358.737 231.057 358.458 230.812 358.104 230.641C357.751 230.467 357.352 230.379 356.909 230.379C356.44 230.379 356.031 230.475 355.682 230.667C355.332 230.859 355.064 231.129 354.876 231.479C354.689 231.828 354.595 232.237 354.595 232.706H352.709C352.709 231.909 352.893 231.212 353.259 230.616C353.626 230.019 354.128 229.557 354.768 229.229C355.407 228.896 356.133 228.73 356.947 228.73C357.77 228.73 358.494 228.894 359.121 229.222C359.751 229.546 360.243 229.989 360.597 230.552C360.951 231.11 361.128 231.741 361.128 232.444C361.128 232.93 361.036 233.405 360.853 233.869C360.674 234.334 360.361 234.852 359.913 235.423C359.466 235.989 358.844 236.678 358.047 237.487L355.445 240.21V240.306H361.339V242H352.722Z" fill="#424242"/>
<path d="M276.386 357V343.909H281.053C282.071 343.909 282.915 344.094 283.584 344.465C284.253 344.836 284.754 345.343 285.086 345.987C285.418 346.626 285.585 347.346 285.585 348.147C285.585 348.952 285.416 349.677 285.08 350.32C284.747 350.96 284.244 351.467 283.571 351.842C282.902 352.212 282.06 352.398 281.046 352.398H277.837V350.723H280.867C281.511 350.723 282.033 350.612 282.433 350.391C282.834 350.165 283.128 349.858 283.315 349.47C283.503 349.082 283.597 348.641 283.597 348.147C283.597 347.653 283.503 347.214 283.315 346.83C283.128 346.447 282.832 346.146 282.427 345.929C282.026 345.712 281.498 345.603 280.842 345.603H278.362V357H276.386ZM287.617 357H285.521L290.232 343.909H292.514L297.225 357H295.128L291.427 346.287H291.325L287.617 357ZM287.969 351.874H294.77V353.536H287.969V351.874ZM307.359 348.045C307.236 347.657 307.069 347.31 306.861 347.003C306.656 346.692 306.411 346.428 306.125 346.21C305.84 345.989 305.514 345.82 305.147 345.705C304.785 345.59 304.387 345.533 303.952 345.533C303.215 345.533 302.55 345.722 301.958 346.102C301.366 346.481 300.897 347.037 300.552 347.77C300.211 348.499 300.04 349.391 300.04 350.448C300.04 351.509 300.213 352.406 300.558 353.139C300.903 353.872 301.376 354.428 301.977 354.808C302.578 355.187 303.262 355.376 304.029 355.376C304.741 355.376 305.361 355.232 305.889 354.942C306.422 354.652 306.833 354.243 307.123 353.714C307.417 353.182 307.564 352.555 307.564 351.835L308.075 351.931H304.329V350.301H309.475V351.79C309.475 352.89 309.241 353.844 308.772 354.654C308.307 355.46 307.664 356.082 306.841 356.521C306.023 356.96 305.086 357.179 304.029 357.179C302.844 357.179 301.804 356.906 300.91 356.361C300.019 355.815 299.324 355.042 298.826 354.04C298.327 353.035 298.078 351.842 298.078 350.461C298.078 349.417 298.223 348.479 298.513 347.648C298.802 346.817 299.209 346.112 299.733 345.533C300.262 344.949 300.882 344.504 301.593 344.197C302.309 343.886 303.091 343.73 303.939 343.73C304.647 343.73 305.305 343.835 305.915 344.043C306.528 344.252 307.074 344.548 307.551 344.932C308.032 345.315 308.431 345.771 308.746 346.3C309.062 346.824 309.275 347.406 309.385 348.045H307.359ZM316.77 343.909V357H314.788V345.891H314.712L311.579 347.936V346.044L314.846 343.909H316.77Z" fill="#424242"/>
<path d="M437.189 228.909V242H435.207V230.891H435.131L431.998 232.936V231.044L435.265 228.909H437.189ZM440.455 239.443V237.845L446.112 228.909H447.371V231.261H446.572L442.526 237.666V237.768H450.28V239.443H440.455ZM446.662 242V238.957L446.675 238.229V228.909H448.547V242H446.662ZM453.3 242.121C452.95 242.121 452.65 241.998 452.399 241.751C452.147 241.499 452.021 241.197 452.021 240.843C452.021 240.494 452.147 240.195 452.399 239.948C452.65 239.697 452.95 239.571 453.3 239.571C453.649 239.571 453.95 239.697 454.201 239.948C454.453 240.195 454.578 240.494 454.578 240.843C454.578 241.077 454.519 241.293 454.399 241.489C454.284 241.68 454.131 241.834 453.939 241.949C453.747 242.064 453.534 242.121 453.3 242.121ZM461.196 242.217C460.186 242.213 459.323 241.947 458.607 241.418C457.891 240.89 457.343 240.121 456.964 239.111C456.585 238.101 456.395 236.884 456.395 235.461C456.395 234.042 456.585 232.83 456.964 231.824C457.348 230.818 457.897 230.051 458.613 229.523C459.333 228.994 460.194 228.73 461.196 228.73C462.197 228.73 463.056 228.996 463.772 229.529C464.488 230.058 465.035 230.825 465.414 231.83C465.798 232.832 465.99 234.042 465.99 235.461C465.99 236.888 465.8 238.107 465.421 239.117C465.042 240.123 464.494 240.892 463.778 241.425C463.062 241.953 462.201 242.217 461.196 242.217ZM461.196 240.511C462.082 240.511 462.775 240.078 463.273 239.213C463.776 238.348 464.027 237.097 464.027 235.461C464.027 234.374 463.912 233.456 463.682 232.706C463.456 231.952 463.13 231.381 462.704 230.993C462.282 230.601 461.779 230.405 461.196 230.405C460.314 230.405 459.621 230.839 459.118 231.709C458.615 232.578 458.362 233.829 458.358 235.461C458.358 236.552 458.471 237.474 458.696 238.229C458.926 238.979 459.252 239.548 459.674 239.935C460.096 240.319 460.603 240.511 461.196 240.511ZM468.257 242V240.568L472.687 235.979C473.16 235.48 473.55 235.043 473.857 234.668C474.168 234.289 474.4 233.929 474.553 233.588C474.707 233.247 474.784 232.885 474.784 232.501C474.784 232.067 474.681 231.692 474.477 231.376C474.272 231.057 473.993 230.812 473.639 230.641C473.286 230.467 472.887 230.379 472.444 230.379C471.975 230.379 471.566 230.475 471.217 230.667C470.867 230.859 470.599 231.129 470.411 231.479C470.224 231.828 470.13 232.237 470.13 232.706H468.244C468.244 231.909 468.428 231.212 468.794 230.616C469.161 230.019 469.664 229.557 470.303 229.229C470.942 228.896 471.669 228.73 472.482 228.73C473.305 228.73 474.029 228.894 474.656 229.222C475.286 229.546 475.779 229.989 476.132 230.552C476.486 231.11 476.663 231.741 476.663 232.444C476.663 232.93 476.571 233.405 476.388 233.869C476.209 234.334 475.896 234.852 475.448 235.423C475.001 235.989 474.379 236.678 473.582 237.487L470.98 240.21V240.306H476.874V242H468.257Z" fill="#424242"/>
<path d="M432.723 62V60.5682L437.153 55.9787C437.626 55.4801 438.016 55.0433 438.323 54.6683C438.634 54.2891 438.866 53.929 439.019 53.5881C439.173 53.2472 439.249 52.8849 439.249 52.5014C439.249 52.0668 439.147 51.6918 438.943 51.3764C438.738 51.0568 438.459 50.8118 438.105 50.6413C437.752 50.4666 437.353 50.3793 436.91 50.3793C436.441 50.3793 436.032 50.4751 435.683 50.6669C435.333 50.8587 435.065 51.1293 434.877 51.4787C434.69 51.8281 434.596 52.2372 434.596 52.706H432.71C432.71 51.9091 432.894 51.2124 433.26 50.6158C433.627 50.0192 434.129 49.5568 434.769 49.2287C435.408 48.8963 436.134 48.7301 436.948 48.7301C437.771 48.7301 438.495 48.8942 439.122 49.2223C439.752 49.5462 440.244 49.9893 440.598 50.5518C440.952 51.1101 441.129 51.7408 441.129 52.4439C441.129 52.9297 441.037 53.4048 440.854 53.8693C440.675 54.3338 440.362 54.8516 439.914 55.4226C439.467 55.9893 438.845 56.6776 438.048 57.4872L435.446 60.2102V60.3061H441.34V62H432.723ZM448.729 48.9091V62H446.747V50.8906H446.671L443.538 52.9361V51.044L446.805 48.9091H448.729ZM452.799 62.1214C452.449 62.1214 452.149 61.9979 451.898 61.7507C451.646 61.4993 451.521 61.1967 451.521 60.843C451.521 60.4936 451.646 60.1953 451.898 59.9482C452.149 59.6967 452.449 59.571 452.799 59.571C453.148 59.571 453.449 59.6967 453.7 59.9482C453.952 60.1953 454.077 60.4936 454.077 60.843C454.077 61.0774 454.018 61.2926 453.898 61.4886C453.783 61.6804 453.63 61.8338 453.438 61.9489C453.246 62.0639 453.033 62.1214 452.799 62.1214ZM460.695 62.2173C459.685 62.2131 458.822 61.9467 458.106 61.4183C457.39 60.8899 456.842 60.1207 456.463 59.1108C456.084 58.1009 455.894 56.8842 455.894 55.4609C455.894 54.0419 456.084 52.8295 456.463 51.8239C456.847 50.8182 457.396 50.0511 458.112 49.5227C458.832 48.9943 459.693 48.7301 460.695 48.7301C461.696 48.7301 462.555 48.9964 463.271 49.5291C463.987 50.0575 464.534 50.8246 464.913 51.8303C465.297 52.8317 465.489 54.0419 465.489 55.4609C465.489 56.8885 465.299 58.1072 464.92 59.1172C464.541 60.1229 463.993 60.892 463.277 61.4247C462.561 61.9531 461.7 62.2173 460.695 62.2173ZM460.695 60.5107C461.581 60.5107 462.274 60.0781 462.772 59.2131C463.275 58.348 463.526 57.0973 463.526 55.4609C463.526 54.3743 463.411 53.456 463.181 52.706C462.955 51.9517 462.629 51.3807 462.203 50.9929C461.781 50.6009 461.278 50.4048 460.695 50.4048C459.813 50.4048 459.12 50.8395 458.617 51.7088C458.114 52.5781 457.861 53.8288 457.857 55.4609C457.857 56.5518 457.97 57.4744 458.195 58.2287C458.426 58.9787 458.752 59.5476 459.173 59.9354C459.595 60.3189 460.102 60.5107 460.695 60.5107ZM467.756 62V60.5682L472.186 55.9787C472.659 55.4801 473.049 55.0433 473.356 54.6683C473.667 54.2891 473.899 53.929 474.052 53.5881C474.206 53.2472 474.283 52.8849 474.283 52.5014C474.283 52.0668 474.18 51.6918 473.976 51.3764C473.771 51.0568 473.492 50.8118 473.138 50.6413C472.785 50.4666 472.386 50.3793 471.943 50.3793C471.474 50.3793 471.065 50.4751 470.716 50.6669C470.366 50.8587 470.098 51.1293 469.91 51.4787C469.723 51.8281 469.629 52.2372 469.629 52.706H467.744C467.744 51.9091 467.927 51.2124 468.293 50.6158C468.66 50.0192 469.163 49.5568 469.802 49.2287C470.441 48.8963 471.168 48.7301 471.981 48.7301C472.804 48.7301 473.528 48.8942 474.155 49.2223C474.785 49.5462 475.278 49.9893 475.631 50.5518C475.985 51.1101 476.162 51.7408 476.162 52.4439C476.162 52.9297 476.07 53.4048 475.887 53.8693C475.708 54.3338 475.395 54.8516 474.947 55.4226C474.5 55.9893 473.878 56.6776 473.081 57.4872L470.479 60.2102V60.3061H476.373V62H467.756Z" fill="#424242"/>
<path d="M53 47L165 227V243L53 63V47Z" fill="#CDCDCD"/>
<path d="M168 227L238 342V358L168 243V227Z" fill="#CDCDCD"/>
<rect x="283" y="76" width="112" height="3" fill="black"/>
<rect x="283" y="211" width="112" height="3" fill="black"/>
<path d="M323.543 143C323.509 142.574 323.349 142.241 323.064 142.003C322.782 141.764 322.354 141.645 321.779 141.645C321.412 141.645 321.112 141.69 320.878 141.779C320.648 141.864 320.477 141.982 320.366 142.131C320.256 142.28 320.198 142.45 320.194 142.642C320.185 142.8 320.213 142.942 320.277 143.07C320.345 143.194 320.452 143.307 320.596 143.409C320.741 143.507 320.927 143.597 321.153 143.678C321.378 143.759 321.647 143.831 321.958 143.895L323.032 144.125C323.756 144.278 324.376 144.481 324.892 144.732C325.407 144.984 325.829 145.28 326.157 145.621C326.486 145.957 326.726 146.337 326.88 146.759C327.037 147.18 327.118 147.641 327.123 148.139C327.118 149 326.903 149.729 326.477 150.325C326.051 150.922 325.442 151.376 324.649 151.687C323.861 151.998 322.912 152.153 321.805 152.153C320.667 152.153 319.674 151.985 318.826 151.648C317.982 151.312 317.326 150.794 316.857 150.095C316.393 149.392 316.158 148.493 316.154 147.398H319.529C319.55 147.798 319.65 148.135 319.829 148.408C320.008 148.68 320.26 148.887 320.584 149.028C320.912 149.168 321.302 149.239 321.753 149.239C322.133 149.239 322.45 149.192 322.706 149.098C322.961 149.004 323.155 148.874 323.287 148.708C323.42 148.542 323.488 148.352 323.492 148.139C323.488 147.939 323.422 147.764 323.294 147.615C323.17 147.462 322.966 147.325 322.68 147.206C322.395 147.082 322.009 146.967 321.523 146.861L320.219 146.58C319.06 146.328 318.146 145.908 317.477 145.32C316.812 144.728 316.482 143.92 316.486 142.898C316.482 142.067 316.704 141.34 317.151 140.718C317.603 140.092 318.227 139.604 319.024 139.254C319.825 138.905 320.743 138.73 321.779 138.73C322.836 138.73 323.75 138.907 324.521 139.261C325.292 139.614 325.887 140.113 326.305 140.756C326.726 141.396 326.939 142.143 326.944 143H323.543ZM328.117 141.773V138.909H339.494V141.773H335.557V152H332.054V141.773H328.117ZM347.326 144.125V146.784H341.19V144.125H347.326ZM362.057 145.455C362.057 146.912 361.773 148.141 361.207 149.143C360.64 150.14 359.875 150.896 358.912 151.412C357.949 151.923 356.875 152.179 355.69 152.179C354.497 152.179 353.419 151.921 352.456 151.406C351.497 150.886 350.734 150.127 350.168 149.13C349.605 148.129 349.324 146.903 349.324 145.455C349.324 143.997 349.605 142.77 350.168 141.773C350.734 140.771 351.497 140.015 352.456 139.504C353.419 138.988 354.497 138.73 355.69 138.73C356.875 138.73 357.949 138.988 358.912 139.504C359.875 140.015 360.64 140.771 361.207 141.773C361.773 142.77 362.057 143.997 362.057 145.455ZM358.401 145.455C358.401 144.67 358.296 144.01 358.087 143.473C357.883 142.932 357.578 142.523 357.173 142.246C356.773 141.964 356.278 141.824 355.69 141.824C355.102 141.824 354.606 141.964 354.201 142.246C353.8 142.523 353.496 142.932 353.287 143.473C353.082 144.01 352.98 144.67 352.98 145.455C352.98 146.239 353.082 146.901 353.287 147.442C353.496 147.979 353.8 148.388 354.201 148.67C354.606 148.947 355.102 149.085 355.69 149.085C356.278 149.085 356.773 148.947 357.173 148.67C357.578 148.388 357.883 147.979 358.087 147.442C358.296 146.901 358.401 146.239 358.401 145.455Z" fill="black"/>
<path d="M120 177.5L109 159.5L98 177.5H120Z" fill="#B1B1B1"/>
<path d="M235 357.5L224 339.5L213 357.5H235Z" fill="#B1B1B1"/>
<path d="M120 114.5L109 132.5L98 114.5H120Z" fill="#B1B1B1"/>
<path d="M235 294.5L224 312.5L213 294.5H235Z" fill="#B1B1B1"/>
<path d="M220.5 205V214H174L168 209.5L174 205H220.5Z" fill="#B1B1B1"/>
<circle cx="3" cy="3" r="3" transform="matrix(-1 0 0 1 181.5 206.5)" fill="#00FF19"/>
<path d="M362.069 259.045C362.044 258.812 361.94 258.631 361.755 258.502C361.572 258.372 361.334 258.307 361.041 258.307C360.835 258.307 360.659 258.338 360.511 258.4C360.364 258.463 360.251 258.547 360.173 258.653C360.095 258.76 360.055 258.882 360.053 259.018C360.053 259.132 360.079 259.23 360.13 259.314C360.184 259.397 360.255 259.468 360.346 259.527C360.437 259.584 360.537 259.632 360.647 259.671C360.757 259.71 360.868 259.743 360.98 259.769L361.491 259.897C361.697 259.945 361.895 260.01 362.085 260.092C362.277 260.173 362.448 260.276 362.599 260.401C362.752 260.525 362.873 260.675 362.961 260.851C363.05 261.026 363.095 261.232 363.095 261.469C363.095 261.788 363.013 262.07 362.85 262.313C362.686 262.554 362.45 262.743 362.141 262.88C361.834 263.015 361.462 263.083 361.025 263.083C360.601 263.083 360.232 263.017 359.92 262.885C359.609 262.754 359.366 262.562 359.19 262.31C359.016 262.058 358.922 261.751 358.908 261.389H359.88C359.894 261.579 359.953 261.737 360.056 261.863C360.159 261.989 360.293 262.083 360.458 262.145C360.625 262.207 360.811 262.238 361.017 262.238C361.232 262.238 361.42 262.206 361.582 262.142C361.745 262.077 361.873 261.986 361.965 261.871C362.058 261.754 362.105 261.617 362.106 261.461C362.105 261.319 362.063 261.201 361.981 261.109C361.9 261.015 361.785 260.937 361.638 260.875C361.492 260.811 361.322 260.754 361.126 260.704L360.506 260.544C360.057 260.429 359.701 260.254 359.44 260.02C359.181 259.784 359.052 259.47 359.052 259.08C359.052 258.758 359.139 258.477 359.313 258.235C359.488 257.994 359.727 257.806 360.029 257.673C360.331 257.538 360.673 257.471 361.054 257.471C361.442 257.471 361.781 257.538 362.072 257.673C362.365 257.806 362.595 257.992 362.762 258.23C362.929 258.466 363.015 258.738 363.02 259.045H362.069ZM366.141 257.545V263H365.153V258.507H365.121L363.845 259.322V258.416L365.201 257.545H366.141ZM372.248 259.386H371.252C371.223 259.222 371.171 259.078 371.095 258.952C371.018 258.824 370.923 258.716 370.81 258.627C370.696 258.538 370.566 258.471 370.421 258.427C370.277 258.381 370.122 258.358 369.955 258.358C369.658 258.358 369.395 258.432 369.166 258.581C368.937 258.729 368.758 258.945 368.628 259.231C368.499 259.515 368.434 259.863 368.434 260.273C368.434 260.69 368.499 261.042 368.628 261.327C368.76 261.612 368.939 261.826 369.166 261.972C369.395 262.116 369.657 262.188 369.952 262.188C370.115 262.188 370.268 262.166 370.41 262.124C370.554 262.079 370.683 262.015 370.796 261.929C370.912 261.844 371.009 261.739 371.087 261.615C371.167 261.491 371.222 261.349 371.252 261.189L372.248 261.194C372.211 261.453 372.13 261.697 372.006 261.924C371.883 262.151 371.722 262.352 371.523 262.526C371.325 262.698 371.092 262.833 370.826 262.931C370.559 263.027 370.264 263.075 369.939 263.075C369.459 263.075 369.031 262.964 368.655 262.742C368.279 262.52 367.982 262.199 367.765 261.78C367.549 261.361 367.441 260.859 367.441 260.273C367.441 259.685 367.55 259.183 367.768 258.765C367.987 258.346 368.284 258.026 368.66 257.804C369.037 257.582 369.463 257.471 369.939 257.471C370.242 257.471 370.525 257.513 370.786 257.599C371.047 257.684 371.279 257.809 371.483 257.974C371.688 258.138 371.855 258.338 371.987 258.576C372.12 258.812 372.207 259.082 372.248 259.386ZM375.057 263.075C374.674 263.075 374.333 263.009 374.034 262.877C373.738 262.746 373.503 262.563 373.331 262.329C373.159 262.094 373.068 261.824 373.057 261.517H374.058C374.067 261.664 374.116 261.793 374.205 261.903C374.294 262.011 374.412 262.095 374.559 262.156C374.706 262.216 374.871 262.246 375.054 262.246C375.25 262.246 375.423 262.213 375.574 262.145C375.725 262.076 375.843 261.98 375.928 261.857C376.013 261.735 376.055 261.594 376.053 261.434C376.055 261.269 376.012 261.123 375.925 260.997C375.838 260.871 375.712 260.773 375.547 260.702C375.384 260.631 375.187 260.595 374.956 260.595H374.474V259.833H374.956C375.146 259.833 375.312 259.8 375.454 259.735C375.598 259.669 375.71 259.577 375.792 259.458C375.874 259.337 375.914 259.198 375.912 259.04C375.914 258.885 375.879 258.751 375.808 258.637C375.739 258.522 375.64 258.432 375.512 258.368C375.386 258.305 375.238 258.273 375.068 258.273C374.901 258.273 374.746 258.303 374.604 258.363C374.462 258.423 374.348 258.51 374.261 258.621C374.174 258.732 374.128 258.863 374.122 259.016H373.171C373.178 258.71 373.266 258.442 373.435 258.211C373.606 257.979 373.833 257.798 374.117 257.668C374.401 257.537 374.72 257.471 375.073 257.471C375.437 257.471 375.753 257.539 376.021 257.676C376.291 257.811 376.5 257.993 376.647 258.222C376.794 258.451 376.868 258.704 376.868 258.981C376.87 259.288 376.779 259.546 376.596 259.753C376.415 259.961 376.177 260.097 375.883 260.161V260.203C376.266 260.257 376.56 260.399 376.764 260.63C376.97 260.859 377.072 261.144 377.071 261.485C377.071 261.79 376.984 262.063 376.81 262.305C376.637 262.545 376.399 262.733 376.096 262.869C375.794 263.006 375.448 263.075 375.057 263.075Z" fill="black"/>
<path d="M360.678 28.0449C360.653 27.8123 360.548 27.6312 360.363 27.5016C360.18 27.372 359.943 27.3072 359.65 27.3072C359.444 27.3072 359.267 27.3382 359.12 27.4004C358.972 27.4625 358.859 27.5469 358.781 27.6534C358.703 27.7599 358.663 27.8816 358.661 28.0183C358.661 28.1319 358.687 28.2305 358.739 28.3139C358.792 28.3974 358.864 28.4684 358.954 28.527C359.045 28.5838 359.145 28.6317 359.255 28.6708C359.365 28.7099 359.476 28.7427 359.588 28.7694L360.1 28.8972C360.306 28.9451 360.504 29.0099 360.694 29.0916C360.885 29.1733 361.057 29.2763 361.208 29.4006C361.36 29.5249 361.481 29.6749 361.57 29.8507C361.659 30.0265 361.703 30.2324 361.703 30.4686C361.703 30.7882 361.621 31.0696 361.458 31.3129C361.295 31.5543 361.058 31.7434 360.75 31.8801C360.442 32.0151 360.07 32.0826 359.634 32.0826C359.209 32.0826 358.841 32.0169 358.528 31.8855C358.218 31.7541 357.974 31.5623 357.799 31.3102C357.625 31.0581 357.53 30.7509 357.516 30.3887H358.488C358.503 30.5787 358.561 30.7367 358.664 30.8627C358.767 30.9888 358.901 31.0829 359.066 31.1451C359.233 31.2072 359.42 31.2383 359.626 31.2383C359.84 31.2383 360.029 31.2063 360.19 31.1424C360.354 31.0767 360.481 30.9862 360.574 30.8707C360.666 30.7536 360.713 30.6168 360.715 30.4606C360.713 30.3185 360.671 30.2013 360.59 30.109C360.508 30.0149 360.394 29.9368 360.246 29.8746C360.101 29.8107 359.93 29.7539 359.735 29.7042L359.114 29.5444C358.665 29.429 358.31 29.2541 358.049 29.0197C357.79 28.7836 357.66 28.4702 357.66 28.0795C357.66 27.7582 357.747 27.4767 357.921 27.2353C358.097 26.9938 358.336 26.8065 358.637 26.6733C358.939 26.5384 359.281 26.4709 359.663 26.4709C360.05 26.4709 360.389 26.5384 360.68 26.6733C360.973 26.8065 361.203 26.992 361.37 27.2299C361.537 27.4661 361.623 27.7377 361.628 28.0449H360.678ZM362.432 30.9879V30.2022L364.747 26.5455H365.402V27.6641H365.002L363.444 30.133V30.1756H366.675V30.9879H362.432ZM365.034 32V30.7482L365.045 30.3967V26.5455H365.977V32H365.034ZM372.248 28.3858H371.252C371.223 28.2225 371.171 28.0778 371.095 27.9517C371.018 27.8239 370.923 27.7156 370.81 27.6268C370.696 27.538 370.566 27.4714 370.421 27.427C370.277 27.3809 370.122 27.3578 369.955 27.3578C369.658 27.3578 369.395 27.4324 369.166 27.5815C368.937 27.7289 368.758 27.9455 368.628 28.2314C368.499 28.5154 368.434 28.8626 368.434 29.2727C368.434 29.69 368.499 30.0415 368.628 30.3274C368.76 30.6115 368.939 30.8263 369.166 30.9719C369.395 31.1158 369.657 31.1877 369.952 31.1877C370.115 31.1877 370.268 31.1664 370.41 31.1238C370.554 31.0794 370.683 31.0146 370.796 30.9293C370.912 30.8441 371.009 30.7393 371.087 30.6151C371.167 30.4908 371.222 30.3487 371.252 30.1889L372.248 30.1942C372.211 30.4535 372.13 30.6967 372.006 30.924C371.883 31.1513 371.722 31.3519 371.523 31.5259C371.325 31.6982 371.092 31.8331 370.826 31.9308C370.559 32.0266 370.264 32.0746 369.939 32.0746C369.459 32.0746 369.031 31.9636 368.655 31.7417C368.279 31.5197 367.982 31.1992 367.765 30.7802C367.549 30.3612 367.441 29.8587 367.441 29.2727C367.441 28.685 367.55 28.1825 367.768 27.7653C367.987 27.3462 368.284 27.0257 368.66 26.8038C369.037 26.5819 369.463 26.4709 369.939 26.4709C370.242 26.4709 370.525 26.5135 370.786 26.5987C371.047 26.6839 371.279 26.8091 371.483 26.9743C371.688 27.1376 371.855 27.3382 371.987 27.5762C372.12 27.8123 372.207 28.0822 372.248 28.3858ZM375.057 32.0746C374.674 32.0746 374.333 32.0089 374.034 31.8775C373.738 31.7461 373.503 31.5632 373.331 31.3288C373.159 31.0945 373.068 30.8237 373.057 30.5165H374.058C374.067 30.6639 374.116 30.7926 374.205 30.9027C374.294 31.011 374.412 31.0953 374.559 31.1557C374.706 31.2161 374.871 31.2463 375.054 31.2463C375.25 31.2463 375.423 31.2125 375.574 31.1451C375.725 31.0758 375.843 30.9799 375.928 30.8574C376.013 30.7349 376.055 30.5937 376.053 30.4339C376.055 30.2688 376.012 30.1232 375.925 29.9972C375.838 29.8711 375.712 29.7725 375.547 29.7015C375.384 29.6305 375.187 29.595 374.956 29.595H374.474V28.8333H374.956C375.146 28.8333 375.312 28.8004 375.454 28.7347C375.598 28.669 375.71 28.5767 375.792 28.4577C375.874 28.337 375.914 28.1976 375.912 28.0396C375.914 27.8851 375.879 27.7511 375.808 27.6374C375.739 27.522 375.64 27.4324 375.512 27.3684C375.386 27.3045 375.238 27.2725 375.068 27.2725C374.901 27.2725 374.746 27.3027 374.604 27.3631C374.462 27.4235 374.348 27.5096 374.261 27.6214C374.174 27.7315 374.128 27.8629 374.122 28.0156H373.171C373.178 27.7102 373.266 27.4421 373.435 27.2113C373.606 26.9787 373.833 26.7976 374.117 26.668C374.401 26.5366 374.72 26.4709 375.073 26.4709C375.437 26.4709 375.753 26.5392 376.021 26.676C376.291 26.8109 376.5 26.9929 376.647 27.2219C376.794 27.451 376.868 27.704 376.868 27.981C376.87 28.2882 376.779 28.5456 376.596 28.7534C376.415 28.9611 376.177 29.0969 375.883 29.1609V29.2035C376.266 29.2567 376.56 29.3988 376.764 29.6296C376.97 29.8587 377.072 30.1436 377.071 30.4846C377.071 30.79 376.984 31.0634 376.81 31.3049C376.637 31.5446 376.399 31.7328 376.096 31.8695C375.794 32.0062 375.448 32.0746 375.057 32.0746Z" fill="black"/>
<path d="M17.9047 28.0449C17.8798 27.8123 17.775 27.6312 17.5904 27.5016C17.4075 27.372 17.1696 27.3072 16.8766 27.3072C16.6706 27.3072 16.494 27.3382 16.3466 27.4004C16.1992 27.4625 16.0865 27.5469 16.0083 27.6534C15.9302 27.7599 15.8903 27.8816 15.8885 28.0183C15.8885 28.1319 15.9142 28.2305 15.9657 28.3139C16.019 28.3974 16.0909 28.4684 16.1815 28.527C16.272 28.5838 16.3723 28.6317 16.4824 28.6708C16.5925 28.7099 16.7035 28.7427 16.8153 28.7694L17.3267 28.8972C17.5327 28.9451 17.7306 29.0099 17.9206 29.0916C18.1124 29.1733 18.2837 29.2763 18.4347 29.4006C18.5874 29.5249 18.7081 29.6749 18.7969 29.8507C18.8857 30.0265 18.93 30.2324 18.93 30.4686C18.93 30.7882 18.8484 31.0696 18.685 31.3129C18.5217 31.5543 18.2855 31.7434 17.9766 31.8801C17.6694 32.0151 17.2974 32.0826 16.8606 32.0826C16.4363 32.0826 16.0678 32.0169 15.7553 31.8855C15.4446 31.7541 15.2013 31.5623 15.0256 31.3102C14.8516 31.0581 14.7575 30.7509 14.7433 30.3887H15.7154C15.7296 30.5787 15.7882 30.7367 15.8912 30.8627C15.9941 30.9888 16.1282 31.0829 16.2933 31.1451C16.4602 31.2072 16.6467 31.2383 16.8526 31.2383C17.0675 31.2383 17.2557 31.2063 17.4173 31.1424C17.5806 31.0767 17.7085 30.9862 17.8008 30.8707C17.8931 30.7536 17.9402 30.6168 17.9419 30.4606C17.9402 30.3185 17.8984 30.2013 17.8168 30.109C17.7351 30.0149 17.6206 29.9368 17.4732 29.8746C17.3276 29.8107 17.1571 29.7539 16.9618 29.7042L16.3413 29.5444C15.892 29.429 15.5369 29.2541 15.2759 29.0197C15.0167 28.7836 14.8871 28.4702 14.8871 28.0795C14.8871 27.7582 14.9741 27.4767 15.1481 27.2353C15.3239 26.9938 15.5627 26.8065 15.8645 26.6733C16.1664 26.5384 16.5082 26.4709 16.8899 26.4709C17.277 26.4709 17.6161 26.5384 17.9073 26.6733C18.2003 26.8065 18.4302 26.992 18.5971 27.2299C18.764 27.4661 18.8501 27.7377 18.8555 28.0449H17.9047ZM19.6591 30.9879V30.2022L21.9736 26.5455H22.6288V27.6641H22.2293L20.6712 30.133V30.1756H23.9019V30.9879H19.6591ZM22.2612 32V30.7482L22.2719 30.3967V26.5455H23.2041V32H22.2612ZM29.4749 28.3858H28.4788C28.4504 28.2225 28.398 28.0778 28.3217 27.9517C28.2453 27.8239 28.1503 27.7156 28.0367 27.6268C27.9231 27.538 27.7935 27.4714 27.6479 27.427C27.504 27.3809 27.3487 27.3578 27.1818 27.3578C26.8853 27.3578 26.6225 27.4324 26.3934 27.5815C26.1644 27.7289 25.985 27.9455 25.8554 28.2314C25.7258 28.5154 25.661 28.8626 25.661 29.2727C25.661 29.69 25.7258 30.0415 25.8554 30.3274C25.9868 30.6115 26.1661 30.8263 26.3934 30.9719C26.6225 31.1158 26.8844 31.1877 27.1791 31.1877C27.3425 31.1877 27.4952 31.1664 27.6372 31.1238C27.781 31.0794 27.9098 31.0146 28.0234 30.9293C28.1388 30.8441 28.2356 30.7393 28.3137 30.6151C28.3936 30.4908 28.4486 30.3487 28.4788 30.1889L29.4749 30.1942C29.4376 30.4535 29.3568 30.6967 29.2326 30.924C29.11 31.1513 28.9494 31.3519 28.7505 31.5259C28.5516 31.6982 28.319 31.8331 28.0527 31.9308C27.7864 32.0266 27.4907 32.0746 27.1658 32.0746C26.6864 32.0746 26.2585 31.9636 25.8821 31.7417C25.5056 31.5197 25.2091 31.1992 24.9925 30.7802C24.7759 30.3612 24.6676 29.8587 24.6676 29.2727C24.6676 28.685 24.7768 28.1825 24.9952 27.7653C25.2136 27.3462 25.511 27.0257 25.8874 26.8038C26.2638 26.5819 26.6899 26.4709 27.1658 26.4709C27.4694 26.4709 27.7517 26.5135 28.0127 26.5987C28.2737 26.6839 28.5063 26.8091 28.7105 26.9743C28.9147 27.1376 29.0825 27.3382 29.2139 27.5762C29.3471 27.8123 29.4341 28.0822 29.4749 28.3858ZM30.3265 32V31.2862L32.2202 29.4299C32.4013 29.247 32.5522 29.0845 32.6729 28.9425C32.7937 28.8004 32.8842 28.6628 32.9446 28.5297C33.005 28.3965 33.0352 28.2544 33.0352 28.1035C33.0352 27.9313 32.9961 27.7839 32.918 27.6614C32.8398 27.5371 32.7324 27.4412 32.5957 27.3738C32.459 27.3063 32.3036 27.2725 32.1296 27.2725C31.9503 27.2725 31.7931 27.3098 31.6582 27.3844C31.5233 27.4572 31.4185 27.5611 31.3439 27.696C31.2711 27.831 31.2347 27.9917 31.2347 28.1781H30.2946C30.2946 27.8319 30.3736 27.5309 30.5316 27.2752C30.6896 27.0195 30.9071 26.8216 31.1841 26.6813C31.4629 26.541 31.7825 26.4709 32.1429 26.4709C32.5087 26.4709 32.8301 26.5392 33.1071 26.676C33.3841 26.8127 33.5989 27 33.7516 27.2379C33.9061 27.4759 33.9833 27.7475 33.9833 28.0529C33.9833 28.2571 33.9442 28.4577 33.8661 28.6548C33.788 28.8519 33.6504 29.0703 33.4533 29.31C33.258 29.5497 32.9837 29.84 32.6303 30.1809L31.6902 31.1371V31.1744H34.0659V32H30.3265Z" fill="black"/>
<path d="M304.502 28.0449C304.477 27.8123 304.373 27.6312 304.188 27.5016C304.005 27.372 303.767 27.3072 303.474 27.3072C303.268 27.3072 303.092 27.3382 302.944 27.4004C302.797 27.4625 302.684 27.5469 302.606 27.6534C302.528 27.7599 302.488 27.8816 302.486 28.0183C302.486 28.1319 302.512 28.2305 302.563 28.3139C302.617 28.3974 302.689 28.4684 302.779 28.527C302.87 28.5838 302.97 28.6317 303.08 28.6708C303.19 28.7099 303.301 28.7427 303.413 28.7694L303.924 28.8972C304.13 28.9451 304.328 29.0099 304.518 29.0916C304.71 29.1733 304.881 29.2763 305.032 29.4006C305.185 29.5249 305.306 29.6749 305.395 29.8507C305.483 30.0265 305.528 30.2324 305.528 30.4686C305.528 30.7882 305.446 31.0696 305.283 31.3129C305.119 31.5543 304.883 31.7434 304.574 31.8801C304.267 32.0151 303.895 32.0826 303.458 32.0826C303.034 32.0826 302.665 32.0169 302.353 31.8855C302.042 31.7541 301.799 31.5623 301.623 31.3102C301.449 31.0581 301.355 30.7509 301.341 30.3887H302.313C302.327 30.5787 302.386 30.7367 302.489 30.8627C302.592 30.9888 302.726 31.0829 302.891 31.1451C303.058 31.2072 303.244 31.2383 303.45 31.2383C303.665 31.2383 303.853 31.2063 304.015 31.1424C304.178 31.0767 304.306 30.9862 304.398 30.8707C304.491 30.7536 304.538 30.6168 304.54 30.4606C304.538 30.3185 304.496 30.2013 304.414 30.109C304.333 30.0149 304.218 29.9368 304.071 29.8746C303.925 29.8107 303.755 29.7539 303.559 29.7042L302.939 29.5444C302.49 29.429 302.135 29.2541 301.874 29.0197C301.614 28.7836 301.485 28.4702 301.485 28.0795C301.485 27.7582 301.572 27.4767 301.746 27.2353C301.922 26.9938 302.16 26.8065 302.462 26.6733C302.764 26.5384 303.106 26.4709 303.488 26.4709C303.875 26.4709 304.214 26.5384 304.505 26.6733C304.798 26.8065 305.028 26.992 305.195 27.2299C305.362 27.4661 305.448 27.7377 305.453 28.0449H304.502ZM306.355 32V31.2862L308.249 29.4299C308.43 29.247 308.581 29.0845 308.702 28.9425C308.822 28.8004 308.913 28.6628 308.973 28.5297C309.034 28.3965 309.064 28.2544 309.064 28.1035C309.064 27.9313 309.025 27.7839 308.947 27.6614C308.869 27.5371 308.761 27.4412 308.625 27.3738C308.488 27.3063 308.332 27.2725 308.158 27.2725C307.979 27.2725 307.822 27.3098 307.687 27.3844C307.552 27.4572 307.447 27.5611 307.373 27.696C307.3 27.831 307.264 27.9917 307.264 28.1781H306.323C306.323 27.8319 306.402 27.5309 306.56 27.2752C306.718 27.0195 306.936 26.8216 307.213 26.6813C307.492 26.541 307.811 26.4709 308.172 26.4709C308.538 26.4709 308.859 26.5392 309.136 26.676C309.413 26.8127 309.628 27 309.78 27.2379C309.935 27.4759 310.012 27.7475 310.012 28.0529C310.012 28.2571 309.973 28.4577 309.895 28.6548C309.817 28.8519 309.679 29.0703 309.482 29.31C309.287 29.5497 309.012 29.84 308.659 30.1809L307.719 31.1371V31.1744H310.095V32H306.355ZM315.736 28.3858H314.74C314.711 28.2225 314.659 28.0778 314.582 27.9517C314.506 27.8239 314.411 27.7156 314.297 27.6268C314.184 27.538 314.054 27.4714 313.909 27.427C313.765 27.3809 313.609 27.3578 313.443 27.3578C313.146 27.3578 312.883 27.4324 312.654 27.5815C312.425 27.7289 312.246 27.9455 312.116 28.2314C311.987 28.5154 311.922 28.8626 311.922 29.2727C311.922 29.69 311.987 30.0415 312.116 30.3274C312.248 30.6115 312.427 30.8263 312.654 30.9719C312.883 31.1158 313.145 31.1877 313.44 31.1877C313.603 31.1877 313.756 31.1664 313.898 31.1238C314.042 31.0794 314.17 31.0146 314.284 30.9293C314.4 30.8441 314.496 30.7393 314.574 30.6151C314.654 30.4908 314.709 30.3487 314.74 30.1889L315.736 30.1942C315.698 30.4535 315.618 30.6967 315.493 30.924C315.371 31.1513 315.21 31.3519 315.011 31.5259C314.812 31.6982 314.58 31.8331 314.313 31.9308C314.047 32.0266 313.751 32.0746 313.427 32.0746C312.947 32.0746 312.519 31.9636 312.143 31.7417C311.766 31.5197 311.47 31.1992 311.253 30.7802C311.037 30.3612 310.928 29.8587 310.928 29.2727C310.928 28.685 311.038 28.1825 311.256 27.7653C311.474 27.3462 311.772 27.0257 312.148 26.8038C312.525 26.5819 312.951 26.4709 313.427 26.4709C313.73 26.4709 314.012 26.5135 314.273 26.5987C314.534 26.6839 314.767 26.8091 314.971 26.9743C315.175 27.1376 315.343 27.3382 315.475 27.5762C315.608 27.8123 315.695 28.0822 315.736 28.3858ZM318.806 26.5455V32H317.818V27.5069H317.786L316.51 28.3219V27.4164L317.866 26.5455H318.806Z" fill="black"/>
<path d="M243.386 372H241.538V366.545H243.424C243.965 366.545 244.43 366.655 244.819 366.873C245.21 367.09 245.51 367.401 245.719 367.808C245.929 368.214 246.034 368.701 246.034 369.267C246.034 369.836 245.928 370.324 245.717 370.732C245.507 371.141 245.205 371.454 244.809 371.672C244.414 371.891 243.94 372 243.386 372ZM242.526 371.145H243.338C243.718 371.145 244.035 371.076 244.289 370.937C244.543 370.797 244.734 370.588 244.862 370.311C244.99 370.033 245.054 369.685 245.054 369.267C245.054 368.85 244.99 368.504 244.862 368.229C244.734 367.952 244.545 367.745 244.295 367.608C244.046 367.47 243.737 367.4 243.368 367.4H242.526V371.145ZM246.973 372V366.545H250.52V367.374H247.961V368.855H250.336V369.683H247.961V371.172H250.541V372H246.973ZM251.528 372V366.545H253.574C253.993 366.545 254.344 366.624 254.628 366.78C254.914 366.936 255.13 367.151 255.276 367.424C255.423 367.696 255.497 368.005 255.497 368.351C255.497 368.701 255.423 369.012 255.276 369.283C255.128 369.555 254.911 369.769 254.623 369.925C254.335 370.08 253.981 370.157 253.56 370.157H252.205V369.345H253.427C253.672 369.345 253.873 369.302 254.029 369.217C254.185 369.132 254.301 369.014 254.375 368.865C254.452 368.716 254.49 368.545 254.49 368.351C254.49 368.158 254.452 367.987 254.375 367.84C254.301 367.692 254.184 367.578 254.026 367.496C253.87 367.413 253.669 367.371 253.422 367.371H252.516V372H251.528ZM261.024 368.386H260.028C259.999 368.222 259.947 368.078 259.871 367.952C259.794 367.824 259.699 367.716 259.586 367.627C259.472 367.538 259.342 367.471 259.197 367.427C259.053 367.381 258.898 367.358 258.731 367.358C258.434 367.358 258.171 367.432 257.942 367.581C257.713 367.729 257.534 367.945 257.404 368.231C257.275 368.515 257.21 368.863 257.21 369.273C257.21 369.69 257.275 370.042 257.404 370.327C257.536 370.612 257.715 370.826 257.942 370.972C258.171 371.116 258.433 371.188 258.728 371.188C258.891 371.188 259.044 371.166 259.186 371.124C259.33 371.079 259.459 371.015 259.572 370.929C259.688 370.844 259.784 370.739 259.863 370.615C259.942 370.491 259.997 370.349 260.028 370.189L261.024 370.194C260.986 370.453 260.906 370.697 260.781 370.924C260.659 371.151 260.498 371.352 260.299 371.526C260.1 371.698 259.868 371.833 259.602 371.931C259.335 372.027 259.04 372.075 258.715 372.075C258.235 372.075 257.807 371.964 257.431 371.742C257.054 371.52 256.758 371.199 256.541 370.78C256.325 370.361 256.216 369.859 256.216 369.273C256.216 368.685 256.326 368.183 256.544 367.765C256.762 367.346 257.06 367.026 257.436 366.804C257.813 366.582 258.239 366.471 258.715 366.471C259.018 366.471 259.301 366.513 259.562 366.599C259.823 366.684 260.055 366.809 260.259 366.974C260.464 367.138 260.631 367.338 260.763 367.576C260.896 367.812 260.983 368.082 261.024 368.386ZM261.875 372V371.286L263.769 369.43C263.95 369.247 264.101 369.085 264.222 368.942C264.343 368.8 264.433 368.663 264.493 368.53C264.554 368.396 264.584 368.254 264.584 368.104C264.584 367.931 264.545 367.784 264.467 367.661C264.389 367.537 264.281 367.441 264.145 367.374C264.008 367.306 263.852 367.273 263.678 367.273C263.499 367.273 263.342 367.31 263.207 367.384C263.072 367.457 262.967 367.561 262.893 367.696C262.82 367.831 262.784 367.992 262.784 368.178H261.843C261.843 367.832 261.922 367.531 262.08 367.275C262.238 367.02 262.456 366.822 262.733 366.681C263.012 366.541 263.331 366.471 263.692 366.471C264.058 366.471 264.379 366.539 264.656 366.676C264.933 366.813 265.148 367 265.3 367.238C265.455 367.476 265.532 367.748 265.532 368.053C265.532 368.257 265.493 368.458 265.415 368.655C265.337 368.852 265.199 369.07 265.002 369.31C264.807 369.55 264.532 369.84 264.179 370.181L263.239 371.137V371.174H265.615V372H261.875Z" fill="black"/>
<path d="M189.502 208.045C189.477 207.812 189.373 207.631 189.188 207.502C189.005 207.372 188.767 207.307 188.474 207.307C188.268 207.307 188.092 207.338 187.944 207.4C187.797 207.463 187.684 207.547 187.606 207.653C187.528 207.76 187.488 207.882 187.486 208.018C187.486 208.132 187.512 208.23 187.563 208.314C187.617 208.397 187.689 208.468 187.779 208.527C187.87 208.584 187.97 208.632 188.08 208.671C188.19 208.71 188.301 208.743 188.413 208.769L188.924 208.897C189.13 208.945 189.328 209.01 189.518 209.092C189.71 209.173 189.881 209.276 190.032 209.401C190.185 209.525 190.306 209.675 190.395 209.851C190.483 210.026 190.528 210.232 190.528 210.469C190.528 210.788 190.446 211.07 190.283 211.313C190.119 211.554 189.883 211.743 189.574 211.88C189.267 212.015 188.895 212.083 188.458 212.083C188.034 212.083 187.665 212.017 187.353 211.885C187.042 211.754 186.799 211.562 186.623 211.31C186.449 211.058 186.355 210.751 186.341 210.389H187.313C187.327 210.579 187.386 210.737 187.489 210.863C187.592 210.989 187.726 211.083 187.891 211.145C188.058 211.207 188.244 211.238 188.45 211.238C188.665 211.238 188.853 211.206 189.015 211.142C189.178 211.077 189.306 210.986 189.398 210.871C189.491 210.754 189.538 210.617 189.54 210.461C189.538 210.319 189.496 210.201 189.414 210.109C189.333 210.015 189.218 209.937 189.071 209.875C188.925 209.811 188.755 209.754 188.559 209.704L187.939 209.544C187.49 209.429 187.135 209.254 186.874 209.02C186.614 208.784 186.485 208.47 186.485 208.08C186.485 207.758 186.572 207.477 186.746 207.235C186.922 206.994 187.16 206.806 187.462 206.673C187.764 206.538 188.106 206.471 188.488 206.471C188.875 206.471 189.214 206.538 189.505 206.673C189.798 206.806 190.028 206.992 190.195 207.23C190.362 207.466 190.448 207.738 190.453 208.045H189.502ZM193.252 212.075C192.897 212.075 192.579 212.008 192.298 211.875C192.018 211.74 191.795 211.555 191.63 211.321C191.466 211.086 191.379 210.818 191.369 210.517H192.327C192.345 210.74 192.442 210.923 192.618 211.065C192.794 211.205 193.005 211.276 193.252 211.276C193.445 211.276 193.617 211.231 193.768 211.142C193.919 211.054 194.038 210.93 194.125 210.772C194.212 210.614 194.255 210.434 194.253 210.232C194.255 210.026 194.211 209.843 194.123 209.683C194.034 209.523 193.912 209.398 193.758 209.307C193.603 209.215 193.426 209.169 193.225 209.169C193.062 209.167 192.901 209.197 192.743 209.259C192.585 209.322 192.46 209.403 192.367 209.504L191.475 209.358L191.76 206.545H194.924V207.371H192.578L192.421 208.817H192.453C192.554 208.698 192.697 208.6 192.881 208.522C193.066 208.442 193.269 208.402 193.489 208.402C193.819 208.402 194.114 208.48 194.373 208.636C194.632 208.791 194.836 209.004 194.985 209.275C195.135 209.547 195.209 209.858 195.209 210.208C195.209 210.568 195.126 210.889 194.959 211.172C194.794 211.452 194.564 211.673 194.269 211.835C193.976 211.995 193.637 212.075 193.252 212.075ZM200.824 208.386H199.827C199.799 208.222 199.747 208.078 199.67 207.952C199.594 207.824 199.499 207.716 199.385 207.627C199.272 207.538 199.142 207.471 198.996 207.427C198.853 207.381 198.697 207.358 198.53 207.358C198.234 207.358 197.971 207.432 197.742 207.581C197.513 207.729 197.334 207.945 197.204 208.231C197.074 208.515 197.01 208.863 197.01 209.273C197.01 209.69 197.074 210.042 197.204 210.327C197.335 210.612 197.515 210.826 197.742 210.972C197.971 211.116 198.233 211.188 198.528 211.188C198.691 211.188 198.844 211.166 198.986 211.124C199.13 211.079 199.258 211.015 199.372 210.929C199.487 210.844 199.584 210.739 199.662 210.615C199.742 210.491 199.797 210.349 199.827 210.189L200.824 210.194C200.786 210.453 200.705 210.697 200.581 210.924C200.459 211.151 200.298 211.352 200.099 211.526C199.9 211.698 199.668 211.833 199.401 211.931C199.135 212.027 198.839 212.075 198.514 212.075C198.035 212.075 197.607 211.964 197.231 211.742C196.854 211.52 196.558 211.199 196.341 210.78C196.125 210.361 196.016 209.859 196.016 209.273C196.016 208.685 196.125 208.183 196.344 207.765C196.562 207.346 196.86 207.026 197.236 206.804C197.612 206.582 198.039 206.471 198.514 206.471C198.818 206.471 199.1 206.513 199.361 206.599C199.622 206.684 199.855 206.809 200.059 206.974C200.263 207.138 200.431 207.338 200.563 207.576C200.696 207.812 200.783 208.082 200.824 208.386ZM201.675 212V211.286L203.569 209.43C203.75 209.247 203.901 209.085 204.022 208.942C204.142 208.8 204.233 208.663 204.293 208.53C204.354 208.396 204.384 208.254 204.384 208.104C204.384 207.931 204.345 207.784 204.267 207.661C204.188 207.537 204.081 207.441 203.944 207.374C203.808 207.306 203.652 207.273 203.478 207.273C203.299 207.273 203.142 207.31 203.007 207.384C202.872 207.457 202.767 207.561 202.693 207.696C202.62 207.831 202.583 207.992 202.583 208.178H201.643C201.643 207.832 201.722 207.531 201.88 207.275C202.038 207.02 202.256 206.822 202.533 206.681C202.812 206.541 203.131 206.471 203.492 206.471C203.857 206.471 204.179 206.539 204.456 206.676C204.733 206.813 204.948 207 205.1 207.238C205.255 207.476 205.332 207.748 205.332 208.053C205.332 208.257 205.293 208.458 205.215 208.655C205.137 208.852 204.999 209.07 204.802 209.31C204.607 209.55 204.332 209.84 203.979 210.181L203.039 211.137V211.174H205.415V212H201.675Z" fill="black"/>
<path d="M304.502 259.045C304.477 258.812 304.373 258.631 304.188 258.502C304.005 258.372 303.767 258.307 303.474 258.307C303.268 258.307 303.092 258.338 302.944 258.4C302.797 258.463 302.684 258.547 302.606 258.653C302.528 258.76 302.488 258.882 302.486 259.018C302.486 259.132 302.512 259.23 302.563 259.314C302.617 259.397 302.689 259.468 302.779 259.527C302.87 259.584 302.97 259.632 303.08 259.671C303.19 259.71 303.301 259.743 303.413 259.769L303.924 259.897C304.13 259.945 304.328 260.01 304.518 260.092C304.71 260.173 304.881 260.276 305.032 260.401C305.185 260.525 305.306 260.675 305.395 260.851C305.483 261.026 305.528 261.232 305.528 261.469C305.528 261.788 305.446 262.07 305.283 262.313C305.119 262.554 304.883 262.743 304.574 262.88C304.267 263.015 303.895 263.083 303.458 263.083C303.034 263.083 302.665 263.017 302.353 262.885C302.042 262.754 301.799 262.562 301.623 262.31C301.449 262.058 301.355 261.751 301.341 261.389H302.313C302.327 261.579 302.386 261.737 302.489 261.863C302.592 261.989 302.726 262.083 302.891 262.145C303.058 262.207 303.244 262.238 303.45 262.238C303.665 262.238 303.853 262.206 304.015 262.142C304.178 262.077 304.306 261.986 304.398 261.871C304.491 261.754 304.538 261.617 304.54 261.461C304.538 261.319 304.496 261.201 304.414 261.109C304.333 261.015 304.218 260.937 304.071 260.875C303.925 260.811 303.755 260.754 303.559 260.704L302.939 260.544C302.49 260.429 302.135 260.254 301.874 260.02C301.614 259.784 301.485 259.47 301.485 259.08C301.485 258.758 301.572 258.477 301.746 258.235C301.922 257.994 302.16 257.806 302.462 257.673C302.764 257.538 303.106 257.471 303.488 257.471C303.875 257.471 304.214 257.538 304.505 257.673C304.798 257.806 305.028 257.992 305.195 258.23C305.362 258.466 305.448 258.738 305.453 259.045H304.502ZM308.353 263.075C308.092 263.073 307.837 263.028 307.588 262.939C307.34 262.848 307.116 262.702 306.917 262.499C306.718 262.295 306.56 262.024 306.443 261.687C306.326 261.348 306.268 260.928 306.27 260.427C306.27 259.96 306.32 259.544 306.419 259.178C306.519 258.812 306.662 258.503 306.848 258.251C307.034 257.997 307.259 257.804 307.522 257.671C307.786 257.537 308.082 257.471 308.409 257.471C308.751 257.471 309.055 257.538 309.32 257.673C309.586 257.808 309.801 257.993 309.964 258.227C310.128 258.46 310.229 258.723 310.268 259.016H309.296C309.246 258.806 309.144 258.639 308.989 258.515C308.837 258.389 308.643 258.326 308.409 258.326C308.031 258.326 307.739 258.49 307.535 258.819C307.333 259.147 307.231 259.598 307.229 260.172H307.266C307.353 260.015 307.466 259.881 307.604 259.769C307.743 259.657 307.899 259.571 308.073 259.511C308.249 259.449 308.435 259.418 308.63 259.418C308.949 259.418 309.236 259.494 309.49 259.647C309.746 259.8 309.948 260.01 310.097 260.278C310.246 260.544 310.32 260.85 310.318 261.194C310.32 261.553 310.239 261.875 310.073 262.161C309.908 262.445 309.678 262.669 309.384 262.832C309.089 262.996 308.745 263.076 308.353 263.075ZM308.348 262.276C308.541 262.276 308.714 262.229 308.867 262.134C309.02 262.04 309.14 261.913 309.229 261.754C309.318 261.594 309.361 261.414 309.36 261.216C309.361 261.02 309.319 260.844 309.232 260.686C309.147 260.528 309.028 260.402 308.878 260.31C308.727 260.218 308.554 260.172 308.361 260.172C308.217 260.172 308.083 260.199 307.959 260.254C307.834 260.309 307.726 260.385 307.634 260.483C307.541 260.579 307.469 260.691 307.415 260.819C307.364 260.945 307.337 261.08 307.335 261.224C307.337 261.414 307.382 261.588 307.469 261.748C307.556 261.908 307.675 262.036 307.828 262.132C307.981 262.228 308.154 262.276 308.348 262.276ZM315.941 259.386H314.945C314.916 259.222 314.864 259.078 314.788 258.952C314.711 258.824 314.616 258.716 314.503 258.627C314.389 258.538 314.259 258.471 314.114 258.427C313.97 258.381 313.814 258.358 313.648 258.358C313.351 258.358 313.088 258.432 312.859 258.581C312.63 258.729 312.451 258.945 312.321 259.231C312.192 259.515 312.127 259.863 312.127 260.273C312.127 260.69 312.192 261.042 312.321 261.327C312.453 261.612 312.632 261.826 312.859 261.972C313.088 262.116 313.35 262.188 313.645 262.188C313.808 262.188 313.961 262.166 314.103 262.124C314.247 262.079 314.376 262.015 314.489 261.929C314.605 261.844 314.701 261.739 314.78 261.615C314.859 261.491 314.914 261.349 314.945 261.189L315.941 261.194C315.903 261.453 315.823 261.697 315.698 261.924C315.576 262.151 315.415 262.352 315.216 262.526C315.017 262.698 314.785 262.833 314.519 262.931C314.252 263.027 313.957 263.075 313.632 263.075C313.152 263.075 312.724 262.964 312.348 262.742C311.971 262.52 311.675 262.199 311.458 261.78C311.242 261.361 311.133 260.859 311.133 260.273C311.133 259.685 311.243 259.183 311.461 258.765C311.679 258.346 311.977 258.026 312.353 257.804C312.73 257.582 313.156 257.471 313.632 257.471C313.935 257.471 314.218 257.513 314.479 257.599C314.74 257.684 314.972 257.809 315.176 257.974C315.381 258.138 315.548 258.338 315.68 258.576C315.813 258.812 315.9 259.082 315.941 259.386ZM316.792 263V262.286L318.686 260.43C318.867 260.247 319.018 260.085 319.139 259.942C319.259 259.8 319.35 259.663 319.41 259.53C319.471 259.396 319.501 259.254 319.501 259.104C319.501 258.931 319.462 258.784 319.384 258.661C319.306 258.537 319.198 258.441 319.062 258.374C318.925 258.306 318.769 258.273 318.595 258.273C318.416 258.273 318.259 258.31 318.124 258.384C317.989 258.457 317.884 258.561 317.81 258.696C317.737 258.831 317.701 258.992 317.701 259.178H316.76C316.76 258.832 316.839 258.531 316.997 258.275C317.155 258.02 317.373 257.822 317.65 257.681C317.929 257.541 318.248 257.471 318.609 257.471C318.975 257.471 319.296 257.539 319.573 257.676C319.85 257.813 320.065 258 320.217 258.238C320.372 258.476 320.449 258.748 320.449 259.053C320.449 259.257 320.41 259.458 320.332 259.655C320.254 259.852 320.116 260.07 319.919 260.31C319.724 260.55 319.449 260.84 319.096 261.181L318.156 262.137V262.174H320.532V263H316.792Z" fill="black"/>
<path d="M109.182 93.7717H107.19C107.133 93.445 107.028 93.1555 106.875 92.9034C106.723 92.6477 106.533 92.4311 106.305 92.2536C106.078 92.076 105.819 91.9428 105.528 91.854C105.24 91.7617 104.929 91.7156 104.595 91.7156C104.002 91.7156 103.477 91.8647 103.019 92.163C102.561 92.4577 102.202 92.891 101.943 93.4627C101.684 94.0309 101.554 94.7251 101.554 95.5455C101.554 96.38 101.684 97.0831 101.943 97.6548C102.206 98.223 102.564 98.6527 103.019 98.9439C103.477 99.2315 104.001 99.3754 104.59 99.3754C104.917 99.3754 105.222 99.3327 105.506 99.2475C105.794 99.1587 106.051 99.0291 106.279 98.8587C106.51 98.6882 106.703 98.4787 106.859 98.2301C107.019 97.9815 107.129 97.6974 107.19 97.3778L109.182 97.3885C109.107 97.907 108.946 98.3935 108.697 98.848C108.452 99.3026 108.131 99.7038 107.733 100.052C107.335 100.396 106.87 100.666 106.337 100.862C105.805 101.053 105.213 101.149 104.564 101.149C103.605 101.149 102.749 100.927 101.996 100.483C101.243 100.039 100.65 99.3984 100.217 98.5604C99.7837 97.7223 99.5671 96.7173 99.5671 95.5455C99.5671 94.37 99.7855 93.3651 100.222 92.5305C100.659 91.6925 101.254 91.0515 102.007 90.6076C102.76 90.1637 103.612 89.9418 104.564 89.9418C105.171 89.9418 105.735 90.027 106.257 90.1974C106.779 90.3679 107.245 90.6183 107.653 90.9485C108.061 91.2752 108.397 91.6765 108.66 92.1523C108.926 92.6246 109.1 93.1644 109.182 93.7717ZM110.885 101V99.5724L114.672 95.8597C115.034 95.494 115.336 95.169 115.578 94.8849C115.819 94.6009 116 94.3256 116.121 94.0593C116.242 93.793 116.302 93.5089 116.302 93.207C116.302 92.8626 116.224 92.5678 116.068 92.3228C115.912 92.0742 115.697 91.8825 115.423 91.7475C115.15 91.6126 114.839 91.5451 114.491 91.5451C114.133 91.5451 113.818 91.6197 113.548 91.7688C113.278 91.9144 113.069 92.1222 112.92 92.392C112.774 92.6619 112.701 92.9833 112.701 93.3562H110.821C110.821 92.6637 110.979 92.0618 111.295 91.5504C111.611 91.0391 112.046 90.6431 112.6 90.3626C113.158 90.082 113.797 89.9418 114.518 89.9418C115.249 89.9418 115.892 90.0785 116.446 90.3519C117 90.6254 117.43 91 117.735 91.4759C118.044 91.9517 118.199 92.495 118.199 93.1058C118.199 93.5142 118.12 93.9155 117.964 94.3097C117.808 94.7038 117.533 95.1406 117.139 95.62C116.748 96.0994 116.199 96.68 115.493 97.3619L113.612 99.2741V99.3487H118.364V101H110.885Z" fill="black"/>
<path d="M220.253 273.772H218.26C218.204 273.445 218.099 273.156 217.946 272.903C217.793 272.648 217.603 272.431 217.376 272.254C217.149 272.076 216.89 271.943 216.598 271.854C216.311 271.762 216 271.716 215.666 271.716C215.073 271.716 214.548 271.865 214.09 272.163C213.631 272.458 213.273 272.891 213.014 273.463C212.754 274.031 212.625 274.725 212.625 275.545C212.625 276.38 212.754 277.083 213.014 277.655C213.276 278.223 213.635 278.653 214.09 278.944C214.548 279.232 215.071 279.375 215.661 279.375C215.988 279.375 216.293 279.333 216.577 279.248C216.865 279.159 217.122 279.029 217.35 278.859C217.58 278.688 217.774 278.479 217.93 278.23C218.09 277.982 218.2 277.697 218.26 277.378L220.253 277.388C220.178 277.907 220.016 278.393 219.768 278.848C219.523 279.303 219.201 279.704 218.804 280.052C218.406 280.396 217.941 280.666 217.408 280.862C216.875 281.053 216.284 281.149 215.634 281.149C214.676 281.149 213.82 280.927 213.067 280.483C212.314 280.039 211.721 279.398 211.288 278.56C210.854 277.722 210.638 276.717 210.638 275.545C210.638 274.37 210.856 273.365 211.293 272.531C211.73 271.692 212.325 271.051 213.078 270.608C213.83 270.164 214.683 269.942 215.634 269.942C216.242 269.942 216.806 270.027 217.328 270.197C217.85 270.368 218.315 270.618 218.724 270.949C219.132 271.275 219.468 271.676 219.731 272.152C219.997 272.625 220.171 273.164 220.253 273.772ZM221.956 281V279.572L225.743 275.86C226.105 275.494 226.407 275.169 226.649 274.885C226.89 274.601 227.071 274.326 227.192 274.059C227.313 273.793 227.373 273.509 227.373 273.207C227.373 272.863 227.295 272.568 227.139 272.323C226.982 272.074 226.768 271.882 226.494 271.748C226.221 271.613 225.91 271.545 225.562 271.545C225.203 271.545 224.889 271.62 224.619 271.769C224.349 271.914 224.14 272.122 223.991 272.392C223.845 272.662 223.772 272.983 223.772 273.356H221.892C221.892 272.664 222.05 272.062 222.366 271.55C222.682 271.039 223.117 270.643 223.671 270.363C224.229 270.082 224.868 269.942 225.589 269.942C226.32 269.942 226.963 270.078 227.517 270.352C228.071 270.625 228.501 271 228.806 271.476C229.115 271.952 229.269 272.495 229.269 273.106C229.269 273.514 229.191 273.915 229.035 274.31C228.879 274.704 228.604 275.141 228.209 275.62C227.819 276.099 227.27 276.68 226.563 277.362L224.683 279.274V279.349H229.434V281H221.956ZM231.379 281V270.091H235.555C236.343 270.091 236.998 270.215 237.52 270.464C238.046 270.709 238.438 271.044 238.698 271.471C238.96 271.897 239.092 272.38 239.092 272.919C239.092 273.363 239.007 273.743 238.836 274.059C238.666 274.372 238.437 274.626 238.149 274.821C237.861 275.016 237.54 275.157 237.185 275.242V275.348C237.572 275.37 237.943 275.489 238.298 275.705C238.657 275.918 238.95 276.22 239.177 276.611C239.404 277.001 239.518 277.474 239.518 278.028C239.518 278.592 239.381 279.1 239.108 279.551C238.834 279.999 238.422 280.352 237.872 280.611C237.322 280.87 236.629 281 235.795 281H231.379ZM233.355 279.349H235.48C236.198 279.349 236.714 279.212 237.03 278.939C237.35 278.662 237.51 278.306 237.51 277.873C237.51 277.55 237.43 277.259 237.27 277C237.11 276.737 236.883 276.531 236.588 276.382C236.294 276.229 235.942 276.153 235.534 276.153H233.355V279.349ZM233.355 274.73H235.31C235.651 274.73 235.958 274.668 236.231 274.544C236.505 274.416 236.72 274.237 236.876 274.006C237.036 273.772 237.116 273.495 237.116 273.175C237.116 272.752 236.966 272.404 236.668 272.131C236.373 271.858 235.935 271.721 235.352 271.721H233.355V274.73Z" fill="black"/>
<path d="M422 20L417 17.1132V22.8868L422 20ZM372 20.5H417.5V19.5H372V20.5Z" fill="#9F9F9F"/>
<path d="M307 20L302 17.1132V22.8868L307 20ZM257 20.5H302.5V19.5H257V20.5Z" fill="#9F9F9F"/>
<path d="M536 30L531 27.1132V32.8868L536 30ZM486 30.5H531.5V29.5H486V30.5Z" fill="#9F9F9F"/>
<path d="M422 292L417 289.113V294.887L422 292ZM372 292.5H417.5V291.5H372V292.5Z" fill="#00FF19"/>
<path d="M536 273L531 270.113V275.887L536 273ZM486 273.5H531.5V272.5H486V273.5Z" fill="#00FF19"/>
<path d="M280 376L275 373.113V378.887L280 376ZM168 376.5H275.5V375.5H168V376.5Z" fill="#00FF19"/>
<path d="M165 260L160 257.113V262.887L165 260ZM53 260.5H160.5V259.5H53V260.5Z" fill="#00FF19"/>
<path d="M53 30L58 32.8868V27.1132L53 30ZM165 29.5H57.5V30.5H165V29.5Z" fill="#00FF19"/>
<path d="M168 384L173 381.113V386.887L168 384ZM280 384.5H172.5V383.5H280V384.5Z" fill="#9F9F9F"/>
<path d="M53 268L58 265.113V270.887L53 268ZM165 268.5H57.5V267.5H165V268.5Z" fill="#9F9F9F"/>
<path d="M165 22L160 24.8868V19.1132L165 22ZM53 21.5H160.5V22.5H53V21.5Z" fill="#9F9F9F"/>
<path d="M372 12L377 9.11325V14.8868L372 12ZM422 12.5H376.5V11.5H422V12.5Z" fill="#00FF19"/>
<path d="M257 12L262 9.11325V14.8868L257 12ZM307 12.5H261.5V11.5H307V12.5Z" fill="#00FF19"/>
<path d="M486 22L491 19.1132V24.8868L486 22ZM536 22.5H490.5V21.5H536V22.5Z" fill="#00FF19"/>
<path d="M372 284L377 281.113V286.887L372 284ZM422 284.5H376.5V283.5H422V284.5Z" fill="#9F9F9F"/>
<path d="M486 265L491 262.113V267.887L486 265ZM536 265.5H490.5V264.5H536V265.5Z" fill="#9F9F9F"/>
<path d="M107 278V277.5H107.325L107.457 277.797L107 278ZM111 287V287.5H110.675L110.543 287.203L111 287ZM165 287L160 289.887V284.113L165 287ZM53 277.5H107V278.5H53V277.5ZM107.457 277.797L111.457 286.797L110.543 287.203L106.543 278.203L107.457 277.797ZM111 286.5H160.5V287.5H111V286.5Z" fill="#9F9F9F"/>
<path d="M222 404V403.5H222.325L222.457 403.797L222 404ZM226 413V413.5H225.675L225.543 413.203L226 413ZM280 413L275 415.887V410.113L280 413ZM168 403.5H222V404.5H168V403.5ZM222.457 403.797L226.457 412.797L225.543 413.203L221.543 404.203L222.457 403.797ZM226 412.5H275.5V413.5H226V412.5Z" fill="#9F9F9F"/>
<path d="M111 12V12.5H110.675L110.543 12.2031L111 12ZM107 3V2.5H107.325L107.457 2.79693L107 3ZM53 3L58 0.113249V5.88675L53 3ZM165 12.5H111V11.5H165V12.5ZM110.543 12.2031L106.543 3.20307L107.457 2.79693L111.457 11.7969L110.543 12.2031ZM107 3.5H57.5V2.5H107V3.5Z" fill="#9F9F9F"/>
<path d="M226 434V434.5H225.675L225.543 434.203L226 434ZM222 425V424.5H222.325L222.457 424.797L222 425ZM168 425L173 422.113V427.887L168 425ZM280 434.5H226V433.5H280V434.5ZM225.543 434.203L221.543 425.203L222.457 424.797L226.457 433.797L225.543 434.203ZM222 425.5H172.5V424.5H222V425.5Z" fill="#9F9F9F"/>
<path d="M19.2963 259.045C19.2714 258.812 19.1666 258.631 18.982 258.502C18.7991 258.372 18.5612 258.307 18.2682 258.307C18.0622 258.307 17.8856 258.338 17.7382 258.4C17.5908 258.463 17.4781 258.547 17.3999 258.653C17.3218 258.76 17.2819 258.882 17.2801 259.018C17.2801 259.132 17.3058 259.23 17.3573 259.314C17.4106 259.397 17.4825 259.468 17.5731 259.527C17.6636 259.584 17.7639 259.632 17.874 259.671C17.9841 259.71 18.0951 259.743 18.2069 259.769L18.7183 259.897C18.9243 259.945 19.1222 260.01 19.3122 260.092C19.504 260.173 19.6753 260.276 19.8263 260.401C19.979 260.525 20.0997 260.675 20.1885 260.851C20.2773 261.026 20.3216 261.232 20.3216 261.469C20.3216 261.788 20.24 262.07 20.0766 262.313C19.9133 262.554 19.6771 262.743 19.3682 262.88C19.061 263.015 18.689 263.083 18.2522 263.083C17.8279 263.083 17.4594 263.017 17.1469 262.885C16.8362 262.754 16.593 262.562 16.4172 262.31C16.2432 262.058 16.1491 261.751 16.1349 261.389H17.107C17.1212 261.579 17.1798 261.737 17.2828 261.863C17.3857 261.989 17.5198 262.083 17.6849 262.145C17.8518 262.207 18.0383 262.238 18.2442 262.238C18.4591 262.238 18.6473 262.206 18.8089 262.142C18.9722 262.077 19.1001 261.986 19.1924 261.871C19.2847 261.754 19.3318 261.617 19.3335 261.461C19.3318 261.319 19.29 261.201 19.2084 261.109C19.1267 261.015 19.0122 260.937 18.8648 260.875C18.7192 260.811 18.5487 260.754 18.3534 260.704L17.7329 260.544C17.2836 260.429 16.9285 260.254 16.6675 260.02C16.4083 259.784 16.2787 259.47 16.2787 259.08C16.2787 258.758 16.3657 258.477 16.5397 258.235C16.7155 257.994 16.9543 257.806 17.2561 257.673C17.558 257.538 17.8998 257.471 18.2815 257.471C18.6686 257.471 19.0077 257.538 19.2989 257.673C19.5919 257.806 19.8218 257.992 19.9887 258.23C20.1556 258.466 20.2417 258.738 20.2471 259.045H19.2963ZM23.3679 257.545V263H22.3797V258.507H22.3478L21.072 259.322V258.416L22.4277 257.545H23.3679ZM29.4749 259.386H28.4788C28.4504 259.222 28.398 259.078 28.3217 258.952C28.2453 258.824 28.1503 258.716 28.0367 258.627C27.9231 258.538 27.7935 258.471 27.6479 258.427C27.504 258.381 27.3487 258.358 27.1818 258.358C26.8853 258.358 26.6225 258.432 26.3934 258.581C26.1644 258.729 25.985 258.945 25.8554 259.231C25.7258 259.515 25.661 259.863 25.661 260.273C25.661 260.69 25.7258 261.042 25.8554 261.327C25.9868 261.612 26.1661 261.826 26.3934 261.972C26.6225 262.116 26.8844 262.188 27.1791 262.188C27.3425 262.188 27.4952 262.166 27.6372 262.124C27.781 262.079 27.9098 262.015 28.0234 261.929C28.1388 261.844 28.2356 261.739 28.3137 261.615C28.3936 261.491 28.4486 261.349 28.4788 261.189L29.4749 261.194C29.4376 261.453 29.3568 261.697 29.2326 261.924C29.11 262.151 28.9494 262.352 28.7505 262.526C28.5516 262.698 28.319 262.833 28.0527 262.931C27.7864 263.027 27.4907 263.075 27.1658 263.075C26.6864 263.075 26.2585 262.964 25.8821 262.742C25.5056 262.52 25.2091 262.199 24.9925 261.78C24.7759 261.361 24.6676 260.859 24.6676 260.273C24.6676 259.685 24.7768 259.183 24.9952 258.765C25.2136 258.346 25.511 258.026 25.8874 257.804C26.2638 257.582 26.6899 257.471 27.1658 257.471C27.4694 257.471 27.7517 257.513 28.0127 257.599C28.2737 257.684 28.5063 257.809 28.7105 257.974C28.9147 258.138 29.0825 258.338 29.2139 258.576C29.3471 258.812 29.4341 259.082 29.4749 259.386ZM30.3265 263V262.286L32.2202 260.43C32.4013 260.247 32.5522 260.085 32.6729 259.942C32.7937 259.8 32.8842 259.663 32.9446 259.53C33.005 259.396 33.0352 259.254 33.0352 259.104C33.0352 258.931 32.9961 258.784 32.918 258.661C32.8398 258.537 32.7324 258.441 32.5957 258.374C32.459 258.306 32.3036 258.273 32.1296 258.273C31.9503 258.273 31.7931 258.31 31.6582 258.384C31.5233 258.457 31.4185 258.561 31.3439 258.696C31.2711 258.831 31.2347 258.992 31.2347 259.178H30.2946C30.2946 258.832 30.3736 258.531 30.5316 258.275C30.6896 258.02 30.9071 257.822 31.1841 257.681C31.4629 257.541 31.7825 257.471 32.1429 257.471C32.5087 257.471 32.8301 257.539 33.1071 257.676C33.3841 257.813 33.5989 258 33.7516 258.238C33.9061 258.476 33.9833 258.748 33.9833 259.053C33.9833 259.257 33.9442 259.458 33.8661 259.655C33.788 259.852 33.6504 260.07 33.4533 260.31C33.258 260.55 32.9837 260.84 32.6303 261.181L31.6902 262.137V262.174H34.0659V263H30.3265Z" fill="black"/>
<path d="M18.0145 271.045C17.9897 270.812 17.8849 270.631 17.7002 270.502C17.5174 270.372 17.2794 270.307 16.9865 270.307C16.7805 270.307 16.6038 270.338 16.4565 270.4C16.3091 270.463 16.1963 270.547 16.1182 270.653C16.0401 270.76 16.0001 270.882 15.9984 271.018C15.9984 271.132 16.0241 271.23 16.0756 271.314C16.1289 271.397 16.2008 271.468 16.2913 271.527C16.3819 271.584 16.4822 271.632 16.5923 271.671C16.7024 271.71 16.8133 271.743 16.9252 271.769L17.4366 271.897C17.6425 271.945 17.8405 272.01 18.0305 272.092C18.2223 272.173 18.3936 272.276 18.5445 272.401C18.6972 272.525 18.818 272.675 18.9067 272.851C18.9955 273.026 19.0399 273.232 19.0399 273.469C19.0399 273.788 18.9582 274.07 18.7949 274.313C18.6315 274.554 18.3954 274.743 18.0864 274.88C17.7793 275.015 17.4073 275.083 16.9705 275.083C16.5461 275.083 16.1777 275.017 15.8652 274.885C15.5545 274.754 15.3112 274.562 15.1354 274.31C14.9614 274.058 14.8673 273.751 14.8531 273.389H15.8252C15.8394 273.579 15.898 273.737 16.001 273.863C16.104 273.989 16.2381 274.083 16.4032 274.145C16.5701 274.207 16.7565 274.238 16.9625 274.238C17.1773 274.238 17.3655 274.206 17.5271 274.142C17.6905 274.077 17.8183 273.986 17.9106 273.871C18.003 273.754 18.05 273.617 18.0518 273.461C18.05 273.319 18.0083 273.201 17.9266 273.109C17.8449 273.015 17.7304 272.937 17.5831 272.875C17.4375 272.811 17.267 272.754 17.0717 272.704L16.4511 272.544C16.0019 272.429 15.6468 272.254 15.3858 272.02C15.1266 271.784 14.9969 271.47 14.9969 271.08C14.9969 270.758 15.0839 270.477 15.2579 270.235C15.4337 269.994 15.6725 269.806 15.9744 269.673C16.2762 269.538 16.618 269.471 16.9998 269.471C17.3869 269.471 17.726 269.538 18.0172 269.673C18.3101 269.806 18.5401 269.992 18.707 270.23C18.8739 270.466 18.96 270.738 18.9653 271.045H18.0145ZM21.8251 275.075C21.4416 275.075 21.1007 275.009 20.8024 274.877C20.5059 274.746 20.2715 274.563 20.0993 274.329C19.927 274.094 19.8356 273.824 19.8249 273.517H20.8263C20.8352 273.664 20.8841 273.793 20.9728 273.903C21.0616 274.011 21.1797 274.095 21.3271 274.156C21.4744 274.216 21.6396 274.246 21.8224 274.246C22.0178 274.246 22.1909 274.213 22.3418 274.145C22.4927 274.076 22.6108 273.98 22.696 273.857C22.7813 273.735 22.823 273.594 22.8212 273.434C22.823 273.269 22.7804 273.123 22.6934 272.997C22.6064 272.871 22.4803 272.773 22.3152 272.702C22.1518 272.631 21.9547 272.595 21.7239 272.595H21.2418V271.833H21.7239C21.9139 271.833 22.0799 271.8 22.2219 271.735C22.3658 271.669 22.4785 271.577 22.5602 271.458C22.6419 271.337 22.6818 271.198 22.68 271.04C22.6818 270.885 22.6472 270.751 22.5762 270.637C22.5069 270.522 22.4084 270.432 22.2805 270.368C22.1545 270.305 22.0062 270.273 21.8358 270.273C21.6689 270.273 21.5144 270.303 21.3723 270.363C21.2303 270.423 21.1158 270.51 21.0288 270.621C20.9418 270.732 20.8956 270.863 20.8903 271.016H19.9395C19.9466 270.71 20.0344 270.442 20.2031 270.211C20.3736 269.979 20.6009 269.798 20.8849 269.668C21.169 269.537 21.4877 269.471 21.8411 269.471C22.2051 269.471 22.5211 269.539 22.7892 269.676C23.0591 269.811 23.2678 269.993 23.4151 270.222C23.5625 270.451 23.6362 270.704 23.6362 270.981C23.638 271.288 23.5474 271.546 23.3645 271.753C23.1834 271.961 22.9455 272.097 22.6507 272.161V272.203C23.0343 272.257 23.3281 272.399 23.5323 272.63C23.7383 272.859 23.8404 273.144 23.8386 273.485C23.8386 273.79 23.7516 274.063 23.5776 274.305C23.4054 274.545 23.1674 274.733 22.8638 274.869C22.562 275.006 22.2157 275.075 21.8251 275.075ZM29.4749 271.386H28.4788C28.4504 271.222 28.398 271.078 28.3217 270.952C28.2453 270.824 28.1503 270.716 28.0367 270.627C27.9231 270.538 27.7935 270.471 27.6479 270.427C27.504 270.381 27.3487 270.358 27.1818 270.358C26.8853 270.358 26.6225 270.432 26.3934 270.581C26.1644 270.729 25.985 270.945 25.8554 271.231C25.7258 271.515 25.661 271.863 25.661 272.273C25.661 272.69 25.7258 273.042 25.8554 273.327C25.9868 273.612 26.1661 273.826 26.3934 273.972C26.6225 274.116 26.8844 274.188 27.1791 274.188C27.3425 274.188 27.4952 274.166 27.6372 274.124C27.781 274.079 27.9098 274.015 28.0234 273.929C28.1388 273.844 28.2356 273.739 28.3137 273.615C28.3936 273.491 28.4486 273.349 28.4788 273.189L29.4749 273.194C29.4376 273.453 29.3568 273.697 29.2326 273.924C29.11 274.151 28.9494 274.352 28.7505 274.526C28.5516 274.698 28.319 274.833 28.0527 274.931C27.7864 275.027 27.4907 275.075 27.1658 275.075C26.6864 275.075 26.2585 274.964 25.8821 274.742C25.5056 274.52 25.2091 274.199 24.9925 273.78C24.7759 273.361 24.6676 272.859 24.6676 272.273C24.6676 271.685 24.7768 271.183 24.9952 270.765C25.2136 270.346 25.511 270.026 25.8874 269.804C26.2638 269.582 26.6899 269.471 27.1658 269.471C27.4694 269.471 27.7517 269.513 28.0127 269.599C28.2737 269.684 28.5063 269.809 28.7105 269.974C28.9147 270.138 29.0825 270.338 29.2139 270.576C29.3471 270.812 29.4341 271.082 29.4749 271.386ZM30.3265 275V274.286L32.2202 272.43C32.4013 272.247 32.5522 272.085 32.6729 271.942C32.7937 271.8 32.8842 271.663 32.9446 271.53C33.005 271.396 33.0352 271.254 33.0352 271.104C33.0352 270.931 32.9961 270.784 32.918 270.661C32.8398 270.537 32.7324 270.441 32.5957 270.374C32.459 270.306 32.3036 270.273 32.1296 270.273C31.9503 270.273 31.7931 270.31 31.6582 270.384C31.5233 270.457 31.4185 270.561 31.3439 270.696C31.2711 270.831 31.2347 270.992 31.2347 271.178H30.2946C30.2946 270.832 30.3736 270.531 30.5316 270.275C30.6896 270.02 30.9071 269.822 31.1841 269.681C31.4629 269.541 31.7825 269.471 32.1429 269.471C32.5087 269.471 32.8301 269.539 33.1071 269.676C33.3841 269.813 33.5989 270 33.7516 270.238C33.9061 270.476 33.9833 270.748 33.9833 271.053C33.9833 271.257 33.9442 271.458 33.8661 271.655C33.788 271.852 33.6504 272.07 33.4533 272.31C33.258 272.55 32.9837 272.84 32.6303 273.181L31.6902 274.137V274.174H34.0659V275H30.3265Z" fill="black"/>
<path d="M285.257 324.957C285.2 324.452 284.966 324.062 284.554 323.785C284.142 323.504 283.623 323.364 282.998 323.364C282.551 323.364 282.164 323.435 281.837 323.577C281.51 323.716 281.256 323.907 281.075 324.152C280.898 324.394 280.809 324.669 280.809 324.978C280.809 325.237 280.869 325.461 280.99 325.649C281.114 325.837 281.276 325.995 281.475 326.123C281.677 326.248 281.894 326.352 282.125 326.438C282.356 326.519 282.578 326.587 282.791 326.64L283.856 326.917C284.204 327.002 284.561 327.118 284.927 327.263C285.292 327.409 285.631 327.6 285.944 327.838C286.256 328.076 286.509 328.371 286.7 328.723C286.896 329.074 286.993 329.495 286.993 329.985C286.993 330.603 286.834 331.152 286.514 331.631C286.198 332.11 285.738 332.489 285.134 332.766C284.534 333.043 283.808 333.181 282.956 333.181C282.139 333.181 281.432 333.051 280.836 332.792C280.239 332.533 279.772 332.165 279.435 331.69C279.097 331.21 278.911 330.642 278.875 329.985H280.527C280.559 330.379 280.687 330.708 280.91 330.971C281.138 331.23 281.427 331.423 281.778 331.551C282.134 331.675 282.522 331.738 282.945 331.738C283.41 331.738 283.824 331.665 284.186 331.519C284.552 331.37 284.84 331.164 285.049 330.901C285.259 330.635 285.363 330.324 285.363 329.969C285.363 329.646 285.271 329.381 285.086 329.175C284.905 328.969 284.658 328.799 284.346 328.664C284.037 328.529 283.687 328.41 283.297 328.307L282.008 327.956C281.134 327.718 280.441 327.368 279.93 326.906C279.422 326.445 279.168 325.834 279.168 325.074C279.168 324.445 279.339 323.897 279.68 323.428C280.021 322.959 280.482 322.595 281.065 322.336C281.647 322.073 282.304 321.942 283.036 321.942C283.774 321.942 284.426 322.071 284.991 322.331C285.559 322.59 286.006 322.947 286.333 323.401C286.66 323.852 286.83 324.371 286.844 324.957H285.257ZM288.96 322.091H290.958L294.431 330.571H294.559L298.032 322.091H300.029V333H298.463V325.106H298.362L295.145 332.984H293.845L290.627 325.1H290.526V333H288.96V322.091ZM302.422 333V322.091H306.311C307.156 322.091 307.857 322.237 308.415 322.528C308.976 322.819 309.395 323.222 309.672 323.737C309.949 324.248 310.087 324.839 310.087 325.511C310.087 326.178 309.947 326.766 309.666 327.274C309.389 327.778 308.97 328.17 308.409 328.451C307.852 328.732 307.15 328.872 306.305 328.872H303.36V327.455H306.156C306.689 327.455 307.122 327.379 307.456 327.226C307.793 327.073 308.04 326.851 308.196 326.56C308.353 326.269 308.431 325.919 308.431 325.511C308.431 325.099 308.351 324.742 308.191 324.44C308.035 324.138 307.788 323.907 307.451 323.748C307.117 323.584 306.678 323.502 306.135 323.502H304.068V333H302.422ZM307.807 328.078L310.503 333H308.628L305.986 328.078H307.807Z" fill="black"/>
</svg>
