<svg width="740" height="310" viewBox="0 0 740 310" fill="none" xmlns="http://www.w3.org/2000/svg">
<rect x="168" y="50" width="112" height="30" fill="#CDCDCD"/>
<rect x="398" y="50" width="112" height="30" fill="#CDCDCD"/>
<rect x="283" y="50" width="112" height="30" fill="#CDCDCD"/>
<rect x="513" y="50" width="112" height="30" fill="#CDCDCD"/>
<rect x="628" y="50" width="112" height="30" fill="#CDCDCD"/>
<rect x="168" y="230" width="112" height="30" fill="#CDCDCD"/>
<rect x="398" y="230" width="112" height="30" fill="#CDCDCD"/>
<rect x="283" y="230" width="112" height="30" fill="#CDCDCD"/>
<rect x="513" y="230" width="112" height="30" fill="#CDCDCD"/>
<rect x="628" y="230" width="112" height="30" fill="#CDCDCD"/>
<path d="M53 57H165V73H53V57Z" fill="#148FB6"/>
<path d="M53 237H165V253H53V237Z" fill="#148FB6"/>
<rect x="83" y="50" width="52" height="30" fill="#CDCDCD"/>
<rect x="83" y="230" width="52" height="30" fill="#CDCDCD"/>
<path d="M200.474 72V70.5682L204.904 65.9787C205.377 65.4801 205.767 65.0433 206.074 64.6683C206.385 64.2891 206.617 63.929 206.77 63.5881C206.924 63.2472 207 62.8849 207 62.5014C207 62.0668 206.898 61.6918 206.694 61.3764C206.489 61.0568 206.21 60.8118 205.856 60.6413C205.502 60.4666 205.104 60.3793 204.661 60.3793C204.192 60.3793 203.783 60.4751 203.434 60.6669C203.084 60.8587 202.816 61.1293 202.628 61.4787C202.441 61.8281 202.347 62.2372 202.347 62.706H200.461C200.461 61.9091 200.645 61.2124 201.011 60.6158C201.377 60.0192 201.88 59.5568 202.52 59.2287C203.159 58.8963 203.885 58.7301 204.699 58.7301C205.522 58.7301 206.246 58.8942 206.873 59.2223C207.503 59.5462 207.995 59.9893 208.349 60.5518C208.703 61.1101 208.88 61.7408 208.88 62.4439C208.88 62.9297 208.788 63.4048 208.605 63.8693C208.426 64.3338 208.113 64.8516 207.665 65.4226C207.218 65.9893 206.596 66.6776 205.799 67.4872L203.197 70.2102V70.3061H209.091V72H200.474ZM215.834 72.179C215.033 72.179 214.313 72.0256 213.674 71.7188C213.039 71.4077 212.532 70.9815 212.152 70.4403C211.773 69.8991 211.571 69.2812 211.545 68.5866H213.463C213.51 69.1491 213.759 69.6115 214.211 69.9737C214.662 70.3359 215.203 70.517 215.834 70.517C216.337 70.517 216.782 70.402 217.17 70.1719C217.562 69.9375 217.869 69.6158 218.091 69.2067C218.316 68.7976 218.429 68.331 218.429 67.8068C218.429 67.2741 218.314 66.799 218.084 66.3814C217.854 65.9638 217.537 65.6357 217.132 65.397C216.731 65.1584 216.271 65.0369 215.751 65.0327C215.355 65.0327 214.956 65.1009 214.556 65.2372C214.155 65.3736 213.831 65.5526 213.584 65.7741L211.775 65.5057L212.51 58.9091H219.708V60.603H214.153L213.738 64.2656H213.814C214.07 64.0185 214.409 63.8118 214.831 63.6456C215.257 63.4794 215.713 63.3963 216.199 63.3963C216.995 63.3963 217.705 63.5859 218.327 63.9652C218.953 64.3445 219.446 64.8622 219.804 65.5185C220.166 66.1705 220.345 66.9205 220.341 67.7685C220.345 68.6165 220.153 69.3729 219.765 70.0376C219.382 70.7024 218.849 71.2266 218.167 71.6101C217.49 71.9893 216.712 72.179 215.834 72.179ZM223.485 72.1214C223.136 72.1214 222.836 71.9979 222.584 71.7507C222.333 71.4993 222.207 71.1967 222.207 70.843C222.207 70.4936 222.333 70.1953 222.584 69.9482C222.836 69.6967 223.136 69.571 223.485 69.571C223.835 69.571 224.135 69.6967 224.387 69.9482C224.638 70.1953 224.764 70.4936 224.764 70.843C224.764 71.0774 224.704 71.2926 224.585 71.4886C224.47 71.6804 224.316 71.8338 224.125 71.9489C223.933 72.0639 223.72 72.1214 223.485 72.1214ZM231.381 72.2173C230.371 72.2131 229.508 71.9467 228.792 71.4183C228.077 70.8899 227.529 70.1207 227.15 69.1108C226.77 68.1009 226.581 66.8842 226.581 65.4609C226.581 64.0419 226.77 62.8295 227.15 61.8239C227.533 60.8182 228.083 60.0511 228.799 59.5227C229.519 58.9943 230.38 58.7301 231.381 58.7301C232.383 58.7301 233.241 58.9964 233.957 59.5291C234.673 60.0575 235.221 60.8246 235.6 61.8303C235.983 62.8317 236.175 64.0419 236.175 65.4609C236.175 66.8885 235.986 68.1072 235.606 69.1172C235.227 70.1229 234.68 70.892 233.964 71.4247C233.248 71.9531 232.387 72.2173 231.381 72.2173ZM231.381 70.5107C232.268 70.5107 232.96 70.0781 233.459 69.2131C233.961 68.348 234.213 67.0973 234.213 65.4609C234.213 64.3743 234.098 63.456 233.868 62.706C233.642 61.9517 233.316 61.3807 232.89 60.9929C232.468 60.6009 231.965 60.4048 231.381 60.4048C230.499 60.4048 229.807 60.8395 229.304 61.7088C228.801 62.5781 228.547 63.8288 228.543 65.4609C228.543 66.5518 228.656 67.4744 228.882 68.2287C229.112 68.9787 229.438 69.5476 229.86 69.9354C230.282 70.3189 230.789 70.5107 231.381 70.5107ZM243 72.179C242.123 72.179 241.338 72.0277 240.648 71.7251C239.962 71.4226 239.419 71.0028 239.018 70.4659C238.622 69.9247 238.409 69.2983 238.379 68.5866H240.386C240.412 68.9744 240.542 69.3111 240.776 69.5966C241.015 69.8778 241.326 70.0952 241.709 70.2486C242.093 70.402 242.519 70.4787 242.988 70.4787C243.503 70.4787 243.959 70.3892 244.355 70.2102C244.756 70.0312 245.069 69.782 245.295 69.4624C245.521 69.1385 245.634 68.7656 245.634 68.3438C245.634 67.9048 245.521 67.5192 245.295 67.1868C245.074 66.8501 244.748 66.5859 244.317 66.3942C243.891 66.2024 243.375 66.1065 242.77 66.1065H241.664V64.4957H242.77C243.256 64.4957 243.682 64.4084 244.049 64.2337C244.419 64.0589 244.709 63.8161 244.918 63.505C245.127 63.1896 245.231 62.821 245.231 62.3991C245.231 61.9943 245.14 61.6428 244.956 61.3445C244.777 61.0419 244.522 60.8054 244.189 60.6349C243.861 60.4645 243.473 60.3793 243.026 60.3793C242.6 60.3793 242.201 60.4581 241.831 60.6158C241.464 60.7692 241.166 60.9908 240.936 61.2805C240.706 61.5661 240.582 61.9091 240.565 62.3097H238.654C238.675 61.6023 238.884 60.9801 239.28 60.4432C239.681 59.9062 240.209 59.4865 240.865 59.1839C241.522 58.8814 242.25 58.7301 243.051 58.7301C243.891 58.7301 244.615 58.8942 245.225 59.2223C245.838 59.5462 246.311 59.9787 246.644 60.5199C246.98 61.0611 247.147 61.6534 247.142 62.2969C247.147 63.0298 246.942 63.652 246.529 64.1634C246.12 64.6747 245.574 65.0178 244.892 65.1925V65.2947C245.762 65.4268 246.435 65.772 246.912 66.3303C247.394 66.8885 247.632 67.581 247.628 68.4077C247.632 69.1278 247.432 69.7734 247.027 70.3445C246.627 70.9155 246.079 71.3651 245.385 71.6932C244.69 72.017 243.895 72.179 243 72.179Z" fill="#424242"/>
<path d="M430.21 72V70.5682L434.64 65.9787C435.113 65.4801 435.503 65.0433 435.81 64.6683C436.121 64.2891 436.353 63.929 436.507 63.5881C436.66 63.2472 436.737 62.8849 436.737 62.5014C436.737 62.0668 436.634 61.6918 436.43 61.3764C436.225 61.0568 435.946 60.8118 435.593 60.6413C435.239 60.4666 434.84 60.3793 434.397 60.3793C433.928 60.3793 433.519 60.4751 433.17 60.6669C432.82 60.8587 432.552 61.1293 432.365 61.4787C432.177 61.8281 432.083 62.2372 432.083 62.706H430.198C430.198 61.9091 430.381 61.2124 430.747 60.6158C431.114 60.0192 431.617 59.5568 432.256 59.2287C432.895 58.8963 433.622 58.7301 434.436 58.7301C435.258 58.7301 435.982 58.8942 436.609 59.2223C437.24 59.5462 437.732 59.9893 438.085 60.5518C438.439 61.1101 438.616 61.7408 438.616 62.4439C438.616 62.9297 438.524 63.4048 438.341 63.8693C438.162 64.3338 437.849 64.8516 437.401 65.4226C436.954 65.9893 436.332 66.6776 435.535 67.4872L432.933 70.2102V70.3061H438.827V72H430.21ZM445.807 72.179C444.929 72.179 444.145 72.0277 443.455 71.7251C442.769 71.4226 442.225 71.0028 441.825 70.4659C441.428 69.9247 441.215 69.2983 441.186 68.5866H443.193C443.218 68.9744 443.348 69.3111 443.583 69.5966C443.821 69.8778 444.132 70.0952 444.516 70.2486C444.899 70.402 445.325 70.4787 445.794 70.4787C446.31 70.4787 446.766 70.3892 447.162 70.2102C447.563 70.0312 447.876 69.782 448.102 69.4624C448.328 69.1385 448.441 68.7656 448.441 68.3438C448.441 67.9048 448.328 67.5192 448.102 67.1868C447.88 66.8501 447.554 66.5859 447.124 66.3942C446.698 66.2024 446.182 66.1065 445.577 66.1065H444.471V64.4957H445.577C446.063 64.4957 446.489 64.4084 446.855 64.2337C447.226 64.0589 447.516 63.8161 447.725 63.505C447.933 63.1896 448.038 62.821 448.038 62.3991C448.038 61.9943 447.946 61.6428 447.763 61.3445C447.584 61.0419 447.328 60.8054 446.996 60.6349C446.668 60.4645 446.28 60.3793 445.833 60.3793C445.406 60.3793 445.008 60.4581 444.637 60.6158C444.271 60.7692 443.972 60.9908 443.742 61.2805C443.512 61.5661 443.389 61.9091 443.372 62.3097H441.46C441.482 61.6023 441.691 60.9801 442.087 60.4432C442.487 59.9062 443.016 59.4865 443.672 59.1839C444.328 58.8814 445.057 58.7301 445.858 58.7301C446.698 58.7301 447.422 58.8942 448.031 59.2223C448.645 59.5462 449.118 59.9787 449.45 60.5199C449.787 61.0611 449.953 61.6534 449.949 62.2969C449.953 63.0298 449.749 63.652 449.335 64.1634C448.926 64.6747 448.381 65.0178 447.699 65.1925V65.2947C448.568 65.4268 449.242 65.772 449.719 66.3303C450.2 66.8885 450.439 67.581 450.435 68.4077C450.439 69.1278 450.239 69.7734 449.834 70.3445C449.433 70.9155 448.886 71.3651 448.191 71.6932C447.497 72.017 446.702 72.179 445.807 72.179ZM453.749 72.1214C453.4 72.1214 453.099 71.9979 452.848 71.7507C452.596 71.4993 452.471 71.1967 452.471 70.843C452.471 70.4936 452.596 70.1953 452.848 69.9482C453.099 69.6967 453.4 69.571 453.749 69.571C454.099 69.571 454.399 69.6967 454.65 69.9482C454.902 70.1953 455.028 70.4936 455.028 70.843C455.028 71.0774 454.968 71.2926 454.849 71.4886C454.733 71.6804 454.58 71.8338 454.388 71.9489C454.197 72.0639 453.983 72.1214 453.749 72.1214ZM461.645 72.2173C460.635 72.2131 459.772 71.9467 459.056 71.4183C458.34 70.8899 457.793 70.1207 457.413 69.1108C457.034 68.1009 456.844 66.8842 456.844 65.4609C456.844 64.0419 457.034 62.8295 457.413 61.8239C457.797 60.8182 458.347 60.0511 459.062 59.5227C459.783 58.9943 460.643 58.7301 461.645 58.7301C462.646 58.7301 463.505 58.9964 464.221 59.5291C464.937 60.0575 465.484 60.8246 465.864 61.8303C466.247 62.8317 466.439 64.0419 466.439 65.4609C466.439 66.8885 466.249 68.1072 465.87 69.1172C465.491 70.1229 464.943 70.892 464.227 71.4247C463.511 71.9531 462.651 72.2173 461.645 72.2173ZM461.645 70.5107C462.531 70.5107 463.224 70.0781 463.722 69.2131C464.225 68.348 464.477 67.0973 464.477 65.4609C464.477 64.3743 464.362 63.456 464.131 62.706C463.906 61.9517 463.58 61.3807 463.153 60.9929C462.732 60.6009 462.229 60.4048 461.645 60.4048C460.763 60.4048 460.07 60.8395 459.567 61.7088C459.065 62.5781 458.811 63.8288 458.807 65.4609C458.807 66.5518 458.92 67.4744 459.146 68.2287C459.376 68.9787 459.702 69.5476 460.124 69.9354C460.545 70.3189 461.053 70.5107 461.645 70.5107ZM473.264 72.179C472.386 72.179 471.602 72.0277 470.912 71.7251C470.226 71.4226 469.682 71.0028 469.282 70.4659C468.885 69.9247 468.672 69.2983 468.643 68.5866H470.65C470.675 68.9744 470.805 69.3111 471.04 69.5966C471.278 69.8778 471.589 70.0952 471.973 70.2486C472.356 70.402 472.782 70.4787 473.251 70.4787C473.767 70.4787 474.223 70.3892 474.619 70.2102C475.02 70.0312 475.333 69.782 475.559 69.4624C475.785 69.1385 475.898 68.7656 475.898 68.3438C475.898 67.9048 475.785 67.5192 475.559 67.1868C475.337 66.8501 475.011 66.5859 474.581 66.3942C474.155 66.2024 473.639 66.1065 473.034 66.1065H471.928V64.4957H473.034C473.52 64.4957 473.946 64.4084 474.312 64.2337C474.683 64.0589 474.973 63.8161 475.182 63.505C475.39 63.1896 475.495 62.821 475.495 62.3991C475.495 61.9943 475.403 61.6428 475.22 61.3445C475.041 61.0419 474.785 60.8054 474.453 60.6349C474.125 60.4645 473.737 60.3793 473.29 60.3793C472.863 60.3793 472.465 60.4581 472.094 60.6158C471.728 60.7692 471.43 60.9908 471.199 61.2805C470.969 61.5661 470.846 61.9091 470.829 62.3097H468.917C468.939 61.6023 469.148 60.9801 469.544 60.4432C469.944 59.9062 470.473 59.4865 471.129 59.1839C471.785 58.8814 472.514 58.7301 473.315 58.7301C474.155 58.7301 474.879 58.8942 475.488 59.2223C476.102 59.5462 476.575 59.9787 476.907 60.5199C477.244 61.0611 477.41 61.6534 477.406 62.2969C477.41 63.0298 477.206 63.652 476.792 64.1634C476.383 64.6747 475.838 65.0178 475.156 65.1925V65.2947C476.025 65.4268 476.699 65.772 477.176 66.3303C477.657 66.8885 477.896 67.581 477.892 68.4077C477.896 69.1278 477.696 69.7734 477.291 70.3445C476.89 70.9155 476.343 71.3651 475.648 71.6932C474.954 72.017 474.159 72.179 473.264 72.179Z" fill="#424242"/>
<path d="M315.316 72V70.5682L319.746 65.9787C320.219 65.4801 320.608 65.0433 320.915 64.6683C321.226 64.2891 321.459 63.929 321.612 63.5881C321.765 63.2472 321.842 62.8849 321.842 62.5014C321.842 62.0668 321.74 61.6918 321.535 61.3764C321.331 61.0568 321.052 60.8118 320.698 60.6413C320.344 60.4666 319.946 60.3793 319.503 60.3793C319.034 60.3793 318.625 60.4751 318.275 60.6669C317.926 60.8587 317.657 61.1293 317.47 61.4787C317.282 61.8281 317.189 62.2372 317.189 62.706H315.303C315.303 61.9091 315.486 61.2124 315.853 60.6158C316.219 60.0192 316.722 59.5568 317.361 59.2287C318.001 58.8963 318.727 58.7301 319.541 58.7301C320.363 58.7301 321.088 58.8942 321.714 59.2223C322.345 59.5462 322.837 59.9893 323.191 60.5518C323.545 61.1101 323.721 61.7408 323.721 62.4439C323.721 62.9297 323.63 63.4048 323.447 63.8693C323.268 64.3338 322.954 64.8516 322.507 65.4226C322.059 65.9893 321.437 66.6776 320.64 67.4872L318.039 70.2102V70.3061H323.932V72H315.316ZM325.799 69.4432V67.8452L331.456 58.9091H332.715V61.2614H331.916L327.87 67.6662V67.7685H335.623V69.4432H325.799ZM332.006 72V68.9574L332.018 68.2287V58.9091H333.891V72H332.006ZM338.644 72.1214C338.294 72.1214 337.994 71.9979 337.742 71.7507C337.491 71.4993 337.365 71.1967 337.365 70.843C337.365 70.4936 337.491 70.1953 337.742 69.9482C337.994 69.6967 338.294 69.571 338.644 69.571C338.993 69.571 339.294 69.6967 339.545 69.9482C339.796 70.1953 339.922 70.4936 339.922 70.843C339.922 71.0774 339.862 71.2926 339.743 71.4886C339.628 71.6804 339.475 71.8338 339.283 71.9489C339.091 72.0639 338.878 72.1214 338.644 72.1214ZM346.539 72.2173C345.529 72.2131 344.667 71.9467 343.951 71.4183C343.235 70.8899 342.687 70.1207 342.308 69.1108C341.929 68.1009 341.739 66.8842 341.739 65.4609C341.739 64.0419 341.929 62.8295 342.308 61.8239C342.691 60.8182 343.241 60.0511 343.957 59.5227C344.677 58.9943 345.538 58.7301 346.539 58.7301C347.541 58.7301 348.4 58.9964 349.115 59.5291C349.831 60.0575 350.379 60.8246 350.758 61.8303C351.142 62.8317 351.333 64.0419 351.333 65.4609C351.333 66.8885 351.144 68.1072 350.765 69.1172C350.385 70.1229 349.838 70.892 349.122 71.4247C348.406 71.9531 347.545 72.2173 346.539 72.2173ZM346.539 70.5107C347.426 70.5107 348.118 70.0781 348.617 69.2131C349.12 68.348 349.371 67.0973 349.371 65.4609C349.371 64.3743 349.256 63.456 349.026 62.706C348.8 61.9517 348.474 61.3807 348.048 60.9929C347.626 60.6009 347.123 60.4048 346.539 60.4048C345.657 60.4048 344.965 60.8395 344.462 61.7088C343.959 62.5781 343.706 63.8288 343.701 65.4609C343.701 66.5518 343.814 67.4744 344.04 68.2287C344.27 68.9787 344.596 69.5476 345.018 69.9354C345.44 70.3189 345.947 70.5107 346.539 70.5107ZM358.159 72.179C357.281 72.179 356.497 72.0277 355.806 71.7251C355.12 71.4226 354.577 71.0028 354.176 70.4659C353.78 69.9247 353.567 69.2983 353.537 68.5866H355.544C355.57 68.9744 355.7 69.3111 355.934 69.5966C356.173 69.8778 356.484 70.0952 356.867 70.2486C357.251 70.402 357.677 70.4787 358.146 70.4787C358.661 70.4787 359.117 70.3892 359.514 70.2102C359.914 70.0312 360.227 69.782 360.453 69.4624C360.679 69.1385 360.792 68.7656 360.792 68.3438C360.792 67.9048 360.679 67.5192 360.453 67.1868C360.232 66.8501 359.906 66.5859 359.475 66.3942C359.049 66.2024 358.534 66.1065 357.928 66.1065H356.823V64.4957H357.928C358.414 64.4957 358.84 64.4084 359.207 64.2337C359.578 64.0589 359.867 63.8161 360.076 63.505C360.285 63.1896 360.389 62.821 360.389 62.3991C360.389 61.9943 360.298 61.6428 360.115 61.3445C359.936 61.0419 359.68 60.8054 359.347 60.6349C359.019 60.4645 358.632 60.3793 358.184 60.3793C357.758 60.3793 357.36 60.4581 356.989 60.6158C356.622 60.7692 356.324 60.9908 356.094 61.2805C355.864 61.5661 355.74 61.9091 355.723 62.3097H353.812C353.833 61.6023 354.042 60.9801 354.438 60.4432C354.839 59.9062 355.367 59.4865 356.024 59.1839C356.68 58.8814 357.409 58.7301 358.21 58.7301C359.049 58.7301 359.774 58.8942 360.383 59.2223C360.997 59.5462 361.47 59.9787 361.802 60.5199C362.139 61.0611 362.305 61.6534 362.301 62.2969C362.305 63.0298 362.1 63.652 361.687 64.1634C361.278 64.6747 360.732 65.0178 360.051 65.1925V65.2947C360.92 65.4268 361.593 65.772 362.07 66.3303C362.552 66.8885 362.791 67.581 362.786 68.4077C362.791 69.1278 362.59 69.7734 362.186 70.3445C361.785 70.9155 361.237 71.3651 360.543 71.6932C359.848 72.017 359.053 72.179 358.159 72.179Z" fill="#424242"/>
<path d="M545.298 72V70.5682L549.728 65.9787C550.201 65.4801 550.591 65.0433 550.898 64.6683C551.209 64.2891 551.441 63.929 551.594 63.5881C551.748 63.2472 551.825 62.8849 551.825 62.5014C551.825 62.0668 551.722 61.6918 551.518 61.3764C551.313 61.0568 551.034 60.8118 550.68 60.6413C550.327 60.4666 549.928 60.3793 549.485 60.3793C549.016 60.3793 548.607 60.4751 548.258 60.6669C547.908 60.8587 547.64 61.1293 547.452 61.4787C547.265 61.8281 547.171 62.2372 547.171 62.706H545.286C545.286 61.9091 545.469 61.2124 545.835 60.6158C546.202 60.0192 546.705 59.5568 547.344 59.2287C547.983 58.8963 548.71 58.7301 549.523 58.7301C550.346 58.7301 551.07 58.8942 551.697 59.2223C552.327 59.5462 552.82 59.9893 553.173 60.5518C553.527 61.1101 553.704 61.7408 553.704 62.4439C553.704 62.9297 553.612 63.4048 553.429 63.8693C553.25 64.3338 552.937 64.8516 552.489 65.4226C552.042 65.9893 551.42 66.6776 550.623 67.4872L548.021 70.2102V70.3061H553.915V72H545.298ZM556.337 72V70.5682L560.767 65.9787C561.24 65.4801 561.63 65.0433 561.937 64.6683C562.248 64.2891 562.48 63.929 562.634 63.5881C562.787 63.2472 562.864 62.8849 562.864 62.5014C562.864 62.0668 562.761 61.6918 562.557 61.3764C562.352 61.0568 562.073 60.8118 561.719 60.6413C561.366 60.4666 560.967 60.3793 560.524 60.3793C560.055 60.3793 559.646 60.4751 559.297 60.6669C558.947 60.8587 558.679 61.1293 558.491 61.4787C558.304 61.8281 558.21 62.2372 558.21 62.706H556.325C556.325 61.9091 556.508 61.2124 556.874 60.6158C557.241 60.0192 557.744 59.5568 558.383 59.2287C559.022 58.8963 559.749 58.7301 560.562 58.7301C561.385 58.7301 562.109 58.8942 562.736 59.2223C563.366 59.5462 563.859 59.9893 564.212 60.5518C564.566 61.1101 564.743 61.7408 564.743 62.4439C564.743 62.9297 564.651 63.4048 564.468 63.8693C564.289 64.3338 563.976 64.8516 563.528 65.4226C563.081 65.9893 562.459 66.6776 561.662 67.4872L559.06 70.2102V70.3061H564.954V72H556.337ZM568.661 72.1214C568.312 72.1214 568.011 71.9979 567.76 71.7507C567.509 71.4993 567.383 71.1967 567.383 70.843C567.383 70.4936 567.509 70.1953 567.76 69.9482C568.011 69.6967 568.312 69.571 568.661 69.571C569.011 69.571 569.311 69.6967 569.562 69.9482C569.814 70.1953 569.94 70.4936 569.94 70.843C569.94 71.0774 569.88 71.2926 569.761 71.4886C569.646 71.6804 569.492 71.8338 569.3 71.9489C569.109 72.0639 568.896 72.1214 568.661 72.1214ZM576.557 72.2173C575.547 72.2131 574.684 71.9467 573.968 71.4183C573.252 70.8899 572.705 70.1207 572.325 69.1108C571.946 68.1009 571.757 66.8842 571.757 65.4609C571.757 64.0419 571.946 62.8295 572.325 61.8239C572.709 60.8182 573.259 60.0511 573.975 59.5227C574.695 58.9943 575.556 58.7301 576.557 58.7301C577.558 58.7301 578.417 58.9964 579.133 59.5291C579.849 60.0575 580.396 60.8246 580.776 61.8303C581.159 62.8317 581.351 64.0419 581.351 65.4609C581.351 66.8885 581.161 68.1072 580.782 69.1172C580.403 70.1229 579.855 70.892 579.139 71.4247C578.423 71.9531 577.563 72.2173 576.557 72.2173ZM576.557 70.5107C577.443 70.5107 578.136 70.0781 578.634 69.2131C579.137 68.348 579.389 67.0973 579.389 65.4609C579.389 64.3743 579.274 63.456 579.044 62.706C578.818 61.9517 578.492 61.3807 578.066 60.9929C577.644 60.6009 577.141 60.4048 576.557 60.4048C575.675 60.4048 574.982 60.8395 574.48 61.7088C573.977 62.5781 573.723 63.8288 573.719 65.4609C573.719 66.5518 573.832 67.4744 574.058 68.2287C574.288 68.9787 574.614 69.5476 575.036 69.9354C575.458 70.3189 575.965 70.5107 576.557 70.5107ZM588.176 72.179C587.298 72.179 586.514 72.0277 585.824 71.7251C585.138 71.4226 584.594 71.0028 584.194 70.4659C583.798 69.9247 583.585 69.2983 583.555 68.5866H585.562C585.587 68.9744 585.717 69.3111 585.952 69.5966C586.19 69.8778 586.501 70.0952 586.885 70.2486C587.268 70.402 587.695 70.4787 588.163 70.4787C588.679 70.4787 589.135 70.3892 589.531 70.2102C589.932 70.0312 590.245 69.782 590.471 69.4624C590.697 69.1385 590.81 68.7656 590.81 68.3438C590.81 67.9048 590.697 67.5192 590.471 67.1868C590.249 66.8501 589.923 66.5859 589.493 66.3942C589.067 66.2024 588.551 66.1065 587.946 66.1065H586.84V64.4957H587.946C588.432 64.4957 588.858 64.4084 589.224 64.2337C589.595 64.0589 589.885 63.8161 590.094 63.505C590.303 63.1896 590.407 62.821 590.407 62.3991C590.407 61.9943 590.315 61.6428 590.132 61.3445C589.953 61.0419 589.697 60.8054 589.365 60.6349C589.037 60.4645 588.649 60.3793 588.202 60.3793C587.776 60.3793 587.377 60.4581 587.006 60.6158C586.64 60.7692 586.342 60.9908 586.112 61.2805C585.881 61.5661 585.758 61.9091 585.741 62.3097H583.83C583.851 61.6023 584.06 60.9801 584.456 60.4432C584.857 59.9062 585.385 59.4865 586.041 59.1839C586.697 58.8814 587.426 58.7301 588.227 58.7301C589.067 58.7301 589.791 58.8942 590.401 59.2223C591.014 59.5462 591.487 59.9787 591.82 60.5199C592.156 61.0611 592.322 61.6534 592.318 62.2969C592.322 63.0298 592.118 63.652 591.705 64.1634C591.295 64.6747 590.75 65.0178 590.068 65.1925V65.2947C590.938 65.4268 591.611 65.772 592.088 66.3303C592.57 66.8885 592.808 67.581 592.804 68.4077C592.808 69.1278 592.608 69.7734 592.203 70.3445C591.803 70.9155 591.255 71.3651 590.56 71.6932C589.866 72.017 589.071 72.179 588.176 72.179Z" fill="#424242"/>
<path d="M661.942 72V70.5682L666.372 65.9787C666.845 65.4801 667.234 65.0433 667.541 64.6683C667.852 64.2891 668.085 63.929 668.238 63.5881C668.391 63.2472 668.468 62.8849 668.468 62.5014C668.468 62.0668 668.366 61.6918 668.161 61.3764C667.957 61.0568 667.678 60.8118 667.324 60.6413C666.97 60.4666 666.572 60.3793 666.129 60.3793C665.66 60.3793 665.251 60.4751 664.901 60.6669C664.552 60.8587 664.283 61.1293 664.096 61.4787C663.908 61.8281 663.815 62.2372 663.815 62.706H661.929C661.929 61.9091 662.112 61.2124 662.479 60.6158C662.845 60.0192 663.348 59.5568 663.987 59.2287C664.627 58.8963 665.353 58.7301 666.167 58.7301C666.989 58.7301 667.714 58.8942 668.34 59.2223C668.971 59.5462 669.463 59.9893 669.817 60.5518C670.171 61.1101 670.347 61.7408 670.347 62.4439C670.347 62.9297 670.256 63.4048 670.073 63.8693C669.894 64.3338 669.58 64.8516 669.133 65.4226C668.685 65.9893 668.063 66.6776 667.266 67.4872L664.665 70.2102V70.3061H670.558V72H661.942ZM677.948 58.9091V72H675.966V60.8906H675.889L672.757 62.9361V61.044L676.024 58.9091H677.948ZM682.018 72.1214C681.668 72.1214 681.368 71.9979 681.116 71.7507C680.865 71.4993 680.739 71.1967 680.739 70.843C680.739 70.4936 680.865 70.1953 681.116 69.9482C681.368 69.6967 681.668 69.571 682.018 69.571C682.367 69.571 682.668 69.6967 682.919 69.9482C683.17 70.1953 683.296 70.4936 683.296 70.843C683.296 71.0774 683.236 71.2926 683.117 71.4886C683.002 71.6804 682.849 71.8338 682.657 71.9489C682.465 72.0639 682.252 72.1214 682.018 72.1214ZM689.913 72.2173C688.903 72.2131 688.041 71.9467 687.325 71.4183C686.609 70.8899 686.061 70.1207 685.682 69.1108C685.303 68.1009 685.113 66.8842 685.113 65.4609C685.113 64.0419 685.303 62.8295 685.682 61.8239C686.065 60.8182 686.615 60.0511 687.331 59.5227C688.051 58.9943 688.912 58.7301 689.913 58.7301C690.915 58.7301 691.774 58.9964 692.489 59.5291C693.205 60.0575 693.753 60.8246 694.132 61.8303C694.516 62.8317 694.707 64.0419 694.707 65.4609C694.707 66.8885 694.518 68.1072 694.139 69.1172C693.759 70.1229 693.212 70.892 692.496 71.4247C691.78 71.9531 690.919 72.2173 689.913 72.2173ZM689.913 70.5107C690.8 70.5107 691.492 70.0781 691.991 69.2131C692.494 68.348 692.745 67.0973 692.745 65.4609C692.745 64.3743 692.63 63.456 692.4 62.706C692.174 61.9517 691.848 61.3807 691.422 60.9929C691 60.6009 690.497 60.4048 689.913 60.4048C689.031 60.4048 688.339 60.8395 687.836 61.7088C687.333 62.5781 687.08 63.8288 687.075 65.4609C687.075 66.5518 687.188 67.4744 687.414 68.2287C687.644 68.9787 687.97 69.5476 688.392 69.9354C688.814 70.3189 689.321 70.5107 689.913 70.5107ZM701.533 72.179C700.655 72.179 699.871 72.0277 699.18 71.7251C698.494 71.4226 697.951 71.0028 697.55 70.4659C697.154 69.9247 696.941 69.2983 696.911 68.5866H698.918C698.944 68.9744 699.074 69.3111 699.308 69.5966C699.547 69.8778 699.858 70.0952 700.241 70.2486C700.625 70.402 701.051 70.4787 701.52 70.4787C702.035 70.4787 702.491 70.3892 702.888 70.2102C703.288 70.0312 703.601 69.782 703.827 69.4624C704.053 69.1385 704.166 68.7656 704.166 68.3438C704.166 67.9048 704.053 67.5192 703.827 67.1868C703.606 66.8501 703.28 66.5859 702.849 66.3942C702.423 66.2024 701.908 66.1065 701.302 66.1065H700.197V64.4957H701.302C701.788 64.4957 702.214 64.4084 702.581 64.2337C702.952 64.0589 703.241 63.8161 703.45 63.505C703.659 63.1896 703.763 62.821 703.763 62.3991C703.763 61.9943 703.672 61.6428 703.489 61.3445C703.31 61.0419 703.054 60.8054 702.722 60.6349C702.393 60.4645 702.006 60.3793 701.558 60.3793C701.132 60.3793 700.734 60.4581 700.363 60.6158C699.996 60.7692 699.698 60.9908 699.468 61.2805C699.238 61.5661 699.114 61.9091 699.097 62.3097H697.186C697.207 61.6023 697.416 60.9801 697.812 60.4432C698.213 59.9062 698.741 59.4865 699.398 59.1839C700.054 58.8814 700.783 58.7301 701.584 58.7301C702.423 58.7301 703.148 58.8942 703.757 59.2223C704.371 59.5462 704.844 59.9787 705.176 60.5199C705.513 61.0611 705.679 61.6534 705.675 62.2969C705.679 63.0298 705.474 63.652 705.061 64.1634C704.652 64.6747 704.106 65.0178 703.425 65.1925V65.2947C704.294 65.4268 704.967 65.772 705.445 66.3303C705.926 66.8885 706.165 67.581 706.16 68.4077C706.165 69.1278 705.964 69.7734 705.56 70.3445C705.159 70.9155 704.611 71.3651 703.917 71.6932C703.222 72.017 702.427 72.179 701.533 72.179Z" fill="#424242"/>
<path d="M206.531 238.909V252H204.549V240.891H204.472L201.34 242.936V241.044L204.607 238.909H206.531ZM210.072 252V250.568L214.501 245.979C214.974 245.48 215.364 245.043 215.671 244.668C215.982 244.289 216.214 243.929 216.368 243.588C216.521 243.247 216.598 242.885 216.598 242.501C216.598 242.067 216.496 241.692 216.291 241.376C216.087 241.057 215.808 240.812 215.454 240.641C215.1 240.467 214.702 240.379 214.259 240.379C213.79 240.379 213.381 240.475 213.031 240.667C212.682 240.859 212.413 241.129 212.226 241.479C212.038 241.828 211.945 242.237 211.945 242.706H210.059C210.059 241.909 210.242 241.212 210.609 240.616C210.975 240.019 211.478 239.557 212.117 239.229C212.756 238.896 213.483 238.73 214.297 238.73C215.119 238.73 215.844 238.894 216.47 239.222C217.101 239.546 217.593 239.989 217.947 240.552C218.3 241.11 218.477 241.741 218.477 242.444C218.477 242.93 218.386 243.405 218.202 243.869C218.023 244.334 217.71 244.852 217.263 245.423C216.815 245.989 216.193 246.678 215.396 247.487L212.795 250.21V250.306H218.688V252H210.072ZM222.396 252.121C222.046 252.121 221.746 251.998 221.494 251.751C221.243 251.499 221.117 251.197 221.117 250.843C221.117 250.494 221.243 250.195 221.494 249.948C221.746 249.697 222.046 249.571 222.396 249.571C222.745 249.571 223.045 249.697 223.297 249.948C223.548 250.195 223.674 250.494 223.674 250.843C223.674 251.077 223.614 251.293 223.495 251.489C223.38 251.68 223.227 251.834 223.035 251.949C222.843 252.064 222.63 252.121 222.396 252.121ZM230.291 252.217C229.281 252.213 228.419 251.947 227.703 251.418C226.987 250.89 226.439 250.121 226.06 249.111C225.681 248.101 225.491 246.884 225.491 245.461C225.491 244.042 225.681 242.83 226.06 241.824C226.443 240.818 226.993 240.051 227.709 239.523C228.429 238.994 229.29 238.73 230.291 238.73C231.293 238.73 232.151 238.996 232.867 239.529C233.583 240.058 234.131 240.825 234.51 241.83C234.894 242.832 235.085 244.042 235.085 245.461C235.085 246.888 234.896 248.107 234.517 249.117C234.137 250.123 233.59 250.892 232.874 251.425C232.158 251.953 231.297 252.217 230.291 252.217ZM230.291 250.511C231.178 250.511 231.87 250.078 232.369 249.213C232.872 248.348 233.123 247.097 233.123 245.461C233.123 244.374 233.008 243.456 232.778 242.706C232.552 241.952 232.226 241.381 231.8 240.993C231.378 240.601 230.875 240.405 230.291 240.405C229.409 240.405 228.717 240.839 228.214 241.709C227.711 242.578 227.458 243.829 227.453 245.461C227.453 246.552 227.566 247.474 227.792 248.229C228.022 248.979 228.348 249.548 228.77 249.935C229.192 250.319 229.699 250.511 230.291 250.511ZM241.911 252.179C241.033 252.179 240.249 252.028 239.558 251.725C238.872 251.423 238.329 251.003 237.928 250.466C237.532 249.925 237.319 249.298 237.289 248.587H239.296C239.322 248.974 239.452 249.311 239.686 249.597C239.925 249.878 240.236 250.095 240.619 250.249C241.003 250.402 241.429 250.479 241.898 250.479C242.413 250.479 242.869 250.389 243.266 250.21C243.666 250.031 243.979 249.782 244.205 249.462C244.431 249.138 244.544 248.766 244.544 248.344C244.544 247.905 244.431 247.519 244.205 247.187C243.984 246.85 243.658 246.586 243.227 246.394C242.801 246.202 242.286 246.107 241.68 246.107H240.575V244.496H241.68C242.166 244.496 242.592 244.408 242.959 244.234C243.33 244.059 243.619 243.816 243.828 243.505C244.037 243.19 244.141 242.821 244.141 242.399C244.141 241.994 244.05 241.643 243.866 241.344C243.688 241.042 243.432 240.805 243.099 240.635C242.771 240.464 242.384 240.379 241.936 240.379C241.51 240.379 241.112 240.458 240.741 240.616C240.374 240.769 240.076 240.991 239.846 241.281C239.616 241.566 239.492 241.909 239.475 242.31H237.564C237.585 241.602 237.794 240.98 238.19 240.443C238.591 239.906 239.119 239.487 239.776 239.184C240.432 238.881 241.161 238.73 241.962 238.73C242.801 238.73 243.526 238.894 244.135 239.222C244.749 239.546 245.222 239.979 245.554 240.52C245.891 241.061 246.057 241.653 246.053 242.297C246.057 243.03 245.852 243.652 245.439 244.163C245.03 244.675 244.484 245.018 243.803 245.192V245.295C244.672 245.427 245.345 245.772 245.822 246.33C246.304 246.888 246.543 247.581 246.538 248.408C246.543 249.128 246.342 249.773 245.938 250.344C245.537 250.915 244.989 251.365 244.295 251.693C243.6 252.017 242.805 252.179 241.911 252.179Z" fill="#424242"/>
<path d="M436.407 238.909V252H434.426V240.891H434.349L431.217 242.936V241.044L434.483 238.909H436.407ZM439.674 249.443V247.845L445.331 238.909H446.59V241.261H445.791L441.745 247.666V247.768H449.498V249.443H439.674ZM445.881 252V248.957L445.893 248.229V238.909H447.766V252H445.881ZM452.519 252.121C452.169 252.121 451.869 251.998 451.617 251.751C451.366 251.499 451.24 251.197 451.24 250.843C451.24 250.494 451.366 250.195 451.617 249.948C451.869 249.697 452.169 249.571 452.519 249.571C452.868 249.571 453.169 249.697 453.42 249.948C453.671 250.195 453.797 250.494 453.797 250.843C453.797 251.077 453.737 251.293 453.618 251.489C453.503 251.68 453.35 251.834 453.158 251.949C452.966 252.064 452.753 252.121 452.519 252.121ZM460.414 252.217C459.404 252.213 458.542 251.947 457.826 251.418C457.11 250.89 456.562 250.121 456.183 249.111C455.804 248.101 455.614 246.884 455.614 245.461C455.614 244.042 455.804 242.83 456.183 241.824C456.566 240.818 457.116 240.051 457.832 239.523C458.552 238.994 459.413 238.73 460.414 238.73C461.416 238.73 462.275 238.996 462.99 239.529C463.706 240.058 464.254 240.825 464.633 241.83C465.017 242.832 465.208 244.042 465.208 245.461C465.208 246.888 465.019 248.107 464.64 249.117C464.26 250.123 463.713 250.892 462.997 251.425C462.281 251.953 461.42 252.217 460.414 252.217ZM460.414 250.511C461.301 250.511 461.993 250.078 462.492 249.213C462.995 248.348 463.246 247.097 463.246 245.461C463.246 244.374 463.131 243.456 462.901 242.706C462.675 241.952 462.349 241.381 461.923 240.993C461.501 240.601 460.998 240.405 460.414 240.405C459.532 240.405 458.84 240.839 458.337 241.709C457.834 242.578 457.581 243.829 457.576 245.461C457.576 246.552 457.689 247.474 457.915 248.229C458.145 248.979 458.471 249.548 458.893 249.935C459.315 250.319 459.822 250.511 460.414 250.511ZM472.034 252.179C471.156 252.179 470.372 252.028 469.681 251.725C468.995 251.423 468.452 251.003 468.051 250.466C467.655 249.925 467.442 249.298 467.412 248.587H469.419C469.445 248.974 469.575 249.311 469.809 249.597C470.048 249.878 470.359 250.095 470.742 250.249C471.126 250.402 471.552 250.479 472.021 250.479C472.536 250.479 472.992 250.389 473.389 250.21C473.789 250.031 474.102 249.782 474.328 249.462C474.554 249.138 474.667 248.766 474.667 248.344C474.667 247.905 474.554 247.519 474.328 247.187C474.107 246.85 473.781 246.586 473.35 246.394C472.924 246.202 472.409 246.107 471.803 246.107H470.698V244.496H471.803C472.289 244.496 472.715 244.408 473.082 244.234C473.453 244.059 473.742 243.816 473.951 243.505C474.16 243.19 474.264 242.821 474.264 242.399C474.264 241.994 474.173 241.643 473.99 241.344C473.811 241.042 473.555 240.805 473.222 240.635C472.894 240.464 472.507 240.379 472.059 240.379C471.633 240.379 471.235 240.458 470.864 240.616C470.497 240.769 470.199 240.991 469.969 241.281C469.739 241.566 469.615 241.909 469.598 242.31H467.687C467.708 241.602 467.917 240.98 468.313 240.443C468.714 239.906 469.242 239.487 469.899 239.184C470.555 238.881 471.284 238.73 472.085 238.73C472.924 238.73 473.649 238.894 474.258 239.222C474.872 239.546 475.345 239.979 475.677 240.52C476.014 241.061 476.18 241.653 476.176 242.297C476.18 243.03 475.975 243.652 475.562 244.163C475.153 244.675 474.607 245.018 473.926 245.192V245.295C474.795 245.427 475.468 245.772 475.945 246.33C476.427 246.888 476.666 247.581 476.661 248.408C476.666 249.128 476.465 249.773 476.061 250.344C475.66 250.915 475.112 251.365 474.418 251.693C473.723 252.017 472.928 252.179 472.034 252.179Z" fill="#424242"/>
<path d="M321.443 238.909V252H319.461V240.891H319.384L316.252 242.936V241.044L319.519 238.909H321.443ZM329.541 252.179C328.664 252.179 327.879 252.028 327.189 251.725C326.503 251.423 325.96 251.003 325.559 250.466C325.163 249.925 324.95 249.298 324.92 248.587H326.927C326.953 248.974 327.083 249.311 327.317 249.597C327.556 249.878 327.867 250.095 328.25 250.249C328.634 250.402 329.06 250.479 329.529 250.479C330.044 250.479 330.5 250.389 330.896 250.21C331.297 250.031 331.61 249.782 331.836 249.462C332.062 249.138 332.175 248.766 332.175 248.344C332.175 247.905 332.062 247.519 331.836 247.187C331.615 246.85 331.289 246.586 330.858 246.394C330.432 246.202 329.916 246.107 329.311 246.107H328.205V244.496H329.311C329.797 244.496 330.223 244.408 330.59 244.234C330.96 244.059 331.25 243.816 331.459 243.505C331.668 243.19 331.772 242.821 331.772 242.399C331.772 241.994 331.681 241.643 331.497 241.344C331.318 241.042 331.063 240.805 330.73 240.635C330.402 240.464 330.014 240.379 329.567 240.379C329.141 240.379 328.742 240.458 328.372 240.616C328.005 240.769 327.707 240.991 327.477 241.281C327.247 241.566 327.123 241.909 327.106 242.31H325.195C325.216 241.602 325.425 240.98 325.821 240.443C326.222 239.906 326.75 239.487 327.406 239.184C328.063 238.881 328.791 238.73 329.593 238.73C330.432 238.73 331.156 238.894 331.766 239.222C332.379 239.546 332.852 239.979 333.185 240.52C333.521 241.061 333.688 241.653 333.683 242.297C333.688 243.03 333.483 243.652 333.07 244.163C332.661 244.675 332.115 245.018 331.433 245.192V245.295C332.303 245.427 332.976 245.772 333.453 246.33C333.935 246.888 334.173 247.581 334.169 248.408C334.173 249.128 333.973 249.773 333.568 250.344C333.168 250.915 332.62 251.365 331.926 251.693C331.231 252.017 330.436 252.179 329.541 252.179ZM337.483 252.121C337.134 252.121 336.834 251.998 336.582 251.751C336.331 251.499 336.205 251.197 336.205 250.843C336.205 250.494 336.331 250.195 336.582 249.948C336.834 249.697 337.134 249.571 337.483 249.571C337.833 249.571 338.133 249.697 338.385 249.948C338.636 250.195 338.762 250.494 338.762 250.843C338.762 251.077 338.702 251.293 338.583 251.489C338.468 251.68 338.314 251.834 338.123 251.949C337.931 252.064 337.718 252.121 337.483 252.121ZM345.379 252.217C344.369 252.213 343.506 251.947 342.79 251.418C342.075 250.89 341.527 250.121 341.148 249.111C340.768 248.101 340.579 246.884 340.579 245.461C340.579 244.042 340.768 242.83 341.148 241.824C341.531 240.818 342.081 240.051 342.797 239.523C343.517 238.994 344.378 238.73 345.379 238.73C346.381 238.73 347.239 238.996 347.955 239.529C348.671 240.058 349.219 240.825 349.598 241.83C349.982 242.832 350.173 244.042 350.173 245.461C350.173 246.888 349.984 248.107 349.604 249.117C349.225 250.123 348.678 250.892 347.962 251.425C347.246 251.953 346.385 252.217 345.379 252.217ZM345.379 250.511C346.266 250.511 346.958 250.078 347.457 249.213C347.96 248.348 348.211 247.097 348.211 245.461C348.211 244.374 348.096 243.456 347.866 242.706C347.64 241.952 347.314 241.381 346.888 240.993C346.466 240.601 345.963 240.405 345.379 240.405C344.497 240.405 343.805 240.839 343.302 241.709C342.799 242.578 342.545 243.829 342.541 245.461C342.541 246.552 342.654 247.474 342.88 248.229C343.11 248.979 343.436 249.548 343.858 249.935C344.28 250.319 344.787 250.511 345.379 250.511ZM356.998 252.179C356.121 252.179 355.336 252.028 354.646 251.725C353.96 251.423 353.417 251.003 353.016 250.466C352.62 249.925 352.407 249.298 352.377 248.587H354.384C354.41 248.974 354.54 249.311 354.774 249.597C355.013 249.878 355.324 250.095 355.707 250.249C356.091 250.402 356.517 250.479 356.986 250.479C357.501 250.479 357.957 250.389 358.354 250.21C358.754 250.031 359.067 249.782 359.293 249.462C359.519 249.138 359.632 248.766 359.632 248.344C359.632 247.905 359.519 247.519 359.293 247.187C359.072 246.85 358.746 246.586 358.315 246.394C357.889 246.202 357.373 246.107 356.768 246.107H355.662V244.496H356.768C357.254 244.496 357.68 244.408 358.047 244.234C358.417 244.059 358.707 243.816 358.916 243.505C359.125 243.19 359.229 242.821 359.229 242.399C359.229 241.994 359.138 241.643 358.954 241.344C358.775 241.042 358.52 240.805 358.187 240.635C357.859 240.464 357.471 240.379 357.024 240.379C356.598 240.379 356.199 240.458 355.829 240.616C355.462 240.769 355.164 240.991 354.934 241.281C354.704 241.566 354.58 241.909 354.563 242.31H352.652C352.673 241.602 352.882 240.98 353.278 240.443C353.679 239.906 354.207 239.487 354.863 239.184C355.52 238.881 356.248 238.73 357.05 238.73C357.889 238.73 358.613 238.894 359.223 239.222C359.836 239.546 360.309 239.979 360.642 240.52C360.979 241.061 361.145 241.653 361.14 242.297C361.145 243.03 360.94 243.652 360.527 244.163C360.118 244.675 359.572 245.018 358.89 245.192V245.295C359.76 245.427 360.433 245.772 360.91 246.33C361.392 246.888 361.631 247.581 361.626 248.408C361.631 249.128 361.43 249.773 361.025 250.344C360.625 250.915 360.077 251.365 359.383 251.693C358.688 252.017 357.893 252.179 356.998 252.179Z" fill="#424242"/>
<path d="M551.706 238.909V252H549.725V240.891H549.648L546.516 242.936V241.044L549.782 238.909H551.706ZM559.569 252.179C558.767 252.179 558.047 252.026 557.408 251.719C556.773 251.408 556.266 250.982 555.887 250.44C555.507 249.899 555.305 249.281 555.279 248.587H557.197C557.244 249.149 557.493 249.612 557.945 249.974C558.397 250.336 558.938 250.517 559.569 250.517C560.071 250.517 560.517 250.402 560.904 250.172C561.297 249.938 561.603 249.616 561.825 249.207C562.051 248.798 562.164 248.331 562.164 247.807C562.164 247.274 562.049 246.799 561.819 246.381C561.588 245.964 561.271 245.636 560.866 245.397C560.466 245.158 560.005 245.037 559.485 245.033C559.089 245.033 558.691 245.101 558.29 245.237C557.89 245.374 557.566 245.553 557.319 245.774L555.51 245.506L556.245 238.909H563.442V240.603H557.887L557.472 244.266H557.549C557.804 244.018 558.143 243.812 558.565 243.646C558.991 243.479 559.447 243.396 559.933 243.396C560.73 243.396 561.439 243.586 562.061 243.965C562.688 244.344 563.18 244.862 563.538 245.518C563.9 246.17 564.079 246.92 564.075 247.768C564.079 248.616 563.887 249.373 563.5 250.038C563.116 250.702 562.583 251.227 561.902 251.61C561.224 251.989 560.446 252.179 559.569 252.179ZM567.22 252.121C566.87 252.121 566.57 251.998 566.319 251.751C566.067 251.499 565.941 251.197 565.941 250.843C565.941 250.494 566.067 250.195 566.319 249.948C566.57 249.697 566.87 249.571 567.22 249.571C567.569 249.571 567.87 249.697 568.121 249.948C568.373 250.195 568.498 250.494 568.498 250.843C568.498 251.077 568.439 251.293 568.319 251.489C568.204 251.68 568.051 251.834 567.859 251.949C567.667 252.064 567.454 252.121 567.22 252.121ZM575.116 252.217C574.106 252.213 573.243 251.947 572.527 251.418C571.811 250.89 571.263 250.121 570.884 249.111C570.505 248.101 570.315 246.884 570.315 245.461C570.315 244.042 570.505 242.83 570.884 241.824C571.268 240.818 571.817 240.051 572.533 239.523C573.253 238.994 574.114 238.73 575.116 238.73C576.117 238.73 576.976 238.996 577.692 239.529C578.407 240.058 578.955 240.825 579.334 241.83C579.718 242.832 579.91 244.042 579.91 245.461C579.91 246.888 579.72 248.107 579.341 249.117C578.961 250.123 578.414 250.892 577.698 251.425C576.982 251.953 576.121 252.217 575.116 252.217ZM575.116 250.511C576.002 250.511 576.694 250.078 577.193 249.213C577.696 248.348 577.947 247.097 577.947 245.461C577.947 244.374 577.832 243.456 577.602 242.706C577.376 241.952 577.05 241.381 576.624 240.993C576.202 240.601 575.699 240.405 575.116 240.405C574.233 240.405 573.541 240.839 573.038 241.709C572.535 242.578 572.282 243.829 572.278 245.461C572.278 246.552 572.39 247.474 572.616 248.229C572.846 248.979 573.172 249.548 573.594 249.935C574.016 250.319 574.523 250.511 575.116 250.511ZM586.735 252.179C585.857 252.179 585.073 252.028 584.382 251.725C583.696 251.423 583.153 251.003 582.752 250.466C582.356 249.925 582.143 249.298 582.113 248.587H584.12C584.146 248.974 584.276 249.311 584.51 249.597C584.749 249.878 585.06 250.095 585.444 250.249C585.827 250.402 586.253 250.479 586.722 250.479C587.238 250.479 587.694 250.389 588.09 250.21C588.49 250.031 588.804 249.782 589.029 249.462C589.255 249.138 589.368 248.766 589.368 248.344C589.368 247.905 589.255 247.519 589.029 247.187C588.808 246.85 588.482 246.586 588.051 246.394C587.625 246.202 587.11 246.107 586.505 246.107H585.399V244.496H586.505C586.99 244.496 587.417 244.408 587.783 244.234C588.154 244.059 588.444 243.816 588.652 243.505C588.861 243.19 588.966 242.821 588.966 242.399C588.966 241.994 588.874 241.643 588.691 241.344C588.512 241.042 588.256 240.805 587.924 240.635C587.596 240.464 587.208 240.379 586.76 240.379C586.334 240.379 585.936 240.458 585.565 240.616C585.199 240.769 584.9 240.991 584.67 241.281C584.44 241.566 584.316 241.909 584.299 242.31H582.388C582.409 241.602 582.618 240.98 583.015 240.443C583.415 239.906 583.944 239.487 584.6 239.184C585.256 238.881 585.985 238.73 586.786 238.73C587.625 238.73 588.35 238.894 588.959 239.222C589.573 239.546 590.046 239.979 590.378 240.52C590.715 241.061 590.881 241.653 590.877 242.297C590.881 243.03 590.676 243.652 590.263 244.163C589.854 244.675 589.309 245.018 588.627 245.192V245.295C589.496 245.427 590.169 245.772 590.647 246.33C591.128 246.888 591.367 247.581 591.363 248.408C591.367 249.128 591.167 249.773 590.762 250.344C590.361 250.915 589.814 251.365 589.119 251.693C588.424 252.017 587.63 252.179 586.735 252.179Z" fill="#424242"/>
<path d="M666.627 238.909V252H664.646V240.891H664.569L661.437 242.936V241.044L664.703 238.909H666.627ZM674.739 252.179C674.155 252.17 673.58 252.064 673.013 251.859C672.45 251.655 671.939 251.314 671.479 250.837C671.019 250.359 670.65 249.718 670.373 248.913C670.1 248.107 669.964 247.102 669.964 245.896C669.964 244.754 670.077 243.739 670.303 242.853C670.533 241.967 670.863 241.219 671.293 240.609C671.724 239.996 672.244 239.529 672.853 239.21C673.462 238.89 674.146 238.73 674.905 238.73C675.685 238.73 676.377 238.884 676.982 239.19C677.587 239.497 678.078 239.921 678.453 240.462C678.832 241.004 679.073 241.619 679.175 242.31H677.225C677.093 241.764 676.831 241.319 676.439 240.974C676.047 240.629 675.536 240.456 674.905 240.456C673.946 240.456 673.198 240.874 672.661 241.709C672.129 242.544 671.86 243.705 671.856 245.192H671.952C672.178 244.822 672.455 244.506 672.783 244.246C673.115 243.982 673.486 243.78 673.895 243.639C674.308 243.494 674.743 243.422 675.199 243.422C675.957 243.422 676.644 243.607 677.257 243.978C677.875 244.344 678.367 244.852 678.734 245.499C679.1 246.147 679.283 246.888 679.283 247.724C679.283 248.559 679.094 249.315 678.715 249.993C678.34 250.67 677.811 251.207 677.129 251.604C676.448 251.996 675.651 252.188 674.739 252.179ZM674.732 250.517C675.235 250.517 675.685 250.393 676.081 250.146C676.477 249.899 676.791 249.567 677.021 249.149C677.251 248.732 677.366 248.265 677.366 247.749C677.366 247.246 677.253 246.788 677.027 246.375C676.805 245.962 676.499 245.634 676.107 245.391C675.719 245.148 675.276 245.026 674.777 245.026C674.398 245.026 674.046 245.099 673.722 245.244C673.403 245.388 673.122 245.589 672.879 245.844C672.636 246.1 672.444 246.394 672.303 246.727C672.167 247.055 672.099 247.402 672.099 247.768C672.099 248.259 672.212 248.712 672.438 249.13C672.668 249.548 672.981 249.884 673.377 250.14C673.778 250.391 674.229 250.517 674.732 250.517ZM682.299 252.121C681.949 252.121 681.649 251.998 681.398 251.751C681.146 251.499 681.021 251.197 681.021 250.843C681.021 250.494 681.146 250.195 681.398 249.948C681.649 249.697 681.949 249.571 682.299 249.571C682.648 249.571 682.949 249.697 683.2 249.948C683.452 250.195 683.577 250.494 683.577 250.843C683.577 251.077 683.518 251.293 683.398 251.489C683.283 251.68 683.13 251.834 682.938 251.949C682.746 252.064 682.533 252.121 682.299 252.121ZM690.195 252.217C689.185 252.213 688.322 251.947 687.606 251.418C686.89 250.89 686.342 250.121 685.963 249.111C685.584 248.101 685.394 246.884 685.394 245.461C685.394 244.042 685.584 242.83 685.963 241.824C686.347 240.818 686.896 240.051 687.612 239.523C688.332 238.994 689.193 238.73 690.195 238.73C691.196 238.73 692.055 238.996 692.771 239.529C693.487 240.058 694.034 240.825 694.413 241.83C694.797 242.832 694.989 244.042 694.989 245.461C694.989 246.888 694.799 248.107 694.42 249.117C694.041 250.123 693.493 250.892 692.777 251.425C692.061 251.953 691.2 252.217 690.195 252.217ZM690.195 250.511C691.081 250.511 691.774 250.078 692.272 249.213C692.775 248.348 693.026 247.097 693.026 245.461C693.026 244.374 692.911 243.456 692.681 242.706C692.455 241.952 692.129 241.381 691.703 240.993C691.281 240.601 690.778 240.405 690.195 240.405C689.313 240.405 688.62 240.839 688.117 241.709C687.614 242.578 687.361 243.829 687.357 245.461C687.357 246.552 687.47 247.474 687.695 248.229C687.926 248.979 688.252 249.548 688.673 249.935C689.095 250.319 689.602 250.511 690.195 250.511ZM701.814 252.179C700.936 252.179 700.152 252.028 699.462 251.725C698.775 251.423 698.232 251.003 697.832 250.466C697.435 249.925 697.222 249.298 697.192 248.587H699.199C699.225 248.974 699.355 249.311 699.589 249.597C699.828 249.878 700.139 250.095 700.523 250.249C700.906 250.402 701.332 250.479 701.801 250.479C702.317 250.479 702.773 250.389 703.169 250.21C703.57 250.031 703.883 249.782 704.109 249.462C704.334 249.138 704.447 248.766 704.447 248.344C704.447 247.905 704.334 247.519 704.109 247.187C703.887 246.85 703.561 246.586 703.131 246.394C702.704 246.202 702.189 246.107 701.584 246.107H700.478V244.496H701.584C702.07 244.496 702.496 244.408 702.862 244.234C703.233 244.059 703.523 243.816 703.731 243.505C703.94 243.19 704.045 242.821 704.045 242.399C704.045 241.994 703.953 241.643 703.77 241.344C703.591 241.042 703.335 240.805 703.003 240.635C702.675 240.464 702.287 240.379 701.839 240.379C701.413 240.379 701.015 240.458 700.644 240.616C700.278 240.769 699.979 240.991 699.749 241.281C699.519 241.566 699.396 241.909 699.378 242.31H697.467C697.489 241.602 697.697 240.98 698.094 240.443C698.494 239.906 699.023 239.487 699.679 239.184C700.335 238.881 701.064 238.73 701.865 238.73C702.704 238.73 703.429 238.894 704.038 239.222C704.652 239.546 705.125 239.979 705.457 240.52C705.794 241.061 705.96 241.653 705.956 242.297C705.96 243.03 705.756 243.652 705.342 244.163C704.933 244.675 704.388 245.018 703.706 245.192V245.295C704.575 245.427 705.248 245.772 705.726 246.33C706.207 246.888 706.446 247.581 706.442 248.408C706.446 249.128 706.246 249.773 705.841 250.344C705.44 250.915 704.893 251.365 704.198 251.693C703.503 252.017 702.709 252.179 701.814 252.179Z" fill="#424242"/>
<path d="M85.395 72V70.5682L89.8247 65.9787C90.2977 65.4801 90.6876 65.0433 90.9944 64.6683C91.3055 64.2891 91.5377 63.929 91.6911 63.5881C91.8445 63.2472 91.9213 62.8849 91.9213 62.5014C91.9213 62.0668 91.819 61.6918 91.6144 61.3764C91.4099 61.0568 91.1308 60.8118 90.7771 60.6413C90.4234 60.4666 90.0249 60.3793 89.5818 60.3793C89.113 60.3793 88.7039 60.4751 88.3545 60.6669C88.0051 60.8587 87.7366 61.1293 87.5491 61.4787C87.3616 61.8281 87.2678 62.2372 87.2678 62.706H85.3822C85.3822 61.9091 85.5654 61.2124 85.9319 60.6158C86.2984 60.0192 86.8012 59.5568 87.4404 59.2287C88.0796 58.8963 88.8062 58.7301 89.6201 58.7301C90.4426 58.7301 91.167 58.8942 91.7934 59.2223C92.4241 59.5462 92.9163 59.9893 93.27 60.5518C93.6237 61.1101 93.8005 61.7408 93.8005 62.4439C93.8005 62.9297 93.7089 63.4048 93.5257 63.8693C93.3467 64.3338 93.0335 64.8516 92.586 65.4226C92.1386 65.9893 91.5164 66.6776 90.7195 67.4872L88.118 70.2102V70.3061H94.0115V72H85.395ZM101.004 72.179C100.421 72.1705 99.8453 72.0639 99.2785 71.8594C98.716 71.6548 98.2046 71.3139 97.7444 70.8366C97.2842 70.3594 96.9156 69.718 96.6386 68.9126C96.3659 68.1072 96.2295 67.1016 96.2295 65.8956C96.2295 64.7536 96.3424 63.7393 96.5683 62.853C96.7984 61.9666 97.1286 61.2188 97.559 60.6094C97.9894 59.9957 98.5093 59.5291 99.1187 59.2095C99.7281 58.8899 100.412 58.7301 101.171 58.7301C101.95 58.7301 102.643 58.8835 103.248 59.1903C103.853 59.4972 104.343 59.9212 104.718 60.4624C105.097 61.0036 105.338 61.6193 105.44 62.3097H103.491C103.359 61.7642 103.097 61.3189 102.705 60.9737C102.313 60.6286 101.801 60.456 101.171 60.456C100.212 60.456 99.4639 60.8736 98.9269 61.7088C98.3943 62.544 98.1258 63.7053 98.1215 65.1925H98.2174C98.4433 64.8217 98.7203 64.5064 99.0484 64.2464C99.3808 63.9822 99.7515 63.7798 100.161 63.6392C100.574 63.4943 101.009 63.4219 101.465 63.4219C102.223 63.4219 102.909 63.6072 103.523 63.978C104.141 64.3445 104.633 64.8516 104.999 65.4993C105.366 66.147 105.549 66.8885 105.549 67.7237C105.549 68.5589 105.359 69.3153 104.98 69.9929C104.605 70.6705 104.077 71.2074 103.395 71.6037C102.713 71.9957 101.916 72.1875 101.004 72.179ZM100.998 70.517C101.501 70.517 101.95 70.3935 102.347 70.1463C102.743 69.8991 103.056 69.5668 103.286 69.1491C103.516 68.7315 103.631 68.2649 103.631 67.7493C103.631 67.2464 103.519 66.7884 103.293 66.375C103.071 65.9616 102.764 65.6335 102.372 65.3906C101.984 65.1477 101.541 65.0263 101.043 65.0263C100.663 65.0263 100.312 65.0987 99.988 65.2436C99.6684 65.3885 99.3872 65.5888 99.1443 65.8445C98.9014 66.1001 98.7096 66.3942 98.569 66.7266C98.4326 67.0547 98.3644 67.402 98.3644 67.7685C98.3644 68.2585 98.4774 68.7124 98.7032 69.13C98.9333 69.5476 99.2465 69.8842 99.6428 70.1399C100.043 70.3913 100.495 70.517 100.998 70.517ZM108.565 72.1214C108.215 72.1214 107.915 71.9979 107.663 71.7507C107.412 71.4993 107.286 71.1967 107.286 70.843C107.286 70.4936 107.412 70.1953 107.663 69.9482C107.915 69.6967 108.215 69.571 108.565 69.571C108.914 69.571 109.214 69.6967 109.466 69.9482C109.717 70.1953 109.843 70.4936 109.843 70.843C109.843 71.0774 109.783 71.2926 109.664 71.4886C109.549 71.6804 109.396 71.8338 109.204 71.9489C109.012 72.0639 108.799 72.1214 108.565 72.1214ZM116.46 72.2173C115.45 72.2131 114.587 71.9467 113.872 71.4183C113.156 70.8899 112.608 70.1207 112.229 69.1108C111.85 68.1009 111.66 66.8842 111.66 65.4609C111.66 64.0419 111.85 62.8295 112.229 61.8239C112.612 60.8182 113.162 60.0511 113.878 59.5227C114.598 58.9943 115.459 58.7301 116.46 58.7301C117.462 58.7301 118.32 58.9964 119.036 59.5291C119.752 60.0575 120.3 60.8246 120.679 61.8303C121.063 62.8317 121.254 64.0419 121.254 65.4609C121.254 66.8885 121.065 68.1072 120.685 69.1172C120.306 70.1229 119.759 70.892 119.043 71.4247C118.327 71.9531 117.466 72.2173 116.46 72.2173ZM116.46 70.5107C117.347 70.5107 118.039 70.0781 118.538 69.2131C119.041 68.348 119.292 67.0973 119.292 65.4609C119.292 64.3743 119.177 63.456 118.947 62.706C118.721 61.9517 118.395 61.3807 117.969 60.9929C117.547 60.6009 117.044 60.4048 116.46 60.4048C115.578 60.4048 114.886 60.8395 114.383 61.7088C113.88 62.5781 113.627 63.8288 113.622 65.4609C113.622 66.5518 113.735 67.4744 113.961 68.2287C114.191 68.9787 114.517 69.5476 114.939 69.9354C115.361 70.3189 115.868 70.5107 116.46 70.5107ZM128.079 72.179C127.202 72.179 126.418 72.0277 125.727 71.7251C125.041 71.4226 124.498 71.0028 124.097 70.4659C123.701 69.9247 123.488 69.2983 123.458 68.5866H125.465C125.491 68.9744 125.621 69.3111 125.855 69.5966C126.094 69.8778 126.405 70.0952 126.788 70.2486C127.172 70.402 127.598 70.4787 128.067 70.4787C128.582 70.4787 129.038 70.3892 129.435 70.2102C129.835 70.0312 130.148 69.782 130.374 69.4624C130.6 69.1385 130.713 68.7656 130.713 68.3438C130.713 67.9048 130.6 67.5192 130.374 67.1868C130.153 66.8501 129.827 66.5859 129.396 66.3942C128.97 66.2024 128.454 66.1065 127.849 66.1065H126.744V64.4957H127.849C128.335 64.4957 128.761 64.4084 129.128 64.2337C129.498 64.0589 129.788 63.8161 129.997 63.505C130.206 63.1896 130.31 62.821 130.31 62.3991C130.31 61.9943 130.219 61.6428 130.035 61.3445C129.856 61.0419 129.601 60.8054 129.268 60.6349C128.94 60.4645 128.552 60.3793 128.105 60.3793C127.679 60.3793 127.28 60.4581 126.91 60.6158C126.543 60.7692 126.245 60.9908 126.015 61.2805C125.785 61.5661 125.661 61.9091 125.644 62.3097H123.733C123.754 61.6023 123.963 60.9801 124.359 60.4432C124.76 59.9062 125.288 59.4865 125.945 59.1839C126.601 58.8814 127.329 58.7301 128.131 58.7301C128.97 58.7301 129.695 58.8942 130.304 59.2223C130.918 59.5462 131.391 59.9787 131.723 60.5199C132.06 61.0611 132.226 61.6534 132.222 62.2969C132.226 63.0298 132.021 63.652 131.608 64.1634C131.199 64.6747 130.653 65.0178 129.972 65.1925V65.2947C130.841 65.4268 131.514 65.772 131.991 66.3303C132.473 66.8885 132.712 67.581 132.707 68.4077C132.712 69.1278 132.511 69.7734 132.106 70.3445C131.706 70.9155 131.158 71.3651 130.464 71.6932C129.769 72.017 128.974 72.179 128.079 72.179Z" fill="#424242"/>
<path d="M93.1741 238.909V252H91.1926V240.891H91.1159L87.9838 242.936V241.044L91.2501 238.909H93.1741ZM101.682 238.909V252H99.7004V240.891H99.6237L96.4916 242.936V241.044L99.7579 238.909H101.682ZM105.752 252.121C105.403 252.121 105.102 251.998 104.851 251.751C104.599 251.499 104.474 251.197 104.474 250.843C104.474 250.494 104.599 250.195 104.851 249.948C105.102 249.697 105.403 249.571 105.752 249.571C106.101 249.571 106.402 249.697 106.653 249.948C106.905 250.195 107.03 250.494 107.03 250.843C107.03 251.077 106.971 251.293 106.851 251.489C106.736 251.68 106.583 251.834 106.391 251.949C106.199 252.064 105.986 252.121 105.752 252.121ZM113.648 252.217C112.638 252.213 111.775 251.947 111.059 251.418C110.343 250.89 109.796 250.121 109.416 249.111C109.037 248.101 108.847 246.884 108.847 245.461C108.847 244.042 109.037 242.83 109.416 241.824C109.8 240.818 110.35 240.051 111.065 239.523C111.786 238.994 112.646 238.73 113.648 238.73C114.649 238.73 115.508 238.996 116.224 239.529C116.94 240.058 117.487 240.825 117.867 241.83C118.25 242.832 118.442 244.042 118.442 245.461C118.442 246.888 118.252 248.107 117.873 249.117C117.494 250.123 116.946 250.892 116.23 251.425C115.514 251.953 114.653 252.217 113.648 252.217ZM113.648 250.511C114.534 250.511 115.227 250.078 115.725 249.213C116.228 248.348 116.479 247.097 116.479 245.461C116.479 244.374 116.364 243.456 116.134 242.706C115.908 241.952 115.582 241.381 115.156 240.993C114.734 240.601 114.232 240.405 113.648 240.405C112.766 240.405 112.073 240.839 111.57 241.709C111.068 242.578 110.814 243.829 110.81 245.461C110.81 246.552 110.923 247.474 111.149 248.229C111.379 248.979 111.705 249.548 112.127 249.935C112.548 250.319 113.055 250.511 113.648 250.511ZM125.267 252.179C124.389 252.179 123.605 252.028 122.915 251.725C122.229 251.423 121.685 251.003 121.285 250.466C120.888 249.925 120.675 249.298 120.646 248.587H122.653C122.678 248.974 122.808 249.311 123.043 249.597C123.281 249.878 123.592 250.095 123.976 250.249C124.359 250.402 124.785 250.479 125.254 250.479C125.77 250.479 126.226 250.389 126.622 250.21C127.023 250.031 127.336 249.782 127.562 249.462C127.788 249.138 127.9 248.766 127.9 248.344C127.9 247.905 127.788 247.519 127.562 247.187C127.34 246.85 127.014 246.586 126.584 246.394C126.158 246.202 125.642 246.107 125.037 246.107H123.931V244.496H125.037C125.523 244.496 125.949 244.408 126.315 244.234C126.686 244.059 126.976 243.816 127.185 243.505C127.393 243.19 127.498 242.821 127.498 242.399C127.498 241.994 127.406 241.643 127.223 241.344C127.044 241.042 126.788 240.805 126.456 240.635C126.128 240.464 125.74 240.379 125.293 240.379C124.866 240.379 124.468 240.458 124.097 240.616C123.731 240.769 123.432 240.991 123.202 241.281C122.972 241.566 122.849 241.909 122.832 242.31H120.92C120.942 241.602 121.15 240.98 121.547 240.443C121.947 239.906 122.476 239.487 123.132 239.184C123.788 238.881 124.517 238.73 125.318 238.73C126.158 238.73 126.882 238.894 127.491 239.222C128.105 239.546 128.578 239.979 128.91 240.52C129.247 241.061 129.413 241.653 129.409 242.297C129.413 243.03 129.209 243.652 128.795 244.163C128.386 244.675 127.841 245.018 127.159 245.192V245.295C128.028 245.427 128.702 245.772 129.179 246.33C129.66 246.888 129.899 247.581 129.895 248.408C129.899 249.128 129.699 249.773 129.294 250.344C128.893 250.915 128.346 251.365 127.651 251.693C126.957 252.017 126.162 252.179 125.267 252.179Z" fill="#424242"/>
<path d="M53 57L165 237V253L53 73V57Z" fill="#CDCDCD"/>
<path d="M53 253L165 73V57L53 237V253Z" fill="#CDCDCD"/>
<rect x="168" y="86" width="112" height="3" fill="black"/>
<rect x="398" y="86" width="112" height="3" fill="black"/>
<rect x="168" y="221" width="112" height="3" fill="black"/>
<rect x="398" y="221" width="112" height="3" fill="black"/>
<path d="M196.679 162V148.909H202.329C203.301 148.909 204.151 149.101 204.88 149.484C205.608 149.868 206.175 150.407 206.58 151.102C206.985 151.796 207.187 152.608 207.187 153.537C207.187 154.474 206.978 155.286 206.561 155.972C206.147 156.658 205.566 157.187 204.816 157.558C204.07 157.928 203.199 158.114 202.201 158.114H198.826V155.352H201.486C201.903 155.352 202.259 155.28 202.553 155.135C202.851 154.986 203.079 154.775 203.237 154.502C203.399 154.229 203.48 153.908 203.48 153.537C203.48 153.162 203.399 152.842 203.237 152.578C203.079 152.31 202.851 152.105 202.553 151.964C202.259 151.82 201.903 151.747 201.486 151.747H200.233V162H196.679ZM208.133 151.773V148.909H219.511V151.773H215.574V162H212.071V151.773H208.133ZM227.343 154.125V156.784H221.207V154.125H227.343ZM241.613 153.818H238.008C237.983 153.52 237.914 153.249 237.804 153.006C237.697 152.763 237.548 152.555 237.356 152.38C237.169 152.201 236.941 152.065 236.672 151.971C236.404 151.873 236.099 151.824 235.758 151.824C235.161 151.824 234.657 151.969 234.243 152.259C233.834 152.548 233.523 152.964 233.31 153.505C233.101 154.046 232.997 154.696 232.997 155.455C232.997 156.256 233.103 156.927 233.316 157.468C233.534 158.005 233.847 158.41 234.256 158.683C234.665 158.951 235.157 159.085 235.733 159.085C236.061 159.085 236.355 159.045 236.615 158.964C236.875 158.879 237.1 158.757 237.292 158.599C237.484 158.442 237.639 158.252 237.759 158.031C237.882 157.805 237.965 157.551 238.008 157.27L241.613 157.295C241.571 157.849 241.415 158.414 241.147 158.989C240.878 159.56 240.497 160.089 240.002 160.575C239.512 161.056 238.905 161.444 238.181 161.738C237.456 162.032 236.615 162.179 235.656 162.179C234.454 162.179 233.376 161.921 232.421 161.406C231.471 160.89 230.719 160.131 230.165 159.13C229.615 158.129 229.34 156.903 229.34 155.455C229.34 153.997 229.622 152.77 230.184 151.773C230.747 150.771 231.505 150.015 232.46 149.504C233.414 148.988 234.48 148.73 235.656 148.73C236.483 148.73 237.243 148.843 237.938 149.069C238.632 149.295 239.242 149.625 239.766 150.06C240.29 150.49 240.712 151.021 241.032 151.651C241.351 152.282 241.545 153.004 241.613 153.818ZM243.226 162V148.909H246.78V159.136H252.072V162H243.226Z" fill="black"/>
<path d="M418.848 162V148.909H424.498C425.47 148.909 426.32 149.101 427.049 149.484C427.777 149.868 428.344 150.407 428.749 151.102C429.154 151.796 429.356 152.608 429.356 153.537C429.356 154.474 429.147 155.286 428.73 155.972C428.316 156.658 427.735 157.187 426.985 157.558C426.239 157.928 425.368 158.114 424.37 158.114H420.995V155.352H423.654C424.072 155.352 424.428 155.28 424.722 155.135C425.02 154.986 425.248 154.775 425.406 154.502C425.568 154.229 425.649 153.908 425.649 153.537C425.649 153.162 425.568 152.842 425.406 152.578C425.248 152.31 425.02 152.105 424.722 151.964C424.428 151.82 424.072 151.747 423.654 151.747H422.402V162H418.848ZM430.302 151.773V148.909H441.68V151.773H437.743V162H434.24V151.773H430.302ZM449.512 154.125V156.784H443.376V154.125H449.512ZM463.782 153.818H460.177C460.151 153.52 460.083 153.249 459.972 153.006C459.866 152.763 459.717 152.555 459.525 152.38C459.338 152.201 459.11 152.065 458.841 151.971C458.573 151.873 458.268 151.824 457.927 151.824C457.33 151.824 456.825 151.969 456.412 152.259C456.003 152.548 455.692 152.964 455.479 153.505C455.27 154.046 455.166 154.696 455.166 155.455C455.166 156.256 455.272 156.927 455.485 157.468C455.703 158.005 456.016 158.41 456.425 158.683C456.834 158.951 457.326 159.085 457.901 159.085C458.23 159.085 458.524 159.045 458.784 158.964C459.044 158.879 459.269 158.757 459.461 158.599C459.653 158.442 459.808 158.252 459.928 158.031C460.051 157.805 460.134 157.551 460.177 157.27L463.782 157.295C463.74 157.849 463.584 158.414 463.316 158.989C463.047 159.56 462.666 160.089 462.171 160.575C461.681 161.056 461.074 161.444 460.35 161.738C459.625 162.032 458.784 162.179 457.825 162.179C456.623 162.179 455.545 161.921 454.59 161.406C453.64 160.89 452.888 160.131 452.334 159.13C451.784 158.129 451.509 156.903 451.509 155.455C451.509 153.997 451.791 152.77 452.353 151.773C452.916 150.771 453.674 150.015 454.629 149.504C455.583 148.988 456.649 148.73 457.825 148.73C458.651 148.73 459.412 148.843 460.107 149.069C460.801 149.295 461.411 149.625 461.935 150.06C462.459 150.49 462.881 151.021 463.2 151.651C463.52 152.282 463.714 153.004 463.782 153.818ZM468.391 162H464.556L468.877 148.909H473.735L478.056 162H474.22L471.357 152.514H471.254L468.391 162ZM467.675 156.835H474.885V159.494H467.675V156.835ZM479.316 162V148.909H484.967C485.939 148.909 486.789 149.086 487.517 149.44C488.246 149.793 488.813 150.303 489.218 150.967C489.623 151.632 489.825 152.429 489.825 153.358C489.825 154.295 489.616 155.086 489.199 155.729C488.785 156.373 488.203 156.859 487.453 157.187C486.708 157.515 485.836 157.679 484.839 157.679H481.464V154.918H484.123C484.541 154.918 484.897 154.866 485.191 154.764C485.489 154.658 485.717 154.489 485.875 154.259C486.037 154.029 486.118 153.729 486.118 153.358C486.118 152.983 486.037 152.678 485.875 152.444C485.717 152.205 485.489 152.031 485.191 151.92C484.897 151.805 484.541 151.747 484.123 151.747H482.87V162H479.316ZM486.987 155.991L490.26 162H486.399L483.203 155.991H486.987Z" fill="black"/>
<path d="M120 187.5L109 169.5L98 187.5H120Z" fill="#B1B1B1"/>
<path d="M120 124.5L109 142.5L98 124.5H120Z" fill="#B1B1B1"/>
<path d="M189.502 38.0449C189.477 37.8123 189.373 37.6312 189.188 37.5016C189.005 37.372 188.767 37.3072 188.474 37.3072C188.268 37.3072 188.092 37.3382 187.944 37.4004C187.797 37.4625 187.684 37.5469 187.606 37.6534C187.528 37.7599 187.488 37.8816 187.486 38.0183C187.486 38.1319 187.512 38.2305 187.563 38.3139C187.617 38.3974 187.689 38.4684 187.779 38.527C187.87 38.5838 187.97 38.6317 188.08 38.6708C188.19 38.7099 188.301 38.7427 188.413 38.7694L188.924 38.8972C189.13 38.9451 189.328 39.0099 189.518 39.0916C189.71 39.1733 189.881 39.2763 190.032 39.4006C190.185 39.5249 190.306 39.6749 190.395 39.8507C190.483 40.0265 190.528 40.2324 190.528 40.4686C190.528 40.7882 190.446 41.0696 190.283 41.3129C190.119 41.5543 189.883 41.7434 189.574 41.8801C189.267 42.0151 188.895 42.0826 188.458 42.0826C188.034 42.0826 187.665 42.0169 187.353 41.8855C187.042 41.7541 186.799 41.5623 186.623 41.3102C186.449 41.0581 186.355 40.7509 186.341 40.3887H187.313C187.327 40.5787 187.386 40.7367 187.489 40.8627C187.592 40.9888 187.726 41.0829 187.891 41.1451C188.058 41.2072 188.244 41.2383 188.45 41.2383C188.665 41.2383 188.853 41.2063 189.015 41.1424C189.178 41.0767 189.306 40.9862 189.398 40.8707C189.491 40.7536 189.538 40.6168 189.54 40.4606C189.538 40.3185 189.496 40.2013 189.414 40.109C189.333 40.0149 189.218 39.9368 189.071 39.8746C188.925 39.8107 188.755 39.7539 188.559 39.7042L187.939 39.5444C187.49 39.429 187.135 39.2541 186.874 39.0197C186.614 38.7836 186.485 38.4702 186.485 38.0795C186.485 37.7582 186.572 37.4767 186.746 37.2353C186.922 36.9938 187.16 36.8065 187.462 36.6733C187.764 36.5384 188.106 36.4709 188.488 36.4709C188.875 36.4709 189.214 36.5384 189.505 36.6733C189.798 36.8065 190.028 36.992 190.195 37.2299C190.362 37.4661 190.448 37.7377 190.453 38.0449H189.502ZM191.355 42V41.2862L193.249 39.4299C193.43 39.247 193.581 39.0845 193.702 38.9425C193.822 38.8004 193.913 38.6628 193.973 38.5297C194.034 38.3965 194.064 38.2544 194.064 38.1035C194.064 37.9313 194.025 37.7839 193.947 37.6614C193.869 37.5371 193.761 37.4412 193.625 37.3738C193.488 37.3063 193.332 37.2725 193.158 37.2725C192.979 37.2725 192.822 37.3098 192.687 37.3844C192.552 37.4572 192.447 37.5611 192.373 37.696C192.3 37.831 192.264 37.9917 192.264 38.1781H191.323C191.323 37.8319 191.402 37.5309 191.56 37.2752C191.718 37.0195 191.936 36.8216 192.213 36.6813C192.492 36.541 192.811 36.4709 193.172 36.4709C193.538 36.4709 193.859 36.5392 194.136 36.676C194.413 36.8127 194.628 37 194.78 37.2379C194.935 37.4759 195.012 37.7475 195.012 38.0529C195.012 38.2571 194.973 38.4577 194.895 38.6548C194.817 38.8519 194.679 39.0703 194.482 39.31C194.287 39.5497 194.012 39.84 193.659 40.1809L192.719 41.1371V41.1744H195.095V42H191.355ZM200.736 38.3858H199.74C199.711 38.2225 199.659 38.0778 199.582 37.9517C199.506 37.8239 199.411 37.7156 199.297 37.6268C199.184 37.538 199.054 37.4714 198.909 37.427C198.765 37.3809 198.609 37.3578 198.443 37.3578C198.146 37.3578 197.883 37.4324 197.654 37.5815C197.425 37.7289 197.246 37.9455 197.116 38.2314C196.987 38.5154 196.922 38.8626 196.922 39.2727C196.922 39.69 196.987 40.0415 197.116 40.3274C197.248 40.6115 197.427 40.8263 197.654 40.9719C197.883 41.1158 198.145 41.1877 198.44 41.1877C198.603 41.1877 198.756 41.1664 198.898 41.1238C199.042 41.0794 199.17 41.0146 199.284 40.9293C199.4 40.8441 199.496 40.7393 199.574 40.6151C199.654 40.4908 199.709 40.3487 199.74 40.1889L200.736 40.1942C200.698 40.4535 200.618 40.6967 200.493 40.924C200.371 41.1513 200.21 41.3519 200.011 41.5259C199.812 41.6982 199.58 41.8331 199.313 41.9308C199.047 42.0266 198.751 42.0746 198.427 42.0746C197.947 42.0746 197.519 41.9636 197.143 41.7417C196.766 41.5197 196.47 41.1992 196.253 40.7802C196.037 40.3612 195.928 39.8587 195.928 39.2727C195.928 38.685 196.038 38.1825 196.256 37.7653C196.474 37.3462 196.772 37.0257 197.148 36.8038C197.525 36.5819 197.951 36.4709 198.427 36.4709C198.73 36.4709 199.012 36.5135 199.273 36.5987C199.534 36.6839 199.767 36.8091 199.971 36.9743C200.175 37.1376 200.343 37.3382 200.475 37.5762C200.608 37.8123 200.695 38.0822 200.736 38.3858ZM203.545 42.0746C203.161 42.0746 202.82 42.0089 202.522 41.8775C202.226 41.7461 201.991 41.5632 201.819 41.3288C201.647 41.0945 201.555 40.8237 201.545 40.5165H202.546C202.555 40.6639 202.604 40.7926 202.693 40.9027C202.781 41.011 202.899 41.0953 203.047 41.1557C203.194 41.2161 203.359 41.2463 203.542 41.2463C203.737 41.2463 203.911 41.2125 204.062 41.1451C204.212 41.0758 204.331 40.9799 204.416 40.8574C204.501 40.7349 204.543 40.5937 204.541 40.4339C204.543 40.2688 204.5 40.1232 204.413 39.9972C204.326 39.8711 204.2 39.7725 204.035 39.7015C203.872 39.6305 203.674 39.595 203.444 39.595H202.962V38.8333H203.444C203.634 38.8333 203.8 38.8004 203.942 38.7347C204.085 38.669 204.198 38.5767 204.28 38.4577C204.362 38.337 204.402 38.1976 204.4 38.0396C204.402 37.8851 204.367 37.7511 204.296 37.6374C204.227 37.522 204.128 37.4324 204 37.3684C203.874 37.3045 203.726 37.2725 203.555 37.2725C203.389 37.2725 203.234 37.3027 203.092 37.3631C202.95 37.4235 202.835 37.5096 202.748 37.6214C202.661 37.7315 202.615 37.8629 202.61 38.0156H201.659C201.666 37.7102 201.754 37.4421 201.923 37.2113C202.093 36.9787 202.321 36.7976 202.605 36.668C202.889 36.5366 203.207 36.4709 203.561 36.4709C203.925 36.4709 204.241 36.5392 204.509 36.676C204.779 36.8109 204.987 36.9929 205.135 37.2219C205.282 37.451 205.356 37.704 205.356 37.981C205.358 38.2882 205.267 38.5456 205.084 38.7534C204.903 38.9611 204.665 39.0969 204.37 39.1609V39.2035C204.754 39.2567 205.048 39.3988 205.252 39.6296C205.458 39.8587 205.56 40.1436 205.558 40.4846C205.558 40.79 205.471 41.0634 205.297 41.3049C205.125 41.5446 204.887 41.7328 204.584 41.8695C204.282 42.0062 203.935 42.0746 203.545 42.0746Z" fill="black"/>
<path d="M189.502 269.045C189.477 268.812 189.373 268.631 189.188 268.502C189.005 268.372 188.767 268.307 188.474 268.307C188.268 268.307 188.092 268.338 187.944 268.4C187.797 268.463 187.684 268.547 187.606 268.653C187.528 268.76 187.488 268.882 187.486 269.018C187.486 269.132 187.512 269.23 187.563 269.314C187.617 269.397 187.689 269.468 187.779 269.527C187.87 269.584 187.97 269.632 188.08 269.671C188.19 269.71 188.301 269.743 188.413 269.769L188.924 269.897C189.13 269.945 189.328 270.01 189.518 270.092C189.71 270.173 189.881 270.276 190.032 270.401C190.185 270.525 190.306 270.675 190.395 270.851C190.483 271.026 190.528 271.232 190.528 271.469C190.528 271.788 190.446 272.07 190.283 272.313C190.119 272.554 189.883 272.743 189.574 272.88C189.267 273.015 188.895 273.083 188.458 273.083C188.034 273.083 187.665 273.017 187.353 272.885C187.042 272.754 186.799 272.562 186.623 272.31C186.449 272.058 186.355 271.751 186.341 271.389H187.313C187.327 271.579 187.386 271.737 187.489 271.863C187.592 271.989 187.726 272.083 187.891 272.145C188.058 272.207 188.244 272.238 188.45 272.238C188.665 272.238 188.853 272.206 189.015 272.142C189.178 272.077 189.306 271.986 189.398 271.871C189.491 271.754 189.538 271.617 189.54 271.461C189.538 271.319 189.496 271.201 189.414 271.109C189.333 271.015 189.218 270.937 189.071 270.875C188.925 270.811 188.755 270.754 188.559 270.704L187.939 270.544C187.49 270.429 187.135 270.254 186.874 270.02C186.614 269.784 186.485 269.47 186.485 269.08C186.485 268.758 186.572 268.477 186.746 268.235C186.922 267.994 187.16 267.806 187.462 267.673C187.764 267.538 188.106 267.471 188.488 267.471C188.875 267.471 189.214 267.538 189.505 267.673C189.798 267.806 190.028 267.992 190.195 268.23C190.362 268.466 190.448 268.738 190.453 269.045H189.502ZM193.313 273.075C192.929 273.075 192.588 273.009 192.29 272.877C191.994 272.746 191.759 272.563 191.587 272.329C191.415 272.094 191.323 271.824 191.313 271.517H192.314C192.323 271.664 192.372 271.793 192.461 271.903C192.549 272.011 192.667 272.095 192.815 272.156C192.962 272.216 193.127 272.246 193.31 272.246C193.506 272.246 193.679 272.213 193.83 272.145C193.981 272.076 194.099 271.98 194.184 271.857C194.269 271.735 194.311 271.594 194.309 271.434C194.311 271.269 194.268 271.123 194.181 270.997C194.094 270.871 193.968 270.773 193.803 270.702C193.64 270.631 193.443 270.595 193.212 270.595H192.73V269.833H193.212C193.402 269.833 193.568 269.8 193.71 269.735C193.854 269.669 193.966 269.577 194.048 269.458C194.13 269.337 194.17 269.198 194.168 269.04C194.17 268.885 194.135 268.751 194.064 268.637C193.995 268.522 193.896 268.432 193.768 268.368C193.642 268.305 193.494 268.273 193.324 268.273C193.157 268.273 193.002 268.303 192.86 268.363C192.718 268.423 192.604 268.51 192.517 268.621C192.43 268.732 192.383 268.863 192.378 269.016H191.427C191.434 268.71 191.522 268.442 191.691 268.211C191.861 267.979 192.089 267.798 192.373 267.668C192.657 267.537 192.976 267.471 193.329 267.471C193.693 267.471 194.009 267.539 194.277 267.676C194.547 267.811 194.756 267.993 194.903 268.222C195.05 268.451 195.124 268.704 195.124 268.981C195.126 269.288 195.035 269.546 194.852 269.753C194.671 269.961 194.433 270.097 194.139 270.161V270.203C194.522 270.257 194.816 270.399 195.02 270.63C195.226 270.859 195.328 271.144 195.326 271.485C195.326 271.79 195.239 272.063 195.065 272.305C194.893 272.545 194.655 272.733 194.352 272.869C194.05 273.006 193.704 273.075 193.313 273.075ZM200.963 269.386H199.967C199.938 269.222 199.886 269.078 199.809 268.952C199.733 268.824 199.638 268.716 199.525 268.627C199.411 268.538 199.281 268.471 199.136 268.427C198.992 268.381 198.836 268.358 198.67 268.358C198.373 268.358 198.11 268.432 197.881 268.581C197.652 268.729 197.473 268.945 197.343 269.231C197.214 269.515 197.149 269.863 197.149 270.273C197.149 270.69 197.214 271.042 197.343 271.327C197.475 271.612 197.654 271.826 197.881 271.972C198.11 272.116 198.372 272.188 198.667 272.188C198.83 272.188 198.983 272.166 199.125 272.124C199.269 272.079 199.398 272.015 199.511 271.929C199.627 271.844 199.723 271.739 199.801 271.615C199.881 271.491 199.936 271.349 199.967 271.189L200.963 271.194C200.925 271.453 200.845 271.697 200.72 271.924C200.598 272.151 200.437 272.352 200.238 272.526C200.039 272.698 199.807 272.833 199.54 272.931C199.274 273.027 198.979 273.075 198.654 273.075C198.174 273.075 197.746 272.964 197.37 272.742C196.993 272.52 196.697 272.199 196.48 271.78C196.264 271.361 196.155 270.859 196.155 270.273C196.155 269.685 196.265 269.183 196.483 268.765C196.701 268.346 196.999 268.026 197.375 267.804C197.752 267.582 198.178 267.471 198.654 267.471C198.957 267.471 199.24 267.513 199.501 267.599C199.762 267.684 199.994 267.809 200.198 267.974C200.403 268.138 200.57 268.338 200.702 268.576C200.835 268.812 200.922 269.082 200.963 269.386ZM203.772 273.075C203.388 273.075 203.047 273.009 202.749 272.877C202.453 272.746 202.218 272.563 202.046 272.329C201.874 272.094 201.782 271.824 201.772 271.517H202.773C202.782 271.664 202.831 271.793 202.92 271.903C203.008 272.011 203.126 272.095 203.274 272.156C203.421 272.216 203.586 272.246 203.769 272.246C203.965 272.246 204.138 272.213 204.289 272.145C204.439 272.076 204.558 271.98 204.643 271.857C204.728 271.735 204.77 271.594 204.768 271.434C204.77 271.269 204.727 271.123 204.64 270.997C204.553 270.871 204.427 270.773 204.262 270.702C204.099 270.631 203.902 270.595 203.671 270.595H203.189V269.833H203.671C203.861 269.833 204.027 269.8 204.169 269.735C204.313 269.669 204.425 269.577 204.507 269.458C204.589 269.337 204.629 269.198 204.627 269.04C204.629 268.885 204.594 268.751 204.523 268.637C204.454 268.522 204.355 268.432 204.227 268.368C204.101 268.305 203.953 268.273 203.783 268.273C203.616 268.273 203.461 268.303 203.319 268.363C203.177 268.423 203.063 268.51 202.976 268.621C202.889 268.732 202.842 268.863 202.837 269.016H201.886C201.893 268.71 201.981 268.442 202.15 268.211C202.32 267.979 202.548 267.798 202.832 267.668C203.116 267.537 203.435 267.471 203.788 267.471C204.152 267.471 204.468 267.539 204.736 267.676C205.006 267.811 205.215 267.993 205.362 268.222C205.509 268.451 205.583 268.704 205.583 268.981C205.585 269.288 205.494 269.546 205.311 269.753C205.13 269.961 204.892 270.097 204.598 270.161V270.203C204.981 270.257 205.275 270.399 205.479 270.63C205.685 270.859 205.787 271.144 205.785 271.485C205.785 271.79 205.698 272.063 205.524 272.305C205.352 272.545 205.114 272.733 204.811 272.869C204.509 273.006 204.163 273.075 203.772 273.075Z" fill="black"/>
<path d="M107.955 103.772H105.963C105.906 103.445 105.801 103.156 105.648 102.903C105.496 102.648 105.306 102.431 105.078 102.254C104.851 102.076 104.592 101.943 104.301 101.854C104.013 101.762 103.702 101.716 103.368 101.716C102.775 101.716 102.25 101.865 101.792 102.163C101.334 102.458 100.975 102.891 100.716 103.463C100.456 104.031 100.327 104.725 100.327 105.545C100.327 106.38 100.456 107.083 100.716 107.655C100.979 108.223 101.337 108.653 101.792 108.944C102.25 109.232 102.774 109.375 103.363 109.375C103.69 109.375 103.995 109.333 104.279 109.248C104.567 109.159 104.824 109.029 105.052 108.859C105.282 108.688 105.476 108.479 105.632 108.23C105.792 107.982 105.902 107.697 105.963 107.378L107.955 107.388C107.88 107.907 107.719 108.393 107.47 108.848C107.225 109.303 106.904 109.704 106.506 110.052C106.108 110.396 105.643 110.666 105.11 110.862C104.578 111.053 103.986 111.149 103.336 111.149C102.378 111.149 101.522 110.927 100.769 110.483C100.016 110.039 99.4231 109.398 98.9899 108.56C98.5566 107.722 98.34 106.717 98.34 105.545C98.34 104.37 98.5584 103.365 98.9952 102.531C99.432 101.692 100.027 101.051 100.78 100.608C101.532 100.164 102.385 99.9418 103.336 99.9418C103.944 99.9418 104.508 100.027 105.03 100.197C105.552 100.368 106.018 100.618 106.426 100.949C106.834 101.275 107.17 101.676 107.433 102.152C107.699 102.625 107.873 103.164 107.955 103.772ZM113.573 111.149C112.806 111.149 112.124 111.018 111.528 110.755C110.935 110.492 110.466 110.126 110.121 109.658C109.777 109.189 109.594 108.647 109.573 108.033H111.576C111.593 108.328 111.691 108.585 111.869 108.805C112.046 109.022 112.282 109.191 112.577 109.311C112.872 109.432 113.202 109.493 113.568 109.493C113.958 109.493 114.305 109.425 114.606 109.29C114.908 109.152 115.144 108.96 115.315 108.715C115.485 108.47 115.569 108.187 115.565 107.868C115.569 107.538 115.484 107.246 115.31 106.994C115.136 106.742 114.883 106.545 114.553 106.403C114.226 106.261 113.832 106.19 113.371 106.19H112.407V104.667H113.371C113.751 104.667 114.083 104.601 114.367 104.469C114.654 104.338 114.88 104.153 115.043 103.915C115.207 103.674 115.286 103.395 115.283 103.079C115.286 102.77 115.217 102.502 115.075 102.275C114.937 102.044 114.74 101.865 114.484 101.737C114.232 101.609 113.935 101.545 113.594 101.545C113.261 101.545 112.952 101.605 112.668 101.726C112.383 101.847 112.154 102.019 111.98 102.243C111.806 102.463 111.714 102.726 111.703 103.031H109.802C109.816 102.42 109.992 101.884 110.329 101.423C110.67 100.957 111.125 100.595 111.693 100.336C112.261 100.073 112.898 99.9418 113.605 99.9418C114.333 99.9418 114.965 100.078 115.501 100.352C116.041 100.622 116.458 100.986 116.753 101.444C117.048 101.902 117.195 102.408 117.195 102.962C117.199 103.576 117.018 104.091 116.652 104.507C116.29 104.922 115.814 105.194 115.224 105.322V105.407C115.991 105.513 116.579 105.798 116.987 106.259C117.399 106.717 117.604 107.287 117.6 107.969C117.6 108.58 117.426 109.127 117.078 109.61C116.734 110.089 116.258 110.466 115.65 110.739C115.047 111.012 114.354 111.149 113.573 111.149Z" fill="black"/>
<path d="M57.712 110H56.0245L59.0969 101.273H61.0487L64.1254 110H62.4379L60.1069 103.062H60.0387L57.712 110ZM57.7674 106.578H62.3697V107.848H57.7674V106.578ZM68.3292 101.273V110H66.7482V102.811H66.6971L64.6559 104.115V102.666L66.8249 101.273H68.3292Z" fill="black"/>
<path d="M148.913 110H147.226L150.298 101.273H152.25L155.327 110H153.639L151.308 103.062H151.24L148.913 110ZM148.969 106.578H153.571V107.848H148.969V106.578ZM156.391 110V108.858L159.421 105.888C159.71 105.595 159.952 105.335 160.145 105.108C160.338 104.881 160.483 104.661 160.58 104.447C160.676 104.234 160.725 104.007 160.725 103.766C160.725 103.49 160.662 103.254 160.537 103.058C160.412 102.859 160.24 102.706 160.021 102.598C159.803 102.49 159.554 102.436 159.276 102.436C158.989 102.436 158.737 102.496 158.521 102.615C158.306 102.732 158.138 102.898 158.019 103.114C157.902 103.33 157.844 103.587 157.844 103.885H156.34C156.34 103.331 156.466 102.849 156.719 102.44C156.972 102.031 157.32 101.714 157.763 101.49C158.209 101.266 158.72 101.153 159.297 101.153C159.882 101.153 160.396 101.263 160.84 101.482C161.283 101.7 161.627 102 161.871 102.381C162.118 102.761 162.242 103.196 162.242 103.685C162.242 104.011 162.179 104.332 162.054 104.648C161.929 104.963 161.709 105.312 161.394 105.696C161.081 106.08 160.642 106.544 160.077 107.089L158.573 108.619V108.679H162.374V110H156.391Z" fill="black"/>
<path d="M542 40L537 37.1132V42.8868L542 40ZM492 40.5H537.5V39.5H492V40.5Z" fill="#9F9F9F"/>
<path d="M651 40L646 37.1132V42.8868L651 40ZM601 40.5H646.5V39.5H601V40.5Z" fill="#9F9F9F"/>
<path d="M307 40L302 37.1132V42.8868L307 40ZM257 40.5H302.5V39.5H257V40.5Z" fill="#9F9F9F"/>
<path d="M421 40L416 37.1132V42.8868L421 40ZM371 40.5H416.5V39.5H371V40.5Z" fill="#9F9F9F"/>
<path d="M542 283L537 280.113V285.887L542 283ZM492 283.5H537.5V282.5H492V283.5Z" fill="#00FF19"/>
<path d="M651 283L646 280.113V285.887L651 283ZM601 283.5H646.5V282.5H601V283.5Z" fill="#00FF19"/>
<path d="M307 283L302 280.113V285.887L307 283ZM257 283.5H302.5V282.5H257V283.5Z" fill="#00FF19"/>
<path d="M421 283L416 280.113V285.887L421 283ZM371 283.5H416.5V282.5H371V283.5Z" fill="#00FF19"/>
<path d="M165 270L160 267.113V272.887L165 270ZM53 270.5H160.5V269.5H53V270.5Z" fill="#00FF19"/>
<path d="M53 40L58 42.8868V37.1132L53 40ZM165 39.5H57.5V40.5H165V39.5Z" fill="#00FF19"/>
<path d="M53 278L58 275.113V280.887L53 278ZM165 278.5H57.5V277.5H165V278.5Z" fill="#9F9F9F"/>
<path d="M165 32L160 34.8868V29.1132L165 32ZM53 31.5H160.5V32.5H53V31.5Z" fill="#9F9F9F"/>
<path d="M492 32L497 29.1132V34.8868L492 32ZM542 32.5H496.5V31.5H542V32.5Z" fill="#00FF19"/>
<path d="M601 32L606 29.1132V34.8868L601 32ZM651 32.5H605.5V31.5H651V32.5Z" fill="#00FF19"/>
<path d="M257 32L262 29.1132V34.8868L257 32ZM307 32.5H261.5V31.5H307V32.5Z" fill="#00FF19"/>
<path d="M371 32L376 29.1132V34.8868L371 32ZM421 32.5H375.5V31.5H421V32.5Z" fill="#00FF19"/>
<path d="M492 275L497 272.113V277.887L492 275ZM542 275.5H496.5V274.5H542V275.5Z" fill="#9F9F9F"/>
<path d="M601 275L606 272.113V277.887L601 275ZM651 275.5H605.5V274.5H651V275.5Z" fill="#9F9F9F"/>
<path d="M257 275L262 272.113V277.887L257 275ZM307 275.5H261.5V274.5H307V275.5Z" fill="#9F9F9F"/>
<path d="M371 275L376 272.113V277.887L371 275ZM421 275.5H375.5V274.5H421V275.5Z" fill="#9F9F9F"/>
<path d="M107 293V293.5H107.325L107.457 293.203L107 293ZM111 284V283.5H110.675L110.543 283.797L111 284ZM165 284L160 281.113V286.887L165 284ZM53 293.5H107V292.5H53V293.5ZM107.457 293.203L111.457 284.203L110.543 283.797L106.543 292.797L107.457 293.203ZM111 284.5H160.5V283.5H111V284.5Z" fill="#9F9F9F"/>
<path d="M111 17V16.5H110.675L110.543 16.7969L111 17ZM107 26V26.5H107.325L107.457 26.2031L107 26ZM53 26L58 28.8868V23.1132L53 26ZM165 16.5H111V17.5H165V16.5ZM110.543 16.7969L106.543 25.7969L107.457 26.2031L111.457 17.2031L110.543 16.7969ZM107 25.5H57.5V26.5H107V25.5Z" fill="#9F9F9F"/>
<path d="M107 298V297.5H107.325L107.457 297.797L107 298ZM111 307V307.5H110.675L110.543 307.203L111 307ZM165 307L160 309.887V304.113L165 307ZM53 297.5H107V298.5H53V297.5ZM107.457 297.797L111.457 306.797L110.543 307.203L106.543 298.203L107.457 297.797ZM111 306.5H160.5V307.5H111V306.5Z" fill="#9F9F9F"/>
<path d="M111 12V12.5H110.675L110.543 12.2031L111 12ZM107 3V2.5H107.325L107.457 2.79693L107 3ZM53 3L58 0.113249V5.88675L53 3ZM165 12.5H111V11.5H165V12.5ZM110.543 12.2031L106.543 3.20307L107.457 2.79693L111.457 11.7969L110.543 12.2031ZM107 3.5H57.5V2.5H107V3.5Z" fill="#9F9F9F"/>
<path d="M17.6776 38.0449C17.6527 37.8123 17.548 37.6312 17.3633 37.5016C17.1804 37.372 16.9425 37.3072 16.6495 37.3072C16.4436 37.3072 16.2669 37.3382 16.1195 37.4004C15.9722 37.4625 15.8594 37.5469 15.7813 37.6534C15.7032 37.7599 15.6632 37.8816 15.6614 38.0183C15.6614 38.1319 15.6872 38.2305 15.7387 38.3139C15.7919 38.3974 15.8639 38.4684 15.9544 38.527C16.045 38.5838 16.1453 38.6317 16.2554 38.6708C16.3655 38.7099 16.4764 38.7427 16.5883 38.7694L17.0997 38.8972C17.3056 38.9451 17.5036 39.0099 17.6936 39.0916C17.8853 39.1733 18.0567 39.2763 18.2076 39.4006C18.3603 39.5249 18.481 39.6749 18.5698 39.8507C18.6586 40.0265 18.703 40.2324 18.703 40.4686C18.703 40.7882 18.6213 41.0696 18.458 41.3129C18.2946 41.5543 18.0585 41.7434 17.7495 41.8801C17.4423 42.0151 17.0704 42.0826 16.6336 42.0826C16.2092 42.0826 15.8408 42.0169 15.5283 41.8855C15.2176 41.7541 14.9743 41.5623 14.7985 41.3102C14.6245 41.0581 14.5304 40.7509 14.5162 40.3887H15.4883C15.5025 40.5787 15.5611 40.7367 15.6641 40.8627C15.7671 40.9888 15.9011 41.0829 16.0663 41.1451C16.2332 41.2072 16.4196 41.2383 16.6256 41.2383C16.8404 41.2383 17.0286 41.2063 17.1902 41.1424C17.3536 41.0767 17.4814 40.9862 17.5737 40.8707C17.6661 40.7536 17.7131 40.6168 17.7149 40.4606C17.7131 40.3185 17.6714 40.2013 17.5897 40.109C17.508 40.0149 17.3935 39.9368 17.2461 39.8746C17.1005 39.8107 16.9301 39.7539 16.7348 39.7042L16.1142 39.5444C15.665 39.429 15.3099 39.2541 15.0489 39.0197C14.7896 38.7836 14.66 38.4702 14.66 38.0795C14.66 37.7582 14.747 37.4767 14.921 37.2353C15.0968 36.9938 15.3356 36.8065 15.6375 36.6733C15.9393 36.5384 16.2811 36.4709 16.6629 36.4709C17.0499 36.4709 17.3891 36.5384 17.6803 36.6733C17.9732 36.8065 18.2032 36.992 18.3701 37.2299C18.537 37.4661 18.6231 37.7377 18.6284 38.0449H17.6776ZM19.4321 40.9879V40.2022L21.7465 36.5455H22.4017V37.6641H22.0022L20.4442 40.133V40.1756H23.6748V40.9879H19.4321ZM22.0342 42V40.7482L22.0448 40.3967V36.5455H22.977V42H22.0342ZM29.2479 38.3858H28.2518C28.2234 38.2225 28.171 38.0778 28.0946 37.9517C28.0183 37.8239 27.9233 37.7156 27.8097 37.6268C27.696 37.538 27.5664 37.4714 27.4208 37.427C27.277 37.3809 27.1216 37.3578 26.9547 37.3578C26.6582 37.3578 26.3954 37.4324 26.1664 37.5815C25.9373 37.7289 25.758 37.9455 25.6284 38.2314C25.4988 38.5154 25.4339 38.8626 25.4339 39.2727C25.4339 39.69 25.4988 40.0415 25.6284 40.3274C25.7598 40.6115 25.9391 40.8263 26.1664 40.9719C26.3954 41.1158 26.6573 41.1877 26.9521 41.1877C27.1154 41.1877 27.2681 41.1664 27.4102 41.1238C27.554 41.0794 27.6827 41.0146 27.7963 40.9293C27.9118 40.8441 28.0085 40.7393 28.0866 40.6151C28.1665 40.4908 28.2216 40.3487 28.2518 40.1889L29.2479 40.1942C29.2106 40.4535 29.1298 40.6967 29.0055 40.924C28.883 41.1513 28.7223 41.3519 28.5234 41.5259C28.3246 41.6982 28.092 41.8331 27.8256 41.9308C27.5593 42.0266 27.2637 42.0746 26.9387 42.0746C26.4593 42.0746 26.0314 41.9636 25.655 41.7417C25.2786 41.5197 24.9821 41.1992 24.7654 40.7802C24.5488 40.3612 24.4405 39.8587 24.4405 39.2727C24.4405 38.685 24.5497 38.1825 24.7681 37.7653C24.9865 37.3462 25.2839 37.0257 25.6603 36.8038C26.0368 36.5819 26.4629 36.4709 26.9387 36.4709C27.2424 36.4709 27.5247 36.5135 27.7857 36.5987C28.0467 36.6839 28.2793 36.8091 28.4835 36.9743C28.6877 37.1376 28.8555 37.3382 28.9869 37.5762C29.12 37.8123 29.207 38.0822 29.2479 38.3858ZM32.057 42.0746C31.6735 42.0746 31.3326 42.0089 31.0343 41.8775C30.7378 41.7461 30.5034 41.5632 30.3312 41.3288C30.159 41.0945 30.0675 40.8237 30.0569 40.5165H31.0583C31.0672 40.6639 31.116 40.7926 31.2048 40.9027C31.2935 41.011 31.4116 41.0953 31.559 41.1557C31.7064 41.2161 31.8715 41.2463 32.0544 41.2463C32.2497 41.2463 32.4228 41.2125 32.5737 41.1451C32.7247 41.0758 32.8427 40.9799 32.928 40.8574C33.0132 40.7349 33.0549 40.5937 33.0531 40.4339C33.0549 40.2688 33.0123 40.1232 32.9253 39.9972C32.8383 39.8711 32.7122 39.7725 32.5471 39.7015C32.3837 39.6305 32.1867 39.595 31.9558 39.595H31.4738V38.8333H31.9558C32.1458 38.8333 32.3118 38.8004 32.4539 38.7347C32.5977 38.669 32.7104 38.5767 32.7921 38.4577C32.8738 38.337 32.9138 38.1976 32.912 38.0396C32.9138 37.8851 32.8791 37.7511 32.8081 37.6374C32.7389 37.522 32.6403 37.4324 32.5125 37.3684C32.3864 37.3045 32.2381 37.2725 32.0677 37.2725C31.9008 37.2725 31.7463 37.3027 31.6043 37.3631C31.4622 37.4235 31.3477 37.5096 31.2607 37.6214C31.1737 37.7315 31.1275 37.8629 31.1222 38.0156H30.1714C30.1785 37.7102 30.2664 37.4421 30.4351 37.2113C30.6055 36.9787 30.8328 36.7976 31.1169 36.668C31.401 36.5366 31.7197 36.4709 32.073 36.4709C32.437 36.4709 32.7531 36.5392 33.0212 36.676C33.2911 36.8109 33.4997 36.9929 33.6471 37.2219C33.7944 37.451 33.8681 37.704 33.8681 37.981C33.8699 38.2882 33.7793 38.5456 33.5965 38.7534C33.4153 38.9611 33.1774 39.0969 32.8827 39.1609V39.2035C33.2662 39.2567 33.5601 39.3988 33.7642 39.6296C33.9702 39.8587 34.0723 40.1436 34.0705 40.4846C34.0705 40.79 33.9835 41.0634 33.8095 41.3049C33.6373 41.5446 33.3994 41.7328 33.0957 41.8695C32.7939 42.0062 32.4477 42.0746 32.057 42.0746Z" fill="black"/>
<path d="M19.0692 269.045C19.0443 268.812 18.9396 268.631 18.7549 268.502C18.572 268.372 18.3341 268.307 18.0411 268.307C17.8352 268.307 17.6585 268.338 17.5111 268.4C17.3638 268.463 17.251 268.547 17.1729 268.653C17.0948 268.76 17.0548 268.882 17.053 269.018C17.053 269.132 17.0788 269.23 17.1303 269.314C17.1835 269.397 17.2555 269.468 17.346 269.527C17.4366 269.584 17.5369 269.632 17.647 269.671C17.7571 269.71 17.868 269.743 17.9799 269.769L18.4913 269.897C18.6972 269.945 18.8952 270.01 19.0852 270.092C19.2769 270.173 19.4483 270.276 19.5992 270.401C19.7519 270.525 19.8726 270.675 19.9614 270.851C20.0502 271.026 20.0946 271.232 20.0946 271.469C20.0946 271.788 20.0129 272.07 19.8496 272.313C19.6862 272.554 19.4501 272.743 19.1411 272.88C18.8339 273.015 18.462 273.083 18.0252 273.083C17.6008 273.083 17.2324 273.017 16.9199 272.885C16.6092 272.754 16.3659 272.562 16.1901 272.31C16.0161 272.058 15.922 271.751 15.9078 271.389H16.8799C16.8941 271.579 16.9527 271.737 17.0557 271.863C17.1587 271.989 17.2927 272.083 17.4579 272.145C17.6248 272.207 17.8112 272.238 18.0172 272.238C18.232 272.238 18.4202 272.206 18.5818 272.142C18.7452 272.077 18.873 271.986 18.9653 271.871C19.0577 271.754 19.1047 271.617 19.1065 271.461C19.1047 271.319 19.063 271.201 18.9813 271.109C18.8996 271.015 18.7851 270.937 18.6377 270.875C18.4921 270.811 18.3217 270.754 18.1264 270.704L17.5058 270.544C17.0566 270.429 16.7015 270.254 16.4405 270.02C16.1812 269.784 16.0516 269.47 16.0516 269.08C16.0516 268.758 16.1386 268.477 16.3126 268.235C16.4884 267.994 16.7272 267.806 17.0291 267.673C17.3309 267.538 17.6727 267.471 18.0545 267.471C18.4415 267.471 18.7807 267.538 19.0719 267.673C19.3648 267.806 19.5948 267.992 19.7617 268.23C19.9286 268.466 20.0147 268.738 20.02 269.045H19.0692ZM23.1408 267.545V273H22.1527V268.507H22.1207L20.845 269.322V268.416L22.2006 267.545H23.1408ZM29.2479 269.386H28.2518C28.2234 269.222 28.171 269.078 28.0946 268.952C28.0183 268.824 27.9233 268.716 27.8097 268.627C27.696 268.538 27.5664 268.471 27.4208 268.427C27.277 268.381 27.1216 268.358 26.9547 268.358C26.6582 268.358 26.3954 268.432 26.1664 268.581C25.9373 268.729 25.758 268.945 25.6284 269.231C25.4988 269.515 25.4339 269.863 25.4339 270.273C25.4339 270.69 25.4988 271.042 25.6284 271.327C25.7598 271.612 25.9391 271.826 26.1664 271.972C26.3954 272.116 26.6573 272.188 26.9521 272.188C27.1154 272.188 27.2681 272.166 27.4102 272.124C27.554 272.079 27.6827 272.015 27.7963 271.929C27.9118 271.844 28.0085 271.739 28.0866 271.615C28.1665 271.491 28.2216 271.349 28.2518 271.189L29.2479 271.194C29.2106 271.453 29.1298 271.697 29.0055 271.924C28.883 272.151 28.7223 272.352 28.5234 272.526C28.3246 272.698 28.092 272.833 27.8256 272.931C27.5593 273.027 27.2637 273.075 26.9387 273.075C26.4593 273.075 26.0314 272.964 25.655 272.742C25.2786 272.52 24.9821 272.199 24.7654 271.78C24.5488 271.361 24.4405 270.859 24.4405 270.273C24.4405 269.685 24.5497 269.183 24.7681 268.765C24.9865 268.346 25.2839 268.026 25.6603 267.804C26.0368 267.582 26.4629 267.471 26.9387 267.471C27.2424 267.471 27.5247 267.513 27.7857 267.599C28.0467 267.684 28.2793 267.809 28.4835 267.974C28.6877 268.138 28.8555 268.338 28.9869 268.576C29.12 268.812 29.207 269.082 29.2479 269.386ZM32.057 273.075C31.6735 273.075 31.3326 273.009 31.0343 272.877C30.7378 272.746 30.5034 272.563 30.3312 272.329C30.159 272.094 30.0675 271.824 30.0569 271.517H31.0583C31.0672 271.664 31.116 271.793 31.2048 271.903C31.2935 272.011 31.4116 272.095 31.559 272.156C31.7064 272.216 31.8715 272.246 32.0544 272.246C32.2497 272.246 32.4228 272.213 32.5737 272.145C32.7247 272.076 32.8427 271.98 32.928 271.857C33.0132 271.735 33.0549 271.594 33.0531 271.434C33.0549 271.269 33.0123 271.123 32.9253 270.997C32.8383 270.871 32.7122 270.773 32.5471 270.702C32.3837 270.631 32.1867 270.595 31.9558 270.595H31.4738V269.833H31.9558C32.1458 269.833 32.3118 269.8 32.4539 269.735C32.5977 269.669 32.7104 269.577 32.7921 269.458C32.8738 269.337 32.9138 269.198 32.912 269.04C32.9138 268.885 32.8791 268.751 32.8081 268.637C32.7389 268.522 32.6403 268.432 32.5125 268.368C32.3864 268.305 32.2381 268.273 32.0677 268.273C31.9008 268.273 31.7463 268.303 31.6043 268.363C31.4622 268.423 31.3477 268.51 31.2607 268.621C31.1737 268.732 31.1275 268.863 31.1222 269.016H30.1714C30.1785 268.71 30.2664 268.442 30.4351 268.211C30.6055 267.979 30.8328 267.798 31.1169 267.668C31.401 267.537 31.7197 267.471 32.073 267.471C32.437 267.471 32.7531 267.539 33.0212 267.676C33.2911 267.811 33.4997 267.993 33.6471 268.222C33.7944 268.451 33.8681 268.704 33.8681 268.981C33.8699 269.288 33.7793 269.546 33.5965 269.753C33.4153 269.961 33.1774 270.097 32.8827 270.161V270.203C33.2662 270.257 33.5601 270.399 33.7642 270.63C33.9702 270.859 34.0723 271.144 34.0705 271.485C34.0705 271.79 33.9835 272.063 33.8095 272.305C33.6373 272.545 33.3994 272.733 33.0957 272.869C32.7939 273.006 32.4477 273.075 32.057 273.075Z" fill="black"/>
<path d="M706.959 269.045C706.934 268.812 706.83 268.631 706.645 268.502C706.462 268.372 706.224 268.307 705.931 268.307C705.725 268.307 705.549 268.338 705.401 268.4C705.254 268.463 705.141 268.547 705.063 268.653C704.985 268.76 704.945 268.882 704.943 269.018C704.943 269.132 704.969 269.23 705.02 269.314C705.074 269.397 705.146 269.468 705.236 269.527C705.327 269.584 705.427 269.632 705.537 269.671C705.647 269.71 705.758 269.743 705.87 269.769L706.381 269.897C706.587 269.945 706.785 270.01 706.975 270.092C707.167 270.173 707.338 270.276 707.489 270.401C707.642 270.525 707.763 270.675 707.852 270.851C707.94 271.026 707.985 271.232 707.985 271.469C707.985 271.788 707.903 272.07 707.74 272.313C707.576 272.554 707.34 272.743 707.031 272.88C706.724 273.015 706.352 273.083 705.915 273.083C705.491 273.083 705.123 273.017 704.81 272.885C704.499 272.754 704.256 272.562 704.08 272.31C703.906 272.058 703.812 271.751 703.798 271.389H704.77C704.784 271.579 704.843 271.737 704.946 271.863C705.049 271.989 705.183 272.083 705.348 272.145C705.515 272.207 705.701 272.238 705.907 272.238C706.122 272.238 706.31 272.206 706.472 272.142C706.635 272.077 706.763 271.986 706.855 271.871C706.948 271.754 706.995 271.617 706.997 271.461C706.995 271.319 706.953 271.201 706.871 271.109C706.79 271.015 706.675 270.937 706.528 270.875C706.382 270.811 706.212 270.754 706.017 270.704L705.396 270.544C704.947 270.429 704.592 270.254 704.331 270.02C704.071 269.784 703.942 269.47 703.942 269.08C703.942 268.758 704.029 268.477 704.203 268.235C704.379 267.994 704.617 267.806 704.919 267.673C705.221 267.538 705.563 267.471 705.945 267.471C706.332 267.471 706.671 267.538 706.962 267.673C707.255 267.806 707.485 267.992 707.652 268.23C707.819 268.466 707.905 268.738 707.91 269.045H706.959ZM711.031 267.545V273H710.043V268.507H710.011L708.735 269.322V268.416L710.091 267.545H711.031ZM717.138 269.386H716.142C716.114 269.222 716.061 269.078 715.985 268.952C715.908 268.824 715.813 268.716 715.7 268.627C715.586 268.538 715.457 268.471 715.311 268.427C715.167 268.381 715.012 268.358 714.845 268.358C714.548 268.358 714.286 268.432 714.057 268.581C713.827 268.729 713.648 268.945 713.519 269.231C713.389 269.515 713.324 269.863 713.324 270.273C713.324 270.69 713.389 271.042 713.519 271.327C713.65 271.612 713.829 271.826 714.057 271.972C714.286 272.116 714.547 272.188 714.842 272.188C715.006 272.188 715.158 272.166 715.3 272.124C715.444 272.079 715.573 272.015 715.686 271.929C715.802 271.844 715.899 271.739 715.977 271.615C716.057 271.491 716.112 271.349 716.142 271.189L717.138 271.194C717.101 271.453 717.02 271.697 716.896 271.924C716.773 272.151 716.612 272.352 716.414 272.526C716.215 272.698 715.982 272.833 715.716 272.931C715.449 273.027 715.154 273.075 714.829 273.075C714.349 273.075 713.922 272.964 713.545 272.742C713.169 272.52 712.872 272.199 712.656 271.78C712.439 271.361 712.331 270.859 712.331 270.273C712.331 269.685 712.44 269.183 712.658 268.765C712.877 268.346 713.174 268.026 713.55 267.804C713.927 267.582 714.353 267.471 714.829 267.471C715.133 267.471 715.415 267.513 715.676 267.599C715.937 267.684 716.169 267.809 716.374 267.974C716.578 268.138 716.746 268.338 716.877 268.576C717.01 268.812 717.097 269.082 717.138 269.386ZM717.891 271.988V271.202L720.206 267.545H720.861V268.664H720.461L718.903 271.133V271.176H722.134V271.988H717.891ZM720.493 273V271.748L720.504 271.397V267.545H721.436V273H720.493Z" fill="black"/>
<path d="M705.568 38.0449C705.543 37.8123 705.438 37.6312 705.253 37.5016C705.071 37.372 704.833 37.3072 704.54 37.3072C704.334 37.3072 704.157 37.3382 704.01 37.4004C703.862 37.4625 703.75 37.5469 703.671 37.6534C703.593 37.7599 703.553 37.8816 703.552 38.0183C703.552 38.1319 703.577 38.2305 703.629 38.3139C703.682 38.3974 703.754 38.4684 703.845 38.527C703.935 38.5838 704.035 38.6317 704.146 38.6708C704.256 38.7099 704.367 38.7427 704.478 38.7694L704.99 38.8972C705.196 38.9451 705.394 39.0099 705.584 39.0916C705.775 39.1733 705.947 39.2763 706.098 39.4006C706.25 39.5249 706.371 39.6749 706.46 39.8507C706.549 40.0265 706.593 40.2324 706.593 40.4686C706.593 40.7882 706.511 41.0696 706.348 41.3129C706.185 41.5543 705.949 41.7434 705.64 41.8801C705.332 42.0151 704.96 42.0826 704.524 42.0826C704.099 42.0826 703.731 42.0169 703.418 41.8855C703.108 41.7541 702.864 41.5623 702.689 41.3102C702.515 41.0581 702.421 40.7509 702.406 40.3887H703.378C703.393 40.5787 703.451 40.7367 703.554 40.8627C703.657 40.9888 703.791 41.0829 703.956 41.1451C704.123 41.2072 704.31 41.2383 704.516 41.2383C704.731 41.2383 704.919 41.2063 705.08 41.1424C705.244 41.0767 705.372 40.9862 705.464 40.8707C705.556 40.7536 705.603 40.6168 705.605 40.4606C705.603 40.3185 705.562 40.2013 705.48 40.109C705.398 40.0149 705.284 39.9368 705.136 39.8746C704.991 39.8107 704.82 39.7539 704.625 39.7042L704.004 39.5444C703.555 39.429 703.2 39.2541 702.939 39.0197C702.68 38.7836 702.55 38.4702 702.55 38.0795C702.55 37.7582 702.637 37.4767 702.811 37.2353C702.987 36.9938 703.226 36.8065 703.528 36.6733C703.829 36.5384 704.171 36.4709 704.553 36.4709C704.94 36.4709 705.279 36.5384 705.57 36.6733C705.863 36.8065 706.093 36.992 706.26 37.2299C706.427 37.4661 706.513 37.7377 706.519 38.0449H705.568ZM707.322 40.9879V40.2022L709.637 36.5455H710.292V37.6641H709.892L708.334 40.133V40.1756H711.565V40.9879H707.322ZM709.924 42V40.7482L709.935 40.3967V36.5455H710.867V42H709.924ZM717.138 38.3858H716.142C716.114 38.2225 716.061 38.0778 715.985 37.9517C715.908 37.8239 715.813 37.7156 715.7 37.6268C715.586 37.538 715.457 37.4714 715.311 37.427C715.167 37.3809 715.012 37.3578 714.845 37.3578C714.548 37.3578 714.286 37.4324 714.057 37.5815C713.827 37.7289 713.648 37.9455 713.519 38.2314C713.389 38.5154 713.324 38.8626 713.324 39.2727C713.324 39.69 713.389 40.0415 713.519 40.3274C713.65 40.6115 713.829 40.8263 714.057 40.9719C714.286 41.1158 714.547 41.1877 714.842 41.1877C715.006 41.1877 715.158 41.1664 715.3 41.1238C715.444 41.0794 715.573 41.0146 715.686 40.9293C715.802 40.8441 715.899 40.7393 715.977 40.6151C716.057 40.4908 716.112 40.3487 716.142 40.1889L717.138 40.1942C717.101 40.4535 717.02 40.6967 716.896 40.924C716.773 41.1513 716.612 41.3519 716.414 41.5259C716.215 41.6982 715.982 41.8331 715.716 41.9308C715.449 42.0266 715.154 42.0746 714.829 42.0746C714.349 42.0746 713.922 41.9636 713.545 41.7417C713.169 41.5197 712.872 41.1992 712.656 40.7802C712.439 40.3612 712.331 39.8587 712.331 39.2727C712.331 38.685 712.44 38.1825 712.658 37.7653C712.877 37.3462 713.174 37.0257 713.55 36.8038C713.927 36.5819 714.353 36.4709 714.829 36.4709C715.133 36.4709 715.415 36.5135 715.676 36.5987C715.937 36.6839 716.169 36.8091 716.374 36.9743C716.578 37.1376 716.746 37.3382 716.877 37.5762C717.01 37.8123 717.097 38.0822 717.138 38.3858ZM717.891 40.9879V40.2022L720.206 36.5455H720.861V37.6641H720.461L718.903 40.133V40.1756H722.134V40.9879H717.891ZM720.493 42V40.7482L720.504 40.3967V36.5455H721.436V42H720.493Z" fill="black"/>
</svg>
