<svg width="536" height="435" viewBox="0 0 536 435" fill="none" xmlns="http://www.w3.org/2000/svg">
<style>
                    .train {
                        font-family: Consolas, sans-serif;
                        font-size: 20px;
                        font-weight:40px;
                        fill: #D9DD0E;
                    }
</style>
<defs>
    <filter x="0" y="0" width="1" height="1" id="solid">
        <feFlood flood-color="black" result="bg" />
        <feMerge>
            <feMergeNode in="bg"/>
            <feMergeNode in="SourceGraphic"/>
        </feMerge>
    </filter>
</defs>

<rect x="168" y="40" width="112" height="30" fill="#CDCDCD" id="c2302"/>
<text x="215" y="30" class="train" filter="url(#solid)" id="c2302tr">10</text>
<rect x="283" y="40" width="112" height="30" fill="#CDCDCD" id="c2202"/>
<text x="329" y="30" class="train" filter="url(#solid)" id="c2202tr">10</text>
<rect x="283" y="220" width="112" height="30" fill="#CDCDCD" id="c1302"/>
<text x="329" y="270" class="train" filter="url(#solid)" id="c1302tr">10</text>
<rect x="283" y="335" width="112" height="30" fill="#CDCDCD" id="cGPAG1"/>
<text x="329" y="385" class="train" filter="url(#solid)" id="cGPAG1tr">10</text>
<rect x="240" y="335" width="40" height="30" fill="#CDCDCD" id="cGA2PAG"/>
<text x="215" y="385" class="train" filter="url(#solid)" id="cGA2PAGtr">10</text>
<rect x="398.5" y="220" width="112" height="30" fill="#CDCDCD" id="c1402"/>
<text x="443" y="270" class="train" filter="url(#solid)" id="c1402tr">10</text>
<rect x="398.5" y="40" width="112" height="30" fill="#CDCDCD" id="c2102"/>
<text x="443" y="30" class="train" filter="url(#solid)" id="c2102tr">10</text>
<path d="M53 47H165V63H53V47Z" fill="#148FB6" id="c2402n"/>
<path d="M168 227H280V243H168V227Z" fill="#148FB6" id="c1202n"/>
<path d="M53 227H165V243H53V227Z" fill="#148FB6" id="c1102n"/>
<rect x="83" y="40" width="52" height="30" fill="#CDCDCD" id="c2402"/>
<text x="101" y="30" class="train" filter="url(#solid)" id="c2402tr">10</text>
<rect x="198" y="220" width="52" height="30" fill="#CDCDCD" id="c1202"/>
<text x="215" y="270" class="train" filter="url(#solid)" id="c1202tr">10</text>
<rect x="83" y="220" width="52" height="30" fill="#CDCDCD" id="c1102"/>
<text x="101" y="270" class="train" filter="url(#solid)" id="c1102tr">10</text>
<path d="M85.5971 62V60.5682L90.0268 55.9787C90.4998 55.4801 90.8897 55.0433 91.1966 54.6683C91.5076 54.2891 91.7399 53.929 91.8933 53.5881C92.0467 53.2472 92.1234 52.8849 92.1234 52.5014C92.1234 52.0668 92.0211 51.6918 91.8166 51.3764C91.612 51.0568 91.3329 50.8118 90.9792 50.6413C90.6255 50.4666 90.2271 50.3793 89.7839 50.3793C89.3152 50.3793 88.9061 50.4751 88.5566 50.6669C88.2072 50.8587 87.9387 51.1293 87.7512 51.4787C87.5637 51.8281 87.47 52.2372 87.47 52.706H85.5843C85.5843 51.9091 85.7676 51.2124 86.1341 50.6158C86.5005 50.0192 87.0034 49.5568 87.6426 49.2287C88.2818 48.8963 89.0083 48.7301 89.8223 48.7301C90.6447 48.7301 91.3691 48.8942 91.9956 49.2223C92.6262 49.5462 93.1184 49.9893 93.4721 50.5518C93.8258 51.1101 94.0027 51.7408 94.0027 52.4439C94.0027 52.9297 93.911 53.4048 93.7278 53.8693C93.5488 54.3338 93.2356 54.8516 92.7882 55.4226C92.3407 55.9893 91.7186 56.6776 90.9217 57.4872L88.3201 60.2102V60.3061H94.2136V62H85.5971ZM96.0801 59.4432V57.8452L101.737 48.9091H102.996V51.2614H102.197L98.1511 57.6662V57.7685H105.905V59.4432H96.0801ZM102.287 62V58.9574L102.3 58.2287V48.9091H104.172V62H102.287ZM108.925 62.1214C108.575 62.1214 108.275 61.9979 108.024 61.7507C107.772 61.4993 107.646 61.1967 107.646 60.843C107.646 60.4936 107.772 60.1953 108.024 59.9482C108.275 59.6967 108.575 59.571 108.925 59.571C109.274 59.571 109.575 59.6967 109.826 59.9482C110.078 60.1953 110.203 60.4936 110.203 60.843C110.203 61.0774 110.144 61.2926 110.024 61.4886C109.909 61.6804 109.756 61.8338 109.564 61.9489C109.372 62.0639 109.159 62.1214 108.925 62.1214ZM116.821 62.2173C115.811 62.2131 114.948 61.9467 114.232 61.4183C113.516 60.8899 112.968 60.1207 112.589 59.1108C112.21 58.1009 112.02 56.8842 112.02 55.4609C112.02 54.0419 112.21 52.8295 112.589 51.8239C112.973 50.8182 113.522 50.0511 114.238 49.5227C114.958 48.9943 115.819 48.7301 116.821 48.7301C117.822 48.7301 118.681 48.9964 119.397 49.5291C120.113 50.0575 120.66 50.8246 121.039 51.8303C121.423 52.8317 121.615 54.0419 121.615 55.4609C121.615 56.8885 121.425 58.1072 121.046 59.1172C120.667 60.1229 120.119 60.892 119.403 61.4247C118.687 61.9531 117.826 62.2173 116.821 62.2173ZM116.821 60.5107C117.707 60.5107 118.4 60.0781 118.898 59.2131C119.401 58.348 119.652 57.0973 119.652 55.4609C119.652 54.3743 119.537 53.456 119.307 52.706C119.081 51.9517 118.755 51.3807 118.329 50.9929C117.907 50.6009 117.404 50.4048 116.821 50.4048C115.939 50.4048 115.246 50.8395 114.743 51.7088C114.24 52.5781 113.987 53.8288 113.983 55.4609C113.983 56.5518 114.096 57.4744 114.321 58.2287C114.551 58.9787 114.877 59.5476 115.299 59.9354C115.721 60.3189 116.228 60.5107 116.821 60.5107ZM123.882 62V60.5682L128.312 55.9787C128.785 55.4801 129.175 55.0433 129.482 54.6683C129.793 54.2891 130.025 53.929 130.178 53.5881C130.332 53.2472 130.409 52.8849 130.409 52.5014C130.409 52.0668 130.306 51.6918 130.102 51.3764C129.897 51.0568 129.618 50.8118 129.264 50.6413C128.911 50.4666 128.512 50.3793 128.069 50.3793C127.6 50.3793 127.191 50.4751 126.842 50.6669C126.492 50.8587 126.224 51.1293 126.036 51.4787C125.849 51.8281 125.755 52.2372 125.755 52.706H123.869C123.869 51.9091 124.053 51.2124 124.419 50.6158C124.786 50.0192 125.289 49.5568 125.928 49.2287C126.567 48.8963 127.294 48.7301 128.107 48.7301C128.93 48.7301 129.654 48.8942 130.281 49.2223C130.911 49.5462 131.404 49.9893 131.757 50.5518C132.111 51.1101 132.288 51.7408 132.288 52.4439C132.288 52.9297 132.196 53.4048 132.013 53.8693C131.834 54.3338 131.521 54.8516 131.073 55.4226C130.626 55.9893 130.004 56.6776 129.207 57.4872L126.605 60.2102V60.3061H132.499V62H123.882Z" fill="#424242"/>
<path d="M206.812 228.909V242H204.83V230.891H204.754L201.621 232.936V231.044L204.888 228.909H206.812ZM210.353 242V240.568L214.783 235.979C215.256 235.48 215.646 235.043 215.952 234.668C216.263 234.289 216.496 233.929 216.649 233.588C216.803 233.247 216.879 232.885 216.879 232.501C216.879 232.067 216.777 231.692 216.572 231.376C216.368 231.057 216.089 230.812 215.735 230.641C215.381 230.467 214.983 230.379 214.54 230.379C214.071 230.379 213.662 230.475 213.312 230.667C212.963 230.859 212.695 231.129 212.507 231.479C212.32 231.828 212.226 232.237 212.226 232.706H210.34C210.34 231.909 210.523 231.212 210.89 230.616C211.256 230.019 211.759 229.557 212.398 229.229C213.038 228.896 213.764 228.73 214.578 228.73C215.401 228.73 216.125 228.894 216.751 229.222C217.382 229.546 217.874 229.989 218.228 230.552C218.582 231.11 218.759 231.741 218.759 232.444C218.759 232.93 218.667 233.405 218.484 233.869C218.305 234.334 217.991 234.852 217.544 235.423C217.097 235.989 216.474 236.678 215.678 237.487L213.076 240.21V240.306H218.969V242H210.353ZM222.677 242.121C222.327 242.121 222.027 241.998 221.776 241.751C221.524 241.499 221.398 241.197 221.398 240.843C221.398 240.494 221.524 240.195 221.776 239.948C222.027 239.697 222.327 239.571 222.677 239.571C223.026 239.571 223.327 239.697 223.578 239.948C223.83 240.195 223.955 240.494 223.955 240.843C223.955 241.077 223.896 241.293 223.776 241.489C223.661 241.68 223.508 241.834 223.316 241.949C223.124 242.064 222.911 242.121 222.677 242.121ZM230.573 242.217C229.563 242.213 228.7 241.947 227.984 241.418C227.268 240.89 226.72 240.121 226.341 239.111C225.962 238.101 225.772 236.884 225.772 235.461C225.772 234.042 225.962 232.83 226.341 231.824C226.725 230.818 227.274 230.051 227.99 229.523C228.71 228.994 229.571 228.73 230.573 228.73C231.574 228.73 232.433 228.996 233.149 229.529C233.865 230.058 234.412 230.825 234.791 231.83C235.175 232.832 235.367 234.042 235.367 235.461C235.367 236.888 235.177 238.107 234.798 239.117C234.419 240.123 233.871 240.892 233.155 241.425C232.439 241.953 231.578 242.217 230.573 242.217ZM230.573 240.511C231.459 240.511 232.151 240.078 232.65 239.213C233.153 238.348 233.404 237.097 233.404 235.461C233.404 234.374 233.289 233.456 233.059 232.706C232.833 231.952 232.507 231.381 232.081 230.993C231.659 230.601 231.156 230.405 230.573 230.405C229.691 230.405 228.998 230.839 228.495 231.709C227.992 232.578 227.739 233.829 227.735 235.461C227.735 236.552 227.847 237.474 228.073 238.229C228.303 238.979 228.629 239.548 229.051 239.935C229.473 240.319 229.98 240.511 230.573 240.511ZM237.634 242V240.568L242.064 235.979C242.537 235.48 242.927 235.043 243.234 234.668C243.545 234.289 243.777 233.929 243.93 233.588C244.084 233.247 244.161 232.885 244.161 232.501C244.161 232.067 244.058 231.692 243.854 231.376C243.649 231.057 243.37 230.812 243.016 230.641C242.663 230.467 242.264 230.379 241.821 230.379C241.352 230.379 240.943 230.475 240.594 230.667C240.244 230.859 239.976 231.129 239.788 231.479C239.601 231.828 239.507 232.237 239.507 232.706H237.621C237.621 231.909 237.805 231.212 238.171 230.616C238.538 230.019 239.04 229.557 239.68 229.229C240.319 228.896 241.045 228.73 241.859 228.73C242.682 228.73 243.406 228.894 244.033 229.222C244.663 229.546 245.156 229.989 245.509 230.552C245.863 231.11 246.04 231.741 246.04 232.444C246.04 232.93 245.948 233.405 245.765 233.869C245.586 234.334 245.273 234.852 244.825 235.423C244.378 235.989 243.756 236.678 242.959 237.487L240.357 240.21V240.306H246.251V242H237.634Z" fill="#424242"/>
<path d="M93.4553 228.909V242H91.4738V230.891H91.3971L88.265 232.936V231.044L91.5313 228.909H93.4553ZM101.963 228.909V242H99.9816V230.891H99.9049L96.7728 232.936V231.044L100.039 228.909H101.963ZM106.033 242.121C105.684 242.121 105.383 241.998 105.132 241.751C104.881 241.499 104.755 241.197 104.755 240.843C104.755 240.494 104.881 240.195 105.132 239.948C105.383 239.697 105.684 239.571 106.033 239.571C106.383 239.571 106.683 239.697 106.935 239.948C107.186 240.195 107.312 240.494 107.312 240.843C107.312 241.077 107.252 241.293 107.133 241.489C107.018 241.68 106.864 241.834 106.672 241.949C106.481 242.064 106.268 242.121 106.033 242.121ZM113.929 242.217C112.919 242.213 112.056 241.947 111.34 241.418C110.624 240.89 110.077 240.121 109.698 239.111C109.318 238.101 109.129 236.884 109.129 235.461C109.129 234.042 109.318 232.83 109.698 231.824C110.081 230.818 110.631 230.051 111.347 229.523C112.067 228.994 112.928 228.73 113.929 228.73C114.93 228.73 115.789 228.996 116.505 229.529C117.221 230.058 117.769 230.825 118.148 231.83C118.531 232.832 118.723 234.042 118.723 235.461C118.723 236.888 118.533 238.107 118.154 239.117C117.775 240.123 117.227 240.892 116.511 241.425C115.796 241.953 114.935 242.217 113.929 242.217ZM113.929 240.511C114.815 240.511 115.508 240.078 116.006 239.213C116.509 238.348 116.761 237.097 116.761 235.461C116.761 234.374 116.646 233.456 116.416 232.706C116.19 231.952 115.864 231.381 115.438 230.993C115.016 230.601 114.513 230.405 113.929 230.405C113.047 230.405 112.354 230.839 111.852 231.709C111.349 232.578 111.095 233.829 111.091 235.461C111.091 236.552 111.204 237.474 111.43 238.229C111.66 238.979 111.986 239.548 112.408 239.935C112.83 240.319 113.337 240.511 113.929 240.511ZM120.991 242V240.568L125.42 235.979C125.893 235.48 126.283 235.043 126.59 234.668C126.901 234.289 127.133 233.929 127.287 233.588C127.44 233.247 127.517 232.885 127.517 232.501C127.517 232.067 127.415 231.692 127.21 231.376C127.006 231.057 126.726 230.812 126.373 230.641C126.019 230.467 125.621 230.379 125.177 230.379C124.709 230.379 124.3 230.475 123.95 230.667C123.601 230.859 123.332 231.129 123.145 231.479C122.957 231.828 122.864 232.237 122.864 232.706H120.978C120.978 231.909 121.161 231.212 121.528 230.616C121.894 230.019 122.397 229.557 123.036 229.229C123.675 228.896 124.402 228.73 125.216 228.73C126.038 228.73 126.763 228.894 127.389 229.222C128.02 229.546 128.512 229.989 128.866 230.552C129.219 231.11 129.396 231.741 129.396 232.444C129.396 232.93 129.305 233.405 129.121 233.869C128.942 234.334 128.629 234.852 128.182 235.423C127.734 235.989 127.112 236.678 126.315 237.487L123.714 240.21V240.306H129.607V242H120.991Z" fill="#424242"/>
<path d="M200.492 62V60.5682L204.921 55.9787C205.394 55.4801 205.784 55.0433 206.091 54.6683C206.402 54.2891 206.634 53.929 206.788 53.5881C206.941 53.2472 207.018 52.8849 207.018 52.5014C207.018 52.0668 206.916 51.6918 206.711 51.3764C206.507 51.0568 206.227 50.8118 205.874 50.6413C205.52 50.4666 205.122 50.3793 204.678 50.3793C204.21 50.3793 203.801 50.4751 203.451 50.6669C203.102 50.8587 202.833 51.1293 202.646 51.4787C202.458 51.8281 202.365 52.2372 202.365 52.706H200.479C200.479 51.9091 200.662 51.2124 201.029 50.6158C201.395 50.0192 201.898 49.5568 202.537 49.2287C203.176 48.8963 203.903 48.7301 204.717 48.7301C205.539 48.7301 206.264 48.8942 206.89 49.2223C207.521 49.5462 208.013 49.9893 208.367 50.5518C208.72 51.1101 208.897 51.7408 208.897 52.4439C208.897 52.9297 208.806 53.4048 208.622 53.8693C208.443 54.3338 208.13 54.8516 207.683 55.4226C207.235 55.9893 206.613 56.6776 205.816 57.4872L203.215 60.2102V60.3061H209.108V62H200.492ZM216.088 62.179C215.21 62.179 214.426 62.0277 213.736 61.7251C213.05 61.4226 212.507 61.0028 212.106 60.4659C211.71 59.9247 211.497 59.2983 211.467 58.5866H213.474C213.499 58.9744 213.629 59.3111 213.864 59.5966C214.102 59.8778 214.414 60.0952 214.797 60.2486C215.181 60.402 215.607 60.4787 216.075 60.4787C216.591 60.4787 217.047 60.3892 217.443 60.2102C217.844 60.0312 218.157 59.782 218.383 59.4624C218.609 59.1385 218.722 58.7656 218.722 58.3438C218.722 57.9048 218.609 57.5192 218.383 57.1868C218.161 56.8501 217.835 56.5859 217.405 56.3942C216.979 56.2024 216.463 56.1065 215.858 56.1065H214.752V54.4957H215.858C216.344 54.4957 216.77 54.4084 217.137 54.2337C217.507 54.0589 217.797 53.8161 218.006 53.505C218.215 53.1896 218.319 52.821 218.319 52.3991C218.319 51.9943 218.227 51.6428 218.044 51.3445C217.865 51.0419 217.61 50.8054 217.277 50.6349C216.949 50.4645 216.561 50.3793 216.114 50.3793C215.688 50.3793 215.289 50.4581 214.919 50.6158C214.552 50.7692 214.254 50.9908 214.024 51.2805C213.794 51.5661 213.67 51.9091 213.653 52.3097H211.742C211.763 51.6023 211.972 50.9801 212.368 50.4432C212.769 49.9062 213.297 49.4865 213.953 49.1839C214.61 48.8814 215.338 48.7301 216.139 48.7301C216.979 48.7301 217.703 48.8942 218.313 49.2223C218.926 49.5462 219.399 49.9787 219.732 50.5199C220.068 51.0611 220.235 51.6534 220.23 52.2969C220.235 53.0298 220.03 53.652 219.617 54.1634C219.208 54.6747 218.662 55.0178 217.98 55.1925V55.2947C218.85 55.4268 219.523 55.772 220 56.3303C220.482 56.8885 220.72 57.581 220.716 58.4077C220.72 59.1278 220.52 59.7734 220.115 60.3445C219.715 60.9155 219.167 61.3651 218.472 61.6932C217.778 62.017 216.983 62.179 216.088 62.179ZM224.03 62.1214C223.681 62.1214 223.381 61.9979 223.129 61.7507C222.878 61.4993 222.752 61.1967 222.752 60.843C222.752 60.4936 222.878 60.1953 223.129 59.9482C223.381 59.6967 223.681 59.571 224.03 59.571C224.38 59.571 224.68 59.6967 224.932 59.9482C225.183 60.1953 225.309 60.4936 225.309 60.843C225.309 61.0774 225.249 61.2926 225.13 61.4886C225.015 61.6804 224.861 61.8338 224.67 61.9489C224.478 62.0639 224.265 62.1214 224.03 62.1214ZM231.926 62.2173C230.916 62.2131 230.053 61.9467 229.337 61.4183C228.621 60.8899 228.074 60.1207 227.695 59.1108C227.315 58.1009 227.126 56.8842 227.126 55.4609C227.126 54.0419 227.315 52.8295 227.695 51.8239C228.078 50.8182 228.628 50.0511 229.344 49.5227C230.064 48.9943 230.925 48.7301 231.926 48.7301C232.928 48.7301 233.786 48.9964 234.502 49.5291C235.218 50.0575 235.766 50.8246 236.145 51.8303C236.528 52.8317 236.72 54.0419 236.72 55.4609C236.72 56.8885 236.531 58.1072 236.151 59.1172C235.772 60.1229 235.224 60.892 234.509 61.4247C233.793 61.9531 232.932 62.2173 231.926 62.2173ZM231.926 60.5107C232.813 60.5107 233.505 60.0781 234.004 59.2131C234.506 58.348 234.758 57.0973 234.758 55.4609C234.758 54.3743 234.643 53.456 234.413 52.706C234.187 51.9517 233.861 51.3807 233.435 50.9929C233.013 50.6009 232.51 50.4048 231.926 50.4048C231.044 50.4048 230.352 50.8395 229.849 51.7088C229.346 52.5781 229.092 53.8288 229.088 55.4609C229.088 56.5518 229.201 57.4744 229.427 58.2287C229.657 58.9787 229.983 59.5476 230.405 59.9354C230.827 60.3189 231.334 60.5107 231.926 60.5107ZM238.988 62V60.5682L243.417 55.9787C243.89 55.4801 244.28 55.0433 244.587 54.6683C244.898 54.2891 245.131 53.929 245.284 53.5881C245.437 53.2472 245.514 52.8849 245.514 52.5014C245.514 52.0668 245.412 51.6918 245.207 51.3764C245.003 51.0568 244.724 50.8118 244.37 50.6413C244.016 50.4666 243.618 50.3793 243.175 50.3793C242.706 50.3793 242.297 50.4751 241.947 50.6669C241.598 50.8587 241.329 51.1293 241.142 51.4787C240.954 51.8281 240.861 52.2372 240.861 52.706H238.975C238.975 51.9091 239.158 51.2124 239.525 50.6158C239.891 50.0192 240.394 49.5568 241.033 49.2287C241.672 48.8963 242.399 48.7301 243.213 48.7301C244.035 48.7301 244.76 48.8942 245.386 49.2223C246.017 49.5462 246.509 49.9893 246.863 50.5518C247.216 51.1101 247.393 51.7408 247.393 52.4439C247.393 52.9297 247.302 53.4048 247.118 53.8693C246.939 54.3338 246.626 54.8516 246.179 55.4226C245.731 55.9893 245.109 56.6776 244.312 57.4872L241.711 60.2102V60.3061H247.604V62H238.988Z" fill="#424242"/>
<path d="M315.58 62V60.5682L320.009 55.9787C320.482 55.4801 320.872 55.0433 321.179 54.6683C321.49 54.2891 321.722 53.929 321.876 53.5881C322.029 53.2472 322.106 52.8849 322.106 52.5014C322.106 52.0668 322.004 51.6918 321.799 51.3764C321.594 51.0568 321.315 50.8118 320.962 50.6413C320.608 50.4666 320.21 50.3793 319.766 50.3793C319.298 50.3793 318.888 50.4751 318.539 50.6669C318.19 50.8587 317.921 51.1293 317.734 51.4787C317.546 51.8281 317.452 52.2372 317.452 52.706H315.567C315.567 51.9091 315.75 51.2124 316.116 50.6158C316.483 50.0192 316.986 49.5568 317.625 49.2287C318.264 48.8963 318.991 48.7301 319.805 48.7301C320.627 48.7301 321.352 48.8942 321.978 49.2223C322.609 49.5462 323.101 49.9893 323.455 50.5518C323.808 51.1101 323.985 51.7408 323.985 52.4439C323.985 52.9297 323.893 53.4048 323.71 53.8693C323.531 54.3338 323.218 54.8516 322.771 55.4226C322.323 55.9893 321.701 56.6776 320.904 57.4872L318.303 60.2102V60.3061H324.196V62H315.58ZM326.619 62V60.5682L331.048 55.9787C331.521 55.4801 331.911 55.0433 332.218 54.6683C332.529 54.2891 332.761 53.929 332.915 53.5881C333.068 53.2472 333.145 52.8849 333.145 52.5014C333.145 52.0668 333.043 51.6918 332.838 51.3764C332.634 51.0568 332.354 50.8118 332.001 50.6413C331.647 50.4666 331.249 50.3793 330.805 50.3793C330.337 50.3793 329.928 50.4751 329.578 50.6669C329.229 50.8587 328.96 51.1293 328.773 51.4787C328.585 51.8281 328.491 52.2372 328.491 52.706H326.606C326.606 51.9091 326.789 51.2124 327.156 50.6158C327.522 50.0192 328.025 49.5568 328.664 49.2287C329.303 48.8963 330.03 48.7301 330.844 48.7301C331.666 48.7301 332.391 48.8942 333.017 49.2223C333.648 49.5462 334.14 49.9893 334.494 50.5518C334.847 51.1101 335.024 51.7408 335.024 52.4439C335.024 52.9297 334.933 53.4048 334.749 53.8693C334.57 54.3338 334.257 54.8516 333.81 55.4226C333.362 55.9893 332.74 56.6776 331.943 57.4872L329.342 60.2102V60.3061H335.235V62H326.619ZM338.942 62.1214C338.593 62.1214 338.293 61.9979 338.041 61.7507C337.79 61.4993 337.664 61.1967 337.664 60.843C337.664 60.4936 337.79 60.1953 338.041 59.9482C338.293 59.6967 338.593 59.571 338.942 59.571C339.292 59.571 339.592 59.6967 339.844 59.9482C340.095 60.1953 340.221 60.4936 340.221 60.843C340.221 61.0774 340.161 61.2926 340.042 61.4886C339.927 61.6804 339.773 61.8338 339.582 61.9489C339.39 62.0639 339.177 62.1214 338.942 62.1214ZM346.838 62.2173C345.828 62.2131 344.965 61.9467 344.249 61.4183C343.534 60.8899 342.986 60.1207 342.607 59.1108C342.227 58.1009 342.038 56.8842 342.038 55.4609C342.038 54.0419 342.227 52.8295 342.607 51.8239C342.99 50.8182 343.54 50.0511 344.256 49.5227C344.976 48.9943 345.837 48.7301 346.838 48.7301C347.84 48.7301 348.698 48.9964 349.414 49.5291C350.13 50.0575 350.678 50.8246 351.057 51.8303C351.441 52.8317 351.632 54.0419 351.632 55.4609C351.632 56.8885 351.443 58.1072 351.063 59.1172C350.684 60.1229 350.137 60.892 349.421 61.4247C348.705 61.9531 347.844 62.2173 346.838 62.2173ZM346.838 60.5107C347.725 60.5107 348.417 60.0781 348.916 59.2131C349.419 58.348 349.67 57.0973 349.67 55.4609C349.67 54.3743 349.555 53.456 349.325 52.706C349.099 51.9517 348.773 51.3807 348.347 50.9929C347.925 50.6009 347.422 50.4048 346.838 50.4048C345.956 50.4048 345.264 50.8395 344.761 51.7088C344.258 52.5781 344.004 53.8288 344 55.4609C344 56.5518 344.113 57.4744 344.339 58.2287C344.569 58.9787 344.895 59.5476 345.317 59.9354C345.739 60.3189 346.246 60.5107 346.838 60.5107ZM353.9 62V60.5682L358.33 55.9787C358.803 55.4801 359.192 55.0433 359.499 54.6683C359.81 54.2891 360.043 53.929 360.196 53.5881C360.349 53.2472 360.426 52.8849 360.426 52.5014C360.426 52.0668 360.324 51.6918 360.119 51.3764C359.915 51.0568 359.636 50.8118 359.282 50.6413C358.928 50.4666 358.53 50.3793 358.087 50.3793C357.618 50.3793 357.209 50.4751 356.859 50.6669C356.51 50.8587 356.241 51.1293 356.054 51.4787C355.866 51.8281 355.773 52.2372 355.773 52.706H353.887C353.887 51.9091 354.07 51.2124 354.437 50.6158C354.803 50.0192 355.306 49.5568 355.945 49.2287C356.585 48.8963 357.311 48.7301 358.125 48.7301C358.947 48.7301 359.672 48.8942 360.298 49.2223C360.929 49.5462 361.421 49.9893 361.775 50.5518C362.129 51.1101 362.305 51.7408 362.305 52.4439C362.305 52.9297 362.214 53.4048 362.031 53.8693C361.852 54.3338 361.538 54.8516 361.091 55.4226C360.643 55.9893 360.021 56.6776 359.224 57.4872L356.623 60.2102V60.3061H362.516V62H353.9Z" fill="#424242"/>
<path d="M321.724 228.909V242H319.742V230.891H319.666L316.534 232.936V231.044L319.8 228.909H321.724ZM329.823 242.179C328.945 242.179 328.161 242.028 327.47 241.725C326.784 241.423 326.241 241.003 325.84 240.466C325.444 239.925 325.231 239.298 325.201 238.587H327.208C327.234 238.974 327.364 239.311 327.598 239.597C327.837 239.878 328.148 240.095 328.531 240.249C328.915 240.402 329.341 240.479 329.81 240.479C330.325 240.479 330.781 240.389 331.178 240.21C331.578 240.031 331.892 239.782 332.117 239.462C332.343 239.138 332.456 238.766 332.456 238.344C332.456 237.905 332.343 237.519 332.117 237.187C331.896 236.85 331.57 236.586 331.139 236.394C330.713 236.202 330.198 236.107 329.593 236.107H328.487V234.496H329.593C330.078 234.496 330.504 234.408 330.871 234.234C331.242 234.059 331.531 233.816 331.74 233.505C331.949 233.19 332.053 232.821 332.053 232.399C332.053 231.994 331.962 231.643 331.779 231.344C331.6 231.042 331.344 230.805 331.012 230.635C330.683 230.464 330.296 230.379 329.848 230.379C329.422 230.379 329.024 230.458 328.653 230.616C328.286 230.769 327.988 230.991 327.758 231.281C327.528 231.566 327.404 231.909 327.387 232.31H325.476C325.497 231.602 325.706 230.98 326.102 230.443C326.503 229.906 327.031 229.487 327.688 229.184C328.344 228.881 329.073 228.73 329.874 228.73C330.713 228.73 331.438 228.894 332.047 229.222C332.661 229.546 333.134 229.979 333.466 230.52C333.803 231.061 333.969 231.653 333.965 232.297C333.969 233.03 333.764 233.652 333.351 234.163C332.942 234.675 332.396 235.018 331.715 235.192V235.295C332.584 235.427 333.257 235.772 333.735 236.33C334.216 236.888 334.455 237.581 334.45 238.408C334.455 239.128 334.254 239.773 333.85 240.344C333.449 240.915 332.901 241.365 332.207 241.693C331.512 242.017 330.718 242.179 329.823 242.179ZM337.765 242.121C337.415 242.121 337.115 241.998 336.863 241.751C336.612 241.499 336.486 241.197 336.486 240.843C336.486 240.494 336.612 240.195 336.863 239.948C337.115 239.697 337.415 239.571 337.765 239.571C338.114 239.571 338.415 239.697 338.666 239.948C338.917 240.195 339.043 240.494 339.043 240.843C339.043 241.077 338.983 241.293 338.864 241.489C338.749 241.68 338.596 241.834 338.404 241.949C338.212 242.064 337.999 242.121 337.765 242.121ZM345.661 242.217C344.651 242.213 343.788 241.947 343.072 241.418C342.356 240.89 341.808 240.121 341.429 239.111C341.05 238.101 340.86 236.884 340.86 235.461C340.86 234.042 341.05 232.83 341.429 231.824C341.813 230.818 342.362 230.051 343.078 229.523C343.798 228.994 344.659 228.73 345.661 228.73C346.662 228.73 347.521 228.996 348.237 229.529C348.952 230.058 349.5 230.825 349.879 231.83C350.263 232.832 350.455 234.042 350.455 235.461C350.455 236.888 350.265 238.107 349.886 239.117C349.506 240.123 348.959 240.892 348.243 241.425C347.527 241.953 346.666 242.217 345.661 242.217ZM345.661 240.511C346.547 240.511 347.239 240.078 347.738 239.213C348.241 238.348 348.492 237.097 348.492 235.461C348.492 234.374 348.377 233.456 348.147 232.706C347.921 231.952 347.595 231.381 347.169 230.993C346.747 230.601 346.244 230.405 345.661 230.405C344.778 230.405 344.086 230.839 343.583 231.709C343.08 232.578 342.827 233.829 342.822 235.461C342.822 236.552 342.935 237.474 343.161 238.229C343.391 238.979 343.717 239.548 344.139 239.935C344.561 240.319 345.068 240.511 345.661 240.511ZM352.722 242V240.568L357.152 235.979C357.625 235.48 358.015 235.043 358.322 234.668C358.633 234.289 358.865 233.929 359.018 233.588C359.172 233.247 359.248 232.885 359.248 232.501C359.248 232.067 359.146 231.692 358.942 231.376C358.737 231.057 358.458 230.812 358.104 230.641C357.751 230.467 357.352 230.379 356.909 230.379C356.44 230.379 356.031 230.475 355.682 230.667C355.332 230.859 355.064 231.129 354.876 231.479C354.689 231.828 354.595 232.237 354.595 232.706H352.709C352.709 231.909 352.893 231.212 353.259 230.616C353.626 230.019 354.128 229.557 354.768 229.229C355.407 228.896 356.133 228.73 356.947 228.73C357.77 228.73 358.494 228.894 359.121 229.222C359.751 229.546 360.243 229.989 360.597 230.552C360.951 231.11 361.128 231.741 361.128 232.444C361.128 232.93 361.036 233.405 360.853 233.869C360.674 234.334 360.361 234.852 359.913 235.423C359.466 235.989 358.844 236.678 358.047 237.487L355.445 240.21V240.306H361.339V242H352.722Z" fill="#424242"/>
<text fill="#424242" style="font-family: Arial;" x="315" y="355">PAG1</text>
<path d="M437.189 228.909V242H435.207V230.891H435.131L431.998 232.936V231.044L435.265 228.909H437.189ZM440.455 239.443V237.845L446.112 228.909H447.371V231.261H446.572L442.526 237.666V237.768H450.28V239.443H440.455ZM446.662 242V238.957L446.675 238.229V228.909H448.547V242H446.662ZM453.3 242.121C452.95 242.121 452.65 241.998 452.399 241.751C452.147 241.499 452.021 241.197 452.021 240.843C452.021 240.494 452.147 240.195 452.399 239.948C452.65 239.697 452.95 239.571 453.3 239.571C453.649 239.571 453.95 239.697 454.201 239.948C454.453 240.195 454.578 240.494 454.578 240.843C454.578 241.077 454.519 241.293 454.399 241.489C454.284 241.68 454.131 241.834 453.939 241.949C453.747 242.064 453.534 242.121 453.3 242.121ZM461.196 242.217C460.186 242.213 459.323 241.947 458.607 241.418C457.891 240.89 457.343 240.121 456.964 239.111C456.585 238.101 456.395 236.884 456.395 235.461C456.395 234.042 456.585 232.83 456.964 231.824C457.348 230.818 457.897 230.051 458.613 229.523C459.333 228.994 460.194 228.73 461.196 228.73C462.197 228.73 463.056 228.996 463.772 229.529C464.488 230.058 465.035 230.825 465.414 231.83C465.798 232.832 465.99 234.042 465.99 235.461C465.99 236.888 465.8 238.107 465.421 239.117C465.042 240.123 464.494 240.892 463.778 241.425C463.062 241.953 462.201 242.217 461.196 242.217ZM461.196 240.511C462.082 240.511 462.775 240.078 463.273 239.213C463.776 238.348 464.027 237.097 464.027 235.461C464.027 234.374 463.912 233.456 463.682 232.706C463.456 231.952 463.13 231.381 462.704 230.993C462.282 230.601 461.779 230.405 461.196 230.405C460.314 230.405 459.621 230.839 459.118 231.709C458.615 232.578 458.362 233.829 458.358 235.461C458.358 236.552 458.471 237.474 458.696 238.229C458.926 238.979 459.252 239.548 459.674 239.935C460.096 240.319 460.603 240.511 461.196 240.511ZM468.257 242V240.568L472.687 235.979C473.16 235.48 473.55 235.043 473.857 234.668C474.168 234.289 474.4 233.929 474.553 233.588C474.707 233.247 474.784 232.885 474.784 232.501C474.784 232.067 474.681 231.692 474.477 231.376C474.272 231.057 473.993 230.812 473.639 230.641C473.286 230.467 472.887 230.379 472.444 230.379C471.975 230.379 471.566 230.475 471.217 230.667C470.867 230.859 470.599 231.129 470.411 231.479C470.224 231.828 470.13 232.237 470.13 232.706H468.244C468.244 231.909 468.428 231.212 468.794 230.616C469.161 230.019 469.664 229.557 470.303 229.229C470.942 228.896 471.669 228.73 472.482 228.73C473.305 228.73 474.029 228.894 474.656 229.222C475.286 229.546 475.779 229.989 476.132 230.552C476.486 231.11 476.663 231.741 476.663 232.444C476.663 232.93 476.571 233.405 476.388 233.869C476.209 234.334 475.896 234.852 475.448 235.423C475.001 235.989 474.379 236.678 473.582 237.487L470.98 240.21V240.306H476.874V242H468.257Z" fill="#424242"/>
<path d="M432.723 62V60.5682L437.153 55.9787C437.626 55.4801 438.016 55.0433 438.323 54.6683C438.634 54.2891 438.866 53.929 439.019 53.5881C439.173 53.2472 439.249 52.8849 439.249 52.5014C439.249 52.0668 439.147 51.6918 438.943 51.3764C438.738 51.0568 438.459 50.8118 438.105 50.6413C437.752 50.4666 437.353 50.3793 436.91 50.3793C436.441 50.3793 436.032 50.4751 435.683 50.6669C435.333 50.8587 435.065 51.1293 434.877 51.4787C434.69 51.8281 434.596 52.2372 434.596 52.706H432.71C432.71 51.9091 432.894 51.2124 433.26 50.6158C433.627 50.0192 434.129 49.5568 434.769 49.2287C435.408 48.8963 436.134 48.7301 436.948 48.7301C437.771 48.7301 438.495 48.8942 439.122 49.2223C439.752 49.5462 440.244 49.9893 440.598 50.5518C440.952 51.1101 441.129 51.7408 441.129 52.4439C441.129 52.9297 441.037 53.4048 440.854 53.8693C440.675 54.3338 440.362 54.8516 439.914 55.4226C439.467 55.9893 438.845 56.6776 438.048 57.4872L435.446 60.2102V60.3061H441.34V62H432.723ZM448.729 48.9091V62H446.747V50.8906H446.671L443.538 52.9361V51.044L446.805 48.9091H448.729ZM452.799 62.1214C452.449 62.1214 452.149 61.9979 451.898 61.7507C451.646 61.4993 451.521 61.1967 451.521 60.843C451.521 60.4936 451.646 60.1953 451.898 59.9482C452.149 59.6967 452.449 59.571 452.799 59.571C453.148 59.571 453.449 59.6967 453.7 59.9482C453.952 60.1953 454.077 60.4936 454.077 60.843C454.077 61.0774 454.018 61.2926 453.898 61.4886C453.783 61.6804 453.63 61.8338 453.438 61.9489C453.246 62.0639 453.033 62.1214 452.799 62.1214ZM460.695 62.2173C459.685 62.2131 458.822 61.9467 458.106 61.4183C457.39 60.8899 456.842 60.1207 456.463 59.1108C456.084 58.1009 455.894 56.8842 455.894 55.4609C455.894 54.0419 456.084 52.8295 456.463 51.8239C456.847 50.8182 457.396 50.0511 458.112 49.5227C458.832 48.9943 459.693 48.7301 460.695 48.7301C461.696 48.7301 462.555 48.9964 463.271 49.5291C463.987 50.0575 464.534 50.8246 464.913 51.8303C465.297 52.8317 465.489 54.0419 465.489 55.4609C465.489 56.8885 465.299 58.1072 464.92 59.1172C464.541 60.1229 463.993 60.892 463.277 61.4247C462.561 61.9531 461.7 62.2173 460.695 62.2173ZM460.695 60.5107C461.581 60.5107 462.274 60.0781 462.772 59.2131C463.275 58.348 463.526 57.0973 463.526 55.4609C463.526 54.3743 463.411 53.456 463.181 52.706C462.955 51.9517 462.629 51.3807 462.203 50.9929C461.781 50.6009 461.278 50.4048 460.695 50.4048C459.813 50.4048 459.12 50.8395 458.617 51.7088C458.114 52.5781 457.861 53.8288 457.857 55.4609C457.857 56.5518 457.97 57.4744 458.195 58.2287C458.426 58.9787 458.752 59.5476 459.173 59.9354C459.595 60.3189 460.102 60.5107 460.695 60.5107ZM467.756 62V60.5682L472.186 55.9787C472.659 55.4801 473.049 55.0433 473.356 54.6683C473.667 54.2891 473.899 53.929 474.052 53.5881C474.206 53.2472 474.283 52.8849 474.283 52.5014C474.283 52.0668 474.18 51.6918 473.976 51.3764C473.771 51.0568 473.492 50.8118 473.138 50.6413C472.785 50.4666 472.386 50.3793 471.943 50.3793C471.474 50.3793 471.065 50.4751 470.716 50.6669C470.366 50.8587 470.098 51.1293 469.91 51.4787C469.723 51.8281 469.629 52.2372 469.629 52.706H467.744C467.744 51.9091 467.927 51.2124 468.293 50.6158C468.66 50.0192 469.163 49.5568 469.802 49.2287C470.441 48.8963 471.168 48.7301 471.981 48.7301C472.804 48.7301 473.528 48.8942 474.155 49.2223C474.785 49.5462 475.278 49.9893 475.631 50.5518C475.985 51.1101 476.162 51.7408 476.162 52.4439C476.162 52.9297 476.07 53.4048 475.887 53.8693C475.708 54.3338 475.395 54.8516 474.947 55.4226C474.5 55.9893 473.878 56.6776 473.081 57.4872L470.479 60.2102V60.3061H476.373V62H467.756Z" fill="#424242"/>
<path d="M53 47L165 227V243L53 63V47Z" fill="#CDCDCD" id="c2a1"/>
<path d="M168 227L238 342V358L168 243V227Z" fill="#CDCDCD" id="c2a2"/>
<rect x="283" y="76" width="112" height="3" fill="black"/>
<rect x="283" y="211" width="112" height="3" fill="black"/>
<path d="M323.543 143C323.509 142.574 323.349 142.241 323.064 142.003C322.782 141.764 322.354 141.645 321.779 141.645C321.412 141.645 321.112 141.69 320.878 141.779C320.648 141.864 320.477 141.982 320.366 142.131C320.256 142.28 320.198 142.45 320.194 142.642C320.185 142.8 320.213 142.942 320.277 143.07C320.345 143.194 320.452 143.307 320.596 143.409C320.741 143.507 320.927 143.597 321.153 143.678C321.378 143.759 321.647 143.831 321.958 143.895L323.032 144.125C323.756 144.278 324.376 144.481 324.892 144.732C325.407 144.984 325.829 145.28 326.157 145.621C326.486 145.957 326.726 146.337 326.88 146.759C327.037 147.18 327.118 147.641 327.123 148.139C327.118 149 326.903 149.729 326.477 150.325C326.051 150.922 325.442 151.376 324.649 151.687C323.861 151.998 322.912 152.153 321.805 152.153C320.667 152.153 319.674 151.985 318.826 151.648C317.982 151.312 317.326 150.794 316.857 150.095C316.393 149.392 316.158 148.493 316.154 147.398H319.529C319.55 147.798 319.65 148.135 319.829 148.408C320.008 148.68 320.26 148.887 320.584 149.028C320.912 149.168 321.302 149.239 321.753 149.239C322.133 149.239 322.45 149.192 322.706 149.098C322.961 149.004 323.155 148.874 323.287 148.708C323.42 148.542 323.488 148.352 323.492 148.139C323.488 147.939 323.422 147.764 323.294 147.615C323.17 147.462 322.966 147.325 322.68 147.206C322.395 147.082 322.009 146.967 321.523 146.861L320.219 146.58C319.06 146.328 318.146 145.908 317.477 145.32C316.812 144.728 316.482 143.92 316.486 142.898C316.482 142.067 316.704 141.34 317.151 140.718C317.603 140.092 318.227 139.604 319.024 139.254C319.825 138.905 320.743 138.73 321.779 138.73C322.836 138.73 323.75 138.907 324.521 139.261C325.292 139.614 325.887 140.113 326.305 140.756C326.726 141.396 326.939 142.143 326.944 143H323.543ZM328.117 141.773V138.909H339.494V141.773H335.557V152H332.054V141.773H328.117ZM347.326 144.125V146.784H341.19V144.125H347.326ZM362.057 145.455C362.057 146.912 361.773 148.141 361.207 149.143C360.64 150.14 359.875 150.896 358.912 151.412C357.949 151.923 356.875 152.179 355.69 152.179C354.497 152.179 353.419 151.921 352.456 151.406C351.497 150.886 350.734 150.127 350.168 149.13C349.605 148.129 349.324 146.903 349.324 145.455C349.324 143.997 349.605 142.77 350.168 141.773C350.734 140.771 351.497 140.015 352.456 139.504C353.419 138.988 354.497 138.73 355.69 138.73C356.875 138.73 357.949 138.988 358.912 139.504C359.875 140.015 360.64 140.771 361.207 141.773C361.773 142.77 362.057 143.997 362.057 145.455ZM358.401 145.455C358.401 144.67 358.296 144.01 358.087 143.473C357.883 142.932 357.578 142.523 357.173 142.246C356.773 141.964 356.278 141.824 355.69 141.824C355.102 141.824 354.606 141.964 354.201 142.246C353.8 142.523 353.496 142.932 353.287 143.473C353.082 144.01 352.98 144.67 352.98 145.455C352.98 146.239 353.082 146.901 353.287 147.442C353.496 147.979 353.8 148.388 354.201 148.67C354.606 148.947 355.102 149.085 355.69 149.085C356.278 149.085 356.773 148.947 357.173 148.67C357.578 148.388 357.883 147.979 358.087 147.442C358.296 146.901 358.401 146.239 358.401 145.455Z" fill="black"/>
<path d="M120 177.5L109 159.5L98 177.5H120Z" fill="#B1B1B1" id="c2a1up"/>
<path d="M235 357.5L224 339.5L213 357.5H235Z" fill="#B1B1B1" id="c2a2up"/>
<path d="M120 114.5L109 132.5L98 114.5H120Z" fill="#B1B1B1" id="c2a1dw"/>
<path d="M235 294.5L224 312.5L213 294.5H235Z" fill="#B1B1B1" id="c2a2dw"/>
</svg>
