<svg width="342" height="210" viewBox="0 0 342 210" fill="none" xmlns="http://www.w3.org/2000/svg">
<rect x="115" width="112" height="30" fill="#CDCDCD"/>
<rect x="230" width="112" height="30" fill="#CDCDCD"/>
<rect x="115" y="180" width="112" height="30" fill="#CDCDCD"/>
<rect x="230" y="180" width="112" height="30" fill="#CDCDCD"/>
<path d="M0 7H112V23H0V7Z" fill="#148FB6"/>
<path d="M0 187H112V203H0V187Z" fill="#148FB6"/>
<rect x="30" width="52" height="30" fill="#CDCDCD"/>
<rect x="30" y="180" width="52" height="30" fill="#CDCDCD"/>
<path d="M147.21 22V20.5682L151.64 15.9787C152.113 15.4801 152.503 15.0433 152.81 14.6683C153.121 14.2891 153.353 13.929 153.507 13.5881C153.66 13.2472 153.737 12.8849 153.737 12.5014C153.737 12.0668 153.634 11.6918 153.43 11.3764C153.225 11.0568 152.946 10.8118 152.593 10.6413C152.239 10.4666 151.84 10.3793 151.397 10.3793C150.928 10.3793 150.519 10.4751 150.17 10.6669C149.82 10.8587 149.552 11.1293 149.365 11.4787C149.177 11.8281 149.083 12.2372 149.083 12.706H147.198C147.198 11.9091 147.381 11.2124 147.747 10.6158C148.114 10.0192 148.617 9.55682 149.256 9.22869C149.895 8.89631 150.622 8.73011 151.436 8.73011C152.258 8.73011 152.982 8.89418 153.609 9.2223C154.24 9.54616 154.732 9.98935 155.085 10.5518C155.439 11.1101 155.616 11.7408 155.616 12.4439C155.616 12.9297 155.524 13.4048 155.341 13.8693C155.162 14.3338 154.849 14.8516 154.401 15.4226C153.954 15.9893 153.332 16.6776 152.535 17.4872L149.933 20.2102V20.3061H155.827V22H147.21ZM158.249 22V20.5682L162.679 15.9787C163.152 15.4801 163.542 15.0433 163.849 14.6683C164.16 14.2891 164.392 13.929 164.546 13.5881C164.699 13.2472 164.776 12.8849 164.776 12.5014C164.776 12.0668 164.673 11.6918 164.469 11.3764C164.264 11.0568 163.985 10.8118 163.632 10.6413C163.278 10.4666 162.879 10.3793 162.436 10.3793C161.968 10.3793 161.558 10.4751 161.209 10.6669C160.86 10.8587 160.591 11.1293 160.404 11.4787C160.216 11.8281 160.122 12.2372 160.122 12.706H158.237C158.237 11.9091 158.42 11.2124 158.786 10.6158C159.153 10.0192 159.656 9.55682 160.295 9.22869C160.934 8.89631 161.661 8.73011 162.475 8.73011C163.297 8.73011 164.021 8.89418 164.648 9.2223C165.279 9.54616 165.771 9.98935 166.124 10.5518C166.478 11.1101 166.655 11.7408 166.655 12.4439C166.655 12.9297 166.563 13.4048 166.38 13.8693C166.201 14.3338 165.888 14.8516 165.441 15.4226C164.993 15.9893 164.371 16.6776 163.574 17.4872L160.972 20.2102V20.3061H166.866V22H158.249ZM170.573 22.1214C170.224 22.1214 169.923 21.9979 169.672 21.7507C169.421 21.4993 169.295 21.1967 169.295 20.843C169.295 20.4936 169.421 20.1953 169.672 19.9482C169.923 19.6967 170.224 19.571 170.573 19.571C170.923 19.571 171.223 19.6967 171.475 19.9482C171.726 20.1953 171.852 20.4936 171.852 20.843C171.852 21.0774 171.792 21.2926 171.673 21.4886C171.558 21.6804 171.404 21.8338 171.213 21.9489C171.021 22.0639 170.808 22.1214 170.573 22.1214ZM178.469 22.2173C177.459 22.2131 176.596 21.9467 175.88 21.4183C175.164 20.8899 174.617 20.1207 174.238 19.1108C173.858 18.1009 173.669 16.8842 173.669 15.4609C173.669 14.0419 173.858 12.8295 174.238 11.8239C174.621 10.8182 175.171 10.0511 175.887 9.52273C176.607 8.99432 177.468 8.73011 178.469 8.73011C179.471 8.73011 180.329 8.99645 181.045 9.52912C181.761 10.0575 182.309 10.8246 182.688 11.8303C183.071 12.8317 183.263 14.0419 183.263 15.4609C183.263 16.8885 183.074 18.1072 182.694 19.1172C182.315 20.1229 181.767 20.892 181.051 21.4247C180.336 21.9531 179.475 22.2173 178.469 22.2173ZM178.469 20.5107C179.355 20.5107 180.048 20.0781 180.547 19.2131C181.049 18.348 181.301 17.0973 181.301 15.4609C181.301 14.3743 181.186 13.456 180.956 12.706C180.73 11.9517 180.404 11.3807 179.978 10.9929C179.556 10.6009 179.053 10.4048 178.469 10.4048C177.587 10.4048 176.895 10.8395 176.392 11.7088C175.889 12.5781 175.635 13.8288 175.631 15.4609C175.631 16.5518 175.744 17.4744 175.97 18.2287C176.2 18.9787 176.526 19.5476 176.948 19.9354C177.37 20.3189 177.877 20.5107 178.469 20.5107ZM185.256 19.4432V17.8452L190.913 8.90909H192.172V11.2614H191.373L187.327 17.6662V17.7685H195.08V19.4432H185.256ZM191.463 22V18.9574L191.475 18.2287V8.90909H193.348V22H191.463Z" fill="#424242"/>
<path d="M263.854 22V20.5682L268.284 15.9787C268.757 15.4801 269.147 15.0433 269.453 14.6683C269.764 14.2891 269.997 13.929 270.15 13.5881C270.304 13.2472 270.38 12.8849 270.38 12.5014C270.38 12.0668 270.278 11.6918 270.073 11.3764C269.869 11.0568 269.59 10.8118 269.236 10.6413C268.882 10.4666 268.484 10.3793 268.041 10.3793C267.572 10.3793 267.163 10.4751 266.813 10.6669C266.464 10.8587 266.196 11.1293 266.008 11.4787C265.821 11.8281 265.727 12.2372 265.727 12.706H263.841C263.841 11.9091 264.024 11.2124 264.391 10.6158C264.757 10.0192 265.26 9.55682 265.899 9.22869C266.539 8.89631 267.265 8.73011 268.079 8.73011C268.902 8.73011 269.626 8.89418 270.252 9.2223C270.883 9.54616 271.375 9.98935 271.729 10.5518C272.083 11.1101 272.259 11.7408 272.259 12.4439C272.259 12.9297 272.168 13.4048 271.985 13.8693C271.806 14.3338 271.492 14.8516 271.045 15.4226C270.598 15.9893 269.975 16.6776 269.179 17.4872L266.577 20.2102V20.3061H272.47V22H263.854ZM279.86 8.90909V22H277.878V10.8906H277.801L274.669 12.9361V11.044L277.936 8.90909H279.86ZM283.93 22.1214C283.58 22.1214 283.28 21.9979 283.028 21.7507C282.777 21.4993 282.651 21.1967 282.651 20.843C282.651 20.4936 282.777 20.1953 283.028 19.9482C283.28 19.6967 283.58 19.571 283.93 19.571C284.279 19.571 284.58 19.6967 284.831 19.9482C285.082 20.1953 285.208 20.4936 285.208 20.843C285.208 21.0774 285.149 21.2926 285.029 21.4886C284.914 21.6804 284.761 21.8338 284.569 21.9489C284.377 22.0639 284.164 22.1214 283.93 22.1214ZM291.826 22.2173C290.816 22.2131 289.953 21.9467 289.237 21.4183C288.521 20.8899 287.973 20.1207 287.594 19.1108C287.215 18.1009 287.025 16.8842 287.025 15.4609C287.025 14.0419 287.215 12.8295 287.594 11.8239C287.978 10.8182 288.527 10.0511 289.243 9.52273C289.963 8.99432 290.824 8.73011 291.826 8.73011C292.827 8.73011 293.686 8.99645 294.402 9.52912C295.117 10.0575 295.665 10.8246 296.044 11.8303C296.428 12.8317 296.62 14.0419 296.62 15.4609C296.62 16.8885 296.43 18.1072 296.051 19.1172C295.671 20.1229 295.124 20.892 294.408 21.4247C293.692 21.9531 292.831 22.2173 291.826 22.2173ZM291.826 20.5107C292.712 20.5107 293.404 20.0781 293.903 19.2131C294.406 18.348 294.657 17.0973 294.657 15.4609C294.657 14.3743 294.542 13.456 294.312 12.706C294.086 11.9517 293.76 11.3807 293.334 10.9929C292.912 10.6009 292.409 10.4048 291.826 10.4048C290.943 10.4048 290.251 10.8395 289.748 11.7088C289.245 12.5781 288.992 13.8288 288.987 15.4609C288.987 16.5518 289.1 17.4744 289.326 18.2287C289.556 18.9787 289.882 19.5476 290.304 19.9354C290.726 20.3189 291.233 20.5107 291.826 20.5107ZM298.612 19.4432V17.8452L304.269 8.90909H305.528V11.2614H304.729L300.683 17.6662V17.7685H308.437V19.4432H298.612ZM304.819 22V18.9574L304.832 18.2287V8.90909H306.705V22H304.819Z" fill="#424242"/>
<path d="M153.443 188.909V202H151.461V190.891H151.384L148.252 192.936V191.044L151.519 188.909H153.443ZM156.984 202V200.568L161.414 195.979C161.887 195.48 162.276 195.043 162.583 194.668C162.894 194.289 163.127 193.929 163.28 193.588C163.433 193.247 163.51 192.885 163.51 192.501C163.51 192.067 163.408 191.692 163.203 191.376C162.999 191.057 162.72 190.812 162.366 190.641C162.012 190.467 161.614 190.379 161.171 190.379C160.702 190.379 160.293 190.475 159.943 190.667C159.594 190.859 159.325 191.129 159.138 191.479C158.95 191.828 158.857 192.237 158.857 192.706H156.971C156.971 191.909 157.154 191.212 157.521 190.616C157.887 190.019 158.39 189.557 159.029 189.229C159.669 188.896 160.395 188.73 161.209 188.73C162.031 188.73 162.756 188.894 163.382 189.222C164.013 189.546 164.505 189.989 164.859 190.552C165.213 191.11 165.389 191.741 165.389 192.444C165.389 192.93 165.298 193.405 165.115 193.869C164.936 194.334 164.622 194.852 164.175 195.423C163.727 195.989 163.105 196.678 162.308 197.487L159.707 200.21V200.306H165.6V202H156.984ZM169.308 202.121C168.958 202.121 168.658 201.998 168.406 201.751C168.155 201.499 168.029 201.197 168.029 200.843C168.029 200.494 168.155 200.195 168.406 199.948C168.658 199.697 168.958 199.571 169.308 199.571C169.657 199.571 169.958 199.697 170.209 199.948C170.46 200.195 170.586 200.494 170.586 200.843C170.586 201.077 170.526 201.293 170.407 201.489C170.292 201.68 170.139 201.834 169.947 201.949C169.755 202.064 169.542 202.121 169.308 202.121ZM177.203 202.217C176.194 202.213 175.331 201.947 174.615 201.418C173.899 200.89 173.351 200.121 172.972 199.111C172.593 198.101 172.403 196.884 172.403 195.461C172.403 194.042 172.593 192.83 172.972 191.824C173.355 190.818 173.905 190.051 174.621 189.523C175.341 188.994 176.202 188.73 177.203 188.73C178.205 188.73 179.064 188.996 179.779 189.529C180.495 190.058 181.043 190.825 181.422 191.83C181.806 192.832 181.998 194.042 181.998 195.461C181.998 196.888 181.808 198.107 181.429 199.117C181.049 200.123 180.502 200.892 179.786 201.425C179.07 201.953 178.209 202.217 177.203 202.217ZM177.203 200.511C178.09 200.511 178.782 200.078 179.281 199.213C179.784 198.348 180.035 197.097 180.035 195.461C180.035 194.374 179.92 193.456 179.69 192.706C179.464 191.952 179.138 191.381 178.712 190.993C178.29 190.601 177.787 190.405 177.203 190.405C176.321 190.405 175.629 190.839 175.126 191.709C174.623 192.578 174.37 193.829 174.365 195.461C174.365 196.552 174.478 197.474 174.704 198.229C174.934 198.979 175.26 199.548 175.682 199.935C176.104 200.319 176.611 200.511 177.203 200.511ZM183.99 199.443V197.845L189.647 188.909H190.906V191.261H190.107L186.061 197.666V197.768H193.815V199.443H183.99ZM190.197 202V198.957L190.21 198.229V188.909H192.083V202H190.197Z" fill="#424242"/>
<path d="M268.355 188.909V202H266.373V190.891H266.297L263.164 192.936V191.044L266.431 188.909H268.355ZM276.453 202.179C275.576 202.179 274.792 202.028 274.101 201.725C273.415 201.423 272.872 201.003 272.471 200.466C272.075 199.925 271.862 199.298 271.832 198.587H273.839C273.865 198.974 273.995 199.311 274.229 199.597C274.468 199.878 274.779 200.095 275.162 200.249C275.546 200.402 275.972 200.479 276.441 200.479C276.956 200.479 277.412 200.389 277.809 200.21C278.209 200.031 278.522 199.782 278.748 199.462C278.974 199.138 279.087 198.766 279.087 198.344C279.087 197.905 278.974 197.519 278.748 197.187C278.527 196.85 278.201 196.586 277.77 196.394C277.344 196.202 276.828 196.107 276.223 196.107H275.118V194.496H276.223C276.709 194.496 277.135 194.408 277.502 194.234C277.873 194.059 278.162 193.816 278.371 193.505C278.58 193.19 278.684 192.821 278.684 192.399C278.684 191.994 278.593 191.643 278.409 191.344C278.23 191.042 277.975 190.805 277.642 190.635C277.314 190.464 276.926 190.379 276.479 190.379C276.053 190.379 275.654 190.458 275.284 190.616C274.917 190.769 274.619 190.991 274.389 191.281C274.159 191.566 274.035 191.909 274.018 192.31H272.107C272.128 191.602 272.337 190.98 272.733 190.443C273.134 189.906 273.662 189.487 274.319 189.184C274.975 188.881 275.703 188.73 276.505 188.73C277.344 188.73 278.069 188.894 278.678 189.222C279.292 189.546 279.765 189.979 280.097 190.52C280.434 191.061 280.6 191.653 280.596 192.297C280.6 193.03 280.395 193.652 279.982 194.163C279.573 194.675 279.027 195.018 278.346 195.192V195.295C279.215 195.427 279.888 195.772 280.365 196.33C280.847 196.888 281.086 197.581 281.081 198.408C281.086 199.128 280.885 199.773 280.48 200.344C280.08 200.915 279.532 201.365 278.838 201.693C278.143 202.017 277.348 202.179 276.453 202.179ZM284.396 202.121C284.046 202.121 283.746 201.998 283.494 201.751C283.243 201.499 283.117 201.197 283.117 200.843C283.117 200.494 283.243 200.195 283.494 199.948C283.746 199.697 284.046 199.571 284.396 199.571C284.745 199.571 285.045 199.697 285.297 199.948C285.548 200.195 285.674 200.494 285.674 200.843C285.674 201.077 285.614 201.293 285.495 201.489C285.38 201.68 285.227 201.834 285.035 201.949C284.843 202.064 284.63 202.121 284.396 202.121ZM292.291 202.217C291.281 202.213 290.419 201.947 289.703 201.418C288.987 200.89 288.439 200.121 288.06 199.111C287.681 198.101 287.491 196.884 287.491 195.461C287.491 194.042 287.681 192.83 288.06 191.824C288.443 190.818 288.993 190.051 289.709 189.523C290.429 188.994 291.29 188.73 292.291 188.73C293.293 188.73 294.151 188.996 294.867 189.529C295.583 190.058 296.131 190.825 296.51 191.83C296.894 192.832 297.085 194.042 297.085 195.461C297.085 196.888 296.896 198.107 296.517 199.117C296.137 200.123 295.59 200.892 294.874 201.425C294.158 201.953 293.297 202.217 292.291 202.217ZM292.291 200.511C293.178 200.511 293.87 200.078 294.369 199.213C294.872 198.348 295.123 197.097 295.123 195.461C295.123 194.374 295.008 193.456 294.778 192.706C294.552 191.952 294.226 191.381 293.8 190.993C293.378 190.601 292.875 190.405 292.291 190.405C291.409 190.405 290.717 190.839 290.214 191.709C289.711 192.578 289.458 193.829 289.453 195.461C289.453 196.552 289.566 197.474 289.792 198.229C290.022 198.979 290.348 199.548 290.77 199.935C291.192 200.319 291.699 200.511 292.291 200.511ZM299.078 199.443V197.845L304.735 188.909H305.994V191.261H305.195L301.149 197.666V197.768H308.903V199.443H299.078ZM305.285 202V198.957L305.298 198.229V188.909H307.17V202H305.285Z" fill="#424242"/>
<path d="M32.1225 22V20.5682L36.5522 15.9787C37.0252 15.4801 37.4151 15.0433 37.7219 14.6683C38.033 14.2891 38.2653 13.929 38.4187 13.5881C38.5721 13.2472 38.6488 12.8849 38.6488 12.5014C38.6488 12.0668 38.5465 11.6918 38.342 11.3764C38.1374 11.0568 37.8583 10.8118 37.5046 10.6413C37.1509 10.4666 36.7525 10.3793 36.3093 10.3793C35.8406 10.3793 35.4315 10.4751 35.082 10.6669C34.7326 10.8587 34.4641 11.1293 34.2766 11.4787C34.0891 11.8281 33.9954 12.2372 33.9954 12.706H32.1097C32.1097 11.9091 32.293 11.2124 32.6594 10.6158C33.0259 10.0192 33.5288 9.55682 34.168 9.22869C34.8072 8.89631 35.5337 8.73011 36.3477 8.73011C37.1701 8.73011 37.8945 8.89418 38.521 9.2223C39.1516 9.54616 39.6438 9.98935 39.9975 10.5518C40.3512 11.1101 40.5281 11.7408 40.5281 12.4439C40.5281 12.9297 40.4364 13.4048 40.2532 13.8693C40.0742 14.3338 39.761 14.8516 39.3136 15.4226C38.8661 15.9893 38.244 16.6776 37.4471 17.4872L34.8455 20.2102V20.3061H40.739V22H32.1225ZM47.7191 22.179C46.8413 22.179 46.0572 22.0277 45.3668 21.7251C44.6808 21.4226 44.1374 21.0028 43.7369 20.4659C43.3406 19.9247 43.1275 19.2983 43.0977 18.5866H45.1048C45.1303 18.9744 45.2603 19.3111 45.4947 19.5966C45.7333 19.8778 46.0444 20.0952 46.4279 20.2486C46.8114 20.402 47.2376 20.4787 47.7063 20.4787C48.2219 20.4787 48.6779 20.3892 49.0742 20.2102C49.4748 20.0312 49.788 19.782 50.0138 19.4624C50.2397 19.1385 50.3526 18.7656 50.3526 18.3438C50.3526 17.9048 50.2397 17.5192 50.0138 17.1868C49.7923 16.8501 49.4663 16.5859 49.0359 16.3942C48.6097 16.2024 48.0941 16.1065 47.489 16.1065H46.3832V14.4957H47.489C47.9748 14.4957 48.4009 14.4084 48.7674 14.2337C49.1381 14.0589 49.4279 13.8161 49.6367 13.505C49.8455 13.1896 49.9499 12.821 49.9499 12.3991C49.9499 11.9943 49.8583 11.6428 49.6751 11.3445C49.4961 11.0419 49.2404 10.8054 48.908 10.6349C48.5799 10.4645 48.1921 10.3793 47.7447 10.3793C47.3185 10.3793 46.9201 10.4581 46.5494 10.6158C46.1829 10.7692 45.8846 10.9908 45.6545 11.2805C45.4244 11.5661 45.3008 11.9091 45.2837 12.3097H43.3725C43.3938 11.6023 43.6026 10.9801 43.9989 10.4432C44.3995 9.90625 44.9279 9.48651 45.5842 9.18395C46.2404 8.88139 46.9691 8.73011 47.7702 8.73011C48.6097 8.73011 49.3342 8.89418 49.9435 9.2223C50.5572 9.54616 51.0302 9.97869 51.3626 10.5199C51.6992 11.0611 51.8654 11.6534 51.8612 12.2969C51.8654 13.0298 51.6609 13.652 51.2475 14.1634C50.8384 14.6747 50.293 15.0178 49.6112 15.1925V15.2947C50.4805 15.4268 51.1538 15.772 51.631 16.3303C52.1126 16.8885 52.3512 17.581 52.3469 18.4077C52.3512 19.1278 52.1509 19.7734 51.7461 20.3445C51.3455 20.9155 50.7979 21.3651 50.1033 21.6932C49.4087 22.017 48.614 22.179 47.7191 22.179ZM55.6612 22.1214C55.3118 22.1214 55.0114 21.9979 54.7599 21.7507C54.5085 21.4993 54.3828 21.1967 54.3828 20.843C54.3828 20.4936 54.5085 20.1953 54.7599 19.9482C55.0114 19.6967 55.3118 19.571 55.6612 19.571C56.0107 19.571 56.3111 19.6967 56.5625 19.9482C56.8139 20.1953 56.9396 20.4936 56.9396 20.843C56.9396 21.0774 56.88 21.2926 56.7607 21.4886C56.6456 21.6804 56.4922 21.8338 56.3004 21.9489C56.1087 22.0639 55.8956 22.1214 55.6612 22.1214ZM63.557 22.2173C62.5471 22.2131 61.6841 21.9467 60.9682 21.4183C60.2523 20.8899 59.7047 20.1207 59.3255 19.1108C58.9462 18.1009 58.7566 16.8842 58.7566 15.4609C58.7566 14.0419 58.9462 12.8295 59.3255 11.8239C59.709 10.8182 60.2587 10.0511 60.9746 9.52273C61.6948 8.99432 62.5556 8.73011 63.557 8.73011C64.5584 8.73011 65.4171 8.99645 66.133 9.52912C66.8489 10.0575 67.3965 10.8246 67.7757 11.8303C68.1593 12.8317 68.351 14.0419 68.351 15.4609C68.351 16.8885 68.1614 18.1072 67.7821 19.1172C67.4029 20.1229 66.8553 20.892 66.1394 21.4247C65.4235 21.9531 64.5627 22.2173 63.557 22.2173ZM63.557 20.5107C64.4434 20.5107 65.1358 20.0781 65.6344 19.2131C66.1373 18.348 66.3887 17.0973 66.3887 15.4609C66.3887 14.3743 66.2736 13.456 66.0435 12.706C65.8176 11.9517 65.4917 11.3807 65.0655 10.9929C64.6436 10.6009 64.1408 10.4048 63.557 10.4048C62.6749 10.4048 61.9824 10.8395 61.4796 11.7088C60.9767 12.5781 60.7232 13.8288 60.7189 15.4609C60.7189 16.5518 60.8319 17.4744 61.0577 18.2287C61.2878 18.9787 61.6138 19.5476 62.0357 19.9354C62.4576 20.3189 62.9647 20.5107 63.557 20.5107ZM70.3438 19.4432V17.8452L76.0007 8.90909H77.2599V11.2614H76.4609L72.4148 17.6662V17.7685H80.1683V19.4432H70.3438ZM76.5504 22V18.9574L76.5632 18.2287V8.90909H78.4361V22H76.5504Z" fill="#424242"/>
<path d="M40.0862 188.909V202H38.1047V190.891H38.028L34.8959 192.936V191.044L38.1622 188.909H40.0862ZM48.594 188.909V202H46.6125V190.891H46.5358L43.4037 192.936V191.044L46.67 188.909H48.594ZM52.6642 202.121C52.3147 202.121 52.0143 201.998 51.7629 201.751C51.5115 201.499 51.3857 201.197 51.3857 200.843C51.3857 200.494 51.5115 200.195 51.7629 199.948C52.0143 199.697 52.3147 199.571 52.6642 199.571C53.0136 199.571 53.314 199.697 53.5654 199.948C53.8169 200.195 53.9426 200.494 53.9426 200.843C53.9426 201.077 53.8829 201.293 53.7636 201.489C53.6485 201.68 53.4951 201.834 53.3034 201.949C53.1116 202.064 52.8985 202.121 52.6642 202.121ZM60.5599 202.217C59.55 202.213 58.6871 201.947 57.9711 201.418C57.2552 200.89 56.7077 200.121 56.3284 199.111C55.9491 198.101 55.7595 196.884 55.7595 195.461C55.7595 194.042 55.9491 192.83 56.3284 191.824C56.7119 190.818 57.2616 190.051 57.9775 189.523C58.6977 188.994 59.5585 188.73 60.5599 188.73C61.5613 188.73 62.42 188.996 63.1359 189.529C63.8518 190.058 64.3994 190.825 64.7787 191.83C65.1622 192.832 65.354 194.042 65.354 195.461C65.354 196.888 65.1643 198.107 64.7851 199.117C64.4058 200.123 63.8582 200.892 63.1423 201.425C62.4264 201.953 61.5656 202.217 60.5599 202.217ZM60.5599 200.511C61.4463 200.511 62.1388 200.078 62.6373 199.213C63.1402 198.348 63.3916 197.097 63.3916 195.461C63.3916 194.374 63.2765 193.456 63.0464 192.706C62.8206 191.952 62.4946 191.381 62.0684 190.993C61.6466 190.601 61.1437 190.405 60.5599 190.405C59.6778 190.405 58.9854 190.839 58.4825 191.709C57.9797 192.578 57.7261 193.829 57.7219 195.461C57.7219 196.552 57.8348 197.474 58.0606 198.229C58.2907 198.979 58.6167 199.548 59.0386 199.935C59.4605 200.319 59.9676 200.511 60.5599 200.511ZM67.3467 199.443V197.845L73.0036 188.909H74.2629V191.261H73.4639L69.4177 197.666V197.768H77.1713V199.443H67.3467ZM73.5534 202V198.957L73.5661 198.229V188.909H75.439V202H73.5534Z" fill="#424242"/>
<path d="M0 7L112 187V203L0 23V7Z" fill="#CDCDCD"/>
<rect x="115" y="36" width="112" height="3" fill="black"/>
<rect x="115" y="171" width="112" height="3" fill="black"/>
<path d="M150.402 103C150.367 102.574 150.208 102.241 149.922 102.003C149.641 101.764 149.213 101.645 148.637 101.645C148.271 101.645 147.97 101.69 147.736 101.779C147.506 101.864 147.335 101.982 147.225 102.131C147.114 102.28 147.056 102.45 147.052 102.642C147.044 102.8 147.071 102.942 147.135 103.07C147.203 103.194 147.31 103.307 147.455 103.409C147.6 103.507 147.785 103.597 148.011 103.678C148.237 103.759 148.505 103.831 148.816 103.895L149.89 104.125C150.615 104.278 151.235 104.481 151.75 104.732C152.266 104.984 152.688 105.28 153.016 105.621C153.344 105.957 153.585 106.337 153.738 106.759C153.896 107.18 153.977 107.641 153.981 108.139C153.977 109 153.762 109.729 153.335 110.325C152.909 110.922 152.3 111.376 151.507 111.687C150.719 111.998 149.771 112.153 148.663 112.153C147.525 112.153 146.532 111.985 145.684 111.648C144.84 111.312 144.184 110.794 143.715 110.095C143.251 109.392 143.017 108.493 143.012 107.398H146.387C146.409 107.798 146.509 108.135 146.688 108.408C146.867 108.68 147.118 108.887 147.442 109.028C147.77 109.168 148.16 109.239 148.612 109.239C148.991 109.239 149.309 109.192 149.564 109.098C149.82 109.004 150.014 108.874 150.146 108.708C150.278 108.542 150.346 108.352 150.35 108.139C150.346 107.939 150.28 107.764 150.152 107.615C150.029 107.462 149.824 107.325 149.539 107.206C149.253 107.082 148.867 106.967 148.382 106.861L147.078 106.58C145.919 106.328 145.005 105.908 144.335 105.32C143.671 104.728 143.34 103.92 143.345 102.898C143.34 102.067 143.562 101.34 144.009 100.718C144.461 100.092 145.085 99.6037 145.882 99.2543C146.684 98.9048 147.602 98.7301 148.637 98.7301C149.694 98.7301 150.608 98.907 151.38 99.2607C152.151 99.6143 152.745 100.113 153.163 100.756C153.585 101.396 153.798 102.143 153.802 103H150.402ZM154.975 101.773V98.9091H166.353V101.773H162.415V112H158.913V101.773H154.975ZM174.185 104.125V106.784H168.048V104.125H174.185ZM176.233 112V98.9091H179.787V109.136H185.08V112H176.233ZM189.917 112H186.082L190.403 98.9091H195.261L199.582 112H195.747L192.883 102.514H192.781L189.917 112ZM189.201 106.835H196.411V109.494H189.201V106.835Z" fill="black"/>
<path d="M67 137.5L56 119.5L45 137.5H67Z" fill="#B1B1B1"/>
<path d="M67 74.5L56 92.5L45 74.5H67Z" fill="#B1B1B1"/>
</svg>
