
<svg width="598" height="320" viewBox="0 0 598 320" fill="none" xmlns="http://www.w3.org/2000/svg">
<style>
                    .train {
                        font-family: Consolas, sans-serif;
                        font-size: 20px;
                        font-weight:40px;
                        fill: #D9DD0E;
                    }
</style>
<defs>
    <filter x="0" y="0" width="1" height="1" id="solid">
        <feFlood flood-color="black" result="bg" />
        <feMerge>
            <feMergeNode in="bg"/>
            <feMergeNode in="SourceGraphic"/>
        </feMerge>
    </filter>
</defs>
<rect y="60" width="112" height="30" fill="#CDCDCD" id="c2501"/>
<text x="46" y="50" class="train" filter="url(#solid)" id="c2501tr">100</text>
<rect y="240" width="112" height="30" fill="#CDCDCD" id="c1101"/>
<text x="46" y="293" class="train" filter="url(#solid)" id="c1101tr">10</text>
<rect x="115" y="60" width="112" height="30" fill="#CDCDCD" id="c2401"/>
<text x="160" y="50" class="train" filter="url(#solid)" id="c2401tr">10</text>
<rect x="345" y="60" width="112" height="30" fill="#CDCDCD" id="c2201"/>
<text x="388" y="50" class="train" filter="url(#solid)" id="c2201tr">10</text>
<rect x="345" y="240" width="112" height="30" fill="#CDCDCD" id="c1401"/>
<text x="388" y="293" class="train" filter="url(#solid)" id="c1401tr">10</text>
<rect x="460.5" y="240" width="112" height="30" fill="#CDCDCD" id="c1501"/>
<text x="502" y="293" class="train" filter="url(#solid)" id="c1501tr">10</text>
<rect x="460.5" y="60" width="112" height="30" fill="#CDCDCD" id="c2101"/>
<text x="502" y="50" class="train" filter="url(#solid)" id="c2101tr">10</text>
<rect x="115" y="240" width="112" height="30" fill="#CDCDCD" id="c1201"/>
<text x="160" y="293" class="train" filter="url(#solid)" id="c1201tr">10</text>
<path d="M230 67H342V83H230V67Z" fill="#148FB6" id="c2301n"/>
<text x="274" y="50" class="train" filter="url(#solid)" id="c2301tr">10</text>
<path d="M230 247H342V263H230V247Z" fill="#148FB6" id="c1301n"/>
<text x="274" y="293" class="train" filter="url(#solid)" id="c1301tr">10</text>
<rect x="260" y="60" width="52" height="30" fill="#CDCDCD" id="c2301"/>
<rect x="260" y="240" width="52" height="30" fill="#CDCDCD" id="c1301"/>
<path d="M34.021 82V80.5682L38.4506 75.9787C38.9237 75.4801 39.3136 75.0433 39.6204 74.6683C39.9315 74.2891 40.1637 73.929 40.3171 73.5881C40.4705 73.2472 40.5472 72.8849 40.5472 72.5014C40.5472 72.0668 40.445 71.6918 40.2404 71.3764C40.0359 71.0568 39.7567 70.8118 39.4031 70.6413C39.0494 70.4666 38.6509 70.3793 38.2077 70.3793C37.739 70.3793 37.3299 70.4751 36.9805 70.6669C36.631 70.8587 36.3626 71.1293 36.1751 71.4787C35.9876 71.8281 35.8938 72.2372 35.8938 72.706H34.0082C34.0082 71.9091 34.1914 71.2124 34.5579 70.6158C34.9244 70.0192 35.4272 69.5568 36.0664 69.2287C36.7056 68.8963 37.4322 68.7301 38.2461 68.7301C39.0685 68.7301 39.793 68.8942 40.4194 69.2223C41.0501 69.5462 41.5423 69.9893 41.896 70.5518C42.2496 71.1101 42.4265 71.7408 42.4265 72.4439C42.4265 72.9297 42.3349 73.4048 42.1516 73.8693C41.9727 74.3338 41.6594 74.8516 41.212 75.4226C40.7646 75.9893 40.1424 76.6776 39.3455 77.4872L36.744 80.2102V80.3061H42.6374V82H34.021ZM49.381 82.179C48.5799 82.179 47.8597 82.0256 47.2205 81.7188C46.5856 81.4077 46.0785 80.9815 45.6992 80.4403C45.32 79.8991 45.1175 79.2812 45.092 78.5866H47.0096C47.0565 79.1491 47.3058 79.6115 47.7575 79.9737C48.2092 80.3359 48.7504 80.517 49.381 80.517C49.8839 80.517 50.3292 80.402 50.717 80.1719C51.109 79.9375 51.4158 79.6158 51.6374 79.2067C51.8633 78.7976 51.9762 78.331 51.9762 77.8068C51.9762 77.2741 51.8612 76.799 51.631 76.3814C51.4009 75.9638 51.0835 75.6357 50.6786 75.397C50.2781 75.1584 49.8178 75.0369 49.2979 75.0327C48.9016 75.0327 48.5032 75.1009 48.1026 75.2372C47.7021 75.3736 47.3782 75.5526 47.131 75.7741L45.3221 75.5057L46.0572 68.9091H53.2546V70.603H47.6999L47.2844 74.2656H47.3612C47.6168 74.0185 47.9556 73.8118 48.3775 73.6456C48.8036 73.4794 49.2596 73.3963 49.7454 73.3963C50.5423 73.3963 51.2518 73.5859 51.8739 73.9652C52.5004 74.3445 52.9925 74.8622 53.3505 75.5185C53.7127 76.1705 53.8917 76.9205 53.8874 77.7685C53.8917 78.6165 53.6999 79.3729 53.3121 80.0376C52.9286 80.7024 52.396 81.2266 51.7141 81.6101C51.0366 81.9893 50.2589 82.179 49.381 82.179ZM57.0323 82.1214C56.6829 82.1214 56.3825 81.9979 56.131 81.7507C55.8796 81.4993 55.7539 81.1967 55.7539 80.843C55.7539 80.4936 55.8796 80.1953 56.131 79.9482C56.3825 79.6967 56.6829 79.571 57.0323 79.571C57.3817 79.571 57.6822 79.6967 57.9336 79.9482C58.185 80.1953 58.3107 80.4936 58.3107 80.843C58.3107 81.0774 58.2511 81.2926 58.1317 81.4886C58.0167 81.6804 57.8633 81.8338 57.6715 81.9489C57.4798 82.0639 57.2667 82.1214 57.0323 82.1214ZM64.9281 82.2173C63.9181 82.2131 63.0552 81.9467 62.3393 81.4183C61.6234 80.8899 61.0758 80.1207 60.6966 79.1108C60.3173 78.1009 60.1277 76.8842 60.1277 75.4609C60.1277 74.0419 60.3173 72.8295 60.6966 71.8239C61.0801 70.8182 61.6298 70.0511 62.3457 69.5227C63.0659 68.9943 63.9267 68.7301 64.9281 68.7301C65.9295 68.7301 66.7882 68.9964 67.5041 69.5291C68.22 70.0575 68.7676 70.8246 69.1468 71.8303C69.5304 72.8317 69.7221 74.0419 69.7221 75.4609C69.7221 76.8885 69.5325 78.1072 69.1532 79.1172C68.774 80.1229 68.2264 80.892 67.5105 81.4247C66.7946 81.9531 65.9338 82.2173 64.9281 82.2173ZM64.9281 80.5107C65.8145 80.5107 66.5069 80.0781 67.0055 79.2131C67.5083 78.348 67.7598 77.0973 67.7598 75.4609C67.7598 74.3743 67.6447 73.456 67.4146 72.706C67.1887 71.9517 66.8627 71.3807 66.4366 70.9929C66.0147 70.6009 65.5119 70.4048 64.9281 70.4048C64.046 70.4048 63.3535 70.8395 62.8507 71.7088C62.3478 72.5781 62.0943 73.8288 62.09 75.4609C62.09 76.5518 62.2029 77.4744 62.4288 78.2287C62.6589 78.9787 62.9849 79.5476 63.4068 79.9354C63.8287 80.3189 64.3358 80.5107 64.9281 80.5107ZM76.9563 68.9091V82H74.9748V70.8906H74.8981L71.766 72.9361V71.044L75.0323 68.9091H76.9563Z" fill="#424242"/>
<path d="M41.721 248.909V262H39.7394V250.891H39.6627L36.5306 252.936V251.044L39.797 248.909H41.721ZM50.2288 248.909V262H48.2472V250.891H48.1705L45.0384 252.936V251.044L48.3048 248.909H50.2288ZM54.2989 262.121C53.9495 262.121 53.6491 261.998 53.3976 261.751C53.1462 261.499 53.0205 261.197 53.0205 260.843C53.0205 260.494 53.1462 260.195 53.3976 259.948C53.6491 259.697 53.9495 259.571 54.2989 259.571C54.6483 259.571 54.9488 259.697 55.2002 259.948C55.4516 260.195 55.5773 260.494 55.5773 260.843C55.5773 261.077 55.5177 261.293 55.3983 261.489C55.2833 261.68 55.1299 261.834 54.9381 261.949C54.7464 262.064 54.5333 262.121 54.2989 262.121ZM62.1947 262.217C61.1847 262.213 60.3218 261.947 59.6059 261.418C58.89 260.89 58.3424 260.121 57.9632 259.111C57.5839 258.101 57.3943 256.884 57.3943 255.461C57.3943 254.042 57.5839 252.83 57.9632 251.824C58.3467 250.818 58.8964 250.051 59.6123 249.523C60.3325 248.994 61.1933 248.73 62.1947 248.73C63.1961 248.73 64.0548 248.996 64.7707 249.529C65.4866 250.058 66.0342 250.825 66.4134 251.83C66.797 252.832 66.9887 254.042 66.9887 255.461C66.9887 256.888 66.7991 258.107 66.4198 259.117C66.0406 260.123 65.493 260.892 64.7771 261.425C64.0612 261.953 63.2004 262.217 62.1947 262.217ZM62.1947 260.511C63.0811 260.511 63.7735 260.078 64.2721 259.213C64.7749 258.348 65.0264 257.097 65.0264 255.461C65.0264 254.374 64.9113 253.456 64.6812 252.706C64.4553 251.952 64.1294 251.381 63.7032 250.993C63.2813 250.601 62.7785 250.405 62.1947 250.405C61.3126 250.405 60.6201 250.839 60.1173 251.709C59.6144 252.578 59.3609 253.829 59.3566 255.461C59.3566 256.552 59.4695 257.474 59.6954 258.229C59.9255 258.979 60.2515 259.548 60.6734 259.935C61.0953 260.319 61.6024 260.511 62.1947 260.511ZM74.2229 248.909V262H72.2414V250.891H72.1647L69.0326 252.936V251.044L72.2989 248.909H74.2229Z" fill="#424242"/>
<path d="M148.863 82V80.5682L153.292 75.9787C153.765 75.4801 154.155 75.0433 154.462 74.6683C154.773 74.2891 155.006 73.929 155.159 73.5881C155.312 73.2472 155.389 72.8849 155.389 72.5014C155.389 72.0668 155.287 71.6918 155.082 71.3764C154.878 71.0568 154.599 70.8118 154.245 70.6413C153.891 70.4666 153.493 70.3793 153.05 70.3793C152.581 70.3793 152.172 70.4751 151.822 70.6669C151.473 70.8587 151.204 71.1293 151.017 71.4787C150.829 71.8281 150.736 72.2372 150.736 72.706H148.85C148.85 71.9091 149.033 71.2124 149.4 70.6158C149.766 70.0192 150.269 69.5568 150.908 69.2287C151.547 68.8963 152.274 68.7301 153.088 68.7301C153.91 68.7301 154.635 68.8942 155.261 69.2223C155.892 69.5462 156.384 69.9893 156.738 70.5518C157.091 71.1101 157.268 71.7408 157.268 72.4439C157.268 72.9297 157.177 73.4048 156.993 73.8693C156.814 74.3338 156.501 74.8516 156.054 75.4226C155.606 75.9893 154.984 76.6776 154.187 77.4872L151.586 80.2102V80.3061H157.479V82H148.863ZM159.346 79.4432V77.8452L165.003 68.9091H166.262V71.2614H165.463L161.417 77.6662V77.7685H169.17V79.4432H159.346ZM165.552 82V78.9574L165.565 78.2287V68.9091H167.438V82H165.552ZM172.191 82.1214C171.841 82.1214 171.541 81.9979 171.289 81.7507C171.038 81.4993 170.912 81.1967 170.912 80.843C170.912 80.4936 171.038 80.1953 171.289 79.9482C171.541 79.6967 171.841 79.571 172.191 79.571C172.54 79.571 172.84 79.6967 173.092 79.9482C173.343 80.1953 173.469 80.4936 173.469 80.843C173.469 81.0774 173.409 81.2926 173.29 81.4886C173.175 81.6804 173.021 81.8338 172.83 81.9489C172.638 82.0639 172.425 82.1214 172.191 82.1214ZM180.086 82.2173C179.076 82.2131 178.213 81.9467 177.498 81.4183C176.782 80.8899 176.234 80.1207 175.855 79.1108C175.475 78.1009 175.286 76.8842 175.286 75.4609C175.286 74.0419 175.475 72.8295 175.855 71.8239C176.238 70.8182 176.788 70.0511 177.504 69.5227C178.224 68.9943 179.085 68.7301 180.086 68.7301C181.088 68.7301 181.946 68.9964 182.662 69.5291C183.378 70.0575 183.926 70.8246 184.305 71.8303C184.689 72.8317 184.88 74.0419 184.88 75.4609C184.88 76.8885 184.691 78.1072 184.311 79.1172C183.932 80.1229 183.385 80.892 182.669 81.4247C181.953 81.9531 181.092 82.2173 180.086 82.2173ZM180.086 80.5107C180.973 80.5107 181.665 80.0781 182.164 79.2131C182.667 78.348 182.918 77.0973 182.918 75.4609C182.918 74.3743 182.803 73.456 182.573 72.706C182.347 71.9517 182.021 71.3807 181.595 70.9929C181.173 70.6009 180.67 70.4048 180.086 70.4048C179.204 70.4048 178.512 70.8395 178.009 71.7088C177.506 72.5781 177.252 73.8288 177.248 75.4609C177.248 76.5518 177.361 77.4744 177.587 78.2287C177.817 78.9787 178.143 79.5476 178.565 79.9354C178.987 80.3189 179.494 80.5107 180.086 80.5107ZM192.115 68.9091V82H190.133V70.8906H190.056L186.924 72.9361V71.044L190.191 68.9091H192.115Z" fill="#424242"/>
<path d="M378.845 82V80.5682L383.275 75.9787C383.748 75.4801 384.138 75.0433 384.445 74.6683C384.756 74.2891 384.988 73.929 385.141 73.5881C385.295 73.2472 385.371 72.8849 385.371 72.5014C385.371 72.0668 385.269 71.6918 385.065 71.3764C384.86 71.0568 384.581 70.8118 384.227 70.6413C383.874 70.4666 383.475 70.3793 383.032 70.3793C382.563 70.3793 382.154 70.4751 381.805 70.6669C381.455 70.8587 381.187 71.1293 380.999 71.4787C380.812 71.8281 380.718 72.2372 380.718 72.706H378.832C378.832 71.9091 379.016 71.2124 379.382 70.6158C379.749 70.0192 380.251 69.5568 380.891 69.2287C381.53 68.8963 382.256 68.7301 383.07 68.7301C383.893 68.7301 384.617 68.8942 385.244 69.2223C385.874 69.5462 386.366 69.9893 386.72 70.5518C387.074 71.1101 387.251 71.7408 387.251 72.4439C387.251 72.9297 387.159 73.4048 386.976 73.8693C386.797 74.3338 386.484 74.8516 386.036 75.4226C385.589 75.9893 384.967 76.6776 384.17 77.4872L381.568 80.2102V80.3061H387.462V82H378.845ZM389.884 82V80.5682L394.314 75.9787C394.787 75.4801 395.177 75.0433 395.484 74.6683C395.795 74.2891 396.027 73.929 396.18 73.5881C396.334 73.2472 396.411 72.8849 396.411 72.5014C396.411 72.0668 396.308 71.6918 396.104 71.3764C395.899 71.0568 395.62 70.8118 395.266 70.6413C394.913 70.4666 394.514 70.3793 394.071 70.3793C393.602 70.3793 393.193 70.4751 392.844 70.6669C392.494 70.8587 392.226 71.1293 392.038 71.4787C391.851 71.8281 391.757 72.2372 391.757 72.706H389.871C389.871 71.9091 390.055 71.2124 390.421 70.6158C390.788 70.0192 391.29 69.5568 391.93 69.2287C392.569 68.8963 393.295 68.7301 394.109 68.7301C394.932 68.7301 395.656 68.8942 396.283 69.2223C396.913 69.5462 397.406 69.9893 397.759 70.5518C398.113 71.1101 398.29 71.7408 398.29 72.4439C398.29 72.9297 398.198 73.4048 398.015 73.8693C397.836 74.3338 397.523 74.8516 397.075 75.4226C396.628 75.9893 396.006 76.6776 395.209 77.4872L392.607 80.2102V80.3061H398.501V82H389.884ZM402.208 82.1214C401.859 82.1214 401.558 81.9979 401.307 81.7507C401.055 81.4993 400.93 81.1967 400.93 80.843C400.93 80.4936 401.055 80.1953 401.307 79.9482C401.558 79.6967 401.859 79.571 402.208 79.571C402.558 79.571 402.858 79.6967 403.109 79.9482C403.361 80.1953 403.487 80.4936 403.487 80.843C403.487 81.0774 403.427 81.2926 403.308 81.4886C403.192 81.6804 403.039 81.8338 402.847 81.9489C402.656 82.0639 402.442 82.1214 402.208 82.1214ZM410.104 82.2173C409.094 82.2131 408.231 81.9467 407.515 81.4183C406.799 80.8899 406.252 80.1207 405.872 79.1108C405.493 78.1009 405.303 76.8842 405.303 75.4609C405.303 74.0419 405.493 72.8295 405.872 71.8239C406.256 70.8182 406.806 70.0511 407.521 69.5227C408.242 68.9943 409.102 68.7301 410.104 68.7301C411.105 68.7301 411.964 68.9964 412.68 69.5291C413.396 70.0575 413.943 70.8246 414.323 71.8303C414.706 72.8317 414.898 74.0419 414.898 75.4609C414.898 76.8885 414.708 78.1072 414.329 79.1172C413.95 80.1229 413.402 80.892 412.686 81.4247C411.97 81.9531 411.11 82.2173 410.104 82.2173ZM410.104 80.5107C410.99 80.5107 411.683 80.0781 412.181 79.2131C412.684 78.348 412.936 77.0973 412.936 75.4609C412.936 74.3743 412.82 73.456 412.59 72.706C412.365 71.9517 412.039 71.3807 411.612 70.9929C411.191 70.6009 410.688 70.4048 410.104 70.4048C409.222 70.4048 408.529 70.8395 408.026 71.7088C407.524 72.5781 407.27 73.8288 407.266 75.4609C407.266 76.5518 407.379 77.4744 407.605 78.2287C407.835 78.9787 408.161 79.5476 408.583 79.9354C409.004 80.3189 409.512 80.5107 410.104 80.5107ZM422.132 68.9091V82H420.151V70.8906H420.074L416.942 72.9361V71.044L420.208 68.9091H422.132Z" fill="#424242"/>
<path d="M384.954 248.909V262H382.973V250.891H382.896L379.764 252.936V251.044L383.03 248.909H384.954ZM388.221 259.443V257.845L393.878 248.909H395.137V251.261H394.338L390.292 257.666V257.768H398.045V259.443H388.221ZM394.427 262V258.957L394.44 258.229V248.909H396.313V262H394.427ZM401.066 262.121C400.716 262.121 400.416 261.998 400.164 261.751C399.913 261.499 399.787 261.197 399.787 260.843C399.787 260.494 399.913 260.195 400.164 259.948C400.416 259.697 400.716 259.571 401.066 259.571C401.415 259.571 401.715 259.697 401.967 259.948C402.218 260.195 402.344 260.494 402.344 260.843C402.344 261.077 402.284 261.293 402.165 261.489C402.05 261.68 401.896 261.834 401.705 261.949C401.513 262.064 401.3 262.121 401.066 262.121ZM408.961 262.217C407.951 262.213 407.088 261.947 406.373 261.418C405.657 260.89 405.109 260.121 404.73 259.111C404.35 258.101 404.161 256.884 404.161 255.461C404.161 254.042 404.35 252.83 404.73 251.824C405.113 250.818 405.663 250.051 406.379 249.523C407.099 248.994 407.96 248.73 408.961 248.73C409.963 248.73 410.821 248.996 411.537 249.529C412.253 250.058 412.801 250.825 413.18 251.83C413.564 252.832 413.755 254.042 413.755 255.461C413.755 256.888 413.566 258.107 413.186 259.117C412.807 260.123 412.26 260.892 411.544 261.425C410.828 261.953 409.967 262.217 408.961 262.217ZM408.961 260.511C409.848 260.511 410.54 260.078 411.039 259.213C411.542 258.348 411.793 257.097 411.793 255.461C411.793 254.374 411.678 253.456 411.448 252.706C411.222 251.952 410.896 251.381 410.47 250.993C410.048 250.601 409.545 250.405 408.961 250.405C408.079 250.405 407.387 250.839 406.884 251.709C406.381 252.578 406.127 253.829 406.123 255.461C406.123 256.552 406.236 257.474 406.462 258.229C406.692 258.979 407.018 259.548 407.44 259.935C407.862 260.319 408.369 260.511 408.961 260.511ZM420.99 248.909V262H419.008V250.891H418.931L415.799 252.936V251.044L419.066 248.909H420.99Z" fill="#424242"/>
<path d="M500.753 248.909V262H498.772V250.891H498.695L495.563 252.936V251.044L498.829 248.909H500.753ZM508.615 262.179C507.814 262.179 507.094 262.026 506.455 261.719C505.82 261.408 505.313 260.982 504.934 260.44C504.554 259.899 504.352 259.281 504.326 258.587H506.244C506.291 259.149 506.54 259.612 506.992 259.974C507.444 260.336 507.985 260.517 508.615 260.517C509.118 260.517 509.564 260.402 509.951 260.172C510.343 259.938 510.65 259.616 510.872 259.207C511.098 258.798 511.211 258.331 511.211 257.807C511.211 257.274 511.096 256.799 510.865 256.381C510.635 255.964 510.318 255.636 509.913 255.397C509.512 255.158 509.052 255.037 508.532 255.033C508.136 255.033 507.738 255.101 507.337 255.237C506.936 255.374 506.613 255.553 506.365 255.774L504.556 255.506L505.292 248.909H512.489V250.603H506.934L506.519 254.266H506.596C506.851 254.018 507.19 253.812 507.612 253.646C508.038 253.479 508.494 253.396 508.98 253.396C509.777 253.396 510.486 253.586 511.108 253.965C511.735 254.344 512.227 254.862 512.585 255.518C512.947 256.17 513.126 256.92 513.122 257.768C513.126 258.616 512.934 259.373 512.547 260.038C512.163 260.702 511.63 261.227 510.949 261.61C510.271 261.989 509.493 262.179 508.615 262.179ZM516.267 262.121C515.917 262.121 515.617 261.998 515.365 261.751C515.114 261.499 514.988 261.197 514.988 260.843C514.988 260.494 515.114 260.195 515.365 259.948C515.617 259.697 515.917 259.571 516.267 259.571C516.616 259.571 516.917 259.697 517.168 259.948C517.419 260.195 517.545 260.494 517.545 260.843C517.545 261.077 517.485 261.293 517.366 261.489C517.251 261.68 517.098 261.834 516.906 261.949C516.714 262.064 516.501 262.121 516.267 262.121ZM524.162 262.217C523.153 262.213 522.29 261.947 521.574 261.418C520.858 260.89 520.31 260.121 519.931 259.111C519.552 258.101 519.362 256.884 519.362 255.461C519.362 254.042 519.552 252.83 519.931 251.824C520.314 250.818 520.864 250.051 521.58 249.523C522.3 248.994 523.161 248.73 524.162 248.73C525.164 248.73 526.023 248.996 526.738 249.529C527.454 250.058 528.002 250.825 528.381 251.83C528.765 252.832 528.956 254.042 528.956 255.461C528.956 256.888 528.767 258.107 528.388 259.117C528.008 260.123 527.461 260.892 526.745 261.425C526.029 261.953 525.168 262.217 524.162 262.217ZM524.162 260.511C525.049 260.511 525.741 260.078 526.24 259.213C526.743 258.348 526.994 257.097 526.994 255.461C526.994 254.374 526.879 253.456 526.649 252.706C526.423 251.952 526.097 251.381 525.671 250.993C525.249 250.601 524.746 250.405 524.162 250.405C523.28 250.405 522.588 250.839 522.085 251.709C521.582 252.578 521.329 253.829 521.324 255.461C521.324 256.552 521.437 257.474 521.663 258.229C521.893 258.979 522.219 259.548 522.641 259.935C523.063 260.319 523.57 260.511 524.162 260.511ZM536.191 248.909V262H534.209V250.891H534.132L531 252.936V251.044L534.267 248.909H536.191Z" fill="#424242"/>
<path d="M495.989 82V80.5682L500.418 75.9787C500.891 75.4801 501.281 75.0433 501.588 74.6683C501.899 74.2891 502.131 73.929 502.285 73.5881C502.438 73.2472 502.515 72.8849 502.515 72.5014C502.515 72.0668 502.413 71.6918 502.208 71.3764C502.004 71.0568 501.725 70.8118 501.371 70.6413C501.017 70.4666 500.619 70.3793 500.176 70.3793C499.707 70.3793 499.298 70.4751 498.948 70.6669C498.599 70.8587 498.33 71.1293 498.143 71.4787C497.955 71.8281 497.862 72.2372 497.862 72.706H495.976C495.976 71.9091 496.159 71.2124 496.526 70.6158C496.892 70.0192 497.395 69.5568 498.034 69.2287C498.673 68.8963 499.4 68.7301 500.214 68.7301C501.036 68.7301 501.761 68.8942 502.387 69.2223C503.018 69.5462 503.51 69.9893 503.864 70.5518C504.217 71.1101 504.394 71.7408 504.394 72.4439C504.394 72.9297 504.303 73.4048 504.119 73.8693C503.94 74.3338 503.627 74.8516 503.18 75.4226C502.732 75.9893 502.11 76.6776 501.313 77.4872L498.712 80.2102V80.3061H504.605V82H495.989ZM511.994 68.9091V82H510.013V70.8906H509.936L506.804 72.9361V71.044L510.07 68.9091H511.994ZM516.065 82.1214C515.715 82.1214 515.415 81.9979 515.163 81.7507C514.912 81.4993 514.786 81.1967 514.786 80.843C514.786 80.4936 514.912 80.1953 515.163 79.9482C515.415 79.6967 515.715 79.571 516.065 79.571C516.414 79.571 516.714 79.6967 516.966 79.9482C517.217 80.1953 517.343 80.4936 517.343 80.843C517.343 81.0774 517.283 81.2926 517.164 81.4886C517.049 81.6804 516.896 81.8338 516.704 81.9489C516.512 82.0639 516.299 82.1214 516.065 82.1214ZM523.96 82.2173C522.95 82.2131 522.087 81.9467 521.372 81.4183C520.656 80.8899 520.108 80.1207 519.729 79.1108C519.35 78.1009 519.16 76.8842 519.16 75.4609C519.16 74.0419 519.35 72.8295 519.729 71.8239C520.112 70.8182 520.662 70.0511 521.378 69.5227C522.098 68.9943 522.959 68.7301 523.96 68.7301C524.962 68.7301 525.82 68.9964 526.536 69.5291C527.252 70.0575 527.8 70.8246 528.179 71.8303C528.563 72.8317 528.754 74.0419 528.754 75.4609C528.754 76.8885 528.565 78.1072 528.185 79.1172C527.806 80.1229 527.259 80.892 526.543 81.4247C525.827 81.9531 524.966 82.2173 523.96 82.2173ZM523.96 80.5107C524.847 80.5107 525.539 80.0781 526.038 79.2131C526.541 78.348 526.792 77.0973 526.792 75.4609C526.792 74.3743 526.677 73.456 526.447 72.706C526.221 71.9517 525.895 71.3807 525.469 70.9929C525.047 70.6009 524.544 70.4048 523.96 70.4048C523.078 70.4048 522.386 70.8395 521.883 71.7088C521.38 72.5781 521.127 73.8288 521.122 75.4609C521.122 76.5518 521.235 77.4744 521.461 78.2287C521.691 78.9787 522.017 79.5476 522.439 79.9354C522.861 80.3189 523.368 80.5107 523.96 80.5107ZM535.989 68.9091V82H534.007V70.8906H533.93L530.798 72.9361V71.044L534.065 68.9091H535.989Z" fill="#424242"/>
<path d="M155.077 248.909V262H153.096V250.891H153.019L149.887 252.936V251.044L153.153 248.909H155.077ZM158.619 262V260.568L163.048 255.979C163.521 255.48 163.911 255.043 164.218 254.668C164.529 254.289 164.761 253.929 164.915 253.588C165.068 253.247 165.145 252.885 165.145 252.501C165.145 252.067 165.043 251.692 164.838 251.376C164.634 251.057 164.354 250.812 164.001 250.641C163.647 250.467 163.249 250.379 162.805 250.379C162.337 250.379 161.928 250.475 161.578 250.667C161.229 250.859 160.96 251.129 160.773 251.479C160.585 251.828 160.491 252.237 160.491 252.706H158.606C158.606 251.909 158.789 251.212 159.156 250.616C159.522 250.019 160.025 249.557 160.664 249.229C161.303 248.896 162.03 248.73 162.844 248.73C163.666 248.73 164.391 248.894 165.017 249.222C165.648 249.546 166.14 249.989 166.494 250.552C166.847 251.11 167.024 251.741 167.024 252.444C167.024 252.93 166.933 253.405 166.749 253.869C166.57 254.334 166.257 254.852 165.81 255.423C165.362 255.989 164.74 256.678 163.943 257.487L161.342 260.21V260.306H167.235V262H158.619ZM170.942 262.121C170.593 262.121 170.293 261.998 170.041 261.751C169.79 261.499 169.664 261.197 169.664 260.843C169.664 260.494 169.79 260.195 170.041 259.948C170.293 259.697 170.593 259.571 170.942 259.571C171.292 259.571 171.592 259.697 171.844 259.948C172.095 260.195 172.221 260.494 172.221 260.843C172.221 261.077 172.161 261.293 172.042 261.489C171.927 261.68 171.773 261.834 171.582 261.949C171.39 262.064 171.177 262.121 170.942 262.121ZM178.838 262.217C177.828 262.213 176.965 261.947 176.249 261.418C175.534 260.89 174.986 260.121 174.607 259.111C174.227 258.101 174.038 256.884 174.038 255.461C174.038 254.042 174.227 252.83 174.607 251.824C174.99 250.818 175.54 250.051 176.256 249.523C176.976 248.994 177.837 248.73 178.838 248.73C179.84 248.73 180.698 248.996 181.414 249.529C182.13 250.058 182.678 250.825 183.057 251.83C183.441 252.832 183.632 254.042 183.632 255.461C183.632 256.888 183.443 258.107 183.063 259.117C182.684 260.123 182.137 260.892 181.421 261.425C180.705 261.953 179.844 262.217 178.838 262.217ZM178.838 260.511C179.725 260.511 180.417 260.078 180.916 259.213C181.419 258.348 181.67 257.097 181.67 255.461C181.67 254.374 181.555 253.456 181.325 252.706C181.099 251.952 180.773 251.381 180.347 250.993C179.925 250.601 179.422 250.405 178.838 250.405C177.956 250.405 177.264 250.839 176.761 251.709C176.258 252.578 176.004 253.829 176 255.461C176 256.552 176.113 257.474 176.339 258.229C176.569 258.979 176.895 259.548 177.317 259.935C177.739 260.319 178.246 260.511 178.838 260.511ZM190.866 248.909V262H188.885V250.891H188.808L185.676 252.936V251.044L188.942 248.909H190.866Z" fill="#424242"/>
<path d="M263.757 82V80.5682L268.187 75.9787C268.66 75.4801 269.05 75.0433 269.357 74.6683C269.668 74.2891 269.9 73.929 270.053 73.5881C270.207 73.2472 270.284 72.8849 270.284 72.5014C270.284 72.0668 270.181 71.6918 269.977 71.3764C269.772 71.0568 269.493 70.8118 269.139 70.6413C268.786 70.4666 268.387 70.3793 267.944 70.3793C267.475 70.3793 267.066 70.4751 266.717 70.6669C266.367 70.8587 266.099 71.1293 265.911 71.4787C265.724 71.8281 265.63 72.2372 265.63 72.706H263.744C263.744 71.9091 263.928 71.2124 264.294 70.6158C264.661 70.0192 265.164 69.5568 265.803 69.2287C266.442 68.8963 267.169 68.7301 267.982 68.7301C268.805 68.7301 269.529 68.8942 270.156 69.2223C270.786 69.5462 271.279 69.9893 271.632 70.5518C271.986 71.1101 272.163 71.7408 272.163 72.4439C272.163 72.9297 272.071 73.4048 271.888 73.8693C271.709 74.3338 271.396 74.8516 270.948 75.4226C270.501 75.9893 269.879 76.6776 269.082 77.4872L266.48 80.2102V80.3061H272.374V82H263.757ZM279.354 82.179C278.476 82.179 277.692 82.0277 277.002 81.7251C276.316 81.4226 275.772 81.0028 275.372 80.4659C274.975 79.9247 274.762 79.2983 274.732 78.5866H276.74C276.765 78.9744 276.895 79.3111 277.129 79.5966C277.368 79.8778 277.679 80.0952 278.063 80.2486C278.446 80.402 278.872 80.4787 279.341 80.4787C279.857 80.4787 280.313 80.3892 280.709 80.2102C281.11 80.0312 281.423 79.782 281.649 79.4624C281.874 79.1385 281.987 78.7656 281.987 78.3438C281.987 77.9048 281.874 77.5192 281.649 77.1868C281.427 76.8501 281.101 76.5859 280.671 76.3942C280.244 76.2024 279.729 76.1065 279.124 76.1065H278.018V74.4957H279.124C279.61 74.4957 280.036 74.4084 280.402 74.2337C280.773 74.0589 281.063 73.8161 281.271 73.505C281.48 73.1896 281.585 72.821 281.585 72.3991C281.585 71.9943 281.493 71.6428 281.31 71.3445C281.131 71.0419 280.875 70.8054 280.543 70.6349C280.215 70.4645 279.827 70.3793 279.379 70.3793C278.953 70.3793 278.555 70.4581 278.184 70.6158C277.818 70.7692 277.519 70.9908 277.289 71.2805C277.059 71.5661 276.936 71.9091 276.919 72.3097H275.007C275.029 71.6023 275.237 70.9801 275.634 70.4432C276.034 69.9062 276.563 69.4865 277.219 69.1839C277.875 68.8814 278.604 68.7301 279.405 68.7301C280.244 68.7301 280.969 68.8942 281.578 69.2223C282.192 69.5462 282.665 69.9787 282.997 70.5199C283.334 71.0611 283.5 71.6534 283.496 72.2969C283.5 73.0298 283.296 73.652 282.882 74.1634C282.473 74.6747 281.928 75.0178 281.246 75.1925V75.2947C282.115 75.4268 282.789 75.772 283.266 76.3303C283.747 76.8885 283.986 77.581 283.982 78.4077C283.986 79.1278 283.786 79.7734 283.381 80.3445C282.98 80.9155 282.433 81.3651 281.738 81.6932C281.044 82.017 280.249 82.179 279.354 82.179ZM287.296 82.1214C286.947 82.1214 286.646 81.9979 286.395 81.7507C286.143 81.4993 286.018 81.1967 286.018 80.843C286.018 80.4936 286.143 80.1953 286.395 79.9482C286.646 79.6967 286.947 79.571 287.296 79.571C287.645 79.571 287.946 79.6967 288.197 79.9482C288.449 80.1953 288.574 80.4936 288.574 80.843C288.574 81.0774 288.515 81.2926 288.395 81.4886C288.28 81.6804 288.127 81.8338 287.935 81.9489C287.743 82.0639 287.53 82.1214 287.296 82.1214ZM295.192 82.2173C294.182 82.2131 293.319 81.9467 292.603 81.4183C291.887 80.8899 291.339 80.1207 290.96 79.1108C290.581 78.1009 290.391 76.8842 290.391 75.4609C290.391 74.0419 290.581 72.8295 290.96 71.8239C291.344 70.8182 291.893 70.0511 292.609 69.5227C293.33 68.9943 294.19 68.7301 295.192 68.7301C296.193 68.7301 297.052 68.9964 297.768 69.5291C298.484 70.0575 299.031 70.8246 299.411 71.8303C299.794 72.8317 299.986 74.0419 299.986 75.4609C299.986 76.8885 299.796 78.1072 299.417 79.1172C299.038 80.1229 298.49 80.892 297.774 81.4247C297.058 81.9531 296.197 82.2173 295.192 82.2173ZM295.192 80.5107C296.078 80.5107 296.771 80.0781 297.269 79.2131C297.772 78.348 298.023 77.0973 298.023 75.4609C298.023 74.3743 297.908 73.456 297.678 72.706C297.452 71.9517 297.126 71.3807 296.7 70.9929C296.278 70.6009 295.776 70.4048 295.192 70.4048C294.31 70.4048 293.617 70.8395 293.114 71.7088C292.612 72.5781 292.358 73.8288 292.354 75.4609C292.354 76.5518 292.467 77.4744 292.692 78.2287C292.923 78.9787 293.249 79.5476 293.67 79.9354C294.092 80.3189 294.599 80.5107 295.192 80.5107ZM307.22 68.9091V82H305.238V70.8906H305.162L302.03 72.9361V71.044L305.296 68.9091H307.22Z" fill="#424242"/>
<path d="M269.99 248.909V262H268.008V250.891H267.931L264.799 252.936V251.044L268.066 248.909H269.99ZM278.088 262.179C277.21 262.179 276.426 262.028 275.736 261.725C275.05 261.423 274.507 261.003 274.106 260.466C273.71 259.925 273.497 259.298 273.467 258.587H275.474C275.499 258.974 275.629 259.311 275.864 259.597C276.102 259.878 276.414 260.095 276.797 260.249C277.181 260.402 277.607 260.479 278.075 260.479C278.591 260.479 279.047 260.389 279.443 260.21C279.844 260.031 280.157 259.782 280.383 259.462C280.609 259.138 280.722 258.766 280.722 258.344C280.722 257.905 280.609 257.519 280.383 257.187C280.161 256.85 279.835 256.586 279.405 256.394C278.979 256.202 278.463 256.107 277.858 256.107H276.752V254.496H277.858C278.344 254.496 278.77 254.408 279.137 254.234C279.507 254.059 279.797 253.816 280.006 253.505C280.215 253.19 280.319 252.821 280.319 252.399C280.319 251.994 280.227 251.643 280.044 251.344C279.865 251.042 279.61 250.805 279.277 250.635C278.949 250.464 278.561 250.379 278.114 250.379C277.688 250.379 277.289 250.458 276.919 250.616C276.552 250.769 276.254 250.991 276.024 251.281C275.794 251.566 275.67 251.909 275.653 252.31H273.742C273.763 251.602 273.972 250.98 274.368 250.443C274.769 249.906 275.297 249.487 275.953 249.184C276.61 248.881 277.338 248.73 278.139 248.73C278.979 248.73 279.703 248.894 280.313 249.222C280.926 249.546 281.399 249.979 281.732 250.52C282.068 251.061 282.235 251.653 282.23 252.297C282.235 253.03 282.03 253.652 281.617 254.163C281.208 254.675 280.662 255.018 279.98 255.192V255.295C280.85 255.427 281.523 255.772 282 256.33C282.482 256.888 282.72 257.581 282.716 258.408C282.72 259.128 282.52 259.773 282.115 260.344C281.715 260.915 281.167 261.365 280.472 261.693C279.778 262.017 278.983 262.179 278.088 262.179ZM286.03 262.121C285.681 262.121 285.381 261.998 285.129 261.751C284.878 261.499 284.752 261.197 284.752 260.843C284.752 260.494 284.878 260.195 285.129 259.948C285.381 259.697 285.681 259.571 286.03 259.571C286.38 259.571 286.68 259.697 286.932 259.948C287.183 260.195 287.309 260.494 287.309 260.843C287.309 261.077 287.249 261.293 287.13 261.489C287.015 261.68 286.861 261.834 286.67 261.949C286.478 262.064 286.265 262.121 286.03 262.121ZM293.926 262.217C292.916 262.213 292.053 261.947 291.337 261.418C290.621 260.89 290.074 260.121 289.695 259.111C289.315 258.101 289.126 256.884 289.126 255.461C289.126 254.042 289.315 252.83 289.695 251.824C290.078 250.818 290.628 250.051 291.344 249.523C292.064 248.994 292.925 248.73 293.926 248.73C294.928 248.73 295.786 248.996 296.502 249.529C297.218 250.058 297.766 250.825 298.145 251.83C298.528 252.832 298.72 254.042 298.72 255.461C298.72 256.888 298.531 258.107 298.151 259.117C297.772 260.123 297.224 260.892 296.509 261.425C295.793 261.953 294.932 262.217 293.926 262.217ZM293.926 260.511C294.813 260.511 295.505 260.078 296.004 259.213C296.506 258.348 296.758 257.097 296.758 255.461C296.758 254.374 296.643 253.456 296.413 252.706C296.187 251.952 295.861 251.381 295.435 250.993C295.013 250.601 294.51 250.405 293.926 250.405C293.044 250.405 292.352 250.839 291.849 251.709C291.346 252.578 291.092 253.829 291.088 255.461C291.088 256.552 291.201 257.474 291.427 258.229C291.657 258.979 291.983 259.548 292.405 259.935C292.827 260.319 293.334 260.511 293.926 260.511ZM305.954 248.909V262H303.973V250.891H303.896L300.764 252.936V251.044L304.03 248.909H305.954Z" fill="#424242"/>
<path d="M230 67L342 247V263L230 83V67Z" fill="#CDCDCD" id="c1a1"/>
<path d="M230 263L342 83V67L230 247V263Z" fill="#CDCDCD" id="c1a2"/>

<rect x="345" y="96" width="112" height="3" fill="black"/>
<rect x="345" y="231" width="112" height="3" fill="black"/>
<path d="M368.08 158.909H372.503L375.546 166.324H375.699L378.742 158.909H383.165V172H379.688V164.432H379.586L376.671 171.898H374.574L371.66 164.381H371.557V172H368.08V158.909ZM389.887 172H384.85V158.909H389.835C391.182 158.909 392.345 159.171 393.325 159.695C394.31 160.215 395.068 160.965 395.601 161.945C396.138 162.921 396.406 164.091 396.406 165.455C396.406 166.818 396.14 167.99 395.607 168.97C395.075 169.946 394.32 170.696 393.345 171.22C392.369 171.74 391.216 172 389.887 172ZM388.404 168.983H389.759C390.406 168.983 390.958 168.879 391.414 168.67C391.874 168.461 392.224 168.101 392.463 167.589C392.705 167.078 392.827 166.366 392.827 165.455C392.827 164.543 392.703 163.831 392.456 163.32C392.213 162.808 391.855 162.448 391.382 162.239C390.914 162.031 390.338 161.926 389.656 161.926H388.404V168.983ZM405.108 163C405.074 162.574 404.914 162.241 404.628 162.003C404.347 161.764 403.919 161.645 403.343 161.645C402.977 161.645 402.676 161.69 402.442 161.779C402.212 161.864 402.042 161.982 401.931 162.131C401.82 162.28 401.762 162.45 401.758 162.642C401.75 162.8 401.777 162.942 401.841 163.07C401.909 163.194 402.016 163.307 402.161 163.409C402.306 163.507 402.491 163.597 402.717 163.678C402.943 163.759 403.211 163.831 403.522 163.895L404.596 164.125C405.321 164.278 405.941 164.481 406.456 164.732C406.972 164.984 407.394 165.28 407.722 165.621C408.05 165.957 408.291 166.337 408.444 166.759C408.602 167.18 408.683 167.641 408.687 168.139C408.683 169 408.468 169.729 408.042 170.325C407.615 170.922 407.006 171.376 406.213 171.687C405.425 171.998 404.477 172.153 403.369 172.153C402.231 172.153 401.238 171.985 400.39 171.648C399.547 171.312 398.89 170.794 398.422 170.095C397.957 169.392 397.723 168.493 397.718 167.398H401.093C401.115 167.798 401.215 168.135 401.394 168.408C401.573 168.68 401.824 168.887 402.148 169.028C402.476 169.168 402.866 169.239 403.318 169.239C403.697 169.239 404.015 169.192 404.27 169.098C404.526 169.004 404.72 168.874 404.852 168.708C404.984 168.542 405.052 168.352 405.056 168.139C405.052 167.939 404.986 167.764 404.858 167.615C404.735 167.462 404.53 167.325 404.245 167.206C403.959 167.082 403.574 166.967 403.088 166.861L401.784 166.58C400.625 166.328 399.711 165.908 399.042 165.32C398.377 164.728 398.047 163.92 398.051 162.898C398.047 162.067 398.268 161.34 398.716 160.718C399.167 160.092 399.792 159.604 400.588 159.254C401.39 158.905 402.308 158.73 403.343 158.73C404.4 158.73 405.314 158.907 406.086 159.261C406.857 159.614 407.451 160.113 407.869 160.756C408.291 161.396 408.504 162.143 408.508 163H405.108ZM409.681 161.773V158.909H421.059V161.773H417.121V172H413.619V161.773H409.681ZM434.463 165.455C434.463 166.912 434.18 168.141 433.613 169.143C433.046 170.14 432.281 170.896 431.318 171.412C430.355 171.923 429.281 172.179 428.097 172.179C426.903 172.179 425.825 171.921 424.862 171.406C423.903 170.886 423.141 170.127 422.574 169.13C422.011 168.129 421.73 166.903 421.73 165.455C421.73 163.997 422.011 162.77 422.574 161.773C423.141 160.771 423.903 160.015 424.862 159.504C425.825 158.988 426.903 158.73 428.097 158.73C429.281 158.73 430.355 158.988 431.318 159.504C432.281 160.015 433.046 160.771 433.613 161.773C434.18 162.77 434.463 163.997 434.463 165.455ZM430.807 165.455C430.807 164.67 430.702 164.01 430.494 163.473C430.289 162.932 429.984 162.523 429.58 162.246C429.179 161.964 428.685 161.824 428.097 161.824C427.509 161.824 427.012 161.964 426.607 162.246C426.207 162.523 425.902 162.932 425.693 163.473C425.489 164.01 425.386 164.67 425.386 165.455C425.386 166.239 425.489 166.901 425.693 167.442C425.902 167.979 426.207 168.388 426.607 168.67C427.012 168.947 427.509 169.085 428.097 169.085C428.685 169.085 429.179 168.947 429.58 168.67C429.984 168.388 430.289 167.979 430.494 167.442C430.702 166.901 430.807 166.239 430.807 165.455Z" fill="black"/>

<path d="M297 197.5L286 179.5L275 197.5H297Z" fill="#B1B1B1" id="c1up"/>
<path d="M297 134.5L286 152.5L275 134.5H297Z" fill="#B1B1B1" id="c1dw"/>

</svg>
